M48
; DRILL file {KiCad 9.0.3} date 2025-07-30T17:57:29+0200
; FORMAT={-:-/ absolute / metric / decimal}
; #@! TF.CreationDate,2025-07-30T17:57:29+02:00
; #@! TF.GenerationSoftware,Kicad,Pcbnew,9.0.3
; #@! TF.FileFunction,Plated,1,2,PTH
FMAT,2
METRIC
; #@! TA.AperFunction,Plated,PTH,ViaDrill
T1C0.300
; #@! TA.AperFunction,Plated,PTH,ComponentDrill
T2C0.700
; #@! TA.AperFunction,Plated,PTH,ComponentDrill
T3C0.800
; #@! TA.AperFunction,Plated,PTH,ComponentDrill
T4C1.000
%
G90
G05
T1
X96.5Y-90.0
X112.5Y-96.5
X113.242Y-89.758
T2
X57.5Y-97.838
X57.5Y-105.458
X60.0Y-89.56
X60.0Y-92.06
X61.5Y-97.838
X61.5Y-105.458
X65.5Y-97.838
X65.5Y-105.458
X69.5Y-97.838
X69.5Y-105.458
X73.5Y-97.838
X73.5Y-105.458
X77.5Y-97.838
X77.5Y-105.458
X81.5Y-97.838
X81.5Y-105.458
X85.501Y-97.88
X85.501Y-105.5
X90.5Y-98.0
X90.5Y-105.62
X92.0Y-89.25
X92.0Y-91.75
X94.5Y-98.19
X94.5Y-105.81
X98.5Y-98.0
X98.5Y-105.62
X102.5Y-98.0
X102.5Y-105.62
X106.5Y-98.0
X106.5Y-105.62
X110.5Y-98.0
X110.5Y-105.62
X114.5Y-98.0
X114.5Y-105.62
X118.5Y-98.19
X118.5Y-105.81
X123.5Y-98.19
X123.5Y-105.81
X127.5Y-98.19
X127.5Y-105.81
X131.5Y-98.19
X131.5Y-105.81
X135.5Y-98.19
X135.5Y-105.81
X139.5Y-98.19
X139.5Y-105.81
X143.5Y-98.19
X143.5Y-105.81
X147.5Y-98.19
X147.5Y-105.81
X151.5Y-98.19
X151.5Y-105.81
X152.0Y-89.0
X152.0Y-91.5
X156.5Y-98.19
X156.5Y-105.81
X160.5Y-98.19
X160.5Y-105.81
X164.5Y-98.19
X164.5Y-105.81
X168.5Y-98.19
X168.5Y-105.81
X172.5Y-98.19
X172.5Y-105.81
X176.5Y-98.19
X176.5Y-105.81
X180.5Y-98.19
X180.5Y-105.81
X184.5Y-98.19
X184.5Y-105.81
X185.0Y-89.25
X185.0Y-91.75
T3
X63.26Y-87.0
X63.26Y-94.62
X65.8Y-87.0
X65.8Y-94.62
X68.34Y-87.0
X68.34Y-94.62
X70.88Y-87.0
X70.88Y-94.62
X73.42Y-87.0
X73.42Y-94.62
X75.96Y-87.0
X75.96Y-94.62
X78.5Y-87.0
X78.5Y-94.62
X81.04Y-87.0
X81.04Y-94.62
X95.76Y-87.0
X95.76Y-94.62
X98.3Y-87.0
X98.3Y-94.62
X100.84Y-87.0
X100.84Y-94.62
X103.38Y-87.0
X103.38Y-94.62
X105.92Y-87.0
X105.92Y-94.62
X108.46Y-87.0
X108.46Y-94.62
X111.0Y-87.0
X111.0Y-94.62
X113.54Y-87.0
X113.54Y-94.62
X129.76Y-87.0
X129.76Y-94.62
X132.3Y-87.0
X132.3Y-94.62
X134.84Y-87.0
X134.84Y-94.62
X137.38Y-87.0
X137.38Y-94.62
X139.92Y-87.0
X139.92Y-94.62
X142.46Y-87.0
X142.46Y-94.62
X145.0Y-87.0
X145.0Y-94.62
X147.54Y-87.0
X147.54Y-94.62
X162.3Y-87.12
X162.3Y-94.74
X164.84Y-87.12
X164.84Y-94.74
X167.38Y-87.12
X167.38Y-94.74
X169.92Y-87.12
X169.92Y-94.74
X172.46Y-87.12
X172.46Y-94.74
X175.0Y-87.12
X175.0Y-94.74
X177.54Y-87.12
X177.54Y-94.74
X180.08Y-87.12
X180.08Y-94.74
T4
X50.0Y-95.5
X50.0Y-98.04
X52.54Y-95.5
X52.54Y-98.04
X120.46Y-83.5
X120.46Y-86.04
X120.46Y-88.58
X120.46Y-91.12
X120.46Y-93.66
X123.0Y-83.5
X123.0Y-86.04
X123.0Y-88.58
X123.0Y-91.12
X123.0Y-93.66
M30
