%TF.GenerationSoftware,KiCad,Pcbnew,9.0.3*%
%TF.CreationDate,2025-07-30T17:57:52+02:00*%
%TF.ProjectId,Kosmo drum sequencer input output board,4b6f736d-6f20-4647-9275-6d2073657175,rev?*%
%TF.SameCoordinates,Original*%
%TF.FileFunction,Legend,Top*%
%TF.FilePolarity,Positive*%
%FSLAX46Y46*%
G04 Gerber Fmt 4.6, Leading zero omitted, Abs format (unit mm)*
G04 Created by KiCad (PCBNEW 9.0.3) date 2025-07-30 17:57:52*
%MOMM*%
%LPD*%
G01*
G04 APERTURE LIST*
%ADD10C,0.100000*%
%ADD11C,0.200000*%
%ADD12C,0.250000*%
%ADD13C,0.150000*%
%ADD14C,0.120000*%
G04 APERTURE END LIST*
D10*
X49803884Y-92491466D02*
X50565789Y-92491466D01*
X50184836Y-92872419D02*
X50184836Y-92110514D01*
X51518169Y-91872419D02*
X51041979Y-91872419D01*
X51041979Y-91872419D02*
X50994360Y-92348609D01*
X50994360Y-92348609D02*
X51041979Y-92300990D01*
X51041979Y-92300990D02*
X51137217Y-92253371D01*
X51137217Y-92253371D02*
X51375312Y-92253371D01*
X51375312Y-92253371D02*
X51470550Y-92300990D01*
X51470550Y-92300990D02*
X51518169Y-92348609D01*
X51518169Y-92348609D02*
X51565788Y-92443847D01*
X51565788Y-92443847D02*
X51565788Y-92681942D01*
X51565788Y-92681942D02*
X51518169Y-92777180D01*
X51518169Y-92777180D02*
X51470550Y-92824800D01*
X51470550Y-92824800D02*
X51375312Y-92872419D01*
X51375312Y-92872419D02*
X51137217Y-92872419D01*
X51137217Y-92872419D02*
X51041979Y-92824800D01*
X51041979Y-92824800D02*
X50994360Y-92777180D01*
X51851503Y-91872419D02*
X52184836Y-92872419D01*
X52184836Y-92872419D02*
X52518169Y-91872419D01*
D11*
X62369673Y-83367219D02*
X62369673Y-82367219D01*
X62941101Y-83367219D02*
X62512530Y-82795790D01*
X62941101Y-82367219D02*
X62369673Y-82938647D01*
X63560149Y-82367219D02*
X63750625Y-82367219D01*
X63750625Y-82367219D02*
X63845863Y-82414838D01*
X63845863Y-82414838D02*
X63941101Y-82510076D01*
X63941101Y-82510076D02*
X63988720Y-82700552D01*
X63988720Y-82700552D02*
X63988720Y-83033885D01*
X63988720Y-83033885D02*
X63941101Y-83224361D01*
X63941101Y-83224361D02*
X63845863Y-83319600D01*
X63845863Y-83319600D02*
X63750625Y-83367219D01*
X63750625Y-83367219D02*
X63560149Y-83367219D01*
X63560149Y-83367219D02*
X63464911Y-83319600D01*
X63464911Y-83319600D02*
X63369673Y-83224361D01*
X63369673Y-83224361D02*
X63322054Y-83033885D01*
X63322054Y-83033885D02*
X63322054Y-82700552D01*
X63322054Y-82700552D02*
X63369673Y-82510076D01*
X63369673Y-82510076D02*
X63464911Y-82414838D01*
X63464911Y-82414838D02*
X63560149Y-82367219D01*
X64369673Y-83319600D02*
X64512530Y-83367219D01*
X64512530Y-83367219D02*
X64750625Y-83367219D01*
X64750625Y-83367219D02*
X64845863Y-83319600D01*
X64845863Y-83319600D02*
X64893482Y-83271980D01*
X64893482Y-83271980D02*
X64941101Y-83176742D01*
X64941101Y-83176742D02*
X64941101Y-83081504D01*
X64941101Y-83081504D02*
X64893482Y-82986266D01*
X64893482Y-82986266D02*
X64845863Y-82938647D01*
X64845863Y-82938647D02*
X64750625Y-82891028D01*
X64750625Y-82891028D02*
X64560149Y-82843409D01*
X64560149Y-82843409D02*
X64464911Y-82795790D01*
X64464911Y-82795790D02*
X64417292Y-82748171D01*
X64417292Y-82748171D02*
X64369673Y-82652933D01*
X64369673Y-82652933D02*
X64369673Y-82557695D01*
X64369673Y-82557695D02*
X64417292Y-82462457D01*
X64417292Y-82462457D02*
X64464911Y-82414838D01*
X64464911Y-82414838D02*
X64560149Y-82367219D01*
X64560149Y-82367219D02*
X64798244Y-82367219D01*
X64798244Y-82367219D02*
X64941101Y-82414838D01*
X65369673Y-83367219D02*
X65369673Y-82367219D01*
X65369673Y-82367219D02*
X65703006Y-83081504D01*
X65703006Y-83081504D02*
X66036339Y-82367219D01*
X66036339Y-82367219D02*
X66036339Y-83367219D01*
X66703006Y-82367219D02*
X66893482Y-82367219D01*
X66893482Y-82367219D02*
X66988720Y-82414838D01*
X66988720Y-82414838D02*
X67083958Y-82510076D01*
X67083958Y-82510076D02*
X67131577Y-82700552D01*
X67131577Y-82700552D02*
X67131577Y-83033885D01*
X67131577Y-83033885D02*
X67083958Y-83224361D01*
X67083958Y-83224361D02*
X66988720Y-83319600D01*
X66988720Y-83319600D02*
X66893482Y-83367219D01*
X66893482Y-83367219D02*
X66703006Y-83367219D01*
X66703006Y-83367219D02*
X66607768Y-83319600D01*
X66607768Y-83319600D02*
X66512530Y-83224361D01*
X66512530Y-83224361D02*
X66464911Y-83033885D01*
X66464911Y-83033885D02*
X66464911Y-82700552D01*
X66464911Y-82700552D02*
X66512530Y-82510076D01*
X66512530Y-82510076D02*
X66607768Y-82414838D01*
X66607768Y-82414838D02*
X66703006Y-82367219D01*
X68798244Y-82367219D02*
X68322054Y-82367219D01*
X68322054Y-82367219D02*
X68274435Y-82843409D01*
X68274435Y-82843409D02*
X68322054Y-82795790D01*
X68322054Y-82795790D02*
X68417292Y-82748171D01*
X68417292Y-82748171D02*
X68655387Y-82748171D01*
X68655387Y-82748171D02*
X68750625Y-82795790D01*
X68750625Y-82795790D02*
X68798244Y-82843409D01*
X68798244Y-82843409D02*
X68845863Y-82938647D01*
X68845863Y-82938647D02*
X68845863Y-83176742D01*
X68845863Y-83176742D02*
X68798244Y-83271980D01*
X68798244Y-83271980D02*
X68750625Y-83319600D01*
X68750625Y-83319600D02*
X68655387Y-83367219D01*
X68655387Y-83367219D02*
X68417292Y-83367219D01*
X68417292Y-83367219D02*
X68322054Y-83319600D01*
X68322054Y-83319600D02*
X68274435Y-83271980D01*
X70607768Y-83271980D02*
X70560149Y-83319600D01*
X70560149Y-83319600D02*
X70417292Y-83367219D01*
X70417292Y-83367219D02*
X70322054Y-83367219D01*
X70322054Y-83367219D02*
X70179197Y-83319600D01*
X70179197Y-83319600D02*
X70083959Y-83224361D01*
X70083959Y-83224361D02*
X70036340Y-83129123D01*
X70036340Y-83129123D02*
X69988721Y-82938647D01*
X69988721Y-82938647D02*
X69988721Y-82795790D01*
X69988721Y-82795790D02*
X70036340Y-82605314D01*
X70036340Y-82605314D02*
X70083959Y-82510076D01*
X70083959Y-82510076D02*
X70179197Y-82414838D01*
X70179197Y-82414838D02*
X70322054Y-82367219D01*
X70322054Y-82367219D02*
X70417292Y-82367219D01*
X70417292Y-82367219D02*
X70560149Y-82414838D01*
X70560149Y-82414838D02*
X70607768Y-82462457D01*
X71036340Y-83367219D02*
X71036340Y-82367219D01*
X71036340Y-82843409D02*
X71607768Y-82843409D01*
X71607768Y-83367219D02*
X71607768Y-82367219D01*
X72036340Y-83081504D02*
X72512530Y-83081504D01*
X71941102Y-83367219D02*
X72274435Y-82367219D01*
X72274435Y-82367219D02*
X72607768Y-83367219D01*
X72941102Y-83367219D02*
X72941102Y-82367219D01*
X72941102Y-82367219D02*
X73512530Y-83367219D01*
X73512530Y-83367219D02*
X73512530Y-82367219D01*
X73988721Y-83367219D02*
X73988721Y-82367219D01*
X73988721Y-82367219D02*
X74560149Y-83367219D01*
X74560149Y-83367219D02*
X74560149Y-82367219D01*
X75036340Y-82843409D02*
X75369673Y-82843409D01*
X75512530Y-83367219D02*
X75036340Y-83367219D01*
X75036340Y-83367219D02*
X75036340Y-82367219D01*
X75036340Y-82367219D02*
X75512530Y-82367219D01*
X76417292Y-83367219D02*
X75941102Y-83367219D01*
X75941102Y-83367219D02*
X75941102Y-82367219D01*
X77512531Y-83367219D02*
X77512531Y-82367219D01*
X77512531Y-82367219D02*
X77750626Y-82367219D01*
X77750626Y-82367219D02*
X77893483Y-82414838D01*
X77893483Y-82414838D02*
X77988721Y-82510076D01*
X77988721Y-82510076D02*
X78036340Y-82605314D01*
X78036340Y-82605314D02*
X78083959Y-82795790D01*
X78083959Y-82795790D02*
X78083959Y-82938647D01*
X78083959Y-82938647D02*
X78036340Y-83129123D01*
X78036340Y-83129123D02*
X77988721Y-83224361D01*
X77988721Y-83224361D02*
X77893483Y-83319600D01*
X77893483Y-83319600D02*
X77750626Y-83367219D01*
X77750626Y-83367219D02*
X77512531Y-83367219D01*
X79083959Y-83367219D02*
X78750626Y-82891028D01*
X78512531Y-83367219D02*
X78512531Y-82367219D01*
X78512531Y-82367219D02*
X78893483Y-82367219D01*
X78893483Y-82367219D02*
X78988721Y-82414838D01*
X78988721Y-82414838D02*
X79036340Y-82462457D01*
X79036340Y-82462457D02*
X79083959Y-82557695D01*
X79083959Y-82557695D02*
X79083959Y-82700552D01*
X79083959Y-82700552D02*
X79036340Y-82795790D01*
X79036340Y-82795790D02*
X78988721Y-82843409D01*
X78988721Y-82843409D02*
X78893483Y-82891028D01*
X78893483Y-82891028D02*
X78512531Y-82891028D01*
X79512531Y-82367219D02*
X79512531Y-83176742D01*
X79512531Y-83176742D02*
X79560150Y-83271980D01*
X79560150Y-83271980D02*
X79607769Y-83319600D01*
X79607769Y-83319600D02*
X79703007Y-83367219D01*
X79703007Y-83367219D02*
X79893483Y-83367219D01*
X79893483Y-83367219D02*
X79988721Y-83319600D01*
X79988721Y-83319600D02*
X80036340Y-83271980D01*
X80036340Y-83271980D02*
X80083959Y-83176742D01*
X80083959Y-83176742D02*
X80083959Y-82367219D01*
X80560150Y-83367219D02*
X80560150Y-82367219D01*
X80560150Y-82367219D02*
X80893483Y-83081504D01*
X80893483Y-83081504D02*
X81226816Y-82367219D01*
X81226816Y-82367219D02*
X81226816Y-83367219D01*
X82417293Y-83319600D02*
X82560150Y-83367219D01*
X82560150Y-83367219D02*
X82798245Y-83367219D01*
X82798245Y-83367219D02*
X82893483Y-83319600D01*
X82893483Y-83319600D02*
X82941102Y-83271980D01*
X82941102Y-83271980D02*
X82988721Y-83176742D01*
X82988721Y-83176742D02*
X82988721Y-83081504D01*
X82988721Y-83081504D02*
X82941102Y-82986266D01*
X82941102Y-82986266D02*
X82893483Y-82938647D01*
X82893483Y-82938647D02*
X82798245Y-82891028D01*
X82798245Y-82891028D02*
X82607769Y-82843409D01*
X82607769Y-82843409D02*
X82512531Y-82795790D01*
X82512531Y-82795790D02*
X82464912Y-82748171D01*
X82464912Y-82748171D02*
X82417293Y-82652933D01*
X82417293Y-82652933D02*
X82417293Y-82557695D01*
X82417293Y-82557695D02*
X82464912Y-82462457D01*
X82464912Y-82462457D02*
X82512531Y-82414838D01*
X82512531Y-82414838D02*
X82607769Y-82367219D01*
X82607769Y-82367219D02*
X82845864Y-82367219D01*
X82845864Y-82367219D02*
X82988721Y-82414838D01*
X83417293Y-82843409D02*
X83750626Y-82843409D01*
X83893483Y-83367219D02*
X83417293Y-83367219D01*
X83417293Y-83367219D02*
X83417293Y-82367219D01*
X83417293Y-82367219D02*
X83893483Y-82367219D01*
X84988721Y-83462457D02*
X84893483Y-83414838D01*
X84893483Y-83414838D02*
X84798245Y-83319600D01*
X84798245Y-83319600D02*
X84655388Y-83176742D01*
X84655388Y-83176742D02*
X84560150Y-83129123D01*
X84560150Y-83129123D02*
X84464912Y-83129123D01*
X84512531Y-83367219D02*
X84417293Y-83319600D01*
X84417293Y-83319600D02*
X84322055Y-83224361D01*
X84322055Y-83224361D02*
X84274436Y-83033885D01*
X84274436Y-83033885D02*
X84274436Y-82700552D01*
X84274436Y-82700552D02*
X84322055Y-82510076D01*
X84322055Y-82510076D02*
X84417293Y-82414838D01*
X84417293Y-82414838D02*
X84512531Y-82367219D01*
X84512531Y-82367219D02*
X84703007Y-82367219D01*
X84703007Y-82367219D02*
X84798245Y-82414838D01*
X84798245Y-82414838D02*
X84893483Y-82510076D01*
X84893483Y-82510076D02*
X84941102Y-82700552D01*
X84941102Y-82700552D02*
X84941102Y-83033885D01*
X84941102Y-83033885D02*
X84893483Y-83224361D01*
X84893483Y-83224361D02*
X84798245Y-83319600D01*
X84798245Y-83319600D02*
X84703007Y-83367219D01*
X84703007Y-83367219D02*
X84512531Y-83367219D01*
X85369674Y-82367219D02*
X85369674Y-83176742D01*
X85369674Y-83176742D02*
X85417293Y-83271980D01*
X85417293Y-83271980D02*
X85464912Y-83319600D01*
X85464912Y-83319600D02*
X85560150Y-83367219D01*
X85560150Y-83367219D02*
X85750626Y-83367219D01*
X85750626Y-83367219D02*
X85845864Y-83319600D01*
X85845864Y-83319600D02*
X85893483Y-83271980D01*
X85893483Y-83271980D02*
X85941102Y-83176742D01*
X85941102Y-83176742D02*
X85941102Y-82367219D01*
X86417293Y-82843409D02*
X86750626Y-82843409D01*
X86893483Y-83367219D02*
X86417293Y-83367219D01*
X86417293Y-83367219D02*
X86417293Y-82367219D01*
X86417293Y-82367219D02*
X86893483Y-82367219D01*
X87322055Y-83367219D02*
X87322055Y-82367219D01*
X87322055Y-82367219D02*
X87893483Y-83367219D01*
X87893483Y-83367219D02*
X87893483Y-82367219D01*
X88941102Y-83271980D02*
X88893483Y-83319600D01*
X88893483Y-83319600D02*
X88750626Y-83367219D01*
X88750626Y-83367219D02*
X88655388Y-83367219D01*
X88655388Y-83367219D02*
X88512531Y-83319600D01*
X88512531Y-83319600D02*
X88417293Y-83224361D01*
X88417293Y-83224361D02*
X88369674Y-83129123D01*
X88369674Y-83129123D02*
X88322055Y-82938647D01*
X88322055Y-82938647D02*
X88322055Y-82795790D01*
X88322055Y-82795790D02*
X88369674Y-82605314D01*
X88369674Y-82605314D02*
X88417293Y-82510076D01*
X88417293Y-82510076D02*
X88512531Y-82414838D01*
X88512531Y-82414838D02*
X88655388Y-82367219D01*
X88655388Y-82367219D02*
X88750626Y-82367219D01*
X88750626Y-82367219D02*
X88893483Y-82414838D01*
X88893483Y-82414838D02*
X88941102Y-82462457D01*
X89369674Y-82843409D02*
X89703007Y-82843409D01*
X89845864Y-83367219D02*
X89369674Y-83367219D01*
X89369674Y-83367219D02*
X89369674Y-82367219D01*
X89369674Y-82367219D02*
X89845864Y-82367219D01*
X90845864Y-83367219D02*
X90512531Y-82891028D01*
X90274436Y-83367219D02*
X90274436Y-82367219D01*
X90274436Y-82367219D02*
X90655388Y-82367219D01*
X90655388Y-82367219D02*
X90750626Y-82414838D01*
X90750626Y-82414838D02*
X90798245Y-82462457D01*
X90798245Y-82462457D02*
X90845864Y-82557695D01*
X90845864Y-82557695D02*
X90845864Y-82700552D01*
X90845864Y-82700552D02*
X90798245Y-82795790D01*
X90798245Y-82795790D02*
X90750626Y-82843409D01*
X90750626Y-82843409D02*
X90655388Y-82891028D01*
X90655388Y-82891028D02*
X90274436Y-82891028D01*
D10*
X125351882Y-83039588D02*
X125113787Y-83039588D01*
X125113787Y-83039588D02*
X125089978Y-83277683D01*
X125089978Y-83277683D02*
X125113787Y-83253874D01*
X125113787Y-83253874D02*
X125161406Y-83230064D01*
X125161406Y-83230064D02*
X125280454Y-83230064D01*
X125280454Y-83230064D02*
X125328073Y-83253874D01*
X125328073Y-83253874D02*
X125351882Y-83277683D01*
X125351882Y-83277683D02*
X125375692Y-83325302D01*
X125375692Y-83325302D02*
X125375692Y-83444350D01*
X125375692Y-83444350D02*
X125351882Y-83491969D01*
X125351882Y-83491969D02*
X125328073Y-83515779D01*
X125328073Y-83515779D02*
X125280454Y-83539588D01*
X125280454Y-83539588D02*
X125161406Y-83539588D01*
X125161406Y-83539588D02*
X125113787Y-83515779D01*
X125113787Y-83515779D02*
X125089978Y-83491969D01*
X125613787Y-83539588D02*
X125709025Y-83539588D01*
X125709025Y-83539588D02*
X125756644Y-83515779D01*
X125756644Y-83515779D02*
X125780453Y-83491969D01*
X125780453Y-83491969D02*
X125828072Y-83420540D01*
X125828072Y-83420540D02*
X125851882Y-83325302D01*
X125851882Y-83325302D02*
X125851882Y-83134826D01*
X125851882Y-83134826D02*
X125828072Y-83087207D01*
X125828072Y-83087207D02*
X125804263Y-83063398D01*
X125804263Y-83063398D02*
X125756644Y-83039588D01*
X125756644Y-83039588D02*
X125661406Y-83039588D01*
X125661406Y-83039588D02*
X125613787Y-83063398D01*
X125613787Y-83063398D02*
X125589977Y-83087207D01*
X125589977Y-83087207D02*
X125566168Y-83134826D01*
X125566168Y-83134826D02*
X125566168Y-83253874D01*
X125566168Y-83253874D02*
X125589977Y-83301493D01*
X125589977Y-83301493D02*
X125613787Y-83325302D01*
X125613787Y-83325302D02*
X125661406Y-83349112D01*
X125661406Y-83349112D02*
X125756644Y-83349112D01*
X125756644Y-83349112D02*
X125804263Y-83325302D01*
X125804263Y-83325302D02*
X125828072Y-83301493D01*
X125828072Y-83301493D02*
X125851882Y-83253874D01*
X126304262Y-83039588D02*
X126066167Y-83039588D01*
X126066167Y-83039588D02*
X126042358Y-83277683D01*
X126042358Y-83277683D02*
X126066167Y-83253874D01*
X126066167Y-83253874D02*
X126113786Y-83230064D01*
X126113786Y-83230064D02*
X126232834Y-83230064D01*
X126232834Y-83230064D02*
X126280453Y-83253874D01*
X126280453Y-83253874D02*
X126304262Y-83277683D01*
X126304262Y-83277683D02*
X126328072Y-83325302D01*
X126328072Y-83325302D02*
X126328072Y-83444350D01*
X126328072Y-83444350D02*
X126304262Y-83491969D01*
X126304262Y-83491969D02*
X126280453Y-83515779D01*
X126280453Y-83515779D02*
X126232834Y-83539588D01*
X126232834Y-83539588D02*
X126113786Y-83539588D01*
X126113786Y-83539588D02*
X126066167Y-83515779D01*
X126066167Y-83515779D02*
X126042358Y-83491969D01*
X126899500Y-83015779D02*
X126470929Y-83658636D01*
X127328072Y-83539588D02*
X127042358Y-83539588D01*
X127185215Y-83539588D02*
X127185215Y-83039588D01*
X127185215Y-83039588D02*
X127137596Y-83111017D01*
X127137596Y-83111017D02*
X127089977Y-83158636D01*
X127089977Y-83158636D02*
X127042358Y-83182445D01*
X127804262Y-83539588D02*
X127518548Y-83539588D01*
X127661405Y-83539588D02*
X127661405Y-83039588D01*
X127661405Y-83039588D02*
X127613786Y-83111017D01*
X127613786Y-83111017D02*
X127566167Y-83158636D01*
X127566167Y-83158636D02*
X127518548Y-83182445D01*
D12*
G36*
X98185666Y-82514970D02*
G01*
X98242077Y-82571381D01*
X98277567Y-82713341D01*
X98277567Y-83015896D01*
X98242077Y-83157855D01*
X98185663Y-83214269D01*
X98134964Y-83239619D01*
X98003505Y-83239619D01*
X97952804Y-83214268D01*
X97896390Y-83157855D01*
X97860901Y-83015896D01*
X97860901Y-82713341D01*
X97896391Y-82571381D01*
X97952801Y-82514970D01*
X98003505Y-82489619D01*
X98134964Y-82489619D01*
X98185666Y-82514970D01*
G37*
G36*
X104620759Y-82997681D02*
G01*
X104633169Y-83010092D01*
X104658520Y-83060793D01*
X104658520Y-83144633D01*
X104633168Y-83195336D01*
X104614237Y-83214268D01*
X104563536Y-83239619D01*
X104337092Y-83239619D01*
X104337092Y-82965809D01*
X104525142Y-82965809D01*
X104620759Y-82997681D01*
G37*
G36*
X104566618Y-82514969D02*
G01*
X104585550Y-82533902D01*
X104610901Y-82584603D01*
X104610901Y-82620824D01*
X104585550Y-82671525D01*
X104566618Y-82690458D01*
X104515917Y-82715809D01*
X104337092Y-82715809D01*
X104337092Y-82489619D01*
X104515917Y-82489619D01*
X104566618Y-82514969D01*
G37*
G36*
X105614238Y-82514970D02*
G01*
X105670649Y-82571381D01*
X105706139Y-82713341D01*
X105706139Y-83015896D01*
X105670649Y-83157855D01*
X105614235Y-83214269D01*
X105563536Y-83239619D01*
X105432077Y-83239619D01*
X105381376Y-83214268D01*
X105324962Y-83157855D01*
X105289473Y-83015896D01*
X105289473Y-82713341D01*
X105324963Y-82571381D01*
X105381373Y-82514970D01*
X105432077Y-82489619D01*
X105563536Y-82489619D01*
X105614238Y-82514970D01*
G37*
G36*
X108430283Y-82521491D02*
G01*
X108490311Y-82581519D01*
X108522722Y-82646342D01*
X108563282Y-82808579D01*
X108563282Y-82920658D01*
X108522722Y-83082894D01*
X108490312Y-83147715D01*
X108430282Y-83207746D01*
X108334666Y-83239619D01*
X108241854Y-83239619D01*
X108241854Y-82489619D01*
X108334666Y-82489619D01*
X108430283Y-82521491D01*
G37*
G36*
X115138047Y-82514969D02*
G01*
X115156979Y-82533902D01*
X115189389Y-82598723D01*
X115229949Y-82760960D01*
X115229949Y-82968277D01*
X115189389Y-83130513D01*
X115156978Y-83195336D01*
X115138047Y-83214268D01*
X115087346Y-83239619D01*
X115051125Y-83239619D01*
X115000423Y-83214268D01*
X114981491Y-83195336D01*
X114949080Y-83130515D01*
X114908521Y-82968277D01*
X114908521Y-82760960D01*
X114949080Y-82598722D01*
X114981490Y-82533901D01*
X115000423Y-82514969D01*
X115051125Y-82489619D01*
X115087346Y-82489619D01*
X115138047Y-82514969D01*
G37*
G36*
X107518999Y-82514969D02*
G01*
X107537931Y-82533902D01*
X107563282Y-82584603D01*
X107563282Y-82668443D01*
X107537931Y-82719144D01*
X107518999Y-82738077D01*
X107468298Y-82763428D01*
X107241854Y-82763428D01*
X107241854Y-82489619D01*
X107468298Y-82489619D01*
X107518999Y-82514969D01*
G37*
G36*
X110280904Y-82514969D02*
G01*
X110299836Y-82533902D01*
X110325187Y-82584603D01*
X110325187Y-82668443D01*
X110299836Y-82719144D01*
X110280904Y-82738077D01*
X110230203Y-82763428D01*
X110003759Y-82763428D01*
X110003759Y-82489619D01*
X110230203Y-82489619D01*
X110280904Y-82514969D01*
G37*
G36*
X106514854Y-82953904D02*
G01*
X106385520Y-82953904D01*
X106450186Y-82759903D01*
X106514854Y-82953904D01*
G37*
G36*
X94328522Y-82514969D02*
G01*
X94347454Y-82533902D01*
X94372805Y-82584603D01*
X94372805Y-82668443D01*
X94347454Y-82719144D01*
X94328522Y-82738077D01*
X94277821Y-82763428D01*
X94051377Y-82763428D01*
X94051377Y-82489619D01*
X94277821Y-82489619D01*
X94328522Y-82514969D01*
G37*
G36*
X101042808Y-82514969D02*
G01*
X101061740Y-82533902D01*
X101087091Y-82584603D01*
X101087091Y-82668443D01*
X101061740Y-82719144D01*
X101042808Y-82738077D01*
X100992107Y-82763428D01*
X100765663Y-82763428D01*
X100765663Y-82489619D01*
X100992107Y-82489619D01*
X101042808Y-82514969D01*
G37*
G36*
X115604949Y-83852714D02*
G01*
X92152568Y-83852714D01*
X92152568Y-83602844D01*
X96468044Y-83602844D01*
X96477609Y-83650671D01*
X96504749Y-83691195D01*
X96545329Y-83718249D01*
X96593174Y-83727714D01*
X96641001Y-83718149D01*
X96681525Y-83691009D01*
X96697050Y-83672051D01*
X97346450Y-82697952D01*
X97610901Y-82697952D01*
X97610901Y-83031285D01*
X97611320Y-83035539D01*
X97611049Y-83037361D01*
X97612398Y-83046489D01*
X97613303Y-83055671D01*
X97614007Y-83057372D01*
X97614633Y-83061602D01*
X97662252Y-83252078D01*
X97670497Y-83275153D01*
X97676029Y-83282619D01*
X97679586Y-83291207D01*
X97695131Y-83310149D01*
X97790369Y-83405388D01*
X97799957Y-83413257D01*
X97802119Y-83415749D01*
X97805876Y-83418114D01*
X97809311Y-83420933D01*
X97812361Y-83422196D01*
X97822856Y-83428803D01*
X97918094Y-83476422D01*
X97940980Y-83485180D01*
X97945460Y-83485498D01*
X97949610Y-83487217D01*
X97973996Y-83489619D01*
X98164472Y-83489619D01*
X98188858Y-83487217D01*
X98193006Y-83485498D01*
X98197488Y-83485180D01*
X98220374Y-83476422D01*
X98315611Y-83428804D01*
X98326107Y-83422196D01*
X98329157Y-83420933D01*
X98332591Y-83418114D01*
X98336349Y-83415749D01*
X98338510Y-83413257D01*
X98348099Y-83405388D01*
X98443337Y-83310149D01*
X98458882Y-83291207D01*
X98462439Y-83282618D01*
X98467971Y-83275153D01*
X98476216Y-83252078D01*
X98523835Y-83061602D01*
X98524460Y-83057372D01*
X98525165Y-83055671D01*
X98526069Y-83046491D01*
X98527419Y-83037362D01*
X98527147Y-83035539D01*
X98527567Y-83031285D01*
X98527567Y-82697952D01*
X98527147Y-82693697D01*
X98527419Y-82691875D01*
X98526069Y-82682745D01*
X98525165Y-82673566D01*
X98524460Y-82671864D01*
X98523835Y-82667635D01*
X98476216Y-82477159D01*
X98467971Y-82454084D01*
X98462437Y-82446615D01*
X98458881Y-82438030D01*
X98443336Y-82419088D01*
X98388867Y-82364619D01*
X98706139Y-82364619D01*
X98706139Y-83174142D01*
X98708541Y-83198528D01*
X98710259Y-83202676D01*
X98710578Y-83207158D01*
X98719336Y-83230044D01*
X98766954Y-83325281D01*
X98773561Y-83335777D01*
X98774824Y-83338825D01*
X98777641Y-83342258D01*
X98780009Y-83346019D01*
X98782503Y-83348182D01*
X98790369Y-83357767D01*
X98837988Y-83405387D01*
X98847576Y-83413256D01*
X98849738Y-83415749D01*
X98853492Y-83418112D01*
X98856929Y-83420933D01*
X98859982Y-83422197D01*
X98870475Y-83428803D01*
X98965713Y-83476422D01*
X98988599Y-83485180D01*
X98993079Y-83485498D01*
X98997229Y-83487217D01*
X99021615Y-83489619D01*
X99212091Y-83489619D01*
X99236477Y-83487217D01*
X99240625Y-83485498D01*
X99245107Y-83485180D01*
X99267993Y-83476422D01*
X99363230Y-83428804D01*
X99373726Y-83422196D01*
X99376776Y-83420933D01*
X99380209Y-83418114D01*
X99383968Y-83415749D01*
X99386130Y-83413255D01*
X99395718Y-83405387D01*
X99443337Y-83357768D01*
X99451204Y-83348180D01*
X99453697Y-83346019D01*
X99456063Y-83342259D01*
X99458882Y-83338825D01*
X99460144Y-83335776D01*
X99466751Y-83325282D01*
X99514370Y-83230044D01*
X99523128Y-83207158D01*
X99523446Y-83202677D01*
X99525165Y-83198528D01*
X99527567Y-83174142D01*
X99527567Y-82364619D01*
X99525165Y-82340233D01*
X99613303Y-82340233D01*
X99613303Y-82389005D01*
X99631967Y-82434065D01*
X99666455Y-82468553D01*
X99711515Y-82487217D01*
X99735901Y-82489619D01*
X99896615Y-82489619D01*
X99896615Y-83364619D01*
X99899017Y-83389005D01*
X99917681Y-83434065D01*
X99952169Y-83468553D01*
X99997229Y-83487217D01*
X100046001Y-83487217D01*
X100091061Y-83468553D01*
X100125549Y-83434065D01*
X100144213Y-83389005D01*
X100146615Y-83364619D01*
X100146615Y-82489619D01*
X100307329Y-82489619D01*
X100331715Y-82487217D01*
X100376775Y-82468553D01*
X100411263Y-82434065D01*
X100429927Y-82389005D01*
X100429927Y-82364619D01*
X100515663Y-82364619D01*
X100515663Y-83364619D01*
X100518065Y-83389005D01*
X100536729Y-83434065D01*
X100571217Y-83468553D01*
X100616277Y-83487217D01*
X100665049Y-83487217D01*
X100710109Y-83468553D01*
X100744597Y-83434065D01*
X100763261Y-83389005D01*
X100765663Y-83364619D01*
X100765663Y-83013428D01*
X101021615Y-83013428D01*
X101046001Y-83011026D01*
X101050149Y-83009307D01*
X101054631Y-83008989D01*
X101077517Y-83000231D01*
X101172754Y-82952613D01*
X101183252Y-82946003D01*
X101186299Y-82944742D01*
X101189730Y-82941926D01*
X101193492Y-82939558D01*
X101195655Y-82937063D01*
X101205241Y-82929197D01*
X101252860Y-82881579D01*
X101260729Y-82871990D01*
X101263221Y-82869829D01*
X101265586Y-82866071D01*
X101268405Y-82862637D01*
X101269668Y-82859586D01*
X101276275Y-82849092D01*
X101323894Y-82753854D01*
X101332652Y-82730968D01*
X101332970Y-82726487D01*
X101334689Y-82722338D01*
X101337091Y-82697952D01*
X101337091Y-82555095D01*
X101334689Y-82530709D01*
X101332970Y-82526559D01*
X101332652Y-82522079D01*
X101323894Y-82499193D01*
X101276275Y-82403955D01*
X101269668Y-82393460D01*
X101268405Y-82390410D01*
X101265586Y-82386975D01*
X101263221Y-82383218D01*
X101260729Y-82381056D01*
X101252860Y-82371468D01*
X101246011Y-82364619D01*
X101515663Y-82364619D01*
X101515663Y-83174142D01*
X101518065Y-83198528D01*
X101519783Y-83202676D01*
X101520102Y-83207158D01*
X101528860Y-83230044D01*
X101576478Y-83325281D01*
X101583085Y-83335777D01*
X101584348Y-83338825D01*
X101587165Y-83342258D01*
X101589533Y-83346019D01*
X101592027Y-83348182D01*
X101599893Y-83357767D01*
X101647512Y-83405387D01*
X101657100Y-83413256D01*
X101659262Y-83415749D01*
X101663016Y-83418112D01*
X101666453Y-83420933D01*
X101669506Y-83422197D01*
X101679999Y-83428803D01*
X101775237Y-83476422D01*
X101798123Y-83485180D01*
X101802603Y-83485498D01*
X101806753Y-83487217D01*
X101831139Y-83489619D01*
X102021615Y-83489619D01*
X102046001Y-83487217D01*
X102050149Y-83485498D01*
X102054631Y-83485180D01*
X102077517Y-83476422D01*
X102172754Y-83428804D01*
X102183250Y-83422196D01*
X102186300Y-83420933D01*
X102189733Y-83418114D01*
X102193492Y-83415749D01*
X102195654Y-83413255D01*
X102205242Y-83405387D01*
X102252861Y-83357768D01*
X102260728Y-83348180D01*
X102263221Y-83346019D01*
X102265587Y-83342259D01*
X102268406Y-83338825D01*
X102269668Y-83335776D01*
X102276275Y-83325282D01*
X102323894Y-83230044D01*
X102332652Y-83207158D01*
X102332970Y-83202677D01*
X102334689Y-83198528D01*
X102337091Y-83174142D01*
X102337091Y-82364619D01*
X102334689Y-82340233D01*
X102422827Y-82340233D01*
X102422827Y-82389005D01*
X102441491Y-82434065D01*
X102475979Y-82468553D01*
X102521039Y-82487217D01*
X102545425Y-82489619D01*
X102706139Y-82489619D01*
X102706139Y-83364619D01*
X102708541Y-83389005D01*
X102727205Y-83434065D01*
X102761693Y-83468553D01*
X102806753Y-83487217D01*
X102855525Y-83487217D01*
X102900585Y-83468553D01*
X102935073Y-83434065D01*
X102953737Y-83389005D01*
X102956139Y-83364619D01*
X102956139Y-82489619D01*
X103116853Y-82489619D01*
X103141239Y-82487217D01*
X103186299Y-82468553D01*
X103220787Y-82434065D01*
X103239451Y-82389005D01*
X103239451Y-82364619D01*
X104087092Y-82364619D01*
X104087092Y-83364619D01*
X104089494Y-83389005D01*
X104108158Y-83434065D01*
X104142646Y-83468553D01*
X104187706Y-83487217D01*
X104212092Y-83489619D01*
X104593044Y-83489619D01*
X104617430Y-83487217D01*
X104621578Y-83485498D01*
X104626060Y-83485180D01*
X104648946Y-83476422D01*
X104744183Y-83428804D01*
X104754679Y-83422196D01*
X104757729Y-83420933D01*
X104761162Y-83418114D01*
X104764921Y-83415749D01*
X104767083Y-83413255D01*
X104776671Y-83405387D01*
X104824290Y-83357768D01*
X104832157Y-83348180D01*
X104834650Y-83346019D01*
X104837016Y-83342259D01*
X104839835Y-83338825D01*
X104841097Y-83335776D01*
X104847704Y-83325282D01*
X104895323Y-83230044D01*
X104904081Y-83207158D01*
X104904399Y-83202677D01*
X104906118Y-83198528D01*
X104908520Y-83174142D01*
X104908520Y-83031285D01*
X104906118Y-83006899D01*
X104904399Y-83002749D01*
X104904081Y-82998269D01*
X104895323Y-82975383D01*
X104847704Y-82880145D01*
X104841097Y-82869650D01*
X104839834Y-82866600D01*
X104837015Y-82863165D01*
X104834650Y-82859408D01*
X104832158Y-82857246D01*
X104824289Y-82847658D01*
X104791959Y-82815329D01*
X104792215Y-82815018D01*
X104793478Y-82811967D01*
X104800085Y-82801473D01*
X104847704Y-82706235D01*
X104850874Y-82697952D01*
X105039473Y-82697952D01*
X105039473Y-83031285D01*
X105039892Y-83035539D01*
X105039621Y-83037361D01*
X105040970Y-83046489D01*
X105041875Y-83055671D01*
X105042579Y-83057372D01*
X105043205Y-83061602D01*
X105090824Y-83252078D01*
X105099069Y-83275153D01*
X105104601Y-83282619D01*
X105108158Y-83291207D01*
X105123703Y-83310149D01*
X105218941Y-83405388D01*
X105228529Y-83413257D01*
X105230691Y-83415749D01*
X105234448Y-83418114D01*
X105237883Y-83420933D01*
X105240933Y-83422196D01*
X105251428Y-83428803D01*
X105346666Y-83476422D01*
X105369552Y-83485180D01*
X105374032Y-83485498D01*
X105378182Y-83487217D01*
X105402568Y-83489619D01*
X105593044Y-83489619D01*
X105617430Y-83487217D01*
X105621578Y-83485498D01*
X105626060Y-83485180D01*
X105648946Y-83476422D01*
X105744183Y-83428804D01*
X105754679Y-83422196D01*
X105757729Y-83420933D01*
X105761163Y-83418114D01*
X105764921Y-83415749D01*
X105767082Y-83413257D01*
X105776671Y-83405388D01*
X105833073Y-83348985D01*
X105992836Y-83348985D01*
X105996293Y-83397634D01*
X106018105Y-83441259D01*
X106054951Y-83473214D01*
X106101220Y-83488637D01*
X106149869Y-83485180D01*
X106193494Y-83463368D01*
X106225449Y-83426522D01*
X106235439Y-83404147D01*
X106302187Y-83203904D01*
X106598187Y-83203904D01*
X106664934Y-83404147D01*
X106674925Y-83426522D01*
X106706880Y-83463368D01*
X106750504Y-83485180D01*
X106799154Y-83488637D01*
X106845423Y-83473214D01*
X106882269Y-83441258D01*
X106904081Y-83397634D01*
X106907538Y-83348984D01*
X106902105Y-83325090D01*
X106581948Y-82364619D01*
X106991854Y-82364619D01*
X106991854Y-83364619D01*
X106994256Y-83389005D01*
X107012920Y-83434065D01*
X107047408Y-83468553D01*
X107092468Y-83487217D01*
X107141240Y-83487217D01*
X107186300Y-83468553D01*
X107220788Y-83434065D01*
X107239452Y-83389005D01*
X107241854Y-83364619D01*
X107241854Y-83013428D01*
X107289867Y-83013428D01*
X107585878Y-83436302D01*
X107601830Y-83454902D01*
X107642961Y-83481114D01*
X107690992Y-83489590D01*
X107738610Y-83479040D01*
X107778565Y-83451071D01*
X107804777Y-83409941D01*
X107813253Y-83361909D01*
X107802703Y-83314292D01*
X107790686Y-83292936D01*
X107577474Y-82988347D01*
X107648945Y-82952613D01*
X107659443Y-82946003D01*
X107662490Y-82944742D01*
X107665921Y-82941926D01*
X107669683Y-82939558D01*
X107671846Y-82937063D01*
X107681432Y-82929197D01*
X107729051Y-82881579D01*
X107736920Y-82871990D01*
X107739412Y-82869829D01*
X107741777Y-82866071D01*
X107744596Y-82862637D01*
X107745859Y-82859586D01*
X107752466Y-82849092D01*
X107800085Y-82753854D01*
X107808843Y-82730968D01*
X107809161Y-82726487D01*
X107810880Y-82722338D01*
X107813282Y-82697952D01*
X107813282Y-82555095D01*
X107810880Y-82530709D01*
X107809161Y-82526559D01*
X107808843Y-82522079D01*
X107800085Y-82499193D01*
X107752466Y-82403955D01*
X107745859Y-82393460D01*
X107744596Y-82390410D01*
X107741777Y-82386975D01*
X107739412Y-82383218D01*
X107736920Y-82381056D01*
X107729051Y-82371468D01*
X107722202Y-82364619D01*
X107991854Y-82364619D01*
X107991854Y-83364619D01*
X107994256Y-83389005D01*
X108012920Y-83434065D01*
X108047408Y-83468553D01*
X108092468Y-83487217D01*
X108116854Y-83489619D01*
X108354949Y-83489619D01*
X108367292Y-83488403D01*
X108370583Y-83488637D01*
X108374912Y-83487652D01*
X108379335Y-83487217D01*
X108382386Y-83485953D01*
X108394477Y-83483204D01*
X108537334Y-83435586D01*
X108559709Y-83425595D01*
X108563101Y-83422652D01*
X108567253Y-83420933D01*
X108586195Y-83405388D01*
X108681433Y-83310149D01*
X108689301Y-83300560D01*
X108691793Y-83298400D01*
X108694157Y-83294643D01*
X108696978Y-83291207D01*
X108698242Y-83288155D01*
X108704847Y-83277663D01*
X108752466Y-83182425D01*
X108753149Y-83180639D01*
X108753686Y-83179915D01*
X108757341Y-83169685D01*
X108761224Y-83159539D01*
X108761287Y-83158639D01*
X108761931Y-83156840D01*
X108809550Y-82966364D01*
X108810175Y-82962134D01*
X108810880Y-82960433D01*
X108811784Y-82951253D01*
X108813134Y-82942124D01*
X108812862Y-82940301D01*
X108813282Y-82936047D01*
X108813282Y-82793190D01*
X108812862Y-82788935D01*
X108813134Y-82787113D01*
X108811784Y-82777983D01*
X108810880Y-82768804D01*
X108810175Y-82767102D01*
X108809550Y-82762873D01*
X108761931Y-82572397D01*
X108761287Y-82570597D01*
X108761224Y-82569698D01*
X108757341Y-82559551D01*
X108753686Y-82549322D01*
X108753149Y-82548597D01*
X108752466Y-82546812D01*
X108704847Y-82451574D01*
X108698239Y-82441077D01*
X108696977Y-82438030D01*
X108694160Y-82434598D01*
X108691793Y-82430837D01*
X108689298Y-82428673D01*
X108681432Y-82419088D01*
X108626963Y-82364619D01*
X109753759Y-82364619D01*
X109753759Y-83364619D01*
X109756161Y-83389005D01*
X109774825Y-83434065D01*
X109809313Y-83468553D01*
X109854373Y-83487217D01*
X109903145Y-83487217D01*
X109948205Y-83468553D01*
X109982693Y-83434065D01*
X110001357Y-83389005D01*
X110003759Y-83364619D01*
X110003759Y-83013428D01*
X110051772Y-83013428D01*
X110347783Y-83436302D01*
X110363735Y-83454902D01*
X110404866Y-83481114D01*
X110452897Y-83489590D01*
X110500515Y-83479040D01*
X110540470Y-83451071D01*
X110566682Y-83409941D01*
X110575158Y-83361909D01*
X110564608Y-83314292D01*
X110552591Y-83292936D01*
X110339379Y-82988347D01*
X110410850Y-82952613D01*
X110421348Y-82946003D01*
X110424395Y-82944742D01*
X110427826Y-82941926D01*
X110431588Y-82939558D01*
X110433751Y-82937063D01*
X110443337Y-82929197D01*
X110490956Y-82881579D01*
X110498825Y-82871990D01*
X110501317Y-82869829D01*
X110503682Y-82866071D01*
X110506501Y-82862637D01*
X110507764Y-82859586D01*
X110514371Y-82849092D01*
X110561990Y-82753854D01*
X110570748Y-82730968D01*
X110571066Y-82726487D01*
X110572785Y-82722338D01*
X110575187Y-82697952D01*
X110575187Y-82555095D01*
X110572785Y-82530709D01*
X110571066Y-82526559D01*
X110570748Y-82522079D01*
X110561990Y-82499193D01*
X110514371Y-82403955D01*
X110507764Y-82393460D01*
X110506501Y-82390410D01*
X110503682Y-82386975D01*
X110501317Y-82383218D01*
X110498825Y-82381056D01*
X110490956Y-82371468D01*
X110484107Y-82364619D01*
X110753759Y-82364619D01*
X110753759Y-83364619D01*
X110756161Y-83389005D01*
X110774825Y-83434065D01*
X110809313Y-83468553D01*
X110854373Y-83487217D01*
X110878759Y-83489619D01*
X111354949Y-83489619D01*
X111379335Y-83487217D01*
X111424395Y-83468553D01*
X111458883Y-83434065D01*
X111477547Y-83389005D01*
X111477547Y-83340233D01*
X111458883Y-83295173D01*
X111424395Y-83260685D01*
X111379335Y-83242021D01*
X111354949Y-83239619D01*
X111003759Y-83239619D01*
X111003759Y-82965809D01*
X111212092Y-82965809D01*
X111236478Y-82963407D01*
X111281538Y-82944743D01*
X111316026Y-82910255D01*
X111334690Y-82865195D01*
X111334690Y-82816423D01*
X111316026Y-82771363D01*
X111281538Y-82736875D01*
X111236478Y-82718211D01*
X111212092Y-82715809D01*
X111003759Y-82715809D01*
X111003759Y-82489619D01*
X111354949Y-82489619D01*
X111379335Y-82487217D01*
X111424395Y-82468553D01*
X111458883Y-82434065D01*
X111477547Y-82389005D01*
X111477547Y-82380253D01*
X111516646Y-82380253D01*
X111522079Y-82404147D01*
X111855411Y-83404147D01*
X111865402Y-83426522D01*
X111871252Y-83433268D01*
X111875248Y-83441259D01*
X111887088Y-83451527D01*
X111897357Y-83463368D01*
X111905348Y-83467363D01*
X111912094Y-83473214D01*
X111926959Y-83478169D01*
X111940981Y-83485180D01*
X111949891Y-83485813D01*
X111958363Y-83488637D01*
X111973996Y-83487526D01*
X111989631Y-83488637D01*
X111998102Y-83485813D01*
X112007012Y-83485180D01*
X112021032Y-83478169D01*
X112035900Y-83473214D01*
X112042645Y-83467363D01*
X112050637Y-83463368D01*
X112060908Y-83451524D01*
X112072746Y-83441258D01*
X112076740Y-83433269D01*
X112082592Y-83426522D01*
X112092582Y-83404147D01*
X112349065Y-82634699D01*
X113230931Y-82634699D01*
X113234389Y-82683349D01*
X113256201Y-82726972D01*
X113293046Y-82758928D01*
X113339316Y-82774352D01*
X113387966Y-82770894D01*
X113410852Y-82762136D01*
X113506089Y-82714518D01*
X113515664Y-82708490D01*
X113515664Y-83239619D01*
X113354950Y-83239619D01*
X113330564Y-83242021D01*
X113285504Y-83260685D01*
X113251016Y-83295173D01*
X113232352Y-83340233D01*
X113232352Y-83389005D01*
X113251016Y-83434065D01*
X113285504Y-83468553D01*
X113330564Y-83487217D01*
X113354950Y-83489619D01*
X113926378Y-83489619D01*
X113950764Y-83487217D01*
X113995824Y-83468553D01*
X114030312Y-83434065D01*
X114048976Y-83389005D01*
X114048976Y-83340233D01*
X114030312Y-83295173D01*
X114027752Y-83292613D01*
X114184733Y-83292613D01*
X114184733Y-83292614D01*
X114184733Y-83292615D01*
X114184733Y-83341388D01*
X114203398Y-83386447D01*
X114203402Y-83386451D01*
X114218943Y-83405388D01*
X114266561Y-83453007D01*
X114285503Y-83468552D01*
X114285504Y-83468553D01*
X114311899Y-83479485D01*
X114330563Y-83487217D01*
X114330564Y-83487217D01*
X114379336Y-83487217D01*
X114379337Y-83487217D01*
X114394070Y-83481114D01*
X114424396Y-83468553D01*
X114424401Y-83468547D01*
X114443338Y-83453007D01*
X114490957Y-83405389D01*
X114506502Y-83386447D01*
X114522020Y-83348984D01*
X114525167Y-83341388D01*
X114525167Y-83292614D01*
X114506503Y-83247555D01*
X114490958Y-83228612D01*
X114443339Y-83180993D01*
X114424397Y-83165447D01*
X114424396Y-83165446D01*
X114396480Y-83153883D01*
X114379338Y-83146782D01*
X114379336Y-83146782D01*
X114379335Y-83146782D01*
X114330562Y-83146782D01*
X114285502Y-83165447D01*
X114266561Y-83180993D01*
X114218942Y-83228613D01*
X114203397Y-83247555D01*
X114201218Y-83252816D01*
X114184733Y-83292613D01*
X114027752Y-83292613D01*
X113995824Y-83260685D01*
X113950764Y-83242021D01*
X113926378Y-83239619D01*
X113765664Y-83239619D01*
X113765664Y-82745571D01*
X114658521Y-82745571D01*
X114658521Y-82983666D01*
X114658940Y-82987920D01*
X114658669Y-82989742D01*
X114660018Y-82998870D01*
X114660923Y-83008052D01*
X114661627Y-83009753D01*
X114662253Y-83013983D01*
X114709872Y-83204459D01*
X114710515Y-83206258D01*
X114710579Y-83207158D01*
X114714461Y-83217304D01*
X114718117Y-83227534D01*
X114718653Y-83228258D01*
X114719337Y-83230044D01*
X114766955Y-83325281D01*
X114773562Y-83335777D01*
X114774825Y-83338825D01*
X114777642Y-83342258D01*
X114780010Y-83346019D01*
X114782504Y-83348182D01*
X114790370Y-83357767D01*
X114837989Y-83405387D01*
X114847577Y-83413256D01*
X114849739Y-83415749D01*
X114853493Y-83418112D01*
X114856930Y-83420933D01*
X114859983Y-83422197D01*
X114870476Y-83428803D01*
X114965714Y-83476422D01*
X114988600Y-83485180D01*
X114993080Y-83485498D01*
X114997230Y-83487217D01*
X115021616Y-83489619D01*
X115116854Y-83489619D01*
X115141240Y-83487217D01*
X115145388Y-83485498D01*
X115149870Y-83485180D01*
X115172756Y-83476422D01*
X115267993Y-83428804D01*
X115278489Y-83422196D01*
X115281539Y-83420933D01*
X115284972Y-83418114D01*
X115288731Y-83415749D01*
X115290893Y-83413255D01*
X115300481Y-83405387D01*
X115348100Y-83357768D01*
X115355967Y-83348180D01*
X115358460Y-83346019D01*
X115360826Y-83342259D01*
X115363645Y-83338825D01*
X115364907Y-83335776D01*
X115371514Y-83325282D01*
X115419133Y-83230044D01*
X115419816Y-83228258D01*
X115420353Y-83227534D01*
X115424008Y-83217304D01*
X115427891Y-83207158D01*
X115427954Y-83206258D01*
X115428598Y-83204459D01*
X115476217Y-83013983D01*
X115476842Y-83009753D01*
X115477547Y-83008052D01*
X115478451Y-82998872D01*
X115479801Y-82989743D01*
X115479529Y-82987920D01*
X115479949Y-82983666D01*
X115479949Y-82745571D01*
X115479529Y-82741316D01*
X115479801Y-82739494D01*
X115478451Y-82730364D01*
X115477547Y-82721185D01*
X115476842Y-82719483D01*
X115476217Y-82715254D01*
X115428598Y-82524778D01*
X115427954Y-82522978D01*
X115427891Y-82522079D01*
X115424008Y-82511932D01*
X115420353Y-82501703D01*
X115419816Y-82500978D01*
X115419133Y-82499193D01*
X115371514Y-82403955D01*
X115364907Y-82393460D01*
X115363644Y-82390410D01*
X115360825Y-82386975D01*
X115358460Y-82383218D01*
X115355968Y-82381056D01*
X115348099Y-82371468D01*
X115300480Y-82323850D01*
X115290894Y-82315983D01*
X115288731Y-82313489D01*
X115284969Y-82311120D01*
X115281538Y-82308305D01*
X115278491Y-82307043D01*
X115267993Y-82300434D01*
X115172756Y-82252816D01*
X115149870Y-82244058D01*
X115145388Y-82243739D01*
X115141240Y-82242021D01*
X115116854Y-82239619D01*
X115021616Y-82239619D01*
X114997230Y-82242021D01*
X114993080Y-82243739D01*
X114988600Y-82244058D01*
X114965714Y-82252816D01*
X114870476Y-82300435D01*
X114859981Y-82307041D01*
X114856931Y-82308305D01*
X114853496Y-82311123D01*
X114849739Y-82313489D01*
X114847577Y-82315980D01*
X114837989Y-82323850D01*
X114790371Y-82371469D01*
X114782504Y-82381054D01*
X114780010Y-82383218D01*
X114777641Y-82386979D01*
X114774826Y-82390411D01*
X114773564Y-82393457D01*
X114766955Y-82403956D01*
X114719337Y-82499193D01*
X114718653Y-82500978D01*
X114718117Y-82501703D01*
X114714461Y-82511932D01*
X114710579Y-82522079D01*
X114710515Y-82522978D01*
X114709872Y-82524778D01*
X114662253Y-82715254D01*
X114661627Y-82719483D01*
X114660923Y-82721185D01*
X114660018Y-82730366D01*
X114658669Y-82739495D01*
X114658940Y-82741316D01*
X114658521Y-82745571D01*
X113765664Y-82745571D01*
X113765664Y-82364619D01*
X113765655Y-82364531D01*
X113765664Y-82364488D01*
X113765638Y-82364360D01*
X113763262Y-82340233D01*
X113758526Y-82328800D01*
X113756099Y-82316662D01*
X113749283Y-82306485D01*
X113744598Y-82295173D01*
X113735847Y-82286422D01*
X113728960Y-82276138D01*
X113718769Y-82269344D01*
X113710110Y-82260685D01*
X113698677Y-82255949D01*
X113688379Y-82249084D01*
X113676363Y-82246706D01*
X113665050Y-82242021D01*
X113652676Y-82242021D01*
X113640534Y-82239619D01*
X113628524Y-82242021D01*
X113616278Y-82242021D01*
X113604844Y-82246756D01*
X113592708Y-82249184D01*
X113582532Y-82255998D01*
X113571218Y-82260685D01*
X113562467Y-82269435D01*
X113552183Y-82276323D01*
X113536820Y-82295082D01*
X113536730Y-82295173D01*
X113536713Y-82295213D01*
X113536658Y-82295281D01*
X113448284Y-82427842D01*
X113376144Y-82499982D01*
X113299048Y-82538530D01*
X113278311Y-82551584D01*
X113246355Y-82588429D01*
X113230931Y-82634699D01*
X112349065Y-82634699D01*
X112425915Y-82404148D01*
X112431348Y-82380254D01*
X112427891Y-82331604D01*
X112406079Y-82287980D01*
X112369233Y-82256024D01*
X112322964Y-82240601D01*
X112274314Y-82244058D01*
X112230690Y-82265870D01*
X112198735Y-82302716D01*
X112188744Y-82325091D01*
X111973996Y-82969334D01*
X111759249Y-82325091D01*
X111749259Y-82302716D01*
X111717304Y-82265870D01*
X111673679Y-82244058D01*
X111625030Y-82240601D01*
X111578761Y-82256024D01*
X111541915Y-82287979D01*
X111520103Y-82331604D01*
X111516646Y-82380253D01*
X111477547Y-82380253D01*
X111477547Y-82340233D01*
X111458883Y-82295173D01*
X111424395Y-82260685D01*
X111379335Y-82242021D01*
X111354949Y-82239619D01*
X110878759Y-82239619D01*
X110854373Y-82242021D01*
X110809313Y-82260685D01*
X110774825Y-82295173D01*
X110756161Y-82340233D01*
X110753759Y-82364619D01*
X110484107Y-82364619D01*
X110443337Y-82323850D01*
X110433751Y-82315983D01*
X110431588Y-82313489D01*
X110427826Y-82311120D01*
X110424395Y-82308305D01*
X110421348Y-82307043D01*
X110410850Y-82300434D01*
X110315613Y-82252816D01*
X110292727Y-82244058D01*
X110288245Y-82243739D01*
X110284097Y-82242021D01*
X110259711Y-82239619D01*
X109878759Y-82239619D01*
X109854373Y-82242021D01*
X109809313Y-82260685D01*
X109774825Y-82295173D01*
X109756161Y-82340233D01*
X109753759Y-82364619D01*
X108626963Y-82364619D01*
X108586194Y-82323850D01*
X108567252Y-82308305D01*
X108563102Y-82306586D01*
X108559709Y-82303643D01*
X108537334Y-82293652D01*
X108394477Y-82246034D01*
X108382386Y-82243284D01*
X108379335Y-82242021D01*
X108374912Y-82241585D01*
X108370583Y-82240601D01*
X108367292Y-82240834D01*
X108354949Y-82239619D01*
X108116854Y-82239619D01*
X108092468Y-82242021D01*
X108047408Y-82260685D01*
X108012920Y-82295173D01*
X107994256Y-82340233D01*
X107991854Y-82364619D01*
X107722202Y-82364619D01*
X107681432Y-82323850D01*
X107671846Y-82315983D01*
X107669683Y-82313489D01*
X107665921Y-82311120D01*
X107662490Y-82308305D01*
X107659443Y-82307043D01*
X107648945Y-82300434D01*
X107553708Y-82252816D01*
X107530822Y-82244058D01*
X107526340Y-82243739D01*
X107522192Y-82242021D01*
X107497806Y-82239619D01*
X107116854Y-82239619D01*
X107092468Y-82242021D01*
X107047408Y-82260685D01*
X107012920Y-82295173D01*
X106994256Y-82340233D01*
X106991854Y-82364619D01*
X106581948Y-82364619D01*
X106568772Y-82325091D01*
X106558782Y-82302716D01*
X106552930Y-82295968D01*
X106548936Y-82287980D01*
X106537098Y-82277713D01*
X106526827Y-82265870D01*
X106518835Y-82261874D01*
X106512090Y-82256024D01*
X106497222Y-82251068D01*
X106483202Y-82244058D01*
X106474292Y-82243424D01*
X106465821Y-82240601D01*
X106450186Y-82241711D01*
X106434553Y-82240601D01*
X106426081Y-82243424D01*
X106417171Y-82244058D01*
X106403149Y-82251069D01*
X106388284Y-82256024D01*
X106381538Y-82261874D01*
X106373547Y-82265870D01*
X106363278Y-82277710D01*
X106351438Y-82287979D01*
X106347442Y-82295969D01*
X106341592Y-82302716D01*
X106331601Y-82325091D01*
X105998269Y-83325091D01*
X105992836Y-83348985D01*
X105833073Y-83348985D01*
X105871909Y-83310149D01*
X105887454Y-83291207D01*
X105891011Y-83282618D01*
X105896543Y-83275153D01*
X105904788Y-83252078D01*
X105952407Y-83061602D01*
X105953032Y-83057372D01*
X105953737Y-83055671D01*
X105954641Y-83046491D01*
X105955991Y-83037362D01*
X105955719Y-83035539D01*
X105956139Y-83031285D01*
X105956139Y-82697952D01*
X105955719Y-82693697D01*
X105955991Y-82691875D01*
X105954641Y-82682745D01*
X105953737Y-82673566D01*
X105953032Y-82671864D01*
X105952407Y-82667635D01*
X105904788Y-82477159D01*
X105896543Y-82454084D01*
X105891009Y-82446615D01*
X105887453Y-82438030D01*
X105871908Y-82419088D01*
X105776670Y-82323850D01*
X105767084Y-82315983D01*
X105764921Y-82313489D01*
X105761159Y-82311120D01*
X105757728Y-82308305D01*
X105754681Y-82307043D01*
X105744183Y-82300434D01*
X105648946Y-82252816D01*
X105626060Y-82244058D01*
X105621578Y-82243739D01*
X105617430Y-82242021D01*
X105593044Y-82239619D01*
X105402568Y-82239619D01*
X105378182Y-82242021D01*
X105374032Y-82243739D01*
X105369552Y-82244058D01*
X105346666Y-82252816D01*
X105251428Y-82300435D01*
X105240931Y-82307042D01*
X105237884Y-82308305D01*
X105234452Y-82311121D01*
X105230691Y-82313489D01*
X105228527Y-82315983D01*
X105218942Y-82323850D01*
X105123704Y-82419088D01*
X105108159Y-82438030D01*
X105104602Y-82446615D01*
X105099069Y-82454084D01*
X105090824Y-82477159D01*
X105043205Y-82667635D01*
X105042579Y-82671864D01*
X105041875Y-82673566D01*
X105040970Y-82682747D01*
X105039621Y-82691876D01*
X105039892Y-82693697D01*
X105039473Y-82697952D01*
X104850874Y-82697952D01*
X104856462Y-82683349D01*
X104856780Y-82678868D01*
X104858499Y-82674719D01*
X104860901Y-82650333D01*
X104860901Y-82555095D01*
X104858499Y-82530709D01*
X104856780Y-82526559D01*
X104856462Y-82522079D01*
X104847704Y-82499193D01*
X104800085Y-82403955D01*
X104793478Y-82393460D01*
X104792215Y-82390410D01*
X104789396Y-82386975D01*
X104787031Y-82383218D01*
X104784539Y-82381056D01*
X104776670Y-82371468D01*
X104729051Y-82323850D01*
X104719465Y-82315983D01*
X104717302Y-82313489D01*
X104713540Y-82311120D01*
X104710109Y-82308305D01*
X104707062Y-82307043D01*
X104696564Y-82300434D01*
X104601327Y-82252816D01*
X104578441Y-82244058D01*
X104573959Y-82243739D01*
X104569811Y-82242021D01*
X104545425Y-82239619D01*
X104212092Y-82239619D01*
X104187706Y-82242021D01*
X104142646Y-82260685D01*
X104108158Y-82295173D01*
X104089494Y-82340233D01*
X104087092Y-82364619D01*
X103239451Y-82364619D01*
X103239451Y-82340233D01*
X103220787Y-82295173D01*
X103186299Y-82260685D01*
X103141239Y-82242021D01*
X103116853Y-82239619D01*
X102545425Y-82239619D01*
X102521039Y-82242021D01*
X102475979Y-82260685D01*
X102441491Y-82295173D01*
X102422827Y-82340233D01*
X102334689Y-82340233D01*
X102316025Y-82295173D01*
X102281537Y-82260685D01*
X102236477Y-82242021D01*
X102187705Y-82242021D01*
X102142645Y-82260685D01*
X102108157Y-82295173D01*
X102089493Y-82340233D01*
X102087091Y-82364619D01*
X102087091Y-83144633D01*
X102061739Y-83195336D01*
X102042808Y-83214268D01*
X101992107Y-83239619D01*
X101860648Y-83239619D01*
X101809946Y-83214268D01*
X101791014Y-83195336D01*
X101765663Y-83144634D01*
X101765663Y-82364619D01*
X101763261Y-82340233D01*
X101744597Y-82295173D01*
X101710109Y-82260685D01*
X101665049Y-82242021D01*
X101616277Y-82242021D01*
X101571217Y-82260685D01*
X101536729Y-82295173D01*
X101518065Y-82340233D01*
X101515663Y-82364619D01*
X101246011Y-82364619D01*
X101205241Y-82323850D01*
X101195655Y-82315983D01*
X101193492Y-82313489D01*
X101189730Y-82311120D01*
X101186299Y-82308305D01*
X101183252Y-82307043D01*
X101172754Y-82300434D01*
X101077517Y-82252816D01*
X101054631Y-82244058D01*
X101050149Y-82243739D01*
X101046001Y-82242021D01*
X101021615Y-82239619D01*
X100640663Y-82239619D01*
X100616277Y-82242021D01*
X100571217Y-82260685D01*
X100536729Y-82295173D01*
X100518065Y-82340233D01*
X100515663Y-82364619D01*
X100429927Y-82364619D01*
X100429927Y-82340233D01*
X100411263Y-82295173D01*
X100376775Y-82260685D01*
X100331715Y-82242021D01*
X100307329Y-82239619D01*
X99735901Y-82239619D01*
X99711515Y-82242021D01*
X99666455Y-82260685D01*
X99631967Y-82295173D01*
X99613303Y-82340233D01*
X99525165Y-82340233D01*
X99506501Y-82295173D01*
X99472013Y-82260685D01*
X99426953Y-82242021D01*
X99378181Y-82242021D01*
X99333121Y-82260685D01*
X99298633Y-82295173D01*
X99279969Y-82340233D01*
X99277567Y-82364619D01*
X99277567Y-83144633D01*
X99252215Y-83195336D01*
X99233284Y-83214268D01*
X99182583Y-83239619D01*
X99051124Y-83239619D01*
X99000422Y-83214268D01*
X98981490Y-83195336D01*
X98956139Y-83144634D01*
X98956139Y-82364619D01*
X98953737Y-82340233D01*
X98935073Y-82295173D01*
X98900585Y-82260685D01*
X98855525Y-82242021D01*
X98806753Y-82242021D01*
X98761693Y-82260685D01*
X98727205Y-82295173D01*
X98708541Y-82340233D01*
X98706139Y-82364619D01*
X98388867Y-82364619D01*
X98348098Y-82323850D01*
X98338512Y-82315983D01*
X98336349Y-82313489D01*
X98332587Y-82311120D01*
X98329156Y-82308305D01*
X98326109Y-82307043D01*
X98315611Y-82300434D01*
X98220374Y-82252816D01*
X98197488Y-82244058D01*
X98193006Y-82243739D01*
X98188858Y-82242021D01*
X98164472Y-82239619D01*
X97973996Y-82239619D01*
X97949610Y-82242021D01*
X97945460Y-82243739D01*
X97940980Y-82244058D01*
X97918094Y-82252816D01*
X97822856Y-82300435D01*
X97812359Y-82307042D01*
X97809312Y-82308305D01*
X97805880Y-82311121D01*
X97802119Y-82313489D01*
X97799955Y-82315983D01*
X97790370Y-82323850D01*
X97695132Y-82419088D01*
X97679587Y-82438030D01*
X97676030Y-82446615D01*
X97670497Y-82454084D01*
X97662252Y-82477159D01*
X97614633Y-82667635D01*
X97614007Y-82671864D01*
X97613303Y-82673566D01*
X97612398Y-82682747D01*
X97611049Y-82691876D01*
X97611320Y-82693697D01*
X97610901Y-82697952D01*
X97346450Y-82697952D01*
X97554193Y-82386337D01*
X97565721Y-82364714D01*
X97575186Y-82316869D01*
X97565621Y-82269043D01*
X97538482Y-82228519D01*
X97497901Y-82201465D01*
X97450056Y-82192000D01*
X97402230Y-82201565D01*
X97361705Y-82228704D01*
X97346180Y-82247662D01*
X96489038Y-83533377D01*
X96477509Y-83554999D01*
X96468044Y-83602844D01*
X92152568Y-83602844D01*
X92152568Y-82364619D01*
X92277568Y-82364619D01*
X92277568Y-83364619D01*
X92279970Y-83389005D01*
X92298634Y-83434065D01*
X92333122Y-83468553D01*
X92378182Y-83487217D01*
X92426954Y-83487217D01*
X92472014Y-83468553D01*
X92506502Y-83434065D01*
X92525166Y-83389005D01*
X92527568Y-83364619D01*
X92527568Y-82364619D01*
X92753758Y-82364619D01*
X92753758Y-83364619D01*
X92756160Y-83389005D01*
X92774824Y-83434065D01*
X92809312Y-83468553D01*
X92854372Y-83487217D01*
X92903144Y-83487217D01*
X92948204Y-83468553D01*
X92982692Y-83434065D01*
X93001356Y-83389005D01*
X93003758Y-83364619D01*
X93003758Y-82835313D01*
X93341656Y-83426636D01*
X93345302Y-83431773D01*
X93346252Y-83434065D01*
X93348586Y-83436399D01*
X93355840Y-83446618D01*
X93368984Y-83456797D01*
X93380740Y-83468553D01*
X93388100Y-83471601D01*
X93394401Y-83476481D01*
X93410442Y-83480855D01*
X93425800Y-83487217D01*
X93433767Y-83487217D01*
X93441456Y-83489314D01*
X93457951Y-83487217D01*
X93474572Y-83487217D01*
X93481932Y-83484168D01*
X93489839Y-83483163D01*
X93504273Y-83474914D01*
X93519632Y-83468553D01*
X93525266Y-83462918D01*
X93532185Y-83458965D01*
X93542364Y-83445820D01*
X93554120Y-83434065D01*
X93557168Y-83426704D01*
X93562048Y-83420404D01*
X93566423Y-83404361D01*
X93572784Y-83389005D01*
X93574012Y-83376535D01*
X93574881Y-83373350D01*
X93574568Y-83370890D01*
X93575186Y-83364619D01*
X93575186Y-82364619D01*
X93801377Y-82364619D01*
X93801377Y-83364619D01*
X93803779Y-83389005D01*
X93822443Y-83434065D01*
X93856931Y-83468553D01*
X93901991Y-83487217D01*
X93950763Y-83487217D01*
X93995823Y-83468553D01*
X94030311Y-83434065D01*
X94048975Y-83389005D01*
X94051377Y-83364619D01*
X94051377Y-83013428D01*
X94307329Y-83013428D01*
X94331715Y-83011026D01*
X94335863Y-83009307D01*
X94340345Y-83008989D01*
X94363231Y-83000231D01*
X94458468Y-82952613D01*
X94468966Y-82946003D01*
X94472013Y-82944742D01*
X94475444Y-82941926D01*
X94479206Y-82939558D01*
X94481369Y-82937063D01*
X94490955Y-82929197D01*
X94538574Y-82881579D01*
X94546443Y-82871990D01*
X94548935Y-82869829D01*
X94551300Y-82866071D01*
X94554119Y-82862637D01*
X94555382Y-82859586D01*
X94561989Y-82849092D01*
X94609608Y-82753854D01*
X94618366Y-82730968D01*
X94618684Y-82726487D01*
X94620403Y-82722338D01*
X94622805Y-82697952D01*
X94622805Y-82555095D01*
X94620403Y-82530709D01*
X94618684Y-82526559D01*
X94618366Y-82522079D01*
X94609608Y-82499193D01*
X94561989Y-82403955D01*
X94555382Y-82393460D01*
X94554119Y-82390410D01*
X94551300Y-82386975D01*
X94548935Y-82383218D01*
X94546443Y-82381056D01*
X94538574Y-82371468D01*
X94531725Y-82364619D01*
X94801377Y-82364619D01*
X94801377Y-83174142D01*
X94803779Y-83198528D01*
X94805497Y-83202676D01*
X94805816Y-83207158D01*
X94814574Y-83230044D01*
X94862192Y-83325281D01*
X94868799Y-83335777D01*
X94870062Y-83338825D01*
X94872879Y-83342258D01*
X94875247Y-83346019D01*
X94877741Y-83348182D01*
X94885607Y-83357767D01*
X94933226Y-83405387D01*
X94942814Y-83413256D01*
X94944976Y-83415749D01*
X94948730Y-83418112D01*
X94952167Y-83420933D01*
X94955220Y-83422197D01*
X94965713Y-83428803D01*
X95060951Y-83476422D01*
X95083837Y-83485180D01*
X95088317Y-83485498D01*
X95092467Y-83487217D01*
X95116853Y-83489619D01*
X95307329Y-83489619D01*
X95331715Y-83487217D01*
X95335863Y-83485498D01*
X95340345Y-83485180D01*
X95363231Y-83476422D01*
X95458468Y-83428804D01*
X95468964Y-83422196D01*
X95472014Y-83420933D01*
X95475447Y-83418114D01*
X95479206Y-83415749D01*
X95481368Y-83413255D01*
X95490956Y-83405387D01*
X95538575Y-83357768D01*
X95546442Y-83348180D01*
X95548935Y-83346019D01*
X95551301Y-83342259D01*
X95554120Y-83338825D01*
X95555382Y-83335776D01*
X95561989Y-83325282D01*
X95609608Y-83230044D01*
X95618366Y-83207158D01*
X95618684Y-83202677D01*
X95620403Y-83198528D01*
X95622805Y-83174142D01*
X95622805Y-82364619D01*
X95620403Y-82340233D01*
X95708541Y-82340233D01*
X95708541Y-82389005D01*
X95727205Y-82434065D01*
X95761693Y-82468553D01*
X95806753Y-82487217D01*
X95831139Y-82489619D01*
X95991853Y-82489619D01*
X95991853Y-83364619D01*
X95994255Y-83389005D01*
X96012919Y-83434065D01*
X96047407Y-83468553D01*
X96092467Y-83487217D01*
X96141239Y-83487217D01*
X96186299Y-83468553D01*
X96220787Y-83434065D01*
X96239451Y-83389005D01*
X96241853Y-83364619D01*
X96241853Y-82489619D01*
X96402567Y-82489619D01*
X96426953Y-82487217D01*
X96472013Y-82468553D01*
X96506501Y-82434065D01*
X96525165Y-82389005D01*
X96525165Y-82340233D01*
X96506501Y-82295173D01*
X96472013Y-82260685D01*
X96426953Y-82242021D01*
X96402567Y-82239619D01*
X95831139Y-82239619D01*
X95806753Y-82242021D01*
X95761693Y-82260685D01*
X95727205Y-82295173D01*
X95708541Y-82340233D01*
X95620403Y-82340233D01*
X95601739Y-82295173D01*
X95567251Y-82260685D01*
X95522191Y-82242021D01*
X95473419Y-82242021D01*
X95428359Y-82260685D01*
X95393871Y-82295173D01*
X95375207Y-82340233D01*
X95372805Y-82364619D01*
X95372805Y-83144633D01*
X95347453Y-83195336D01*
X95328522Y-83214268D01*
X95277821Y-83239619D01*
X95146362Y-83239619D01*
X95095660Y-83214268D01*
X95076728Y-83195336D01*
X95051377Y-83144634D01*
X95051377Y-82364619D01*
X95048975Y-82340233D01*
X95030311Y-82295173D01*
X94995823Y-82260685D01*
X94950763Y-82242021D01*
X94901991Y-82242021D01*
X94856931Y-82260685D01*
X94822443Y-82295173D01*
X94803779Y-82340233D01*
X94801377Y-82364619D01*
X94531725Y-82364619D01*
X94490955Y-82323850D01*
X94481369Y-82315983D01*
X94479206Y-82313489D01*
X94475444Y-82311120D01*
X94472013Y-82308305D01*
X94468966Y-82307043D01*
X94458468Y-82300434D01*
X94363231Y-82252816D01*
X94340345Y-82244058D01*
X94335863Y-82243739D01*
X94331715Y-82242021D01*
X94307329Y-82239619D01*
X93926377Y-82239619D01*
X93901991Y-82242021D01*
X93856931Y-82260685D01*
X93822443Y-82295173D01*
X93803779Y-82340233D01*
X93801377Y-82364619D01*
X93575186Y-82364619D01*
X93572784Y-82340233D01*
X93554120Y-82295173D01*
X93519632Y-82260685D01*
X93474572Y-82242021D01*
X93425800Y-82242021D01*
X93380740Y-82260685D01*
X93346252Y-82295173D01*
X93327588Y-82340233D01*
X93325186Y-82364619D01*
X93325186Y-82893923D01*
X92987288Y-82302602D01*
X92983641Y-82297464D01*
X92982692Y-82295173D01*
X92980357Y-82292838D01*
X92973104Y-82282620D01*
X92959959Y-82272440D01*
X92948204Y-82260685D01*
X92940843Y-82257636D01*
X92934543Y-82252757D01*
X92918501Y-82248382D01*
X92903144Y-82242021D01*
X92895177Y-82242021D01*
X92887488Y-82239924D01*
X92870993Y-82242021D01*
X92854372Y-82242021D01*
X92847011Y-82245069D01*
X92839105Y-82246075D01*
X92824670Y-82254323D01*
X92809312Y-82260685D01*
X92803677Y-82266319D01*
X92796759Y-82270273D01*
X92786579Y-82283417D01*
X92774824Y-82295173D01*
X92771775Y-82302533D01*
X92766896Y-82308834D01*
X92762521Y-82324875D01*
X92756160Y-82340233D01*
X92754931Y-82352704D01*
X92754063Y-82355889D01*
X92754375Y-82358348D01*
X92753758Y-82364619D01*
X92527568Y-82364619D01*
X92525166Y-82340233D01*
X92506502Y-82295173D01*
X92472014Y-82260685D01*
X92426954Y-82242021D01*
X92378182Y-82242021D01*
X92333122Y-82260685D01*
X92298634Y-82295173D01*
X92279970Y-82340233D01*
X92277568Y-82364619D01*
X92152568Y-82364619D01*
X92152568Y-82067000D01*
X115604949Y-82067000D01*
X115604949Y-83852714D01*
G37*
D10*
X116071242Y-85767534D02*
X115833147Y-85767534D01*
X115833147Y-85767534D02*
X115809338Y-86005629D01*
X115809338Y-86005629D02*
X115833147Y-85981820D01*
X115833147Y-85981820D02*
X115880766Y-85958010D01*
X115880766Y-85958010D02*
X115999814Y-85958010D01*
X115999814Y-85958010D02*
X116047433Y-85981820D01*
X116047433Y-85981820D02*
X116071242Y-86005629D01*
X116071242Y-86005629D02*
X116095052Y-86053248D01*
X116095052Y-86053248D02*
X116095052Y-86172296D01*
X116095052Y-86172296D02*
X116071242Y-86219915D01*
X116071242Y-86219915D02*
X116047433Y-86243725D01*
X116047433Y-86243725D02*
X115999814Y-86267534D01*
X115999814Y-86267534D02*
X115880766Y-86267534D01*
X115880766Y-86267534D02*
X115833147Y-86243725D01*
X115833147Y-86243725D02*
X115809338Y-86219915D01*
X116333147Y-86267534D02*
X116428385Y-86267534D01*
X116428385Y-86267534D02*
X116476004Y-86243725D01*
X116476004Y-86243725D02*
X116499813Y-86219915D01*
X116499813Y-86219915D02*
X116547432Y-86148486D01*
X116547432Y-86148486D02*
X116571242Y-86053248D01*
X116571242Y-86053248D02*
X116571242Y-85862772D01*
X116571242Y-85862772D02*
X116547432Y-85815153D01*
X116547432Y-85815153D02*
X116523623Y-85791344D01*
X116523623Y-85791344D02*
X116476004Y-85767534D01*
X116476004Y-85767534D02*
X116380766Y-85767534D01*
X116380766Y-85767534D02*
X116333147Y-85791344D01*
X116333147Y-85791344D02*
X116309337Y-85815153D01*
X116309337Y-85815153D02*
X116285528Y-85862772D01*
X116285528Y-85862772D02*
X116285528Y-85981820D01*
X116285528Y-85981820D02*
X116309337Y-86029439D01*
X116309337Y-86029439D02*
X116333147Y-86053248D01*
X116333147Y-86053248D02*
X116380766Y-86077058D01*
X116380766Y-86077058D02*
X116476004Y-86077058D01*
X116476004Y-86077058D02*
X116523623Y-86053248D01*
X116523623Y-86053248D02*
X116547432Y-86029439D01*
X116547432Y-86029439D02*
X116571242Y-85981820D01*
X117023622Y-85767534D02*
X116785527Y-85767534D01*
X116785527Y-85767534D02*
X116761718Y-86005629D01*
X116761718Y-86005629D02*
X116785527Y-85981820D01*
X116785527Y-85981820D02*
X116833146Y-85958010D01*
X116833146Y-85958010D02*
X116952194Y-85958010D01*
X116952194Y-85958010D02*
X116999813Y-85981820D01*
X116999813Y-85981820D02*
X117023622Y-86005629D01*
X117023622Y-86005629D02*
X117047432Y-86053248D01*
X117047432Y-86053248D02*
X117047432Y-86172296D01*
X117047432Y-86172296D02*
X117023622Y-86219915D01*
X117023622Y-86219915D02*
X116999813Y-86243725D01*
X116999813Y-86243725D02*
X116952194Y-86267534D01*
X116952194Y-86267534D02*
X116833146Y-86267534D01*
X116833146Y-86267534D02*
X116785527Y-86243725D01*
X116785527Y-86243725D02*
X116761718Y-86219915D01*
X117618860Y-85743725D02*
X117190289Y-86386582D01*
X118047432Y-86267534D02*
X117761718Y-86267534D01*
X117904575Y-86267534D02*
X117904575Y-85767534D01*
X117904575Y-85767534D02*
X117856956Y-85838963D01*
X117856956Y-85838963D02*
X117809337Y-85886582D01*
X117809337Y-85886582D02*
X117761718Y-85910391D01*
X118237908Y-85815153D02*
X118261717Y-85791344D01*
X118261717Y-85791344D02*
X118309336Y-85767534D01*
X118309336Y-85767534D02*
X118428384Y-85767534D01*
X118428384Y-85767534D02*
X118476003Y-85791344D01*
X118476003Y-85791344D02*
X118499812Y-85815153D01*
X118499812Y-85815153D02*
X118523622Y-85862772D01*
X118523622Y-85862772D02*
X118523622Y-85910391D01*
X118523622Y-85910391D02*
X118499812Y-85981820D01*
X118499812Y-85981820D02*
X118214098Y-86267534D01*
X118214098Y-86267534D02*
X118523622Y-86267534D01*
X125436252Y-85655041D02*
X125198157Y-85655041D01*
X125198157Y-85655041D02*
X125174348Y-85893136D01*
X125174348Y-85893136D02*
X125198157Y-85869327D01*
X125198157Y-85869327D02*
X125245776Y-85845517D01*
X125245776Y-85845517D02*
X125364824Y-85845517D01*
X125364824Y-85845517D02*
X125412443Y-85869327D01*
X125412443Y-85869327D02*
X125436252Y-85893136D01*
X125436252Y-85893136D02*
X125460062Y-85940755D01*
X125460062Y-85940755D02*
X125460062Y-86059803D01*
X125460062Y-86059803D02*
X125436252Y-86107422D01*
X125436252Y-86107422D02*
X125412443Y-86131232D01*
X125412443Y-86131232D02*
X125364824Y-86155041D01*
X125364824Y-86155041D02*
X125245776Y-86155041D01*
X125245776Y-86155041D02*
X125198157Y-86131232D01*
X125198157Y-86131232D02*
X125174348Y-86107422D01*
X125698157Y-86155041D02*
X125793395Y-86155041D01*
X125793395Y-86155041D02*
X125841014Y-86131232D01*
X125841014Y-86131232D02*
X125864823Y-86107422D01*
X125864823Y-86107422D02*
X125912442Y-86035993D01*
X125912442Y-86035993D02*
X125936252Y-85940755D01*
X125936252Y-85940755D02*
X125936252Y-85750279D01*
X125936252Y-85750279D02*
X125912442Y-85702660D01*
X125912442Y-85702660D02*
X125888633Y-85678851D01*
X125888633Y-85678851D02*
X125841014Y-85655041D01*
X125841014Y-85655041D02*
X125745776Y-85655041D01*
X125745776Y-85655041D02*
X125698157Y-85678851D01*
X125698157Y-85678851D02*
X125674347Y-85702660D01*
X125674347Y-85702660D02*
X125650538Y-85750279D01*
X125650538Y-85750279D02*
X125650538Y-85869327D01*
X125650538Y-85869327D02*
X125674347Y-85916946D01*
X125674347Y-85916946D02*
X125698157Y-85940755D01*
X125698157Y-85940755D02*
X125745776Y-85964565D01*
X125745776Y-85964565D02*
X125841014Y-85964565D01*
X125841014Y-85964565D02*
X125888633Y-85940755D01*
X125888633Y-85940755D02*
X125912442Y-85916946D01*
X125912442Y-85916946D02*
X125936252Y-85869327D01*
X126388632Y-85655041D02*
X126150537Y-85655041D01*
X126150537Y-85655041D02*
X126126728Y-85893136D01*
X126126728Y-85893136D02*
X126150537Y-85869327D01*
X126150537Y-85869327D02*
X126198156Y-85845517D01*
X126198156Y-85845517D02*
X126317204Y-85845517D01*
X126317204Y-85845517D02*
X126364823Y-85869327D01*
X126364823Y-85869327D02*
X126388632Y-85893136D01*
X126388632Y-85893136D02*
X126412442Y-85940755D01*
X126412442Y-85940755D02*
X126412442Y-86059803D01*
X126412442Y-86059803D02*
X126388632Y-86107422D01*
X126388632Y-86107422D02*
X126364823Y-86131232D01*
X126364823Y-86131232D02*
X126317204Y-86155041D01*
X126317204Y-86155041D02*
X126198156Y-86155041D01*
X126198156Y-86155041D02*
X126150537Y-86131232D01*
X126150537Y-86131232D02*
X126126728Y-86107422D01*
X126983870Y-85631232D02*
X126555299Y-86274089D01*
X127412442Y-86155041D02*
X127126728Y-86155041D01*
X127269585Y-86155041D02*
X127269585Y-85655041D01*
X127269585Y-85655041D02*
X127221966Y-85726470D01*
X127221966Y-85726470D02*
X127174347Y-85774089D01*
X127174347Y-85774089D02*
X127126728Y-85797898D01*
X127841013Y-85821708D02*
X127841013Y-86155041D01*
X127721965Y-85631232D02*
X127602918Y-85988374D01*
X127602918Y-85988374D02*
X127912441Y-85988374D01*
X125446741Y-88933609D02*
X125161027Y-88933609D01*
X125303884Y-88933609D02*
X125303884Y-88433609D01*
X125303884Y-88433609D02*
X125256265Y-88505038D01*
X125256265Y-88505038D02*
X125208646Y-88552657D01*
X125208646Y-88552657D02*
X125161027Y-88576466D01*
X125875312Y-88433609D02*
X125780074Y-88433609D01*
X125780074Y-88433609D02*
X125732455Y-88457419D01*
X125732455Y-88457419D02*
X125708645Y-88481228D01*
X125708645Y-88481228D02*
X125661026Y-88552657D01*
X125661026Y-88552657D02*
X125637217Y-88647895D01*
X125637217Y-88647895D02*
X125637217Y-88838371D01*
X125637217Y-88838371D02*
X125661026Y-88885990D01*
X125661026Y-88885990D02*
X125684836Y-88909800D01*
X125684836Y-88909800D02*
X125732455Y-88933609D01*
X125732455Y-88933609D02*
X125827693Y-88933609D01*
X125827693Y-88933609D02*
X125875312Y-88909800D01*
X125875312Y-88909800D02*
X125899121Y-88885990D01*
X125899121Y-88885990D02*
X125922931Y-88838371D01*
X125922931Y-88838371D02*
X125922931Y-88719323D01*
X125922931Y-88719323D02*
X125899121Y-88671704D01*
X125899121Y-88671704D02*
X125875312Y-88647895D01*
X125875312Y-88647895D02*
X125827693Y-88624085D01*
X125827693Y-88624085D02*
X125732455Y-88624085D01*
X125732455Y-88624085D02*
X125684836Y-88647895D01*
X125684836Y-88647895D02*
X125661026Y-88671704D01*
X125661026Y-88671704D02*
X125637217Y-88719323D01*
X126375311Y-88433609D02*
X126137216Y-88433609D01*
X126137216Y-88433609D02*
X126113407Y-88671704D01*
X126113407Y-88671704D02*
X126137216Y-88647895D01*
X126137216Y-88647895D02*
X126184835Y-88624085D01*
X126184835Y-88624085D02*
X126303883Y-88624085D01*
X126303883Y-88624085D02*
X126351502Y-88647895D01*
X126351502Y-88647895D02*
X126375311Y-88671704D01*
X126375311Y-88671704D02*
X126399121Y-88719323D01*
X126399121Y-88719323D02*
X126399121Y-88838371D01*
X126399121Y-88838371D02*
X126375311Y-88885990D01*
X126375311Y-88885990D02*
X126351502Y-88909800D01*
X126351502Y-88909800D02*
X126303883Y-88933609D01*
X126303883Y-88933609D02*
X126184835Y-88933609D01*
X126184835Y-88933609D02*
X126137216Y-88909800D01*
X126137216Y-88909800D02*
X126113407Y-88885990D01*
X126970549Y-88409800D02*
X126541978Y-89052657D01*
X127399121Y-88933609D02*
X127113407Y-88933609D01*
X127256264Y-88933609D02*
X127256264Y-88433609D01*
X127256264Y-88433609D02*
X127208645Y-88505038D01*
X127208645Y-88505038D02*
X127161026Y-88552657D01*
X127161026Y-88552657D02*
X127113407Y-88576466D01*
X127851501Y-88433609D02*
X127613406Y-88433609D01*
X127613406Y-88433609D02*
X127589597Y-88671704D01*
X127589597Y-88671704D02*
X127613406Y-88647895D01*
X127613406Y-88647895D02*
X127661025Y-88624085D01*
X127661025Y-88624085D02*
X127780073Y-88624085D01*
X127780073Y-88624085D02*
X127827692Y-88647895D01*
X127827692Y-88647895D02*
X127851501Y-88671704D01*
X127851501Y-88671704D02*
X127875311Y-88719323D01*
X127875311Y-88719323D02*
X127875311Y-88838371D01*
X127875311Y-88838371D02*
X127851501Y-88885990D01*
X127851501Y-88885990D02*
X127827692Y-88909800D01*
X127827692Y-88909800D02*
X127780073Y-88933609D01*
X127780073Y-88933609D02*
X127661025Y-88933609D01*
X127661025Y-88933609D02*
X127613406Y-88909800D01*
X127613406Y-88909800D02*
X127589597Y-88885990D01*
X116038806Y-91273455D02*
X115753092Y-91273455D01*
X115895949Y-91273455D02*
X115895949Y-90773455D01*
X115895949Y-90773455D02*
X115848330Y-90844884D01*
X115848330Y-90844884D02*
X115800711Y-90892503D01*
X115800711Y-90892503D02*
X115753092Y-90916312D01*
X116467377Y-90773455D02*
X116372139Y-90773455D01*
X116372139Y-90773455D02*
X116324520Y-90797265D01*
X116324520Y-90797265D02*
X116300710Y-90821074D01*
X116300710Y-90821074D02*
X116253091Y-90892503D01*
X116253091Y-90892503D02*
X116229282Y-90987741D01*
X116229282Y-90987741D02*
X116229282Y-91178217D01*
X116229282Y-91178217D02*
X116253091Y-91225836D01*
X116253091Y-91225836D02*
X116276901Y-91249646D01*
X116276901Y-91249646D02*
X116324520Y-91273455D01*
X116324520Y-91273455D02*
X116419758Y-91273455D01*
X116419758Y-91273455D02*
X116467377Y-91249646D01*
X116467377Y-91249646D02*
X116491186Y-91225836D01*
X116491186Y-91225836D02*
X116514996Y-91178217D01*
X116514996Y-91178217D02*
X116514996Y-91059169D01*
X116514996Y-91059169D02*
X116491186Y-91011550D01*
X116491186Y-91011550D02*
X116467377Y-90987741D01*
X116467377Y-90987741D02*
X116419758Y-90963931D01*
X116419758Y-90963931D02*
X116324520Y-90963931D01*
X116324520Y-90963931D02*
X116276901Y-90987741D01*
X116276901Y-90987741D02*
X116253091Y-91011550D01*
X116253091Y-91011550D02*
X116229282Y-91059169D01*
X116967376Y-90773455D02*
X116729281Y-90773455D01*
X116729281Y-90773455D02*
X116705472Y-91011550D01*
X116705472Y-91011550D02*
X116729281Y-90987741D01*
X116729281Y-90987741D02*
X116776900Y-90963931D01*
X116776900Y-90963931D02*
X116895948Y-90963931D01*
X116895948Y-90963931D02*
X116943567Y-90987741D01*
X116943567Y-90987741D02*
X116967376Y-91011550D01*
X116967376Y-91011550D02*
X116991186Y-91059169D01*
X116991186Y-91059169D02*
X116991186Y-91178217D01*
X116991186Y-91178217D02*
X116967376Y-91225836D01*
X116967376Y-91225836D02*
X116943567Y-91249646D01*
X116943567Y-91249646D02*
X116895948Y-91273455D01*
X116895948Y-91273455D02*
X116776900Y-91273455D01*
X116776900Y-91273455D02*
X116729281Y-91249646D01*
X116729281Y-91249646D02*
X116705472Y-91225836D01*
X117562614Y-90749646D02*
X117134043Y-91392503D01*
X117991186Y-91273455D02*
X117705472Y-91273455D01*
X117848329Y-91273455D02*
X117848329Y-90773455D01*
X117848329Y-90773455D02*
X117800710Y-90844884D01*
X117800710Y-90844884D02*
X117753091Y-90892503D01*
X117753091Y-90892503D02*
X117705472Y-90916312D01*
X118300709Y-90773455D02*
X118348328Y-90773455D01*
X118348328Y-90773455D02*
X118395947Y-90797265D01*
X118395947Y-90797265D02*
X118419757Y-90821074D01*
X118419757Y-90821074D02*
X118443566Y-90868693D01*
X118443566Y-90868693D02*
X118467376Y-90963931D01*
X118467376Y-90963931D02*
X118467376Y-91082979D01*
X118467376Y-91082979D02*
X118443566Y-91178217D01*
X118443566Y-91178217D02*
X118419757Y-91225836D01*
X118419757Y-91225836D02*
X118395947Y-91249646D01*
X118395947Y-91249646D02*
X118348328Y-91273455D01*
X118348328Y-91273455D02*
X118300709Y-91273455D01*
X118300709Y-91273455D02*
X118253090Y-91249646D01*
X118253090Y-91249646D02*
X118229281Y-91225836D01*
X118229281Y-91225836D02*
X118205471Y-91178217D01*
X118205471Y-91178217D02*
X118181662Y-91082979D01*
X118181662Y-91082979D02*
X118181662Y-90963931D01*
X118181662Y-90963931D02*
X118205471Y-90868693D01*
X118205471Y-90868693D02*
X118229281Y-90821074D01*
X118229281Y-90821074D02*
X118253090Y-90797265D01*
X118253090Y-90797265D02*
X118300709Y-90773455D01*
X116493090Y-88270495D02*
X116254995Y-88270495D01*
X116254995Y-88270495D02*
X116231186Y-88508590D01*
X116231186Y-88508590D02*
X116254995Y-88484781D01*
X116254995Y-88484781D02*
X116302614Y-88460971D01*
X116302614Y-88460971D02*
X116421662Y-88460971D01*
X116421662Y-88460971D02*
X116469281Y-88484781D01*
X116469281Y-88484781D02*
X116493090Y-88508590D01*
X116493090Y-88508590D02*
X116516900Y-88556209D01*
X116516900Y-88556209D02*
X116516900Y-88675257D01*
X116516900Y-88675257D02*
X116493090Y-88722876D01*
X116493090Y-88722876D02*
X116469281Y-88746686D01*
X116469281Y-88746686D02*
X116421662Y-88770495D01*
X116421662Y-88770495D02*
X116302614Y-88770495D01*
X116302614Y-88770495D02*
X116254995Y-88746686D01*
X116254995Y-88746686D02*
X116231186Y-88722876D01*
X116754995Y-88770495D02*
X116850233Y-88770495D01*
X116850233Y-88770495D02*
X116897852Y-88746686D01*
X116897852Y-88746686D02*
X116921661Y-88722876D01*
X116921661Y-88722876D02*
X116969280Y-88651447D01*
X116969280Y-88651447D02*
X116993090Y-88556209D01*
X116993090Y-88556209D02*
X116993090Y-88365733D01*
X116993090Y-88365733D02*
X116969280Y-88318114D01*
X116969280Y-88318114D02*
X116945471Y-88294305D01*
X116945471Y-88294305D02*
X116897852Y-88270495D01*
X116897852Y-88270495D02*
X116802614Y-88270495D01*
X116802614Y-88270495D02*
X116754995Y-88294305D01*
X116754995Y-88294305D02*
X116731185Y-88318114D01*
X116731185Y-88318114D02*
X116707376Y-88365733D01*
X116707376Y-88365733D02*
X116707376Y-88484781D01*
X116707376Y-88484781D02*
X116731185Y-88532400D01*
X116731185Y-88532400D02*
X116754995Y-88556209D01*
X116754995Y-88556209D02*
X116802614Y-88580019D01*
X116802614Y-88580019D02*
X116897852Y-88580019D01*
X116897852Y-88580019D02*
X116945471Y-88556209D01*
X116945471Y-88556209D02*
X116969280Y-88532400D01*
X116969280Y-88532400D02*
X116993090Y-88484781D01*
X117445470Y-88270495D02*
X117207375Y-88270495D01*
X117207375Y-88270495D02*
X117183566Y-88508590D01*
X117183566Y-88508590D02*
X117207375Y-88484781D01*
X117207375Y-88484781D02*
X117254994Y-88460971D01*
X117254994Y-88460971D02*
X117374042Y-88460971D01*
X117374042Y-88460971D02*
X117421661Y-88484781D01*
X117421661Y-88484781D02*
X117445470Y-88508590D01*
X117445470Y-88508590D02*
X117469280Y-88556209D01*
X117469280Y-88556209D02*
X117469280Y-88675257D01*
X117469280Y-88675257D02*
X117445470Y-88722876D01*
X117445470Y-88722876D02*
X117421661Y-88746686D01*
X117421661Y-88746686D02*
X117374042Y-88770495D01*
X117374042Y-88770495D02*
X117254994Y-88770495D01*
X117254994Y-88770495D02*
X117207375Y-88746686D01*
X117207375Y-88746686D02*
X117183566Y-88722876D01*
X118040708Y-88246686D02*
X117612137Y-88889543D01*
X118231185Y-88770495D02*
X118326423Y-88770495D01*
X118326423Y-88770495D02*
X118374042Y-88746686D01*
X118374042Y-88746686D02*
X118397851Y-88722876D01*
X118397851Y-88722876D02*
X118445470Y-88651447D01*
X118445470Y-88651447D02*
X118469280Y-88556209D01*
X118469280Y-88556209D02*
X118469280Y-88365733D01*
X118469280Y-88365733D02*
X118445470Y-88318114D01*
X118445470Y-88318114D02*
X118421661Y-88294305D01*
X118421661Y-88294305D02*
X118374042Y-88270495D01*
X118374042Y-88270495D02*
X118278804Y-88270495D01*
X118278804Y-88270495D02*
X118231185Y-88294305D01*
X118231185Y-88294305D02*
X118207375Y-88318114D01*
X118207375Y-88318114D02*
X118183566Y-88365733D01*
X118183566Y-88365733D02*
X118183566Y-88484781D01*
X118183566Y-88484781D02*
X118207375Y-88532400D01*
X118207375Y-88532400D02*
X118231185Y-88556209D01*
X118231185Y-88556209D02*
X118278804Y-88580019D01*
X118278804Y-88580019D02*
X118374042Y-88580019D01*
X118374042Y-88580019D02*
X118421661Y-88556209D01*
X118421661Y-88556209D02*
X118445470Y-88532400D01*
X118445470Y-88532400D02*
X118469280Y-88484781D01*
X125446741Y-91433609D02*
X125161027Y-91433609D01*
X125303884Y-91433609D02*
X125303884Y-90933609D01*
X125303884Y-90933609D02*
X125256265Y-91005038D01*
X125256265Y-91005038D02*
X125208646Y-91052657D01*
X125208646Y-91052657D02*
X125161027Y-91076466D01*
X125875312Y-90933609D02*
X125780074Y-90933609D01*
X125780074Y-90933609D02*
X125732455Y-90957419D01*
X125732455Y-90957419D02*
X125708645Y-90981228D01*
X125708645Y-90981228D02*
X125661026Y-91052657D01*
X125661026Y-91052657D02*
X125637217Y-91147895D01*
X125637217Y-91147895D02*
X125637217Y-91338371D01*
X125637217Y-91338371D02*
X125661026Y-91385990D01*
X125661026Y-91385990D02*
X125684836Y-91409800D01*
X125684836Y-91409800D02*
X125732455Y-91433609D01*
X125732455Y-91433609D02*
X125827693Y-91433609D01*
X125827693Y-91433609D02*
X125875312Y-91409800D01*
X125875312Y-91409800D02*
X125899121Y-91385990D01*
X125899121Y-91385990D02*
X125922931Y-91338371D01*
X125922931Y-91338371D02*
X125922931Y-91219323D01*
X125922931Y-91219323D02*
X125899121Y-91171704D01*
X125899121Y-91171704D02*
X125875312Y-91147895D01*
X125875312Y-91147895D02*
X125827693Y-91124085D01*
X125827693Y-91124085D02*
X125732455Y-91124085D01*
X125732455Y-91124085D02*
X125684836Y-91147895D01*
X125684836Y-91147895D02*
X125661026Y-91171704D01*
X125661026Y-91171704D02*
X125637217Y-91219323D01*
X126375311Y-90933609D02*
X126137216Y-90933609D01*
X126137216Y-90933609D02*
X126113407Y-91171704D01*
X126113407Y-91171704D02*
X126137216Y-91147895D01*
X126137216Y-91147895D02*
X126184835Y-91124085D01*
X126184835Y-91124085D02*
X126303883Y-91124085D01*
X126303883Y-91124085D02*
X126351502Y-91147895D01*
X126351502Y-91147895D02*
X126375311Y-91171704D01*
X126375311Y-91171704D02*
X126399121Y-91219323D01*
X126399121Y-91219323D02*
X126399121Y-91338371D01*
X126399121Y-91338371D02*
X126375311Y-91385990D01*
X126375311Y-91385990D02*
X126351502Y-91409800D01*
X126351502Y-91409800D02*
X126303883Y-91433609D01*
X126303883Y-91433609D02*
X126184835Y-91433609D01*
X126184835Y-91433609D02*
X126137216Y-91409800D01*
X126137216Y-91409800D02*
X126113407Y-91385990D01*
X126970549Y-90909800D02*
X126541978Y-91552657D01*
X127161026Y-91433609D02*
X127256264Y-91433609D01*
X127256264Y-91433609D02*
X127303883Y-91409800D01*
X127303883Y-91409800D02*
X127327692Y-91385990D01*
X127327692Y-91385990D02*
X127375311Y-91314561D01*
X127375311Y-91314561D02*
X127399121Y-91219323D01*
X127399121Y-91219323D02*
X127399121Y-91028847D01*
X127399121Y-91028847D02*
X127375311Y-90981228D01*
X127375311Y-90981228D02*
X127351502Y-90957419D01*
X127351502Y-90957419D02*
X127303883Y-90933609D01*
X127303883Y-90933609D02*
X127208645Y-90933609D01*
X127208645Y-90933609D02*
X127161026Y-90957419D01*
X127161026Y-90957419D02*
X127137216Y-90981228D01*
X127137216Y-90981228D02*
X127113407Y-91028847D01*
X127113407Y-91028847D02*
X127113407Y-91147895D01*
X127113407Y-91147895D02*
X127137216Y-91195514D01*
X127137216Y-91195514D02*
X127161026Y-91219323D01*
X127161026Y-91219323D02*
X127208645Y-91243133D01*
X127208645Y-91243133D02*
X127303883Y-91243133D01*
X127303883Y-91243133D02*
X127351502Y-91219323D01*
X127351502Y-91219323D02*
X127375311Y-91195514D01*
X127375311Y-91195514D02*
X127399121Y-91147895D01*
X116545023Y-93888908D02*
X116259309Y-93888908D01*
X116402166Y-93888908D02*
X116402166Y-93388908D01*
X116402166Y-93388908D02*
X116354547Y-93460337D01*
X116354547Y-93460337D02*
X116306928Y-93507956D01*
X116306928Y-93507956D02*
X116259309Y-93531765D01*
X116973594Y-93388908D02*
X116878356Y-93388908D01*
X116878356Y-93388908D02*
X116830737Y-93412718D01*
X116830737Y-93412718D02*
X116806927Y-93436527D01*
X116806927Y-93436527D02*
X116759308Y-93507956D01*
X116759308Y-93507956D02*
X116735499Y-93603194D01*
X116735499Y-93603194D02*
X116735499Y-93793670D01*
X116735499Y-93793670D02*
X116759308Y-93841289D01*
X116759308Y-93841289D02*
X116783118Y-93865099D01*
X116783118Y-93865099D02*
X116830737Y-93888908D01*
X116830737Y-93888908D02*
X116925975Y-93888908D01*
X116925975Y-93888908D02*
X116973594Y-93865099D01*
X116973594Y-93865099D02*
X116997403Y-93841289D01*
X116997403Y-93841289D02*
X117021213Y-93793670D01*
X117021213Y-93793670D02*
X117021213Y-93674622D01*
X117021213Y-93674622D02*
X116997403Y-93627003D01*
X116997403Y-93627003D02*
X116973594Y-93603194D01*
X116973594Y-93603194D02*
X116925975Y-93579384D01*
X116925975Y-93579384D02*
X116830737Y-93579384D01*
X116830737Y-93579384D02*
X116783118Y-93603194D01*
X116783118Y-93603194D02*
X116759308Y-93627003D01*
X116759308Y-93627003D02*
X116735499Y-93674622D01*
X117473593Y-93388908D02*
X117235498Y-93388908D01*
X117235498Y-93388908D02*
X117211689Y-93627003D01*
X117211689Y-93627003D02*
X117235498Y-93603194D01*
X117235498Y-93603194D02*
X117283117Y-93579384D01*
X117283117Y-93579384D02*
X117402165Y-93579384D01*
X117402165Y-93579384D02*
X117449784Y-93603194D01*
X117449784Y-93603194D02*
X117473593Y-93627003D01*
X117473593Y-93627003D02*
X117497403Y-93674622D01*
X117497403Y-93674622D02*
X117497403Y-93793670D01*
X117497403Y-93793670D02*
X117473593Y-93841289D01*
X117473593Y-93841289D02*
X117449784Y-93865099D01*
X117449784Y-93865099D02*
X117402165Y-93888908D01*
X117402165Y-93888908D02*
X117283117Y-93888908D01*
X117283117Y-93888908D02*
X117235498Y-93865099D01*
X117235498Y-93865099D02*
X117211689Y-93841289D01*
X118068831Y-93365099D02*
X117640260Y-94007956D01*
X118211689Y-93436527D02*
X118235498Y-93412718D01*
X118235498Y-93412718D02*
X118283117Y-93388908D01*
X118283117Y-93388908D02*
X118402165Y-93388908D01*
X118402165Y-93388908D02*
X118449784Y-93412718D01*
X118449784Y-93412718D02*
X118473593Y-93436527D01*
X118473593Y-93436527D02*
X118497403Y-93484146D01*
X118497403Y-93484146D02*
X118497403Y-93531765D01*
X118497403Y-93531765D02*
X118473593Y-93603194D01*
X118473593Y-93603194D02*
X118187879Y-93888908D01*
X118187879Y-93888908D02*
X118497403Y-93888908D01*
X50827693Y-100420038D02*
X50732455Y-100372419D01*
X50732455Y-100372419D02*
X50589598Y-100372419D01*
X50589598Y-100372419D02*
X50446741Y-100420038D01*
X50446741Y-100420038D02*
X50351503Y-100515276D01*
X50351503Y-100515276D02*
X50303884Y-100610514D01*
X50303884Y-100610514D02*
X50256265Y-100800990D01*
X50256265Y-100800990D02*
X50256265Y-100943847D01*
X50256265Y-100943847D02*
X50303884Y-101134323D01*
X50303884Y-101134323D02*
X50351503Y-101229561D01*
X50351503Y-101229561D02*
X50446741Y-101324800D01*
X50446741Y-101324800D02*
X50589598Y-101372419D01*
X50589598Y-101372419D02*
X50684836Y-101372419D01*
X50684836Y-101372419D02*
X50827693Y-101324800D01*
X50827693Y-101324800D02*
X50875312Y-101277180D01*
X50875312Y-101277180D02*
X50875312Y-100943847D01*
X50875312Y-100943847D02*
X50684836Y-100943847D01*
X51303884Y-101372419D02*
X51303884Y-100372419D01*
X51303884Y-100372419D02*
X51875312Y-101372419D01*
X51875312Y-101372419D02*
X51875312Y-100372419D01*
X52351503Y-101372419D02*
X52351503Y-100372419D01*
X52351503Y-100372419D02*
X52589598Y-100372419D01*
X52589598Y-100372419D02*
X52732455Y-100420038D01*
X52732455Y-100420038D02*
X52827693Y-100515276D01*
X52827693Y-100515276D02*
X52875312Y-100610514D01*
X52875312Y-100610514D02*
X52922931Y-100800990D01*
X52922931Y-100800990D02*
X52922931Y-100943847D01*
X52922931Y-100943847D02*
X52875312Y-101134323D01*
X52875312Y-101134323D02*
X52827693Y-101229561D01*
X52827693Y-101229561D02*
X52732455Y-101324800D01*
X52732455Y-101324800D02*
X52589598Y-101372419D01*
X52589598Y-101372419D02*
X52351503Y-101372419D01*
X125496770Y-93921076D02*
X125211056Y-93921076D01*
X125353913Y-93921076D02*
X125353913Y-93421076D01*
X125353913Y-93421076D02*
X125306294Y-93492505D01*
X125306294Y-93492505D02*
X125258675Y-93540124D01*
X125258675Y-93540124D02*
X125211056Y-93563933D01*
X125925341Y-93421076D02*
X125830103Y-93421076D01*
X125830103Y-93421076D02*
X125782484Y-93444886D01*
X125782484Y-93444886D02*
X125758674Y-93468695D01*
X125758674Y-93468695D02*
X125711055Y-93540124D01*
X125711055Y-93540124D02*
X125687246Y-93635362D01*
X125687246Y-93635362D02*
X125687246Y-93825838D01*
X125687246Y-93825838D02*
X125711055Y-93873457D01*
X125711055Y-93873457D02*
X125734865Y-93897267D01*
X125734865Y-93897267D02*
X125782484Y-93921076D01*
X125782484Y-93921076D02*
X125877722Y-93921076D01*
X125877722Y-93921076D02*
X125925341Y-93897267D01*
X125925341Y-93897267D02*
X125949150Y-93873457D01*
X125949150Y-93873457D02*
X125972960Y-93825838D01*
X125972960Y-93825838D02*
X125972960Y-93706790D01*
X125972960Y-93706790D02*
X125949150Y-93659171D01*
X125949150Y-93659171D02*
X125925341Y-93635362D01*
X125925341Y-93635362D02*
X125877722Y-93611552D01*
X125877722Y-93611552D02*
X125782484Y-93611552D01*
X125782484Y-93611552D02*
X125734865Y-93635362D01*
X125734865Y-93635362D02*
X125711055Y-93659171D01*
X125711055Y-93659171D02*
X125687246Y-93706790D01*
X126425340Y-93421076D02*
X126187245Y-93421076D01*
X126187245Y-93421076D02*
X126163436Y-93659171D01*
X126163436Y-93659171D02*
X126187245Y-93635362D01*
X126187245Y-93635362D02*
X126234864Y-93611552D01*
X126234864Y-93611552D02*
X126353912Y-93611552D01*
X126353912Y-93611552D02*
X126401531Y-93635362D01*
X126401531Y-93635362D02*
X126425340Y-93659171D01*
X126425340Y-93659171D02*
X126449150Y-93706790D01*
X126449150Y-93706790D02*
X126449150Y-93825838D01*
X126449150Y-93825838D02*
X126425340Y-93873457D01*
X126425340Y-93873457D02*
X126401531Y-93897267D01*
X126401531Y-93897267D02*
X126353912Y-93921076D01*
X126353912Y-93921076D02*
X126234864Y-93921076D01*
X126234864Y-93921076D02*
X126187245Y-93897267D01*
X126187245Y-93897267D02*
X126163436Y-93873457D01*
X127020578Y-93397267D02*
X126592007Y-94040124D01*
X127449150Y-93921076D02*
X127163436Y-93921076D01*
X127306293Y-93921076D02*
X127306293Y-93421076D01*
X127306293Y-93421076D02*
X127258674Y-93492505D01*
X127258674Y-93492505D02*
X127211055Y-93540124D01*
X127211055Y-93540124D02*
X127163436Y-93563933D01*
D13*
X82824819Y-94071904D02*
X82824819Y-93405238D01*
X82824819Y-93405238D02*
X83824819Y-93833809D01*
X83158152Y-92595714D02*
X83824819Y-92595714D01*
X82777200Y-92833809D02*
X83491485Y-93071904D01*
X83491485Y-93071904D02*
X83491485Y-92452857D01*
X83824819Y-92071904D02*
X82824819Y-92071904D01*
X83301009Y-92071904D02*
X83301009Y-91500476D01*
X83824819Y-91500476D02*
X82824819Y-91500476D01*
X83729580Y-90452857D02*
X83777200Y-90500476D01*
X83777200Y-90500476D02*
X83824819Y-90643333D01*
X83824819Y-90643333D02*
X83824819Y-90738571D01*
X83824819Y-90738571D02*
X83777200Y-90881428D01*
X83777200Y-90881428D02*
X83681961Y-90976666D01*
X83681961Y-90976666D02*
X83586723Y-91024285D01*
X83586723Y-91024285D02*
X83396247Y-91071904D01*
X83396247Y-91071904D02*
X83253390Y-91071904D01*
X83253390Y-91071904D02*
X83062914Y-91024285D01*
X83062914Y-91024285D02*
X82967676Y-90976666D01*
X82967676Y-90976666D02*
X82872438Y-90881428D01*
X82872438Y-90881428D02*
X82824819Y-90738571D01*
X82824819Y-90738571D02*
X82824819Y-90643333D01*
X82824819Y-90643333D02*
X82872438Y-90500476D01*
X82872438Y-90500476D02*
X82920057Y-90452857D01*
X83824819Y-89500476D02*
X83824819Y-90071904D01*
X83824819Y-89786190D02*
X82824819Y-89786190D01*
X82824819Y-89786190D02*
X82967676Y-89881428D01*
X82967676Y-89881428D02*
X83062914Y-89976666D01*
X83062914Y-89976666D02*
X83110533Y-90071904D01*
X82824819Y-88643333D02*
X82824819Y-88833809D01*
X82824819Y-88833809D02*
X82872438Y-88929047D01*
X82872438Y-88929047D02*
X82920057Y-88976666D01*
X82920057Y-88976666D02*
X83062914Y-89071904D01*
X83062914Y-89071904D02*
X83253390Y-89119523D01*
X83253390Y-89119523D02*
X83634342Y-89119523D01*
X83634342Y-89119523D02*
X83729580Y-89071904D01*
X83729580Y-89071904D02*
X83777200Y-89024285D01*
X83777200Y-89024285D02*
X83824819Y-88929047D01*
X83824819Y-88929047D02*
X83824819Y-88738571D01*
X83824819Y-88738571D02*
X83777200Y-88643333D01*
X83777200Y-88643333D02*
X83729580Y-88595714D01*
X83729580Y-88595714D02*
X83634342Y-88548095D01*
X83634342Y-88548095D02*
X83396247Y-88548095D01*
X83396247Y-88548095D02*
X83301009Y-88595714D01*
X83301009Y-88595714D02*
X83253390Y-88643333D01*
X83253390Y-88643333D02*
X83205771Y-88738571D01*
X83205771Y-88738571D02*
X83205771Y-88929047D01*
X83205771Y-88929047D02*
X83253390Y-89024285D01*
X83253390Y-89024285D02*
X83301009Y-89071904D01*
X83301009Y-89071904D02*
X83396247Y-89119523D01*
X82824819Y-87643333D02*
X82824819Y-88119523D01*
X82824819Y-88119523D02*
X83301009Y-88167142D01*
X83301009Y-88167142D02*
X83253390Y-88119523D01*
X83253390Y-88119523D02*
X83205771Y-88024285D01*
X83205771Y-88024285D02*
X83205771Y-87786190D01*
X83205771Y-87786190D02*
X83253390Y-87690952D01*
X83253390Y-87690952D02*
X83301009Y-87643333D01*
X83301009Y-87643333D02*
X83396247Y-87595714D01*
X83396247Y-87595714D02*
X83634342Y-87595714D01*
X83634342Y-87595714D02*
X83729580Y-87643333D01*
X83729580Y-87643333D02*
X83777200Y-87690952D01*
X83777200Y-87690952D02*
X83824819Y-87786190D01*
X83824819Y-87786190D02*
X83824819Y-88024285D01*
X83824819Y-88024285D02*
X83777200Y-88119523D01*
X83777200Y-88119523D02*
X83729580Y-88167142D01*
X121396666Y-95494819D02*
X121396666Y-96209104D01*
X121396666Y-96209104D02*
X121349047Y-96351961D01*
X121349047Y-96351961D02*
X121253809Y-96447200D01*
X121253809Y-96447200D02*
X121110952Y-96494819D01*
X121110952Y-96494819D02*
X121015714Y-96494819D01*
X122396666Y-96494819D02*
X121825238Y-96494819D01*
X122110952Y-96494819D02*
X122110952Y-95494819D01*
X122110952Y-95494819D02*
X122015714Y-95637676D01*
X122015714Y-95637676D02*
X121920476Y-95732914D01*
X121920476Y-95732914D02*
X121825238Y-95780533D01*
X130283333Y-107618033D02*
X130683333Y-107618033D01*
X130483333Y-108318033D02*
X130483333Y-107618033D01*
X130916666Y-108318033D02*
X130916666Y-107618033D01*
X130916666Y-107618033D02*
X131183333Y-107618033D01*
X131183333Y-107618033D02*
X131250000Y-107651366D01*
X131250000Y-107651366D02*
X131283333Y-107684700D01*
X131283333Y-107684700D02*
X131316666Y-107751366D01*
X131316666Y-107751366D02*
X131316666Y-107851366D01*
X131316666Y-107851366D02*
X131283333Y-107918033D01*
X131283333Y-107918033D02*
X131250000Y-107951366D01*
X131250000Y-107951366D02*
X131183333Y-107984700D01*
X131183333Y-107984700D02*
X130916666Y-107984700D01*
X131983333Y-108318033D02*
X131583333Y-108318033D01*
X131783333Y-108318033D02*
X131783333Y-107618033D01*
X131783333Y-107618033D02*
X131716666Y-107718033D01*
X131716666Y-107718033D02*
X131650000Y-107784700D01*
X131650000Y-107784700D02*
X131583333Y-107818033D01*
X132316667Y-108318033D02*
X132450000Y-108318033D01*
X132450000Y-108318033D02*
X132516667Y-108284700D01*
X132516667Y-108284700D02*
X132550000Y-108251366D01*
X132550000Y-108251366D02*
X132616667Y-108151366D01*
X132616667Y-108151366D02*
X132650000Y-108018033D01*
X132650000Y-108018033D02*
X132650000Y-107751366D01*
X132650000Y-107751366D02*
X132616667Y-107684700D01*
X132616667Y-107684700D02*
X132583333Y-107651366D01*
X132583333Y-107651366D02*
X132516667Y-107618033D01*
X132516667Y-107618033D02*
X132383333Y-107618033D01*
X132383333Y-107618033D02*
X132316667Y-107651366D01*
X132316667Y-107651366D02*
X132283333Y-107684700D01*
X132283333Y-107684700D02*
X132250000Y-107751366D01*
X132250000Y-107751366D02*
X132250000Y-107918033D01*
X132250000Y-107918033D02*
X132283333Y-107984700D01*
X132283333Y-107984700D02*
X132316667Y-108018033D01*
X132316667Y-108018033D02*
X132383333Y-108051366D01*
X132383333Y-108051366D02*
X132516667Y-108051366D01*
X132516667Y-108051366D02*
X132583333Y-108018033D01*
X132583333Y-108018033D02*
X132616667Y-107984700D01*
X132616667Y-107984700D02*
X132650000Y-107918033D01*
X72760000Y-108318033D02*
X72760000Y-107618033D01*
X73093333Y-108318033D02*
X73093333Y-107618033D01*
X73093333Y-107618033D02*
X73493333Y-108318033D01*
X73493333Y-108318033D02*
X73493333Y-107618033D01*
X74160000Y-107618033D02*
X73826666Y-107618033D01*
X73826666Y-107618033D02*
X73793333Y-107951366D01*
X73793333Y-107951366D02*
X73826666Y-107918033D01*
X73826666Y-107918033D02*
X73893333Y-107884700D01*
X73893333Y-107884700D02*
X74060000Y-107884700D01*
X74060000Y-107884700D02*
X74126666Y-107918033D01*
X74126666Y-107918033D02*
X74160000Y-107951366D01*
X74160000Y-107951366D02*
X74193333Y-108018033D01*
X74193333Y-108018033D02*
X74193333Y-108184700D01*
X74193333Y-108184700D02*
X74160000Y-108251366D01*
X74160000Y-108251366D02*
X74126666Y-108284700D01*
X74126666Y-108284700D02*
X74060000Y-108318033D01*
X74060000Y-108318033D02*
X73893333Y-108318033D01*
X73893333Y-108318033D02*
X73826666Y-108284700D01*
X73826666Y-108284700D02*
X73793333Y-108251366D01*
X126283333Y-107618033D02*
X126683333Y-107618033D01*
X126483333Y-108318033D02*
X126483333Y-107618033D01*
X126916666Y-108318033D02*
X126916666Y-107618033D01*
X126916666Y-107618033D02*
X127183333Y-107618033D01*
X127183333Y-107618033D02*
X127250000Y-107651366D01*
X127250000Y-107651366D02*
X127283333Y-107684700D01*
X127283333Y-107684700D02*
X127316666Y-107751366D01*
X127316666Y-107751366D02*
X127316666Y-107851366D01*
X127316666Y-107851366D02*
X127283333Y-107918033D01*
X127283333Y-107918033D02*
X127250000Y-107951366D01*
X127250000Y-107951366D02*
X127183333Y-107984700D01*
X127183333Y-107984700D02*
X126916666Y-107984700D01*
X127983333Y-108318033D02*
X127583333Y-108318033D01*
X127783333Y-108318033D02*
X127783333Y-107618033D01*
X127783333Y-107618033D02*
X127716666Y-107718033D01*
X127716666Y-107718033D02*
X127650000Y-107784700D01*
X127650000Y-107784700D02*
X127583333Y-107818033D01*
X128383333Y-107918033D02*
X128316667Y-107884700D01*
X128316667Y-107884700D02*
X128283333Y-107851366D01*
X128283333Y-107851366D02*
X128250000Y-107784700D01*
X128250000Y-107784700D02*
X128250000Y-107751366D01*
X128250000Y-107751366D02*
X128283333Y-107684700D01*
X128283333Y-107684700D02*
X128316667Y-107651366D01*
X128316667Y-107651366D02*
X128383333Y-107618033D01*
X128383333Y-107618033D02*
X128516667Y-107618033D01*
X128516667Y-107618033D02*
X128583333Y-107651366D01*
X128583333Y-107651366D02*
X128616667Y-107684700D01*
X128616667Y-107684700D02*
X128650000Y-107751366D01*
X128650000Y-107751366D02*
X128650000Y-107784700D01*
X128650000Y-107784700D02*
X128616667Y-107851366D01*
X128616667Y-107851366D02*
X128583333Y-107884700D01*
X128583333Y-107884700D02*
X128516667Y-107918033D01*
X128516667Y-107918033D02*
X128383333Y-107918033D01*
X128383333Y-107918033D02*
X128316667Y-107951366D01*
X128316667Y-107951366D02*
X128283333Y-107984700D01*
X128283333Y-107984700D02*
X128250000Y-108051366D01*
X128250000Y-108051366D02*
X128250000Y-108184700D01*
X128250000Y-108184700D02*
X128283333Y-108251366D01*
X128283333Y-108251366D02*
X128316667Y-108284700D01*
X128316667Y-108284700D02*
X128383333Y-108318033D01*
X128383333Y-108318033D02*
X128516667Y-108318033D01*
X128516667Y-108318033D02*
X128583333Y-108284700D01*
X128583333Y-108284700D02*
X128616667Y-108251366D01*
X128616667Y-108251366D02*
X128650000Y-108184700D01*
X128650000Y-108184700D02*
X128650000Y-108051366D01*
X128650000Y-108051366D02*
X128616667Y-107984700D01*
X128616667Y-107984700D02*
X128583333Y-107951366D01*
X128583333Y-107951366D02*
X128516667Y-107918033D01*
X183283333Y-107618033D02*
X183683333Y-107618033D01*
X183483333Y-108318033D02*
X183483333Y-107618033D01*
X183916666Y-108318033D02*
X183916666Y-107618033D01*
X183916666Y-107618033D02*
X184183333Y-107618033D01*
X184183333Y-107618033D02*
X184250000Y-107651366D01*
X184250000Y-107651366D02*
X184283333Y-107684700D01*
X184283333Y-107684700D02*
X184316666Y-107751366D01*
X184316666Y-107751366D02*
X184316666Y-107851366D01*
X184316666Y-107851366D02*
X184283333Y-107918033D01*
X184283333Y-107918033D02*
X184250000Y-107951366D01*
X184250000Y-107951366D02*
X184183333Y-107984700D01*
X184183333Y-107984700D02*
X183916666Y-107984700D01*
X184550000Y-107618033D02*
X184983333Y-107618033D01*
X184983333Y-107618033D02*
X184750000Y-107884700D01*
X184750000Y-107884700D02*
X184850000Y-107884700D01*
X184850000Y-107884700D02*
X184916666Y-107918033D01*
X184916666Y-107918033D02*
X184950000Y-107951366D01*
X184950000Y-107951366D02*
X184983333Y-108018033D01*
X184983333Y-108018033D02*
X184983333Y-108184700D01*
X184983333Y-108184700D02*
X184950000Y-108251366D01*
X184950000Y-108251366D02*
X184916666Y-108284700D01*
X184916666Y-108284700D02*
X184850000Y-108318033D01*
X184850000Y-108318033D02*
X184650000Y-108318033D01*
X184650000Y-108318033D02*
X184583333Y-108284700D01*
X184583333Y-108284700D02*
X184550000Y-108251366D01*
X185250000Y-107684700D02*
X185283333Y-107651366D01*
X185283333Y-107651366D02*
X185350000Y-107618033D01*
X185350000Y-107618033D02*
X185516667Y-107618033D01*
X185516667Y-107618033D02*
X185583333Y-107651366D01*
X185583333Y-107651366D02*
X185616667Y-107684700D01*
X185616667Y-107684700D02*
X185650000Y-107751366D01*
X185650000Y-107751366D02*
X185650000Y-107818033D01*
X185650000Y-107818033D02*
X185616667Y-107918033D01*
X185616667Y-107918033D02*
X185216667Y-108318033D01*
X185216667Y-108318033D02*
X185650000Y-108318033D01*
X84760000Y-108318033D02*
X84760000Y-107618033D01*
X85093333Y-108318033D02*
X85093333Y-107618033D01*
X85093333Y-107618033D02*
X85493333Y-108318033D01*
X85493333Y-108318033D02*
X85493333Y-107618033D01*
X85926666Y-107918033D02*
X85860000Y-107884700D01*
X85860000Y-107884700D02*
X85826666Y-107851366D01*
X85826666Y-107851366D02*
X85793333Y-107784700D01*
X85793333Y-107784700D02*
X85793333Y-107751366D01*
X85793333Y-107751366D02*
X85826666Y-107684700D01*
X85826666Y-107684700D02*
X85860000Y-107651366D01*
X85860000Y-107651366D02*
X85926666Y-107618033D01*
X85926666Y-107618033D02*
X86060000Y-107618033D01*
X86060000Y-107618033D02*
X86126666Y-107651366D01*
X86126666Y-107651366D02*
X86160000Y-107684700D01*
X86160000Y-107684700D02*
X86193333Y-107751366D01*
X86193333Y-107751366D02*
X86193333Y-107784700D01*
X86193333Y-107784700D02*
X86160000Y-107851366D01*
X86160000Y-107851366D02*
X86126666Y-107884700D01*
X86126666Y-107884700D02*
X86060000Y-107918033D01*
X86060000Y-107918033D02*
X85926666Y-107918033D01*
X85926666Y-107918033D02*
X85860000Y-107951366D01*
X85860000Y-107951366D02*
X85826666Y-107984700D01*
X85826666Y-107984700D02*
X85793333Y-108051366D01*
X85793333Y-108051366D02*
X85793333Y-108184700D01*
X85793333Y-108184700D02*
X85826666Y-108251366D01*
X85826666Y-108251366D02*
X85860000Y-108284700D01*
X85860000Y-108284700D02*
X85926666Y-108318033D01*
X85926666Y-108318033D02*
X86060000Y-108318033D01*
X86060000Y-108318033D02*
X86126666Y-108284700D01*
X86126666Y-108284700D02*
X86160000Y-108251366D01*
X86160000Y-108251366D02*
X86193333Y-108184700D01*
X86193333Y-108184700D02*
X86193333Y-108051366D01*
X86193333Y-108051366D02*
X86160000Y-107984700D01*
X86160000Y-107984700D02*
X86126666Y-107951366D01*
X86126666Y-107951366D02*
X86060000Y-107918033D01*
X109466666Y-108318033D02*
X109466666Y-107618033D01*
X109799999Y-108318033D02*
X109799999Y-107618033D01*
X109799999Y-107618033D02*
X110199999Y-108318033D01*
X110199999Y-108318033D02*
X110199999Y-107618033D01*
X110899999Y-108318033D02*
X110499999Y-108318033D01*
X110699999Y-108318033D02*
X110699999Y-107618033D01*
X110699999Y-107618033D02*
X110633332Y-107718033D01*
X110633332Y-107718033D02*
X110566666Y-107784700D01*
X110566666Y-107784700D02*
X110499999Y-107818033D01*
X111499999Y-107851366D02*
X111499999Y-108318033D01*
X111333333Y-107584700D02*
X111166666Y-108084700D01*
X111166666Y-108084700D02*
X111599999Y-108084700D01*
X56760000Y-108318033D02*
X56760000Y-107618033D01*
X57093333Y-108318033D02*
X57093333Y-107618033D01*
X57093333Y-107618033D02*
X57493333Y-108318033D01*
X57493333Y-108318033D02*
X57493333Y-107618033D01*
X58193333Y-108318033D02*
X57793333Y-108318033D01*
X57993333Y-108318033D02*
X57993333Y-107618033D01*
X57993333Y-107618033D02*
X57926666Y-107718033D01*
X57926666Y-107718033D02*
X57860000Y-107784700D01*
X57860000Y-107784700D02*
X57793333Y-107818033D01*
X155283333Y-107618033D02*
X155683333Y-107618033D01*
X155483333Y-108318033D02*
X155483333Y-107618033D01*
X155916666Y-108318033D02*
X155916666Y-107618033D01*
X155916666Y-107618033D02*
X156183333Y-107618033D01*
X156183333Y-107618033D02*
X156250000Y-107651366D01*
X156250000Y-107651366D02*
X156283333Y-107684700D01*
X156283333Y-107684700D02*
X156316666Y-107751366D01*
X156316666Y-107751366D02*
X156316666Y-107851366D01*
X156316666Y-107851366D02*
X156283333Y-107918033D01*
X156283333Y-107918033D02*
X156250000Y-107951366D01*
X156250000Y-107951366D02*
X156183333Y-107984700D01*
X156183333Y-107984700D02*
X155916666Y-107984700D01*
X156583333Y-107684700D02*
X156616666Y-107651366D01*
X156616666Y-107651366D02*
X156683333Y-107618033D01*
X156683333Y-107618033D02*
X156850000Y-107618033D01*
X156850000Y-107618033D02*
X156916666Y-107651366D01*
X156916666Y-107651366D02*
X156950000Y-107684700D01*
X156950000Y-107684700D02*
X156983333Y-107751366D01*
X156983333Y-107751366D02*
X156983333Y-107818033D01*
X156983333Y-107818033D02*
X156950000Y-107918033D01*
X156950000Y-107918033D02*
X156550000Y-108318033D01*
X156550000Y-108318033D02*
X156983333Y-108318033D01*
X157616667Y-107618033D02*
X157283333Y-107618033D01*
X157283333Y-107618033D02*
X157250000Y-107951366D01*
X157250000Y-107951366D02*
X157283333Y-107918033D01*
X157283333Y-107918033D02*
X157350000Y-107884700D01*
X157350000Y-107884700D02*
X157516667Y-107884700D01*
X157516667Y-107884700D02*
X157583333Y-107918033D01*
X157583333Y-107918033D02*
X157616667Y-107951366D01*
X157616667Y-107951366D02*
X157650000Y-108018033D01*
X157650000Y-108018033D02*
X157650000Y-108184700D01*
X157650000Y-108184700D02*
X157616667Y-108251366D01*
X157616667Y-108251366D02*
X157583333Y-108284700D01*
X157583333Y-108284700D02*
X157516667Y-108318033D01*
X157516667Y-108318033D02*
X157350000Y-108318033D01*
X157350000Y-108318033D02*
X157283333Y-108284700D01*
X157283333Y-108284700D02*
X157250000Y-108251366D01*
X68760000Y-108318033D02*
X68760000Y-107618033D01*
X69093333Y-108318033D02*
X69093333Y-107618033D01*
X69093333Y-107618033D02*
X69493333Y-108318033D01*
X69493333Y-108318033D02*
X69493333Y-107618033D01*
X70126666Y-107851366D02*
X70126666Y-108318033D01*
X69960000Y-107584700D02*
X69793333Y-108084700D01*
X69793333Y-108084700D02*
X70226666Y-108084700D01*
X64800000Y-108316033D02*
X64800000Y-107616033D01*
X65133333Y-108316033D02*
X65133333Y-107616033D01*
X65133333Y-107616033D02*
X65533333Y-108316033D01*
X65533333Y-108316033D02*
X65533333Y-107616033D01*
X65800000Y-107616033D02*
X66233333Y-107616033D01*
X66233333Y-107616033D02*
X66000000Y-107882700D01*
X66000000Y-107882700D02*
X66100000Y-107882700D01*
X66100000Y-107882700D02*
X66166666Y-107916033D01*
X66166666Y-107916033D02*
X66200000Y-107949366D01*
X66200000Y-107949366D02*
X66233333Y-108016033D01*
X66233333Y-108016033D02*
X66233333Y-108182700D01*
X66233333Y-108182700D02*
X66200000Y-108249366D01*
X66200000Y-108249366D02*
X66166666Y-108282700D01*
X66166666Y-108282700D02*
X66100000Y-108316033D01*
X66100000Y-108316033D02*
X65900000Y-108316033D01*
X65900000Y-108316033D02*
X65833333Y-108282700D01*
X65833333Y-108282700D02*
X65800000Y-108249366D01*
X76760000Y-108318033D02*
X76760000Y-107618033D01*
X77093333Y-108318033D02*
X77093333Y-107618033D01*
X77093333Y-107618033D02*
X77493333Y-108318033D01*
X77493333Y-108318033D02*
X77493333Y-107618033D01*
X78126666Y-107618033D02*
X77993333Y-107618033D01*
X77993333Y-107618033D02*
X77926666Y-107651366D01*
X77926666Y-107651366D02*
X77893333Y-107684700D01*
X77893333Y-107684700D02*
X77826666Y-107784700D01*
X77826666Y-107784700D02*
X77793333Y-107918033D01*
X77793333Y-107918033D02*
X77793333Y-108184700D01*
X77793333Y-108184700D02*
X77826666Y-108251366D01*
X77826666Y-108251366D02*
X77860000Y-108284700D01*
X77860000Y-108284700D02*
X77926666Y-108318033D01*
X77926666Y-108318033D02*
X78060000Y-108318033D01*
X78060000Y-108318033D02*
X78126666Y-108284700D01*
X78126666Y-108284700D02*
X78160000Y-108251366D01*
X78160000Y-108251366D02*
X78193333Y-108184700D01*
X78193333Y-108184700D02*
X78193333Y-108018033D01*
X78193333Y-108018033D02*
X78160000Y-107951366D01*
X78160000Y-107951366D02*
X78126666Y-107918033D01*
X78126666Y-107918033D02*
X78060000Y-107884700D01*
X78060000Y-107884700D02*
X77926666Y-107884700D01*
X77926666Y-107884700D02*
X77860000Y-107918033D01*
X77860000Y-107918033D02*
X77826666Y-107951366D01*
X77826666Y-107951366D02*
X77793333Y-108018033D01*
X89800000Y-108318033D02*
X89800000Y-107618033D01*
X90133333Y-108318033D02*
X90133333Y-107618033D01*
X90133333Y-107618033D02*
X90533333Y-108318033D01*
X90533333Y-108318033D02*
X90533333Y-107618033D01*
X90900000Y-108318033D02*
X91033333Y-108318033D01*
X91033333Y-108318033D02*
X91100000Y-108284700D01*
X91100000Y-108284700D02*
X91133333Y-108251366D01*
X91133333Y-108251366D02*
X91200000Y-108151366D01*
X91200000Y-108151366D02*
X91233333Y-108018033D01*
X91233333Y-108018033D02*
X91233333Y-107751366D01*
X91233333Y-107751366D02*
X91200000Y-107684700D01*
X91200000Y-107684700D02*
X91166666Y-107651366D01*
X91166666Y-107651366D02*
X91100000Y-107618033D01*
X91100000Y-107618033D02*
X90966666Y-107618033D01*
X90966666Y-107618033D02*
X90900000Y-107651366D01*
X90900000Y-107651366D02*
X90866666Y-107684700D01*
X90866666Y-107684700D02*
X90833333Y-107751366D01*
X90833333Y-107751366D02*
X90833333Y-107918033D01*
X90833333Y-107918033D02*
X90866666Y-107984700D01*
X90866666Y-107984700D02*
X90900000Y-108018033D01*
X90900000Y-108018033D02*
X90966666Y-108051366D01*
X90966666Y-108051366D02*
X91100000Y-108051366D01*
X91100000Y-108051366D02*
X91166666Y-108018033D01*
X91166666Y-108018033D02*
X91200000Y-107984700D01*
X91200000Y-107984700D02*
X91233333Y-107918033D01*
X97466666Y-108318033D02*
X97466666Y-107618033D01*
X97799999Y-108318033D02*
X97799999Y-107618033D01*
X97799999Y-107618033D02*
X98199999Y-108318033D01*
X98199999Y-108318033D02*
X98199999Y-107618033D01*
X98899999Y-108318033D02*
X98499999Y-108318033D01*
X98699999Y-108318033D02*
X98699999Y-107618033D01*
X98699999Y-107618033D02*
X98633332Y-107718033D01*
X98633332Y-107718033D02*
X98566666Y-107784700D01*
X98566666Y-107784700D02*
X98499999Y-107818033D01*
X99566666Y-108318033D02*
X99166666Y-108318033D01*
X99366666Y-108318033D02*
X99366666Y-107618033D01*
X99366666Y-107618033D02*
X99299999Y-107718033D01*
X99299999Y-107718033D02*
X99233333Y-107784700D01*
X99233333Y-107784700D02*
X99166666Y-107818033D01*
X175283333Y-107618033D02*
X175683333Y-107618033D01*
X175483333Y-108318033D02*
X175483333Y-107618033D01*
X175916666Y-108318033D02*
X175916666Y-107618033D01*
X175916666Y-107618033D02*
X176183333Y-107618033D01*
X176183333Y-107618033D02*
X176250000Y-107651366D01*
X176250000Y-107651366D02*
X176283333Y-107684700D01*
X176283333Y-107684700D02*
X176316666Y-107751366D01*
X176316666Y-107751366D02*
X176316666Y-107851366D01*
X176316666Y-107851366D02*
X176283333Y-107918033D01*
X176283333Y-107918033D02*
X176250000Y-107951366D01*
X176250000Y-107951366D02*
X176183333Y-107984700D01*
X176183333Y-107984700D02*
X175916666Y-107984700D01*
X176550000Y-107618033D02*
X176983333Y-107618033D01*
X176983333Y-107618033D02*
X176750000Y-107884700D01*
X176750000Y-107884700D02*
X176850000Y-107884700D01*
X176850000Y-107884700D02*
X176916666Y-107918033D01*
X176916666Y-107918033D02*
X176950000Y-107951366D01*
X176950000Y-107951366D02*
X176983333Y-108018033D01*
X176983333Y-108018033D02*
X176983333Y-108184700D01*
X176983333Y-108184700D02*
X176950000Y-108251366D01*
X176950000Y-108251366D02*
X176916666Y-108284700D01*
X176916666Y-108284700D02*
X176850000Y-108318033D01*
X176850000Y-108318033D02*
X176650000Y-108318033D01*
X176650000Y-108318033D02*
X176583333Y-108284700D01*
X176583333Y-108284700D02*
X176550000Y-108251366D01*
X177416667Y-107618033D02*
X177483333Y-107618033D01*
X177483333Y-107618033D02*
X177550000Y-107651366D01*
X177550000Y-107651366D02*
X177583333Y-107684700D01*
X177583333Y-107684700D02*
X177616667Y-107751366D01*
X177616667Y-107751366D02*
X177650000Y-107884700D01*
X177650000Y-107884700D02*
X177650000Y-108051366D01*
X177650000Y-108051366D02*
X177616667Y-108184700D01*
X177616667Y-108184700D02*
X177583333Y-108251366D01*
X177583333Y-108251366D02*
X177550000Y-108284700D01*
X177550000Y-108284700D02*
X177483333Y-108318033D01*
X177483333Y-108318033D02*
X177416667Y-108318033D01*
X177416667Y-108318033D02*
X177350000Y-108284700D01*
X177350000Y-108284700D02*
X177316667Y-108251366D01*
X177316667Y-108251366D02*
X177283333Y-108184700D01*
X177283333Y-108184700D02*
X177250000Y-108051366D01*
X177250000Y-108051366D02*
X177250000Y-107884700D01*
X177250000Y-107884700D02*
X177283333Y-107751366D01*
X177283333Y-107751366D02*
X177316667Y-107684700D01*
X177316667Y-107684700D02*
X177350000Y-107651366D01*
X177350000Y-107651366D02*
X177416667Y-107618033D01*
X117466666Y-108318033D02*
X117466666Y-107618033D01*
X117799999Y-108318033D02*
X117799999Y-107618033D01*
X117799999Y-107618033D02*
X118199999Y-108318033D01*
X118199999Y-108318033D02*
X118199999Y-107618033D01*
X118899999Y-108318033D02*
X118499999Y-108318033D01*
X118699999Y-108318033D02*
X118699999Y-107618033D01*
X118699999Y-107618033D02*
X118633332Y-107718033D01*
X118633332Y-107718033D02*
X118566666Y-107784700D01*
X118566666Y-107784700D02*
X118499999Y-107818033D01*
X119499999Y-107618033D02*
X119366666Y-107618033D01*
X119366666Y-107618033D02*
X119299999Y-107651366D01*
X119299999Y-107651366D02*
X119266666Y-107684700D01*
X119266666Y-107684700D02*
X119199999Y-107784700D01*
X119199999Y-107784700D02*
X119166666Y-107918033D01*
X119166666Y-107918033D02*
X119166666Y-108184700D01*
X119166666Y-108184700D02*
X119199999Y-108251366D01*
X119199999Y-108251366D02*
X119233333Y-108284700D01*
X119233333Y-108284700D02*
X119299999Y-108318033D01*
X119299999Y-108318033D02*
X119433333Y-108318033D01*
X119433333Y-108318033D02*
X119499999Y-108284700D01*
X119499999Y-108284700D02*
X119533333Y-108251366D01*
X119533333Y-108251366D02*
X119566666Y-108184700D01*
X119566666Y-108184700D02*
X119566666Y-108018033D01*
X119566666Y-108018033D02*
X119533333Y-107951366D01*
X119533333Y-107951366D02*
X119499999Y-107918033D01*
X119499999Y-107918033D02*
X119433333Y-107884700D01*
X119433333Y-107884700D02*
X119299999Y-107884700D01*
X119299999Y-107884700D02*
X119233333Y-107918033D01*
X119233333Y-107918033D02*
X119199999Y-107951366D01*
X119199999Y-107951366D02*
X119166666Y-108018033D01*
X167283333Y-107618033D02*
X167683333Y-107618033D01*
X167483333Y-108318033D02*
X167483333Y-107618033D01*
X167916666Y-108318033D02*
X167916666Y-107618033D01*
X167916666Y-107618033D02*
X168183333Y-107618033D01*
X168183333Y-107618033D02*
X168250000Y-107651366D01*
X168250000Y-107651366D02*
X168283333Y-107684700D01*
X168283333Y-107684700D02*
X168316666Y-107751366D01*
X168316666Y-107751366D02*
X168316666Y-107851366D01*
X168316666Y-107851366D02*
X168283333Y-107918033D01*
X168283333Y-107918033D02*
X168250000Y-107951366D01*
X168250000Y-107951366D02*
X168183333Y-107984700D01*
X168183333Y-107984700D02*
X167916666Y-107984700D01*
X168583333Y-107684700D02*
X168616666Y-107651366D01*
X168616666Y-107651366D02*
X168683333Y-107618033D01*
X168683333Y-107618033D02*
X168850000Y-107618033D01*
X168850000Y-107618033D02*
X168916666Y-107651366D01*
X168916666Y-107651366D02*
X168950000Y-107684700D01*
X168950000Y-107684700D02*
X168983333Y-107751366D01*
X168983333Y-107751366D02*
X168983333Y-107818033D01*
X168983333Y-107818033D02*
X168950000Y-107918033D01*
X168950000Y-107918033D02*
X168550000Y-108318033D01*
X168550000Y-108318033D02*
X168983333Y-108318033D01*
X169383333Y-107918033D02*
X169316667Y-107884700D01*
X169316667Y-107884700D02*
X169283333Y-107851366D01*
X169283333Y-107851366D02*
X169250000Y-107784700D01*
X169250000Y-107784700D02*
X169250000Y-107751366D01*
X169250000Y-107751366D02*
X169283333Y-107684700D01*
X169283333Y-107684700D02*
X169316667Y-107651366D01*
X169316667Y-107651366D02*
X169383333Y-107618033D01*
X169383333Y-107618033D02*
X169516667Y-107618033D01*
X169516667Y-107618033D02*
X169583333Y-107651366D01*
X169583333Y-107651366D02*
X169616667Y-107684700D01*
X169616667Y-107684700D02*
X169650000Y-107751366D01*
X169650000Y-107751366D02*
X169650000Y-107784700D01*
X169650000Y-107784700D02*
X169616667Y-107851366D01*
X169616667Y-107851366D02*
X169583333Y-107884700D01*
X169583333Y-107884700D02*
X169516667Y-107918033D01*
X169516667Y-107918033D02*
X169383333Y-107918033D01*
X169383333Y-107918033D02*
X169316667Y-107951366D01*
X169316667Y-107951366D02*
X169283333Y-107984700D01*
X169283333Y-107984700D02*
X169250000Y-108051366D01*
X169250000Y-108051366D02*
X169250000Y-108184700D01*
X169250000Y-108184700D02*
X169283333Y-108251366D01*
X169283333Y-108251366D02*
X169316667Y-108284700D01*
X169316667Y-108284700D02*
X169383333Y-108318033D01*
X169383333Y-108318033D02*
X169516667Y-108318033D01*
X169516667Y-108318033D02*
X169583333Y-108284700D01*
X169583333Y-108284700D02*
X169616667Y-108251366D01*
X169616667Y-108251366D02*
X169650000Y-108184700D01*
X169650000Y-108184700D02*
X169650000Y-108051366D01*
X169650000Y-108051366D02*
X169616667Y-107984700D01*
X169616667Y-107984700D02*
X169583333Y-107951366D01*
X169583333Y-107951366D02*
X169516667Y-107918033D01*
X146283333Y-107618033D02*
X146683333Y-107618033D01*
X146483333Y-108318033D02*
X146483333Y-107618033D01*
X146916666Y-108318033D02*
X146916666Y-107618033D01*
X146916666Y-107618033D02*
X147183333Y-107618033D01*
X147183333Y-107618033D02*
X147250000Y-107651366D01*
X147250000Y-107651366D02*
X147283333Y-107684700D01*
X147283333Y-107684700D02*
X147316666Y-107751366D01*
X147316666Y-107751366D02*
X147316666Y-107851366D01*
X147316666Y-107851366D02*
X147283333Y-107918033D01*
X147283333Y-107918033D02*
X147250000Y-107951366D01*
X147250000Y-107951366D02*
X147183333Y-107984700D01*
X147183333Y-107984700D02*
X146916666Y-107984700D01*
X147583333Y-107684700D02*
X147616666Y-107651366D01*
X147616666Y-107651366D02*
X147683333Y-107618033D01*
X147683333Y-107618033D02*
X147850000Y-107618033D01*
X147850000Y-107618033D02*
X147916666Y-107651366D01*
X147916666Y-107651366D02*
X147950000Y-107684700D01*
X147950000Y-107684700D02*
X147983333Y-107751366D01*
X147983333Y-107751366D02*
X147983333Y-107818033D01*
X147983333Y-107818033D02*
X147950000Y-107918033D01*
X147950000Y-107918033D02*
X147550000Y-108318033D01*
X147550000Y-108318033D02*
X147983333Y-108318033D01*
X148216667Y-107618033D02*
X148650000Y-107618033D01*
X148650000Y-107618033D02*
X148416667Y-107884700D01*
X148416667Y-107884700D02*
X148516667Y-107884700D01*
X148516667Y-107884700D02*
X148583333Y-107918033D01*
X148583333Y-107918033D02*
X148616667Y-107951366D01*
X148616667Y-107951366D02*
X148650000Y-108018033D01*
X148650000Y-108018033D02*
X148650000Y-108184700D01*
X148650000Y-108184700D02*
X148616667Y-108251366D01*
X148616667Y-108251366D02*
X148583333Y-108284700D01*
X148583333Y-108284700D02*
X148516667Y-108318033D01*
X148516667Y-108318033D02*
X148316667Y-108318033D01*
X148316667Y-108318033D02*
X148250000Y-108284700D01*
X148250000Y-108284700D02*
X148216667Y-108251366D01*
X113466666Y-108318033D02*
X113466666Y-107618033D01*
X113799999Y-108318033D02*
X113799999Y-107618033D01*
X113799999Y-107618033D02*
X114199999Y-108318033D01*
X114199999Y-108318033D02*
X114199999Y-107618033D01*
X114899999Y-108318033D02*
X114499999Y-108318033D01*
X114699999Y-108318033D02*
X114699999Y-107618033D01*
X114699999Y-107618033D02*
X114633332Y-107718033D01*
X114633332Y-107718033D02*
X114566666Y-107784700D01*
X114566666Y-107784700D02*
X114499999Y-107818033D01*
X115533333Y-107618033D02*
X115199999Y-107618033D01*
X115199999Y-107618033D02*
X115166666Y-107951366D01*
X115166666Y-107951366D02*
X115199999Y-107918033D01*
X115199999Y-107918033D02*
X115266666Y-107884700D01*
X115266666Y-107884700D02*
X115433333Y-107884700D01*
X115433333Y-107884700D02*
X115499999Y-107918033D01*
X115499999Y-107918033D02*
X115533333Y-107951366D01*
X115533333Y-107951366D02*
X115566666Y-108018033D01*
X115566666Y-108018033D02*
X115566666Y-108184700D01*
X115566666Y-108184700D02*
X115533333Y-108251366D01*
X115533333Y-108251366D02*
X115499999Y-108284700D01*
X115499999Y-108284700D02*
X115433333Y-108318033D01*
X115433333Y-108318033D02*
X115266666Y-108318033D01*
X115266666Y-108318033D02*
X115199999Y-108284700D01*
X115199999Y-108284700D02*
X115166666Y-108251366D01*
X138283333Y-107618033D02*
X138683333Y-107618033D01*
X138483333Y-108318033D02*
X138483333Y-107618033D01*
X138916666Y-108318033D02*
X138916666Y-107618033D01*
X138916666Y-107618033D02*
X139183333Y-107618033D01*
X139183333Y-107618033D02*
X139250000Y-107651366D01*
X139250000Y-107651366D02*
X139283333Y-107684700D01*
X139283333Y-107684700D02*
X139316666Y-107751366D01*
X139316666Y-107751366D02*
X139316666Y-107851366D01*
X139316666Y-107851366D02*
X139283333Y-107918033D01*
X139283333Y-107918033D02*
X139250000Y-107951366D01*
X139250000Y-107951366D02*
X139183333Y-107984700D01*
X139183333Y-107984700D02*
X138916666Y-107984700D01*
X139583333Y-107684700D02*
X139616666Y-107651366D01*
X139616666Y-107651366D02*
X139683333Y-107618033D01*
X139683333Y-107618033D02*
X139850000Y-107618033D01*
X139850000Y-107618033D02*
X139916666Y-107651366D01*
X139916666Y-107651366D02*
X139950000Y-107684700D01*
X139950000Y-107684700D02*
X139983333Y-107751366D01*
X139983333Y-107751366D02*
X139983333Y-107818033D01*
X139983333Y-107818033D02*
X139950000Y-107918033D01*
X139950000Y-107918033D02*
X139550000Y-108318033D01*
X139550000Y-108318033D02*
X139983333Y-108318033D01*
X140650000Y-108318033D02*
X140250000Y-108318033D01*
X140450000Y-108318033D02*
X140450000Y-107618033D01*
X140450000Y-107618033D02*
X140383333Y-107718033D01*
X140383333Y-107718033D02*
X140316667Y-107784700D01*
X140316667Y-107784700D02*
X140250000Y-107818033D01*
X179283333Y-107618033D02*
X179683333Y-107618033D01*
X179483333Y-108318033D02*
X179483333Y-107618033D01*
X179916666Y-108318033D02*
X179916666Y-107618033D01*
X179916666Y-107618033D02*
X180183333Y-107618033D01*
X180183333Y-107618033D02*
X180250000Y-107651366D01*
X180250000Y-107651366D02*
X180283333Y-107684700D01*
X180283333Y-107684700D02*
X180316666Y-107751366D01*
X180316666Y-107751366D02*
X180316666Y-107851366D01*
X180316666Y-107851366D02*
X180283333Y-107918033D01*
X180283333Y-107918033D02*
X180250000Y-107951366D01*
X180250000Y-107951366D02*
X180183333Y-107984700D01*
X180183333Y-107984700D02*
X179916666Y-107984700D01*
X180550000Y-107618033D02*
X180983333Y-107618033D01*
X180983333Y-107618033D02*
X180750000Y-107884700D01*
X180750000Y-107884700D02*
X180850000Y-107884700D01*
X180850000Y-107884700D02*
X180916666Y-107918033D01*
X180916666Y-107918033D02*
X180950000Y-107951366D01*
X180950000Y-107951366D02*
X180983333Y-108018033D01*
X180983333Y-108018033D02*
X180983333Y-108184700D01*
X180983333Y-108184700D02*
X180950000Y-108251366D01*
X180950000Y-108251366D02*
X180916666Y-108284700D01*
X180916666Y-108284700D02*
X180850000Y-108318033D01*
X180850000Y-108318033D02*
X180650000Y-108318033D01*
X180650000Y-108318033D02*
X180583333Y-108284700D01*
X180583333Y-108284700D02*
X180550000Y-108251366D01*
X181650000Y-108318033D02*
X181250000Y-108318033D01*
X181450000Y-108318033D02*
X181450000Y-107618033D01*
X181450000Y-107618033D02*
X181383333Y-107718033D01*
X181383333Y-107718033D02*
X181316667Y-107784700D01*
X181316667Y-107784700D02*
X181250000Y-107818033D01*
X142283333Y-107618033D02*
X142683333Y-107618033D01*
X142483333Y-108318033D02*
X142483333Y-107618033D01*
X142916666Y-108318033D02*
X142916666Y-107618033D01*
X142916666Y-107618033D02*
X143183333Y-107618033D01*
X143183333Y-107618033D02*
X143250000Y-107651366D01*
X143250000Y-107651366D02*
X143283333Y-107684700D01*
X143283333Y-107684700D02*
X143316666Y-107751366D01*
X143316666Y-107751366D02*
X143316666Y-107851366D01*
X143316666Y-107851366D02*
X143283333Y-107918033D01*
X143283333Y-107918033D02*
X143250000Y-107951366D01*
X143250000Y-107951366D02*
X143183333Y-107984700D01*
X143183333Y-107984700D02*
X142916666Y-107984700D01*
X143583333Y-107684700D02*
X143616666Y-107651366D01*
X143616666Y-107651366D02*
X143683333Y-107618033D01*
X143683333Y-107618033D02*
X143850000Y-107618033D01*
X143850000Y-107618033D02*
X143916666Y-107651366D01*
X143916666Y-107651366D02*
X143950000Y-107684700D01*
X143950000Y-107684700D02*
X143983333Y-107751366D01*
X143983333Y-107751366D02*
X143983333Y-107818033D01*
X143983333Y-107818033D02*
X143950000Y-107918033D01*
X143950000Y-107918033D02*
X143550000Y-108318033D01*
X143550000Y-108318033D02*
X143983333Y-108318033D01*
X144250000Y-107684700D02*
X144283333Y-107651366D01*
X144283333Y-107651366D02*
X144350000Y-107618033D01*
X144350000Y-107618033D02*
X144516667Y-107618033D01*
X144516667Y-107618033D02*
X144583333Y-107651366D01*
X144583333Y-107651366D02*
X144616667Y-107684700D01*
X144616667Y-107684700D02*
X144650000Y-107751366D01*
X144650000Y-107751366D02*
X144650000Y-107818033D01*
X144650000Y-107818033D02*
X144616667Y-107918033D01*
X144616667Y-107918033D02*
X144216667Y-108318033D01*
X144216667Y-108318033D02*
X144650000Y-108318033D01*
X163283333Y-107618033D02*
X163683333Y-107618033D01*
X163483333Y-108318033D02*
X163483333Y-107618033D01*
X163916666Y-108318033D02*
X163916666Y-107618033D01*
X163916666Y-107618033D02*
X164183333Y-107618033D01*
X164183333Y-107618033D02*
X164250000Y-107651366D01*
X164250000Y-107651366D02*
X164283333Y-107684700D01*
X164283333Y-107684700D02*
X164316666Y-107751366D01*
X164316666Y-107751366D02*
X164316666Y-107851366D01*
X164316666Y-107851366D02*
X164283333Y-107918033D01*
X164283333Y-107918033D02*
X164250000Y-107951366D01*
X164250000Y-107951366D02*
X164183333Y-107984700D01*
X164183333Y-107984700D02*
X163916666Y-107984700D01*
X164583333Y-107684700D02*
X164616666Y-107651366D01*
X164616666Y-107651366D02*
X164683333Y-107618033D01*
X164683333Y-107618033D02*
X164850000Y-107618033D01*
X164850000Y-107618033D02*
X164916666Y-107651366D01*
X164916666Y-107651366D02*
X164950000Y-107684700D01*
X164950000Y-107684700D02*
X164983333Y-107751366D01*
X164983333Y-107751366D02*
X164983333Y-107818033D01*
X164983333Y-107818033D02*
X164950000Y-107918033D01*
X164950000Y-107918033D02*
X164550000Y-108318033D01*
X164550000Y-108318033D02*
X164983333Y-108318033D01*
X165216667Y-107618033D02*
X165683333Y-107618033D01*
X165683333Y-107618033D02*
X165383333Y-108318033D01*
X80760000Y-108318033D02*
X80760000Y-107618033D01*
X81093333Y-108318033D02*
X81093333Y-107618033D01*
X81093333Y-107618033D02*
X81493333Y-108318033D01*
X81493333Y-108318033D02*
X81493333Y-107618033D01*
X81760000Y-107618033D02*
X82226666Y-107618033D01*
X82226666Y-107618033D02*
X81926666Y-108318033D01*
X122283333Y-107618033D02*
X122683333Y-107618033D01*
X122483333Y-108318033D02*
X122483333Y-107618033D01*
X122916666Y-108318033D02*
X122916666Y-107618033D01*
X122916666Y-107618033D02*
X123183333Y-107618033D01*
X123183333Y-107618033D02*
X123250000Y-107651366D01*
X123250000Y-107651366D02*
X123283333Y-107684700D01*
X123283333Y-107684700D02*
X123316666Y-107751366D01*
X123316666Y-107751366D02*
X123316666Y-107851366D01*
X123316666Y-107851366D02*
X123283333Y-107918033D01*
X123283333Y-107918033D02*
X123250000Y-107951366D01*
X123250000Y-107951366D02*
X123183333Y-107984700D01*
X123183333Y-107984700D02*
X122916666Y-107984700D01*
X123983333Y-108318033D02*
X123583333Y-108318033D01*
X123783333Y-108318033D02*
X123783333Y-107618033D01*
X123783333Y-107618033D02*
X123716666Y-107718033D01*
X123716666Y-107718033D02*
X123650000Y-107784700D01*
X123650000Y-107784700D02*
X123583333Y-107818033D01*
X124216667Y-107618033D02*
X124683333Y-107618033D01*
X124683333Y-107618033D02*
X124383333Y-108318033D01*
X150283333Y-107618033D02*
X150683333Y-107618033D01*
X150483333Y-108318033D02*
X150483333Y-107618033D01*
X150916666Y-108318033D02*
X150916666Y-107618033D01*
X150916666Y-107618033D02*
X151183333Y-107618033D01*
X151183333Y-107618033D02*
X151250000Y-107651366D01*
X151250000Y-107651366D02*
X151283333Y-107684700D01*
X151283333Y-107684700D02*
X151316666Y-107751366D01*
X151316666Y-107751366D02*
X151316666Y-107851366D01*
X151316666Y-107851366D02*
X151283333Y-107918033D01*
X151283333Y-107918033D02*
X151250000Y-107951366D01*
X151250000Y-107951366D02*
X151183333Y-107984700D01*
X151183333Y-107984700D02*
X150916666Y-107984700D01*
X151583333Y-107684700D02*
X151616666Y-107651366D01*
X151616666Y-107651366D02*
X151683333Y-107618033D01*
X151683333Y-107618033D02*
X151850000Y-107618033D01*
X151850000Y-107618033D02*
X151916666Y-107651366D01*
X151916666Y-107651366D02*
X151950000Y-107684700D01*
X151950000Y-107684700D02*
X151983333Y-107751366D01*
X151983333Y-107751366D02*
X151983333Y-107818033D01*
X151983333Y-107818033D02*
X151950000Y-107918033D01*
X151950000Y-107918033D02*
X151550000Y-108318033D01*
X151550000Y-108318033D02*
X151983333Y-108318033D01*
X152583333Y-107851366D02*
X152583333Y-108318033D01*
X152416667Y-107584700D02*
X152250000Y-108084700D01*
X152250000Y-108084700D02*
X152683333Y-108084700D01*
X171283333Y-107618033D02*
X171683333Y-107618033D01*
X171483333Y-108318033D02*
X171483333Y-107618033D01*
X171916666Y-108318033D02*
X171916666Y-107618033D01*
X171916666Y-107618033D02*
X172183333Y-107618033D01*
X172183333Y-107618033D02*
X172250000Y-107651366D01*
X172250000Y-107651366D02*
X172283333Y-107684700D01*
X172283333Y-107684700D02*
X172316666Y-107751366D01*
X172316666Y-107751366D02*
X172316666Y-107851366D01*
X172316666Y-107851366D02*
X172283333Y-107918033D01*
X172283333Y-107918033D02*
X172250000Y-107951366D01*
X172250000Y-107951366D02*
X172183333Y-107984700D01*
X172183333Y-107984700D02*
X171916666Y-107984700D01*
X172583333Y-107684700D02*
X172616666Y-107651366D01*
X172616666Y-107651366D02*
X172683333Y-107618033D01*
X172683333Y-107618033D02*
X172850000Y-107618033D01*
X172850000Y-107618033D02*
X172916666Y-107651366D01*
X172916666Y-107651366D02*
X172950000Y-107684700D01*
X172950000Y-107684700D02*
X172983333Y-107751366D01*
X172983333Y-107751366D02*
X172983333Y-107818033D01*
X172983333Y-107818033D02*
X172950000Y-107918033D01*
X172950000Y-107918033D02*
X172550000Y-108318033D01*
X172550000Y-108318033D02*
X172983333Y-108318033D01*
X173316667Y-108318033D02*
X173450000Y-108318033D01*
X173450000Y-108318033D02*
X173516667Y-108284700D01*
X173516667Y-108284700D02*
X173550000Y-108251366D01*
X173550000Y-108251366D02*
X173616667Y-108151366D01*
X173616667Y-108151366D02*
X173650000Y-108018033D01*
X173650000Y-108018033D02*
X173650000Y-107751366D01*
X173650000Y-107751366D02*
X173616667Y-107684700D01*
X173616667Y-107684700D02*
X173583333Y-107651366D01*
X173583333Y-107651366D02*
X173516667Y-107618033D01*
X173516667Y-107618033D02*
X173383333Y-107618033D01*
X173383333Y-107618033D02*
X173316667Y-107651366D01*
X173316667Y-107651366D02*
X173283333Y-107684700D01*
X173283333Y-107684700D02*
X173250000Y-107751366D01*
X173250000Y-107751366D02*
X173250000Y-107918033D01*
X173250000Y-107918033D02*
X173283333Y-107984700D01*
X173283333Y-107984700D02*
X173316667Y-108018033D01*
X173316667Y-108018033D02*
X173383333Y-108051366D01*
X173383333Y-108051366D02*
X173516667Y-108051366D01*
X173516667Y-108051366D02*
X173583333Y-108018033D01*
X173583333Y-108018033D02*
X173616667Y-107984700D01*
X173616667Y-107984700D02*
X173650000Y-107918033D01*
X159283333Y-107618033D02*
X159683333Y-107618033D01*
X159483333Y-108318033D02*
X159483333Y-107618033D01*
X159916666Y-108318033D02*
X159916666Y-107618033D01*
X159916666Y-107618033D02*
X160183333Y-107618033D01*
X160183333Y-107618033D02*
X160250000Y-107651366D01*
X160250000Y-107651366D02*
X160283333Y-107684700D01*
X160283333Y-107684700D02*
X160316666Y-107751366D01*
X160316666Y-107751366D02*
X160316666Y-107851366D01*
X160316666Y-107851366D02*
X160283333Y-107918033D01*
X160283333Y-107918033D02*
X160250000Y-107951366D01*
X160250000Y-107951366D02*
X160183333Y-107984700D01*
X160183333Y-107984700D02*
X159916666Y-107984700D01*
X160583333Y-107684700D02*
X160616666Y-107651366D01*
X160616666Y-107651366D02*
X160683333Y-107618033D01*
X160683333Y-107618033D02*
X160850000Y-107618033D01*
X160850000Y-107618033D02*
X160916666Y-107651366D01*
X160916666Y-107651366D02*
X160950000Y-107684700D01*
X160950000Y-107684700D02*
X160983333Y-107751366D01*
X160983333Y-107751366D02*
X160983333Y-107818033D01*
X160983333Y-107818033D02*
X160950000Y-107918033D01*
X160950000Y-107918033D02*
X160550000Y-108318033D01*
X160550000Y-108318033D02*
X160983333Y-108318033D01*
X161583333Y-107618033D02*
X161450000Y-107618033D01*
X161450000Y-107618033D02*
X161383333Y-107651366D01*
X161383333Y-107651366D02*
X161350000Y-107684700D01*
X161350000Y-107684700D02*
X161283333Y-107784700D01*
X161283333Y-107784700D02*
X161250000Y-107918033D01*
X161250000Y-107918033D02*
X161250000Y-108184700D01*
X161250000Y-108184700D02*
X161283333Y-108251366D01*
X161283333Y-108251366D02*
X161316667Y-108284700D01*
X161316667Y-108284700D02*
X161383333Y-108318033D01*
X161383333Y-108318033D02*
X161516667Y-108318033D01*
X161516667Y-108318033D02*
X161583333Y-108284700D01*
X161583333Y-108284700D02*
X161616667Y-108251366D01*
X161616667Y-108251366D02*
X161650000Y-108184700D01*
X161650000Y-108184700D02*
X161650000Y-108018033D01*
X161650000Y-108018033D02*
X161616667Y-107951366D01*
X161616667Y-107951366D02*
X161583333Y-107918033D01*
X161583333Y-107918033D02*
X161516667Y-107884700D01*
X161516667Y-107884700D02*
X161383333Y-107884700D01*
X161383333Y-107884700D02*
X161316667Y-107918033D01*
X161316667Y-107918033D02*
X161283333Y-107951366D01*
X161283333Y-107951366D02*
X161250000Y-108018033D01*
X149324819Y-94071904D02*
X149324819Y-93405238D01*
X149324819Y-93405238D02*
X150324819Y-93833809D01*
X149658152Y-92595714D02*
X150324819Y-92595714D01*
X149277200Y-92833809D02*
X149991485Y-93071904D01*
X149991485Y-93071904D02*
X149991485Y-92452857D01*
X150324819Y-92071904D02*
X149324819Y-92071904D01*
X149801009Y-92071904D02*
X149801009Y-91500476D01*
X150324819Y-91500476D02*
X149324819Y-91500476D01*
X150229580Y-90452857D02*
X150277200Y-90500476D01*
X150277200Y-90500476D02*
X150324819Y-90643333D01*
X150324819Y-90643333D02*
X150324819Y-90738571D01*
X150324819Y-90738571D02*
X150277200Y-90881428D01*
X150277200Y-90881428D02*
X150181961Y-90976666D01*
X150181961Y-90976666D02*
X150086723Y-91024285D01*
X150086723Y-91024285D02*
X149896247Y-91071904D01*
X149896247Y-91071904D02*
X149753390Y-91071904D01*
X149753390Y-91071904D02*
X149562914Y-91024285D01*
X149562914Y-91024285D02*
X149467676Y-90976666D01*
X149467676Y-90976666D02*
X149372438Y-90881428D01*
X149372438Y-90881428D02*
X149324819Y-90738571D01*
X149324819Y-90738571D02*
X149324819Y-90643333D01*
X149324819Y-90643333D02*
X149372438Y-90500476D01*
X149372438Y-90500476D02*
X149420057Y-90452857D01*
X149324819Y-89548095D02*
X149324819Y-90024285D01*
X149324819Y-90024285D02*
X149801009Y-90071904D01*
X149801009Y-90071904D02*
X149753390Y-90024285D01*
X149753390Y-90024285D02*
X149705771Y-89929047D01*
X149705771Y-89929047D02*
X149705771Y-89690952D01*
X149705771Y-89690952D02*
X149753390Y-89595714D01*
X149753390Y-89595714D02*
X149801009Y-89548095D01*
X149801009Y-89548095D02*
X149896247Y-89500476D01*
X149896247Y-89500476D02*
X150134342Y-89500476D01*
X150134342Y-89500476D02*
X150229580Y-89548095D01*
X150229580Y-89548095D02*
X150277200Y-89595714D01*
X150277200Y-89595714D02*
X150324819Y-89690952D01*
X150324819Y-89690952D02*
X150324819Y-89929047D01*
X150324819Y-89929047D02*
X150277200Y-90024285D01*
X150277200Y-90024285D02*
X150229580Y-90071904D01*
X150324819Y-89024285D02*
X150324819Y-88833809D01*
X150324819Y-88833809D02*
X150277200Y-88738571D01*
X150277200Y-88738571D02*
X150229580Y-88690952D01*
X150229580Y-88690952D02*
X150086723Y-88595714D01*
X150086723Y-88595714D02*
X149896247Y-88548095D01*
X149896247Y-88548095D02*
X149515295Y-88548095D01*
X149515295Y-88548095D02*
X149420057Y-88595714D01*
X149420057Y-88595714D02*
X149372438Y-88643333D01*
X149372438Y-88643333D02*
X149324819Y-88738571D01*
X149324819Y-88738571D02*
X149324819Y-88929047D01*
X149324819Y-88929047D02*
X149372438Y-89024285D01*
X149372438Y-89024285D02*
X149420057Y-89071904D01*
X149420057Y-89071904D02*
X149515295Y-89119523D01*
X149515295Y-89119523D02*
X149753390Y-89119523D01*
X149753390Y-89119523D02*
X149848628Y-89071904D01*
X149848628Y-89071904D02*
X149896247Y-89024285D01*
X149896247Y-89024285D02*
X149943866Y-88929047D01*
X149943866Y-88929047D02*
X149943866Y-88738571D01*
X149943866Y-88738571D02*
X149896247Y-88643333D01*
X149896247Y-88643333D02*
X149848628Y-88595714D01*
X149848628Y-88595714D02*
X149753390Y-88548095D01*
X149324819Y-87643333D02*
X149324819Y-88119523D01*
X149324819Y-88119523D02*
X149801009Y-88167142D01*
X149801009Y-88167142D02*
X149753390Y-88119523D01*
X149753390Y-88119523D02*
X149705771Y-88024285D01*
X149705771Y-88024285D02*
X149705771Y-87786190D01*
X149705771Y-87786190D02*
X149753390Y-87690952D01*
X149753390Y-87690952D02*
X149801009Y-87643333D01*
X149801009Y-87643333D02*
X149896247Y-87595714D01*
X149896247Y-87595714D02*
X150134342Y-87595714D01*
X150134342Y-87595714D02*
X150229580Y-87643333D01*
X150229580Y-87643333D02*
X150277200Y-87690952D01*
X150277200Y-87690952D02*
X150324819Y-87786190D01*
X150324819Y-87786190D02*
X150324819Y-88024285D01*
X150324819Y-88024285D02*
X150277200Y-88119523D01*
X150277200Y-88119523D02*
X150229580Y-88167142D01*
X93466666Y-108318033D02*
X93466666Y-107618033D01*
X93799999Y-108318033D02*
X93799999Y-107618033D01*
X93799999Y-107618033D02*
X94199999Y-108318033D01*
X94199999Y-108318033D02*
X94199999Y-107618033D01*
X94899999Y-108318033D02*
X94499999Y-108318033D01*
X94699999Y-108318033D02*
X94699999Y-107618033D01*
X94699999Y-107618033D02*
X94633332Y-107718033D01*
X94633332Y-107718033D02*
X94566666Y-107784700D01*
X94566666Y-107784700D02*
X94499999Y-107818033D01*
X95333333Y-107618033D02*
X95399999Y-107618033D01*
X95399999Y-107618033D02*
X95466666Y-107651366D01*
X95466666Y-107651366D02*
X95499999Y-107684700D01*
X95499999Y-107684700D02*
X95533333Y-107751366D01*
X95533333Y-107751366D02*
X95566666Y-107884700D01*
X95566666Y-107884700D02*
X95566666Y-108051366D01*
X95566666Y-108051366D02*
X95533333Y-108184700D01*
X95533333Y-108184700D02*
X95499999Y-108251366D01*
X95499999Y-108251366D02*
X95466666Y-108284700D01*
X95466666Y-108284700D02*
X95399999Y-108318033D01*
X95399999Y-108318033D02*
X95333333Y-108318033D01*
X95333333Y-108318033D02*
X95266666Y-108284700D01*
X95266666Y-108284700D02*
X95233333Y-108251366D01*
X95233333Y-108251366D02*
X95199999Y-108184700D01*
X95199999Y-108184700D02*
X95166666Y-108051366D01*
X95166666Y-108051366D02*
X95166666Y-107884700D01*
X95166666Y-107884700D02*
X95199999Y-107751366D01*
X95199999Y-107751366D02*
X95233333Y-107684700D01*
X95233333Y-107684700D02*
X95266666Y-107651366D01*
X95266666Y-107651366D02*
X95333333Y-107618033D01*
X60760000Y-108316033D02*
X60760000Y-107616033D01*
X61093333Y-108316033D02*
X61093333Y-107616033D01*
X61093333Y-107616033D02*
X61493333Y-108316033D01*
X61493333Y-108316033D02*
X61493333Y-107616033D01*
X61793333Y-107682700D02*
X61826666Y-107649366D01*
X61826666Y-107649366D02*
X61893333Y-107616033D01*
X61893333Y-107616033D02*
X62060000Y-107616033D01*
X62060000Y-107616033D02*
X62126666Y-107649366D01*
X62126666Y-107649366D02*
X62160000Y-107682700D01*
X62160000Y-107682700D02*
X62193333Y-107749366D01*
X62193333Y-107749366D02*
X62193333Y-107816033D01*
X62193333Y-107816033D02*
X62160000Y-107916033D01*
X62160000Y-107916033D02*
X61760000Y-108316033D01*
X61760000Y-108316033D02*
X62193333Y-108316033D01*
X105466666Y-108318033D02*
X105466666Y-107618033D01*
X105799999Y-108318033D02*
X105799999Y-107618033D01*
X105799999Y-107618033D02*
X106199999Y-108318033D01*
X106199999Y-108318033D02*
X106199999Y-107618033D01*
X106899999Y-108318033D02*
X106499999Y-108318033D01*
X106699999Y-108318033D02*
X106699999Y-107618033D01*
X106699999Y-107618033D02*
X106633332Y-107718033D01*
X106633332Y-107718033D02*
X106566666Y-107784700D01*
X106566666Y-107784700D02*
X106499999Y-107818033D01*
X107133333Y-107618033D02*
X107566666Y-107618033D01*
X107566666Y-107618033D02*
X107333333Y-107884700D01*
X107333333Y-107884700D02*
X107433333Y-107884700D01*
X107433333Y-107884700D02*
X107499999Y-107918033D01*
X107499999Y-107918033D02*
X107533333Y-107951366D01*
X107533333Y-107951366D02*
X107566666Y-108018033D01*
X107566666Y-108018033D02*
X107566666Y-108184700D01*
X107566666Y-108184700D02*
X107533333Y-108251366D01*
X107533333Y-108251366D02*
X107499999Y-108284700D01*
X107499999Y-108284700D02*
X107433333Y-108318033D01*
X107433333Y-108318033D02*
X107233333Y-108318033D01*
X107233333Y-108318033D02*
X107166666Y-108284700D01*
X107166666Y-108284700D02*
X107133333Y-108251366D01*
X134283333Y-107618033D02*
X134683333Y-107618033D01*
X134483333Y-108318033D02*
X134483333Y-107618033D01*
X134916666Y-108318033D02*
X134916666Y-107618033D01*
X134916666Y-107618033D02*
X135183333Y-107618033D01*
X135183333Y-107618033D02*
X135250000Y-107651366D01*
X135250000Y-107651366D02*
X135283333Y-107684700D01*
X135283333Y-107684700D02*
X135316666Y-107751366D01*
X135316666Y-107751366D02*
X135316666Y-107851366D01*
X135316666Y-107851366D02*
X135283333Y-107918033D01*
X135283333Y-107918033D02*
X135250000Y-107951366D01*
X135250000Y-107951366D02*
X135183333Y-107984700D01*
X135183333Y-107984700D02*
X134916666Y-107984700D01*
X135583333Y-107684700D02*
X135616666Y-107651366D01*
X135616666Y-107651366D02*
X135683333Y-107618033D01*
X135683333Y-107618033D02*
X135850000Y-107618033D01*
X135850000Y-107618033D02*
X135916666Y-107651366D01*
X135916666Y-107651366D02*
X135950000Y-107684700D01*
X135950000Y-107684700D02*
X135983333Y-107751366D01*
X135983333Y-107751366D02*
X135983333Y-107818033D01*
X135983333Y-107818033D02*
X135950000Y-107918033D01*
X135950000Y-107918033D02*
X135550000Y-108318033D01*
X135550000Y-108318033D02*
X135983333Y-108318033D01*
X136416667Y-107618033D02*
X136483333Y-107618033D01*
X136483333Y-107618033D02*
X136550000Y-107651366D01*
X136550000Y-107651366D02*
X136583333Y-107684700D01*
X136583333Y-107684700D02*
X136616667Y-107751366D01*
X136616667Y-107751366D02*
X136650000Y-107884700D01*
X136650000Y-107884700D02*
X136650000Y-108051366D01*
X136650000Y-108051366D02*
X136616667Y-108184700D01*
X136616667Y-108184700D02*
X136583333Y-108251366D01*
X136583333Y-108251366D02*
X136550000Y-108284700D01*
X136550000Y-108284700D02*
X136483333Y-108318033D01*
X136483333Y-108318033D02*
X136416667Y-108318033D01*
X136416667Y-108318033D02*
X136350000Y-108284700D01*
X136350000Y-108284700D02*
X136316667Y-108251366D01*
X136316667Y-108251366D02*
X136283333Y-108184700D01*
X136283333Y-108184700D02*
X136250000Y-108051366D01*
X136250000Y-108051366D02*
X136250000Y-107884700D01*
X136250000Y-107884700D02*
X136283333Y-107751366D01*
X136283333Y-107751366D02*
X136316667Y-107684700D01*
X136316667Y-107684700D02*
X136350000Y-107651366D01*
X136350000Y-107651366D02*
X136416667Y-107618033D01*
X101466666Y-108318033D02*
X101466666Y-107618033D01*
X101799999Y-108318033D02*
X101799999Y-107618033D01*
X101799999Y-107618033D02*
X102199999Y-108318033D01*
X102199999Y-108318033D02*
X102199999Y-107618033D01*
X102899999Y-108318033D02*
X102499999Y-108318033D01*
X102699999Y-108318033D02*
X102699999Y-107618033D01*
X102699999Y-107618033D02*
X102633332Y-107718033D01*
X102633332Y-107718033D02*
X102566666Y-107784700D01*
X102566666Y-107784700D02*
X102499999Y-107818033D01*
X103166666Y-107684700D02*
X103199999Y-107651366D01*
X103199999Y-107651366D02*
X103266666Y-107618033D01*
X103266666Y-107618033D02*
X103433333Y-107618033D01*
X103433333Y-107618033D02*
X103499999Y-107651366D01*
X103499999Y-107651366D02*
X103533333Y-107684700D01*
X103533333Y-107684700D02*
X103566666Y-107751366D01*
X103566666Y-107751366D02*
X103566666Y-107818033D01*
X103566666Y-107818033D02*
X103533333Y-107918033D01*
X103533333Y-107918033D02*
X103133333Y-108318033D01*
X103133333Y-108318033D02*
X103566666Y-108318033D01*
X181864819Y-94191904D02*
X181864819Y-93525238D01*
X181864819Y-93525238D02*
X182864819Y-93953809D01*
X182198152Y-92715714D02*
X182864819Y-92715714D01*
X181817200Y-92953809D02*
X182531485Y-93191904D01*
X182531485Y-93191904D02*
X182531485Y-92572857D01*
X182864819Y-92191904D02*
X181864819Y-92191904D01*
X182341009Y-92191904D02*
X182341009Y-91620476D01*
X182864819Y-91620476D02*
X181864819Y-91620476D01*
X182769580Y-90572857D02*
X182817200Y-90620476D01*
X182817200Y-90620476D02*
X182864819Y-90763333D01*
X182864819Y-90763333D02*
X182864819Y-90858571D01*
X182864819Y-90858571D02*
X182817200Y-91001428D01*
X182817200Y-91001428D02*
X182721961Y-91096666D01*
X182721961Y-91096666D02*
X182626723Y-91144285D01*
X182626723Y-91144285D02*
X182436247Y-91191904D01*
X182436247Y-91191904D02*
X182293390Y-91191904D01*
X182293390Y-91191904D02*
X182102914Y-91144285D01*
X182102914Y-91144285D02*
X182007676Y-91096666D01*
X182007676Y-91096666D02*
X181912438Y-91001428D01*
X181912438Y-91001428D02*
X181864819Y-90858571D01*
X181864819Y-90858571D02*
X181864819Y-90763333D01*
X181864819Y-90763333D02*
X181912438Y-90620476D01*
X181912438Y-90620476D02*
X181960057Y-90572857D01*
X181864819Y-89668095D02*
X181864819Y-90144285D01*
X181864819Y-90144285D02*
X182341009Y-90191904D01*
X182341009Y-90191904D02*
X182293390Y-90144285D01*
X182293390Y-90144285D02*
X182245771Y-90049047D01*
X182245771Y-90049047D02*
X182245771Y-89810952D01*
X182245771Y-89810952D02*
X182293390Y-89715714D01*
X182293390Y-89715714D02*
X182341009Y-89668095D01*
X182341009Y-89668095D02*
X182436247Y-89620476D01*
X182436247Y-89620476D02*
X182674342Y-89620476D01*
X182674342Y-89620476D02*
X182769580Y-89668095D01*
X182769580Y-89668095D02*
X182817200Y-89715714D01*
X182817200Y-89715714D02*
X182864819Y-89810952D01*
X182864819Y-89810952D02*
X182864819Y-90049047D01*
X182864819Y-90049047D02*
X182817200Y-90144285D01*
X182817200Y-90144285D02*
X182769580Y-90191904D01*
X182864819Y-89144285D02*
X182864819Y-88953809D01*
X182864819Y-88953809D02*
X182817200Y-88858571D01*
X182817200Y-88858571D02*
X182769580Y-88810952D01*
X182769580Y-88810952D02*
X182626723Y-88715714D01*
X182626723Y-88715714D02*
X182436247Y-88668095D01*
X182436247Y-88668095D02*
X182055295Y-88668095D01*
X182055295Y-88668095D02*
X181960057Y-88715714D01*
X181960057Y-88715714D02*
X181912438Y-88763333D01*
X181912438Y-88763333D02*
X181864819Y-88858571D01*
X181864819Y-88858571D02*
X181864819Y-89049047D01*
X181864819Y-89049047D02*
X181912438Y-89144285D01*
X181912438Y-89144285D02*
X181960057Y-89191904D01*
X181960057Y-89191904D02*
X182055295Y-89239523D01*
X182055295Y-89239523D02*
X182293390Y-89239523D01*
X182293390Y-89239523D02*
X182388628Y-89191904D01*
X182388628Y-89191904D02*
X182436247Y-89144285D01*
X182436247Y-89144285D02*
X182483866Y-89049047D01*
X182483866Y-89049047D02*
X182483866Y-88858571D01*
X182483866Y-88858571D02*
X182436247Y-88763333D01*
X182436247Y-88763333D02*
X182388628Y-88715714D01*
X182388628Y-88715714D02*
X182293390Y-88668095D01*
X181864819Y-87763333D02*
X181864819Y-88239523D01*
X181864819Y-88239523D02*
X182341009Y-88287142D01*
X182341009Y-88287142D02*
X182293390Y-88239523D01*
X182293390Y-88239523D02*
X182245771Y-88144285D01*
X182245771Y-88144285D02*
X182245771Y-87906190D01*
X182245771Y-87906190D02*
X182293390Y-87810952D01*
X182293390Y-87810952D02*
X182341009Y-87763333D01*
X182341009Y-87763333D02*
X182436247Y-87715714D01*
X182436247Y-87715714D02*
X182674342Y-87715714D01*
X182674342Y-87715714D02*
X182769580Y-87763333D01*
X182769580Y-87763333D02*
X182817200Y-87810952D01*
X182817200Y-87810952D02*
X182864819Y-87906190D01*
X182864819Y-87906190D02*
X182864819Y-88144285D01*
X182864819Y-88144285D02*
X182817200Y-88239523D01*
X182817200Y-88239523D02*
X182769580Y-88287142D01*
D14*
%TO.C,U1*%
X61930000Y-89810000D02*
G75*
G02*
X61930000Y-91810000I0J-1000000D01*
G01*
X82370000Y-93460000D02*
X82370000Y-88160000D01*
X82370000Y-88160000D02*
X61930000Y-88160000D01*
X61930000Y-93460000D02*
X82370000Y-93460000D01*
X61930000Y-91810000D02*
X61930000Y-93460000D01*
X61930000Y-88160000D02*
X61930000Y-89810000D01*
%TO.C,C4*%
X58880000Y-93230000D02*
X58880000Y-88390000D01*
X61120000Y-93230000D02*
X58880000Y-93230000D01*
X58880000Y-88390000D02*
X61120000Y-88390000D01*
X61120000Y-88390000D02*
X61120000Y-93230000D01*
%TO.C,C3*%
X90880000Y-92920000D02*
X90880000Y-88080000D01*
X93120000Y-92920000D02*
X90880000Y-92920000D01*
X90880000Y-88080000D02*
X93120000Y-88080000D01*
X93120000Y-88080000D02*
X93120000Y-92920000D01*
%TO.C,C2*%
X150880000Y-92670000D02*
X150880000Y-87830000D01*
X153120000Y-92670000D02*
X150880000Y-92670000D01*
X150880000Y-87830000D02*
X153120000Y-87830000D01*
X153120000Y-87830000D02*
X153120000Y-92670000D01*
%TO.C,C1*%
X183880000Y-92920000D02*
X183880000Y-88080000D01*
X186120000Y-92920000D02*
X183880000Y-92920000D01*
X183880000Y-88080000D02*
X186120000Y-88080000D01*
X186120000Y-88080000D02*
X186120000Y-92920000D01*
%TO.C,J1*%
X119080000Y-95040000D02*
X119080000Y-82120000D01*
X121730000Y-92390000D02*
X121730000Y-95040000D01*
X121730000Y-95040000D02*
X119080000Y-95040000D01*
X124380000Y-82120000D02*
X119080000Y-82120000D01*
X124380000Y-92390000D02*
X121730000Y-92390000D01*
X124380000Y-92390000D02*
X124380000Y-82120000D01*
X124380000Y-93660000D02*
X124380000Y-95040000D01*
X124380000Y-95040000D02*
X123000000Y-95040000D01*
%TO.C,J2*%
X48620000Y-94120000D02*
X50000000Y-94120000D01*
X48620000Y-95500000D02*
X48620000Y-94120000D01*
X48620000Y-96770000D02*
X48620000Y-99420000D01*
X48620000Y-96770000D02*
X51270000Y-96770000D01*
X48620000Y-99420000D02*
X53920000Y-99420000D01*
X51270000Y-94120000D02*
X53920000Y-94120000D01*
X51270000Y-96770000D02*
X51270000Y-94120000D01*
X53920000Y-94120000D02*
X53920000Y-99420000D01*
%TO.C,TP19*%
X130300000Y-108800000D02*
X132700000Y-108800000D01*
X130300000Y-111200000D02*
X130300000Y-108800000D01*
X132700000Y-108800000D02*
X132700000Y-111200000D01*
X132700000Y-111200000D02*
X130300000Y-111200000D01*
%TO.C,IN5*%
X72260000Y-108800000D02*
X74660000Y-108800000D01*
X72260000Y-111200000D02*
X72260000Y-108800000D01*
X74660000Y-108800000D02*
X74660000Y-111200000D01*
X74660000Y-111200000D02*
X72260000Y-111200000D01*
%TO.C,TP18*%
X126300000Y-108800000D02*
X128700000Y-108800000D01*
X126300000Y-111200000D02*
X126300000Y-108800000D01*
X128700000Y-108800000D02*
X128700000Y-111200000D01*
X128700000Y-111200000D02*
X126300000Y-111200000D01*
%TO.C,R31*%
X94500000Y-99130000D02*
X94500000Y-100080000D01*
X94500000Y-104870000D02*
X94500000Y-103920000D01*
X93580000Y-103920000D02*
X95420000Y-103920000D01*
X95420000Y-100080000D01*
X93580000Y-100080000D01*
X93580000Y-103920000D01*
%TO.C,R26*%
X114500000Y-98940000D02*
X114500000Y-99890000D01*
X114500000Y-104680000D02*
X114500000Y-103730000D01*
X113580000Y-103730000D02*
X115420000Y-103730000D01*
X115420000Y-99890000D01*
X113580000Y-99890000D01*
X113580000Y-103730000D01*
%TO.C,TP32*%
X183300000Y-108800000D02*
X185700000Y-108800000D01*
X183300000Y-111200000D02*
X183300000Y-108800000D01*
X185700000Y-108800000D02*
X185700000Y-111200000D01*
X185700000Y-111200000D02*
X183300000Y-111200000D01*
%TO.C,R1*%
X123500000Y-99130000D02*
X123500000Y-100080000D01*
X123500000Y-104870000D02*
X123500000Y-103920000D01*
X122580000Y-103920000D02*
X124420000Y-103920000D01*
X124420000Y-100080000D01*
X122580000Y-100080000D01*
X122580000Y-103920000D01*
%TO.C,R18*%
X61500000Y-98777679D02*
X61500000Y-99727679D01*
X61500000Y-104517679D02*
X61500000Y-103567679D01*
X60580000Y-103567679D02*
X62420000Y-103567679D01*
X62420000Y-99727679D01*
X60580000Y-99727679D01*
X60580000Y-103567679D01*
%TO.C,IN8*%
X84260000Y-108800000D02*
X86660000Y-108800000D01*
X84260000Y-111200000D02*
X84260000Y-108800000D01*
X86660000Y-108800000D02*
X86660000Y-111200000D01*
X86660000Y-111200000D02*
X84260000Y-111200000D01*
%TO.C,IN14*%
X109300000Y-108800000D02*
X111700000Y-108800000D01*
X109300000Y-111200000D02*
X109300000Y-108800000D01*
X111700000Y-108800000D02*
X111700000Y-111200000D01*
X111700000Y-111200000D02*
X109300000Y-111200000D01*
%TO.C,IN1*%
X56260000Y-108800000D02*
X58660000Y-108800000D01*
X56260000Y-111200000D02*
X56260000Y-108800000D01*
X58660000Y-108800000D02*
X58660000Y-111200000D01*
X58660000Y-111200000D02*
X56260000Y-111200000D01*
%TO.C,R27*%
X110500000Y-98940000D02*
X110500000Y-99890000D01*
X110500000Y-104680000D02*
X110500000Y-103730000D01*
X109580000Y-103730000D02*
X111420000Y-103730000D01*
X111420000Y-99890000D01*
X109580000Y-99890000D01*
X109580000Y-103730000D01*
%TO.C,U3*%
X94430000Y-88160000D02*
X94430000Y-89810000D01*
X94430000Y-91810000D02*
X94430000Y-93460000D01*
X94430000Y-93460000D02*
X114870000Y-93460000D01*
X114870000Y-88160000D02*
X94430000Y-88160000D01*
X114870000Y-93460000D02*
X114870000Y-88160000D01*
X94430000Y-89810000D02*
G75*
G02*
X94430000Y-91810000I0J-1000000D01*
G01*
%TO.C,TP25*%
X155300000Y-108800000D02*
X157700000Y-108800000D01*
X155300000Y-111200000D02*
X155300000Y-108800000D01*
X157700000Y-108800000D02*
X157700000Y-111200000D01*
X157700000Y-111200000D02*
X155300000Y-111200000D01*
%TO.C,R16*%
X184500000Y-99130000D02*
X184500000Y-100080000D01*
X184500000Y-104870000D02*
X184500000Y-103920000D01*
X183580000Y-103920000D02*
X185420000Y-103920000D01*
X185420000Y-100080000D01*
X183580000Y-100080000D01*
X183580000Y-103920000D01*
%TO.C,IN4*%
X68260000Y-108800000D02*
X70660000Y-108800000D01*
X68260000Y-111200000D02*
X68260000Y-108800000D01*
X70660000Y-108800000D02*
X70660000Y-111200000D01*
X70660000Y-111200000D02*
X68260000Y-111200000D01*
%TO.C,R20*%
X69500000Y-98777679D02*
X69500000Y-99727679D01*
X69500000Y-104517679D02*
X69500000Y-103567679D01*
X68580000Y-103567679D02*
X70420000Y-103567679D01*
X70420000Y-99727679D01*
X68580000Y-99727679D01*
X68580000Y-103567679D01*
%TO.C,IN3*%
X64260000Y-108800000D02*
X66660000Y-108800000D01*
X64260000Y-111200000D02*
X64260000Y-108800000D01*
X66660000Y-108800000D02*
X66660000Y-111200000D01*
X66660000Y-111200000D02*
X64260000Y-111200000D01*
%TO.C,IN6*%
X76260000Y-108800000D02*
X78660000Y-108800000D01*
X76260000Y-111200000D02*
X76260000Y-108800000D01*
X78660000Y-108800000D02*
X78660000Y-111200000D01*
X78660000Y-111200000D02*
X76260000Y-111200000D01*
%TO.C,IN9*%
X89300000Y-108800000D02*
X91700000Y-108800000D01*
X89300000Y-111200000D02*
X89300000Y-108800000D01*
X91700000Y-108800000D02*
X91700000Y-111200000D01*
X91700000Y-111200000D02*
X89300000Y-111200000D01*
%TO.C,IN11*%
X97300000Y-108800000D02*
X99700000Y-108800000D01*
X97300000Y-111200000D02*
X97300000Y-108800000D01*
X99700000Y-108800000D02*
X99700000Y-111200000D01*
X99700000Y-111200000D02*
X97300000Y-111200000D01*
%TO.C,TP30*%
X175300000Y-108800000D02*
X177700000Y-108800000D01*
X175300000Y-111200000D02*
X175300000Y-108800000D01*
X177700000Y-108800000D02*
X177700000Y-111200000D01*
X177700000Y-111200000D02*
X175300000Y-111200000D01*
%TO.C,IN16*%
X117300000Y-108800000D02*
X119700000Y-108800000D01*
X117300000Y-111200000D02*
X117300000Y-108800000D01*
X119700000Y-108800000D02*
X119700000Y-111200000D01*
X119700000Y-111200000D02*
X117300000Y-111200000D01*
%TO.C,TP28*%
X167300000Y-108800000D02*
X169700000Y-108800000D01*
X167300000Y-111200000D02*
X167300000Y-108800000D01*
X169700000Y-108800000D02*
X169700000Y-111200000D01*
X169700000Y-111200000D02*
X167300000Y-111200000D01*
%TO.C,TP23*%
X146300000Y-108800000D02*
X148700000Y-108800000D01*
X146300000Y-111200000D02*
X146300000Y-108800000D01*
X148700000Y-108800000D02*
X148700000Y-111200000D01*
X148700000Y-111200000D02*
X146300000Y-111200000D01*
%TO.C,IN15*%
X113300000Y-108800000D02*
X115700000Y-108800000D01*
X113300000Y-111200000D02*
X113300000Y-108800000D01*
X115700000Y-108800000D02*
X115700000Y-111200000D01*
X115700000Y-111200000D02*
X113300000Y-111200000D01*
%TO.C,R3*%
X131500000Y-99130000D02*
X131500000Y-100080000D01*
X131500000Y-104870000D02*
X131500000Y-103920000D01*
X130580000Y-103920000D02*
X132420000Y-103920000D01*
X132420000Y-100080000D01*
X130580000Y-100080000D01*
X130580000Y-103920000D01*
%TO.C,R29*%
X102500000Y-98940000D02*
X102500000Y-99890000D01*
X102500000Y-104680000D02*
X102500000Y-103730000D01*
X101580000Y-103730000D02*
X103420000Y-103730000D01*
X103420000Y-99890000D01*
X101580000Y-99890000D01*
X101580000Y-103730000D01*
%TO.C,TP21*%
X138300000Y-108800000D02*
X140700000Y-108800000D01*
X138300000Y-111200000D02*
X138300000Y-108800000D01*
X140700000Y-108800000D02*
X140700000Y-111200000D01*
X140700000Y-111200000D02*
X138300000Y-111200000D01*
%TO.C,TP31*%
X179300000Y-108800000D02*
X181700000Y-108800000D01*
X179300000Y-111200000D02*
X179300000Y-108800000D01*
X181700000Y-108800000D02*
X181700000Y-111200000D01*
X181700000Y-111200000D02*
X179300000Y-111200000D01*
%TO.C,R28*%
X106500000Y-98940000D02*
X106500000Y-99890000D01*
X106500000Y-104680000D02*
X106500000Y-103730000D01*
X105580000Y-103730000D02*
X107420000Y-103730000D01*
X107420000Y-99890000D01*
X105580000Y-99890000D01*
X105580000Y-103730000D01*
%TO.C,R4*%
X135500000Y-99130000D02*
X135500000Y-100080000D01*
X135500000Y-104870000D02*
X135500000Y-103920000D01*
X134580000Y-103920000D02*
X136420000Y-103920000D01*
X136420000Y-100080000D01*
X134580000Y-100080000D01*
X134580000Y-103920000D01*
%TO.C,R30*%
X98500000Y-98940000D02*
X98500000Y-99890000D01*
X98500000Y-104680000D02*
X98500000Y-103730000D01*
X97580000Y-103730000D02*
X99420000Y-103730000D01*
X99420000Y-99890000D01*
X97580000Y-99890000D01*
X97580000Y-103730000D01*
%TO.C,R11*%
X164500000Y-99130000D02*
X164500000Y-100080000D01*
X164500000Y-104870000D02*
X164500000Y-103920000D01*
X163580000Y-103920000D02*
X165420000Y-103920000D01*
X165420000Y-100080000D01*
X163580000Y-100080000D01*
X163580000Y-103920000D01*
%TO.C,TP22*%
X142300000Y-108800000D02*
X144700000Y-108800000D01*
X142300000Y-111200000D02*
X142300000Y-108800000D01*
X144700000Y-108800000D02*
X144700000Y-111200000D01*
X144700000Y-111200000D02*
X142300000Y-111200000D01*
%TO.C,R12*%
X168500000Y-99130000D02*
X168500000Y-100080000D01*
X168500000Y-104870000D02*
X168500000Y-103920000D01*
X167580000Y-103920000D02*
X169420000Y-103920000D01*
X169420000Y-100080000D01*
X167580000Y-100080000D01*
X167580000Y-103920000D01*
%TO.C,R19*%
X65500000Y-98777679D02*
X65500000Y-99727679D01*
X65500000Y-104517679D02*
X65500000Y-103567679D01*
X64580000Y-103567679D02*
X66420000Y-103567679D01*
X66420000Y-99727679D01*
X64580000Y-99727679D01*
X64580000Y-103567679D01*
%TO.C,R22*%
X77500000Y-98777679D02*
X77500000Y-99727679D01*
X77500000Y-104517679D02*
X77500000Y-103567679D01*
X76580000Y-103567679D02*
X78420000Y-103567679D01*
X78420000Y-99727679D01*
X76580000Y-99727679D01*
X76580000Y-103567679D01*
%TO.C,R6*%
X143500000Y-99130000D02*
X143500000Y-100080000D01*
X143500000Y-104870000D02*
X143500000Y-103920000D01*
X142580000Y-103920000D02*
X144420000Y-103920000D01*
X144420000Y-100080000D01*
X142580000Y-100080000D01*
X142580000Y-103920000D01*
%TO.C,TP27*%
X163300000Y-108800000D02*
X165700000Y-108800000D01*
X163300000Y-111200000D02*
X163300000Y-108800000D01*
X165700000Y-108800000D02*
X165700000Y-111200000D01*
X165700000Y-111200000D02*
X163300000Y-111200000D01*
%TO.C,IN7*%
X80260000Y-108800000D02*
X82660000Y-108800000D01*
X80260000Y-111200000D02*
X80260000Y-108800000D01*
X82660000Y-108800000D02*
X82660000Y-111200000D01*
X82660000Y-111200000D02*
X80260000Y-111200000D01*
%TO.C,R21*%
X73500000Y-98777679D02*
X73500000Y-99727679D01*
X73500000Y-104517679D02*
X73500000Y-103567679D01*
X72580000Y-103567679D02*
X74420000Y-103567679D01*
X74420000Y-99727679D01*
X72580000Y-99727679D01*
X72580000Y-103567679D01*
%TO.C,R9*%
X156500000Y-99130000D02*
X156500000Y-100080000D01*
X156500000Y-104870000D02*
X156500000Y-103920000D01*
X155580000Y-103920000D02*
X157420000Y-103920000D01*
X157420000Y-100080000D01*
X155580000Y-100080000D01*
X155580000Y-103920000D01*
%TO.C,R25*%
X118500000Y-99130000D02*
X118500000Y-100080000D01*
X118500000Y-104870000D02*
X118500000Y-103920000D01*
X117580000Y-103920000D02*
X119420000Y-103920000D01*
X119420000Y-100080000D01*
X117580000Y-100080000D01*
X117580000Y-103920000D01*
%TO.C,R17*%
X57500000Y-98777679D02*
X57500000Y-99727679D01*
X57500000Y-104517679D02*
X57500000Y-103567679D01*
X56580000Y-103567679D02*
X58420000Y-103567679D01*
X58420000Y-99727679D01*
X56580000Y-99727679D01*
X56580000Y-103567679D01*
%TO.C,R8*%
X151500000Y-99130000D02*
X151500000Y-100080000D01*
X151500000Y-104870000D02*
X151500000Y-103920000D01*
X150580000Y-103920000D02*
X152420000Y-103920000D01*
X152420000Y-100080000D01*
X150580000Y-100080000D01*
X150580000Y-103920000D01*
%TO.C,R5*%
X139500000Y-99130000D02*
X139500000Y-100080000D01*
X139500000Y-104870000D02*
X139500000Y-103920000D01*
X138580000Y-103920000D02*
X140420000Y-103920000D01*
X140420000Y-100080000D01*
X138580000Y-100080000D01*
X138580000Y-103920000D01*
%TO.C,R13*%
X172500000Y-99130000D02*
X172500000Y-100080000D01*
X172500000Y-104870000D02*
X172500000Y-103920000D01*
X171580000Y-103920000D02*
X173420000Y-103920000D01*
X173420000Y-100080000D01*
X171580000Y-100080000D01*
X171580000Y-103920000D01*
%TO.C,R24*%
X85501393Y-98820000D02*
X85501393Y-99770000D01*
X85501393Y-104560000D02*
X85501393Y-103610000D01*
X84581393Y-103610000D02*
X86421393Y-103610000D01*
X86421393Y-99770000D01*
X84581393Y-99770000D01*
X84581393Y-103610000D01*
%TO.C,R23*%
X81500000Y-98777679D02*
X81500000Y-99727679D01*
X81500000Y-104517679D02*
X81500000Y-103567679D01*
X80580000Y-103567679D02*
X82420000Y-103567679D01*
X82420000Y-99727679D01*
X80580000Y-99727679D01*
X80580000Y-103567679D01*
%TO.C,R2*%
X127500000Y-99130000D02*
X127500000Y-100080000D01*
X127500000Y-104870000D02*
X127500000Y-103920000D01*
X126580000Y-103920000D02*
X128420000Y-103920000D01*
X128420000Y-100080000D01*
X126580000Y-100080000D01*
X126580000Y-103920000D01*
%TO.C,TP17*%
X122300000Y-108800000D02*
X124700000Y-108800000D01*
X122300000Y-111200000D02*
X122300000Y-108800000D01*
X124700000Y-108800000D02*
X124700000Y-111200000D01*
X124700000Y-111200000D02*
X122300000Y-111200000D01*
%TO.C,TP24*%
X150300000Y-108800000D02*
X152700000Y-108800000D01*
X150300000Y-111200000D02*
X150300000Y-108800000D01*
X152700000Y-108800000D02*
X152700000Y-111200000D01*
X152700000Y-111200000D02*
X150300000Y-111200000D01*
%TO.C,R14*%
X176500000Y-99130000D02*
X176500000Y-100080000D01*
X176500000Y-104870000D02*
X176500000Y-103920000D01*
X175580000Y-103920000D02*
X177420000Y-103920000D01*
X177420000Y-100080000D01*
X175580000Y-100080000D01*
X175580000Y-103920000D01*
%TO.C,TP29*%
X171300000Y-108800000D02*
X173700000Y-108800000D01*
X171300000Y-111200000D02*
X171300000Y-108800000D01*
X173700000Y-108800000D02*
X173700000Y-111200000D01*
X173700000Y-111200000D02*
X171300000Y-111200000D01*
%TO.C,TP26*%
X159300000Y-108800000D02*
X161700000Y-108800000D01*
X159300000Y-111200000D02*
X159300000Y-108800000D01*
X161700000Y-108800000D02*
X161700000Y-111200000D01*
X161700000Y-111200000D02*
X159300000Y-111200000D01*
%TO.C,R10*%
X160500000Y-99130000D02*
X160500000Y-100080000D01*
X160500000Y-104870000D02*
X160500000Y-103920000D01*
X159580000Y-103920000D02*
X161420000Y-103920000D01*
X161420000Y-100080000D01*
X159580000Y-100080000D01*
X159580000Y-103920000D01*
%TO.C,U2*%
X128430000Y-88160000D02*
X128430000Y-89810000D01*
X128430000Y-91810000D02*
X128430000Y-93460000D01*
X128430000Y-93460000D02*
X148870000Y-93460000D01*
X148870000Y-88160000D02*
X128430000Y-88160000D01*
X148870000Y-93460000D02*
X148870000Y-88160000D01*
X128430000Y-89810000D02*
G75*
G02*
X128430000Y-91810000I0J-1000000D01*
G01*
%TO.C,R32*%
X90500000Y-98940000D02*
X90500000Y-99890000D01*
X90500000Y-104680000D02*
X90500000Y-103730000D01*
X89580000Y-103730000D02*
X91420000Y-103730000D01*
X91420000Y-99890000D01*
X89580000Y-99890000D01*
X89580000Y-103730000D01*
%TO.C,R15*%
X180500000Y-99130000D02*
X180500000Y-100080000D01*
X180500000Y-104870000D02*
X180500000Y-103920000D01*
X179580000Y-103920000D02*
X181420000Y-103920000D01*
X181420000Y-100080000D01*
X179580000Y-100080000D01*
X179580000Y-103920000D01*
%TO.C,IN10*%
X93300000Y-108800000D02*
X95700000Y-108800000D01*
X93300000Y-111200000D02*
X93300000Y-108800000D01*
X95700000Y-108800000D02*
X95700000Y-111200000D01*
X95700000Y-111200000D02*
X93300000Y-111200000D01*
%TO.C,IN2*%
X60260000Y-108800000D02*
X62660000Y-108800000D01*
X60260000Y-111200000D02*
X60260000Y-108800000D01*
X62660000Y-108800000D02*
X62660000Y-111200000D01*
X62660000Y-111200000D02*
X60260000Y-111200000D01*
%TO.C,R7*%
X147500000Y-99130000D02*
X147500000Y-100080000D01*
X147500000Y-104870000D02*
X147500000Y-103920000D01*
X146580000Y-103920000D02*
X148420000Y-103920000D01*
X148420000Y-100080000D01*
X146580000Y-100080000D01*
X146580000Y-103920000D01*
%TO.C,IN13*%
X105300000Y-108800000D02*
X107700000Y-108800000D01*
X105300000Y-111200000D02*
X105300000Y-108800000D01*
X107700000Y-108800000D02*
X107700000Y-111200000D01*
X107700000Y-111200000D02*
X105300000Y-111200000D01*
%TO.C,TP20*%
X134300000Y-108800000D02*
X136700000Y-108800000D01*
X134300000Y-111200000D02*
X134300000Y-108800000D01*
X136700000Y-108800000D02*
X136700000Y-111200000D01*
X136700000Y-111200000D02*
X134300000Y-111200000D01*
%TO.C,IN12*%
X101300000Y-108800000D02*
X103700000Y-108800000D01*
X101300000Y-111200000D02*
X101300000Y-108800000D01*
X103700000Y-108800000D02*
X103700000Y-111200000D01*
X103700000Y-111200000D02*
X101300000Y-111200000D01*
%TO.C,U4*%
X160970000Y-88280000D02*
X160970000Y-89930000D01*
X160970000Y-91930000D02*
X160970000Y-93580000D01*
X160970000Y-93580000D02*
X181410000Y-93580000D01*
X181410000Y-88280000D02*
X160970000Y-88280000D01*
X181410000Y-93580000D02*
X181410000Y-88280000D01*
X160970000Y-89930000D02*
G75*
G02*
X160970000Y-91930000I0J-1000000D01*
G01*
%TD*%
M02*
