%TF.GenerationSoftware,KiCad,Pcbnew,9.0.3*%
%TF.CreationDate,2025-07-30T17:57:51+02:00*%
%TF.ProjectId,Kosmo drum sequencer input output board,4b6f736d-6f20-4647-9275-6d2073657175,rev?*%
%TF.SameCoordinates,Original*%
%TF.FileFunction,Copper,L2,Bot*%
%TF.FilePolarity,Positive*%
%FSLAX46Y46*%
G04 Gerber Fmt 4.6, Leading zero omitted, Abs format (unit mm)*
G04 Created by KiCad (PCBNEW 9.0.3) date 2025-07-30 17:57:51*
%MOMM*%
%LPD*%
G01*
G04 APERTURE LIST*
G04 Aperture macros list*
%AMRoundRect*
0 Rectangle with rounded corners*
0 $1 Rounding radius*
0 $2 $3 $4 $5 $6 $7 $8 $9 X,Y pos of 4 corners*
0 Add a 4 corners polygon primitive as box body*
4,1,4,$2,$3,$4,$5,$6,$7,$8,$9,$2,$3,0*
0 Add four circle primitives for the rounded corners*
1,1,$1+$1,$2,$3*
1,1,$1+$1,$4,$5*
1,1,$1+$1,$6,$7*
1,1,$1+$1,$8,$9*
0 Add four rect primitives between the rounded corners*
20,1,$1+$1,$2,$3,$4,$5,0*
20,1,$1+$1,$4,$5,$6,$7,0*
20,1,$1+$1,$6,$7,$8,$9,0*
20,1,$1+$1,$8,$9,$2,$3,0*%
G04 Aperture macros list end*
%TA.AperFunction,ComponentPad*%
%ADD10C,1.600000*%
%TD*%
%TA.AperFunction,ComponentPad*%
%ADD11RoundRect,0.250000X0.550000X-0.550000X0.550000X0.550000X-0.550000X0.550000X-0.550000X-0.550000X0*%
%TD*%
%TA.AperFunction,ComponentPad*%
%ADD12C,1.400000*%
%TD*%
%TA.AperFunction,ComponentPad*%
%ADD13C,1.700000*%
%TD*%
%TA.AperFunction,ComponentPad*%
%ADD14R,1.700000X1.700000*%
%TD*%
%TA.AperFunction,ViaPad*%
%ADD15C,0.600000*%
%TD*%
%TA.AperFunction,Conductor*%
%ADD16C,0.200000*%
%TD*%
G04 APERTURE END LIST*
D10*
%TO.P,U1,16,VCC*%
%TO.N,VSS*%
X63260000Y-87000000D03*
%TO.P,U1,15,~{CE}*%
%TO.N,Net-(J1-Pin_5)*%
X65800000Y-87000000D03*
%TO.P,U1,14,D3*%
%TO.N,Net-(U1-D3)*%
X68340000Y-87000000D03*
%TO.P,U1,13,D2*%
%TO.N,Net-(U1-D2)*%
X70880000Y-87000000D03*
%TO.P,U1,12,D1*%
%TO.N,Net-(U1-D1)*%
X73420000Y-87000000D03*
%TO.P,U1,11,D0*%
%TO.N,Net-(U1-D0)*%
X75960000Y-87000000D03*
%TO.P,U1,10,DS*%
%TO.N,Net-(U1-DS)*%
X78500000Y-87000000D03*
%TO.P,U1,9,Q7*%
%TO.N,Net-(J1-Pin_3)*%
X81040000Y-87000000D03*
%TO.P,U1,8,GND*%
%TO.N,GND*%
X81040000Y-94620000D03*
%TO.P,U1,7,~{Q7}*%
%TO.N,unconnected-(U1-~{Q7}-Pad7)*%
X78500000Y-94620000D03*
%TO.P,U1,6,D7*%
%TO.N,Net-(U1-D7)*%
X75960000Y-94620000D03*
%TO.P,U1,5,D6*%
%TO.N,Net-(U1-D6)*%
X73420000Y-94620000D03*
%TO.P,U1,4,D5*%
%TO.N,Net-(U1-D5)*%
X70880000Y-94620000D03*
%TO.P,U1,3,D4*%
%TO.N,Net-(U1-D4)*%
X68340000Y-94620000D03*
%TO.P,U1,2,CP*%
%TO.N,Net-(J1-Pin_2)*%
X65800000Y-94620000D03*
D11*
%TO.P,U1,1,~{PL}*%
%TO.N,Net-(J1-Pin_1)*%
X63260000Y-94620000D03*
%TD*%
D12*
%TO.P,C4,1*%
%TO.N,GND*%
X60000000Y-92060000D03*
%TO.P,C4,2*%
%TO.N,VSS*%
X60000000Y-89560000D03*
%TD*%
%TO.P,C3,1*%
%TO.N,GND*%
X92000000Y-91750000D03*
%TO.P,C3,2*%
%TO.N,VSS*%
X92000000Y-89250000D03*
%TD*%
%TO.P,C2,1*%
%TO.N,GND*%
X152000000Y-91500000D03*
%TO.P,C2,2*%
%TO.N,VSS*%
X152000000Y-89000000D03*
%TD*%
%TO.P,C1,1*%
%TO.N,GND*%
X185000000Y-91750000D03*
%TO.P,C1,2*%
%TO.N,VSS*%
X185000000Y-89250000D03*
%TD*%
D13*
%TO.P,J1,10,Pin_10*%
%TO.N,unconnected-(J1-Pin_10-Pad10)*%
X120460000Y-83500000D03*
%TO.P,J1,9,Pin_9*%
%TO.N,Net-(J1-Pin_9)*%
X123000000Y-83500000D03*
%TO.P,J1,8,Pin_8*%
%TO.N,Net-(J1-Pin_8)*%
X120460000Y-86040000D03*
%TO.P,J1,7,Pin_7*%
%TO.N,Net-(J1-Pin_7)*%
X123000000Y-86040000D03*
%TO.P,J1,6,Pin_6*%
%TO.N,Net-(J1-Pin_6)*%
X120460000Y-88580000D03*
%TO.P,J1,5,Pin_5*%
%TO.N,Net-(J1-Pin_5)*%
X123000000Y-88580000D03*
%TO.P,J1,4,Pin_4*%
%TO.N,Net-(J1-Pin_4)*%
X120460000Y-91120000D03*
%TO.P,J1,3,Pin_3*%
%TO.N,Net-(J1-Pin_3)*%
X123000000Y-91120000D03*
%TO.P,J1,2,Pin_2*%
%TO.N,Net-(J1-Pin_2)*%
X120460000Y-93660000D03*
D14*
%TO.P,J1,1,Pin_1*%
%TO.N,Net-(J1-Pin_1)*%
X123000000Y-93660000D03*
%TD*%
%TO.P,J2,1,Pin_1*%
%TO.N,VSS*%
X50000000Y-95500000D03*
D13*
%TO.P,J2,2,Pin_2*%
X52540000Y-95500000D03*
%TO.P,J2,3,Pin_3*%
%TO.N,GND*%
X50000000Y-98040000D03*
%TO.P,J2,4,Pin_4*%
X52540000Y-98040000D03*
%TD*%
D12*
%TO.P,R31,1*%
%TO.N,Net-(U3-D1)*%
X94500000Y-105810000D03*
%TO.P,R31,2*%
%TO.N,GND*%
X94500000Y-98190000D03*
%TD*%
%TO.P,R26,1*%
%TO.N,Net-(U3-D6)*%
X114500000Y-105620000D03*
%TO.P,R26,2*%
%TO.N,GND*%
X114500000Y-98000000D03*
%TD*%
%TO.P,R1,1*%
%TO.N,Net-(R1-Pad1)*%
X123500000Y-105810000D03*
%TO.P,R1,2*%
%TO.N,Net-(U2-QA)*%
X123500000Y-98190000D03*
%TD*%
%TO.P,R18,1*%
%TO.N,Net-(U1-D1)*%
X61500000Y-105457679D03*
%TO.P,R18,2*%
%TO.N,GND*%
X61500000Y-97837679D03*
%TD*%
%TO.P,R27,1*%
%TO.N,Net-(U3-D5)*%
X110500000Y-105620000D03*
%TO.P,R27,2*%
%TO.N,GND*%
X110500000Y-98000000D03*
%TD*%
D11*
%TO.P,U3,1,~{PL}*%
%TO.N,Net-(J1-Pin_1)*%
X95760000Y-94620000D03*
D10*
%TO.P,U3,2,CP*%
%TO.N,Net-(J1-Pin_2)*%
X98300000Y-94620000D03*
%TO.P,U3,3,D4*%
%TO.N,Net-(U3-D4)*%
X100840000Y-94620000D03*
%TO.P,U3,4,D5*%
%TO.N,Net-(U3-D5)*%
X103380000Y-94620000D03*
%TO.P,U3,5,D6*%
%TO.N,Net-(U3-D6)*%
X105920000Y-94620000D03*
%TO.P,U3,6,D7*%
%TO.N,Net-(U3-D7)*%
X108460000Y-94620000D03*
%TO.P,U3,7,~{Q7}*%
%TO.N,unconnected-(U3-~{Q7}-Pad7)*%
X111000000Y-94620000D03*
%TO.P,U3,8,GND*%
%TO.N,GND*%
X113540000Y-94620000D03*
%TO.P,U3,9,Q7*%
%TO.N,Net-(U1-DS)*%
X113540000Y-87000000D03*
%TO.P,U3,10,DS*%
%TO.N,Net-(J1-Pin_4)*%
X111000000Y-87000000D03*
%TO.P,U3,11,D0*%
%TO.N,Net-(U3-D0)*%
X108460000Y-87000000D03*
%TO.P,U3,12,D1*%
%TO.N,Net-(U3-D1)*%
X105920000Y-87000000D03*
%TO.P,U3,13,D2*%
%TO.N,Net-(U3-D2)*%
X103380000Y-87000000D03*
%TO.P,U3,14,D3*%
%TO.N,Net-(U3-D3)*%
X100840000Y-87000000D03*
%TO.P,U3,15,~{CE}*%
%TO.N,Net-(J1-Pin_5)*%
X98300000Y-87000000D03*
%TO.P,U3,16,VCC*%
%TO.N,VSS*%
X95760000Y-87000000D03*
%TD*%
D12*
%TO.P,R16,1*%
%TO.N,Net-(R16-Pad1)*%
X184500000Y-105810000D03*
%TO.P,R16,2*%
%TO.N,Net-(U4-QH)*%
X184500000Y-98190000D03*
%TD*%
%TO.P,R20,1*%
%TO.N,Net-(U1-D3)*%
X69500000Y-105457679D03*
%TO.P,R20,2*%
%TO.N,GND*%
X69500000Y-97837679D03*
%TD*%
%TO.P,R3,1*%
%TO.N,Net-(R3-Pad1)*%
X131500000Y-105810000D03*
%TO.P,R3,2*%
%TO.N,Net-(U2-QC)*%
X131500000Y-98190000D03*
%TD*%
%TO.P,R29,1*%
%TO.N,Net-(U3-D3)*%
X102500000Y-105620000D03*
%TO.P,R29,2*%
%TO.N,GND*%
X102500000Y-98000000D03*
%TD*%
%TO.P,R28,1*%
%TO.N,Net-(U3-D4)*%
X106500000Y-105620000D03*
%TO.P,R28,2*%
%TO.N,GND*%
X106500000Y-98000000D03*
%TD*%
%TO.P,R4,1*%
%TO.N,Net-(R4-Pad1)*%
X135500000Y-105810000D03*
%TO.P,R4,2*%
%TO.N,Net-(U2-QD)*%
X135500000Y-98190000D03*
%TD*%
%TO.P,R30,1*%
%TO.N,Net-(U3-D2)*%
X98500000Y-105620000D03*
%TO.P,R30,2*%
%TO.N,GND*%
X98500000Y-98000000D03*
%TD*%
%TO.P,R11,1*%
%TO.N,Net-(R11-Pad1)*%
X164500000Y-105810000D03*
%TO.P,R11,2*%
%TO.N,Net-(U4-QC)*%
X164500000Y-98190000D03*
%TD*%
%TO.P,R12,1*%
%TO.N,Net-(R12-Pad1)*%
X168500000Y-105810000D03*
%TO.P,R12,2*%
%TO.N,Net-(U4-QD)*%
X168500000Y-98190000D03*
%TD*%
%TO.P,R19,1*%
%TO.N,Net-(U1-D2)*%
X65500000Y-105457679D03*
%TO.P,R19,2*%
%TO.N,GND*%
X65500000Y-97837679D03*
%TD*%
%TO.P,R22,1*%
%TO.N,Net-(U1-D5)*%
X77500000Y-105457679D03*
%TO.P,R22,2*%
%TO.N,GND*%
X77500000Y-97837679D03*
%TD*%
%TO.P,R6,1*%
%TO.N,Net-(R6-Pad1)*%
X143500000Y-105810000D03*
%TO.P,R6,2*%
%TO.N,Net-(U2-QF)*%
X143500000Y-98190000D03*
%TD*%
%TO.P,R21,1*%
%TO.N,Net-(U1-D4)*%
X73500000Y-105457679D03*
%TO.P,R21,2*%
%TO.N,GND*%
X73500000Y-97837679D03*
%TD*%
%TO.P,R9,1*%
%TO.N,Net-(R9-Pad1)*%
X156500000Y-105810000D03*
%TO.P,R9,2*%
%TO.N,Net-(U4-QA)*%
X156500000Y-98190000D03*
%TD*%
%TO.P,R25,1*%
%TO.N,Net-(U3-D7)*%
X118500000Y-105810000D03*
%TO.P,R25,2*%
%TO.N,GND*%
X118500000Y-98190000D03*
%TD*%
%TO.P,R17,1*%
%TO.N,Net-(U1-D0)*%
X57500000Y-105457679D03*
%TO.P,R17,2*%
%TO.N,GND*%
X57500000Y-97837679D03*
%TD*%
%TO.P,R8,1*%
%TO.N,Net-(R8-Pad1)*%
X151500000Y-105810000D03*
%TO.P,R8,2*%
%TO.N,Net-(U2-QH)*%
X151500000Y-98190000D03*
%TD*%
%TO.P,R5,1*%
%TO.N,Net-(R5-Pad1)*%
X139500000Y-105810000D03*
%TO.P,R5,2*%
%TO.N,Net-(U2-QE)*%
X139500000Y-98190000D03*
%TD*%
%TO.P,R13,1*%
%TO.N,Net-(R13-Pad1)*%
X172500000Y-105810000D03*
%TO.P,R13,2*%
%TO.N,Net-(U4-QE)*%
X172500000Y-98190000D03*
%TD*%
%TO.P,R24,1*%
%TO.N,Net-(U1-D7)*%
X85501393Y-105500000D03*
%TO.P,R24,2*%
%TO.N,GND*%
X85501393Y-97880000D03*
%TD*%
%TO.P,R23,1*%
%TO.N,Net-(U1-D6)*%
X81500000Y-105457679D03*
%TO.P,R23,2*%
%TO.N,GND*%
X81500000Y-97837679D03*
%TD*%
%TO.P,R2,1*%
%TO.N,Net-(R2-Pad1)*%
X127500000Y-105810000D03*
%TO.P,R2,2*%
%TO.N,Net-(U2-QB)*%
X127500000Y-98190000D03*
%TD*%
%TO.P,R14,1*%
%TO.N,Net-(R14-Pad1)*%
X176500000Y-105810000D03*
%TO.P,R14,2*%
%TO.N,Net-(U4-QF)*%
X176500000Y-98190000D03*
%TD*%
%TO.P,R10,1*%
%TO.N,Net-(R10-Pad1)*%
X160500000Y-105810000D03*
%TO.P,R10,2*%
%TO.N,Net-(U4-QB)*%
X160500000Y-98190000D03*
%TD*%
D11*
%TO.P,U2,1,QB*%
%TO.N,Net-(U2-QB)*%
X129760000Y-94620000D03*
D10*
%TO.P,U2,2,QC*%
%TO.N,Net-(U2-QC)*%
X132300000Y-94620000D03*
%TO.P,U2,3,QD*%
%TO.N,Net-(U2-QD)*%
X134840000Y-94620000D03*
%TO.P,U2,4,QE*%
%TO.N,Net-(U2-QE)*%
X137380000Y-94620000D03*
%TO.P,U2,5,QF*%
%TO.N,Net-(U2-QF)*%
X139920000Y-94620000D03*
%TO.P,U2,6,QG*%
%TO.N,Net-(U2-QG)*%
X142460000Y-94620000D03*
%TO.P,U2,7,QH*%
%TO.N,Net-(U2-QH)*%
X145000000Y-94620000D03*
%TO.P,U2,8,GND*%
%TO.N,GND*%
X147540000Y-94620000D03*
%TO.P,U2,9,QH'*%
%TO.N,Net-(U2-QH')*%
X147540000Y-87000000D03*
%TO.P,U2,10,~{SRCLR}*%
%TO.N,VSS*%
X145000000Y-87000000D03*
%TO.P,U2,11,SRCLK*%
%TO.N,Net-(J1-Pin_9)*%
X142460000Y-87000000D03*
%TO.P,U2,12,RCLK*%
%TO.N,Net-(J1-Pin_8)*%
X139920000Y-87000000D03*
%TO.P,U2,13,~{OE}*%
%TO.N,GND*%
X137380000Y-87000000D03*
%TO.P,U2,14,SER*%
%TO.N,Net-(J1-Pin_7)*%
X134840000Y-87000000D03*
%TO.P,U2,15,QA*%
%TO.N,Net-(U2-QA)*%
X132300000Y-87000000D03*
%TO.P,U2,16,VCC*%
%TO.N,VSS*%
X129760000Y-87000000D03*
%TD*%
D12*
%TO.P,R32,1*%
%TO.N,Net-(U3-D0)*%
X90500000Y-105620000D03*
%TO.P,R32,2*%
%TO.N,GND*%
X90500000Y-98000000D03*
%TD*%
%TO.P,R15,1*%
%TO.N,Net-(R15-Pad1)*%
X180500000Y-105810000D03*
%TO.P,R15,2*%
%TO.N,Net-(U4-QG)*%
X180500000Y-98190000D03*
%TD*%
%TO.P,R7,1*%
%TO.N,Net-(R7-Pad1)*%
X147500000Y-105810000D03*
%TO.P,R7,2*%
%TO.N,Net-(U2-QG)*%
X147500000Y-98190000D03*
%TD*%
D11*
%TO.P,U4,1,QB*%
%TO.N,Net-(U4-QB)*%
X162300000Y-94740000D03*
D10*
%TO.P,U4,2,QC*%
%TO.N,Net-(U4-QC)*%
X164840000Y-94740000D03*
%TO.P,U4,3,QD*%
%TO.N,Net-(U4-QD)*%
X167380000Y-94740000D03*
%TO.P,U4,4,QE*%
%TO.N,Net-(U4-QE)*%
X169920000Y-94740000D03*
%TO.P,U4,5,QF*%
%TO.N,Net-(U4-QF)*%
X172460000Y-94740000D03*
%TO.P,U4,6,QG*%
%TO.N,Net-(U4-QG)*%
X175000000Y-94740000D03*
%TO.P,U4,7,QH*%
%TO.N,Net-(U4-QH)*%
X177540000Y-94740000D03*
%TO.P,U4,8,GND*%
%TO.N,GND*%
X180080000Y-94740000D03*
%TO.P,U4,9,QH'*%
%TO.N,Net-(J1-Pin_6)*%
X180080000Y-87120000D03*
%TO.P,U4,10,~{SRCLR}*%
%TO.N,VSS*%
X177540000Y-87120000D03*
%TO.P,U4,11,SRCLK*%
%TO.N,Net-(J1-Pin_9)*%
X175000000Y-87120000D03*
%TO.P,U4,12,RCLK*%
%TO.N,Net-(J1-Pin_8)*%
X172460000Y-87120000D03*
%TO.P,U4,13,~{OE}*%
%TO.N,GND*%
X169920000Y-87120000D03*
%TO.P,U4,14,SER*%
%TO.N,Net-(U2-QH')*%
X167380000Y-87120000D03*
%TO.P,U4,15,QA*%
%TO.N,Net-(U4-QA)*%
X164840000Y-87120000D03*
%TO.P,U4,16,VCC*%
%TO.N,VSS*%
X162300000Y-87120000D03*
%TD*%
D15*
%TO.N,Net-(J1-Pin_1)*%
X112500000Y-96500000D03*
%TO.N,Net-(U1-DS)*%
X113242461Y-89757537D03*
X96500000Y-90000000D03*
%TD*%
D16*
%TO.N,Net-(J1-Pin_3)*%
X92500000Y-87000000D02*
X81040000Y-87000000D01*
X97000000Y-88500000D02*
X94000000Y-88500000D01*
X94000000Y-88500000D02*
X92500000Y-87000000D01*
X97000000Y-85500000D02*
X97000000Y-88500000D01*
X97500000Y-85000000D02*
X97000000Y-85500000D01*
X109000000Y-85000000D02*
X97500000Y-85000000D01*
X109561000Y-85561000D02*
X109000000Y-85000000D01*
X112099000Y-92500000D02*
X109561000Y-89962000D01*
X114607685Y-92500000D02*
X112099000Y-92500000D01*
X114836685Y-92271000D02*
X114607685Y-92500000D01*
X123000000Y-91120000D02*
X121849000Y-92271000D01*
X121849000Y-92271000D02*
X114836685Y-92271000D01*
X109561000Y-89962000D02*
X109561000Y-85561000D01*
%TO.N,GND*%
X182010000Y-94740000D02*
X185000000Y-91750000D01*
X180080000Y-94740000D02*
X182010000Y-94740000D01*
%TO.N,VSS*%
X185000000Y-89250000D02*
X180250000Y-84500000D01*
X180250000Y-84500000D02*
X177000000Y-84500000D01*
X152000000Y-89000000D02*
X152000000Y-84500000D01*
X152000000Y-84500000D02*
X145000000Y-84500000D01*
%TO.N,GND*%
X150660000Y-91500000D02*
X152000000Y-91500000D01*
X165540000Y-91500000D02*
X152000000Y-91500000D01*
%TO.N,Net-(U2-QH')*%
X149500000Y-90500000D02*
X147540000Y-88540000D01*
X164000000Y-90500000D02*
X149500000Y-90500000D01*
X167380000Y-87120000D02*
X164000000Y-90500000D01*
X147540000Y-88540000D02*
X147540000Y-87000000D01*
%TO.N,Net-(J1-Pin_2)*%
X65000000Y-95420000D02*
X65800000Y-94620000D01*
X61500000Y-96000000D02*
X65000000Y-96000000D01*
X65000000Y-96000000D02*
X65000000Y-95420000D01*
X61500000Y-94000000D02*
X61500000Y-96000000D01*
X96680000Y-93000000D02*
X62500000Y-93000000D01*
X62500000Y-93000000D02*
X61500000Y-94000000D01*
X98300000Y-94620000D02*
X96680000Y-93000000D01*
%TO.N,Net-(J1-Pin_1)*%
X63260000Y-93820000D02*
X63260000Y-94620000D01*
X95440000Y-93500000D02*
X63580000Y-93500000D01*
X95760000Y-93820000D02*
X95440000Y-93500000D01*
X63580000Y-93500000D02*
X63260000Y-93820000D01*
X95760000Y-94620000D02*
X95760000Y-93820000D01*
%TO.N,Net-(J1-Pin_5)*%
X65800000Y-90600000D02*
X65800000Y-87000000D01*
X65900000Y-90700000D02*
X65800000Y-90600000D01*
X98300000Y-90700000D02*
X65900000Y-90700000D01*
%TO.N,Net-(U1-DS)*%
X91585372Y-90251000D02*
X92414628Y-90251000D01*
X92665628Y-90000000D02*
X96500000Y-90000000D01*
X91334372Y-90000000D02*
X91585372Y-90251000D01*
X81500000Y-90000000D02*
X91334372Y-90000000D01*
X92414628Y-90251000D02*
X92665628Y-90000000D01*
X78500000Y-87000000D02*
X81500000Y-90000000D01*
%TO.N,VSS*%
X60000000Y-89560000D02*
X58000000Y-89560000D01*
X60000000Y-87560000D02*
X60000000Y-89560000D01*
X60560000Y-87000000D02*
X60000000Y-87560000D01*
X52540000Y-95500000D02*
X52540000Y-95020000D01*
X52540000Y-95020000D02*
X58000000Y-89560000D01*
X63260000Y-87000000D02*
X60560000Y-87000000D01*
%TO.N,Net-(J1-Pin_2)*%
X99801000Y-93119000D02*
X118381000Y-93119000D01*
X98300000Y-94620000D02*
X99801000Y-93119000D01*
%TO.N,VSS*%
X127101000Y-81601000D02*
X101159000Y-81601000D01*
X101159000Y-81601000D02*
X98260000Y-84500000D01*
X130000000Y-84500000D02*
X127101000Y-81601000D01*
%TO.N,Net-(J1-Pin_1)*%
X123000000Y-94000000D02*
X123000000Y-93660000D01*
%TO.N,Net-(J1-Pin_2)*%
X118922000Y-93660000D02*
X120460000Y-93660000D01*
X118381000Y-93119000D02*
X118922000Y-93660000D01*
%TO.N,Net-(J1-Pin_4)*%
X118960000Y-91120000D02*
X120460000Y-91120000D01*
%TO.N,Net-(U1-DS)*%
X113540000Y-89460000D02*
X113242461Y-89757537D01*
X113540000Y-87000000D02*
X113540000Y-89460000D01*
%TO.N,Net-(J1-Pin_1)*%
X97640000Y-96500000D02*
X112500000Y-96500000D01*
X95760000Y-94620000D02*
X97640000Y-96500000D01*
%TO.N,Net-(J1-Pin_4)*%
X116000000Y-88160000D02*
X118960000Y-91120000D01*
X116000000Y-85500000D02*
X116000000Y-88160000D01*
X112500000Y-85500000D02*
X116000000Y-85500000D01*
%TO.N,GND*%
X129000000Y-92500000D02*
X131880000Y-92500000D01*
X128000000Y-93500000D02*
X129000000Y-92500000D01*
X128000000Y-96000000D02*
X128000000Y-93500000D01*
X127500000Y-96500000D02*
X128000000Y-96000000D01*
X122500000Y-96500000D02*
X127500000Y-96500000D01*
X120810000Y-98190000D02*
X122500000Y-96500000D01*
X131880000Y-92500000D02*
X137380000Y-87000000D01*
X118500000Y-98190000D02*
X120810000Y-98190000D01*
X52540000Y-98040000D02*
X50000000Y-98040000D01*
X56797679Y-98040000D02*
X52540000Y-98040000D01*
X57000000Y-97837679D02*
X56797679Y-98040000D01*
X57500000Y-97837679D02*
X57000000Y-97837679D01*
%TO.N,VSS*%
X52540000Y-95500000D02*
X50000000Y-95500000D01*
%TO.N,Net-(J1-Pin_4)*%
X111000000Y-87000000D02*
X112500000Y-85500000D01*
%TO.N,Net-(J1-Pin_5)*%
X98300000Y-90700000D02*
X98300000Y-87000000D01*
%TO.N,VSS*%
X162500000Y-84500000D02*
X152000000Y-84500000D01*
X177540000Y-87120000D02*
X177540000Y-85040000D01*
X162300000Y-87120000D02*
X162300000Y-84700000D01*
X130000000Y-84500000D02*
X129760000Y-84740000D01*
X177540000Y-85040000D02*
X177000000Y-84500000D01*
X177000000Y-84500000D02*
X162500000Y-84500000D01*
X65760000Y-84500000D02*
X63260000Y-87000000D01*
X98260000Y-84500000D02*
X65760000Y-84500000D01*
X132260000Y-84500000D02*
X130000000Y-84500000D01*
X98260000Y-84500000D02*
X95760000Y-84500000D01*
X129760000Y-84740000D02*
X129760000Y-87000000D01*
X95760000Y-84500000D02*
X95760000Y-87000000D01*
X145000000Y-87000000D02*
X145000000Y-84500000D01*
X162300000Y-84700000D02*
X162500000Y-84500000D01*
%TO.N,GND*%
X174300000Y-91500000D02*
X176840000Y-91500000D01*
X176840000Y-91500000D02*
X180080000Y-94740000D01*
X57500000Y-97837679D02*
X118147679Y-97837679D01*
X137380000Y-87000000D02*
X142380000Y-92000000D01*
X144920000Y-92000000D02*
X147540000Y-94620000D01*
X142380000Y-92000000D02*
X144920000Y-92000000D01*
X118147679Y-97837679D02*
X118500000Y-98190000D01*
X113540000Y-94620000D02*
X113540000Y-97040000D01*
X165540000Y-91500000D02*
X169920000Y-87120000D01*
X81500000Y-97837679D02*
X81500000Y-95080000D01*
X113540000Y-97040000D02*
X114500000Y-98000000D01*
X147540000Y-94620000D02*
X150660000Y-91500000D01*
X169920000Y-87120000D02*
X174300000Y-91500000D01*
X81500000Y-95080000D02*
X81040000Y-94620000D01*
%TO.N,VSS*%
X145000000Y-84500000D02*
X132260000Y-84500000D01*
%TD*%
M02*
