M48
; DRILL file {KiCad 9.0.3} date 2025-09-21T19:45:43+0200
; FORMAT={-:-/ absolute / metric / decimal}
; #@! TF.CreationDate,2025-09-21T19:45:43+02:00
; #@! TF.GenerationSoftware,Kicad,Pcbnew,9.0.3
; #@! TF.FileFunction,Plated,1,2,PTH
FMAT,2
METRIC
; #@! TA.AperFunction,Plated,PTH,ViaDrill
T1C0.300
; #@! TA.AperFunction,Plated,PTH,ComponentDrill
T2C0.800
; #@! TA.AperFunction,Plated,PTH,ComponentDrill
T3C1.000
%
G90
G05
T1
X190.5Y-132.0
X191.15Y-140.0
X192.0Y-182.0
X197.5Y-160.5
X200.0Y-186.5
X201.0Y-160.5
X202.0Y-116.0
X211.0Y-85.0
X211.5Y-133.5
X213.0Y-88.5
X214.349Y-171.0
X214.5Y-108.5
X216.651Y-197.5
X219.5Y-198.0
X220.5Y-149.0
X220.5Y-170.5
X221.0Y-60.5
X221.0Y-83.0
X221.0Y-106.0
X221.0Y-127.5
X221.0Y-193.0
X227.554Y-212.446
X228.5Y-145.0
X229.0Y-204.586
X240.0Y-61.5
X240.0Y-143.0
X241.35Y-142.5
X242.0Y-194.126
X242.2Y-142.5
T2
X195.195Y-122.11
X195.195Y-124.65
X195.195Y-127.19
X195.195Y-129.73
X195.195Y-132.27
X195.195Y-134.81
X195.195Y-137.35
X195.195Y-139.89
X195.38Y-77.76
X195.38Y-80.3
X195.38Y-82.84
X195.38Y-85.38
X195.38Y-87.92
X195.38Y-90.46
X195.38Y-93.0
X195.38Y-95.54
X195.5Y-169.96
X195.5Y-172.5
X195.5Y-175.04
X195.5Y-177.58
X195.5Y-180.12
X195.5Y-182.66
X195.5Y-185.2
X195.5Y-187.74
X202.815Y-122.11
X202.815Y-124.65
X202.815Y-127.19
X202.815Y-129.73
X202.815Y-132.27
X202.815Y-134.81
X202.815Y-137.35
X202.815Y-139.89
X203.0Y-77.76
X203.0Y-80.3
X203.0Y-82.84
X203.0Y-85.38
X203.0Y-87.92
X203.0Y-90.46
X203.0Y-93.0
X203.0Y-95.54
X203.12Y-169.96
X203.12Y-172.5
X203.12Y-175.04
X203.12Y-177.58
X203.12Y-180.12
X203.12Y-182.66
X203.12Y-185.2
X203.12Y-187.74
X238.0Y-120.8
X238.0Y-123.34
X238.0Y-125.88
X238.0Y-128.42
X238.0Y-130.96
X238.0Y-133.5
X238.0Y-136.04
X238.0Y-138.58
X245.62Y-120.8
X245.62Y-123.34
X245.62Y-125.88
X245.62Y-128.42
X245.62Y-130.96
X245.62Y-133.5
X245.62Y-136.04
X245.62Y-138.58
T3
X188.5Y-110.0
X188.5Y-112.54
X188.5Y-115.08
X188.5Y-128.46
X188.5Y-131.0
X188.5Y-133.54
X196.749Y-212.446
X196.778Y-52.005
X199.289Y-212.446
X199.318Y-52.005
X201.829Y-212.446
X201.858Y-52.005
X215.5Y-185.998
X215.5Y-188.538
X215.504Y-141.934
X215.504Y-144.474
X215.512Y-207.914
X215.512Y-210.454
X215.535Y-163.966
X215.535Y-166.506
X215.84Y-75.96
X215.84Y-78.5
X215.88Y-54.0
X215.88Y-56.54
X216.0Y-98.0
X216.0Y-100.54
X216.047Y-119.96
X216.047Y-122.5
X218.04Y-185.998
X218.04Y-188.538
X218.044Y-141.934
X218.044Y-144.474
X218.052Y-207.914
X218.052Y-210.454
X218.075Y-163.966
X218.075Y-166.506
X218.38Y-75.96
X218.38Y-78.5
X218.42Y-54.0
X218.42Y-56.54
X218.54Y-98.0
X218.54Y-100.54
X218.587Y-119.96
X218.587Y-122.5
X220.58Y-185.998
X220.58Y-188.538
X220.584Y-141.934
X220.584Y-144.474
X220.592Y-207.914
X220.592Y-210.454
X220.615Y-163.966
X220.615Y-166.506
X220.92Y-75.96
X220.92Y-78.5
X220.96Y-54.0
X220.96Y-56.54
X221.08Y-98.0
X221.08Y-100.54
X221.127Y-119.96
X221.127Y-122.5
X223.12Y-185.998
X223.12Y-188.538
X223.124Y-141.934
X223.124Y-144.474
X223.132Y-207.914
X223.132Y-210.454
X223.155Y-163.966
X223.155Y-166.506
X223.46Y-75.96
X223.46Y-78.5
X223.5Y-54.0
X223.5Y-56.54
X223.62Y-98.0
X223.62Y-100.54
X223.667Y-119.96
X223.667Y-122.5
X225.66Y-185.998
X225.66Y-188.538
X225.664Y-141.934
X225.664Y-144.474
X225.672Y-207.914
X225.672Y-210.454
X225.695Y-163.966
X225.695Y-166.506
X226.0Y-75.96
X226.0Y-78.5
X226.04Y-54.0
X226.04Y-56.54
X226.16Y-98.0
X226.16Y-100.54
X226.207Y-119.96
X226.207Y-122.5
X236.725Y-52.0
X236.725Y-212.5
X239.265Y-52.0
X239.265Y-212.5
X244.286Y-51.98
X244.321Y-212.516
X246.826Y-51.98
X246.861Y-212.516
X249.366Y-51.98
X249.401Y-212.516
X251.906Y-51.98
X251.941Y-212.516
M30
