%TF.GenerationSoftware,KiCad,Pcbnew,9.0.3*%
%TF.CreationDate,2025-09-21T19:45:40+02:00*%
%TF.ProjectId,kosmo song manager backbone board,6b6f736d-6f20-4736-9f6e-67206d616e61,rev?*%
%TF.SameCoordinates,Original*%
%TF.FileFunction,Copper,L2,Bot*%
%TF.FilePolarity,Positive*%
%FSLAX46Y46*%
G04 Gerber Fmt 4.6, Leading zero omitted, Abs format (unit mm)*
G04 Created by KiCad (PCBNEW 9.0.3) date 2025-09-21 19:45:40*
%MOMM*%
%LPD*%
G01*
G04 APERTURE LIST*
G04 Aperture macros list*
%AMRoundRect*
0 Rectangle with rounded corners*
0 $1 Rounding radius*
0 $2 $3 $4 $5 $6 $7 $8 $9 X,Y pos of 4 corners*
0 Add a 4 corners polygon primitive as box body*
4,1,4,$2,$3,$4,$5,$6,$7,$8,$9,$2,$3,0*
0 Add four circle primitives for the rounded corners*
1,1,$1+$1,$2,$3*
1,1,$1+$1,$4,$5*
1,1,$1+$1,$6,$7*
1,1,$1+$1,$8,$9*
0 Add four rect primitives between the rounded corners*
20,1,$1+$1,$2,$3,$4,$5,0*
20,1,$1+$1,$4,$5,$6,$7,0*
20,1,$1+$1,$6,$7,$8,$9,0*
20,1,$1+$1,$8,$9,$2,$3,0*%
G04 Aperture macros list end*
%TA.AperFunction,ComponentPad*%
%ADD10R,1.700000X1.700000*%
%TD*%
%TA.AperFunction,ComponentPad*%
%ADD11C,1.700000*%
%TD*%
%TA.AperFunction,ComponentPad*%
%ADD12C,1.600000*%
%TD*%
%TA.AperFunction,ComponentPad*%
%ADD13RoundRect,0.250000X-0.550000X-0.550000X0.550000X-0.550000X0.550000X0.550000X-0.550000X0.550000X0*%
%TD*%
%TA.AperFunction,ComponentPad*%
%ADD14RoundRect,0.250000X0.600000X-0.600000X0.600000X0.600000X-0.600000X0.600000X-0.600000X-0.600000X0*%
%TD*%
%TA.AperFunction,ViaPad*%
%ADD15C,0.600000*%
%TD*%
%TA.AperFunction,Conductor*%
%ADD16C,0.200000*%
%TD*%
G04 APERTURE END LIST*
D10*
%TO.P,J17,1,Pin_1*%
%TO.N,Net-(J16-Pin_1)*%
X251940989Y-212515543D03*
D11*
%TO.P,J17,2,Pin_2*%
%TO.N,Net-(J17-Pin_2)*%
X249400989Y-212515543D03*
%TO.P,J17,3,Pin_3*%
%TO.N,Net-(J16-Pin_3)*%
X246860989Y-212515543D03*
%TO.P,J17,4,Pin_4*%
%TO.N,Net-(J16-Pin_4)*%
X244320989Y-212515543D03*
%TD*%
D10*
%TO.P,J16,1,Pin_1*%
%TO.N,Net-(J16-Pin_1)*%
X251905938Y-51980493D03*
D11*
%TO.P,J16,2,Pin_2*%
%TO.N,Net-(J16-Pin_2)*%
X249365938Y-51980493D03*
%TO.P,J16,3,Pin_3*%
%TO.N,Net-(J16-Pin_3)*%
X246825938Y-51980493D03*
%TO.P,J16,4,Pin_4*%
%TO.N,Net-(J16-Pin_4)*%
X244285938Y-51980493D03*
%TD*%
D12*
%TO.P,U9,16,VCC*%
%TO.N,VCC*%
X245620000Y-138580000D03*
%TO.P,U9,15,~{CE}*%
%TO.N,Net-(J16-Pin_1)*%
X245620000Y-136040000D03*
%TO.P,U9,14,D3*%
%TO.N,Net-(J5-Pin_9)*%
X245620000Y-133500000D03*
%TO.P,U9,13,D2*%
%TO.N,Net-(J4-Pin_9)*%
X245620000Y-130960000D03*
%TO.P,U9,12,D1*%
%TO.N,Net-(J3-Pin_9)*%
X245620000Y-128420000D03*
%TO.P,U9,11,D0*%
%TO.N,Net-(J2-Pin_9)*%
X245620000Y-125880000D03*
%TO.P,U9,10,DS*%
%TO.N,Net-(J17-Pin_2)*%
X245620000Y-123340000D03*
%TO.P,U9,9,Q7*%
%TO.N,Net-(J16-Pin_2)*%
X245620000Y-120800000D03*
%TO.P,U9,8,GND*%
%TO.N,GND*%
X238000000Y-120800000D03*
%TO.P,U9,7,~{Q7}*%
%TO.N,unconnected-(U9-~{Q7}-Pad7)*%
X238000000Y-123340000D03*
%TO.P,U9,6,D7*%
%TO.N,Net-(J9-Pin_9)*%
X238000000Y-125880000D03*
%TO.P,U9,5,D6*%
%TO.N,Net-(J8-Pin_9)*%
X238000000Y-128420000D03*
%TO.P,U9,4,D5*%
%TO.N,Net-(J7-Pin_9)*%
X238000000Y-130960000D03*
%TO.P,U9,3,D4*%
%TO.N,Net-(J6-Pin_9)*%
X238000000Y-133500000D03*
%TO.P,U9,2,CP*%
%TO.N,Net-(J16-Pin_3)*%
X238000000Y-136040000D03*
D13*
%TO.P,U9,1,~{PL}*%
%TO.N,Net-(J16-Pin_4)*%
X238000000Y-138580000D03*
%TD*%
D11*
%TO.P,J2,10,Pin_10*%
%TO.N,VCC*%
X226040000Y-54000000D03*
%TO.P,J2,9,Pin_9*%
%TO.N,Net-(J2-Pin_9)*%
X226040000Y-56540000D03*
%TO.P,J2,8,Pin_8*%
%TO.N,Net-(J2-Pin_8)*%
X223500000Y-54000000D03*
%TO.P,J2,7,Pin_7*%
%TO.N,Net-(J2-Pin_7)*%
X223500000Y-56540000D03*
%TO.P,J2,6,Pin_6*%
%TO.N,Net-(J10-Pin_2)*%
X220960000Y-54000000D03*
%TO.P,J2,5,Pin_5*%
%TO.N,Net-(J2-Pin_5)*%
X220960000Y-56540000D03*
%TO.P,J2,4,Pin_4*%
%TO.N,Net-(J10-Pin_1)*%
X218420000Y-54000000D03*
%TO.P,J2,3,Pin_3*%
%TO.N,Net-(J2-Pin_3)*%
X218420000Y-56540000D03*
%TO.P,J2,2,Pin_2*%
%TO.N,Net-(J10-Pin_3)*%
X215880000Y-54000000D03*
D14*
%TO.P,J2,1,Pin_1*%
%TO.N,GND*%
X215880000Y-56540000D03*
%TD*%
D11*
%TO.P,J6,10,Pin_10*%
%TO.N,VCC*%
X225664057Y-141933697D03*
%TO.P,J6,9,Pin_9*%
%TO.N,Net-(J6-Pin_9)*%
X225664057Y-144473697D03*
%TO.P,J6,8,Pin_8*%
%TO.N,Net-(J6-Pin_8)*%
X223124057Y-141933697D03*
%TO.P,J6,7,Pin_7*%
%TO.N,Net-(J6-Pin_7)*%
X223124057Y-144473697D03*
%TO.P,J6,6,Pin_6*%
%TO.N,Net-(J10-Pin_2)*%
X220584057Y-141933697D03*
%TO.P,J6,5,Pin_5*%
%TO.N,Net-(J6-Pin_5)*%
X220584057Y-144473697D03*
%TO.P,J6,4,Pin_4*%
%TO.N,Net-(J10-Pin_1)*%
X218044057Y-141933697D03*
%TO.P,J6,3,Pin_3*%
%TO.N,Net-(J6-Pin_3)*%
X218044057Y-144473697D03*
%TO.P,J6,2,Pin_2*%
%TO.N,Net-(J5-Pin_8)*%
X215504057Y-141933697D03*
D14*
%TO.P,J6,1,Pin_1*%
%TO.N,GND*%
X215504057Y-144473697D03*
%TD*%
D11*
%TO.P,J8,10,Pin_10*%
%TO.N,VCC*%
X225660000Y-185997783D03*
%TO.P,J8,9,Pin_9*%
%TO.N,Net-(J8-Pin_9)*%
X225660000Y-188537783D03*
%TO.P,J8,8,Pin_8*%
%TO.N,Net-(J8-Pin_8)*%
X223120000Y-185997783D03*
%TO.P,J8,7,Pin_7*%
%TO.N,Net-(J8-Pin_7)*%
X223120000Y-188537783D03*
%TO.P,J8,6,Pin_6*%
%TO.N,Net-(J10-Pin_2)*%
X220580000Y-185997783D03*
%TO.P,J8,5,Pin_5*%
%TO.N,Net-(J8-Pin_5)*%
X220580000Y-188537783D03*
%TO.P,J8,4,Pin_4*%
%TO.N,Net-(J10-Pin_1)*%
X218040000Y-185997783D03*
%TO.P,J8,3,Pin_3*%
%TO.N,Net-(J8-Pin_3)*%
X218040000Y-188537783D03*
%TO.P,J8,2,Pin_2*%
%TO.N,Net-(J7-Pin_8)*%
X215500000Y-185997783D03*
D14*
%TO.P,J8,1,Pin_1*%
%TO.N,GND*%
X215500000Y-188537783D03*
%TD*%
D11*
%TO.P,J7,10,Pin_10*%
%TO.N,VCC*%
X225695131Y-163965740D03*
%TO.P,J7,9,Pin_9*%
%TO.N,Net-(J7-Pin_9)*%
X225695131Y-166505740D03*
%TO.P,J7,8,Pin_8*%
%TO.N,Net-(J7-Pin_8)*%
X223155131Y-163965740D03*
%TO.P,J7,7,Pin_7*%
%TO.N,Net-(J7-Pin_7)*%
X223155131Y-166505740D03*
%TO.P,J7,6,Pin_6*%
%TO.N,Net-(J10-Pin_2)*%
X220615131Y-163965740D03*
%TO.P,J7,5,Pin_5*%
%TO.N,Net-(J7-Pin_5)*%
X220615131Y-166505740D03*
%TO.P,J7,4,Pin_4*%
%TO.N,Net-(J10-Pin_1)*%
X218075131Y-163965740D03*
%TO.P,J7,3,Pin_3*%
%TO.N,Net-(J7-Pin_3)*%
X218075131Y-166505740D03*
%TO.P,J7,2,Pin_2*%
%TO.N,Net-(J6-Pin_8)*%
X215535131Y-163965740D03*
D14*
%TO.P,J7,1,Pin_1*%
%TO.N,GND*%
X215535131Y-166505740D03*
%TD*%
D13*
%TO.P,U5,1,A4*%
%TO.N,Net-(J8-Pin_7)*%
X195500000Y-187740000D03*
D12*
%TO.P,U5,2,A6*%
%TO.N,Net-(J9-Pin_5)*%
X195500000Y-185200000D03*
%TO.P,U5,3,A*%
%TO.N,Net-(J13-Pin_3)*%
X195500000Y-182660000D03*
%TO.P,U5,4,A7*%
%TO.N,Net-(J9-Pin_7)*%
X195500000Y-180120000D03*
%TO.P,U5,5,A5*%
%TO.N,Net-(J9-Pin_3)*%
X195500000Y-177580000D03*
%TO.P,U5,6,~{E}*%
%TO.N,GND*%
X195500000Y-175040000D03*
%TO.P,U5,7,VEE*%
%TO.N,VCC*%
X195500000Y-172500000D03*
%TO.P,U5,8,GND*%
%TO.N,GND*%
X195500000Y-169960000D03*
%TO.P,U5,9,S2*%
%TO.N,Net-(J12-Pin_1)*%
X203120000Y-169960000D03*
%TO.P,U5,10,S1*%
%TO.N,Net-(J12-Pin_2)*%
X203120000Y-172500000D03*
%TO.P,U5,11,S0*%
%TO.N,Net-(J12-Pin_3)*%
X203120000Y-175040000D03*
%TO.P,U5,12,A3*%
%TO.N,Net-(J8-Pin_5)*%
X203120000Y-177580000D03*
%TO.P,U5,13,A0*%
%TO.N,Net-(J7-Pin_5)*%
X203120000Y-180120000D03*
%TO.P,U5,14,A1*%
%TO.N,Net-(J7-Pin_7)*%
X203120000Y-182660000D03*
%TO.P,U5,15,A2*%
%TO.N,Net-(J8-Pin_3)*%
X203120000Y-185200000D03*
%TO.P,U5,16,VCC*%
%TO.N,VCC*%
X203120000Y-187740000D03*
%TD*%
D13*
%TO.P,U4,1,A4*%
%TO.N,Net-(J6-Pin_3)*%
X195195000Y-139890000D03*
D12*
%TO.P,U4,2,A6*%
%TO.N,Net-(J6-Pin_7)*%
X195195000Y-137350000D03*
%TO.P,U4,3,A*%
%TO.N,Net-(J13-Pin_2)*%
X195195000Y-134810000D03*
%TO.P,U4,4,A7*%
%TO.N,Net-(J7-Pin_3)*%
X195195000Y-132270000D03*
%TO.P,U4,5,A5*%
%TO.N,Net-(J6-Pin_5)*%
X195195000Y-129730000D03*
%TO.P,U4,6,~{E}*%
%TO.N,GND*%
X195195000Y-127190000D03*
%TO.P,U4,7,VEE*%
%TO.N,VCC*%
X195195000Y-124650000D03*
%TO.P,U4,8,GND*%
%TO.N,GND*%
X195195000Y-122110000D03*
%TO.P,U4,9,S2*%
%TO.N,Net-(J12-Pin_1)*%
X202815000Y-122110000D03*
%TO.P,U4,10,S1*%
%TO.N,Net-(J12-Pin_2)*%
X202815000Y-124650000D03*
%TO.P,U4,11,S0*%
%TO.N,Net-(J12-Pin_3)*%
X202815000Y-127190000D03*
%TO.P,U4,12,A3*%
%TO.N,Net-(J5-Pin_7)*%
X202815000Y-129730000D03*
%TO.P,U4,13,A0*%
%TO.N,Net-(J4-Pin_7)*%
X202815000Y-132270000D03*
%TO.P,U4,14,A1*%
%TO.N,Net-(J5-Pin_3)*%
X202815000Y-134810000D03*
%TO.P,U4,15,A2*%
%TO.N,Net-(J5-Pin_5)*%
X202815000Y-137350000D03*
%TO.P,U4,16,VCC*%
%TO.N,VCC*%
X202815000Y-139890000D03*
%TD*%
D10*
%TO.P,J15,1,Pin_1*%
%TO.N,VCC*%
X236725000Y-52000000D03*
D11*
%TO.P,J15,2,Pin_2*%
%TO.N,GND*%
X239265000Y-52000000D03*
%TD*%
D10*
%TO.P,J14,1,Pin_1*%
%TO.N,VCC*%
X236725000Y-212500000D03*
D11*
%TO.P,J14,2,Pin_2*%
%TO.N,GND*%
X239265000Y-212500000D03*
%TD*%
D10*
%TO.P,J13,1,Pin_1*%
%TO.N,Net-(J13-Pin_1)*%
X188500000Y-128460000D03*
D11*
%TO.P,J13,2,Pin_2*%
%TO.N,Net-(J13-Pin_2)*%
X188500000Y-131000000D03*
%TO.P,J13,3,Pin_3*%
%TO.N,Net-(J13-Pin_3)*%
X188500000Y-133540000D03*
%TD*%
D10*
%TO.P,J12,1,Pin_1*%
%TO.N,Net-(J12-Pin_1)*%
X188500000Y-110000000D03*
D11*
%TO.P,J12,2,Pin_2*%
%TO.N,Net-(J12-Pin_2)*%
X188500000Y-112540000D03*
%TO.P,J12,3,Pin_3*%
%TO.N,Net-(J12-Pin_3)*%
X188500000Y-115080000D03*
%TD*%
D10*
%TO.P,J11,1,Pin_1*%
%TO.N,Net-(J10-Pin_1)*%
X196749222Y-212446259D03*
D11*
%TO.P,J11,2,Pin_2*%
%TO.N,Net-(J10-Pin_2)*%
X199289222Y-212446259D03*
%TO.P,J11,3,Pin_3*%
%TO.N,Net-(J11-Pin_3)*%
X201829222Y-212446259D03*
%TD*%
D10*
%TO.P,J10,1,Pin_1*%
%TO.N,Net-(J10-Pin_1)*%
X196777787Y-52004510D03*
D11*
%TO.P,J10,2,Pin_2*%
%TO.N,Net-(J10-Pin_2)*%
X199317787Y-52004510D03*
%TO.P,J10,3,Pin_3*%
%TO.N,Net-(J10-Pin_3)*%
X201857787Y-52004510D03*
%TD*%
D14*
%TO.P,J5,1,Pin_1*%
%TO.N,GND*%
X216047134Y-122500000D03*
D11*
%TO.P,J5,2,Pin_2*%
%TO.N,Net-(J4-Pin_8)*%
X216047134Y-119960000D03*
%TO.P,J5,3,Pin_3*%
%TO.N,Net-(J5-Pin_3)*%
X218587134Y-122500000D03*
%TO.P,J5,4,Pin_4*%
%TO.N,Net-(J10-Pin_1)*%
X218587134Y-119960000D03*
%TO.P,J5,5,Pin_5*%
%TO.N,Net-(J5-Pin_5)*%
X221127134Y-122500000D03*
%TO.P,J5,6,Pin_6*%
%TO.N,Net-(J10-Pin_2)*%
X221127134Y-119960000D03*
%TO.P,J5,7,Pin_7*%
%TO.N,Net-(J5-Pin_7)*%
X223667134Y-122500000D03*
%TO.P,J5,8,Pin_8*%
%TO.N,Net-(J5-Pin_8)*%
X223667134Y-119960000D03*
%TO.P,J5,9,Pin_9*%
%TO.N,Net-(J5-Pin_9)*%
X226207134Y-122500000D03*
%TO.P,J5,10,Pin_10*%
%TO.N,VCC*%
X226207134Y-119960000D03*
%TD*%
D14*
%TO.P,J4,1,Pin_1*%
%TO.N,GND*%
X216000000Y-100540000D03*
D11*
%TO.P,J4,2,Pin_2*%
%TO.N,Net-(J3-Pin_8)*%
X216000000Y-98000000D03*
%TO.P,J4,3,Pin_3*%
%TO.N,Net-(J4-Pin_3)*%
X218540000Y-100540000D03*
%TO.P,J4,4,Pin_4*%
%TO.N,Net-(J10-Pin_1)*%
X218540000Y-98000000D03*
%TO.P,J4,5,Pin_5*%
%TO.N,Net-(J4-Pin_5)*%
X221080000Y-100540000D03*
%TO.P,J4,6,Pin_6*%
%TO.N,Net-(J10-Pin_2)*%
X221080000Y-98000000D03*
%TO.P,J4,7,Pin_7*%
%TO.N,Net-(J4-Pin_7)*%
X223620000Y-100540000D03*
%TO.P,J4,8,Pin_8*%
%TO.N,Net-(J4-Pin_8)*%
X223620000Y-98000000D03*
%TO.P,J4,9,Pin_9*%
%TO.N,Net-(J4-Pin_9)*%
X226160000Y-100540000D03*
%TO.P,J4,10,Pin_10*%
%TO.N,VCC*%
X226160000Y-98000000D03*
%TD*%
D14*
%TO.P,J3,1,Pin_1*%
%TO.N,GND*%
X215840000Y-78500000D03*
D11*
%TO.P,J3,2,Pin_2*%
%TO.N,Net-(J2-Pin_8)*%
X215840000Y-75960000D03*
%TO.P,J3,3,Pin_3*%
%TO.N,Net-(J3-Pin_3)*%
X218380000Y-78500000D03*
%TO.P,J3,4,Pin_4*%
%TO.N,Net-(J10-Pin_1)*%
X218380000Y-75960000D03*
%TO.P,J3,5,Pin_5*%
%TO.N,Net-(J3-Pin_5)*%
X220920000Y-78500000D03*
%TO.P,J3,6,Pin_6*%
%TO.N,Net-(J10-Pin_2)*%
X220920000Y-75960000D03*
%TO.P,J3,7,Pin_7*%
%TO.N,Net-(J3-Pin_7)*%
X223460000Y-78500000D03*
%TO.P,J3,8,Pin_8*%
%TO.N,Net-(J3-Pin_8)*%
X223460000Y-75960000D03*
%TO.P,J3,9,Pin_9*%
%TO.N,Net-(J3-Pin_9)*%
X226000000Y-78500000D03*
%TO.P,J3,10,Pin_10*%
%TO.N,VCC*%
X226000000Y-75960000D03*
%TD*%
D12*
%TO.P,U3,16,VCC*%
%TO.N,VCC*%
X203000000Y-95540000D03*
%TO.P,U3,15,A2*%
%TO.N,Net-(J2-Pin_7)*%
X203000000Y-93000000D03*
%TO.P,U3,14,A1*%
%TO.N,Net-(J2-Pin_5)*%
X203000000Y-90460000D03*
%TO.P,U3,13,A0*%
%TO.N,Net-(J2-Pin_3)*%
X203000000Y-87920000D03*
%TO.P,U3,12,A3*%
%TO.N,Net-(J3-Pin_3)*%
X203000000Y-85380000D03*
%TO.P,U3,11,S0*%
%TO.N,Net-(J12-Pin_3)*%
X203000000Y-82840000D03*
%TO.P,U3,10,S1*%
%TO.N,Net-(J12-Pin_2)*%
X203000000Y-80300000D03*
%TO.P,U3,9,S2*%
%TO.N,Net-(J12-Pin_1)*%
X203000000Y-77760000D03*
%TO.P,U3,8,GND*%
%TO.N,GND*%
X195380000Y-77760000D03*
%TO.P,U3,7,VEE*%
%TO.N,VCC*%
X195380000Y-80300000D03*
%TO.P,U3,6,~{E}*%
%TO.N,GND*%
X195380000Y-82840000D03*
%TO.P,U3,5,A5*%
%TO.N,Net-(J3-Pin_7)*%
X195380000Y-85380000D03*
%TO.P,U3,4,A7*%
%TO.N,Net-(J4-Pin_5)*%
X195380000Y-87920000D03*
%TO.P,U3,3,A*%
%TO.N,Net-(J13-Pin_1)*%
X195380000Y-90460000D03*
%TO.P,U3,2,A6*%
%TO.N,Net-(J4-Pin_3)*%
X195380000Y-93000000D03*
D13*
%TO.P,U3,1,A4*%
%TO.N,Net-(J3-Pin_5)*%
X195380000Y-95540000D03*
%TD*%
D11*
%TO.P,J9,10,Pin_10*%
%TO.N,VCC*%
X225672191Y-207913662D03*
%TO.P,J9,9,Pin_9*%
%TO.N,Net-(J9-Pin_9)*%
X225672191Y-210453662D03*
%TO.P,J9,8,Pin_8*%
%TO.N,Net-(J11-Pin_3)*%
X223132191Y-207913662D03*
%TO.P,J9,7,Pin_7*%
%TO.N,Net-(J9-Pin_7)*%
X223132191Y-210453662D03*
%TO.P,J9,6,Pin_6*%
%TO.N,Net-(J10-Pin_2)*%
X220592191Y-207913662D03*
%TO.P,J9,5,Pin_5*%
%TO.N,Net-(J9-Pin_5)*%
X220592191Y-210453662D03*
%TO.P,J9,4,Pin_4*%
%TO.N,Net-(J10-Pin_1)*%
X218052191Y-207913662D03*
%TO.P,J9,3,Pin_3*%
%TO.N,Net-(J9-Pin_3)*%
X218052191Y-210453662D03*
%TO.P,J9,2,Pin_2*%
%TO.N,Net-(J8-Pin_8)*%
X215512191Y-207913662D03*
D14*
%TO.P,J9,1,Pin_1*%
%TO.N,GND*%
X215512191Y-210453662D03*
%TD*%
D15*
%TO.N,Net-(J11-Pin_3)*%
X227553741Y-212446259D03*
%TO.N,VCC*%
X229000000Y-204585853D03*
%TO.N,GND*%
X240000000Y-61500000D03*
%TO.N,Net-(J8-Pin_9)*%
X241350000Y-142500000D03*
%TO.N,Net-(J9-Pin_9)*%
X242200003Y-142500000D03*
X242000000Y-194125853D03*
%TO.N,VCC*%
X228500000Y-145000000D03*
%TO.N,Net-(J7-Pin_9)*%
X240000000Y-143000000D03*
%TO.N,Net-(J9-Pin_7)*%
X192000000Y-182000000D03*
%TO.N,Net-(J10-Pin_2)*%
X219500000Y-198000000D03*
%TO.N,Net-(J10-Pin_1)*%
X216651000Y-197500000D03*
%TO.N,Net-(J8-Pin_7)*%
X221000000Y-193000000D03*
%TO.N,Net-(J8-Pin_5)*%
X200000000Y-186500000D03*
%TO.N,VCC*%
X197500000Y-160500000D03*
X201000000Y-160500000D03*
%TO.N,GND*%
X214349000Y-171000000D03*
%TO.N,Net-(J7-Pin_7)*%
X220500000Y-170500000D03*
%TO.N,Net-(J7-Pin_3)*%
X190500000Y-132000000D03*
%TO.N,GND*%
X214500000Y-108500000D03*
X202000000Y-116000000D03*
%TO.N,Net-(J6-Pin_7)*%
X191150000Y-140000000D03*
X220500000Y-149000000D03*
%TO.N,Net-(J5-Pin_7)*%
X211500000Y-133500000D03*
X221000000Y-127500000D03*
%TO.N,Net-(J4-Pin_7)*%
X221000000Y-106000000D03*
%TO.N,Net-(J3-Pin_7)*%
X213000000Y-88500000D03*
X221000000Y-83000000D03*
%TO.N,Net-(J3-Pin_3)*%
X211000000Y-85000000D03*
%TO.N,Net-(J2-Pin_7)*%
X221000000Y-60500000D03*
%TD*%
D16*
%TO.N,Net-(J12-Pin_1)*%
X190705000Y-110000000D02*
X202815000Y-122110000D01*
%TO.N,Net-(J4-Pin_5)*%
X191000000Y-97500000D02*
X191000000Y-88500000D01*
X196000000Y-102500000D02*
X191000000Y-97500000D01*
X191000000Y-88500000D02*
X191580000Y-87920000D01*
X191580000Y-87920000D02*
X195380000Y-87920000D01*
X219120000Y-102500000D02*
X196000000Y-102500000D01*
X221080000Y-100540000D02*
X219120000Y-102500000D01*
%TO.N,GND*%
X238000000Y-213765000D02*
X239265000Y-212500000D01*
X219500000Y-214500000D02*
X238000000Y-214500000D01*
X215500000Y-210500000D02*
X219500000Y-214500000D01*
X215512191Y-210487809D02*
X215500000Y-210500000D01*
X215512191Y-210453662D02*
X215512191Y-210487809D01*
X238000000Y-214500000D02*
X238000000Y-213765000D01*
%TO.N,VCC*%
X229000000Y-204500000D02*
X229000000Y-204585853D01*
X236725000Y-212225000D02*
X229000000Y-204500000D01*
X236725000Y-212500000D02*
X236725000Y-212225000D01*
%TO.N,GND*%
X239265000Y-60765000D02*
X239265000Y-52000000D01*
X240000000Y-61500000D02*
X239265000Y-60765000D01*
%TO.N,Net-(J9-Pin_9)*%
X242000000Y-142700003D02*
X242200003Y-142500000D01*
X242000000Y-194125853D02*
X242000000Y-142700003D01*
%TO.N,Net-(J8-Pin_9)*%
X241350000Y-172847783D02*
X241350000Y-142500000D01*
X225660000Y-188537783D02*
X241350000Y-172847783D01*
%TO.N,Net-(J7-Pin_9)*%
X225695131Y-166505740D02*
X240000000Y-152200871D01*
X240000000Y-152200871D02*
X240000000Y-143000000D01*
%TO.N,VCC*%
X231500000Y-142000000D02*
X228500000Y-145000000D01*
X240080761Y-142000000D02*
X231500000Y-142000000D01*
X241084993Y-140995768D02*
X240080761Y-142000000D01*
X245620000Y-138580000D02*
X243415063Y-138580000D01*
X243415063Y-138580000D02*
X241084993Y-140910070D01*
X241084993Y-140910070D02*
X241084993Y-140995768D01*
%TO.N,Net-(J6-Pin_9)*%
X236637754Y-133500000D02*
X238000000Y-133500000D01*
X225664057Y-144473697D02*
X236637754Y-133500000D01*
%TO.N,Net-(J9-Pin_7)*%
X192000000Y-182000000D02*
X193620000Y-182000000D01*
X193620000Y-182000000D02*
X195500000Y-180120000D01*
%TO.N,Net-(J10-Pin_2)*%
X219000000Y-198000000D02*
X219500000Y-198000000D01*
X218500000Y-198500000D02*
X219000000Y-198000000D01*
X213235481Y-198500000D02*
X218500000Y-198500000D01*
X199289222Y-212446259D02*
X213235481Y-198500000D01*
%TO.N,Net-(J10-Pin_1)*%
X211695481Y-197500000D02*
X216651000Y-197500000D01*
X196749222Y-212446259D02*
X211695481Y-197500000D01*
%TO.N,Net-(J11-Pin_3)*%
X228500000Y-206500000D02*
X228500000Y-211500000D01*
X228500000Y-211500000D02*
X227553741Y-212446259D01*
X224545853Y-206500000D02*
X228500000Y-206500000D01*
X223132191Y-207913662D02*
X224545853Y-206500000D01*
%TO.N,Net-(J8-Pin_7)*%
X200760000Y-193000000D02*
X195500000Y-187740000D01*
X221000000Y-193000000D02*
X200760000Y-193000000D01*
%TO.N,Net-(J8-Pin_5)*%
X201000000Y-187500000D02*
X200000000Y-186500000D01*
X201000000Y-191500000D02*
X201000000Y-187500000D01*
X220580000Y-188537783D02*
X217617783Y-191500000D01*
%TO.N,Net-(J8-Pin_3)*%
X208000000Y-190080000D02*
X203120000Y-185200000D01*
X218040000Y-188537783D02*
X216497783Y-190080000D01*
%TO.N,Net-(J8-Pin_5)*%
X217617783Y-191500000D02*
X201000000Y-191500000D01*
%TO.N,Net-(J8-Pin_3)*%
X216497783Y-190080000D02*
X208000000Y-190080000D01*
%TO.N,VCC*%
X201000000Y-160500000D02*
X197500000Y-160500000D01*
%TO.N,GND*%
X195500000Y-169960000D02*
X198960000Y-166500000D01*
X209849000Y-166500000D02*
X214349000Y-171000000D01*
X198960000Y-166500000D02*
X209849000Y-166500000D01*
%TO.N,Net-(J7-Pin_5)*%
X220615131Y-166505740D02*
X220615131Y-167707821D01*
X220615131Y-167707821D02*
X208202952Y-180120000D01*
X208202952Y-180120000D02*
X203120000Y-180120000D01*
%TO.N,Net-(J7-Pin_7)*%
X208340000Y-182660000D02*
X203120000Y-182660000D01*
X220500000Y-170500000D02*
X208340000Y-182660000D01*
%TO.N,Net-(J7-Pin_3)*%
X190500000Y-143456769D02*
X190500000Y-132000000D01*
X214699971Y-167656740D02*
X190500000Y-143456769D01*
X216924131Y-167656740D02*
X214699971Y-167656740D01*
X218075131Y-166505740D02*
X216924131Y-167656740D01*
%TO.N,Net-(J6-Pin_5)*%
X191500000Y-139430761D02*
X191500000Y-133425000D01*
X191500000Y-133425000D02*
X195195000Y-129730000D01*
X200569239Y-148500000D02*
X191500000Y-139430761D01*
X216557754Y-148500000D02*
X200569239Y-148500000D01*
X220584057Y-144473697D02*
X216557754Y-148500000D01*
%TO.N,Net-(J6-Pin_7)*%
X196608917Y-149000000D02*
X191150000Y-143541083D01*
X220500000Y-149000000D02*
X196608917Y-149000000D01*
X191150000Y-143541083D02*
X191150000Y-140000000D01*
%TO.N,GND*%
X207000000Y-116000000D02*
X214500000Y-108500000D01*
X202000000Y-116000000D02*
X207000000Y-116000000D01*
%TO.N,Net-(J6-Pin_3)*%
X195195000Y-141695000D02*
X195195000Y-139890000D01*
X201500000Y-148000000D02*
X195195000Y-141695000D01*
X218044057Y-144473697D02*
X214517754Y-148000000D01*
X214517754Y-148000000D02*
X201500000Y-148000000D01*
%TO.N,Net-(J5-Pin_7)*%
X215000000Y-133500000D02*
X211500000Y-133500000D01*
X221000000Y-127500000D02*
X215000000Y-133500000D01*
%TO.N,Net-(J5-Pin_5)*%
X206277134Y-137350000D02*
X202815000Y-137350000D01*
X221127134Y-122500000D02*
X206277134Y-137350000D01*
%TO.N,Net-(J5-Pin_3)*%
X206277134Y-134810000D02*
X202815000Y-134810000D01*
X218587134Y-122500000D02*
X206277134Y-134810000D01*
%TO.N,Net-(J12-Pin_3)*%
X202475760Y-127190000D02*
X202815000Y-127190000D01*
X188500000Y-115080000D02*
X190365760Y-115080000D01*
X190365760Y-115080000D02*
X202475760Y-127190000D01*
%TO.N,Net-(J12-Pin_2)*%
X200610000Y-124650000D02*
X202815000Y-124650000D01*
X188500000Y-112540000D02*
X200610000Y-124650000D01*
%TO.N,Net-(J12-Pin_1)*%
X188500000Y-110000000D02*
X190705000Y-110000000D01*
%TO.N,VCC*%
X199500000Y-92040000D02*
X203000000Y-95540000D01*
X199500000Y-84420000D02*
X199500000Y-92040000D01*
X195380000Y-80300000D02*
X199500000Y-84420000D01*
%TO.N,Net-(J4-Pin_7)*%
X206500000Y-129500000D02*
X205585000Y-129500000D01*
X205585000Y-129500000D02*
X202815000Y-132270000D01*
X221000000Y-106000000D02*
X206500000Y-120500000D01*
X206500000Y-120500000D02*
X206500000Y-129500000D01*
%TO.N,Net-(J4-Pin_3)*%
X193500000Y-93000000D02*
X195380000Y-93000000D01*
X192000000Y-94500000D02*
X193500000Y-93000000D01*
X197191000Y-101691000D02*
X192000000Y-96500000D01*
X217389000Y-101691000D02*
X197191000Y-101691000D01*
X192000000Y-96500000D02*
X192000000Y-94500000D01*
X218540000Y-100540000D02*
X217389000Y-101691000D01*
%TO.N,Net-(J3-Pin_7)*%
X215500000Y-88500000D02*
X213000000Y-88500000D01*
X221000000Y-83000000D02*
X215500000Y-88500000D01*
%TO.N,Net-(J3-Pin_5)*%
X198340000Y-98500000D02*
X195380000Y-95540000D01*
X206500000Y-98500000D02*
X198340000Y-98500000D01*
X206500000Y-92920000D02*
X206500000Y-98500000D01*
X220920000Y-78500000D02*
X206500000Y-92920000D01*
%TO.N,Net-(J3-Pin_3)*%
X211880000Y-85000000D02*
X211000000Y-85000000D01*
X218380000Y-78500000D02*
X211880000Y-85000000D01*
%TO.N,VCC*%
X199000000Y-127000000D02*
X197545000Y-127000000D01*
X199000000Y-136075000D02*
X199000000Y-127000000D01*
X197545000Y-127000000D02*
X195195000Y-124650000D01*
X202815000Y-139890000D02*
X199000000Y-136075000D01*
X198000000Y-175000000D02*
X195500000Y-172500000D01*
X199000000Y-175000000D02*
X198000000Y-175000000D01*
X199000000Y-183620000D02*
X199000000Y-175000000D01*
X203120000Y-187740000D02*
X199000000Y-183620000D01*
%TO.N,GND*%
X193500000Y-174000000D02*
X194460000Y-174000000D01*
X193000000Y-171000000D02*
X193000000Y-173500000D01*
X193000000Y-173500000D02*
X193500000Y-174000000D01*
X194000000Y-170000000D02*
X193000000Y-171000000D01*
X194460000Y-174000000D02*
X195500000Y-175040000D01*
X195000000Y-170000000D02*
X194000000Y-170000000D01*
X195040000Y-169960000D02*
X195000000Y-170000000D01*
X195500000Y-169960000D02*
X195040000Y-169960000D01*
X193000000Y-124305000D02*
X195195000Y-122110000D01*
X193000000Y-124995000D02*
X193000000Y-124305000D01*
X195195000Y-127190000D02*
X193000000Y-124995000D01*
X214000000Y-56500000D02*
X214040000Y-56540000D01*
X195380000Y-75120000D02*
X214000000Y-56500000D01*
X214040000Y-56540000D02*
X215880000Y-56540000D01*
X195380000Y-77760000D02*
X195380000Y-75120000D01*
X193740000Y-77760000D02*
X195380000Y-77760000D01*
X193340000Y-82840000D02*
X193000000Y-82500000D01*
X193000000Y-82500000D02*
X193000000Y-78500000D01*
X193000000Y-78500000D02*
X193740000Y-77760000D01*
X195380000Y-82840000D02*
X193340000Y-82840000D01*
%TO.N,Net-(J5-Pin_9)*%
X243620000Y-131500000D02*
X245620000Y-133500000D01*
X242500000Y-131500000D02*
X243620000Y-131500000D01*
X242500000Y-119500000D02*
X242500000Y-131500000D01*
X239500000Y-116500000D02*
X242500000Y-119500000D01*
X232207134Y-116500000D02*
X239500000Y-116500000D01*
%TO.N,Net-(J4-Pin_9)*%
X242900000Y-117280000D02*
X242900000Y-128240000D01*
X242900000Y-128240000D02*
X245620000Y-130960000D01*
%TO.N,Net-(J3-Pin_9)*%
X243300000Y-126100000D02*
X245620000Y-128420000D01*
%TO.N,Net-(J4-Pin_9)*%
X226160000Y-100540000D02*
X242900000Y-117280000D01*
%TO.N,Net-(J5-Pin_9)*%
X226207134Y-122500000D02*
X232207134Y-116500000D01*
%TO.N,Net-(J3-Pin_9)*%
X243300000Y-95800000D02*
X243300000Y-126100000D01*
X226000000Y-78500000D02*
X243300000Y-95800000D01*
%TO.N,Net-(J2-Pin_9)*%
X247120000Y-125880000D02*
X245620000Y-125880000D01*
X249500000Y-80000000D02*
X249500000Y-123500000D01*
X249500000Y-123500000D02*
X247120000Y-125880000D01*
X226040000Y-56540000D02*
X249500000Y-80000000D01*
%TO.N,GND*%
X215540000Y-56540000D02*
X215880000Y-56540000D01*
X213000000Y-54000000D02*
X215540000Y-56540000D01*
X213000000Y-52000000D02*
X213000000Y-54000000D01*
X215399000Y-49601000D02*
X213000000Y-52000000D01*
X239265000Y-52000000D02*
X236866000Y-49601000D01*
X236866000Y-49601000D02*
X215399000Y-49601000D01*
%TO.N,Net-(J2-Pin_7)*%
X209500000Y-86500000D02*
X203000000Y-93000000D01*
X221000000Y-60500000D02*
X209500000Y-72000000D01*
X209500000Y-72000000D02*
X209500000Y-86500000D01*
%TO.N,Net-(J2-Pin_5)*%
X208460000Y-85000000D02*
X203000000Y-90460000D01*
X208500000Y-85000000D02*
X208460000Y-85000000D01*
X208500000Y-69000000D02*
X208500000Y-85000000D01*
X220960000Y-56540000D02*
X208500000Y-69000000D01*
%TO.N,Net-(J2-Pin_3)*%
X207420000Y-83500000D02*
X203000000Y-87920000D01*
X207500000Y-83500000D02*
X207420000Y-83500000D01*
X207500000Y-67460000D02*
X207500000Y-83500000D01*
X218420000Y-56540000D02*
X207500000Y-67460000D01*
%TO.N,Net-(J7-Pin_8)*%
X222060436Y-165060436D02*
X221766131Y-165354741D01*
X221766131Y-165354741D02*
X221766131Y-172733869D01*
X221766131Y-172733869D02*
X215500000Y-179000000D01*
X222060436Y-165060436D02*
X222004131Y-165116740D01*
X215500000Y-179000000D02*
X215500000Y-185997783D01*
X223155131Y-163965740D02*
X222060436Y-165060436D01*
%TO.N,Net-(J3-Pin_8)*%
X222309000Y-77111000D02*
X222309000Y-83691000D01*
X222309000Y-83691000D02*
X216000000Y-90000000D01*
X216000000Y-90000000D02*
X216000000Y-98000000D01*
X223460000Y-75960000D02*
X222309000Y-77111000D01*
%TO.N,Net-(J4-Pin_8)*%
X216047134Y-114547134D02*
X216047134Y-119960000D01*
X222231000Y-108269000D02*
X216000000Y-114500000D01*
X222231000Y-99389000D02*
X222231000Y-108269000D01*
X223620000Y-98000000D02*
X222231000Y-99389000D01*
X216000000Y-114500000D02*
X216047134Y-114547134D01*
%TO.N,Net-(J5-Pin_8)*%
X215504057Y-135004057D02*
X215504057Y-141933697D01*
X215500000Y-135000000D02*
X215504057Y-135004057D01*
X222516134Y-127983866D02*
X215500000Y-135000000D01*
X222516134Y-121111000D02*
X222516134Y-127983866D01*
X223667134Y-119960000D02*
X222516134Y-121111000D01*
%TO.N,Net-(J6-Pin_8)*%
X215535131Y-157535131D02*
X215535131Y-163965740D01*
X215500000Y-157500000D02*
X215535131Y-157535131D01*
X223066303Y-141933697D02*
X221973057Y-143026943D01*
X221973057Y-143026943D02*
X221973057Y-151026943D01*
X223124057Y-141933697D02*
X223066303Y-141933697D01*
X221973057Y-151026943D02*
X215500000Y-157500000D01*
%TO.N,Net-(J8-Pin_8)*%
X215500000Y-203000000D02*
X215512191Y-203012191D01*
X221969000Y-196531000D02*
X215500000Y-203000000D01*
X215512191Y-203012191D02*
X215512191Y-207913662D01*
X221969000Y-187148783D02*
X221969000Y-196531000D01*
X223120000Y-185997783D02*
X221969000Y-187148783D01*
%TO.N,Net-(J2-Pin_8)*%
X222111000Y-65389000D02*
X215840000Y-71660000D01*
X222111000Y-55389000D02*
X222111000Y-65389000D01*
X215840000Y-71660000D02*
X215840000Y-75960000D01*
X223500000Y-54000000D02*
X222111000Y-55389000D01*
%TD*%
M02*
