%TF.GenerationSoftware,KiCad,Pcbnew,9.0.3*%
%TF.CreationDate,2025-09-21T19:45:41+02:00*%
%TF.ProjectId,kosmo song manager backbone board,6b6f736d-6f20-4736-9f6e-67206d616e61,rev?*%
%TF.SameCoordinates,Original*%
%TF.FileFunction,Legend,Bot*%
%TF.FilePolarity,Positive*%
%FSLAX46Y46*%
G04 Gerber Fmt 4.6, Leading zero omitted, Abs format (unit mm)*
G04 Created by KiCad (PCBNEW 9.0.3) date 2025-09-21 19:45:41*
%MOMM*%
%LPD*%
G01*
G04 APERTURE LIST*
%ADD10C,0.100000*%
%ADD11C,0.120000*%
G04 APERTURE END LIST*
D10*
X245064529Y-117843618D02*
X244397863Y-117843618D01*
X244397863Y-117843618D02*
X244826434Y-118843618D01*
X243588339Y-118176951D02*
X243588339Y-118843618D01*
X243826434Y-117795999D02*
X244064529Y-118510284D01*
X244064529Y-118510284D02*
X243445482Y-118510284D01*
X243064529Y-118843618D02*
X243064529Y-117843618D01*
X243064529Y-118319808D02*
X242493101Y-118319808D01*
X242493101Y-118843618D02*
X242493101Y-117843618D01*
X241445482Y-118748379D02*
X241493101Y-118795999D01*
X241493101Y-118795999D02*
X241635958Y-118843618D01*
X241635958Y-118843618D02*
X241731196Y-118843618D01*
X241731196Y-118843618D02*
X241874053Y-118795999D01*
X241874053Y-118795999D02*
X241969291Y-118700760D01*
X241969291Y-118700760D02*
X242016910Y-118605522D01*
X242016910Y-118605522D02*
X242064529Y-118415046D01*
X242064529Y-118415046D02*
X242064529Y-118272189D01*
X242064529Y-118272189D02*
X242016910Y-118081713D01*
X242016910Y-118081713D02*
X241969291Y-117986475D01*
X241969291Y-117986475D02*
X241874053Y-117891237D01*
X241874053Y-117891237D02*
X241731196Y-117843618D01*
X241731196Y-117843618D02*
X241635958Y-117843618D01*
X241635958Y-117843618D02*
X241493101Y-117891237D01*
X241493101Y-117891237D02*
X241445482Y-117938856D01*
X240493101Y-118843618D02*
X241064529Y-118843618D01*
X240778815Y-118843618D02*
X240778815Y-117843618D01*
X240778815Y-117843618D02*
X240874053Y-117986475D01*
X240874053Y-117986475D02*
X240969291Y-118081713D01*
X240969291Y-118081713D02*
X241064529Y-118129332D01*
X239635958Y-117843618D02*
X239826434Y-117843618D01*
X239826434Y-117843618D02*
X239921672Y-117891237D01*
X239921672Y-117891237D02*
X239969291Y-117938856D01*
X239969291Y-117938856D02*
X240064529Y-118081713D01*
X240064529Y-118081713D02*
X240112148Y-118272189D01*
X240112148Y-118272189D02*
X240112148Y-118653141D01*
X240112148Y-118653141D02*
X240064529Y-118748379D01*
X240064529Y-118748379D02*
X240016910Y-118795999D01*
X240016910Y-118795999D02*
X239921672Y-118843618D01*
X239921672Y-118843618D02*
X239731196Y-118843618D01*
X239731196Y-118843618D02*
X239635958Y-118795999D01*
X239635958Y-118795999D02*
X239588339Y-118748379D01*
X239588339Y-118748379D02*
X239540720Y-118653141D01*
X239540720Y-118653141D02*
X239540720Y-118415046D01*
X239540720Y-118415046D02*
X239588339Y-118319808D01*
X239588339Y-118319808D02*
X239635958Y-118272189D01*
X239635958Y-118272189D02*
X239731196Y-118224570D01*
X239731196Y-118224570D02*
X239921672Y-118224570D01*
X239921672Y-118224570D02*
X240016910Y-118272189D01*
X240016910Y-118272189D02*
X240064529Y-118319808D01*
X240064529Y-118319808D02*
X240112148Y-118415046D01*
X238635958Y-117843618D02*
X239112148Y-117843618D01*
X239112148Y-117843618D02*
X239159767Y-118319808D01*
X239159767Y-118319808D02*
X239112148Y-118272189D01*
X239112148Y-118272189D02*
X239016910Y-118224570D01*
X239016910Y-118224570D02*
X238778815Y-118224570D01*
X238778815Y-118224570D02*
X238683577Y-118272189D01*
X238683577Y-118272189D02*
X238635958Y-118319808D01*
X238635958Y-118319808D02*
X238588339Y-118415046D01*
X238588339Y-118415046D02*
X238588339Y-118653141D01*
X238588339Y-118653141D02*
X238635958Y-118748379D01*
X238635958Y-118748379D02*
X238683577Y-118795999D01*
X238683577Y-118795999D02*
X238778815Y-118843618D01*
X238778815Y-118843618D02*
X239016910Y-118843618D01*
X239016910Y-118843618D02*
X239112148Y-118795999D01*
X239112148Y-118795999D02*
X239159767Y-118748379D01*
X202791353Y-74872419D02*
X202124687Y-74872419D01*
X202124687Y-74872419D02*
X202553258Y-75872419D01*
X201315163Y-75205752D02*
X201315163Y-75872419D01*
X201553258Y-74824800D02*
X201791353Y-75539085D01*
X201791353Y-75539085D02*
X201172306Y-75539085D01*
X200791353Y-75872419D02*
X200791353Y-74872419D01*
X200791353Y-75348609D02*
X200219925Y-75348609D01*
X200219925Y-75872419D02*
X200219925Y-74872419D01*
X199172306Y-75777180D02*
X199219925Y-75824800D01*
X199219925Y-75824800D02*
X199362782Y-75872419D01*
X199362782Y-75872419D02*
X199458020Y-75872419D01*
X199458020Y-75872419D02*
X199600877Y-75824800D01*
X199600877Y-75824800D02*
X199696115Y-75729561D01*
X199696115Y-75729561D02*
X199743734Y-75634323D01*
X199743734Y-75634323D02*
X199791353Y-75443847D01*
X199791353Y-75443847D02*
X199791353Y-75300990D01*
X199791353Y-75300990D02*
X199743734Y-75110514D01*
X199743734Y-75110514D02*
X199696115Y-75015276D01*
X199696115Y-75015276D02*
X199600877Y-74920038D01*
X199600877Y-74920038D02*
X199458020Y-74872419D01*
X199458020Y-74872419D02*
X199362782Y-74872419D01*
X199362782Y-74872419D02*
X199219925Y-74920038D01*
X199219925Y-74920038D02*
X199172306Y-74967657D01*
X198315163Y-75205752D02*
X198315163Y-75872419D01*
X198553258Y-74824800D02*
X198791353Y-75539085D01*
X198791353Y-75539085D02*
X198172306Y-75539085D01*
X197600877Y-74872419D02*
X197505639Y-74872419D01*
X197505639Y-74872419D02*
X197410401Y-74920038D01*
X197410401Y-74920038D02*
X197362782Y-74967657D01*
X197362782Y-74967657D02*
X197315163Y-75062895D01*
X197315163Y-75062895D02*
X197267544Y-75253371D01*
X197267544Y-75253371D02*
X197267544Y-75491466D01*
X197267544Y-75491466D02*
X197315163Y-75681942D01*
X197315163Y-75681942D02*
X197362782Y-75777180D01*
X197362782Y-75777180D02*
X197410401Y-75824800D01*
X197410401Y-75824800D02*
X197505639Y-75872419D01*
X197505639Y-75872419D02*
X197600877Y-75872419D01*
X197600877Y-75872419D02*
X197696115Y-75824800D01*
X197696115Y-75824800D02*
X197743734Y-75777180D01*
X197743734Y-75777180D02*
X197791353Y-75681942D01*
X197791353Y-75681942D02*
X197838972Y-75491466D01*
X197838972Y-75491466D02*
X197838972Y-75253371D01*
X197838972Y-75253371D02*
X197791353Y-75062895D01*
X197791353Y-75062895D02*
X197743734Y-74967657D01*
X197743734Y-74967657D02*
X197696115Y-74920038D01*
X197696115Y-74920038D02*
X197600877Y-74872419D01*
X196362782Y-74872419D02*
X196838972Y-74872419D01*
X196838972Y-74872419D02*
X196886591Y-75348609D01*
X196886591Y-75348609D02*
X196838972Y-75300990D01*
X196838972Y-75300990D02*
X196743734Y-75253371D01*
X196743734Y-75253371D02*
X196505639Y-75253371D01*
X196505639Y-75253371D02*
X196410401Y-75300990D01*
X196410401Y-75300990D02*
X196362782Y-75348609D01*
X196362782Y-75348609D02*
X196315163Y-75443847D01*
X196315163Y-75443847D02*
X196315163Y-75681942D01*
X196315163Y-75681942D02*
X196362782Y-75777180D01*
X196362782Y-75777180D02*
X196410401Y-75824800D01*
X196410401Y-75824800D02*
X196505639Y-75872419D01*
X196505639Y-75872419D02*
X196743734Y-75872419D01*
X196743734Y-75872419D02*
X196838972Y-75824800D01*
X196838972Y-75824800D02*
X196886591Y-75777180D01*
X195362782Y-75872419D02*
X195934210Y-75872419D01*
X195648496Y-75872419D02*
X195648496Y-74872419D01*
X195648496Y-74872419D02*
X195743734Y-75015276D01*
X195743734Y-75015276D02*
X195838972Y-75110514D01*
X195838972Y-75110514D02*
X195934210Y-75158133D01*
X202618190Y-119278888D02*
X201951524Y-119278888D01*
X201951524Y-119278888D02*
X202380095Y-120278888D01*
X201142000Y-119612221D02*
X201142000Y-120278888D01*
X201380095Y-119231269D02*
X201618190Y-119945554D01*
X201618190Y-119945554D02*
X200999143Y-119945554D01*
X200618190Y-120278888D02*
X200618190Y-119278888D01*
X200618190Y-119755078D02*
X200046762Y-119755078D01*
X200046762Y-120278888D02*
X200046762Y-119278888D01*
X198999143Y-120183649D02*
X199046762Y-120231269D01*
X199046762Y-120231269D02*
X199189619Y-120278888D01*
X199189619Y-120278888D02*
X199284857Y-120278888D01*
X199284857Y-120278888D02*
X199427714Y-120231269D01*
X199427714Y-120231269D02*
X199522952Y-120136030D01*
X199522952Y-120136030D02*
X199570571Y-120040792D01*
X199570571Y-120040792D02*
X199618190Y-119850316D01*
X199618190Y-119850316D02*
X199618190Y-119707459D01*
X199618190Y-119707459D02*
X199570571Y-119516983D01*
X199570571Y-119516983D02*
X199522952Y-119421745D01*
X199522952Y-119421745D02*
X199427714Y-119326507D01*
X199427714Y-119326507D02*
X199284857Y-119278888D01*
X199284857Y-119278888D02*
X199189619Y-119278888D01*
X199189619Y-119278888D02*
X199046762Y-119326507D01*
X199046762Y-119326507D02*
X198999143Y-119374126D01*
X198142000Y-119612221D02*
X198142000Y-120278888D01*
X198380095Y-119231269D02*
X198618190Y-119945554D01*
X198618190Y-119945554D02*
X197999143Y-119945554D01*
X197427714Y-119278888D02*
X197332476Y-119278888D01*
X197332476Y-119278888D02*
X197237238Y-119326507D01*
X197237238Y-119326507D02*
X197189619Y-119374126D01*
X197189619Y-119374126D02*
X197142000Y-119469364D01*
X197142000Y-119469364D02*
X197094381Y-119659840D01*
X197094381Y-119659840D02*
X197094381Y-119897935D01*
X197094381Y-119897935D02*
X197142000Y-120088411D01*
X197142000Y-120088411D02*
X197189619Y-120183649D01*
X197189619Y-120183649D02*
X197237238Y-120231269D01*
X197237238Y-120231269D02*
X197332476Y-120278888D01*
X197332476Y-120278888D02*
X197427714Y-120278888D01*
X197427714Y-120278888D02*
X197522952Y-120231269D01*
X197522952Y-120231269D02*
X197570571Y-120183649D01*
X197570571Y-120183649D02*
X197618190Y-120088411D01*
X197618190Y-120088411D02*
X197665809Y-119897935D01*
X197665809Y-119897935D02*
X197665809Y-119659840D01*
X197665809Y-119659840D02*
X197618190Y-119469364D01*
X197618190Y-119469364D02*
X197570571Y-119374126D01*
X197570571Y-119374126D02*
X197522952Y-119326507D01*
X197522952Y-119326507D02*
X197427714Y-119278888D01*
X196189619Y-119278888D02*
X196665809Y-119278888D01*
X196665809Y-119278888D02*
X196713428Y-119755078D01*
X196713428Y-119755078D02*
X196665809Y-119707459D01*
X196665809Y-119707459D02*
X196570571Y-119659840D01*
X196570571Y-119659840D02*
X196332476Y-119659840D01*
X196332476Y-119659840D02*
X196237238Y-119707459D01*
X196237238Y-119707459D02*
X196189619Y-119755078D01*
X196189619Y-119755078D02*
X196142000Y-119850316D01*
X196142000Y-119850316D02*
X196142000Y-120088411D01*
X196142000Y-120088411D02*
X196189619Y-120183649D01*
X196189619Y-120183649D02*
X196237238Y-120231269D01*
X196237238Y-120231269D02*
X196332476Y-120278888D01*
X196332476Y-120278888D02*
X196570571Y-120278888D01*
X196570571Y-120278888D02*
X196665809Y-120231269D01*
X196665809Y-120231269D02*
X196713428Y-120183649D01*
X195189619Y-120278888D02*
X195761047Y-120278888D01*
X195475333Y-120278888D02*
X195475333Y-119278888D01*
X195475333Y-119278888D02*
X195570571Y-119421745D01*
X195570571Y-119421745D02*
X195665809Y-119516983D01*
X195665809Y-119516983D02*
X195761047Y-119564602D01*
X203291353Y-166872419D02*
X202624687Y-166872419D01*
X202624687Y-166872419D02*
X203053258Y-167872419D01*
X201815163Y-167205752D02*
X201815163Y-167872419D01*
X202053258Y-166824800D02*
X202291353Y-167539085D01*
X202291353Y-167539085D02*
X201672306Y-167539085D01*
X201291353Y-167872419D02*
X201291353Y-166872419D01*
X201291353Y-167348609D02*
X200719925Y-167348609D01*
X200719925Y-167872419D02*
X200719925Y-166872419D01*
X199672306Y-167777180D02*
X199719925Y-167824800D01*
X199719925Y-167824800D02*
X199862782Y-167872419D01*
X199862782Y-167872419D02*
X199958020Y-167872419D01*
X199958020Y-167872419D02*
X200100877Y-167824800D01*
X200100877Y-167824800D02*
X200196115Y-167729561D01*
X200196115Y-167729561D02*
X200243734Y-167634323D01*
X200243734Y-167634323D02*
X200291353Y-167443847D01*
X200291353Y-167443847D02*
X200291353Y-167300990D01*
X200291353Y-167300990D02*
X200243734Y-167110514D01*
X200243734Y-167110514D02*
X200196115Y-167015276D01*
X200196115Y-167015276D02*
X200100877Y-166920038D01*
X200100877Y-166920038D02*
X199958020Y-166872419D01*
X199958020Y-166872419D02*
X199862782Y-166872419D01*
X199862782Y-166872419D02*
X199719925Y-166920038D01*
X199719925Y-166920038D02*
X199672306Y-166967657D01*
X198815163Y-167205752D02*
X198815163Y-167872419D01*
X199053258Y-166824800D02*
X199291353Y-167539085D01*
X199291353Y-167539085D02*
X198672306Y-167539085D01*
X198100877Y-166872419D02*
X198005639Y-166872419D01*
X198005639Y-166872419D02*
X197910401Y-166920038D01*
X197910401Y-166920038D02*
X197862782Y-166967657D01*
X197862782Y-166967657D02*
X197815163Y-167062895D01*
X197815163Y-167062895D02*
X197767544Y-167253371D01*
X197767544Y-167253371D02*
X197767544Y-167491466D01*
X197767544Y-167491466D02*
X197815163Y-167681942D01*
X197815163Y-167681942D02*
X197862782Y-167777180D01*
X197862782Y-167777180D02*
X197910401Y-167824800D01*
X197910401Y-167824800D02*
X198005639Y-167872419D01*
X198005639Y-167872419D02*
X198100877Y-167872419D01*
X198100877Y-167872419D02*
X198196115Y-167824800D01*
X198196115Y-167824800D02*
X198243734Y-167777180D01*
X198243734Y-167777180D02*
X198291353Y-167681942D01*
X198291353Y-167681942D02*
X198338972Y-167491466D01*
X198338972Y-167491466D02*
X198338972Y-167253371D01*
X198338972Y-167253371D02*
X198291353Y-167062895D01*
X198291353Y-167062895D02*
X198243734Y-166967657D01*
X198243734Y-166967657D02*
X198196115Y-166920038D01*
X198196115Y-166920038D02*
X198100877Y-166872419D01*
X196862782Y-166872419D02*
X197338972Y-166872419D01*
X197338972Y-166872419D02*
X197386591Y-167348609D01*
X197386591Y-167348609D02*
X197338972Y-167300990D01*
X197338972Y-167300990D02*
X197243734Y-167253371D01*
X197243734Y-167253371D02*
X197005639Y-167253371D01*
X197005639Y-167253371D02*
X196910401Y-167300990D01*
X196910401Y-167300990D02*
X196862782Y-167348609D01*
X196862782Y-167348609D02*
X196815163Y-167443847D01*
X196815163Y-167443847D02*
X196815163Y-167681942D01*
X196815163Y-167681942D02*
X196862782Y-167777180D01*
X196862782Y-167777180D02*
X196910401Y-167824800D01*
X196910401Y-167824800D02*
X197005639Y-167872419D01*
X197005639Y-167872419D02*
X197243734Y-167872419D01*
X197243734Y-167872419D02*
X197338972Y-167824800D01*
X197338972Y-167824800D02*
X197386591Y-167777180D01*
X195862782Y-167872419D02*
X196434210Y-167872419D01*
X196148496Y-167872419D02*
X196148496Y-166872419D01*
X196148496Y-166872419D02*
X196243734Y-167015276D01*
X196243734Y-167015276D02*
X196338972Y-167110514D01*
X196338972Y-167110514D02*
X196434210Y-167158133D01*
X244473506Y-205853633D02*
X244473506Y-205282205D01*
X244473506Y-205567919D02*
X243473506Y-205567919D01*
X243473506Y-205567919D02*
X243616363Y-205472681D01*
X243616363Y-205472681D02*
X243711601Y-205377443D01*
X243711601Y-205377443D02*
X243759220Y-205282205D01*
X243473506Y-206710776D02*
X243473506Y-206520300D01*
X243473506Y-206520300D02*
X243521125Y-206425062D01*
X243521125Y-206425062D02*
X243568744Y-206377443D01*
X243568744Y-206377443D02*
X243711601Y-206282205D01*
X243711601Y-206282205D02*
X243902077Y-206234586D01*
X243902077Y-206234586D02*
X244283029Y-206234586D01*
X244283029Y-206234586D02*
X244378267Y-206282205D01*
X244378267Y-206282205D02*
X244425887Y-206329824D01*
X244425887Y-206329824D02*
X244473506Y-206425062D01*
X244473506Y-206425062D02*
X244473506Y-206615538D01*
X244473506Y-206615538D02*
X244425887Y-206710776D01*
X244425887Y-206710776D02*
X244378267Y-206758395D01*
X244378267Y-206758395D02*
X244283029Y-206806014D01*
X244283029Y-206806014D02*
X244044934Y-206806014D01*
X244044934Y-206806014D02*
X243949696Y-206758395D01*
X243949696Y-206758395D02*
X243902077Y-206710776D01*
X243902077Y-206710776D02*
X243854458Y-206615538D01*
X243854458Y-206615538D02*
X243854458Y-206425062D01*
X243854458Y-206425062D02*
X243902077Y-206329824D01*
X243902077Y-206329824D02*
X243949696Y-206282205D01*
X243949696Y-206282205D02*
X244044934Y-206234586D01*
X243473506Y-207710776D02*
X243473506Y-207234586D01*
X243473506Y-207234586D02*
X243949696Y-207186967D01*
X243949696Y-207186967D02*
X243902077Y-207234586D01*
X243902077Y-207234586D02*
X243854458Y-207329824D01*
X243854458Y-207329824D02*
X243854458Y-207567919D01*
X243854458Y-207567919D02*
X243902077Y-207663157D01*
X243902077Y-207663157D02*
X243949696Y-207710776D01*
X243949696Y-207710776D02*
X244044934Y-207758395D01*
X244044934Y-207758395D02*
X244283029Y-207758395D01*
X244283029Y-207758395D02*
X244378267Y-207710776D01*
X244378267Y-207710776D02*
X244425887Y-207663157D01*
X244425887Y-207663157D02*
X244473506Y-207567919D01*
X244473506Y-207567919D02*
X244473506Y-207329824D01*
X244473506Y-207329824D02*
X244425887Y-207234586D01*
X244425887Y-207234586D02*
X244378267Y-207186967D01*
X243425887Y-208901252D02*
X244711601Y-208044110D01*
X244473506Y-209758395D02*
X244473506Y-209186967D01*
X244473506Y-209472681D02*
X243473506Y-209472681D01*
X243473506Y-209472681D02*
X243616363Y-209377443D01*
X243616363Y-209377443D02*
X243711601Y-209282205D01*
X243711601Y-209282205D02*
X243759220Y-209186967D01*
X247080536Y-205814722D02*
X247080536Y-205243294D01*
X247080536Y-205529008D02*
X246080536Y-205529008D01*
X246080536Y-205529008D02*
X246223393Y-205433770D01*
X246223393Y-205433770D02*
X246318631Y-205338532D01*
X246318631Y-205338532D02*
X246366250Y-205243294D01*
X246080536Y-206671865D02*
X246080536Y-206481389D01*
X246080536Y-206481389D02*
X246128155Y-206386151D01*
X246128155Y-206386151D02*
X246175774Y-206338532D01*
X246175774Y-206338532D02*
X246318631Y-206243294D01*
X246318631Y-206243294D02*
X246509107Y-206195675D01*
X246509107Y-206195675D02*
X246890059Y-206195675D01*
X246890059Y-206195675D02*
X246985297Y-206243294D01*
X246985297Y-206243294D02*
X247032917Y-206290913D01*
X247032917Y-206290913D02*
X247080536Y-206386151D01*
X247080536Y-206386151D02*
X247080536Y-206576627D01*
X247080536Y-206576627D02*
X247032917Y-206671865D01*
X247032917Y-206671865D02*
X246985297Y-206719484D01*
X246985297Y-206719484D02*
X246890059Y-206767103D01*
X246890059Y-206767103D02*
X246651964Y-206767103D01*
X246651964Y-206767103D02*
X246556726Y-206719484D01*
X246556726Y-206719484D02*
X246509107Y-206671865D01*
X246509107Y-206671865D02*
X246461488Y-206576627D01*
X246461488Y-206576627D02*
X246461488Y-206386151D01*
X246461488Y-206386151D02*
X246509107Y-206290913D01*
X246509107Y-206290913D02*
X246556726Y-206243294D01*
X246556726Y-206243294D02*
X246651964Y-206195675D01*
X246080536Y-207671865D02*
X246080536Y-207195675D01*
X246080536Y-207195675D02*
X246556726Y-207148056D01*
X246556726Y-207148056D02*
X246509107Y-207195675D01*
X246509107Y-207195675D02*
X246461488Y-207290913D01*
X246461488Y-207290913D02*
X246461488Y-207529008D01*
X246461488Y-207529008D02*
X246509107Y-207624246D01*
X246509107Y-207624246D02*
X246556726Y-207671865D01*
X246556726Y-207671865D02*
X246651964Y-207719484D01*
X246651964Y-207719484D02*
X246890059Y-207719484D01*
X246890059Y-207719484D02*
X246985297Y-207671865D01*
X246985297Y-207671865D02*
X247032917Y-207624246D01*
X247032917Y-207624246D02*
X247080536Y-207529008D01*
X247080536Y-207529008D02*
X247080536Y-207290913D01*
X247080536Y-207290913D02*
X247032917Y-207195675D01*
X247032917Y-207195675D02*
X246985297Y-207148056D01*
X246032917Y-208862341D02*
X247318631Y-208005199D01*
X246175774Y-209148056D02*
X246128155Y-209195675D01*
X246128155Y-209195675D02*
X246080536Y-209290913D01*
X246080536Y-209290913D02*
X246080536Y-209529008D01*
X246080536Y-209529008D02*
X246128155Y-209624246D01*
X246128155Y-209624246D02*
X246175774Y-209671865D01*
X246175774Y-209671865D02*
X246271012Y-209719484D01*
X246271012Y-209719484D02*
X246366250Y-209719484D01*
X246366250Y-209719484D02*
X246509107Y-209671865D01*
X246509107Y-209671865D02*
X247080536Y-209100437D01*
X247080536Y-209100437D02*
X247080536Y-209719484D01*
X249635686Y-205840663D02*
X249635686Y-205269235D01*
X249635686Y-205554949D02*
X248635686Y-205554949D01*
X248635686Y-205554949D02*
X248778543Y-205459711D01*
X248778543Y-205459711D02*
X248873781Y-205364473D01*
X248873781Y-205364473D02*
X248921400Y-205269235D01*
X248635686Y-206697806D02*
X248635686Y-206507330D01*
X248635686Y-206507330D02*
X248683305Y-206412092D01*
X248683305Y-206412092D02*
X248730924Y-206364473D01*
X248730924Y-206364473D02*
X248873781Y-206269235D01*
X248873781Y-206269235D02*
X249064257Y-206221616D01*
X249064257Y-206221616D02*
X249445209Y-206221616D01*
X249445209Y-206221616D02*
X249540447Y-206269235D01*
X249540447Y-206269235D02*
X249588067Y-206316854D01*
X249588067Y-206316854D02*
X249635686Y-206412092D01*
X249635686Y-206412092D02*
X249635686Y-206602568D01*
X249635686Y-206602568D02*
X249588067Y-206697806D01*
X249588067Y-206697806D02*
X249540447Y-206745425D01*
X249540447Y-206745425D02*
X249445209Y-206793044D01*
X249445209Y-206793044D02*
X249207114Y-206793044D01*
X249207114Y-206793044D02*
X249111876Y-206745425D01*
X249111876Y-206745425D02*
X249064257Y-206697806D01*
X249064257Y-206697806D02*
X249016638Y-206602568D01*
X249016638Y-206602568D02*
X249016638Y-206412092D01*
X249016638Y-206412092D02*
X249064257Y-206316854D01*
X249064257Y-206316854D02*
X249111876Y-206269235D01*
X249111876Y-206269235D02*
X249207114Y-206221616D01*
X248635686Y-207697806D02*
X248635686Y-207221616D01*
X248635686Y-207221616D02*
X249111876Y-207173997D01*
X249111876Y-207173997D02*
X249064257Y-207221616D01*
X249064257Y-207221616D02*
X249016638Y-207316854D01*
X249016638Y-207316854D02*
X249016638Y-207554949D01*
X249016638Y-207554949D02*
X249064257Y-207650187D01*
X249064257Y-207650187D02*
X249111876Y-207697806D01*
X249111876Y-207697806D02*
X249207114Y-207745425D01*
X249207114Y-207745425D02*
X249445209Y-207745425D01*
X249445209Y-207745425D02*
X249540447Y-207697806D01*
X249540447Y-207697806D02*
X249588067Y-207650187D01*
X249588067Y-207650187D02*
X249635686Y-207554949D01*
X249635686Y-207554949D02*
X249635686Y-207316854D01*
X249635686Y-207316854D02*
X249588067Y-207221616D01*
X249588067Y-207221616D02*
X249540447Y-207173997D01*
X248588067Y-208888282D02*
X249873781Y-208031140D01*
X249635686Y-209745425D02*
X249635686Y-209173997D01*
X249635686Y-209459711D02*
X248635686Y-209459711D01*
X248635686Y-209459711D02*
X248778543Y-209364473D01*
X248778543Y-209364473D02*
X248873781Y-209269235D01*
X248873781Y-209269235D02*
X248921400Y-209173997D01*
X248635686Y-210364473D02*
X248635686Y-210459711D01*
X248635686Y-210459711D02*
X248683305Y-210554949D01*
X248683305Y-210554949D02*
X248730924Y-210602568D01*
X248730924Y-210602568D02*
X248826162Y-210650187D01*
X248826162Y-210650187D02*
X249016638Y-210697806D01*
X249016638Y-210697806D02*
X249254733Y-210697806D01*
X249254733Y-210697806D02*
X249445209Y-210650187D01*
X249445209Y-210650187D02*
X249540447Y-210602568D01*
X249540447Y-210602568D02*
X249588067Y-210554949D01*
X249588067Y-210554949D02*
X249635686Y-210459711D01*
X249635686Y-210459711D02*
X249635686Y-210364473D01*
X249635686Y-210364473D02*
X249588067Y-210269235D01*
X249588067Y-210269235D02*
X249540447Y-210221616D01*
X249540447Y-210221616D02*
X249445209Y-210173997D01*
X249445209Y-210173997D02*
X249254733Y-210126378D01*
X249254733Y-210126378D02*
X249016638Y-210126378D01*
X249016638Y-210126378D02*
X248826162Y-210173997D01*
X248826162Y-210173997D02*
X248730924Y-210221616D01*
X248730924Y-210221616D02*
X248683305Y-210269235D01*
X248683305Y-210269235D02*
X248635686Y-210364473D01*
X252372419Y-205827693D02*
X252372419Y-205256265D01*
X252372419Y-205541979D02*
X251372419Y-205541979D01*
X251372419Y-205541979D02*
X251515276Y-205446741D01*
X251515276Y-205446741D02*
X251610514Y-205351503D01*
X251610514Y-205351503D02*
X251658133Y-205256265D01*
X251372419Y-206684836D02*
X251372419Y-206494360D01*
X251372419Y-206494360D02*
X251420038Y-206399122D01*
X251420038Y-206399122D02*
X251467657Y-206351503D01*
X251467657Y-206351503D02*
X251610514Y-206256265D01*
X251610514Y-206256265D02*
X251800990Y-206208646D01*
X251800990Y-206208646D02*
X252181942Y-206208646D01*
X252181942Y-206208646D02*
X252277180Y-206256265D01*
X252277180Y-206256265D02*
X252324800Y-206303884D01*
X252324800Y-206303884D02*
X252372419Y-206399122D01*
X252372419Y-206399122D02*
X252372419Y-206589598D01*
X252372419Y-206589598D02*
X252324800Y-206684836D01*
X252324800Y-206684836D02*
X252277180Y-206732455D01*
X252277180Y-206732455D02*
X252181942Y-206780074D01*
X252181942Y-206780074D02*
X251943847Y-206780074D01*
X251943847Y-206780074D02*
X251848609Y-206732455D01*
X251848609Y-206732455D02*
X251800990Y-206684836D01*
X251800990Y-206684836D02*
X251753371Y-206589598D01*
X251753371Y-206589598D02*
X251753371Y-206399122D01*
X251753371Y-206399122D02*
X251800990Y-206303884D01*
X251800990Y-206303884D02*
X251848609Y-206256265D01*
X251848609Y-206256265D02*
X251943847Y-206208646D01*
X251372419Y-207684836D02*
X251372419Y-207208646D01*
X251372419Y-207208646D02*
X251848609Y-207161027D01*
X251848609Y-207161027D02*
X251800990Y-207208646D01*
X251800990Y-207208646D02*
X251753371Y-207303884D01*
X251753371Y-207303884D02*
X251753371Y-207541979D01*
X251753371Y-207541979D02*
X251800990Y-207637217D01*
X251800990Y-207637217D02*
X251848609Y-207684836D01*
X251848609Y-207684836D02*
X251943847Y-207732455D01*
X251943847Y-207732455D02*
X252181942Y-207732455D01*
X252181942Y-207732455D02*
X252277180Y-207684836D01*
X252277180Y-207684836D02*
X252324800Y-207637217D01*
X252324800Y-207637217D02*
X252372419Y-207541979D01*
X252372419Y-207541979D02*
X252372419Y-207303884D01*
X252372419Y-207303884D02*
X252324800Y-207208646D01*
X252324800Y-207208646D02*
X252277180Y-207161027D01*
X251324800Y-208875312D02*
X252610514Y-208018170D01*
X252372419Y-209732455D02*
X252372419Y-209161027D01*
X252372419Y-209446741D02*
X251372419Y-209446741D01*
X251372419Y-209446741D02*
X251515276Y-209351503D01*
X251515276Y-209351503D02*
X251610514Y-209256265D01*
X251610514Y-209256265D02*
X251658133Y-209161027D01*
X251372419Y-210637217D02*
X251372419Y-210161027D01*
X251372419Y-210161027D02*
X251848609Y-210113408D01*
X251848609Y-210113408D02*
X251800990Y-210161027D01*
X251800990Y-210161027D02*
X251753371Y-210256265D01*
X251753371Y-210256265D02*
X251753371Y-210494360D01*
X251753371Y-210494360D02*
X251800990Y-210589598D01*
X251800990Y-210589598D02*
X251848609Y-210637217D01*
X251848609Y-210637217D02*
X251943847Y-210684836D01*
X251943847Y-210684836D02*
X252181942Y-210684836D01*
X252181942Y-210684836D02*
X252277180Y-210637217D01*
X252277180Y-210637217D02*
X252324800Y-210589598D01*
X252324800Y-210589598D02*
X252372419Y-210494360D01*
X252372419Y-210494360D02*
X252372419Y-210256265D01*
X252372419Y-210256265D02*
X252324800Y-210161027D01*
X252324800Y-210161027D02*
X252277180Y-210113408D01*
X244473506Y-205853633D02*
X244473506Y-205282205D01*
X244473506Y-205567919D02*
X243473506Y-205567919D01*
X243473506Y-205567919D02*
X243616363Y-205472681D01*
X243616363Y-205472681D02*
X243711601Y-205377443D01*
X243711601Y-205377443D02*
X243759220Y-205282205D01*
X243473506Y-206710776D02*
X243473506Y-206520300D01*
X243473506Y-206520300D02*
X243521125Y-206425062D01*
X243521125Y-206425062D02*
X243568744Y-206377443D01*
X243568744Y-206377443D02*
X243711601Y-206282205D01*
X243711601Y-206282205D02*
X243902077Y-206234586D01*
X243902077Y-206234586D02*
X244283029Y-206234586D01*
X244283029Y-206234586D02*
X244378267Y-206282205D01*
X244378267Y-206282205D02*
X244425887Y-206329824D01*
X244425887Y-206329824D02*
X244473506Y-206425062D01*
X244473506Y-206425062D02*
X244473506Y-206615538D01*
X244473506Y-206615538D02*
X244425887Y-206710776D01*
X244425887Y-206710776D02*
X244378267Y-206758395D01*
X244378267Y-206758395D02*
X244283029Y-206806014D01*
X244283029Y-206806014D02*
X244044934Y-206806014D01*
X244044934Y-206806014D02*
X243949696Y-206758395D01*
X243949696Y-206758395D02*
X243902077Y-206710776D01*
X243902077Y-206710776D02*
X243854458Y-206615538D01*
X243854458Y-206615538D02*
X243854458Y-206425062D01*
X243854458Y-206425062D02*
X243902077Y-206329824D01*
X243902077Y-206329824D02*
X243949696Y-206282205D01*
X243949696Y-206282205D02*
X244044934Y-206234586D01*
X243473506Y-207710776D02*
X243473506Y-207234586D01*
X243473506Y-207234586D02*
X243949696Y-207186967D01*
X243949696Y-207186967D02*
X243902077Y-207234586D01*
X243902077Y-207234586D02*
X243854458Y-207329824D01*
X243854458Y-207329824D02*
X243854458Y-207567919D01*
X243854458Y-207567919D02*
X243902077Y-207663157D01*
X243902077Y-207663157D02*
X243949696Y-207710776D01*
X243949696Y-207710776D02*
X244044934Y-207758395D01*
X244044934Y-207758395D02*
X244283029Y-207758395D01*
X244283029Y-207758395D02*
X244378267Y-207710776D01*
X244378267Y-207710776D02*
X244425887Y-207663157D01*
X244425887Y-207663157D02*
X244473506Y-207567919D01*
X244473506Y-207567919D02*
X244473506Y-207329824D01*
X244473506Y-207329824D02*
X244425887Y-207234586D01*
X244425887Y-207234586D02*
X244378267Y-207186967D01*
X243425887Y-208901252D02*
X244711601Y-208044110D01*
X244473506Y-209758395D02*
X244473506Y-209186967D01*
X244473506Y-209472681D02*
X243473506Y-209472681D01*
X243473506Y-209472681D02*
X243616363Y-209377443D01*
X243616363Y-209377443D02*
X243711601Y-209282205D01*
X243711601Y-209282205D02*
X243759220Y-209186967D01*
X247080536Y-205814722D02*
X247080536Y-205243294D01*
X247080536Y-205529008D02*
X246080536Y-205529008D01*
X246080536Y-205529008D02*
X246223393Y-205433770D01*
X246223393Y-205433770D02*
X246318631Y-205338532D01*
X246318631Y-205338532D02*
X246366250Y-205243294D01*
X246080536Y-206671865D02*
X246080536Y-206481389D01*
X246080536Y-206481389D02*
X246128155Y-206386151D01*
X246128155Y-206386151D02*
X246175774Y-206338532D01*
X246175774Y-206338532D02*
X246318631Y-206243294D01*
X246318631Y-206243294D02*
X246509107Y-206195675D01*
X246509107Y-206195675D02*
X246890059Y-206195675D01*
X246890059Y-206195675D02*
X246985297Y-206243294D01*
X246985297Y-206243294D02*
X247032917Y-206290913D01*
X247032917Y-206290913D02*
X247080536Y-206386151D01*
X247080536Y-206386151D02*
X247080536Y-206576627D01*
X247080536Y-206576627D02*
X247032917Y-206671865D01*
X247032917Y-206671865D02*
X246985297Y-206719484D01*
X246985297Y-206719484D02*
X246890059Y-206767103D01*
X246890059Y-206767103D02*
X246651964Y-206767103D01*
X246651964Y-206767103D02*
X246556726Y-206719484D01*
X246556726Y-206719484D02*
X246509107Y-206671865D01*
X246509107Y-206671865D02*
X246461488Y-206576627D01*
X246461488Y-206576627D02*
X246461488Y-206386151D01*
X246461488Y-206386151D02*
X246509107Y-206290913D01*
X246509107Y-206290913D02*
X246556726Y-206243294D01*
X246556726Y-206243294D02*
X246651964Y-206195675D01*
X246080536Y-207671865D02*
X246080536Y-207195675D01*
X246080536Y-207195675D02*
X246556726Y-207148056D01*
X246556726Y-207148056D02*
X246509107Y-207195675D01*
X246509107Y-207195675D02*
X246461488Y-207290913D01*
X246461488Y-207290913D02*
X246461488Y-207529008D01*
X246461488Y-207529008D02*
X246509107Y-207624246D01*
X246509107Y-207624246D02*
X246556726Y-207671865D01*
X246556726Y-207671865D02*
X246651964Y-207719484D01*
X246651964Y-207719484D02*
X246890059Y-207719484D01*
X246890059Y-207719484D02*
X246985297Y-207671865D01*
X246985297Y-207671865D02*
X247032917Y-207624246D01*
X247032917Y-207624246D02*
X247080536Y-207529008D01*
X247080536Y-207529008D02*
X247080536Y-207290913D01*
X247080536Y-207290913D02*
X247032917Y-207195675D01*
X247032917Y-207195675D02*
X246985297Y-207148056D01*
X246032917Y-208862341D02*
X247318631Y-208005199D01*
X246175774Y-209148056D02*
X246128155Y-209195675D01*
X246128155Y-209195675D02*
X246080536Y-209290913D01*
X246080536Y-209290913D02*
X246080536Y-209529008D01*
X246080536Y-209529008D02*
X246128155Y-209624246D01*
X246128155Y-209624246D02*
X246175774Y-209671865D01*
X246175774Y-209671865D02*
X246271012Y-209719484D01*
X246271012Y-209719484D02*
X246366250Y-209719484D01*
X246366250Y-209719484D02*
X246509107Y-209671865D01*
X246509107Y-209671865D02*
X247080536Y-209100437D01*
X247080536Y-209100437D02*
X247080536Y-209719484D01*
X249635686Y-205840663D02*
X249635686Y-205269235D01*
X249635686Y-205554949D02*
X248635686Y-205554949D01*
X248635686Y-205554949D02*
X248778543Y-205459711D01*
X248778543Y-205459711D02*
X248873781Y-205364473D01*
X248873781Y-205364473D02*
X248921400Y-205269235D01*
X248635686Y-206697806D02*
X248635686Y-206507330D01*
X248635686Y-206507330D02*
X248683305Y-206412092D01*
X248683305Y-206412092D02*
X248730924Y-206364473D01*
X248730924Y-206364473D02*
X248873781Y-206269235D01*
X248873781Y-206269235D02*
X249064257Y-206221616D01*
X249064257Y-206221616D02*
X249445209Y-206221616D01*
X249445209Y-206221616D02*
X249540447Y-206269235D01*
X249540447Y-206269235D02*
X249588067Y-206316854D01*
X249588067Y-206316854D02*
X249635686Y-206412092D01*
X249635686Y-206412092D02*
X249635686Y-206602568D01*
X249635686Y-206602568D02*
X249588067Y-206697806D01*
X249588067Y-206697806D02*
X249540447Y-206745425D01*
X249540447Y-206745425D02*
X249445209Y-206793044D01*
X249445209Y-206793044D02*
X249207114Y-206793044D01*
X249207114Y-206793044D02*
X249111876Y-206745425D01*
X249111876Y-206745425D02*
X249064257Y-206697806D01*
X249064257Y-206697806D02*
X249016638Y-206602568D01*
X249016638Y-206602568D02*
X249016638Y-206412092D01*
X249016638Y-206412092D02*
X249064257Y-206316854D01*
X249064257Y-206316854D02*
X249111876Y-206269235D01*
X249111876Y-206269235D02*
X249207114Y-206221616D01*
X248635686Y-207697806D02*
X248635686Y-207221616D01*
X248635686Y-207221616D02*
X249111876Y-207173997D01*
X249111876Y-207173997D02*
X249064257Y-207221616D01*
X249064257Y-207221616D02*
X249016638Y-207316854D01*
X249016638Y-207316854D02*
X249016638Y-207554949D01*
X249016638Y-207554949D02*
X249064257Y-207650187D01*
X249064257Y-207650187D02*
X249111876Y-207697806D01*
X249111876Y-207697806D02*
X249207114Y-207745425D01*
X249207114Y-207745425D02*
X249445209Y-207745425D01*
X249445209Y-207745425D02*
X249540447Y-207697806D01*
X249540447Y-207697806D02*
X249588067Y-207650187D01*
X249588067Y-207650187D02*
X249635686Y-207554949D01*
X249635686Y-207554949D02*
X249635686Y-207316854D01*
X249635686Y-207316854D02*
X249588067Y-207221616D01*
X249588067Y-207221616D02*
X249540447Y-207173997D01*
X248588067Y-208888282D02*
X249873781Y-208031140D01*
X249635686Y-209745425D02*
X249635686Y-209173997D01*
X249635686Y-209459711D02*
X248635686Y-209459711D01*
X248635686Y-209459711D02*
X248778543Y-209364473D01*
X248778543Y-209364473D02*
X248873781Y-209269235D01*
X248873781Y-209269235D02*
X248921400Y-209173997D01*
X248635686Y-210364473D02*
X248635686Y-210459711D01*
X248635686Y-210459711D02*
X248683305Y-210554949D01*
X248683305Y-210554949D02*
X248730924Y-210602568D01*
X248730924Y-210602568D02*
X248826162Y-210650187D01*
X248826162Y-210650187D02*
X249016638Y-210697806D01*
X249016638Y-210697806D02*
X249254733Y-210697806D01*
X249254733Y-210697806D02*
X249445209Y-210650187D01*
X249445209Y-210650187D02*
X249540447Y-210602568D01*
X249540447Y-210602568D02*
X249588067Y-210554949D01*
X249588067Y-210554949D02*
X249635686Y-210459711D01*
X249635686Y-210459711D02*
X249635686Y-210364473D01*
X249635686Y-210364473D02*
X249588067Y-210269235D01*
X249588067Y-210269235D02*
X249540447Y-210221616D01*
X249540447Y-210221616D02*
X249445209Y-210173997D01*
X249445209Y-210173997D02*
X249254733Y-210126378D01*
X249254733Y-210126378D02*
X249016638Y-210126378D01*
X249016638Y-210126378D02*
X248826162Y-210173997D01*
X248826162Y-210173997D02*
X248730924Y-210221616D01*
X248730924Y-210221616D02*
X248683305Y-210269235D01*
X248683305Y-210269235D02*
X248635686Y-210364473D01*
X252372419Y-205827693D02*
X252372419Y-205256265D01*
X252372419Y-205541979D02*
X251372419Y-205541979D01*
X251372419Y-205541979D02*
X251515276Y-205446741D01*
X251515276Y-205446741D02*
X251610514Y-205351503D01*
X251610514Y-205351503D02*
X251658133Y-205256265D01*
X251372419Y-206684836D02*
X251372419Y-206494360D01*
X251372419Y-206494360D02*
X251420038Y-206399122D01*
X251420038Y-206399122D02*
X251467657Y-206351503D01*
X251467657Y-206351503D02*
X251610514Y-206256265D01*
X251610514Y-206256265D02*
X251800990Y-206208646D01*
X251800990Y-206208646D02*
X252181942Y-206208646D01*
X252181942Y-206208646D02*
X252277180Y-206256265D01*
X252277180Y-206256265D02*
X252324800Y-206303884D01*
X252324800Y-206303884D02*
X252372419Y-206399122D01*
X252372419Y-206399122D02*
X252372419Y-206589598D01*
X252372419Y-206589598D02*
X252324800Y-206684836D01*
X252324800Y-206684836D02*
X252277180Y-206732455D01*
X252277180Y-206732455D02*
X252181942Y-206780074D01*
X252181942Y-206780074D02*
X251943847Y-206780074D01*
X251943847Y-206780074D02*
X251848609Y-206732455D01*
X251848609Y-206732455D02*
X251800990Y-206684836D01*
X251800990Y-206684836D02*
X251753371Y-206589598D01*
X251753371Y-206589598D02*
X251753371Y-206399122D01*
X251753371Y-206399122D02*
X251800990Y-206303884D01*
X251800990Y-206303884D02*
X251848609Y-206256265D01*
X251848609Y-206256265D02*
X251943847Y-206208646D01*
X251372419Y-207684836D02*
X251372419Y-207208646D01*
X251372419Y-207208646D02*
X251848609Y-207161027D01*
X251848609Y-207161027D02*
X251800990Y-207208646D01*
X251800990Y-207208646D02*
X251753371Y-207303884D01*
X251753371Y-207303884D02*
X251753371Y-207541979D01*
X251753371Y-207541979D02*
X251800990Y-207637217D01*
X251800990Y-207637217D02*
X251848609Y-207684836D01*
X251848609Y-207684836D02*
X251943847Y-207732455D01*
X251943847Y-207732455D02*
X252181942Y-207732455D01*
X252181942Y-207732455D02*
X252277180Y-207684836D01*
X252277180Y-207684836D02*
X252324800Y-207637217D01*
X252324800Y-207637217D02*
X252372419Y-207541979D01*
X252372419Y-207541979D02*
X252372419Y-207303884D01*
X252372419Y-207303884D02*
X252324800Y-207208646D01*
X252324800Y-207208646D02*
X252277180Y-207161027D01*
X251324800Y-208875312D02*
X252610514Y-208018170D01*
X252372419Y-209732455D02*
X252372419Y-209161027D01*
X252372419Y-209446741D02*
X251372419Y-209446741D01*
X251372419Y-209446741D02*
X251515276Y-209351503D01*
X251515276Y-209351503D02*
X251610514Y-209256265D01*
X251610514Y-209256265D02*
X251658133Y-209161027D01*
X251372419Y-210637217D02*
X251372419Y-210161027D01*
X251372419Y-210161027D02*
X251848609Y-210113408D01*
X251848609Y-210113408D02*
X251800990Y-210161027D01*
X251800990Y-210161027D02*
X251753371Y-210256265D01*
X251753371Y-210256265D02*
X251753371Y-210494360D01*
X251753371Y-210494360D02*
X251800990Y-210589598D01*
X251800990Y-210589598D02*
X251848609Y-210637217D01*
X251848609Y-210637217D02*
X251943847Y-210684836D01*
X251943847Y-210684836D02*
X252181942Y-210684836D01*
X252181942Y-210684836D02*
X252277180Y-210637217D01*
X252277180Y-210637217D02*
X252324800Y-210589598D01*
X252324800Y-210589598D02*
X252372419Y-210494360D01*
X252372419Y-210494360D02*
X252372419Y-210256265D01*
X252372419Y-210256265D02*
X252324800Y-210161027D01*
X252324800Y-210161027D02*
X252277180Y-210113408D01*
X252450240Y-54576702D02*
X252450240Y-54005274D01*
X252450240Y-54290988D02*
X251450240Y-54290988D01*
X251450240Y-54290988D02*
X251593097Y-54195750D01*
X251593097Y-54195750D02*
X251688335Y-54100512D01*
X251688335Y-54100512D02*
X251735954Y-54005274D01*
X251450240Y-55433845D02*
X251450240Y-55243369D01*
X251450240Y-55243369D02*
X251497859Y-55148131D01*
X251497859Y-55148131D02*
X251545478Y-55100512D01*
X251545478Y-55100512D02*
X251688335Y-55005274D01*
X251688335Y-55005274D02*
X251878811Y-54957655D01*
X251878811Y-54957655D02*
X252259763Y-54957655D01*
X252259763Y-54957655D02*
X252355001Y-55005274D01*
X252355001Y-55005274D02*
X252402621Y-55052893D01*
X252402621Y-55052893D02*
X252450240Y-55148131D01*
X252450240Y-55148131D02*
X252450240Y-55338607D01*
X252450240Y-55338607D02*
X252402621Y-55433845D01*
X252402621Y-55433845D02*
X252355001Y-55481464D01*
X252355001Y-55481464D02*
X252259763Y-55529083D01*
X252259763Y-55529083D02*
X252021668Y-55529083D01*
X252021668Y-55529083D02*
X251926430Y-55481464D01*
X251926430Y-55481464D02*
X251878811Y-55433845D01*
X251878811Y-55433845D02*
X251831192Y-55338607D01*
X251831192Y-55338607D02*
X251831192Y-55148131D01*
X251831192Y-55148131D02*
X251878811Y-55052893D01*
X251878811Y-55052893D02*
X251926430Y-55005274D01*
X251926430Y-55005274D02*
X252021668Y-54957655D01*
X251450240Y-56433845D02*
X251450240Y-55957655D01*
X251450240Y-55957655D02*
X251926430Y-55910036D01*
X251926430Y-55910036D02*
X251878811Y-55957655D01*
X251878811Y-55957655D02*
X251831192Y-56052893D01*
X251831192Y-56052893D02*
X251831192Y-56290988D01*
X251831192Y-56290988D02*
X251878811Y-56386226D01*
X251878811Y-56386226D02*
X251926430Y-56433845D01*
X251926430Y-56433845D02*
X252021668Y-56481464D01*
X252021668Y-56481464D02*
X252259763Y-56481464D01*
X252259763Y-56481464D02*
X252355001Y-56433845D01*
X252355001Y-56433845D02*
X252402621Y-56386226D01*
X252402621Y-56386226D02*
X252450240Y-56290988D01*
X252450240Y-56290988D02*
X252450240Y-56052893D01*
X252450240Y-56052893D02*
X252402621Y-55957655D01*
X252402621Y-55957655D02*
X252355001Y-55910036D01*
X251402621Y-57624321D02*
X252688335Y-56767179D01*
X252450240Y-58481464D02*
X252450240Y-57910036D01*
X252450240Y-58195750D02*
X251450240Y-58195750D01*
X251450240Y-58195750D02*
X251593097Y-58100512D01*
X251593097Y-58100512D02*
X251688335Y-58005274D01*
X251688335Y-58005274D02*
X251735954Y-57910036D01*
X251450240Y-59386226D02*
X251450240Y-58910036D01*
X251450240Y-58910036D02*
X251926430Y-58862417D01*
X251926430Y-58862417D02*
X251878811Y-58910036D01*
X251878811Y-58910036D02*
X251831192Y-59005274D01*
X251831192Y-59005274D02*
X251831192Y-59243369D01*
X251831192Y-59243369D02*
X251878811Y-59338607D01*
X251878811Y-59338607D02*
X251926430Y-59386226D01*
X251926430Y-59386226D02*
X252021668Y-59433845D01*
X252021668Y-59433845D02*
X252259763Y-59433845D01*
X252259763Y-59433845D02*
X252355001Y-59386226D01*
X252355001Y-59386226D02*
X252402621Y-59338607D01*
X252402621Y-59338607D02*
X252450240Y-59243369D01*
X252450240Y-59243369D02*
X252450240Y-59005274D01*
X252450240Y-59005274D02*
X252402621Y-58910036D01*
X252402621Y-58910036D02*
X252355001Y-58862417D01*
X249713507Y-54589672D02*
X249713507Y-54018244D01*
X249713507Y-54303958D02*
X248713507Y-54303958D01*
X248713507Y-54303958D02*
X248856364Y-54208720D01*
X248856364Y-54208720D02*
X248951602Y-54113482D01*
X248951602Y-54113482D02*
X248999221Y-54018244D01*
X248713507Y-55446815D02*
X248713507Y-55256339D01*
X248713507Y-55256339D02*
X248761126Y-55161101D01*
X248761126Y-55161101D02*
X248808745Y-55113482D01*
X248808745Y-55113482D02*
X248951602Y-55018244D01*
X248951602Y-55018244D02*
X249142078Y-54970625D01*
X249142078Y-54970625D02*
X249523030Y-54970625D01*
X249523030Y-54970625D02*
X249618268Y-55018244D01*
X249618268Y-55018244D02*
X249665888Y-55065863D01*
X249665888Y-55065863D02*
X249713507Y-55161101D01*
X249713507Y-55161101D02*
X249713507Y-55351577D01*
X249713507Y-55351577D02*
X249665888Y-55446815D01*
X249665888Y-55446815D02*
X249618268Y-55494434D01*
X249618268Y-55494434D02*
X249523030Y-55542053D01*
X249523030Y-55542053D02*
X249284935Y-55542053D01*
X249284935Y-55542053D02*
X249189697Y-55494434D01*
X249189697Y-55494434D02*
X249142078Y-55446815D01*
X249142078Y-55446815D02*
X249094459Y-55351577D01*
X249094459Y-55351577D02*
X249094459Y-55161101D01*
X249094459Y-55161101D02*
X249142078Y-55065863D01*
X249142078Y-55065863D02*
X249189697Y-55018244D01*
X249189697Y-55018244D02*
X249284935Y-54970625D01*
X248713507Y-56446815D02*
X248713507Y-55970625D01*
X248713507Y-55970625D02*
X249189697Y-55923006D01*
X249189697Y-55923006D02*
X249142078Y-55970625D01*
X249142078Y-55970625D02*
X249094459Y-56065863D01*
X249094459Y-56065863D02*
X249094459Y-56303958D01*
X249094459Y-56303958D02*
X249142078Y-56399196D01*
X249142078Y-56399196D02*
X249189697Y-56446815D01*
X249189697Y-56446815D02*
X249284935Y-56494434D01*
X249284935Y-56494434D02*
X249523030Y-56494434D01*
X249523030Y-56494434D02*
X249618268Y-56446815D01*
X249618268Y-56446815D02*
X249665888Y-56399196D01*
X249665888Y-56399196D02*
X249713507Y-56303958D01*
X249713507Y-56303958D02*
X249713507Y-56065863D01*
X249713507Y-56065863D02*
X249665888Y-55970625D01*
X249665888Y-55970625D02*
X249618268Y-55923006D01*
X248665888Y-57637291D02*
X249951602Y-56780149D01*
X249713507Y-58018244D02*
X249713507Y-58208720D01*
X249713507Y-58208720D02*
X249665888Y-58303958D01*
X249665888Y-58303958D02*
X249618268Y-58351577D01*
X249618268Y-58351577D02*
X249475411Y-58446815D01*
X249475411Y-58446815D02*
X249284935Y-58494434D01*
X249284935Y-58494434D02*
X248903983Y-58494434D01*
X248903983Y-58494434D02*
X248808745Y-58446815D01*
X248808745Y-58446815D02*
X248761126Y-58399196D01*
X248761126Y-58399196D02*
X248713507Y-58303958D01*
X248713507Y-58303958D02*
X248713507Y-58113482D01*
X248713507Y-58113482D02*
X248761126Y-58018244D01*
X248761126Y-58018244D02*
X248808745Y-57970625D01*
X248808745Y-57970625D02*
X248903983Y-57923006D01*
X248903983Y-57923006D02*
X249142078Y-57923006D01*
X249142078Y-57923006D02*
X249237316Y-57970625D01*
X249237316Y-57970625D02*
X249284935Y-58018244D01*
X249284935Y-58018244D02*
X249332554Y-58113482D01*
X249332554Y-58113482D02*
X249332554Y-58303958D01*
X249332554Y-58303958D02*
X249284935Y-58399196D01*
X249284935Y-58399196D02*
X249237316Y-58446815D01*
X249237316Y-58446815D02*
X249142078Y-58494434D01*
X247158357Y-54563731D02*
X247158357Y-53992303D01*
X247158357Y-54278017D02*
X246158357Y-54278017D01*
X246158357Y-54278017D02*
X246301214Y-54182779D01*
X246301214Y-54182779D02*
X246396452Y-54087541D01*
X246396452Y-54087541D02*
X246444071Y-53992303D01*
X246158357Y-55420874D02*
X246158357Y-55230398D01*
X246158357Y-55230398D02*
X246205976Y-55135160D01*
X246205976Y-55135160D02*
X246253595Y-55087541D01*
X246253595Y-55087541D02*
X246396452Y-54992303D01*
X246396452Y-54992303D02*
X246586928Y-54944684D01*
X246586928Y-54944684D02*
X246967880Y-54944684D01*
X246967880Y-54944684D02*
X247063118Y-54992303D01*
X247063118Y-54992303D02*
X247110738Y-55039922D01*
X247110738Y-55039922D02*
X247158357Y-55135160D01*
X247158357Y-55135160D02*
X247158357Y-55325636D01*
X247158357Y-55325636D02*
X247110738Y-55420874D01*
X247110738Y-55420874D02*
X247063118Y-55468493D01*
X247063118Y-55468493D02*
X246967880Y-55516112D01*
X246967880Y-55516112D02*
X246729785Y-55516112D01*
X246729785Y-55516112D02*
X246634547Y-55468493D01*
X246634547Y-55468493D02*
X246586928Y-55420874D01*
X246586928Y-55420874D02*
X246539309Y-55325636D01*
X246539309Y-55325636D02*
X246539309Y-55135160D01*
X246539309Y-55135160D02*
X246586928Y-55039922D01*
X246586928Y-55039922D02*
X246634547Y-54992303D01*
X246634547Y-54992303D02*
X246729785Y-54944684D01*
X246158357Y-56420874D02*
X246158357Y-55944684D01*
X246158357Y-55944684D02*
X246634547Y-55897065D01*
X246634547Y-55897065D02*
X246586928Y-55944684D01*
X246586928Y-55944684D02*
X246539309Y-56039922D01*
X246539309Y-56039922D02*
X246539309Y-56278017D01*
X246539309Y-56278017D02*
X246586928Y-56373255D01*
X246586928Y-56373255D02*
X246634547Y-56420874D01*
X246634547Y-56420874D02*
X246729785Y-56468493D01*
X246729785Y-56468493D02*
X246967880Y-56468493D01*
X246967880Y-56468493D02*
X247063118Y-56420874D01*
X247063118Y-56420874D02*
X247110738Y-56373255D01*
X247110738Y-56373255D02*
X247158357Y-56278017D01*
X247158357Y-56278017D02*
X247158357Y-56039922D01*
X247158357Y-56039922D02*
X247110738Y-55944684D01*
X247110738Y-55944684D02*
X247063118Y-55897065D01*
X246110738Y-57611350D02*
X247396452Y-56754208D01*
X246253595Y-57897065D02*
X246205976Y-57944684D01*
X246205976Y-57944684D02*
X246158357Y-58039922D01*
X246158357Y-58039922D02*
X246158357Y-58278017D01*
X246158357Y-58278017D02*
X246205976Y-58373255D01*
X246205976Y-58373255D02*
X246253595Y-58420874D01*
X246253595Y-58420874D02*
X246348833Y-58468493D01*
X246348833Y-58468493D02*
X246444071Y-58468493D01*
X246444071Y-58468493D02*
X246586928Y-58420874D01*
X246586928Y-58420874D02*
X247158357Y-57849446D01*
X247158357Y-57849446D02*
X247158357Y-58468493D01*
X244551327Y-54602642D02*
X244551327Y-54031214D01*
X244551327Y-54316928D02*
X243551327Y-54316928D01*
X243551327Y-54316928D02*
X243694184Y-54221690D01*
X243694184Y-54221690D02*
X243789422Y-54126452D01*
X243789422Y-54126452D02*
X243837041Y-54031214D01*
X243551327Y-55459785D02*
X243551327Y-55269309D01*
X243551327Y-55269309D02*
X243598946Y-55174071D01*
X243598946Y-55174071D02*
X243646565Y-55126452D01*
X243646565Y-55126452D02*
X243789422Y-55031214D01*
X243789422Y-55031214D02*
X243979898Y-54983595D01*
X243979898Y-54983595D02*
X244360850Y-54983595D01*
X244360850Y-54983595D02*
X244456088Y-55031214D01*
X244456088Y-55031214D02*
X244503708Y-55078833D01*
X244503708Y-55078833D02*
X244551327Y-55174071D01*
X244551327Y-55174071D02*
X244551327Y-55364547D01*
X244551327Y-55364547D02*
X244503708Y-55459785D01*
X244503708Y-55459785D02*
X244456088Y-55507404D01*
X244456088Y-55507404D02*
X244360850Y-55555023D01*
X244360850Y-55555023D02*
X244122755Y-55555023D01*
X244122755Y-55555023D02*
X244027517Y-55507404D01*
X244027517Y-55507404D02*
X243979898Y-55459785D01*
X243979898Y-55459785D02*
X243932279Y-55364547D01*
X243932279Y-55364547D02*
X243932279Y-55174071D01*
X243932279Y-55174071D02*
X243979898Y-55078833D01*
X243979898Y-55078833D02*
X244027517Y-55031214D01*
X244027517Y-55031214D02*
X244122755Y-54983595D01*
X243551327Y-56459785D02*
X243551327Y-55983595D01*
X243551327Y-55983595D02*
X244027517Y-55935976D01*
X244027517Y-55935976D02*
X243979898Y-55983595D01*
X243979898Y-55983595D02*
X243932279Y-56078833D01*
X243932279Y-56078833D02*
X243932279Y-56316928D01*
X243932279Y-56316928D02*
X243979898Y-56412166D01*
X243979898Y-56412166D02*
X244027517Y-56459785D01*
X244027517Y-56459785D02*
X244122755Y-56507404D01*
X244122755Y-56507404D02*
X244360850Y-56507404D01*
X244360850Y-56507404D02*
X244456088Y-56459785D01*
X244456088Y-56459785D02*
X244503708Y-56412166D01*
X244503708Y-56412166D02*
X244551327Y-56316928D01*
X244551327Y-56316928D02*
X244551327Y-56078833D01*
X244551327Y-56078833D02*
X244503708Y-55983595D01*
X244503708Y-55983595D02*
X244456088Y-55935976D01*
X243503708Y-57650261D02*
X244789422Y-56793119D01*
X244551327Y-58507404D02*
X244551327Y-57935976D01*
X244551327Y-58221690D02*
X243551327Y-58221690D01*
X243551327Y-58221690D02*
X243694184Y-58126452D01*
X243694184Y-58126452D02*
X243789422Y-58031214D01*
X243789422Y-58031214D02*
X243837041Y-57935976D01*
D11*
%TO.C,J17*%
X253320989Y-213895543D02*
X253320989Y-212515543D01*
X251940989Y-213895543D02*
X253320989Y-213895543D01*
X250670989Y-213895543D02*
X242940989Y-213895543D01*
X250670989Y-213895543D02*
X250670989Y-211135543D01*
X242940989Y-213895543D02*
X242940989Y-211135543D01*
X250670989Y-211135543D02*
X242940989Y-211135543D01*
%TO.C,J16*%
X253285938Y-53360493D02*
X253285938Y-51980493D01*
X251905938Y-53360493D02*
X253285938Y-53360493D01*
X250635938Y-53360493D02*
X242905938Y-53360493D01*
X250635938Y-53360493D02*
X250635938Y-50600493D01*
X242905938Y-53360493D02*
X242905938Y-50600493D01*
X250635938Y-50600493D02*
X242905938Y-50600493D01*
%TO.C,U9*%
X240810000Y-139910000D02*
G75*
G02*
X242810000Y-139910000I1000000J0D01*
G01*
X244460000Y-119470000D02*
X244460000Y-139910000D01*
X244460000Y-139910000D02*
X242810000Y-139910000D01*
X240810000Y-139910000D02*
X239160000Y-139910000D01*
X239160000Y-119470000D02*
X244460000Y-119470000D01*
X239160000Y-139910000D02*
X239160000Y-119470000D01*
%TO.C,U5*%
X196660000Y-189070000D02*
X196660000Y-168630000D01*
X196660000Y-168630000D02*
X201960000Y-168630000D01*
X198310000Y-189070000D02*
X196660000Y-189070000D01*
X201960000Y-189070000D02*
X200310000Y-189070000D01*
X201960000Y-168630000D02*
X201960000Y-189070000D01*
X198310000Y-189070000D02*
G75*
G02*
X200310000Y-189070000I1000000J0D01*
G01*
%TO.C,U4*%
X196355000Y-141220000D02*
X196355000Y-120780000D01*
X196355000Y-120780000D02*
X201655000Y-120780000D01*
X198005000Y-141220000D02*
X196355000Y-141220000D01*
X201655000Y-141220000D02*
X200005000Y-141220000D01*
X201655000Y-120780000D02*
X201655000Y-141220000D01*
X198005000Y-141220000D02*
G75*
G02*
X200005000Y-141220000I1000000J0D01*
G01*
%TO.C,J15*%
X235345000Y-50620000D02*
X235345000Y-52000000D01*
X236725000Y-50620000D02*
X235345000Y-50620000D01*
X237995000Y-50620000D02*
X240645000Y-50620000D01*
X237995000Y-50620000D02*
X237995000Y-53380000D01*
X240645000Y-50620000D02*
X240645000Y-53380000D01*
X237995000Y-53380000D02*
X240645000Y-53380000D01*
%TO.C,J14*%
X235345000Y-211120000D02*
X235345000Y-212500000D01*
X236725000Y-211120000D02*
X235345000Y-211120000D01*
X237995000Y-211120000D02*
X240645000Y-211120000D01*
X237995000Y-211120000D02*
X237995000Y-213880000D01*
X240645000Y-211120000D02*
X240645000Y-213880000D01*
X237995000Y-213880000D02*
X240645000Y-213880000D01*
%TO.C,J13*%
X189880000Y-127080000D02*
X188500000Y-127080000D01*
X189880000Y-128460000D02*
X189880000Y-127080000D01*
X189880000Y-129730000D02*
X189880000Y-134920000D01*
X189880000Y-129730000D02*
X187120000Y-129730000D01*
X189880000Y-134920000D02*
X187120000Y-134920000D01*
X187120000Y-129730000D02*
X187120000Y-134920000D01*
%TO.C,J12*%
X189880000Y-108620000D02*
X188500000Y-108620000D01*
X189880000Y-110000000D02*
X189880000Y-108620000D01*
X189880000Y-111270000D02*
X189880000Y-116460000D01*
X189880000Y-111270000D02*
X187120000Y-111270000D01*
X189880000Y-116460000D02*
X187120000Y-116460000D01*
X187120000Y-111270000D02*
X187120000Y-116460000D01*
%TO.C,J11*%
X195369222Y-211066259D02*
X195369222Y-212446259D01*
X196749222Y-211066259D02*
X195369222Y-211066259D01*
X198019222Y-211066259D02*
X203209222Y-211066259D01*
X198019222Y-211066259D02*
X198019222Y-213826259D01*
X203209222Y-211066259D02*
X203209222Y-213826259D01*
X198019222Y-213826259D02*
X203209222Y-213826259D01*
%TO.C,J10*%
X195397787Y-50624510D02*
X195397787Y-52004510D01*
X196777787Y-50624510D02*
X195397787Y-50624510D01*
X198047787Y-50624510D02*
X203237787Y-50624510D01*
X198047787Y-50624510D02*
X198047787Y-53384510D01*
X203237787Y-50624510D02*
X203237787Y-53384510D01*
X198047787Y-53384510D02*
X203237787Y-53384510D01*
%TO.C,U3*%
X198190000Y-96870000D02*
G75*
G02*
X200190000Y-96870000I1000000J0D01*
G01*
X201840000Y-76430000D02*
X201840000Y-96870000D01*
X201840000Y-96870000D02*
X200190000Y-96870000D01*
X198190000Y-96870000D02*
X196540000Y-96870000D01*
X196540000Y-76430000D02*
X201840000Y-76430000D01*
X196540000Y-96870000D02*
X196540000Y-76430000D01*
%TD*%
M02*
