%TF.GenerationSoftware,KiCad,Pcbnew,9.0.3*%
%TF.CreationDate,2025-09-21T19:45:41+02:00*%
%TF.ProjectId,kosmo song manager backbone board,6b6f736d-6f20-4736-9f6e-67206d616e61,rev?*%
%TF.SameCoordinates,Original*%
%TF.FileFunction,Soldermask,Bot*%
%TF.FilePolarity,Negative*%
%FSLAX46Y46*%
G04 Gerber Fmt 4.6, Leading zero omitted, Abs format (unit mm)*
G04 Created by KiCad (PCBNEW 9.0.3) date 2025-09-21 19:45:41*
%MOMM*%
%LPD*%
G01*
G04 APERTURE LIST*
G04 Aperture macros list*
%AMRoundRect*
0 Rectangle with rounded corners*
0 $1 Rounding radius*
0 $2 $3 $4 $5 $6 $7 $8 $9 X,Y pos of 4 corners*
0 Add a 4 corners polygon primitive as box body*
4,1,4,$2,$3,$4,$5,$6,$7,$8,$9,$2,$3,0*
0 Add four circle primitives for the rounded corners*
1,1,$1+$1,$2,$3*
1,1,$1+$1,$4,$5*
1,1,$1+$1,$6,$7*
1,1,$1+$1,$8,$9*
0 Add four rect primitives between the rounded corners*
20,1,$1+$1,$2,$3,$4,$5,0*
20,1,$1+$1,$4,$5,$6,$7,0*
20,1,$1+$1,$6,$7,$8,$9,0*
20,1,$1+$1,$8,$9,$2,$3,0*%
G04 Aperture macros list end*
%ADD10R,1.700000X1.700000*%
%ADD11C,1.700000*%
%ADD12C,1.600000*%
%ADD13RoundRect,0.250000X-0.550000X-0.550000X0.550000X-0.550000X0.550000X0.550000X-0.550000X0.550000X0*%
%ADD14RoundRect,0.250000X0.600000X-0.600000X0.600000X0.600000X-0.600000X0.600000X-0.600000X-0.600000X0*%
G04 APERTURE END LIST*
D10*
%TO.C,J17*%
X251940989Y-212515543D03*
D11*
X249400989Y-212515543D03*
X246860989Y-212515543D03*
X244320989Y-212515543D03*
%TD*%
D10*
%TO.C,J16*%
X251905938Y-51980493D03*
D11*
X249365938Y-51980493D03*
X246825938Y-51980493D03*
X244285938Y-51980493D03*
%TD*%
D12*
%TO.C,U9*%
X245620000Y-138580000D03*
X245620000Y-136040000D03*
X245620000Y-133500000D03*
X245620000Y-130960000D03*
X245620000Y-128420000D03*
X245620000Y-125880000D03*
X245620000Y-123340000D03*
X245620000Y-120800000D03*
X238000000Y-120800000D03*
X238000000Y-123340000D03*
X238000000Y-125880000D03*
X238000000Y-128420000D03*
X238000000Y-130960000D03*
X238000000Y-133500000D03*
X238000000Y-136040000D03*
D13*
X238000000Y-138580000D03*
%TD*%
D11*
%TO.C,J2*%
X226040000Y-54000000D03*
X226040000Y-56540000D03*
X223500000Y-54000000D03*
X223500000Y-56540000D03*
X220960000Y-54000000D03*
X220960000Y-56540000D03*
X218420000Y-54000000D03*
X218420000Y-56540000D03*
X215880000Y-54000000D03*
D14*
X215880000Y-56540000D03*
%TD*%
D11*
%TO.C,J6*%
X225664057Y-141933697D03*
X225664057Y-144473697D03*
X223124057Y-141933697D03*
X223124057Y-144473697D03*
X220584057Y-141933697D03*
X220584057Y-144473697D03*
X218044057Y-141933697D03*
X218044057Y-144473697D03*
X215504057Y-141933697D03*
D14*
X215504057Y-144473697D03*
%TD*%
D11*
%TO.C,J8*%
X225660000Y-185997783D03*
X225660000Y-188537783D03*
X223120000Y-185997783D03*
X223120000Y-188537783D03*
X220580000Y-185997783D03*
X220580000Y-188537783D03*
X218040000Y-185997783D03*
X218040000Y-188537783D03*
X215500000Y-185997783D03*
D14*
X215500000Y-188537783D03*
%TD*%
D11*
%TO.C,J7*%
X225695131Y-163965740D03*
X225695131Y-166505740D03*
X223155131Y-163965740D03*
X223155131Y-166505740D03*
X220615131Y-163965740D03*
X220615131Y-166505740D03*
X218075131Y-163965740D03*
X218075131Y-166505740D03*
X215535131Y-163965740D03*
D14*
X215535131Y-166505740D03*
%TD*%
D13*
%TO.C,U5*%
X195500000Y-187740000D03*
D12*
X195500000Y-185200000D03*
X195500000Y-182660000D03*
X195500000Y-180120000D03*
X195500000Y-177580000D03*
X195500000Y-175040000D03*
X195500000Y-172500000D03*
X195500000Y-169960000D03*
X203120000Y-169960000D03*
X203120000Y-172500000D03*
X203120000Y-175040000D03*
X203120000Y-177580000D03*
X203120000Y-180120000D03*
X203120000Y-182660000D03*
X203120000Y-185200000D03*
X203120000Y-187740000D03*
%TD*%
D13*
%TO.C,U4*%
X195195000Y-139890000D03*
D12*
X195195000Y-137350000D03*
X195195000Y-134810000D03*
X195195000Y-132270000D03*
X195195000Y-129730000D03*
X195195000Y-127190000D03*
X195195000Y-124650000D03*
X195195000Y-122110000D03*
X202815000Y-122110000D03*
X202815000Y-124650000D03*
X202815000Y-127190000D03*
X202815000Y-129730000D03*
X202815000Y-132270000D03*
X202815000Y-134810000D03*
X202815000Y-137350000D03*
X202815000Y-139890000D03*
%TD*%
D10*
%TO.C,J15*%
X236725000Y-52000000D03*
D11*
X239265000Y-52000000D03*
%TD*%
D10*
%TO.C,J14*%
X236725000Y-212500000D03*
D11*
X239265000Y-212500000D03*
%TD*%
D10*
%TO.C,J13*%
X188500000Y-128460000D03*
D11*
X188500000Y-131000000D03*
X188500000Y-133540000D03*
%TD*%
D10*
%TO.C,J12*%
X188500000Y-110000000D03*
D11*
X188500000Y-112540000D03*
X188500000Y-115080000D03*
%TD*%
D10*
%TO.C,J11*%
X196749222Y-212446259D03*
D11*
X199289222Y-212446259D03*
X201829222Y-212446259D03*
%TD*%
D10*
%TO.C,J10*%
X196777787Y-52004510D03*
D11*
X199317787Y-52004510D03*
X201857787Y-52004510D03*
%TD*%
D14*
%TO.C,J5*%
X216047134Y-122500000D03*
D11*
X216047134Y-119960000D03*
X218587134Y-122500000D03*
X218587134Y-119960000D03*
X221127134Y-122500000D03*
X221127134Y-119960000D03*
X223667134Y-122500000D03*
X223667134Y-119960000D03*
X226207134Y-122500000D03*
X226207134Y-119960000D03*
%TD*%
D14*
%TO.C,J4*%
X216000000Y-100540000D03*
D11*
X216000000Y-98000000D03*
X218540000Y-100540000D03*
X218540000Y-98000000D03*
X221080000Y-100540000D03*
X221080000Y-98000000D03*
X223620000Y-100540000D03*
X223620000Y-98000000D03*
X226160000Y-100540000D03*
X226160000Y-98000000D03*
%TD*%
D14*
%TO.C,J3*%
X215840000Y-78500000D03*
D11*
X215840000Y-75960000D03*
X218380000Y-78500000D03*
X218380000Y-75960000D03*
X220920000Y-78500000D03*
X220920000Y-75960000D03*
X223460000Y-78500000D03*
X223460000Y-75960000D03*
X226000000Y-78500000D03*
X226000000Y-75960000D03*
%TD*%
D12*
%TO.C,U3*%
X203000000Y-95540000D03*
X203000000Y-93000000D03*
X203000000Y-90460000D03*
X203000000Y-87920000D03*
X203000000Y-85380000D03*
X203000000Y-82840000D03*
X203000000Y-80300000D03*
X203000000Y-77760000D03*
X195380000Y-77760000D03*
X195380000Y-80300000D03*
X195380000Y-82840000D03*
X195380000Y-85380000D03*
X195380000Y-87920000D03*
X195380000Y-90460000D03*
X195380000Y-93000000D03*
D13*
X195380000Y-95540000D03*
%TD*%
D11*
%TO.C,J9*%
X225672191Y-207913662D03*
X225672191Y-210453662D03*
X223132191Y-207913662D03*
X223132191Y-210453662D03*
X220592191Y-207913662D03*
X220592191Y-210453662D03*
X218052191Y-207913662D03*
X218052191Y-210453662D03*
X215512191Y-207913662D03*
D14*
X215512191Y-210453662D03*
%TD*%
M02*
