M48
; DRILL file KiCad 10.0.1 date 2026-07-21T22:09:31
; FORMAT={-:-/ absolute / metric / decimal}
; #@! TF.CreationDate,2026-07-21T22:09:31+02:00
; #@! TF.GenerationSoftware,Kicad,Pcbnew,10.0.1
; #@! TF.FileFunction,MixedPlating,1,2
FMAT,2
METRIC
; #@! TA.AperFunction,Plated,PTH,ViaDrill
T1C0.300
; #@! TA.AperFunction,Plated,PTH,ComponentDrill
T2C0.800
; #@! TA.AperFunction,Plated,PTH,ComponentDrill
T3C0.900
; #@! TA.AperFunction,Plated,PTH,ComponentDrill
T4C1.000
; #@! TA.AperFunction,Plated,PTH,ComponentDrill
T5C1.150
%
G90
G05
T1
X37.0Y-105.5
X38.5Y-106.0
X40.0Y-102.5
X40.0Y-104.5
X41.391Y-158.5
X44.271Y-159.5
X45.4Y-110.0
X46.5Y-109.0
X47.0Y-169.5
X52.0Y-170.9
X53.0Y-158.5
X53.0Y-160.0
X53.0Y-171.5
X54.0Y-110.5
X54.0Y-114.5
X55.0Y-120.0
X55.5Y-113.0
X56.0Y-114.0
X56.0Y-121.5
X56.0Y-122.5
X56.0Y-133.5
X57.0Y-105.1
X57.0Y-110.5
X58.0Y-112.5
X58.5Y-122.5
X59.5Y-121.5
X60.5Y-104.0
X61.0Y-112.5
X62.0Y-112.0
X62.0Y-118.5
X63.0Y-114.0
X63.5Y-111.0
X64.5Y-112.0
X66.5Y-110.0
X66.5Y-114.0
X67.5Y-59.5
X67.5Y-60.5
X67.5Y-187.5
X70.0Y-104.0
X70.0Y-105.0
X70.5Y-57.5
X70.5Y-112.0
X71.5Y-106.5
X72.5Y-192.5
X73.1Y-115.281
X74.0Y-196.5
X74.5Y-59.5
X74.5Y-61.74
X74.5Y-86.0
X75.5Y-86.5
X76.0Y-102.5
X76.115Y-87.1
X77.5Y-104.0
X79.5Y-195.0
X84.0Y-105.5
X84.5Y-120.0
X85.0Y-106.0
X86.0Y-106.0
X87.5Y-120.0
X87.5Y-121.0
X87.5Y-156.0
X87.5Y-157.0
X88.0Y-110.1
X88.0Y-148.5
X89.5Y-98.0
X91.0Y-100.5
X92.985Y-84.592
X93.0Y-104.0
X93.5Y-86.0
X94.5Y-83.0
X95.5Y-83.0
X95.5Y-85.5
X96.0Y-104.6
X96.5Y-83.0
X96.5Y-111.0
X96.5Y-115.0
X97.0Y-87.5
X97.5Y-61.0
X98.88Y-105.0
X99.0Y-110.0
X100.0Y-94.0
X101.478Y-101.978
X101.5Y-100.0
X103.0Y-97.6
X103.0Y-165.5
X104.0Y-149.0
X104.5Y-112.5
X105.0Y-109.4
X105.0Y-167.0
X106.213Y-102.713
X106.5Y-104.944
X107.0Y-103.5
X107.0Y-176.5
X108.0Y-112.5
X108.5Y-88.5
X109.5Y-120.5
X109.5Y-142.5
X110.0Y-178.5
X110.0Y-179.5
X110.241Y-139.753
X111.0Y-120.5
X111.5Y-85.5
X111.5Y-87.0
X111.5Y-108.0
X111.5Y-140.0
X112.0Y-104.5
X112.0Y-113.0
X113.0Y-143.5
X115.5Y-82.5
X117.0Y-118.5
X117.5Y-86.1
X122.0Y-110.0
X122.5Y-70.0
X122.5Y-72.5
X124.0Y-104.5
X124.418Y-173.0
X124.5Y-154.0
X125.146Y-172.5
X129.5Y-90.602
X135.0Y-116.0
X136.5Y-175.0
X137.5Y-110.0
X138.4Y-116.0
X138.5Y-111.0
X138.5Y-112.0
X139.5Y-107.5
X140.0Y-121.0
X142.0Y-122.0
X144.0Y-110.0
X145.5Y-111.0
X146.0Y-119.5
X149.669Y-109.331
X150.0Y-112.5
X150.5Y-110.0
X151.0Y-120.5
X152.0Y-110.5
X152.5Y-121.0
X153.5Y-110.5
X154.0Y-151.5
X154.0Y-171.5
X154.5Y-104.0
X154.5Y-105.6
X155.0Y-151.5
X156.0Y-122.0
X156.0Y-151.5
X156.5Y-117.0
X157.5Y-103.4
X157.5Y-137.5
X157.5Y-194.5
X158.0Y-195.5
X158.5Y-135.5
X159.015Y-171.5
X159.5Y-151.5
X161.0Y-195.5
X161.9Y-144.1
X162.0Y-110.0
T2
X38.84Y-116.0
X40.291Y-123.708
X40.291Y-131.328
X40.291Y-154.219
X40.291Y-161.839
X40.84Y-180.0
X42.0Y-107.5
X42.0Y-110.0
X42.831Y-123.708
X42.831Y-131.328
X42.831Y-154.219
X42.831Y-161.839
X44.34Y-63.5
X45.371Y-123.708
X45.371Y-131.328
X45.371Y-154.219
X45.371Y-161.839
X47.911Y-123.708
X47.911Y-131.328
X47.911Y-154.219
X47.911Y-161.839
X48.5Y-107.0
X48.5Y-112.0
X49.0Y-116.0
X50.451Y-123.708
X50.451Y-131.328
X50.451Y-154.219
X50.451Y-161.839
X51.0Y-180.0
X54.5Y-63.5
X57.34Y-63.5
X59.5Y-175.0
X59.5Y-180.0
X64.96Y-174.88
X64.96Y-182.5
X67.5Y-63.5
X67.5Y-174.88
X67.5Y-182.5
X70.04Y-174.88
X70.04Y-182.5
X72.58Y-174.88
X72.58Y-182.5
X75.12Y-174.88
X75.12Y-182.5
X77.66Y-174.88
X77.66Y-182.5
X78.0Y-91.5
X79.5Y-98.5
X80.2Y-174.88
X80.2Y-182.5
X82.0Y-98.5
X82.74Y-174.88
X82.74Y-182.5
X83.0Y-91.5
X84.5Y-109.5
X84.5Y-112.0
X90.0Y-109.5
X90.0Y-114.5
X90.12Y-123.838
X90.12Y-131.458
X90.262Y-154.135
X90.262Y-161.755
X90.487Y-184.702
X90.487Y-192.322
X92.66Y-123.838
X92.66Y-131.458
X92.802Y-154.135
X92.802Y-161.755
X93.027Y-184.702
X93.027Y-192.322
X95.2Y-123.838
X95.2Y-131.458
X95.342Y-154.135
X95.342Y-161.755
X95.567Y-184.702
X95.567Y-192.322
X97.74Y-123.838
X97.74Y-131.458
X97.882Y-154.135
X97.882Y-161.755
X98.107Y-184.702
X98.107Y-192.322
X100.28Y-123.838
X100.28Y-131.458
X100.422Y-154.135
X100.422Y-161.755
X100.647Y-184.702
X100.647Y-192.322
X110.84Y-63.0
X119.5Y-98.42
X119.5Y-108.58
X121.0Y-63.0
X127.8Y-63.88
X127.8Y-71.5
X130.34Y-63.88
X130.34Y-71.5
X132.88Y-63.88
X132.88Y-71.5
X135.42Y-63.88
X135.42Y-71.5
X137.96Y-63.88
X137.96Y-71.5
X140.5Y-63.88
X140.5Y-71.5
X140.667Y-123.917
X140.667Y-131.537
X140.806Y-184.742
X140.806Y-192.362
X140.833Y-154.428
X140.833Y-162.048
X143.04Y-63.88
X143.04Y-71.5
X143.207Y-123.917
X143.207Y-131.537
X143.346Y-184.742
X143.346Y-192.362
X143.373Y-154.428
X143.373Y-162.048
X145.747Y-123.917
X145.747Y-131.537
X145.886Y-184.742
X145.886Y-192.362
X145.913Y-154.428
X145.913Y-162.048
X148.287Y-123.917
X148.287Y-131.537
X148.426Y-184.742
X148.426Y-192.362
X148.453Y-154.428
X148.453Y-162.048
X150.827Y-123.917
X150.827Y-131.537
X150.966Y-184.742
X150.966Y-192.362
X150.993Y-154.428
X150.993Y-162.048
X159.5Y-107.5
X159.5Y-112.5
X165.5Y-110.0
X165.5Y-112.5
X175.0Y-98.42
X175.0Y-108.58
T3
X45.618Y-99.8
X45.642Y-91.788
X48.158Y-99.8
X48.182Y-91.788
X53.63Y-99.823
X53.677Y-91.812
X56.17Y-99.823
X56.217Y-91.812
X61.618Y-91.788
X61.736Y-99.847
X64.158Y-91.788
X64.276Y-99.847
X72.622Y-118.192
X72.649Y-148.735
X75.162Y-118.192
X75.189Y-148.735
X95.638Y-99.759
X95.662Y-91.795
X98.178Y-99.759
X98.202Y-91.795
X103.673Y-91.842
X103.673Y-99.783
X106.213Y-91.842
X106.213Y-99.783
X111.661Y-99.783
X111.708Y-91.866
X114.201Y-99.783
X114.248Y-91.866
X122.606Y-179.193
X122.616Y-118.205
X122.629Y-148.779
X125.146Y-179.193
X125.156Y-118.205
X125.169Y-148.779
X145.622Y-99.885
X145.658Y-91.802
X148.162Y-99.885
X148.198Y-91.802
X153.669Y-91.731
X153.669Y-99.778
X156.209Y-91.731
X156.209Y-99.778
X161.61Y-91.731
X161.717Y-99.743
X164.15Y-91.731
X164.257Y-99.743
X173.106Y-118.241
X173.106Y-179.214
X173.129Y-148.704
X175.646Y-118.241
X175.646Y-179.214
X175.669Y-148.704
T4
X39.0Y-65.5
X39.0Y-68.04
X39.0Y-70.58
X39.0Y-73.12
X72.26Y-47.94
X72.26Y-50.48
X72.26Y-53.02
X72.26Y-55.56
X72.26Y-58.1
X72.26Y-60.64
X72.26Y-63.18
X72.26Y-65.72
X72.26Y-68.26
X72.26Y-70.8
X72.26Y-73.34
X72.26Y-75.88
X72.26Y-78.42
X72.26Y-80.96
X72.26Y-83.5
X87.5Y-47.94
X87.5Y-50.48
X87.5Y-53.02
X87.5Y-55.56
X87.5Y-58.1
X87.5Y-60.64
X87.5Y-63.18
X87.5Y-65.72
X87.5Y-68.26
X87.5Y-70.8
X87.5Y-73.34
X87.5Y-75.88
X87.5Y-78.42
X87.5Y-80.96
X87.5Y-83.5
T5
X39.0Y-82.8
X39.0Y-87.4
X39.0Y-92.0
X40.395Y-169.825
X40.395Y-174.425
X43.9Y-187.0
X48.5Y-187.0
X61.8Y-137.0
X61.8Y-168.0
X62.9Y-195.5
X66.0Y-72.0
X66.0Y-76.6
X66.4Y-137.0
X66.4Y-168.0
X67.5Y-195.5
X71.0Y-137.0
X71.0Y-168.0
X102.4Y-60.0
X107.0Y-60.0
X111.8Y-137.0
X111.8Y-168.0
X111.8Y-198.5
X116.4Y-137.0
X116.4Y-168.0
X116.4Y-198.5
X116.5Y-72.5
X116.5Y-77.1
X121.0Y-137.0
X121.0Y-168.0
X121.0Y-198.5
X152.9Y-59.5
X157.5Y-59.5
X161.9Y-137.5
X162.3Y-168.0
X162.3Y-198.5
X166.5Y-73.0
X166.5Y-77.6
X166.5Y-137.5
X166.9Y-168.0
X166.9Y-198.5
X171.1Y-137.5
X171.5Y-168.0
X171.5Y-198.5
M30
