%TF.GenerationSoftware,KiCad,Pcbnew,10.0.1*%
%TF.CreationDate,2026-07-21T22:08:46+02:00*%
%TF.ProjectId,kosmo-nts1-multieffects,6b6f736d-6f2d-46e7-9473-312d6d756c74,rev?*%
%TF.SameCoordinates,Original*%
%TF.FileFunction,Soldermask,Bot*%
%TF.FilePolarity,Negative*%
%FSLAX46Y46*%
G04 Gerber Fmt 4.6, Leading zero omitted, Abs format (unit mm)*
G04 Created by KiCad (PCBNEW 10.0.1) date 2026-07-21 22:08:46*
%MOMM*%
%LPD*%
G01*
G04 APERTURE LIST*
G04 Aperture macros list*
%AMRoundRect*
0 Rectangle with rounded corners*
0 $1 Rounding radius*
0 $2 $3 $4 $5 $6 $7 $8 $9 X,Y pos of 4 corners*
0 Add a 4 corners polygon primitive as box body*
4,1,4,$2,$3,$4,$5,$6,$7,$8,$9,$2,$3,0*
0 Add four circle primitives for the rounded corners*
1,1,$1+$1,$2,$3*
1,1,$1+$1,$4,$5*
1,1,$1+$1,$6,$7*
1,1,$1+$1,$8,$9*
0 Add four rect primitives between the rounded corners*
20,1,$1+$1,$2,$3,$4,$5,0*
20,1,$1+$1,$4,$5,$6,$7,0*
20,1,$1+$1,$6,$7,$8,$9,0*
20,1,$1+$1,$8,$9,$2,$3,0*%
G04 Aperture macros list end*
%ADD10C,2.150000*%
%ADD11RoundRect,0.250000X-0.825000X0.825000X-0.825000X-0.825000X0.825000X-0.825000X0.825000X0.825000X0*%
%ADD12R,1.800000X1.800000*%
%ADD13C,1.800000*%
%ADD14C,1.600000*%
%ADD15RoundRect,0.250000X-0.825000X-0.825000X0.825000X-0.825000X0.825000X0.825000X-0.825000X0.825000X0*%
%ADD16RoundRect,0.250000X0.550000X-0.550000X0.550000X0.550000X-0.550000X0.550000X-0.550000X-0.550000X0*%
%ADD17RoundRect,0.250000X0.825000X-0.825000X0.825000X0.825000X-0.825000X0.825000X-0.825000X-0.825000X0*%
%ADD18RoundRect,0.250000X-0.550000X0.550000X-0.550000X-0.550000X0.550000X-0.550000X0.550000X0.550000X0*%
%ADD19R,1.700000X1.700000*%
%ADD20C,1.700000*%
%ADD21RoundRect,0.250000X-0.550000X-0.550000X0.550000X-0.550000X0.550000X0.550000X-0.550000X0.550000X0*%
%ADD22R,1.600000X1.600000*%
%ADD23O,1.600000X1.600000*%
G04 APERTURE END LIST*
D10*
%TO.C,J2*%
X40395000Y-174425000D03*
D11*
X40395000Y-169825000D03*
%TD*%
D12*
%TO.C,D13*%
X111661190Y-99782699D03*
D13*
X114201190Y-99782699D03*
%TD*%
D14*
%TO.C,R33*%
X119500000Y-98420000D03*
X119500000Y-108580000D03*
%TD*%
D12*
%TO.C,D25*%
X173105503Y-118240709D03*
D13*
X175645503Y-118240709D03*
%TD*%
D12*
%TO.C,D24*%
X122605503Y-179192769D03*
D13*
X125145503Y-179192769D03*
%TD*%
D14*
%TO.C,R31*%
X44340000Y-63500000D03*
X54500000Y-63500000D03*
%TD*%
D12*
%TO.C,D17*%
X145622428Y-99884641D03*
D13*
X148162428Y-99884641D03*
%TD*%
D12*
%TO.C,D16*%
X161610219Y-91731222D03*
D13*
X164150219Y-91731222D03*
%TD*%
D12*
%TO.C,D22*%
X122616044Y-118205287D03*
D13*
X125156044Y-118205287D03*
%TD*%
D14*
%TO.C,R27*%
X121000000Y-63000000D03*
X110840000Y-63000000D03*
%TD*%
D12*
%TO.C,D12*%
X103673203Y-99782699D03*
D13*
X106213203Y-99782699D03*
%TD*%
D12*
%TO.C,D7*%
X61735794Y-99847086D03*
D13*
X64275794Y-99847086D03*
%TD*%
D15*
%TO.C,RV13*%
X111800000Y-198500000D03*
D10*
X116400000Y-198500000D03*
X121000000Y-198500000D03*
%TD*%
D12*
%TO.C,D20*%
X72622051Y-118192068D03*
D13*
X75162051Y-118192068D03*
%TD*%
D15*
%TO.C,RV10*%
X61800000Y-168000000D03*
D10*
X66400000Y-168000000D03*
X71000000Y-168000000D03*
%TD*%
D12*
%TO.C,D26*%
X173129136Y-148703772D03*
D13*
X175669136Y-148703772D03*
%TD*%
D16*
%TO.C,U13*%
X140832590Y-162047697D03*
D14*
X143372590Y-162047697D03*
X145912590Y-162047697D03*
X148452590Y-162047697D03*
X150992590Y-162047697D03*
X150992590Y-154427697D03*
X148452590Y-154427697D03*
X145912590Y-154427697D03*
X143372590Y-154427697D03*
X140832590Y-154427697D03*
%TD*%
D15*
%TO.C,RV12*%
X111800000Y-168000000D03*
D10*
X116400000Y-168000000D03*
X121000000Y-168000000D03*
%TD*%
D17*
%TO.C,SW3*%
X166500000Y-77600000D03*
D10*
X166500000Y-73000000D03*
%TD*%
D12*
%TO.C,D18*%
X153669498Y-99778292D03*
D13*
X156209498Y-99778292D03*
%TD*%
D15*
%TO.C,J11*%
X102400000Y-60000000D03*
D10*
X107000000Y-60000000D03*
%TD*%
D15*
%TO.C,SW4*%
X62900000Y-195500000D03*
D10*
X67500000Y-195500000D03*
%TD*%
D14*
%TO.C,R29*%
X38840000Y-116000000D03*
X49000000Y-116000000D03*
%TD*%
D16*
%TO.C,U9*%
X127800000Y-71500000D03*
D14*
X130340000Y-71500000D03*
X132880000Y-71500000D03*
X135420000Y-71500000D03*
X137960000Y-71500000D03*
X140500000Y-71500000D03*
X143040000Y-71500000D03*
X143040000Y-63880000D03*
X140500000Y-63880000D03*
X137960000Y-63880000D03*
X135420000Y-63880000D03*
X132880000Y-63880000D03*
X130340000Y-63880000D03*
X127800000Y-63880000D03*
%TD*%
D12*
%TO.C,D19*%
X161716567Y-99742842D03*
D13*
X164256567Y-99742842D03*
%TD*%
D12*
%TO.C,D6*%
X53629641Y-99823453D03*
D13*
X56169641Y-99823453D03*
%TD*%
D14*
%TO.C,R28*%
X51000000Y-180000000D03*
X40840000Y-180000000D03*
%TD*%
%TO.C,R32*%
X67500000Y-63500000D03*
X57340000Y-63500000D03*
%TD*%
D15*
%TO.C,J13*%
X43900000Y-187000000D03*
D10*
X48500000Y-187000000D03*
%TD*%
D12*
%TO.C,D2*%
X45641654Y-91788200D03*
D13*
X48181654Y-91788200D03*
%TD*%
D15*
%TO.C,RV15*%
X162300000Y-168000000D03*
D10*
X166900000Y-168000000D03*
X171500000Y-168000000D03*
%TD*%
D15*
%TO.C,RV9*%
X61800000Y-137000000D03*
D10*
X66400000Y-137000000D03*
X71000000Y-137000000D03*
%TD*%
D16*
%TO.C,U7*%
X90487194Y-192321582D03*
D14*
X93027194Y-192321582D03*
X95567194Y-192321582D03*
X98107194Y-192321582D03*
X100647194Y-192321582D03*
X100647194Y-184701582D03*
X98107194Y-184701582D03*
X95567194Y-184701582D03*
X93027194Y-184701582D03*
X90487194Y-184701582D03*
%TD*%
D16*
%TO.C,U8*%
X140667158Y-131537368D03*
D14*
X143207158Y-131537368D03*
X145747158Y-131537368D03*
X148287158Y-131537368D03*
X150827158Y-131537368D03*
X150827158Y-123917368D03*
X148287158Y-123917368D03*
X145747158Y-123917368D03*
X143207158Y-123917368D03*
X140667158Y-123917368D03*
%TD*%
D12*
%TO.C,D8*%
X95661583Y-91794712D03*
D13*
X98201583Y-91794712D03*
%TD*%
D12*
%TO.C,D4*%
X61617628Y-91788200D03*
D13*
X64157628Y-91788200D03*
%TD*%
D16*
%TO.C,U3*%
X40291224Y-131328412D03*
D14*
X42831224Y-131328412D03*
X45371224Y-131328412D03*
X47911224Y-131328412D03*
X50451224Y-131328412D03*
X50451224Y-123708412D03*
X47911224Y-123708412D03*
X45371224Y-123708412D03*
X42831224Y-123708412D03*
X40291224Y-123708412D03*
%TD*%
D12*
%TO.C,D21*%
X72649064Y-148734927D03*
D13*
X75189064Y-148734927D03*
%TD*%
D11*
%TO.C,SW1*%
X66000000Y-72000000D03*
D10*
X66000000Y-76600000D03*
%TD*%
D12*
%TO.C,D11*%
X95637949Y-99759065D03*
D13*
X98177949Y-99759065D03*
%TD*%
D12*
%TO.C,D10*%
X111708456Y-91865611D03*
D13*
X114248456Y-91865611D03*
%TD*%
D12*
%TO.C,D14*%
X145657878Y-91802121D03*
D13*
X148197878Y-91802121D03*
%TD*%
D16*
%TO.C,U2*%
X64960000Y-182500000D03*
D14*
X67500000Y-182500000D03*
X70040000Y-182500000D03*
X72580000Y-182500000D03*
X75120000Y-182500000D03*
X77660000Y-182500000D03*
X80200000Y-182500000D03*
X82740000Y-182500000D03*
X82740000Y-174880000D03*
X80200000Y-174880000D03*
X77660000Y-174880000D03*
X75120000Y-174880000D03*
X72580000Y-174880000D03*
X70040000Y-174880000D03*
X67500000Y-174880000D03*
X64960000Y-174880000D03*
%TD*%
D11*
%TO.C,SW2*%
X116500000Y-72500000D03*
D10*
X116500000Y-77100000D03*
%TD*%
D16*
%TO.C,U14*%
X140805683Y-192362337D03*
D14*
X143345683Y-192362337D03*
X145885683Y-192362337D03*
X148425683Y-192362337D03*
X150965683Y-192362337D03*
X150965683Y-184742337D03*
X148425683Y-184742337D03*
X145885683Y-184742337D03*
X143345683Y-184742337D03*
X140805683Y-184742337D03*
%TD*%
%TO.C,R30*%
X175000000Y-108580000D03*
X175000000Y-98420000D03*
%TD*%
D12*
%TO.C,D9*%
X103673203Y-91841978D03*
D13*
X106213203Y-91841978D03*
%TD*%
D15*
%TO.C,RV14*%
X161900000Y-137500000D03*
D10*
X166500000Y-137500000D03*
X171100000Y-137500000D03*
%TD*%
D15*
%TO.C,J12*%
X152900000Y-59500000D03*
D10*
X157500000Y-59500000D03*
%TD*%
D16*
%TO.C,U6*%
X40291224Y-161838741D03*
D14*
X42831224Y-161838741D03*
X45371224Y-161838741D03*
X47911224Y-161838741D03*
X50451224Y-161838741D03*
X50451224Y-154218741D03*
X47911224Y-154218741D03*
X45371224Y-154218741D03*
X42831224Y-154218741D03*
X40291224Y-154218741D03*
%TD*%
D12*
%TO.C,D3*%
X53676908Y-91811833D03*
D13*
X56216908Y-91811833D03*
%TD*%
D12*
%TO.C,D5*%
X45618021Y-99799820D03*
D13*
X48158021Y-99799820D03*
%TD*%
D15*
%TO.C,RV16*%
X162300000Y-198500000D03*
D10*
X166900000Y-198500000D03*
X171500000Y-198500000D03*
%TD*%
D12*
%TO.C,D23*%
X122629136Y-148779424D03*
D13*
X125169136Y-148779424D03*
%TD*%
D16*
%TO.C,U5*%
X90261690Y-161755399D03*
D14*
X92801690Y-161755399D03*
X95341690Y-161755399D03*
X97881690Y-161755399D03*
X100421690Y-161755399D03*
X100421690Y-154135399D03*
X97881690Y-154135399D03*
X95341690Y-154135399D03*
X92801690Y-154135399D03*
X90261690Y-154135399D03*
%TD*%
D16*
%TO.C,U4*%
X90119892Y-131457767D03*
D14*
X92659892Y-131457767D03*
X95199892Y-131457767D03*
X97739892Y-131457767D03*
X100279892Y-131457767D03*
X100279892Y-123837767D03*
X97739892Y-123837767D03*
X95199892Y-123837767D03*
X92659892Y-123837767D03*
X90119892Y-123837767D03*
%TD*%
D12*
%TO.C,D27*%
X173105503Y-179214101D03*
D13*
X175645503Y-179214101D03*
%TD*%
D12*
%TO.C,D15*%
X153669498Y-91731222D03*
D13*
X156209498Y-91731222D03*
%TD*%
D15*
%TO.C,RV11*%
X111800000Y-137000000D03*
D10*
X116400000Y-137000000D03*
X121000000Y-137000000D03*
%TD*%
D18*
%TO.C,C11*%
X42000000Y-107500000D03*
D14*
X42000000Y-110000000D03*
%TD*%
%TO.C,C6*%
X90000000Y-109500000D03*
X90000000Y-114500000D03*
%TD*%
D18*
%TO.C,C9*%
X84500000Y-109500000D03*
D14*
X84500000Y-112000000D03*
%TD*%
%TO.C,C1*%
X78000000Y-91500000D03*
X83000000Y-91500000D03*
%TD*%
D19*
%TO.C,J6*%
X39000000Y-65500000D03*
D20*
X39000000Y-68040000D03*
X39000000Y-70580000D03*
X39000000Y-73120000D03*
%TD*%
D21*
%TO.C,C12*%
X79500000Y-98500000D03*
D14*
X82000000Y-98500000D03*
%TD*%
D11*
%TO.C,J1*%
X39000000Y-82800000D03*
D10*
X39000000Y-87400000D03*
X39000000Y-92000000D03*
%TD*%
D14*
%TO.C,C3*%
X59500000Y-175000000D03*
X59500000Y-180000000D03*
%TD*%
%TO.C,C5*%
X159500000Y-107500000D03*
X159500000Y-112500000D03*
%TD*%
%TO.C,C4*%
X48500000Y-107000000D03*
X48500000Y-112000000D03*
%TD*%
D18*
%TO.C,C10*%
X165500000Y-110000000D03*
D14*
X165500000Y-112500000D03*
%TD*%
D22*
%TO.C,U1*%
X72260000Y-83500000D03*
D23*
X72260000Y-80960000D03*
X72260000Y-78420000D03*
X72260000Y-75880000D03*
X72260000Y-73340000D03*
X72260000Y-70800000D03*
X72260000Y-68260000D03*
X72260000Y-65720000D03*
X72260000Y-63180000D03*
X72260000Y-60640000D03*
X72260000Y-58100000D03*
X72260000Y-55560000D03*
X72260000Y-53020000D03*
X72260000Y-50480000D03*
X72260000Y-47940000D03*
X87500000Y-47940000D03*
X87500000Y-50480000D03*
X87500000Y-53020000D03*
X87500000Y-55560000D03*
X87500000Y-58100000D03*
X87500000Y-60640000D03*
X87500000Y-63180000D03*
X87500000Y-65720000D03*
X87500000Y-68260000D03*
X87500000Y-70800000D03*
X87500000Y-73340000D03*
X87500000Y-75880000D03*
X87500000Y-78420000D03*
X87500000Y-80960000D03*
X87500000Y-83500000D03*
%TD*%
M02*
