%TF.GenerationSoftware,KiCad,Pcbnew,9.0.3*%
%TF.CreationDate,2025-08-16T11:04:07+02:00*%
%TF.ProjectId,kosmo song manager channel board,6b6f736d-6f20-4736-9f6e-67206d616e61,rev?*%
%TF.SameCoordinates,Original*%
%TF.FileFunction,Soldermask,Top*%
%TF.FilePolarity,Negative*%
%FSLAX46Y46*%
G04 Gerber Fmt 4.6, Leading zero omitted, Abs format (unit mm)*
G04 Created by KiCad (PCBNEW 9.0.3) date 2025-08-16 11:04:07*
%MOMM*%
%LPD*%
G01*
G04 APERTURE LIST*
G04 Aperture macros list*
%AMRoundRect*
0 Rectangle with rounded corners*
0 $1 Rounding radius*
0 $2 $3 $4 $5 $6 $7 $8 $9 X,Y pos of 4 corners*
0 Add a 4 corners polygon primitive as box body*
4,1,4,$2,$3,$4,$5,$6,$7,$8,$9,$2,$3,0*
0 Add four circle primitives for the rounded corners*
1,1,$1+$1,$2,$3*
1,1,$1+$1,$4,$5*
1,1,$1+$1,$6,$7*
1,1,$1+$1,$8,$9*
0 Add four rect primitives between the rounded corners*
20,1,$1+$1,$2,$3,$4,$5,0*
20,1,$1+$1,$4,$5,$6,$7,0*
20,1,$1+$1,$6,$7,$8,$9,0*
20,1,$1+$1,$8,$9,$2,$3,0*%
G04 Aperture macros list end*
%ADD10C,2.200000*%
%ADD11RoundRect,0.250000X0.675000X-0.675000X0.675000X0.675000X-0.675000X0.675000X-0.675000X-0.675000X0*%
%ADD12C,1.850000*%
%ADD13RoundRect,0.250000X-0.550000X0.550000X-0.550000X-0.550000X0.550000X-0.550000X0.550000X0.550000X0*%
%ADD14C,1.600000*%
%ADD15C,1.400000*%
%ADD16RoundRect,0.250000X0.750000X-0.750000X0.750000X0.750000X-0.750000X0.750000X-0.750000X-0.750000X0*%
%ADD17C,2.000000*%
%ADD18RoundRect,0.250000X-0.675000X-0.675000X0.675000X-0.675000X0.675000X0.675000X-0.675000X0.675000X0*%
%ADD19R,1.700000X1.700000*%
%ADD20C,1.700000*%
%ADD21RoundRect,0.250000X0.550000X-0.550000X0.550000X0.550000X-0.550000X0.550000X-0.550000X-0.550000X0*%
G04 APERTURE END LIST*
D10*
%TO.C,REF\u002A\u002A*%
X233000000Y-67000000D03*
%TD*%
%TO.C,REF\u002A\u002A*%
X233000000Y-53000000D03*
%TD*%
D11*
%TO.C,D1*%
X72500000Y-62100000D03*
D12*
X72500000Y-57900000D03*
%TD*%
D13*
%TO.C,U4*%
X204959020Y-56498486D03*
D14*
X202419020Y-56498486D03*
X199879020Y-56498486D03*
X197339020Y-56498486D03*
X194799020Y-56498486D03*
X194799020Y-64118486D03*
X197339020Y-64118486D03*
X199879020Y-64118486D03*
X202419020Y-64118486D03*
X204959020Y-64118486D03*
%TD*%
D15*
%TO.C,R1*%
X214880000Y-52000000D03*
X222500000Y-52000000D03*
%TD*%
D16*
%TO.C,SW1*%
X68500000Y-62250000D03*
D17*
X68500000Y-57750000D03*
%TD*%
D10*
%TO.C,REF\u002A\u002A*%
X80500000Y-54000000D03*
%TD*%
D13*
%TO.C,U1*%
X155080000Y-56190000D03*
D14*
X152540000Y-56190000D03*
X150000000Y-56190000D03*
X147460000Y-56190000D03*
X144920000Y-56190000D03*
X144920000Y-63810000D03*
X147460000Y-63810000D03*
X150000000Y-63810000D03*
X152540000Y-63810000D03*
X155080000Y-63810000D03*
%TD*%
D11*
%TO.C,D3*%
X94500000Y-62200000D03*
D12*
X94500000Y-58000000D03*
%TD*%
D18*
%TO.C,RV1*%
X114300000Y-68000000D03*
D12*
X118500000Y-68000000D03*
X122700000Y-68000000D03*
%TD*%
D18*
%TO.C,RV3*%
X214300000Y-68000000D03*
D12*
X218500000Y-68000000D03*
X222700000Y-68000000D03*
%TD*%
D10*
%TO.C,REF\u002A\u002A*%
X72500000Y-67500000D03*
%TD*%
D18*
%TO.C,RV2*%
X164300000Y-68000000D03*
D12*
X168500000Y-68000000D03*
X172700000Y-68000000D03*
%TD*%
D11*
%TO.C,D2*%
X83500000Y-62200000D03*
D12*
X83500000Y-58000000D03*
%TD*%
D15*
%TO.C,R5*%
X68380000Y-52500000D03*
X76000000Y-52500000D03*
%TD*%
D11*
%TO.C,D4*%
X105500000Y-62200000D03*
D12*
X105500000Y-58000000D03*
%TD*%
D19*
%TO.C,J2*%
X126639173Y-61205879D03*
D20*
X126639173Y-58665879D03*
X124099173Y-61205879D03*
X124099173Y-58665879D03*
X121559173Y-61205879D03*
X121559173Y-58665879D03*
X119019173Y-61205879D03*
X119019173Y-58665879D03*
X116479173Y-61205879D03*
X116479173Y-58665879D03*
%TD*%
D21*
%TO.C,U3*%
X189540801Y-63842563D03*
D14*
X187000801Y-63842563D03*
X184460801Y-63842563D03*
X181920801Y-63842563D03*
X179380801Y-63842563D03*
X176840801Y-63842563D03*
X174300801Y-63842563D03*
X171760801Y-63842563D03*
X169220801Y-63842563D03*
X166680801Y-63842563D03*
X164140801Y-63842563D03*
X161600801Y-63842563D03*
X161600801Y-56222563D03*
X164140801Y-56222563D03*
X166680801Y-56222563D03*
X169220801Y-56222563D03*
X171760801Y-56222563D03*
X174300801Y-56222563D03*
X176840801Y-56222563D03*
X179380801Y-56222563D03*
X181920801Y-56222563D03*
X184460801Y-56222563D03*
X187000801Y-56222563D03*
X189540801Y-56222563D03*
%TD*%
M02*
