%TF.GenerationSoftware,KiCad,Pcbnew,9.0.3*%
%TF.CreationDate,2025-08-16T11:04:07+02:00*%
%TF.ProjectId,kosmo song manager channel board,6b6f736d-6f20-4736-9f6e-67206d616e61,rev?*%
%TF.SameCoordinates,Original*%
%TF.FileFunction,Copper,L1,Top*%
%TF.FilePolarity,Positive*%
%FSLAX46Y46*%
G04 Gerber Fmt 4.6, Leading zero omitted, Abs format (unit mm)*
G04 Created by KiCad (PCBNEW 9.0.3) date 2025-08-16 11:04:07*
%MOMM*%
%LPD*%
G01*
G04 APERTURE LIST*
G04 Aperture macros list*
%AMRoundRect*
0 Rectangle with rounded corners*
0 $1 Rounding radius*
0 $2 $3 $4 $5 $6 $7 $8 $9 X,Y pos of 4 corners*
0 Add a 4 corners polygon primitive as box body*
4,1,4,$2,$3,$4,$5,$6,$7,$8,$9,$2,$3,0*
0 Add four circle primitives for the rounded corners*
1,1,$1+$1,$2,$3*
1,1,$1+$1,$4,$5*
1,1,$1+$1,$6,$7*
1,1,$1+$1,$8,$9*
0 Add four rect primitives between the rounded corners*
20,1,$1+$1,$2,$3,$4,$5,0*
20,1,$1+$1,$4,$5,$6,$7,0*
20,1,$1+$1,$6,$7,$8,$9,0*
20,1,$1+$1,$8,$9,$2,$3,0*%
G04 Aperture macros list end*
%TA.AperFunction,ComponentPad*%
%ADD10RoundRect,0.250000X0.675000X-0.675000X0.675000X0.675000X-0.675000X0.675000X-0.675000X-0.675000X0*%
%TD*%
%TA.AperFunction,ComponentPad*%
%ADD11C,1.850000*%
%TD*%
%TA.AperFunction,ComponentPad*%
%ADD12RoundRect,0.250000X-0.550000X0.550000X-0.550000X-0.550000X0.550000X-0.550000X0.550000X0.550000X0*%
%TD*%
%TA.AperFunction,ComponentPad*%
%ADD13C,1.600000*%
%TD*%
%TA.AperFunction,ComponentPad*%
%ADD14C,1.400000*%
%TD*%
%TA.AperFunction,ComponentPad*%
%ADD15RoundRect,0.250000X0.750000X-0.750000X0.750000X0.750000X-0.750000X0.750000X-0.750000X-0.750000X0*%
%TD*%
%TA.AperFunction,ComponentPad*%
%ADD16C,2.000000*%
%TD*%
%TA.AperFunction,ComponentPad*%
%ADD17RoundRect,0.250000X-0.675000X-0.675000X0.675000X-0.675000X0.675000X0.675000X-0.675000X0.675000X0*%
%TD*%
%TA.AperFunction,ComponentPad*%
%ADD18R,1.700000X1.700000*%
%TD*%
%TA.AperFunction,ComponentPad*%
%ADD19C,1.700000*%
%TD*%
%TA.AperFunction,ComponentPad*%
%ADD20RoundRect,0.250000X0.550000X-0.550000X0.550000X0.550000X-0.550000X0.550000X-0.550000X-0.550000X0*%
%TD*%
%TA.AperFunction,ViaPad*%
%ADD21C,0.600000*%
%TD*%
%TA.AperFunction,Conductor*%
%ADD22C,0.200000*%
%TD*%
G04 APERTURE END LIST*
D10*
%TO.P,D1,1,K*%
%TO.N,Net-(D1-K)*%
X72500000Y-62100000D03*
D11*
%TO.P,D1,2,A*%
%TO.N,Net-(D1-A)*%
X72500000Y-57900000D03*
%TD*%
D12*
%TO.P,U4,1,F*%
%TO.N,Net-(U1-F)*%
X204959020Y-56498486D03*
D13*
%TO.P,U4,2,de2*%
%TO.N,Net-(U3-DIG_2)*%
X202419020Y-56498486D03*
%TO.P,U4,3,B*%
%TO.N,Net-(D2-A)*%
X199879020Y-56498486D03*
%TO.P,U4,4,A*%
%TO.N,Net-(D1-A)*%
X197339020Y-56498486D03*
%TO.P,U4,5,de1*%
%TO.N,Net-(U3-DIG_1)*%
X194799020Y-56498486D03*
%TO.P,U4,6,E*%
%TO.N,Net-(U1-E)*%
X194799020Y-64118486D03*
%TO.P,U4,7,D*%
%TO.N,Net-(D4-A)*%
X197339020Y-64118486D03*
%TO.P,U4,8,C*%
%TO.N,Net-(D3-A)*%
X199879020Y-64118486D03*
%TO.P,U4,9,G*%
%TO.N,Net-(U1-G)*%
X202419020Y-64118486D03*
%TO.P,U4,10,dp*%
%TO.N,Net-(U1-dp)*%
X204959020Y-64118486D03*
%TD*%
D14*
%TO.P,R1,1*%
%TO.N,Net-(U3-ISET)*%
X214880000Y-52000000D03*
%TO.P,R1,2*%
%TO.N,GND*%
X222500000Y-52000000D03*
%TD*%
D15*
%TO.P,SW1,1,A*%
%TO.N,VCC*%
X68500000Y-62250000D03*
D16*
%TO.P,SW1,2,B*%
%TO.N,Net-(J2-Pin_9)*%
X68500000Y-57750000D03*
%TD*%
D12*
%TO.P,U1,1,F*%
%TO.N,Net-(U1-F)*%
X155080000Y-56190000D03*
D13*
%TO.P,U1,2,de2*%
%TO.N,Net-(U1-de2)*%
X152540000Y-56190000D03*
%TO.P,U1,3,B*%
%TO.N,Net-(D2-A)*%
X150000000Y-56190000D03*
%TO.P,U1,4,A*%
%TO.N,Net-(D1-A)*%
X147460000Y-56190000D03*
%TO.P,U1,5,de1*%
%TO.N,Net-(U1-de1)*%
X144920000Y-56190000D03*
%TO.P,U1,6,E*%
%TO.N,Net-(U1-E)*%
X144920000Y-63810000D03*
%TO.P,U1,7,D*%
%TO.N,Net-(D4-A)*%
X147460000Y-63810000D03*
%TO.P,U1,8,C*%
%TO.N,Net-(D3-A)*%
X150000000Y-63810000D03*
%TO.P,U1,9,G*%
%TO.N,Net-(U1-G)*%
X152540000Y-63810000D03*
%TO.P,U1,10,dp*%
%TO.N,Net-(U1-dp)*%
X155080000Y-63810000D03*
%TD*%
D10*
%TO.P,D3,1,K*%
%TO.N,Net-(D1-K)*%
X94500000Y-62200000D03*
D11*
%TO.P,D3,2,A*%
%TO.N,Net-(D3-A)*%
X94500000Y-58000000D03*
%TD*%
D17*
%TO.P,RV1,1,1*%
%TO.N,VCC*%
X114300000Y-68000000D03*
D11*
%TO.P,RV1,2,2*%
%TO.N,Net-(J2-Pin_3)*%
X118500000Y-68000000D03*
%TO.P,RV1,3,3*%
%TO.N,GND*%
X122700000Y-68000000D03*
%TD*%
D17*
%TO.P,RV3,1,1*%
%TO.N,VCC*%
X214300000Y-68000000D03*
D11*
%TO.P,RV3,2,2*%
%TO.N,Net-(J2-Pin_7)*%
X218500000Y-68000000D03*
%TO.P,RV3,3,3*%
%TO.N,GND*%
X222700000Y-68000000D03*
%TD*%
D17*
%TO.P,RV2,1,1*%
%TO.N,VCC*%
X164300000Y-68000000D03*
D11*
%TO.P,RV2,2,2*%
%TO.N,Net-(J2-Pin_5)*%
X168500000Y-68000000D03*
%TO.P,RV2,3,3*%
%TO.N,GND*%
X172700000Y-68000000D03*
%TD*%
D10*
%TO.P,D2,1,K*%
%TO.N,Net-(D1-K)*%
X83500000Y-62200000D03*
D11*
%TO.P,D2,2,A*%
%TO.N,Net-(D2-A)*%
X83500000Y-58000000D03*
%TD*%
D14*
%TO.P,R5,1*%
%TO.N,Net-(J2-Pin_9)*%
X68380000Y-52500000D03*
%TO.P,R5,2*%
%TO.N,GND*%
X76000000Y-52500000D03*
%TD*%
D10*
%TO.P,D4,1,K*%
%TO.N,Net-(D1-K)*%
X105500000Y-62200000D03*
D11*
%TO.P,D4,2,A*%
%TO.N,Net-(D4-A)*%
X105500000Y-58000000D03*
%TD*%
D18*
%TO.P,J2,1,Pin_1*%
%TO.N,GND*%
X126639173Y-61205879D03*
D19*
%TO.P,J2,2,Pin_2*%
%TO.N,Net-(J2-Pin_2)*%
X126639173Y-58665879D03*
%TO.P,J2,3,Pin_3*%
%TO.N,Net-(J2-Pin_3)*%
X124099173Y-61205879D03*
%TO.P,J2,4,Pin_4*%
%TO.N,Net-(J2-Pin_4)*%
X124099173Y-58665879D03*
%TO.P,J2,5,Pin_5*%
%TO.N,Net-(J2-Pin_5)*%
X121559173Y-61205879D03*
%TO.P,J2,6,Pin_6*%
%TO.N,Net-(J2-Pin_6)*%
X121559173Y-58665879D03*
%TO.P,J2,7,Pin_7*%
%TO.N,Net-(J2-Pin_7)*%
X119019173Y-61205879D03*
%TO.P,J2,8,Pin_8*%
%TO.N,Net-(J2-Pin_8)*%
X119019173Y-58665879D03*
%TO.P,J2,9,Pin_9*%
%TO.N,Net-(J2-Pin_9)*%
X116479173Y-61205879D03*
%TO.P,J2,10,Pin_10*%
%TO.N,VCC*%
X116479173Y-58665879D03*
%TD*%
D20*
%TO.P,U3,1,DIN*%
%TO.N,Net-(J2-Pin_2)*%
X189540801Y-63842563D03*
D13*
%TO.P,U3,2,DIG_0*%
%TO.N,Net-(D1-K)*%
X187000801Y-63842563D03*
%TO.P,U3,3,DIG_4*%
%TO.N,Net-(U1-de2)*%
X184460801Y-63842563D03*
%TO.P,U3,4,GND*%
%TO.N,GND*%
X181920801Y-63842563D03*
%TO.P,U3,5,DIG_6*%
%TO.N,unconnected-(U3-DIG_6-Pad5)*%
X179380801Y-63842563D03*
%TO.P,U3,6,DIG_2*%
%TO.N,Net-(U3-DIG_2)*%
X176840801Y-63842563D03*
%TO.P,U3,7,DIG_3*%
%TO.N,Net-(U1-de1)*%
X174300801Y-63842563D03*
%TO.P,U3,8,DIG_7*%
%TO.N,unconnected-(U3-DIG_7-Pad8)*%
X171760801Y-63842563D03*
%TO.P,U3,9,GND*%
%TO.N,GND*%
X169220801Y-63842563D03*
%TO.P,U3,10,DIG_5*%
%TO.N,unconnected-(U3-DIG_5-Pad10)*%
X166680801Y-63842563D03*
%TO.P,U3,11,DIG_1*%
%TO.N,Net-(U3-DIG_1)*%
X164140801Y-63842563D03*
%TO.P,U3,12,LOAD*%
%TO.N,Net-(J2-Pin_4)*%
X161600801Y-63842563D03*
%TO.P,U3,13,CLK*%
%TO.N,Net-(J2-Pin_6)*%
X161600801Y-56222563D03*
%TO.P,U3,14,SEG_A*%
%TO.N,Net-(D1-A)*%
X164140801Y-56222563D03*
%TO.P,U3,15,SEG_F*%
%TO.N,Net-(U1-F)*%
X166680801Y-56222563D03*
%TO.P,U3,16,SEG_B*%
%TO.N,Net-(D2-A)*%
X169220801Y-56222563D03*
%TO.P,U3,17,SEG_G*%
%TO.N,Net-(U1-G)*%
X171760801Y-56222563D03*
%TO.P,U3,18,ISET*%
%TO.N,Net-(U3-ISET)*%
X174300801Y-56222563D03*
%TO.P,U3,19,V+*%
%TO.N,VCC*%
X176840801Y-56222563D03*
%TO.P,U3,20,SEG_C*%
%TO.N,Net-(D3-A)*%
X179380801Y-56222563D03*
%TO.P,U3,21,SEG_E*%
%TO.N,Net-(U1-E)*%
X181920801Y-56222563D03*
%TO.P,U3,22,SEG_DP*%
%TO.N,Net-(U1-dp)*%
X184460801Y-56222563D03*
%TO.P,U3,23,SEG_D*%
%TO.N,Net-(D4-A)*%
X187000801Y-56222563D03*
%TO.P,U3,24,DOUT*%
%TO.N,Net-(J2-Pin_8)*%
X189540801Y-56222563D03*
%TD*%
D21*
%TO.N,Net-(D1-A)*%
X146000000Y-51250000D03*
X197000000Y-51350000D03*
X164634620Y-51215380D03*
%TO.N,Net-(D1-K)*%
X134500000Y-66650000D03*
%TO.N,Net-(D2-A)*%
X149000000Y-51900000D03*
X169115235Y-52650000D03*
X200000000Y-52650000D03*
%TO.N,Net-(D3-A)*%
X178944157Y-53050000D03*
X142400500Y-52400500D03*
%TO.N,Net-(D4-A)*%
X188000000Y-53700999D03*
X141000000Y-53201000D03*
%TO.N,Net-(J2-Pin_7)*%
X208000000Y-61000000D03*
%TO.N,Net-(J2-Pin_5)*%
X125999999Y-64500002D03*
%TO.N,Net-(J2-Pin_6)*%
X121559173Y-54059173D03*
X161431123Y-53850000D03*
%TO.N,Net-(U1-F)*%
X154950377Y-51110503D03*
%TO.N,Net-(U1-E)*%
X182000000Y-60000000D03*
X194500000Y-59700000D03*
X159792258Y-59807333D03*
X157000000Y-65500000D03*
%TO.N,Net-(U1-dp)*%
X158500000Y-52000000D03*
X185500000Y-52000000D03*
%TO.N,Net-(U1-G)*%
X202000000Y-60000000D03*
X171500000Y-60351000D03*
X152500000Y-60500000D03*
%TO.N,VCC*%
X130500000Y-65500000D03*
X118500000Y-65500000D03*
X202500000Y-58000000D03*
%TO.N,Net-(U1-de2)*%
X137000000Y-60000000D03*
X167000000Y-66500000D03*
X183500000Y-67000000D03*
%TO.N,Net-(U1-de1)*%
X156500000Y-62500000D03*
%TD*%
D22*
%TO.N,Net-(D1-A)*%
X197000000Y-51350000D02*
X194500000Y-51350000D01*
X154810761Y-51901000D02*
X154159761Y-51250000D01*
X79150000Y-51250000D02*
X146000000Y-51250000D01*
X154159761Y-51250000D02*
X146000000Y-51250000D01*
X72500000Y-57900000D02*
X79150000Y-51250000D01*
X155349239Y-51901000D02*
X154810761Y-51901000D01*
X194500000Y-51350000D02*
X155900239Y-51350000D01*
X155900239Y-51350000D02*
X155349239Y-51901000D01*
X194769239Y-51350000D02*
X194500000Y-51350000D01*
%TO.N,Net-(D1-K)*%
X105400000Y-62100000D02*
X105500000Y-62200000D01*
X166565076Y-65450000D02*
X185393364Y-65450000D01*
X160565686Y-65500000D02*
X166515075Y-65500000D01*
X158565686Y-67500000D02*
X160565686Y-65500000D01*
X135350000Y-67500000D02*
X158565686Y-67500000D01*
X166515075Y-65500000D02*
X166565076Y-65450000D01*
X185393364Y-65450000D02*
X187000801Y-63842563D01*
X104900000Y-62100000D02*
X105000000Y-62200000D01*
X72500000Y-62100000D02*
X105400000Y-62100000D01*
X134500000Y-66650000D02*
X135350000Y-67500000D01*
%TO.N,Net-(D2-A)*%
X200000000Y-52650000D02*
X199950000Y-52600000D01*
X142769239Y-51651000D02*
X143018239Y-51900000D01*
X194180761Y-52600000D02*
X194030761Y-52450000D01*
X159019239Y-52400000D02*
X168865235Y-52400000D01*
X185030761Y-52450000D02*
X169189122Y-52450000D01*
X154744075Y-52400000D02*
X157980761Y-52400000D01*
X158230761Y-52650000D02*
X158769239Y-52650000D01*
X185769239Y-52650000D02*
X185230761Y-52650000D01*
X157980761Y-52400000D02*
X158230761Y-52650000D01*
X143018239Y-51900000D02*
X149000000Y-51900000D01*
X194030761Y-52450000D02*
X185969239Y-52450000D01*
X83500000Y-58000000D02*
X89849000Y-51651000D01*
X149000000Y-51900000D02*
X154244075Y-51900000D01*
X168865235Y-52400000D02*
X169115235Y-52650000D01*
X89849000Y-51651000D02*
X142769239Y-51651000D01*
X154244075Y-51900000D02*
X154744075Y-52400000D01*
X158769239Y-52650000D02*
X159019239Y-52400000D01*
X169189122Y-52450000D02*
X169115235Y-52523887D01*
X185969239Y-52450000D02*
X185769239Y-52650000D01*
X185230761Y-52650000D02*
X185030761Y-52450000D01*
X199950000Y-52600000D02*
X194180761Y-52600000D01*
%TO.N,Net-(D3-A)*%
X158934924Y-53050000D02*
X158065075Y-53050000D01*
X200997506Y-63000000D02*
X212000000Y-63000000D01*
X194514247Y-53502000D02*
X194063245Y-53050999D01*
X162432370Y-52801000D02*
X159183925Y-52801000D01*
X214000000Y-61000000D02*
X214000000Y-56000000D01*
X142801000Y-52801000D02*
X142400500Y-52400500D01*
X100099500Y-52400500D02*
X142400500Y-52400500D01*
X157816075Y-52801000D02*
X142801000Y-52801000D01*
X212000000Y-63000000D02*
X214000000Y-61000000D01*
X158065075Y-53050000D02*
X157816075Y-52801000D01*
X179296711Y-53050999D02*
X179047710Y-53300000D01*
X211502000Y-53502000D02*
X194514247Y-53502000D01*
X94500000Y-58000000D02*
X100099500Y-52400500D01*
X159183925Y-52801000D02*
X158934924Y-53050000D01*
X194063245Y-53050999D02*
X179296711Y-53050999D01*
X214000000Y-56000000D02*
X211502000Y-53502000D01*
X179047710Y-53300000D02*
X162931371Y-53300000D01*
X199879020Y-64118486D02*
X200997506Y-63000000D01*
X162931371Y-53300000D02*
X162432370Y-52801000D01*
%TO.N,Net-(D4-A)*%
X159100609Y-53450000D02*
X110050000Y-53450000D01*
X162266685Y-53201000D02*
X159349610Y-53201000D01*
X162765685Y-53700000D02*
X162266685Y-53201000D01*
X159349610Y-53201000D02*
X159100609Y-53450000D01*
X199457506Y-62000000D02*
X211500000Y-62000000D01*
X193897560Y-53450999D02*
X179462397Y-53450999D01*
X211500000Y-62000000D02*
X213500000Y-60000000D01*
X179462397Y-53450999D02*
X179213395Y-53700000D01*
X179213395Y-53700000D02*
X162765685Y-53700000D01*
X194348561Y-53902000D02*
X193897560Y-53450999D01*
X210902000Y-53902000D02*
X194348561Y-53902000D01*
X110050000Y-53450000D02*
X105500000Y-58000000D01*
X197339020Y-64118486D02*
X199457506Y-62000000D01*
X213500000Y-60000000D02*
X213500000Y-56500000D01*
X213500000Y-56500000D02*
X210902000Y-53902000D01*
%TO.N,Net-(J2-Pin_7)*%
X122710173Y-57289827D02*
X123500000Y-56500000D01*
X152230761Y-61150000D02*
X152769239Y-61150000D01*
X133000000Y-61000000D02*
X152080761Y-61000000D01*
X120170173Y-60054879D02*
X121852812Y-60054879D01*
X159565076Y-61650000D02*
X160434925Y-61650000D01*
X119019173Y-61205879D02*
X120170173Y-60054879D01*
X152769239Y-61150000D02*
X152919239Y-61000000D01*
X122710173Y-59197518D02*
X122710173Y-57289827D01*
X121852812Y-60054879D02*
X122710173Y-59197518D01*
X158915076Y-61000000D02*
X159565076Y-61650000D01*
X123500000Y-56500000D02*
X128500000Y-56500000D01*
X160434925Y-61650000D02*
X161084925Y-61000000D01*
X161084925Y-61000000D02*
X208000000Y-61000000D01*
X128500000Y-56500000D02*
X133000000Y-61000000D01*
X152919239Y-61000000D02*
X158915076Y-61000000D01*
X152080761Y-61000000D02*
X152230761Y-61150000D01*
%TO.N,Net-(J2-Pin_2)*%
X189540801Y-63042563D02*
X187998238Y-61500000D01*
X156769239Y-61850000D02*
X129823294Y-61850000D01*
X161150609Y-61500000D02*
X160600610Y-62050000D01*
X160600610Y-62050000D02*
X156969239Y-62050000D01*
X189540801Y-63842563D02*
X189540801Y-63042563D01*
X187998238Y-61500000D02*
X161150609Y-61500000D01*
X129823294Y-61850000D02*
X126639173Y-58665879D01*
X156969239Y-62050000D02*
X156769239Y-61850000D01*
%TO.N,Net-(J2-Pin_3)*%
X118500000Y-68000000D02*
X124099173Y-62400827D01*
X124099173Y-62400827D02*
X124099173Y-61205879D01*
%TO.N,GND*%
X124500000Y-65080761D02*
X126639173Y-62941588D01*
X122700000Y-68000000D02*
X124500000Y-66200000D01*
X222500000Y-52000000D02*
X222500000Y-67800000D01*
X126639173Y-62941588D02*
X126639173Y-61205879D01*
X124500000Y-66200000D02*
X124500000Y-65080761D01*
X222500000Y-67800000D02*
X222700000Y-68000000D01*
%TO.N,Net-(J2-Pin_4)*%
X161600801Y-63842563D02*
X161600801Y-63899199D01*
%TO.N,Net-(J2-Pin_5)*%
X167101000Y-69399000D02*
X130898997Y-69399000D01*
X168500000Y-68000000D02*
X167101000Y-69399000D01*
X130898997Y-69399000D02*
X125999999Y-64500002D01*
%TO.N,Net-(J2-Pin_6)*%
X121768346Y-53850000D02*
X161431123Y-53850000D01*
X121559173Y-54059173D02*
X121768346Y-53850000D01*
%TO.N,Net-(J2-Pin_8)*%
X123185052Y-54500000D02*
X119019173Y-58665879D01*
X189540801Y-56222563D02*
X187818238Y-54500000D01*
X187818238Y-54500000D02*
X123185052Y-54500000D01*
%TO.N,Net-(U1-F)*%
X204959020Y-58959020D02*
X204959020Y-56498486D01*
X205000000Y-59000000D02*
X204959020Y-58959020D01*
X154995299Y-50804700D02*
X154958113Y-50767514D01*
X166680801Y-56222563D02*
X163903364Y-59000000D01*
X163903364Y-59000000D02*
X155500000Y-59000000D01*
X155080000Y-58580000D02*
X155500000Y-59000000D01*
X154958113Y-50601000D02*
X201101000Y-50601000D01*
X155080000Y-56190000D02*
X155080000Y-58580000D01*
X154958113Y-50767514D02*
X154958113Y-50601000D01*
X169458238Y-59000000D02*
X205000000Y-59000000D01*
X166680801Y-56222563D02*
X169458238Y-59000000D01*
%TO.N,Net-(U1-E)*%
X182000000Y-60000000D02*
X182300000Y-59700000D01*
X146610000Y-65500000D02*
X157000000Y-65500000D01*
X144920000Y-63810000D02*
X146610000Y-65500000D01*
X160407333Y-59807333D02*
X159792258Y-59807333D01*
X171230761Y-59701000D02*
X170931761Y-60000000D01*
X171769239Y-59701000D02*
X171230761Y-59701000D01*
X182000000Y-60000000D02*
X172068239Y-60000000D01*
X172068239Y-60000000D02*
X171769239Y-59701000D01*
X170931761Y-60000000D02*
X160600000Y-60000000D01*
X182300000Y-59700000D02*
X194500000Y-59700000D01*
X160600000Y-60000000D02*
X160407333Y-59807333D01*
%TO.N,Net-(U1-dp)*%
X214500000Y-55500000D02*
X211000000Y-52000000D01*
X204959020Y-64118486D02*
X211881514Y-64118486D01*
X214500000Y-61500000D02*
X214500000Y-55500000D01*
X211881514Y-64118486D02*
X214500000Y-61500000D01*
X211000000Y-52000000D02*
X158500000Y-52000000D01*
%TO.N,Net-(U1-G)*%
X152500000Y-60500000D02*
X158980761Y-60500000D01*
X201400000Y-60600000D02*
X202000000Y-60000000D01*
X159730761Y-61250000D02*
X160269239Y-61250000D01*
X160269239Y-61250000D02*
X160919239Y-60600000D01*
X158980761Y-60500000D02*
X159730761Y-61250000D01*
X160919239Y-60600000D02*
X201400000Y-60600000D01*
%TO.N,VCC*%
X113500000Y-58500000D02*
X112000000Y-60000000D01*
X116479173Y-58665879D02*
X116479173Y-58520827D01*
X70750000Y-64500000D02*
X112000000Y-64500000D01*
X167269239Y-65850000D02*
X167419239Y-66000000D01*
X114300000Y-66800000D02*
X114300000Y-68000000D01*
X68500000Y-62250000D02*
X70750000Y-64500000D01*
X116500000Y-58500000D02*
X113500000Y-58500000D01*
X212500000Y-68000000D02*
X214300000Y-68000000D01*
X202500000Y-58000000D02*
X178618238Y-58000000D01*
X178618238Y-58000000D02*
X176840801Y-56222563D01*
X112000000Y-60000000D02*
X112000000Y-64500000D01*
X112000000Y-64500000D02*
X114300000Y-66800000D01*
X130500000Y-65500000D02*
X130500000Y-66000000D01*
X166580761Y-66000000D02*
X166730761Y-65850000D01*
X164300000Y-68000000D02*
X166300000Y-66000000D01*
X167419239Y-66000000D02*
X210500000Y-66000000D01*
X210500000Y-66000000D02*
X212500000Y-68000000D01*
X116479173Y-58520827D02*
X116500000Y-58500000D01*
X117630173Y-64630173D02*
X118500000Y-65500000D01*
X116479173Y-58665879D02*
X117630173Y-59816879D01*
X130500000Y-66000000D02*
X132500000Y-68000000D01*
X117630173Y-59816879D02*
X117630173Y-64630173D01*
X166300000Y-66000000D02*
X166580761Y-66000000D01*
X132500000Y-68000000D02*
X164300000Y-68000000D01*
X166730761Y-65850000D02*
X167269239Y-65850000D01*
%TO.N,Net-(U1-de2)*%
X183500000Y-67000000D02*
X183000000Y-66500000D01*
X137000000Y-60000000D02*
X139000000Y-58000000D01*
X139000000Y-58000000D02*
X152000000Y-58000000D01*
X152000000Y-58000000D02*
X152540000Y-57460000D01*
X152540000Y-57460000D02*
X152540000Y-56190000D01*
X183000000Y-66500000D02*
X167000000Y-66500000D01*
%TO.N,Net-(U1-de1)*%
X159500000Y-65000000D02*
X157000000Y-62500000D01*
X173143364Y-65000000D02*
X159500000Y-65000000D01*
X174300801Y-63842563D02*
X173143364Y-65000000D01*
X157000000Y-62500000D02*
X156500000Y-62500000D01*
%TD*%
M02*
