%TF.GenerationSoftware,KiCad,Pcbnew,9.0.3*%
%TF.CreationDate,2025-08-16T11:04:07+02:00*%
%TF.ProjectId,kosmo song manager channel board,6b6f736d-6f20-4736-9f6e-67206d616e61,rev?*%
%TF.SameCoordinates,Original*%
%TF.FileFunction,Legend,Top*%
%TF.FilePolarity,Positive*%
%FSLAX46Y46*%
G04 Gerber Fmt 4.6, Leading zero omitted, Abs format (unit mm)*
G04 Created by KiCad (PCBNEW 9.0.3) date 2025-08-16 11:04:07*
%MOMM*%
%LPD*%
G01*
G04 APERTURE LIST*
%ADD10C,0.100000*%
%ADD11C,0.150000*%
%ADD12C,0.120000*%
G04 APERTURE END LIST*
D10*
X85303884Y-66372419D02*
X85303884Y-65372419D01*
X85875312Y-66372419D02*
X85446741Y-65800990D01*
X85875312Y-65372419D02*
X85303884Y-65943847D01*
X86494360Y-65372419D02*
X86684836Y-65372419D01*
X86684836Y-65372419D02*
X86780074Y-65420038D01*
X86780074Y-65420038D02*
X86875312Y-65515276D01*
X86875312Y-65515276D02*
X86922931Y-65705752D01*
X86922931Y-65705752D02*
X86922931Y-66039085D01*
X86922931Y-66039085D02*
X86875312Y-66229561D01*
X86875312Y-66229561D02*
X86780074Y-66324800D01*
X86780074Y-66324800D02*
X86684836Y-66372419D01*
X86684836Y-66372419D02*
X86494360Y-66372419D01*
X86494360Y-66372419D02*
X86399122Y-66324800D01*
X86399122Y-66324800D02*
X86303884Y-66229561D01*
X86303884Y-66229561D02*
X86256265Y-66039085D01*
X86256265Y-66039085D02*
X86256265Y-65705752D01*
X86256265Y-65705752D02*
X86303884Y-65515276D01*
X86303884Y-65515276D02*
X86399122Y-65420038D01*
X86399122Y-65420038D02*
X86494360Y-65372419D01*
X87303884Y-66324800D02*
X87446741Y-66372419D01*
X87446741Y-66372419D02*
X87684836Y-66372419D01*
X87684836Y-66372419D02*
X87780074Y-66324800D01*
X87780074Y-66324800D02*
X87827693Y-66277180D01*
X87827693Y-66277180D02*
X87875312Y-66181942D01*
X87875312Y-66181942D02*
X87875312Y-66086704D01*
X87875312Y-66086704D02*
X87827693Y-65991466D01*
X87827693Y-65991466D02*
X87780074Y-65943847D01*
X87780074Y-65943847D02*
X87684836Y-65896228D01*
X87684836Y-65896228D02*
X87494360Y-65848609D01*
X87494360Y-65848609D02*
X87399122Y-65800990D01*
X87399122Y-65800990D02*
X87351503Y-65753371D01*
X87351503Y-65753371D02*
X87303884Y-65658133D01*
X87303884Y-65658133D02*
X87303884Y-65562895D01*
X87303884Y-65562895D02*
X87351503Y-65467657D01*
X87351503Y-65467657D02*
X87399122Y-65420038D01*
X87399122Y-65420038D02*
X87494360Y-65372419D01*
X87494360Y-65372419D02*
X87732455Y-65372419D01*
X87732455Y-65372419D02*
X87875312Y-65420038D01*
X88303884Y-66372419D02*
X88303884Y-65372419D01*
X88303884Y-65372419D02*
X88637217Y-66086704D01*
X88637217Y-66086704D02*
X88970550Y-65372419D01*
X88970550Y-65372419D02*
X88970550Y-66372419D01*
X89637217Y-65372419D02*
X89827693Y-65372419D01*
X89827693Y-65372419D02*
X89922931Y-65420038D01*
X89922931Y-65420038D02*
X90018169Y-65515276D01*
X90018169Y-65515276D02*
X90065788Y-65705752D01*
X90065788Y-65705752D02*
X90065788Y-66039085D01*
X90065788Y-66039085D02*
X90018169Y-66229561D01*
X90018169Y-66229561D02*
X89922931Y-66324800D01*
X89922931Y-66324800D02*
X89827693Y-66372419D01*
X89827693Y-66372419D02*
X89637217Y-66372419D01*
X89637217Y-66372419D02*
X89541979Y-66324800D01*
X89541979Y-66324800D02*
X89446741Y-66229561D01*
X89446741Y-66229561D02*
X89399122Y-66039085D01*
X89399122Y-66039085D02*
X89399122Y-65705752D01*
X89399122Y-65705752D02*
X89446741Y-65515276D01*
X89446741Y-65515276D02*
X89541979Y-65420038D01*
X89541979Y-65420038D02*
X89637217Y-65372419D01*
X91208646Y-66324800D02*
X91351503Y-66372419D01*
X91351503Y-66372419D02*
X91589598Y-66372419D01*
X91589598Y-66372419D02*
X91684836Y-66324800D01*
X91684836Y-66324800D02*
X91732455Y-66277180D01*
X91732455Y-66277180D02*
X91780074Y-66181942D01*
X91780074Y-66181942D02*
X91780074Y-66086704D01*
X91780074Y-66086704D02*
X91732455Y-65991466D01*
X91732455Y-65991466D02*
X91684836Y-65943847D01*
X91684836Y-65943847D02*
X91589598Y-65896228D01*
X91589598Y-65896228D02*
X91399122Y-65848609D01*
X91399122Y-65848609D02*
X91303884Y-65800990D01*
X91303884Y-65800990D02*
X91256265Y-65753371D01*
X91256265Y-65753371D02*
X91208646Y-65658133D01*
X91208646Y-65658133D02*
X91208646Y-65562895D01*
X91208646Y-65562895D02*
X91256265Y-65467657D01*
X91256265Y-65467657D02*
X91303884Y-65420038D01*
X91303884Y-65420038D02*
X91399122Y-65372419D01*
X91399122Y-65372419D02*
X91637217Y-65372419D01*
X91637217Y-65372419D02*
X91780074Y-65420038D01*
X92399122Y-65372419D02*
X92589598Y-65372419D01*
X92589598Y-65372419D02*
X92684836Y-65420038D01*
X92684836Y-65420038D02*
X92780074Y-65515276D01*
X92780074Y-65515276D02*
X92827693Y-65705752D01*
X92827693Y-65705752D02*
X92827693Y-66039085D01*
X92827693Y-66039085D02*
X92780074Y-66229561D01*
X92780074Y-66229561D02*
X92684836Y-66324800D01*
X92684836Y-66324800D02*
X92589598Y-66372419D01*
X92589598Y-66372419D02*
X92399122Y-66372419D01*
X92399122Y-66372419D02*
X92303884Y-66324800D01*
X92303884Y-66324800D02*
X92208646Y-66229561D01*
X92208646Y-66229561D02*
X92161027Y-66039085D01*
X92161027Y-66039085D02*
X92161027Y-65705752D01*
X92161027Y-65705752D02*
X92208646Y-65515276D01*
X92208646Y-65515276D02*
X92303884Y-65420038D01*
X92303884Y-65420038D02*
X92399122Y-65372419D01*
X93256265Y-66372419D02*
X93256265Y-65372419D01*
X93256265Y-65372419D02*
X93827693Y-66372419D01*
X93827693Y-66372419D02*
X93827693Y-65372419D01*
X94827693Y-65420038D02*
X94732455Y-65372419D01*
X94732455Y-65372419D02*
X94589598Y-65372419D01*
X94589598Y-65372419D02*
X94446741Y-65420038D01*
X94446741Y-65420038D02*
X94351503Y-65515276D01*
X94351503Y-65515276D02*
X94303884Y-65610514D01*
X94303884Y-65610514D02*
X94256265Y-65800990D01*
X94256265Y-65800990D02*
X94256265Y-65943847D01*
X94256265Y-65943847D02*
X94303884Y-66134323D01*
X94303884Y-66134323D02*
X94351503Y-66229561D01*
X94351503Y-66229561D02*
X94446741Y-66324800D01*
X94446741Y-66324800D02*
X94589598Y-66372419D01*
X94589598Y-66372419D02*
X94684836Y-66372419D01*
X94684836Y-66372419D02*
X94827693Y-66324800D01*
X94827693Y-66324800D02*
X94875312Y-66277180D01*
X94875312Y-66277180D02*
X94875312Y-65943847D01*
X94875312Y-65943847D02*
X94684836Y-65943847D01*
X96065789Y-66372419D02*
X96065789Y-65372419D01*
X96065789Y-65372419D02*
X96399122Y-66086704D01*
X96399122Y-66086704D02*
X96732455Y-65372419D01*
X96732455Y-65372419D02*
X96732455Y-66372419D01*
X97161027Y-66086704D02*
X97637217Y-66086704D01*
X97065789Y-66372419D02*
X97399122Y-65372419D01*
X97399122Y-65372419D02*
X97732455Y-66372419D01*
X98065789Y-66372419D02*
X98065789Y-65372419D01*
X98065789Y-65372419D02*
X98637217Y-66372419D01*
X98637217Y-66372419D02*
X98637217Y-65372419D01*
X99065789Y-66086704D02*
X99541979Y-66086704D01*
X98970551Y-66372419D02*
X99303884Y-65372419D01*
X99303884Y-65372419D02*
X99637217Y-66372419D01*
X100494360Y-65420038D02*
X100399122Y-65372419D01*
X100399122Y-65372419D02*
X100256265Y-65372419D01*
X100256265Y-65372419D02*
X100113408Y-65420038D01*
X100113408Y-65420038D02*
X100018170Y-65515276D01*
X100018170Y-65515276D02*
X99970551Y-65610514D01*
X99970551Y-65610514D02*
X99922932Y-65800990D01*
X99922932Y-65800990D02*
X99922932Y-65943847D01*
X99922932Y-65943847D02*
X99970551Y-66134323D01*
X99970551Y-66134323D02*
X100018170Y-66229561D01*
X100018170Y-66229561D02*
X100113408Y-66324800D01*
X100113408Y-66324800D02*
X100256265Y-66372419D01*
X100256265Y-66372419D02*
X100351503Y-66372419D01*
X100351503Y-66372419D02*
X100494360Y-66324800D01*
X100494360Y-66324800D02*
X100541979Y-66277180D01*
X100541979Y-66277180D02*
X100541979Y-65943847D01*
X100541979Y-65943847D02*
X100351503Y-65943847D01*
X100970551Y-65848609D02*
X101303884Y-65848609D01*
X101446741Y-66372419D02*
X100970551Y-66372419D01*
X100970551Y-66372419D02*
X100970551Y-65372419D01*
X100970551Y-65372419D02*
X101446741Y-65372419D01*
X102446741Y-66372419D02*
X102113408Y-65896228D01*
X101875313Y-66372419D02*
X101875313Y-65372419D01*
X101875313Y-65372419D02*
X102256265Y-65372419D01*
X102256265Y-65372419D02*
X102351503Y-65420038D01*
X102351503Y-65420038D02*
X102399122Y-65467657D01*
X102399122Y-65467657D02*
X102446741Y-65562895D01*
X102446741Y-65562895D02*
X102446741Y-65705752D01*
X102446741Y-65705752D02*
X102399122Y-65800990D01*
X102399122Y-65800990D02*
X102351503Y-65848609D01*
X102351503Y-65848609D02*
X102256265Y-65896228D01*
X102256265Y-65896228D02*
X101875313Y-65896228D01*
G36*
X93229256Y-67939929D02*
G01*
X93262791Y-67973465D01*
X93301503Y-68050888D01*
X93301503Y-68170138D01*
X93262791Y-68247561D01*
X93226645Y-68283708D01*
X93149224Y-68322419D01*
X92830075Y-68322419D01*
X92830075Y-67898609D01*
X93105295Y-67898609D01*
X93229256Y-67939929D01*
G37*
G36*
X93179028Y-67461130D02*
G01*
X93215172Y-67497275D01*
X93253884Y-67574698D01*
X93253884Y-67646329D01*
X93215172Y-67723752D01*
X93179028Y-67759897D01*
X93101605Y-67798609D01*
X92830075Y-67798609D01*
X92830075Y-67422419D01*
X93101605Y-67422419D01*
X93179028Y-67461130D01*
G37*
G36*
X94226648Y-67461131D02*
G01*
X94306354Y-67540837D01*
X94349122Y-67711907D01*
X94349122Y-68032930D01*
X94306354Y-68203999D01*
X94226646Y-68283708D01*
X94149224Y-68322419D01*
X93982355Y-68322419D01*
X93904932Y-68283707D01*
X93825223Y-68203998D01*
X93782456Y-68032930D01*
X93782456Y-67711907D01*
X93825223Y-67540837D01*
X93904929Y-67461131D01*
X93982355Y-67422419D01*
X94149224Y-67422419D01*
X94226648Y-67461131D01*
G37*
G36*
X97038780Y-67463739D02*
G01*
X97119933Y-67544892D01*
X97161470Y-67627966D01*
X97206265Y-67807145D01*
X97206265Y-67937692D01*
X97161470Y-68116870D01*
X97119933Y-68199944D01*
X97038779Y-68281098D01*
X96914819Y-68322419D01*
X96734837Y-68322419D01*
X96734837Y-67422419D01*
X96914819Y-67422419D01*
X97038780Y-67463739D01*
G37*
G36*
X103750457Y-67461130D02*
G01*
X103786601Y-67497275D01*
X103828137Y-67580347D01*
X103872932Y-67759526D01*
X103872932Y-67985311D01*
X103828137Y-68164489D01*
X103786601Y-68247561D01*
X103750455Y-68283708D01*
X103673034Y-68322419D01*
X103601403Y-68322419D01*
X103523980Y-68283708D01*
X103487834Y-68247561D01*
X103446299Y-68164491D01*
X103401504Y-67985311D01*
X103401504Y-67759526D01*
X103446299Y-67580346D01*
X103487834Y-67497274D01*
X103523979Y-67461130D01*
X103601403Y-67422419D01*
X103673034Y-67422419D01*
X103750457Y-67461130D01*
G37*
G36*
X87710703Y-68036704D02*
G01*
X87373255Y-68036704D01*
X87541979Y-67530532D01*
X87710703Y-68036704D01*
G37*
G36*
X95186894Y-68036704D02*
G01*
X94849446Y-68036704D01*
X95018170Y-67530532D01*
X95186894Y-68036704D01*
G37*
G36*
X96131409Y-67461130D02*
G01*
X96167553Y-67497275D01*
X96206265Y-67574698D01*
X96206265Y-67693948D01*
X96167553Y-67771371D01*
X96131409Y-67807516D01*
X96053986Y-67846228D01*
X95734837Y-67846228D01*
X95734837Y-67422419D01*
X96053986Y-67422419D01*
X96131409Y-67461130D01*
G37*
G36*
X98893314Y-67461130D02*
G01*
X98929458Y-67497275D01*
X98968170Y-67574698D01*
X98968170Y-67693948D01*
X98929458Y-67771371D01*
X98893314Y-67807516D01*
X98815891Y-67846228D01*
X98496742Y-67846228D01*
X98496742Y-67422419D01*
X98815891Y-67422419D01*
X98893314Y-67461130D01*
G37*
G36*
X104084043Y-68533530D02*
G01*
X85095154Y-68533530D01*
X85095154Y-67800990D01*
X85206265Y-67800990D01*
X85206265Y-67943847D01*
X85207460Y-67949856D01*
X85207758Y-67955974D01*
X85255377Y-68146450D01*
X85257716Y-68151402D01*
X85259163Y-68156684D01*
X85306781Y-68251921D01*
X85311692Y-68258249D01*
X85316147Y-68264916D01*
X85411386Y-68360155D01*
X85413467Y-68361545D01*
X85413981Y-68362573D01*
X85420946Y-68366543D01*
X85427607Y-68370994D01*
X85428755Y-68370994D01*
X85430930Y-68372234D01*
X85573786Y-68419853D01*
X85581736Y-68420855D01*
X85589598Y-68422419D01*
X85684836Y-68422419D01*
X85692698Y-68420855D01*
X85700647Y-68419853D01*
X85843504Y-68372234D01*
X85845679Y-68370994D01*
X85846828Y-68370994D01*
X85853498Y-68366536D01*
X85860452Y-68362573D01*
X85860964Y-68361547D01*
X85863049Y-68360155D01*
X85910668Y-68312535D01*
X85921506Y-68296314D01*
X85921506Y-68258045D01*
X85894446Y-68230986D01*
X85856177Y-68230986D01*
X85839956Y-68241825D01*
X85800683Y-68281098D01*
X85676723Y-68322419D01*
X85597711Y-68322419D01*
X85473751Y-68281099D01*
X85392595Y-68199942D01*
X85351060Y-68116872D01*
X85306265Y-67937692D01*
X85306265Y-67807145D01*
X85351060Y-67627965D01*
X85392596Y-67544893D01*
X85473749Y-67463739D01*
X85597711Y-67422419D01*
X85676723Y-67422419D01*
X85800684Y-67463739D01*
X85839956Y-67503012D01*
X85856177Y-67513851D01*
X85894446Y-67513851D01*
X85921506Y-67486791D01*
X85921506Y-67448522D01*
X85910667Y-67432301D01*
X85863048Y-67384683D01*
X85860965Y-67383291D01*
X85860452Y-67382265D01*
X85853491Y-67378297D01*
X85846827Y-67373844D01*
X85845679Y-67373844D01*
X85843504Y-67372604D01*
X85842949Y-67372419D01*
X86253884Y-67372419D01*
X86253884Y-68372419D01*
X86257690Y-68391553D01*
X86284750Y-68418613D01*
X86323018Y-68418613D01*
X86350078Y-68391553D01*
X86353884Y-68372419D01*
X86353884Y-67898609D01*
X86825312Y-67898609D01*
X86825312Y-68372419D01*
X86829118Y-68391553D01*
X86856178Y-68418613D01*
X86894446Y-68418613D01*
X86921506Y-68391553D01*
X86924607Y-68375963D01*
X87158772Y-68375963D01*
X87175886Y-68410192D01*
X87212190Y-68422293D01*
X87246419Y-68405179D01*
X87256080Y-68388230D01*
X87339922Y-68136704D01*
X87744036Y-68136704D01*
X87827878Y-68388230D01*
X87837539Y-68405178D01*
X87871768Y-68422293D01*
X87908072Y-68410191D01*
X87925186Y-68375963D01*
X87922746Y-68356607D01*
X87594683Y-67372419D01*
X88158646Y-67372419D01*
X88158646Y-68372419D01*
X88162452Y-68391553D01*
X88189512Y-68418613D01*
X88227780Y-68418613D01*
X88254840Y-68391553D01*
X88258646Y-68372419D01*
X88258646Y-67560697D01*
X88736662Y-68397226D01*
X88749460Y-68411951D01*
X88756084Y-68413757D01*
X88760940Y-68418613D01*
X88773888Y-68418613D01*
X88786380Y-68422020D01*
X88792342Y-68418613D01*
X88799208Y-68418613D01*
X88808361Y-68409459D01*
X88819606Y-68403034D01*
X88821413Y-68396407D01*
X88826268Y-68391553D01*
X88830074Y-68372419D01*
X88830074Y-67372419D01*
X89206265Y-67372419D01*
X89206265Y-68372419D01*
X89210071Y-68391553D01*
X89237131Y-68418613D01*
X89275399Y-68418613D01*
X89302459Y-68391553D01*
X89306265Y-68372419D01*
X89306265Y-67560697D01*
X89784281Y-68397226D01*
X89797079Y-68411951D01*
X89803703Y-68413757D01*
X89808559Y-68418613D01*
X89821507Y-68418613D01*
X89833999Y-68422020D01*
X89839961Y-68418613D01*
X89846827Y-68418613D01*
X89855980Y-68409459D01*
X89867225Y-68403034D01*
X89869032Y-68396407D01*
X89873887Y-68391553D01*
X89877693Y-68372419D01*
X89877693Y-67372419D01*
X90253884Y-67372419D01*
X90253884Y-68372419D01*
X90257690Y-68391553D01*
X90284750Y-68418613D01*
X90303884Y-68422419D01*
X90780074Y-68422419D01*
X90799208Y-68418613D01*
X90826268Y-68391553D01*
X90826268Y-68353285D01*
X90799208Y-68326225D01*
X90780074Y-68322419D01*
X90353884Y-68322419D01*
X90353884Y-67898609D01*
X90637217Y-67898609D01*
X90656351Y-67894803D01*
X90683411Y-67867743D01*
X90683411Y-67829475D01*
X90656351Y-67802415D01*
X90637217Y-67798609D01*
X90353884Y-67798609D01*
X90353884Y-67422419D01*
X90780074Y-67422419D01*
X90799208Y-67418613D01*
X90826268Y-67391553D01*
X90826268Y-67372419D01*
X91158646Y-67372419D01*
X91158646Y-68372419D01*
X91162452Y-68391553D01*
X91189512Y-68418613D01*
X91208646Y-68422419D01*
X91684836Y-68422419D01*
X91703970Y-68418613D01*
X91731030Y-68391553D01*
X91731030Y-68353285D01*
X91703970Y-68326225D01*
X91684836Y-68322419D01*
X91258646Y-68322419D01*
X91258646Y-67372419D01*
X92730075Y-67372419D01*
X92730075Y-68372419D01*
X92733881Y-68391553D01*
X92760941Y-68418613D01*
X92780075Y-68422419D01*
X93161027Y-68422419D01*
X93163483Y-68421930D01*
X93164572Y-68422293D01*
X93172299Y-68420176D01*
X93180161Y-68418613D01*
X93180972Y-68417801D01*
X93183388Y-68417140D01*
X93278625Y-68369522D01*
X93284952Y-68364611D01*
X93291621Y-68360155D01*
X93339240Y-68312535D01*
X93343693Y-68305869D01*
X93348605Y-68299541D01*
X93396224Y-68204303D01*
X93396885Y-68201887D01*
X93397697Y-68201076D01*
X93399260Y-68193214D01*
X93401377Y-68185487D01*
X93401014Y-68184398D01*
X93401503Y-68181942D01*
X93401503Y-68039085D01*
X93401014Y-68036628D01*
X93401377Y-68035540D01*
X93399260Y-68027812D01*
X93397697Y-68019951D01*
X93396885Y-68019139D01*
X93396224Y-68016724D01*
X93348605Y-67921486D01*
X93343693Y-67915157D01*
X93339239Y-67908491D01*
X93291620Y-67860873D01*
X93289537Y-67859481D01*
X93289024Y-67858455D01*
X93282063Y-67854487D01*
X93275399Y-67850034D01*
X93274251Y-67850034D01*
X93272076Y-67848794D01*
X93240915Y-67838407D01*
X93244001Y-67836345D01*
X93291620Y-67788727D01*
X93296074Y-67782060D01*
X93300986Y-67775732D01*
X93335976Y-67705752D01*
X93682456Y-67705752D01*
X93682456Y-68039085D01*
X93683651Y-68045094D01*
X93683949Y-68051212D01*
X93731568Y-68241688D01*
X93733881Y-68246584D01*
X93733881Y-68248695D01*
X93737285Y-68253790D01*
X93739901Y-68259327D01*
X93741709Y-68260412D01*
X93744719Y-68264916D01*
X93839958Y-68360155D01*
X93846617Y-68364605D01*
X93852952Y-68369521D01*
X93948190Y-68417140D01*
X93950605Y-68417801D01*
X93951417Y-68418613D01*
X93959278Y-68420176D01*
X93967006Y-68422293D01*
X93968094Y-68421930D01*
X93970551Y-68422419D01*
X94161027Y-68422419D01*
X94163483Y-68421930D01*
X94164572Y-68422293D01*
X94172299Y-68420176D01*
X94180161Y-68418613D01*
X94180972Y-68417801D01*
X94183388Y-68417140D01*
X94265743Y-68375963D01*
X94634963Y-68375963D01*
X94652077Y-68410192D01*
X94688381Y-68422293D01*
X94722610Y-68405179D01*
X94732271Y-68388230D01*
X94816113Y-68136704D01*
X95220227Y-68136704D01*
X95304069Y-68388230D01*
X95313730Y-68405178D01*
X95347959Y-68422293D01*
X95384263Y-68410191D01*
X95401377Y-68375963D01*
X95398937Y-68356607D01*
X95070874Y-67372419D01*
X95634837Y-67372419D01*
X95634837Y-68372419D01*
X95638643Y-68391553D01*
X95665703Y-68418613D01*
X95703971Y-68418613D01*
X95731031Y-68391553D01*
X95734837Y-68372419D01*
X95734837Y-67946228D01*
X95896899Y-67946228D01*
X96215303Y-68401092D01*
X96229394Y-68414585D01*
X96267080Y-68421235D01*
X96298431Y-68399290D01*
X96305081Y-68361604D01*
X96297227Y-68343746D01*
X96018965Y-67946228D01*
X96065789Y-67946228D01*
X96068245Y-67945739D01*
X96069334Y-67946102D01*
X96077061Y-67943985D01*
X96084923Y-67942422D01*
X96085734Y-67941610D01*
X96088150Y-67940949D01*
X96183387Y-67893331D01*
X96189720Y-67888415D01*
X96196382Y-67883964D01*
X96244001Y-67836346D01*
X96248455Y-67829679D01*
X96253367Y-67823351D01*
X96300986Y-67728113D01*
X96301647Y-67725697D01*
X96302459Y-67724886D01*
X96304022Y-67717024D01*
X96306139Y-67709297D01*
X96305776Y-67708208D01*
X96306265Y-67705752D01*
X96306265Y-67562895D01*
X96305776Y-67560438D01*
X96306139Y-67559350D01*
X96304022Y-67551622D01*
X96302459Y-67543761D01*
X96301647Y-67542949D01*
X96300986Y-67540534D01*
X96253367Y-67445296D01*
X96248455Y-67438967D01*
X96244001Y-67432301D01*
X96196382Y-67384683D01*
X96189720Y-67380231D01*
X96183387Y-67375316D01*
X96177593Y-67372419D01*
X96634837Y-67372419D01*
X96634837Y-68372419D01*
X96638643Y-68391553D01*
X96665703Y-68418613D01*
X96684837Y-68422419D01*
X96922932Y-68422419D01*
X96930794Y-68420855D01*
X96938743Y-68419853D01*
X97081600Y-68372234D01*
X97083775Y-68370994D01*
X97084924Y-68370994D01*
X97091594Y-68366536D01*
X97098548Y-68362573D01*
X97099060Y-68361547D01*
X97101145Y-68360155D01*
X97196383Y-68264916D01*
X97200836Y-68258250D01*
X97205748Y-68251922D01*
X97253367Y-68156684D01*
X97254813Y-68151402D01*
X97257153Y-68146450D01*
X97304772Y-67955974D01*
X97305069Y-67949856D01*
X97306265Y-67943847D01*
X97306265Y-67800990D01*
X97305069Y-67794980D01*
X97304772Y-67788863D01*
X97257153Y-67598387D01*
X97254813Y-67593434D01*
X97253367Y-67588153D01*
X97205748Y-67492915D01*
X97200832Y-67486580D01*
X97196382Y-67479921D01*
X97101144Y-67384683D01*
X97099061Y-67383291D01*
X97098548Y-67382265D01*
X97091587Y-67378297D01*
X97084923Y-67373844D01*
X97083775Y-67373844D01*
X97081600Y-67372604D01*
X97081045Y-67372419D01*
X98396742Y-67372419D01*
X98396742Y-68372419D01*
X98400548Y-68391553D01*
X98427608Y-68418613D01*
X98465876Y-68418613D01*
X98492936Y-68391553D01*
X98496742Y-68372419D01*
X98496742Y-67946228D01*
X98658804Y-67946228D01*
X98977208Y-68401092D01*
X98991299Y-68414585D01*
X99028985Y-68421235D01*
X99060336Y-68399290D01*
X99066986Y-68361604D01*
X99059132Y-68343746D01*
X98780870Y-67946228D01*
X98827694Y-67946228D01*
X98830150Y-67945739D01*
X98831239Y-67946102D01*
X98838966Y-67943985D01*
X98846828Y-67942422D01*
X98847639Y-67941610D01*
X98850055Y-67940949D01*
X98945292Y-67893331D01*
X98951625Y-67888415D01*
X98958287Y-67883964D01*
X99005906Y-67836346D01*
X99010360Y-67829679D01*
X99015272Y-67823351D01*
X99062891Y-67728113D01*
X99063552Y-67725697D01*
X99064364Y-67724886D01*
X99065927Y-67717024D01*
X99068044Y-67709297D01*
X99067681Y-67708208D01*
X99068170Y-67705752D01*
X99068170Y-67562895D01*
X99067681Y-67560438D01*
X99068044Y-67559350D01*
X99065927Y-67551622D01*
X99064364Y-67543761D01*
X99063552Y-67542949D01*
X99062891Y-67540534D01*
X99015272Y-67445296D01*
X99010360Y-67438967D01*
X99005906Y-67432301D01*
X98958287Y-67384683D01*
X98951625Y-67380231D01*
X98945292Y-67375316D01*
X98939498Y-67372419D01*
X99396742Y-67372419D01*
X99396742Y-68372419D01*
X99400548Y-68391553D01*
X99427608Y-68418613D01*
X99446742Y-68422419D01*
X99922932Y-68422419D01*
X99942066Y-68418613D01*
X99969126Y-68391553D01*
X99969126Y-68353285D01*
X99942066Y-68326225D01*
X99922932Y-68322419D01*
X99496742Y-68322419D01*
X99496742Y-67898609D01*
X99780075Y-67898609D01*
X99799209Y-67894803D01*
X99826269Y-67867743D01*
X99826269Y-67829475D01*
X99799209Y-67802415D01*
X99780075Y-67798609D01*
X99496742Y-67798609D01*
X99496742Y-67422419D01*
X99922932Y-67422419D01*
X99942066Y-67418613D01*
X99969126Y-67391553D01*
X99969126Y-67368875D01*
X100158773Y-67368875D01*
X100161213Y-67388230D01*
X100494546Y-68388230D01*
X100504207Y-68405178D01*
X100507548Y-68406848D01*
X100509220Y-68410192D01*
X100524262Y-68415205D01*
X100538436Y-68422293D01*
X100541979Y-68421111D01*
X100545524Y-68422293D01*
X100559703Y-68415203D01*
X100574740Y-68410191D01*
X100576410Y-68406850D01*
X100579753Y-68405179D01*
X100589414Y-68388230D01*
X100601062Y-68353285D01*
X101829120Y-68353285D01*
X101829120Y-68391553D01*
X101856180Y-68418613D01*
X101875314Y-68422419D01*
X102494361Y-68422419D01*
X102513495Y-68418613D01*
X102540555Y-68391553D01*
X102540555Y-68353285D01*
X102513495Y-68326225D01*
X102494361Y-68322419D01*
X101996024Y-68322419D01*
X102012777Y-68305666D01*
X102829120Y-68305666D01*
X102829120Y-68343935D01*
X102829122Y-68343937D01*
X102839959Y-68360155D01*
X102887577Y-68407774D01*
X102903798Y-68418613D01*
X102903799Y-68418613D01*
X102942067Y-68418613D01*
X102958288Y-68407774D01*
X103005907Y-68360156D01*
X103016746Y-68343935D01*
X103016746Y-68305666D01*
X103005908Y-68289445D01*
X102958289Y-68241825D01*
X102942068Y-68230986D01*
X102942067Y-68230986D01*
X102903798Y-68230986D01*
X102887577Y-68241825D01*
X102839958Y-68289445D01*
X102829120Y-68305666D01*
X102012777Y-68305666D01*
X102482097Y-67836345D01*
X102483487Y-67834263D01*
X102484515Y-67833750D01*
X102488485Y-67826784D01*
X102492936Y-67820124D01*
X102492936Y-67818976D01*
X102494176Y-67816801D01*
X102515319Y-67753371D01*
X103301504Y-67753371D01*
X103301504Y-67991466D01*
X103302699Y-67997475D01*
X103302997Y-68003593D01*
X103350616Y-68194069D01*
X103352955Y-68199021D01*
X103354402Y-68204303D01*
X103402020Y-68299540D01*
X103406931Y-68305868D01*
X103411386Y-68312535D01*
X103459005Y-68360155D01*
X103465671Y-68364609D01*
X103472000Y-68369521D01*
X103567238Y-68417140D01*
X103569653Y-68417801D01*
X103570465Y-68418613D01*
X103578326Y-68420176D01*
X103586054Y-68422293D01*
X103587142Y-68421930D01*
X103589599Y-68422419D01*
X103684837Y-68422419D01*
X103687293Y-68421930D01*
X103688382Y-68422293D01*
X103696109Y-68420176D01*
X103703971Y-68418613D01*
X103704782Y-68417801D01*
X103707198Y-68417140D01*
X103802435Y-68369522D01*
X103808762Y-68364611D01*
X103815431Y-68360155D01*
X103863050Y-68312535D01*
X103867503Y-68305869D01*
X103872415Y-68299541D01*
X103920034Y-68204303D01*
X103921480Y-68199021D01*
X103923820Y-68194069D01*
X103971439Y-68003593D01*
X103971736Y-67997475D01*
X103972932Y-67991466D01*
X103972932Y-67753371D01*
X103971736Y-67747361D01*
X103971439Y-67741244D01*
X103923820Y-67550768D01*
X103921480Y-67545815D01*
X103920034Y-67540534D01*
X103872415Y-67445296D01*
X103867503Y-67438967D01*
X103863049Y-67432301D01*
X103815430Y-67384683D01*
X103808768Y-67380231D01*
X103802435Y-67375316D01*
X103707198Y-67327698D01*
X103704782Y-67327036D01*
X103703971Y-67326225D01*
X103696109Y-67324661D01*
X103688382Y-67322545D01*
X103687293Y-67322907D01*
X103684837Y-67322419D01*
X103589599Y-67322419D01*
X103587142Y-67322907D01*
X103586054Y-67322545D01*
X103578326Y-67324661D01*
X103570465Y-67326225D01*
X103569653Y-67327036D01*
X103567238Y-67327698D01*
X103472000Y-67375317D01*
X103465671Y-67380228D01*
X103459005Y-67384683D01*
X103411387Y-67432302D01*
X103406935Y-67438963D01*
X103402020Y-67445297D01*
X103354402Y-67540534D01*
X103352955Y-67545815D01*
X103350616Y-67550768D01*
X103302997Y-67741244D01*
X103302699Y-67747361D01*
X103301504Y-67753371D01*
X102515319Y-67753371D01*
X102541795Y-67673945D01*
X102542797Y-67665994D01*
X102544361Y-67658133D01*
X102544361Y-67562895D01*
X102543872Y-67560438D01*
X102544235Y-67559350D01*
X102542118Y-67551622D01*
X102540555Y-67543761D01*
X102539743Y-67542949D01*
X102539082Y-67540534D01*
X102491463Y-67445296D01*
X102486551Y-67438967D01*
X102482097Y-67432301D01*
X102434478Y-67384683D01*
X102427816Y-67380231D01*
X102421483Y-67375316D01*
X102326246Y-67327698D01*
X102323830Y-67327036D01*
X102323019Y-67326225D01*
X102315157Y-67324661D01*
X102307430Y-67322545D01*
X102306341Y-67322907D01*
X102303885Y-67322419D01*
X102065790Y-67322419D01*
X102063333Y-67322907D01*
X102062245Y-67322545D01*
X102054517Y-67324661D01*
X102046656Y-67326225D01*
X102045844Y-67327036D01*
X102043429Y-67327698D01*
X101948191Y-67375317D01*
X101941862Y-67380228D01*
X101935196Y-67384683D01*
X101887578Y-67432302D01*
X101876739Y-67448523D01*
X101876739Y-67486791D01*
X101903799Y-67513851D01*
X101942067Y-67513851D01*
X101958288Y-67503012D01*
X102000170Y-67461130D01*
X102077594Y-67422419D01*
X102292082Y-67422419D01*
X102369505Y-67461130D01*
X102405649Y-67497275D01*
X102444361Y-67574698D01*
X102444361Y-67650020D01*
X102403040Y-67773981D01*
X101839959Y-68337064D01*
X101829121Y-68353284D01*
X101829120Y-68353285D01*
X100601062Y-68353285D01*
X100922747Y-67388231D01*
X100925187Y-67368875D01*
X100908073Y-67334647D01*
X100871769Y-67322545D01*
X100837540Y-67339660D01*
X100827879Y-67356608D01*
X100541980Y-68214305D01*
X100256081Y-67356608D01*
X100246420Y-67339659D01*
X100212191Y-67322545D01*
X100175887Y-67334646D01*
X100158773Y-67368875D01*
X99969126Y-67368875D01*
X99969126Y-67353285D01*
X99942066Y-67326225D01*
X99922932Y-67322419D01*
X99446742Y-67322419D01*
X99427608Y-67326225D01*
X99400548Y-67353285D01*
X99396742Y-67372419D01*
X98939498Y-67372419D01*
X98850055Y-67327698D01*
X98847639Y-67327036D01*
X98846828Y-67326225D01*
X98838966Y-67324661D01*
X98831239Y-67322545D01*
X98830150Y-67322907D01*
X98827694Y-67322419D01*
X98446742Y-67322419D01*
X98427608Y-67326225D01*
X98400548Y-67353285D01*
X98396742Y-67372419D01*
X97081045Y-67372419D01*
X96938743Y-67324985D01*
X96930794Y-67323982D01*
X96922932Y-67322419D01*
X96684837Y-67322419D01*
X96665703Y-67326225D01*
X96638643Y-67353285D01*
X96634837Y-67372419D01*
X96177593Y-67372419D01*
X96088150Y-67327698D01*
X96085734Y-67327036D01*
X96084923Y-67326225D01*
X96077061Y-67324661D01*
X96069334Y-67322545D01*
X96068245Y-67322907D01*
X96065789Y-67322419D01*
X95684837Y-67322419D01*
X95665703Y-67326225D01*
X95638643Y-67353285D01*
X95634837Y-67372419D01*
X95070874Y-67372419D01*
X95065604Y-67356608D01*
X95055943Y-67339659D01*
X95052600Y-67337987D01*
X95050930Y-67334647D01*
X95035893Y-67329634D01*
X95021714Y-67322545D01*
X95018169Y-67323726D01*
X95014626Y-67322545D01*
X95000452Y-67329632D01*
X94985410Y-67334646D01*
X94983738Y-67337989D01*
X94980397Y-67339660D01*
X94970736Y-67356608D01*
X94637403Y-68356608D01*
X94634963Y-68375963D01*
X94265743Y-68375963D01*
X94278625Y-68369522D01*
X94284952Y-68364611D01*
X94291621Y-68360155D01*
X94386859Y-68264916D01*
X94389868Y-68260412D01*
X94391677Y-68259327D01*
X94394292Y-68253790D01*
X94397697Y-68248695D01*
X94397697Y-68246584D01*
X94400010Y-68241688D01*
X94447629Y-68051212D01*
X94447926Y-68045094D01*
X94449122Y-68039085D01*
X94449122Y-67705752D01*
X94447926Y-67699742D01*
X94447629Y-67693625D01*
X94400010Y-67503149D01*
X94397697Y-67498252D01*
X94397697Y-67496142D01*
X94394293Y-67491048D01*
X94391677Y-67485510D01*
X94389866Y-67484423D01*
X94386858Y-67479921D01*
X94291620Y-67384683D01*
X94284958Y-67380231D01*
X94278625Y-67375316D01*
X94183388Y-67327698D01*
X94180972Y-67327036D01*
X94180161Y-67326225D01*
X94172299Y-67324661D01*
X94164572Y-67322545D01*
X94163483Y-67322907D01*
X94161027Y-67322419D01*
X93970551Y-67322419D01*
X93968094Y-67322907D01*
X93967006Y-67322545D01*
X93959278Y-67324661D01*
X93951417Y-67326225D01*
X93950605Y-67327036D01*
X93948190Y-67327698D01*
X93852952Y-67375317D01*
X93846617Y-67380232D01*
X93839958Y-67384683D01*
X93744720Y-67479921D01*
X93741711Y-67484423D01*
X93739901Y-67485510D01*
X93737284Y-67491048D01*
X93733881Y-67496142D01*
X93733881Y-67498252D01*
X93731568Y-67503149D01*
X93683949Y-67693625D01*
X93683651Y-67699742D01*
X93682456Y-67705752D01*
X93335976Y-67705752D01*
X93348605Y-67680494D01*
X93349266Y-67678078D01*
X93350078Y-67677267D01*
X93351641Y-67669405D01*
X93353758Y-67661678D01*
X93353395Y-67660589D01*
X93353884Y-67658133D01*
X93353884Y-67562895D01*
X93353395Y-67560438D01*
X93353758Y-67559350D01*
X93351641Y-67551622D01*
X93350078Y-67543761D01*
X93349266Y-67542949D01*
X93348605Y-67540534D01*
X93300986Y-67445296D01*
X93296074Y-67438967D01*
X93291620Y-67432301D01*
X93244001Y-67384683D01*
X93237339Y-67380231D01*
X93231006Y-67375316D01*
X93135769Y-67327698D01*
X93133353Y-67327036D01*
X93132542Y-67326225D01*
X93124680Y-67324661D01*
X93116953Y-67322545D01*
X93115864Y-67322907D01*
X93113408Y-67322419D01*
X92780075Y-67322419D01*
X92760941Y-67326225D01*
X92733881Y-67353285D01*
X92730075Y-67372419D01*
X91258646Y-67372419D01*
X91254840Y-67353285D01*
X91227780Y-67326225D01*
X91189512Y-67326225D01*
X91162452Y-67353285D01*
X91158646Y-67372419D01*
X90826268Y-67372419D01*
X90826268Y-67353285D01*
X90799208Y-67326225D01*
X90780074Y-67322419D01*
X90303884Y-67322419D01*
X90284750Y-67326225D01*
X90257690Y-67353285D01*
X90253884Y-67372419D01*
X89877693Y-67372419D01*
X89873887Y-67353285D01*
X89846827Y-67326225D01*
X89808559Y-67326225D01*
X89781499Y-67353285D01*
X89777693Y-67372419D01*
X89777693Y-68184140D01*
X89299677Y-67347612D01*
X89286880Y-67332887D01*
X89280253Y-67331079D01*
X89275399Y-67326225D01*
X89262452Y-67326225D01*
X89249959Y-67322818D01*
X89243997Y-67326225D01*
X89237131Y-67326225D01*
X89227977Y-67335378D01*
X89216733Y-67341804D01*
X89214925Y-67348430D01*
X89210071Y-67353285D01*
X89206265Y-67372419D01*
X88830074Y-67372419D01*
X88826268Y-67353285D01*
X88799208Y-67326225D01*
X88760940Y-67326225D01*
X88733880Y-67353285D01*
X88730074Y-67372419D01*
X88730074Y-68184140D01*
X88252058Y-67347612D01*
X88239261Y-67332887D01*
X88232634Y-67331079D01*
X88227780Y-67326225D01*
X88214833Y-67326225D01*
X88202340Y-67322818D01*
X88196378Y-67326225D01*
X88189512Y-67326225D01*
X88180358Y-67335378D01*
X88169114Y-67341804D01*
X88167306Y-67348430D01*
X88162452Y-67353285D01*
X88158646Y-67372419D01*
X87594683Y-67372419D01*
X87589413Y-67356608D01*
X87579752Y-67339659D01*
X87576409Y-67337987D01*
X87574739Y-67334647D01*
X87559702Y-67329634D01*
X87545523Y-67322545D01*
X87541978Y-67323726D01*
X87538435Y-67322545D01*
X87524261Y-67329632D01*
X87509219Y-67334646D01*
X87507547Y-67337989D01*
X87504206Y-67339660D01*
X87494545Y-67356608D01*
X87161212Y-68356608D01*
X87158772Y-68375963D01*
X86924607Y-68375963D01*
X86925312Y-68372419D01*
X86925312Y-67372419D01*
X86921506Y-67353285D01*
X86894446Y-67326225D01*
X86856178Y-67326225D01*
X86829118Y-67353285D01*
X86825312Y-67372419D01*
X86825312Y-67798609D01*
X86353884Y-67798609D01*
X86353884Y-67372419D01*
X86350078Y-67353285D01*
X86323018Y-67326225D01*
X86284750Y-67326225D01*
X86257690Y-67353285D01*
X86253884Y-67372419D01*
X85842949Y-67372419D01*
X85700647Y-67324985D01*
X85692698Y-67323982D01*
X85684836Y-67322419D01*
X85589598Y-67322419D01*
X85581736Y-67323982D01*
X85573786Y-67324985D01*
X85430930Y-67372604D01*
X85428755Y-67373844D01*
X85427607Y-67373844D01*
X85420946Y-67378294D01*
X85413981Y-67382265D01*
X85413467Y-67383292D01*
X85411386Y-67384683D01*
X85316148Y-67479921D01*
X85311696Y-67486582D01*
X85306781Y-67492916D01*
X85259163Y-67588153D01*
X85257716Y-67593434D01*
X85255377Y-67598387D01*
X85207758Y-67788863D01*
X85207460Y-67794980D01*
X85206265Y-67800990D01*
X85095154Y-67800990D01*
X85095154Y-67211308D01*
X104084043Y-67211308D01*
X104084043Y-68533530D01*
G37*
D11*
X206743839Y-61070390D02*
X207553362Y-61070390D01*
X207553362Y-61070390D02*
X207648600Y-61022771D01*
X207648600Y-61022771D02*
X207696220Y-60975152D01*
X207696220Y-60975152D02*
X207743839Y-60879914D01*
X207743839Y-60879914D02*
X207743839Y-60689438D01*
X207743839Y-60689438D02*
X207696220Y-60594200D01*
X207696220Y-60594200D02*
X207648600Y-60546581D01*
X207648600Y-60546581D02*
X207553362Y-60498962D01*
X207553362Y-60498962D02*
X206743839Y-60498962D01*
X207077172Y-59594200D02*
X207743839Y-59594200D01*
X206696220Y-59832295D02*
X207410505Y-60070390D01*
X207410505Y-60070390D02*
X207410505Y-59451343D01*
X156864819Y-60761904D02*
X157674342Y-60761904D01*
X157674342Y-60761904D02*
X157769580Y-60714285D01*
X157769580Y-60714285D02*
X157817200Y-60666666D01*
X157817200Y-60666666D02*
X157864819Y-60571428D01*
X157864819Y-60571428D02*
X157864819Y-60380952D01*
X157864819Y-60380952D02*
X157817200Y-60285714D01*
X157817200Y-60285714D02*
X157769580Y-60238095D01*
X157769580Y-60238095D02*
X157674342Y-60190476D01*
X157674342Y-60190476D02*
X156864819Y-60190476D01*
X157864819Y-59190476D02*
X157864819Y-59761904D01*
X157864819Y-59476190D02*
X156864819Y-59476190D01*
X156864819Y-59476190D02*
X157007676Y-59571428D01*
X157007676Y-59571428D02*
X157102914Y-59666666D01*
X157102914Y-59666666D02*
X157150533Y-59761904D01*
D12*
%TO.C,U4*%
X193469020Y-57658486D02*
X193469020Y-62958486D01*
X193469020Y-62958486D02*
X206289020Y-62958486D01*
X206289020Y-57658486D02*
X193469020Y-57658486D01*
X206289020Y-59308486D02*
X206289020Y-57658486D01*
X206289020Y-62958486D02*
X206289020Y-61308486D01*
X206289020Y-61308486D02*
G75*
G02*
X206289020Y-59308486I0J1000000D01*
G01*
%TO.C,R1*%
X215820000Y-52000000D02*
X216770000Y-52000000D01*
X221560000Y-52000000D02*
X220610000Y-52000000D01*
X216770000Y-51080000D02*
X220610000Y-51080000D01*
X220610000Y-52920000D01*
X216770000Y-52920000D01*
X216770000Y-51080000D01*
%TO.C,U1*%
X143590000Y-57350000D02*
X143590000Y-62650000D01*
X143590000Y-62650000D02*
X156410000Y-62650000D01*
X156410000Y-57350000D02*
X143590000Y-57350000D01*
X156410000Y-59000000D02*
X156410000Y-57350000D01*
X156410000Y-62650000D02*
X156410000Y-61000000D01*
X156410000Y-61000000D02*
G75*
G02*
X156410000Y-59000000I0J1000000D01*
G01*
%TO.C,R5*%
X69320000Y-52500000D02*
X70270000Y-52500000D01*
X75060000Y-52500000D02*
X74110000Y-52500000D01*
X70270000Y-51580000D02*
X74110000Y-51580000D01*
X74110000Y-53420000D01*
X70270000Y-53420000D01*
X70270000Y-51580000D01*
%TD*%
M02*
