%TF.GenerationSoftware,KiCad,Pcbnew,9.0.3*%
%TF.CreationDate,2025-08-16T11:04:07+02:00*%
%TF.ProjectId,kosmo song manager channel board,6b6f736d-6f20-4736-9f6e-67206d616e61,rev?*%
%TF.SameCoordinates,Original*%
%TF.FileFunction,Copper,L2,Bot*%
%TF.FilePolarity,Positive*%
%FSLAX46Y46*%
G04 Gerber Fmt 4.6, Leading zero omitted, Abs format (unit mm)*
G04 Created by KiCad (PCBNEW 9.0.3) date 2025-08-16 11:04:07*
%MOMM*%
%LPD*%
G01*
G04 APERTURE LIST*
G04 Aperture macros list*
%AMRoundRect*
0 Rectangle with rounded corners*
0 $1 Rounding radius*
0 $2 $3 $4 $5 $6 $7 $8 $9 X,Y pos of 4 corners*
0 Add a 4 corners polygon primitive as box body*
4,1,4,$2,$3,$4,$5,$6,$7,$8,$9,$2,$3,0*
0 Add four circle primitives for the rounded corners*
1,1,$1+$1,$2,$3*
1,1,$1+$1,$4,$5*
1,1,$1+$1,$6,$7*
1,1,$1+$1,$8,$9*
0 Add four rect primitives between the rounded corners*
20,1,$1+$1,$2,$3,$4,$5,0*
20,1,$1+$1,$4,$5,$6,$7,0*
20,1,$1+$1,$6,$7,$8,$9,0*
20,1,$1+$1,$8,$9,$2,$3,0*%
G04 Aperture macros list end*
%TA.AperFunction,ComponentPad*%
%ADD10RoundRect,0.250000X0.675000X-0.675000X0.675000X0.675000X-0.675000X0.675000X-0.675000X-0.675000X0*%
%TD*%
%TA.AperFunction,ComponentPad*%
%ADD11C,1.850000*%
%TD*%
%TA.AperFunction,ComponentPad*%
%ADD12RoundRect,0.250000X-0.550000X0.550000X-0.550000X-0.550000X0.550000X-0.550000X0.550000X0.550000X0*%
%TD*%
%TA.AperFunction,ComponentPad*%
%ADD13C,1.600000*%
%TD*%
%TA.AperFunction,ComponentPad*%
%ADD14C,1.400000*%
%TD*%
%TA.AperFunction,ComponentPad*%
%ADD15RoundRect,0.250000X0.750000X-0.750000X0.750000X0.750000X-0.750000X0.750000X-0.750000X-0.750000X0*%
%TD*%
%TA.AperFunction,ComponentPad*%
%ADD16C,2.000000*%
%TD*%
%TA.AperFunction,ComponentPad*%
%ADD17RoundRect,0.250000X-0.675000X-0.675000X0.675000X-0.675000X0.675000X0.675000X-0.675000X0.675000X0*%
%TD*%
%TA.AperFunction,ComponentPad*%
%ADD18R,1.700000X1.700000*%
%TD*%
%TA.AperFunction,ComponentPad*%
%ADD19C,1.700000*%
%TD*%
%TA.AperFunction,ComponentPad*%
%ADD20RoundRect,0.250000X0.550000X-0.550000X0.550000X0.550000X-0.550000X0.550000X-0.550000X-0.550000X0*%
%TD*%
%TA.AperFunction,ViaPad*%
%ADD21C,0.600000*%
%TD*%
%TA.AperFunction,Conductor*%
%ADD22C,0.200000*%
%TD*%
G04 APERTURE END LIST*
D10*
%TO.P,D1,1,K*%
%TO.N,Net-(D1-K)*%
X72500000Y-62100000D03*
D11*
%TO.P,D1,2,A*%
%TO.N,Net-(D1-A)*%
X72500000Y-57900000D03*
%TD*%
D12*
%TO.P,U4,1,F*%
%TO.N,Net-(U1-F)*%
X204959020Y-56498486D03*
D13*
%TO.P,U4,2,de2*%
%TO.N,Net-(U3-DIG_2)*%
X202419020Y-56498486D03*
%TO.P,U4,3,B*%
%TO.N,Net-(D2-A)*%
X199879020Y-56498486D03*
%TO.P,U4,4,A*%
%TO.N,Net-(D1-A)*%
X197339020Y-56498486D03*
%TO.P,U4,5,de1*%
%TO.N,Net-(U3-DIG_1)*%
X194799020Y-56498486D03*
%TO.P,U4,6,E*%
%TO.N,Net-(U1-E)*%
X194799020Y-64118486D03*
%TO.P,U4,7,D*%
%TO.N,Net-(D4-A)*%
X197339020Y-64118486D03*
%TO.P,U4,8,C*%
%TO.N,Net-(D3-A)*%
X199879020Y-64118486D03*
%TO.P,U4,9,G*%
%TO.N,Net-(U1-G)*%
X202419020Y-64118486D03*
%TO.P,U4,10,dp*%
%TO.N,Net-(U1-dp)*%
X204959020Y-64118486D03*
%TD*%
D14*
%TO.P,R1,1*%
%TO.N,Net-(U3-ISET)*%
X214880000Y-52000000D03*
%TO.P,R1,2*%
%TO.N,GND*%
X222500000Y-52000000D03*
%TD*%
D15*
%TO.P,SW1,1,A*%
%TO.N,VCC*%
X68500000Y-62250000D03*
D16*
%TO.P,SW1,2,B*%
%TO.N,Net-(J2-Pin_9)*%
X68500000Y-57750000D03*
%TD*%
D12*
%TO.P,U1,1,F*%
%TO.N,Net-(U1-F)*%
X155080000Y-56190000D03*
D13*
%TO.P,U1,2,de2*%
%TO.N,Net-(U1-de2)*%
X152540000Y-56190000D03*
%TO.P,U1,3,B*%
%TO.N,Net-(D2-A)*%
X150000000Y-56190000D03*
%TO.P,U1,4,A*%
%TO.N,Net-(D1-A)*%
X147460000Y-56190000D03*
%TO.P,U1,5,de1*%
%TO.N,Net-(U1-de1)*%
X144920000Y-56190000D03*
%TO.P,U1,6,E*%
%TO.N,Net-(U1-E)*%
X144920000Y-63810000D03*
%TO.P,U1,7,D*%
%TO.N,Net-(D4-A)*%
X147460000Y-63810000D03*
%TO.P,U1,8,C*%
%TO.N,Net-(D3-A)*%
X150000000Y-63810000D03*
%TO.P,U1,9,G*%
%TO.N,Net-(U1-G)*%
X152540000Y-63810000D03*
%TO.P,U1,10,dp*%
%TO.N,Net-(U1-dp)*%
X155080000Y-63810000D03*
%TD*%
D10*
%TO.P,D3,1,K*%
%TO.N,Net-(D1-K)*%
X94500000Y-62200000D03*
D11*
%TO.P,D3,2,A*%
%TO.N,Net-(D3-A)*%
X94500000Y-58000000D03*
%TD*%
D17*
%TO.P,RV1,1,1*%
%TO.N,VCC*%
X114300000Y-68000000D03*
D11*
%TO.P,RV1,2,2*%
%TO.N,Net-(J2-Pin_3)*%
X118500000Y-68000000D03*
%TO.P,RV1,3,3*%
%TO.N,GND*%
X122700000Y-68000000D03*
%TD*%
D17*
%TO.P,RV3,1,1*%
%TO.N,VCC*%
X214300000Y-68000000D03*
D11*
%TO.P,RV3,2,2*%
%TO.N,Net-(J2-Pin_7)*%
X218500000Y-68000000D03*
%TO.P,RV3,3,3*%
%TO.N,GND*%
X222700000Y-68000000D03*
%TD*%
D17*
%TO.P,RV2,1,1*%
%TO.N,VCC*%
X164300000Y-68000000D03*
D11*
%TO.P,RV2,2,2*%
%TO.N,Net-(J2-Pin_5)*%
X168500000Y-68000000D03*
%TO.P,RV2,3,3*%
%TO.N,GND*%
X172700000Y-68000000D03*
%TD*%
D10*
%TO.P,D2,1,K*%
%TO.N,Net-(D1-K)*%
X83500000Y-62200000D03*
D11*
%TO.P,D2,2,A*%
%TO.N,Net-(D2-A)*%
X83500000Y-58000000D03*
%TD*%
D14*
%TO.P,R5,1*%
%TO.N,Net-(J2-Pin_9)*%
X68380000Y-52500000D03*
%TO.P,R5,2*%
%TO.N,GND*%
X76000000Y-52500000D03*
%TD*%
D10*
%TO.P,D4,1,K*%
%TO.N,Net-(D1-K)*%
X105500000Y-62200000D03*
D11*
%TO.P,D4,2,A*%
%TO.N,Net-(D4-A)*%
X105500000Y-58000000D03*
%TD*%
D18*
%TO.P,J2,1,Pin_1*%
%TO.N,GND*%
X126639173Y-61205879D03*
D19*
%TO.P,J2,2,Pin_2*%
%TO.N,Net-(J2-Pin_2)*%
X126639173Y-58665879D03*
%TO.P,J2,3,Pin_3*%
%TO.N,Net-(J2-Pin_3)*%
X124099173Y-61205879D03*
%TO.P,J2,4,Pin_4*%
%TO.N,Net-(J2-Pin_4)*%
X124099173Y-58665879D03*
%TO.P,J2,5,Pin_5*%
%TO.N,Net-(J2-Pin_5)*%
X121559173Y-61205879D03*
%TO.P,J2,6,Pin_6*%
%TO.N,Net-(J2-Pin_6)*%
X121559173Y-58665879D03*
%TO.P,J2,7,Pin_7*%
%TO.N,Net-(J2-Pin_7)*%
X119019173Y-61205879D03*
%TO.P,J2,8,Pin_8*%
%TO.N,Net-(J2-Pin_8)*%
X119019173Y-58665879D03*
%TO.P,J2,9,Pin_9*%
%TO.N,Net-(J2-Pin_9)*%
X116479173Y-61205879D03*
%TO.P,J2,10,Pin_10*%
%TO.N,VCC*%
X116479173Y-58665879D03*
%TD*%
D20*
%TO.P,U3,1,DIN*%
%TO.N,Net-(J2-Pin_2)*%
X189540801Y-63842563D03*
D13*
%TO.P,U3,2,DIG_0*%
%TO.N,Net-(D1-K)*%
X187000801Y-63842563D03*
%TO.P,U3,3,DIG_4*%
%TO.N,Net-(U1-de2)*%
X184460801Y-63842563D03*
%TO.P,U3,4,GND*%
%TO.N,GND*%
X181920801Y-63842563D03*
%TO.P,U3,5,DIG_6*%
%TO.N,unconnected-(U3-DIG_6-Pad5)*%
X179380801Y-63842563D03*
%TO.P,U3,6,DIG_2*%
%TO.N,Net-(U3-DIG_2)*%
X176840801Y-63842563D03*
%TO.P,U3,7,DIG_3*%
%TO.N,Net-(U1-de1)*%
X174300801Y-63842563D03*
%TO.P,U3,8,DIG_7*%
%TO.N,unconnected-(U3-DIG_7-Pad8)*%
X171760801Y-63842563D03*
%TO.P,U3,9,GND*%
%TO.N,GND*%
X169220801Y-63842563D03*
%TO.P,U3,10,DIG_5*%
%TO.N,unconnected-(U3-DIG_5-Pad10)*%
X166680801Y-63842563D03*
%TO.P,U3,11,DIG_1*%
%TO.N,Net-(U3-DIG_1)*%
X164140801Y-63842563D03*
%TO.P,U3,12,LOAD*%
%TO.N,Net-(J2-Pin_4)*%
X161600801Y-63842563D03*
%TO.P,U3,13,CLK*%
%TO.N,Net-(J2-Pin_6)*%
X161600801Y-56222563D03*
%TO.P,U3,14,SEG_A*%
%TO.N,Net-(D1-A)*%
X164140801Y-56222563D03*
%TO.P,U3,15,SEG_F*%
%TO.N,Net-(U1-F)*%
X166680801Y-56222563D03*
%TO.P,U3,16,SEG_B*%
%TO.N,Net-(D2-A)*%
X169220801Y-56222563D03*
%TO.P,U3,17,SEG_G*%
%TO.N,Net-(U1-G)*%
X171760801Y-56222563D03*
%TO.P,U3,18,ISET*%
%TO.N,Net-(U3-ISET)*%
X174300801Y-56222563D03*
%TO.P,U3,19,V+*%
%TO.N,VCC*%
X176840801Y-56222563D03*
%TO.P,U3,20,SEG_C*%
%TO.N,Net-(D3-A)*%
X179380801Y-56222563D03*
%TO.P,U3,21,SEG_E*%
%TO.N,Net-(U1-E)*%
X181920801Y-56222563D03*
%TO.P,U3,22,SEG_DP*%
%TO.N,Net-(U1-dp)*%
X184460801Y-56222563D03*
%TO.P,U3,23,SEG_D*%
%TO.N,Net-(D4-A)*%
X187000801Y-56222563D03*
%TO.P,U3,24,DOUT*%
%TO.N,Net-(J2-Pin_8)*%
X189540801Y-56222563D03*
%TD*%
D21*
%TO.N,Net-(D1-A)*%
X146000000Y-51250000D03*
X197000000Y-51350000D03*
X164634620Y-51215380D03*
%TO.N,Net-(D1-K)*%
X134500000Y-66650000D03*
%TO.N,Net-(D2-A)*%
X149000000Y-51900000D03*
X169115235Y-52650000D03*
X200000000Y-52650000D03*
%TO.N,Net-(D3-A)*%
X178944157Y-53050000D03*
X142400500Y-52400500D03*
%TO.N,Net-(D4-A)*%
X188000000Y-53700999D03*
X141000000Y-53201000D03*
%TO.N,Net-(J2-Pin_7)*%
X208000000Y-61000000D03*
%TO.N,Net-(J2-Pin_5)*%
X125999999Y-64500002D03*
%TO.N,Net-(J2-Pin_6)*%
X121559173Y-54059173D03*
X161431123Y-53850000D03*
%TO.N,Net-(U1-F)*%
X154950377Y-51110503D03*
%TO.N,Net-(U1-E)*%
X182000000Y-60000000D03*
X194500000Y-59700000D03*
X159792258Y-59807333D03*
X157000000Y-65500000D03*
%TO.N,Net-(U1-dp)*%
X158500000Y-52000000D03*
X185500000Y-52000000D03*
%TO.N,Net-(U1-G)*%
X202000000Y-60000000D03*
X171500000Y-60351000D03*
X152500000Y-60500000D03*
%TO.N,VCC*%
X130500000Y-65500000D03*
X118500000Y-65500000D03*
X202500000Y-58000000D03*
%TO.N,Net-(U1-de2)*%
X137000000Y-60000000D03*
X167000000Y-66500000D03*
X183500000Y-67000000D03*
%TO.N,Net-(U1-de1)*%
X156500000Y-62500000D03*
%TD*%
D22*
%TO.N,Net-(D1-A)*%
X147460000Y-56190000D02*
X147460000Y-52710000D01*
X147460000Y-52710000D02*
X146000000Y-51250000D01*
X197339020Y-51689020D02*
X197000000Y-51350000D01*
X197339020Y-56498486D02*
X197339020Y-51689020D01*
X147460000Y-56190000D02*
X147460000Y-56040000D01*
X147460000Y-56040000D02*
X147500000Y-56000000D01*
X164140801Y-51709199D02*
X164634620Y-51215380D01*
X164140801Y-56222563D02*
X164140801Y-51709199D01*
%TO.N,Net-(D1-K)*%
X105500000Y-62200000D02*
X106425000Y-62200000D01*
X106425000Y-62200000D02*
X110875000Y-66650000D01*
X110875000Y-66650000D02*
X134500000Y-66650000D01*
%TO.N,Net-(D2-A)*%
X169220801Y-52755566D02*
X169115235Y-52650000D01*
X150000000Y-52900000D02*
X149000000Y-51900000D01*
X169220801Y-56222563D02*
X169220801Y-52755566D01*
X150000000Y-56190000D02*
X150000000Y-52900000D01*
X199879020Y-52770980D02*
X200000000Y-52650000D01*
X199879020Y-56498486D02*
X199879020Y-52770980D01*
%TO.N,Net-(D3-A)*%
X142400500Y-56210500D02*
X142400500Y-52400500D01*
X179380801Y-53486644D02*
X178944157Y-53050000D01*
X150000000Y-63810000D02*
X142400500Y-56210500D01*
X179380801Y-56222563D02*
X179380801Y-53486644D01*
%TO.N,Net-(D4-A)*%
X187000801Y-54700198D02*
X188000000Y-53700999D01*
X141000000Y-57350000D02*
X141000000Y-53201000D01*
X147460000Y-63810000D02*
X141000000Y-57350000D01*
X187000801Y-56222563D02*
X187000801Y-54700198D01*
%TO.N,Net-(J2-Pin_7)*%
X211500000Y-61000000D02*
X208000000Y-61000000D01*
X218500000Y-68000000D02*
X211500000Y-61000000D01*
%TO.N,Net-(J2-Pin_9)*%
X69000000Y-50601000D02*
X114000000Y-50601000D01*
X116479173Y-61205879D02*
X116794121Y-61205879D01*
X117000000Y-61000000D02*
X114000000Y-58000000D01*
X68380000Y-51221000D02*
X69000000Y-50601000D01*
X68380000Y-52500000D02*
X68380000Y-51221000D01*
X114000000Y-58000000D02*
X114000000Y-50601000D01*
X68380000Y-57630000D02*
X68500000Y-57750000D01*
X116794121Y-61205879D02*
X117000000Y-61000000D01*
X68380000Y-52500000D02*
X68380000Y-57630000D01*
%TO.N,GND*%
X222700000Y-68000000D02*
X221301000Y-69399000D01*
X182000000Y-69399000D02*
X181500000Y-69399000D01*
X169220801Y-63842563D02*
X172700000Y-67321762D01*
X172700000Y-67321762D02*
X172700000Y-68000000D01*
X181920801Y-63842563D02*
X181920801Y-69319801D01*
X221301000Y-69399000D02*
X182000000Y-69399000D01*
X121474000Y-69226000D02*
X79226000Y-69226000D01*
X174099000Y-69399000D02*
X172700000Y-68000000D01*
X181920801Y-69319801D02*
X182000000Y-69399000D01*
X122700000Y-68000000D02*
X121474000Y-69226000D01*
X76000000Y-66000000D02*
X76000000Y-52500000D01*
X79226000Y-69226000D02*
X76000000Y-66000000D01*
X171301000Y-69399000D02*
X124099000Y-69399000D01*
X124099000Y-69399000D02*
X122700000Y-68000000D01*
X181500000Y-69399000D02*
X174099000Y-69399000D01*
X172700000Y-68000000D02*
X171301000Y-69399000D01*
%TO.N,Net-(J2-Pin_4)*%
X159343364Y-66100000D02*
X156680761Y-66100000D01*
X156680761Y-66100000D02*
X156580761Y-66000000D01*
X126765052Y-56000000D02*
X124099173Y-58665879D01*
X156580761Y-66000000D02*
X144500000Y-66000000D01*
X144500000Y-66000000D02*
X134500000Y-56000000D01*
X161600801Y-63842563D02*
X159343364Y-66100000D01*
X134500000Y-56000000D02*
X126765052Y-56000000D01*
%TO.N,Net-(J2-Pin_5)*%
X121559173Y-61205879D02*
X124853296Y-64500002D01*
X124853296Y-64500002D02*
X125999999Y-64500002D01*
%TO.N,Net-(J2-Pin_6)*%
X161600801Y-54019678D02*
X161431123Y-53850000D01*
X161600801Y-56222563D02*
X161600801Y-54019678D01*
X121559173Y-58665879D02*
X121559173Y-54059173D01*
X121500000Y-54000000D02*
X121559173Y-54059173D01*
%TO.N,Net-(U1-F)*%
X155013413Y-51110503D02*
X154950377Y-51110503D01*
X155080000Y-51043916D02*
X155013413Y-51110503D01*
X155080000Y-56190000D02*
X155080000Y-50681000D01*
X155000000Y-56000000D02*
X155080000Y-56080000D01*
X155080000Y-50681000D02*
X155000000Y-50601000D01*
X155080000Y-56190000D02*
X155080000Y-56080000D01*
X155080000Y-50681000D02*
X155080000Y-51043916D01*
%TO.N,Net-(U1-E)*%
X159000000Y-60599591D02*
X159000000Y-64350000D01*
X194500000Y-60000000D02*
X194500000Y-59700000D01*
X194799020Y-60299020D02*
X194500000Y-60000000D01*
X157850000Y-65500000D02*
X157000000Y-65500000D01*
X181920801Y-59920801D02*
X182000000Y-60000000D01*
X159792258Y-59807333D02*
X159000000Y-60599591D01*
X194799020Y-64118486D02*
X194799020Y-60299020D01*
X159000000Y-64350000D02*
X157850000Y-65500000D01*
X181920801Y-56222563D02*
X181920801Y-59920801D01*
%TO.N,Net-(U1-dp)*%
X184460801Y-56222563D02*
X184460801Y-53039199D01*
X184460801Y-53039199D02*
X185500000Y-52000000D01*
X157500000Y-63500000D02*
X157500000Y-53000000D01*
X157500000Y-53000000D02*
X158500000Y-52000000D01*
X157190000Y-63810000D02*
X157500000Y-63500000D01*
X155080000Y-63810000D02*
X157190000Y-63810000D01*
%TO.N,Net-(U1-G)*%
X202000000Y-60000000D02*
X202419020Y-60419020D01*
X152540000Y-63810000D02*
X152540000Y-60540000D01*
X202419020Y-60419020D02*
X202419020Y-64118486D01*
X171760801Y-56222563D02*
X171760801Y-60090199D01*
X171760801Y-60090199D02*
X171500000Y-60351000D01*
X152540000Y-60540000D02*
X152500000Y-60500000D01*
%TO.N,VCC*%
X118500000Y-65500000D02*
X130500000Y-65500000D01*
X212500000Y-68000000D02*
X202500000Y-58000000D01*
X212500000Y-68000000D02*
X214300000Y-68000000D01*
%TO.N,Net-(U3-ISET)*%
X174300801Y-56222563D02*
X174300801Y-52800199D01*
X174300801Y-52800199D02*
X176500000Y-50601000D01*
X176500000Y-50601000D02*
X213481000Y-50601000D01*
X213481000Y-50601000D02*
X214880000Y-52000000D01*
%TO.N,Net-(U3-DIG_1)*%
X187434314Y-61000000D02*
X166983364Y-61000000D01*
X194799020Y-56498486D02*
X191935828Y-56498486D01*
X166983364Y-61000000D02*
X164140801Y-63842563D01*
X191935828Y-56498486D02*
X187434314Y-61000000D01*
%TO.N,Net-(U1-de2)*%
X143000000Y-66500000D02*
X137000000Y-60500000D01*
X137000000Y-60500000D02*
X137000000Y-60000000D01*
X152540000Y-56190000D02*
X152540000Y-56040000D01*
X184460801Y-63842563D02*
X184460801Y-66039199D01*
X184460801Y-66039199D02*
X183500000Y-67000000D01*
X152540000Y-56040000D02*
X152500000Y-56000000D01*
X167000000Y-66500000D02*
X143000000Y-66500000D01*
%TO.N,Net-(U3-DIG_2)*%
X176840801Y-62659199D02*
X176840801Y-63842563D01*
X191400514Y-57599486D02*
X187500000Y-61500000D01*
X202419020Y-56498486D02*
X201318020Y-57599486D01*
X201318020Y-57599486D02*
X191400514Y-57599486D01*
X187500000Y-61500000D02*
X178000000Y-61500000D01*
X178000000Y-61500000D02*
X176840801Y-62659199D01*
%TO.N,Net-(U1-de1)*%
X147000000Y-59500000D02*
X147000000Y-58270000D01*
X156500000Y-62500000D02*
X153500000Y-59500000D01*
X153500000Y-59500000D02*
X147000000Y-59500000D01*
X147000000Y-58270000D02*
X144920000Y-56190000D01*
%TD*%
M02*
