M48
; DRILL file {KiCad 9.0.3} date 2025-08-16T11:04:04+0200
; FORMAT={-:-/ absolute / metric / decimal}
; #@! TF.CreationDate,2025-08-16T11:04:04+02:00
; #@! TF.GenerationSoftware,Kicad,Pcbnew,9.0.3
; #@! TF.FileFunction,Plated,1,2,PTH
FMAT,2
METRIC
; #@! TA.AperFunction,Plated,PTH,ViaDrill
T1C0.300
; #@! TA.AperFunction,Plated,PTH,ComponentDrill
T2C0.700
; #@! TA.AperFunction,Plated,PTH,ComponentDrill
T3C0.800
; #@! TA.AperFunction,Plated,PTH,ComponentDrill
T4C0.850
; #@! TA.AperFunction,Plated,PTH,ComponentDrill
T5C1.000
%
G90
G05
T1
X118.5Y-65.5
X121.559Y-54.059
X126.0Y-64.5
X130.5Y-65.5
X134.5Y-66.65
X137.0Y-60.0
X141.0Y-53.201
X142.4Y-52.401
X146.0Y-51.25
X149.0Y-51.9
X152.5Y-60.5
X154.95Y-51.111
X156.5Y-62.5
X157.0Y-65.5
X158.5Y-52.0
X159.792Y-59.807
X161.431Y-53.85
X164.635Y-51.215
X167.0Y-66.5
X169.115Y-52.65
X171.5Y-60.351
X178.944Y-53.05
X182.0Y-60.0
X183.5Y-67.0
X185.5Y-52.0
X188.0Y-53.701
X194.5Y-59.7
X197.0Y-51.35
X200.0Y-52.65
X202.0Y-60.0
X202.5Y-58.0
X208.0Y-61.0
T2
X68.38Y-52.5
X76.0Y-52.5
X214.88Y-52.0
X222.5Y-52.0
T3
X144.92Y-56.19
X144.92Y-63.81
X147.46Y-56.19
X147.46Y-63.81
X150.0Y-56.19
X150.0Y-63.81
X152.54Y-56.19
X152.54Y-63.81
X155.08Y-56.19
X155.08Y-63.81
X161.601Y-56.223
X161.601Y-63.843
X164.141Y-56.223
X164.141Y-63.843
X166.681Y-56.223
X166.681Y-63.843
X169.221Y-56.223
X169.221Y-63.843
X171.761Y-56.223
X171.761Y-63.843
X174.301Y-56.223
X174.301Y-63.843
X176.841Y-56.223
X176.841Y-63.843
X179.381Y-56.223
X179.381Y-63.843
X181.921Y-56.223
X181.921Y-63.843
X184.461Y-56.223
X184.461Y-63.843
X187.001Y-56.223
X187.001Y-63.843
X189.541Y-56.223
X189.541Y-63.843
X194.799Y-56.498
X194.799Y-64.118
X197.339Y-56.498
X197.339Y-64.118
X199.879Y-56.498
X199.879Y-64.118
X202.419Y-56.498
X202.419Y-64.118
X204.959Y-56.498
X204.959Y-64.118
T4
X68.5Y-57.75
X68.5Y-62.25
X72.5Y-57.9
X72.5Y-62.1
X83.5Y-58.0
X83.5Y-62.2
X94.5Y-58.0
X94.5Y-62.2
X105.5Y-58.0
X105.5Y-62.2
X114.3Y-68.0
X118.5Y-68.0
X122.7Y-68.0
X164.3Y-68.0
X168.5Y-68.0
X172.7Y-68.0
X214.3Y-68.0
X218.5Y-68.0
X222.7Y-68.0
T5
X116.479Y-58.666
X116.479Y-61.206
X119.019Y-58.666
X119.019Y-61.206
X121.559Y-58.666
X121.559Y-61.206
X124.099Y-58.666
X124.099Y-61.206
X126.639Y-58.666
X126.639Y-61.206
M30
