%TF.GenerationSoftware,KiCad,Pcbnew,9.0.3*%
%TF.CreationDate,2025-07-28T16:49:36+02:00*%
%TF.ProjectId,bus board,62757320-626f-4617-9264-2e6b69636164,rev?*%
%TF.SameCoordinates,Original*%
%TF.FileFunction,Legend,Bot*%
%TF.FilePolarity,Positive*%
%FSLAX46Y46*%
G04 Gerber Fmt 4.6, Leading zero omitted, Abs format (unit mm)*
G04 Created by KiCad (PCBNEW 9.0.3) date 2025-07-28 16:49:36*
%MOMM*%
%LPD*%
G01*
G04 APERTURE LIST*
%ADD10C,0.200000*%
%ADD11C,0.100000*%
G04 APERTURE END LIST*
D10*
G36*
X65911278Y-69791028D02*
G01*
X65653933Y-69791028D01*
X65594323Y-69761223D01*
X65569655Y-69736554D01*
X65539850Y-69676944D01*
X65539850Y-69581302D01*
X65569655Y-69521692D01*
X65594323Y-69497023D01*
X65653933Y-69467219D01*
X65911278Y-69467219D01*
X65911278Y-69791028D01*
G37*
G36*
X69396346Y-69981504D02*
G01*
X69197641Y-69981504D01*
X69296993Y-69683446D01*
X69396346Y-69981504D01*
G37*
G36*
X70841437Y-70578330D02*
G01*
X65228739Y-70578330D01*
X65228739Y-69557695D01*
X65339850Y-69557695D01*
X65339850Y-69700552D01*
X65341771Y-69720061D01*
X65343146Y-69723381D01*
X65343401Y-69726965D01*
X65350407Y-69745273D01*
X65398026Y-69840511D01*
X65403311Y-69848907D01*
X65404322Y-69851347D01*
X65406575Y-69854093D01*
X65408469Y-69857101D01*
X65410463Y-69858830D01*
X65416758Y-69866501D01*
X65464377Y-69914119D01*
X65472043Y-69920411D01*
X65473776Y-69922409D01*
X65476784Y-69924302D01*
X65479530Y-69926556D01*
X65481970Y-69927566D01*
X65490367Y-69932852D01*
X65585604Y-69980471D01*
X65587894Y-69981347D01*
X65357927Y-70309873D01*
X65348313Y-70326957D01*
X65339873Y-70365051D01*
X65346654Y-70403476D01*
X65367623Y-70436381D01*
X65399588Y-70458756D01*
X65437682Y-70467196D01*
X65476107Y-70460415D01*
X65509012Y-70439446D01*
X65521773Y-70424565D01*
X65825248Y-69991028D01*
X65911278Y-69991028D01*
X65911278Y-70367219D01*
X65913199Y-70386728D01*
X65928131Y-70422776D01*
X65955721Y-70450366D01*
X65991769Y-70465298D01*
X66030787Y-70465298D01*
X66066835Y-70450366D01*
X66094425Y-70422776D01*
X66109357Y-70386728D01*
X66111278Y-70367219D01*
X66111278Y-69367219D01*
X66109357Y-69347710D01*
X66341771Y-69347710D01*
X66341771Y-69386728D01*
X66356703Y-69422776D01*
X66384293Y-69450366D01*
X66420341Y-69465298D01*
X66439850Y-69467219D01*
X66816040Y-69467219D01*
X66816040Y-69743409D01*
X66582707Y-69743409D01*
X66563198Y-69745330D01*
X66527150Y-69760262D01*
X66499560Y-69787852D01*
X66484628Y-69823900D01*
X66484628Y-69862918D01*
X66499560Y-69898966D01*
X66527150Y-69926556D01*
X66563198Y-69941488D01*
X66582707Y-69943409D01*
X66816040Y-69943409D01*
X66816040Y-70267219D01*
X66439850Y-70267219D01*
X66420341Y-70269140D01*
X66384293Y-70284072D01*
X66356703Y-70311662D01*
X66341771Y-70347710D01*
X66341771Y-70386728D01*
X66356703Y-70422776D01*
X66384293Y-70450366D01*
X66420341Y-70465298D01*
X66439850Y-70467219D01*
X66916040Y-70467219D01*
X66935549Y-70465298D01*
X66971597Y-70450366D01*
X66999187Y-70422776D01*
X67014119Y-70386728D01*
X67016040Y-70367219D01*
X67016040Y-69367219D01*
X67014119Y-69347710D01*
X67151295Y-69347710D01*
X67151295Y-69386728D01*
X67166227Y-69422776D01*
X67193817Y-69450366D01*
X67229865Y-69465298D01*
X67249374Y-69467219D01*
X67435088Y-69467219D01*
X67435088Y-70367219D01*
X67437009Y-70386728D01*
X67451941Y-70422776D01*
X67479531Y-70450366D01*
X67515579Y-70465298D01*
X67554597Y-70465298D01*
X67590645Y-70450366D01*
X67618235Y-70422776D01*
X67633167Y-70386728D01*
X67635088Y-70367219D01*
X67635088Y-70081504D01*
X68006517Y-70081504D01*
X68006517Y-70176742D01*
X68008438Y-70196251D01*
X68009813Y-70199571D01*
X68010068Y-70203155D01*
X68017074Y-70221463D01*
X68064693Y-70316701D01*
X68069976Y-70325093D01*
X68070988Y-70327537D01*
X68073244Y-70330286D01*
X68075136Y-70333291D01*
X68077130Y-70335020D01*
X68083425Y-70342690D01*
X68131043Y-70390310D01*
X68138711Y-70396603D01*
X68140443Y-70398600D01*
X68143451Y-70400493D01*
X68146197Y-70402747D01*
X68148637Y-70403757D01*
X68157034Y-70409043D01*
X68252271Y-70456662D01*
X68270580Y-70463668D01*
X68274163Y-70463922D01*
X68277484Y-70465298D01*
X68296993Y-70467219D01*
X68535088Y-70467219D01*
X68544961Y-70466246D01*
X68547595Y-70466434D01*
X68551058Y-70465646D01*
X68554597Y-70465298D01*
X68557039Y-70464286D01*
X68566711Y-70462087D01*
X68709567Y-70414468D01*
X68727468Y-70406477D01*
X68756944Y-70380912D01*
X68770044Y-70354712D01*
X68864445Y-70354712D01*
X68867211Y-70393632D01*
X68884661Y-70428531D01*
X68914137Y-70454096D01*
X68951153Y-70466434D01*
X68990073Y-70463668D01*
X69024972Y-70446218D01*
X69050537Y-70416742D01*
X69058528Y-70398842D01*
X69130974Y-70181504D01*
X69463012Y-70181504D01*
X69535458Y-70398841D01*
X69543449Y-70416742D01*
X69569014Y-70446218D01*
X69603913Y-70463667D01*
X69642833Y-70466434D01*
X69679849Y-70454095D01*
X69709325Y-70428530D01*
X69726775Y-70393631D01*
X69729541Y-70354711D01*
X69725194Y-70335596D01*
X69402402Y-69367219D01*
X69863660Y-69367219D01*
X69863660Y-70367219D01*
X69865581Y-70386728D01*
X69880513Y-70422776D01*
X69908103Y-70450366D01*
X69944151Y-70465298D01*
X69983169Y-70465298D01*
X70019217Y-70450366D01*
X70046807Y-70422776D01*
X70061739Y-70386728D01*
X70063660Y-70367219D01*
X70063660Y-69817975D01*
X70206375Y-70123793D01*
X70210607Y-70130938D01*
X70211487Y-70133356D01*
X70213052Y-70135065D01*
X70216366Y-70140659D01*
X70227576Y-70150925D01*
X70237838Y-70162131D01*
X70241863Y-70164009D01*
X70245141Y-70167011D01*
X70259423Y-70172204D01*
X70273196Y-70178632D01*
X70277635Y-70178827D01*
X70281810Y-70180345D01*
X70296993Y-70179677D01*
X70312176Y-70180345D01*
X70316349Y-70178827D01*
X70320791Y-70178632D01*
X70334575Y-70172199D01*
X70348845Y-70167010D01*
X70352118Y-70164012D01*
X70356148Y-70162132D01*
X70366417Y-70150917D01*
X70377620Y-70140659D01*
X70380931Y-70135068D01*
X70382500Y-70133356D01*
X70383380Y-70130934D01*
X70387611Y-70123793D01*
X70530326Y-69817974D01*
X70530326Y-70367219D01*
X70532247Y-70386728D01*
X70547179Y-70422776D01*
X70574769Y-70450366D01*
X70610817Y-70465298D01*
X70649835Y-70465298D01*
X70685883Y-70450366D01*
X70713473Y-70422776D01*
X70728405Y-70386728D01*
X70730326Y-70367219D01*
X70730326Y-69367219D01*
X70729063Y-69354395D01*
X70729167Y-69352036D01*
X70728706Y-69350768D01*
X70728405Y-69347710D01*
X70721764Y-69331679D01*
X70715833Y-69315367D01*
X70714326Y-69313721D01*
X70713473Y-69311662D01*
X70701211Y-69299400D01*
X70689481Y-69286591D01*
X70687457Y-69285646D01*
X70685883Y-69284072D01*
X70669867Y-69277437D01*
X70654124Y-69270091D01*
X70651894Y-69269993D01*
X70649835Y-69269140D01*
X70632483Y-69269140D01*
X70615143Y-69268378D01*
X70613047Y-69269140D01*
X70610817Y-69269140D01*
X70594786Y-69275780D01*
X70578474Y-69281712D01*
X70576828Y-69283218D01*
X70574769Y-69284072D01*
X70562501Y-69296339D01*
X70549699Y-69308064D01*
X70548132Y-69310708D01*
X70547179Y-69311662D01*
X70546275Y-69313843D01*
X70539708Y-69324930D01*
X70296992Y-69845033D01*
X70054278Y-69324930D01*
X70047710Y-69313843D01*
X70046807Y-69311662D01*
X70045853Y-69310708D01*
X70044287Y-69308064D01*
X70031490Y-69296345D01*
X70019217Y-69284072D01*
X70017155Y-69283218D01*
X70015512Y-69281713D01*
X69999210Y-69275784D01*
X69983169Y-69269140D01*
X69980938Y-69269140D01*
X69978843Y-69268378D01*
X69961503Y-69269140D01*
X69944151Y-69269140D01*
X69942091Y-69269993D01*
X69939863Y-69270091D01*
X69924132Y-69277432D01*
X69908103Y-69284072D01*
X69906526Y-69285648D01*
X69904505Y-69286592D01*
X69892786Y-69299388D01*
X69880513Y-69311662D01*
X69879659Y-69313723D01*
X69878154Y-69315367D01*
X69872225Y-69331668D01*
X69865581Y-69347710D01*
X69865279Y-69350768D01*
X69864819Y-69352036D01*
X69864922Y-69354395D01*
X69863660Y-69367219D01*
X69402402Y-69367219D01*
X69391861Y-69335596D01*
X69383870Y-69317696D01*
X69379185Y-69312294D01*
X69375992Y-69305908D01*
X69366523Y-69297695D01*
X69358305Y-69288220D01*
X69351913Y-69285023D01*
X69346516Y-69280343D01*
X69334622Y-69276378D01*
X69323406Y-69270770D01*
X69316278Y-69270263D01*
X69309500Y-69268004D01*
X69296995Y-69268893D01*
X69284486Y-69268004D01*
X69277704Y-69270264D01*
X69270580Y-69270771D01*
X69259371Y-69276374D01*
X69247470Y-69280342D01*
X69242069Y-69285025D01*
X69235681Y-69288220D01*
X69227465Y-69297691D01*
X69217994Y-69305907D01*
X69214799Y-69312296D01*
X69210116Y-69317696D01*
X69202125Y-69335597D01*
X68868792Y-70335596D01*
X68864445Y-70354712D01*
X68770044Y-70354712D01*
X68774393Y-70346013D01*
X68777160Y-70307093D01*
X68764821Y-70270077D01*
X68739256Y-70240601D01*
X68704357Y-70223151D01*
X68665437Y-70220385D01*
X68646322Y-70224732D01*
X68518861Y-70267219D01*
X68320600Y-70267219D01*
X68260990Y-70237414D01*
X68236323Y-70212746D01*
X68206517Y-70153134D01*
X68206517Y-70105111D01*
X68236322Y-70045501D01*
X68260990Y-70020832D01*
X68331897Y-69985379D01*
X68511722Y-69940423D01*
X68513159Y-69939909D01*
X68513882Y-69939858D01*
X68522006Y-69936749D01*
X68530183Y-69933828D01*
X68530763Y-69933397D01*
X68532190Y-69932852D01*
X68627428Y-69885233D01*
X68635824Y-69879947D01*
X68638264Y-69878937D01*
X68641010Y-69876683D01*
X68644018Y-69874790D01*
X68645747Y-69872795D01*
X68653418Y-69866501D01*
X68701036Y-69818882D01*
X68707328Y-69811215D01*
X68709326Y-69809483D01*
X68711219Y-69806474D01*
X68713473Y-69803729D01*
X68714483Y-69801288D01*
X68719769Y-69792892D01*
X68767388Y-69697655D01*
X68774394Y-69679346D01*
X68774648Y-69675762D01*
X68776024Y-69672442D01*
X68777945Y-69652933D01*
X68777945Y-69557695D01*
X68776024Y-69538186D01*
X68774648Y-69534865D01*
X68774394Y-69531282D01*
X68767388Y-69512973D01*
X68719769Y-69417736D01*
X68714483Y-69409339D01*
X68713473Y-69406899D01*
X68711219Y-69404153D01*
X68709326Y-69401145D01*
X68707328Y-69399412D01*
X68701036Y-69391746D01*
X68653418Y-69344127D01*
X68645747Y-69337832D01*
X68644018Y-69335838D01*
X68641010Y-69333944D01*
X68638264Y-69331691D01*
X68635824Y-69330680D01*
X68627428Y-69325395D01*
X68532190Y-69277776D01*
X68513882Y-69270770D01*
X68510298Y-69270515D01*
X68506978Y-69269140D01*
X68487469Y-69267219D01*
X68249374Y-69267219D01*
X68239500Y-69268191D01*
X68236866Y-69268004D01*
X68233402Y-69268791D01*
X68229865Y-69269140D01*
X68227423Y-69270151D01*
X68217751Y-69272351D01*
X68074894Y-69319970D01*
X68056994Y-69327961D01*
X68027518Y-69353526D01*
X68010068Y-69388425D01*
X68007302Y-69427345D01*
X68019640Y-69464361D01*
X68045205Y-69493837D01*
X68080104Y-69511287D01*
X68119024Y-69514053D01*
X68138140Y-69509706D01*
X68265600Y-69467219D01*
X68463862Y-69467219D01*
X68523471Y-69497024D01*
X68548140Y-69521692D01*
X68577945Y-69581302D01*
X68577945Y-69629326D01*
X68548140Y-69688935D01*
X68523471Y-69713603D01*
X68452564Y-69749057D01*
X68272739Y-69794014D01*
X68271300Y-69794527D01*
X68270580Y-69794579D01*
X68262455Y-69797687D01*
X68254279Y-69800609D01*
X68253699Y-69801038D01*
X68252271Y-69801585D01*
X68157034Y-69849204D01*
X68148637Y-69854489D01*
X68146197Y-69855500D01*
X68143451Y-69857753D01*
X68140443Y-69859647D01*
X68138710Y-69861644D01*
X68131044Y-69867937D01*
X68083425Y-69915555D01*
X68077130Y-69923225D01*
X68075136Y-69924955D01*
X68073242Y-69927962D01*
X68070989Y-69930709D01*
X68069978Y-69933148D01*
X68064693Y-69941545D01*
X68017074Y-70036783D01*
X68010068Y-70055091D01*
X68009813Y-70058674D01*
X68008438Y-70061995D01*
X68006517Y-70081504D01*
X67635088Y-70081504D01*
X67635088Y-69467219D01*
X67820802Y-69467219D01*
X67840311Y-69465298D01*
X67876359Y-69450366D01*
X67903949Y-69422776D01*
X67918881Y-69386728D01*
X67918881Y-69347710D01*
X67903949Y-69311662D01*
X67876359Y-69284072D01*
X67840311Y-69269140D01*
X67820802Y-69267219D01*
X67249374Y-69267219D01*
X67229865Y-69269140D01*
X67193817Y-69284072D01*
X67166227Y-69311662D01*
X67151295Y-69347710D01*
X67014119Y-69347710D01*
X66999187Y-69311662D01*
X66971597Y-69284072D01*
X66935549Y-69269140D01*
X66916040Y-69267219D01*
X66439850Y-69267219D01*
X66420341Y-69269140D01*
X66384293Y-69284072D01*
X66356703Y-69311662D01*
X66341771Y-69347710D01*
X66109357Y-69347710D01*
X66094425Y-69311662D01*
X66066835Y-69284072D01*
X66030787Y-69269140D01*
X66011278Y-69267219D01*
X65630326Y-69267219D01*
X65610817Y-69269140D01*
X65607496Y-69270515D01*
X65603913Y-69270770D01*
X65585604Y-69277776D01*
X65490367Y-69325395D01*
X65481970Y-69330680D01*
X65479530Y-69331691D01*
X65476784Y-69333944D01*
X65473776Y-69335838D01*
X65472043Y-69337835D01*
X65464377Y-69344128D01*
X65416758Y-69391746D01*
X65410463Y-69399416D01*
X65408469Y-69401146D01*
X65406575Y-69404153D01*
X65404322Y-69406900D01*
X65403311Y-69409339D01*
X65398026Y-69417736D01*
X65350407Y-69512974D01*
X65343401Y-69531282D01*
X65343146Y-69534865D01*
X65341771Y-69538186D01*
X65339850Y-69557695D01*
X65228739Y-69557695D01*
X65228739Y-69156108D01*
X70841437Y-69156108D01*
X70841437Y-70578330D01*
G37*
D11*
X158059308Y-78731877D02*
X158059308Y-79198544D01*
X158059308Y-78798544D02*
X158025975Y-78765211D01*
X158025975Y-78765211D02*
X157959308Y-78731877D01*
X157959308Y-78731877D02*
X157859308Y-78731877D01*
X157859308Y-78731877D02*
X157792641Y-78765211D01*
X157792641Y-78765211D02*
X157759308Y-78831877D01*
X157759308Y-78831877D02*
X157759308Y-79198544D01*
X157125975Y-79165211D02*
X157192642Y-79198544D01*
X157192642Y-79198544D02*
X157325975Y-79198544D01*
X157325975Y-79198544D02*
X157392642Y-79165211D01*
X157392642Y-79165211D02*
X157425975Y-79131877D01*
X157425975Y-79131877D02*
X157459308Y-79065211D01*
X157459308Y-79065211D02*
X157459308Y-78865211D01*
X157459308Y-78865211D02*
X157425975Y-78798544D01*
X157425975Y-78798544D02*
X157392642Y-78765211D01*
X157392642Y-78765211D02*
X157325975Y-78731877D01*
X157325975Y-78731877D02*
X157192642Y-78731877D01*
X157192642Y-78731877D02*
X157125975Y-78765211D01*
X152767544Y-75442466D02*
X152767544Y-75909133D01*
X152767544Y-75509133D02*
X152734211Y-75475800D01*
X152734211Y-75475800D02*
X152667544Y-75442466D01*
X152667544Y-75442466D02*
X152567544Y-75442466D01*
X152567544Y-75442466D02*
X152500877Y-75475800D01*
X152500877Y-75475800D02*
X152467544Y-75542466D01*
X152467544Y-75542466D02*
X152467544Y-75909133D01*
X151834211Y-75875800D02*
X151900878Y-75909133D01*
X151900878Y-75909133D02*
X152034211Y-75909133D01*
X152034211Y-75909133D02*
X152100878Y-75875800D01*
X152100878Y-75875800D02*
X152134211Y-75842466D01*
X152134211Y-75842466D02*
X152167544Y-75775800D01*
X152167544Y-75775800D02*
X152167544Y-75575800D01*
X152167544Y-75575800D02*
X152134211Y-75509133D01*
X152134211Y-75509133D02*
X152100878Y-75475800D01*
X152100878Y-75475800D02*
X152034211Y-75442466D01*
X152034211Y-75442466D02*
X151900878Y-75442466D01*
X151900878Y-75442466D02*
X151834211Y-75475800D01*
X158018955Y-83816348D02*
X158018955Y-84283015D01*
X158018955Y-83883015D02*
X157985622Y-83849682D01*
X157985622Y-83849682D02*
X157918955Y-83816348D01*
X157918955Y-83816348D02*
X157818955Y-83816348D01*
X157818955Y-83816348D02*
X157752288Y-83849682D01*
X157752288Y-83849682D02*
X157718955Y-83916348D01*
X157718955Y-83916348D02*
X157718955Y-84283015D01*
X157085622Y-84249682D02*
X157152289Y-84283015D01*
X157152289Y-84283015D02*
X157285622Y-84283015D01*
X157285622Y-84283015D02*
X157352289Y-84249682D01*
X157352289Y-84249682D02*
X157385622Y-84216348D01*
X157385622Y-84216348D02*
X157418955Y-84149682D01*
X157418955Y-84149682D02*
X157418955Y-83949682D01*
X157418955Y-83949682D02*
X157385622Y-83883015D01*
X157385622Y-83883015D02*
X157352289Y-83849682D01*
X157352289Y-83849682D02*
X157285622Y-83816348D01*
X157285622Y-83816348D02*
X157152289Y-83816348D01*
X157152289Y-83816348D02*
X157085622Y-83849682D01*
X150276668Y-74347223D02*
X150676668Y-74347223D01*
X150476668Y-74347223D02*
X150476668Y-73647223D01*
X150476668Y-73647223D02*
X150543335Y-73747223D01*
X150543335Y-73747223D02*
X150610002Y-73813890D01*
X150610002Y-73813890D02*
X150676668Y-73847223D01*
X149676668Y-73647223D02*
X149810001Y-73647223D01*
X149810001Y-73647223D02*
X149876668Y-73680556D01*
X149876668Y-73680556D02*
X149910001Y-73713890D01*
X149910001Y-73713890D02*
X149976668Y-73813890D01*
X149976668Y-73813890D02*
X150010001Y-73947223D01*
X150010001Y-73947223D02*
X150010001Y-74213890D01*
X150010001Y-74213890D02*
X149976668Y-74280556D01*
X149976668Y-74280556D02*
X149943335Y-74313890D01*
X149943335Y-74313890D02*
X149876668Y-74347223D01*
X149876668Y-74347223D02*
X149743335Y-74347223D01*
X149743335Y-74347223D02*
X149676668Y-74313890D01*
X149676668Y-74313890D02*
X149643335Y-74280556D01*
X149643335Y-74280556D02*
X149610001Y-74213890D01*
X149610001Y-74213890D02*
X149610001Y-74047223D01*
X149610001Y-74047223D02*
X149643335Y-73980556D01*
X149643335Y-73980556D02*
X149676668Y-73947223D01*
X149676668Y-73947223D02*
X149743335Y-73913890D01*
X149743335Y-73913890D02*
X149876668Y-73913890D01*
X149876668Y-73913890D02*
X149943335Y-73947223D01*
X149943335Y-73947223D02*
X149976668Y-73980556D01*
X149976668Y-73980556D02*
X150010001Y-74047223D01*
X148976668Y-73647223D02*
X149310001Y-73647223D01*
X149310001Y-73647223D02*
X149343334Y-73980556D01*
X149343334Y-73980556D02*
X149310001Y-73947223D01*
X149310001Y-73947223D02*
X149243334Y-73913890D01*
X149243334Y-73913890D02*
X149076668Y-73913890D01*
X149076668Y-73913890D02*
X149010001Y-73947223D01*
X149010001Y-73947223D02*
X148976668Y-73980556D01*
X148976668Y-73980556D02*
X148943334Y-74047223D01*
X148943334Y-74047223D02*
X148943334Y-74213890D01*
X148943334Y-74213890D02*
X148976668Y-74280556D01*
X148976668Y-74280556D02*
X149010001Y-74313890D01*
X149010001Y-74313890D02*
X149076668Y-74347223D01*
X149076668Y-74347223D02*
X149243334Y-74347223D01*
X149243334Y-74347223D02*
X149310001Y-74313890D01*
X149310001Y-74313890D02*
X149343334Y-74280556D01*
X148143334Y-73613890D02*
X148743334Y-74513890D01*
X147943334Y-73713890D02*
X147910001Y-73680556D01*
X147910001Y-73680556D02*
X147843334Y-73647223D01*
X147843334Y-73647223D02*
X147676668Y-73647223D01*
X147676668Y-73647223D02*
X147610001Y-73680556D01*
X147610001Y-73680556D02*
X147576668Y-73713890D01*
X147576668Y-73713890D02*
X147543334Y-73780556D01*
X147543334Y-73780556D02*
X147543334Y-73847223D01*
X147543334Y-73847223D02*
X147576668Y-73947223D01*
X147576668Y-73947223D02*
X147976668Y-74347223D01*
X147976668Y-74347223D02*
X147543334Y-74347223D01*
X150886445Y-76876008D02*
X151286445Y-76876008D01*
X151086445Y-76876008D02*
X151086445Y-76176008D01*
X151086445Y-76176008D02*
X151153112Y-76276008D01*
X151153112Y-76276008D02*
X151219779Y-76342675D01*
X151219779Y-76342675D02*
X151286445Y-76376008D01*
X150286445Y-76176008D02*
X150419778Y-76176008D01*
X150419778Y-76176008D02*
X150486445Y-76209341D01*
X150486445Y-76209341D02*
X150519778Y-76242675D01*
X150519778Y-76242675D02*
X150586445Y-76342675D01*
X150586445Y-76342675D02*
X150619778Y-76476008D01*
X150619778Y-76476008D02*
X150619778Y-76742675D01*
X150619778Y-76742675D02*
X150586445Y-76809341D01*
X150586445Y-76809341D02*
X150553112Y-76842675D01*
X150553112Y-76842675D02*
X150486445Y-76876008D01*
X150486445Y-76876008D02*
X150353112Y-76876008D01*
X150353112Y-76876008D02*
X150286445Y-76842675D01*
X150286445Y-76842675D02*
X150253112Y-76809341D01*
X150253112Y-76809341D02*
X150219778Y-76742675D01*
X150219778Y-76742675D02*
X150219778Y-76576008D01*
X150219778Y-76576008D02*
X150253112Y-76509341D01*
X150253112Y-76509341D02*
X150286445Y-76476008D01*
X150286445Y-76476008D02*
X150353112Y-76442675D01*
X150353112Y-76442675D02*
X150486445Y-76442675D01*
X150486445Y-76442675D02*
X150553112Y-76476008D01*
X150553112Y-76476008D02*
X150586445Y-76509341D01*
X150586445Y-76509341D02*
X150619778Y-76576008D01*
X149586445Y-76176008D02*
X149919778Y-76176008D01*
X149919778Y-76176008D02*
X149953111Y-76509341D01*
X149953111Y-76509341D02*
X149919778Y-76476008D01*
X149919778Y-76476008D02*
X149853111Y-76442675D01*
X149853111Y-76442675D02*
X149686445Y-76442675D01*
X149686445Y-76442675D02*
X149619778Y-76476008D01*
X149619778Y-76476008D02*
X149586445Y-76509341D01*
X149586445Y-76509341D02*
X149553111Y-76576008D01*
X149553111Y-76576008D02*
X149553111Y-76742675D01*
X149553111Y-76742675D02*
X149586445Y-76809341D01*
X149586445Y-76809341D02*
X149619778Y-76842675D01*
X149619778Y-76842675D02*
X149686445Y-76876008D01*
X149686445Y-76876008D02*
X149853111Y-76876008D01*
X149853111Y-76876008D02*
X149919778Y-76842675D01*
X149919778Y-76842675D02*
X149953111Y-76809341D01*
X148753111Y-76142675D02*
X149353111Y-77042675D01*
X148153111Y-76876008D02*
X148553111Y-76876008D01*
X148353111Y-76876008D02*
X148353111Y-76176008D01*
X148353111Y-76176008D02*
X148419778Y-76276008D01*
X148419778Y-76276008D02*
X148486445Y-76342675D01*
X148486445Y-76342675D02*
X148553111Y-76376008D01*
X147719778Y-76176008D02*
X147653111Y-76176008D01*
X147653111Y-76176008D02*
X147586444Y-76209341D01*
X147586444Y-76209341D02*
X147553111Y-76242675D01*
X147553111Y-76242675D02*
X147519778Y-76309341D01*
X147519778Y-76309341D02*
X147486444Y-76442675D01*
X147486444Y-76442675D02*
X147486444Y-76609341D01*
X147486444Y-76609341D02*
X147519778Y-76742675D01*
X147519778Y-76742675D02*
X147553111Y-76809341D01*
X147553111Y-76809341D02*
X147586444Y-76842675D01*
X147586444Y-76842675D02*
X147653111Y-76876008D01*
X147653111Y-76876008D02*
X147719778Y-76876008D01*
X147719778Y-76876008D02*
X147786444Y-76842675D01*
X147786444Y-76842675D02*
X147819778Y-76809341D01*
X147819778Y-76809341D02*
X147853111Y-76742675D01*
X147853111Y-76742675D02*
X147886444Y-76609341D01*
X147886444Y-76609341D02*
X147886444Y-76442675D01*
X147886444Y-76442675D02*
X147853111Y-76309341D01*
X147853111Y-76309341D02*
X147819778Y-76242675D01*
X147819778Y-76242675D02*
X147786444Y-76209341D01*
X147786444Y-76209341D02*
X147719778Y-76176008D01*
X150238263Y-78740661D02*
X150571596Y-78740661D01*
X150571596Y-78740661D02*
X150604929Y-79073994D01*
X150604929Y-79073994D02*
X150571596Y-79040661D01*
X150571596Y-79040661D02*
X150504929Y-79007328D01*
X150504929Y-79007328D02*
X150338263Y-79007328D01*
X150338263Y-79007328D02*
X150271596Y-79040661D01*
X150271596Y-79040661D02*
X150238263Y-79073994D01*
X150238263Y-79073994D02*
X150204929Y-79140661D01*
X150204929Y-79140661D02*
X150204929Y-79307328D01*
X150204929Y-79307328D02*
X150238263Y-79373994D01*
X150238263Y-79373994D02*
X150271596Y-79407328D01*
X150271596Y-79407328D02*
X150338263Y-79440661D01*
X150338263Y-79440661D02*
X150504929Y-79440661D01*
X150504929Y-79440661D02*
X150571596Y-79407328D01*
X150571596Y-79407328D02*
X150604929Y-79373994D01*
X149871596Y-79440661D02*
X149738262Y-79440661D01*
X149738262Y-79440661D02*
X149671596Y-79407328D01*
X149671596Y-79407328D02*
X149638262Y-79373994D01*
X149638262Y-79373994D02*
X149571596Y-79273994D01*
X149571596Y-79273994D02*
X149538262Y-79140661D01*
X149538262Y-79140661D02*
X149538262Y-78873994D01*
X149538262Y-78873994D02*
X149571596Y-78807328D01*
X149571596Y-78807328D02*
X149604929Y-78773994D01*
X149604929Y-78773994D02*
X149671596Y-78740661D01*
X149671596Y-78740661D02*
X149804929Y-78740661D01*
X149804929Y-78740661D02*
X149871596Y-78773994D01*
X149871596Y-78773994D02*
X149904929Y-78807328D01*
X149904929Y-78807328D02*
X149938262Y-78873994D01*
X149938262Y-78873994D02*
X149938262Y-79040661D01*
X149938262Y-79040661D02*
X149904929Y-79107328D01*
X149904929Y-79107328D02*
X149871596Y-79140661D01*
X149871596Y-79140661D02*
X149804929Y-79173994D01*
X149804929Y-79173994D02*
X149671596Y-79173994D01*
X149671596Y-79173994D02*
X149604929Y-79140661D01*
X149604929Y-79140661D02*
X149571596Y-79107328D01*
X149571596Y-79107328D02*
X149538262Y-79040661D01*
X148904929Y-78740661D02*
X149238262Y-78740661D01*
X149238262Y-78740661D02*
X149271595Y-79073994D01*
X149271595Y-79073994D02*
X149238262Y-79040661D01*
X149238262Y-79040661D02*
X149171595Y-79007328D01*
X149171595Y-79007328D02*
X149004929Y-79007328D01*
X149004929Y-79007328D02*
X148938262Y-79040661D01*
X148938262Y-79040661D02*
X148904929Y-79073994D01*
X148904929Y-79073994D02*
X148871595Y-79140661D01*
X148871595Y-79140661D02*
X148871595Y-79307328D01*
X148871595Y-79307328D02*
X148904929Y-79373994D01*
X148904929Y-79373994D02*
X148938262Y-79407328D01*
X148938262Y-79407328D02*
X149004929Y-79440661D01*
X149004929Y-79440661D02*
X149171595Y-79440661D01*
X149171595Y-79440661D02*
X149238262Y-79407328D01*
X149238262Y-79407328D02*
X149271595Y-79373994D01*
X148071595Y-78707328D02*
X148671595Y-79607328D01*
X147804929Y-79440661D02*
X147671595Y-79440661D01*
X147671595Y-79440661D02*
X147604929Y-79407328D01*
X147604929Y-79407328D02*
X147571595Y-79373994D01*
X147571595Y-79373994D02*
X147504929Y-79273994D01*
X147504929Y-79273994D02*
X147471595Y-79140661D01*
X147471595Y-79140661D02*
X147471595Y-78873994D01*
X147471595Y-78873994D02*
X147504929Y-78807328D01*
X147504929Y-78807328D02*
X147538262Y-78773994D01*
X147538262Y-78773994D02*
X147604929Y-78740661D01*
X147604929Y-78740661D02*
X147738262Y-78740661D01*
X147738262Y-78740661D02*
X147804929Y-78773994D01*
X147804929Y-78773994D02*
X147838262Y-78807328D01*
X147838262Y-78807328D02*
X147871595Y-78873994D01*
X147871595Y-78873994D02*
X147871595Y-79040661D01*
X147871595Y-79040661D02*
X147838262Y-79107328D01*
X147838262Y-79107328D02*
X147804929Y-79140661D01*
X147804929Y-79140661D02*
X147738262Y-79173994D01*
X147738262Y-79173994D02*
X147604929Y-79173994D01*
X147604929Y-79173994D02*
X147538262Y-79140661D01*
X147538262Y-79140661D02*
X147504929Y-79107328D01*
X147504929Y-79107328D02*
X147471595Y-79040661D01*
X150865975Y-81161838D02*
X151199308Y-81161838D01*
X151199308Y-81161838D02*
X151232641Y-81495171D01*
X151232641Y-81495171D02*
X151199308Y-81461838D01*
X151199308Y-81461838D02*
X151132641Y-81428505D01*
X151132641Y-81428505D02*
X150965975Y-81428505D01*
X150965975Y-81428505D02*
X150899308Y-81461838D01*
X150899308Y-81461838D02*
X150865975Y-81495171D01*
X150865975Y-81495171D02*
X150832641Y-81561838D01*
X150832641Y-81561838D02*
X150832641Y-81728505D01*
X150832641Y-81728505D02*
X150865975Y-81795171D01*
X150865975Y-81795171D02*
X150899308Y-81828505D01*
X150899308Y-81828505D02*
X150965975Y-81861838D01*
X150965975Y-81861838D02*
X151132641Y-81861838D01*
X151132641Y-81861838D02*
X151199308Y-81828505D01*
X151199308Y-81828505D02*
X151232641Y-81795171D01*
X150499308Y-81861838D02*
X150365974Y-81861838D01*
X150365974Y-81861838D02*
X150299308Y-81828505D01*
X150299308Y-81828505D02*
X150265974Y-81795171D01*
X150265974Y-81795171D02*
X150199308Y-81695171D01*
X150199308Y-81695171D02*
X150165974Y-81561838D01*
X150165974Y-81561838D02*
X150165974Y-81295171D01*
X150165974Y-81295171D02*
X150199308Y-81228505D01*
X150199308Y-81228505D02*
X150232641Y-81195171D01*
X150232641Y-81195171D02*
X150299308Y-81161838D01*
X150299308Y-81161838D02*
X150432641Y-81161838D01*
X150432641Y-81161838D02*
X150499308Y-81195171D01*
X150499308Y-81195171D02*
X150532641Y-81228505D01*
X150532641Y-81228505D02*
X150565974Y-81295171D01*
X150565974Y-81295171D02*
X150565974Y-81461838D01*
X150565974Y-81461838D02*
X150532641Y-81528505D01*
X150532641Y-81528505D02*
X150499308Y-81561838D01*
X150499308Y-81561838D02*
X150432641Y-81595171D01*
X150432641Y-81595171D02*
X150299308Y-81595171D01*
X150299308Y-81595171D02*
X150232641Y-81561838D01*
X150232641Y-81561838D02*
X150199308Y-81528505D01*
X150199308Y-81528505D02*
X150165974Y-81461838D01*
X149532641Y-81161838D02*
X149865974Y-81161838D01*
X149865974Y-81161838D02*
X149899307Y-81495171D01*
X149899307Y-81495171D02*
X149865974Y-81461838D01*
X149865974Y-81461838D02*
X149799307Y-81428505D01*
X149799307Y-81428505D02*
X149632641Y-81428505D01*
X149632641Y-81428505D02*
X149565974Y-81461838D01*
X149565974Y-81461838D02*
X149532641Y-81495171D01*
X149532641Y-81495171D02*
X149499307Y-81561838D01*
X149499307Y-81561838D02*
X149499307Y-81728505D01*
X149499307Y-81728505D02*
X149532641Y-81795171D01*
X149532641Y-81795171D02*
X149565974Y-81828505D01*
X149565974Y-81828505D02*
X149632641Y-81861838D01*
X149632641Y-81861838D02*
X149799307Y-81861838D01*
X149799307Y-81861838D02*
X149865974Y-81828505D01*
X149865974Y-81828505D02*
X149899307Y-81795171D01*
X148699307Y-81128505D02*
X149299307Y-82028505D01*
X148099307Y-81861838D02*
X148499307Y-81861838D01*
X148299307Y-81861838D02*
X148299307Y-81161838D01*
X148299307Y-81161838D02*
X148365974Y-81261838D01*
X148365974Y-81261838D02*
X148432641Y-81328505D01*
X148432641Y-81328505D02*
X148499307Y-81361838D01*
X147832640Y-81228505D02*
X147799307Y-81195171D01*
X147799307Y-81195171D02*
X147732640Y-81161838D01*
X147732640Y-81161838D02*
X147565974Y-81161838D01*
X147565974Y-81161838D02*
X147499307Y-81195171D01*
X147499307Y-81195171D02*
X147465974Y-81228505D01*
X147465974Y-81228505D02*
X147432640Y-81295171D01*
X147432640Y-81295171D02*
X147432640Y-81361838D01*
X147432640Y-81361838D02*
X147465974Y-81461838D01*
X147465974Y-81461838D02*
X147865974Y-81861838D01*
X147865974Y-81861838D02*
X147432640Y-81861838D01*
X148437374Y-83888086D02*
X148437374Y-84354753D01*
X148437374Y-83954753D02*
X148404041Y-83921420D01*
X148404041Y-83921420D02*
X148337374Y-83888086D01*
X148337374Y-83888086D02*
X148237374Y-83888086D01*
X148237374Y-83888086D02*
X148170707Y-83921420D01*
X148170707Y-83921420D02*
X148137374Y-83988086D01*
X148137374Y-83988086D02*
X148137374Y-84354753D01*
X147504041Y-84321420D02*
X147570708Y-84354753D01*
X147570708Y-84354753D02*
X147704041Y-84354753D01*
X147704041Y-84354753D02*
X147770708Y-84321420D01*
X147770708Y-84321420D02*
X147804041Y-84288086D01*
X147804041Y-84288086D02*
X147837374Y-84221420D01*
X147837374Y-84221420D02*
X147837374Y-84021420D01*
X147837374Y-84021420D02*
X147804041Y-83954753D01*
X147804041Y-83954753D02*
X147770708Y-83921420D01*
X147770708Y-83921420D02*
X147704041Y-83888086D01*
X147704041Y-83888086D02*
X147570708Y-83888086D01*
X147570708Y-83888086D02*
X147504041Y-83921420D01*
X119931256Y-74266518D02*
X120331256Y-74266518D01*
X120131256Y-74266518D02*
X120131256Y-73566518D01*
X120131256Y-73566518D02*
X120197923Y-73666518D01*
X120197923Y-73666518D02*
X120264590Y-73733185D01*
X120264590Y-73733185D02*
X120331256Y-73766518D01*
X119331256Y-73566518D02*
X119464589Y-73566518D01*
X119464589Y-73566518D02*
X119531256Y-73599851D01*
X119531256Y-73599851D02*
X119564589Y-73633185D01*
X119564589Y-73633185D02*
X119631256Y-73733185D01*
X119631256Y-73733185D02*
X119664589Y-73866518D01*
X119664589Y-73866518D02*
X119664589Y-74133185D01*
X119664589Y-74133185D02*
X119631256Y-74199851D01*
X119631256Y-74199851D02*
X119597923Y-74233185D01*
X119597923Y-74233185D02*
X119531256Y-74266518D01*
X119531256Y-74266518D02*
X119397923Y-74266518D01*
X119397923Y-74266518D02*
X119331256Y-74233185D01*
X119331256Y-74233185D02*
X119297923Y-74199851D01*
X119297923Y-74199851D02*
X119264589Y-74133185D01*
X119264589Y-74133185D02*
X119264589Y-73966518D01*
X119264589Y-73966518D02*
X119297923Y-73899851D01*
X119297923Y-73899851D02*
X119331256Y-73866518D01*
X119331256Y-73866518D02*
X119397923Y-73833185D01*
X119397923Y-73833185D02*
X119531256Y-73833185D01*
X119531256Y-73833185D02*
X119597923Y-73866518D01*
X119597923Y-73866518D02*
X119631256Y-73899851D01*
X119631256Y-73899851D02*
X119664589Y-73966518D01*
X118631256Y-73566518D02*
X118964589Y-73566518D01*
X118964589Y-73566518D02*
X118997922Y-73899851D01*
X118997922Y-73899851D02*
X118964589Y-73866518D01*
X118964589Y-73866518D02*
X118897922Y-73833185D01*
X118897922Y-73833185D02*
X118731256Y-73833185D01*
X118731256Y-73833185D02*
X118664589Y-73866518D01*
X118664589Y-73866518D02*
X118631256Y-73899851D01*
X118631256Y-73899851D02*
X118597922Y-73966518D01*
X118597922Y-73966518D02*
X118597922Y-74133185D01*
X118597922Y-74133185D02*
X118631256Y-74199851D01*
X118631256Y-74199851D02*
X118664589Y-74233185D01*
X118664589Y-74233185D02*
X118731256Y-74266518D01*
X118731256Y-74266518D02*
X118897922Y-74266518D01*
X118897922Y-74266518D02*
X118964589Y-74233185D01*
X118964589Y-74233185D02*
X118997922Y-74199851D01*
X117797922Y-73533185D02*
X118397922Y-74433185D01*
X117597922Y-73633185D02*
X117564589Y-73599851D01*
X117564589Y-73599851D02*
X117497922Y-73566518D01*
X117497922Y-73566518D02*
X117331256Y-73566518D01*
X117331256Y-73566518D02*
X117264589Y-73599851D01*
X117264589Y-73599851D02*
X117231256Y-73633185D01*
X117231256Y-73633185D02*
X117197922Y-73699851D01*
X117197922Y-73699851D02*
X117197922Y-73766518D01*
X117197922Y-73766518D02*
X117231256Y-73866518D01*
X117231256Y-73866518D02*
X117631256Y-74266518D01*
X117631256Y-74266518D02*
X117197922Y-74266518D01*
X120541033Y-76795303D02*
X120941033Y-76795303D01*
X120741033Y-76795303D02*
X120741033Y-76095303D01*
X120741033Y-76095303D02*
X120807700Y-76195303D01*
X120807700Y-76195303D02*
X120874367Y-76261970D01*
X120874367Y-76261970D02*
X120941033Y-76295303D01*
X119941033Y-76095303D02*
X120074366Y-76095303D01*
X120074366Y-76095303D02*
X120141033Y-76128636D01*
X120141033Y-76128636D02*
X120174366Y-76161970D01*
X120174366Y-76161970D02*
X120241033Y-76261970D01*
X120241033Y-76261970D02*
X120274366Y-76395303D01*
X120274366Y-76395303D02*
X120274366Y-76661970D01*
X120274366Y-76661970D02*
X120241033Y-76728636D01*
X120241033Y-76728636D02*
X120207700Y-76761970D01*
X120207700Y-76761970D02*
X120141033Y-76795303D01*
X120141033Y-76795303D02*
X120007700Y-76795303D01*
X120007700Y-76795303D02*
X119941033Y-76761970D01*
X119941033Y-76761970D02*
X119907700Y-76728636D01*
X119907700Y-76728636D02*
X119874366Y-76661970D01*
X119874366Y-76661970D02*
X119874366Y-76495303D01*
X119874366Y-76495303D02*
X119907700Y-76428636D01*
X119907700Y-76428636D02*
X119941033Y-76395303D01*
X119941033Y-76395303D02*
X120007700Y-76361970D01*
X120007700Y-76361970D02*
X120141033Y-76361970D01*
X120141033Y-76361970D02*
X120207700Y-76395303D01*
X120207700Y-76395303D02*
X120241033Y-76428636D01*
X120241033Y-76428636D02*
X120274366Y-76495303D01*
X119241033Y-76095303D02*
X119574366Y-76095303D01*
X119574366Y-76095303D02*
X119607699Y-76428636D01*
X119607699Y-76428636D02*
X119574366Y-76395303D01*
X119574366Y-76395303D02*
X119507699Y-76361970D01*
X119507699Y-76361970D02*
X119341033Y-76361970D01*
X119341033Y-76361970D02*
X119274366Y-76395303D01*
X119274366Y-76395303D02*
X119241033Y-76428636D01*
X119241033Y-76428636D02*
X119207699Y-76495303D01*
X119207699Y-76495303D02*
X119207699Y-76661970D01*
X119207699Y-76661970D02*
X119241033Y-76728636D01*
X119241033Y-76728636D02*
X119274366Y-76761970D01*
X119274366Y-76761970D02*
X119341033Y-76795303D01*
X119341033Y-76795303D02*
X119507699Y-76795303D01*
X119507699Y-76795303D02*
X119574366Y-76761970D01*
X119574366Y-76761970D02*
X119607699Y-76728636D01*
X118407699Y-76061970D02*
X119007699Y-76961970D01*
X117807699Y-76795303D02*
X118207699Y-76795303D01*
X118007699Y-76795303D02*
X118007699Y-76095303D01*
X118007699Y-76095303D02*
X118074366Y-76195303D01*
X118074366Y-76195303D02*
X118141033Y-76261970D01*
X118141033Y-76261970D02*
X118207699Y-76295303D01*
X117374366Y-76095303D02*
X117307699Y-76095303D01*
X117307699Y-76095303D02*
X117241032Y-76128636D01*
X117241032Y-76128636D02*
X117207699Y-76161970D01*
X117207699Y-76161970D02*
X117174366Y-76228636D01*
X117174366Y-76228636D02*
X117141032Y-76361970D01*
X117141032Y-76361970D02*
X117141032Y-76528636D01*
X117141032Y-76528636D02*
X117174366Y-76661970D01*
X117174366Y-76661970D02*
X117207699Y-76728636D01*
X117207699Y-76728636D02*
X117241032Y-76761970D01*
X117241032Y-76761970D02*
X117307699Y-76795303D01*
X117307699Y-76795303D02*
X117374366Y-76795303D01*
X117374366Y-76795303D02*
X117441032Y-76761970D01*
X117441032Y-76761970D02*
X117474366Y-76728636D01*
X117474366Y-76728636D02*
X117507699Y-76661970D01*
X117507699Y-76661970D02*
X117541032Y-76528636D01*
X117541032Y-76528636D02*
X117541032Y-76361970D01*
X117541032Y-76361970D02*
X117507699Y-76228636D01*
X117507699Y-76228636D02*
X117474366Y-76161970D01*
X117474366Y-76161970D02*
X117441032Y-76128636D01*
X117441032Y-76128636D02*
X117374366Y-76095303D01*
X119892851Y-78659956D02*
X120226184Y-78659956D01*
X120226184Y-78659956D02*
X120259517Y-78993289D01*
X120259517Y-78993289D02*
X120226184Y-78959956D01*
X120226184Y-78959956D02*
X120159517Y-78926623D01*
X120159517Y-78926623D02*
X119992851Y-78926623D01*
X119992851Y-78926623D02*
X119926184Y-78959956D01*
X119926184Y-78959956D02*
X119892851Y-78993289D01*
X119892851Y-78993289D02*
X119859517Y-79059956D01*
X119859517Y-79059956D02*
X119859517Y-79226623D01*
X119859517Y-79226623D02*
X119892851Y-79293289D01*
X119892851Y-79293289D02*
X119926184Y-79326623D01*
X119926184Y-79326623D02*
X119992851Y-79359956D01*
X119992851Y-79359956D02*
X120159517Y-79359956D01*
X120159517Y-79359956D02*
X120226184Y-79326623D01*
X120226184Y-79326623D02*
X120259517Y-79293289D01*
X119526184Y-79359956D02*
X119392850Y-79359956D01*
X119392850Y-79359956D02*
X119326184Y-79326623D01*
X119326184Y-79326623D02*
X119292850Y-79293289D01*
X119292850Y-79293289D02*
X119226184Y-79193289D01*
X119226184Y-79193289D02*
X119192850Y-79059956D01*
X119192850Y-79059956D02*
X119192850Y-78793289D01*
X119192850Y-78793289D02*
X119226184Y-78726623D01*
X119226184Y-78726623D02*
X119259517Y-78693289D01*
X119259517Y-78693289D02*
X119326184Y-78659956D01*
X119326184Y-78659956D02*
X119459517Y-78659956D01*
X119459517Y-78659956D02*
X119526184Y-78693289D01*
X119526184Y-78693289D02*
X119559517Y-78726623D01*
X119559517Y-78726623D02*
X119592850Y-78793289D01*
X119592850Y-78793289D02*
X119592850Y-78959956D01*
X119592850Y-78959956D02*
X119559517Y-79026623D01*
X119559517Y-79026623D02*
X119526184Y-79059956D01*
X119526184Y-79059956D02*
X119459517Y-79093289D01*
X119459517Y-79093289D02*
X119326184Y-79093289D01*
X119326184Y-79093289D02*
X119259517Y-79059956D01*
X119259517Y-79059956D02*
X119226184Y-79026623D01*
X119226184Y-79026623D02*
X119192850Y-78959956D01*
X118559517Y-78659956D02*
X118892850Y-78659956D01*
X118892850Y-78659956D02*
X118926183Y-78993289D01*
X118926183Y-78993289D02*
X118892850Y-78959956D01*
X118892850Y-78959956D02*
X118826183Y-78926623D01*
X118826183Y-78926623D02*
X118659517Y-78926623D01*
X118659517Y-78926623D02*
X118592850Y-78959956D01*
X118592850Y-78959956D02*
X118559517Y-78993289D01*
X118559517Y-78993289D02*
X118526183Y-79059956D01*
X118526183Y-79059956D02*
X118526183Y-79226623D01*
X118526183Y-79226623D02*
X118559517Y-79293289D01*
X118559517Y-79293289D02*
X118592850Y-79326623D01*
X118592850Y-79326623D02*
X118659517Y-79359956D01*
X118659517Y-79359956D02*
X118826183Y-79359956D01*
X118826183Y-79359956D02*
X118892850Y-79326623D01*
X118892850Y-79326623D02*
X118926183Y-79293289D01*
X117726183Y-78626623D02*
X118326183Y-79526623D01*
X117459517Y-79359956D02*
X117326183Y-79359956D01*
X117326183Y-79359956D02*
X117259517Y-79326623D01*
X117259517Y-79326623D02*
X117226183Y-79293289D01*
X117226183Y-79293289D02*
X117159517Y-79193289D01*
X117159517Y-79193289D02*
X117126183Y-79059956D01*
X117126183Y-79059956D02*
X117126183Y-78793289D01*
X117126183Y-78793289D02*
X117159517Y-78726623D01*
X117159517Y-78726623D02*
X117192850Y-78693289D01*
X117192850Y-78693289D02*
X117259517Y-78659956D01*
X117259517Y-78659956D02*
X117392850Y-78659956D01*
X117392850Y-78659956D02*
X117459517Y-78693289D01*
X117459517Y-78693289D02*
X117492850Y-78726623D01*
X117492850Y-78726623D02*
X117526183Y-78793289D01*
X117526183Y-78793289D02*
X117526183Y-78959956D01*
X117526183Y-78959956D02*
X117492850Y-79026623D01*
X117492850Y-79026623D02*
X117459517Y-79059956D01*
X117459517Y-79059956D02*
X117392850Y-79093289D01*
X117392850Y-79093289D02*
X117259517Y-79093289D01*
X117259517Y-79093289D02*
X117192850Y-79059956D01*
X117192850Y-79059956D02*
X117159517Y-79026623D01*
X117159517Y-79026623D02*
X117126183Y-78959956D01*
X120520563Y-81081133D02*
X120853896Y-81081133D01*
X120853896Y-81081133D02*
X120887229Y-81414466D01*
X120887229Y-81414466D02*
X120853896Y-81381133D01*
X120853896Y-81381133D02*
X120787229Y-81347800D01*
X120787229Y-81347800D02*
X120620563Y-81347800D01*
X120620563Y-81347800D02*
X120553896Y-81381133D01*
X120553896Y-81381133D02*
X120520563Y-81414466D01*
X120520563Y-81414466D02*
X120487229Y-81481133D01*
X120487229Y-81481133D02*
X120487229Y-81647800D01*
X120487229Y-81647800D02*
X120520563Y-81714466D01*
X120520563Y-81714466D02*
X120553896Y-81747800D01*
X120553896Y-81747800D02*
X120620563Y-81781133D01*
X120620563Y-81781133D02*
X120787229Y-81781133D01*
X120787229Y-81781133D02*
X120853896Y-81747800D01*
X120853896Y-81747800D02*
X120887229Y-81714466D01*
X120153896Y-81781133D02*
X120020562Y-81781133D01*
X120020562Y-81781133D02*
X119953896Y-81747800D01*
X119953896Y-81747800D02*
X119920562Y-81714466D01*
X119920562Y-81714466D02*
X119853896Y-81614466D01*
X119853896Y-81614466D02*
X119820562Y-81481133D01*
X119820562Y-81481133D02*
X119820562Y-81214466D01*
X119820562Y-81214466D02*
X119853896Y-81147800D01*
X119853896Y-81147800D02*
X119887229Y-81114466D01*
X119887229Y-81114466D02*
X119953896Y-81081133D01*
X119953896Y-81081133D02*
X120087229Y-81081133D01*
X120087229Y-81081133D02*
X120153896Y-81114466D01*
X120153896Y-81114466D02*
X120187229Y-81147800D01*
X120187229Y-81147800D02*
X120220562Y-81214466D01*
X120220562Y-81214466D02*
X120220562Y-81381133D01*
X120220562Y-81381133D02*
X120187229Y-81447800D01*
X120187229Y-81447800D02*
X120153896Y-81481133D01*
X120153896Y-81481133D02*
X120087229Y-81514466D01*
X120087229Y-81514466D02*
X119953896Y-81514466D01*
X119953896Y-81514466D02*
X119887229Y-81481133D01*
X119887229Y-81481133D02*
X119853896Y-81447800D01*
X119853896Y-81447800D02*
X119820562Y-81381133D01*
X119187229Y-81081133D02*
X119520562Y-81081133D01*
X119520562Y-81081133D02*
X119553895Y-81414466D01*
X119553895Y-81414466D02*
X119520562Y-81381133D01*
X119520562Y-81381133D02*
X119453895Y-81347800D01*
X119453895Y-81347800D02*
X119287229Y-81347800D01*
X119287229Y-81347800D02*
X119220562Y-81381133D01*
X119220562Y-81381133D02*
X119187229Y-81414466D01*
X119187229Y-81414466D02*
X119153895Y-81481133D01*
X119153895Y-81481133D02*
X119153895Y-81647800D01*
X119153895Y-81647800D02*
X119187229Y-81714466D01*
X119187229Y-81714466D02*
X119220562Y-81747800D01*
X119220562Y-81747800D02*
X119287229Y-81781133D01*
X119287229Y-81781133D02*
X119453895Y-81781133D01*
X119453895Y-81781133D02*
X119520562Y-81747800D01*
X119520562Y-81747800D02*
X119553895Y-81714466D01*
X118353895Y-81047800D02*
X118953895Y-81947800D01*
X117753895Y-81781133D02*
X118153895Y-81781133D01*
X117953895Y-81781133D02*
X117953895Y-81081133D01*
X117953895Y-81081133D02*
X118020562Y-81181133D01*
X118020562Y-81181133D02*
X118087229Y-81247800D01*
X118087229Y-81247800D02*
X118153895Y-81281133D01*
X117487228Y-81147800D02*
X117453895Y-81114466D01*
X117453895Y-81114466D02*
X117387228Y-81081133D01*
X117387228Y-81081133D02*
X117220562Y-81081133D01*
X117220562Y-81081133D02*
X117153895Y-81114466D01*
X117153895Y-81114466D02*
X117120562Y-81147800D01*
X117120562Y-81147800D02*
X117087228Y-81214466D01*
X117087228Y-81214466D02*
X117087228Y-81281133D01*
X117087228Y-81281133D02*
X117120562Y-81381133D01*
X117120562Y-81381133D02*
X117520562Y-81781133D01*
X117520562Y-81781133D02*
X117087228Y-81781133D01*
X118091962Y-83807381D02*
X118091962Y-84274048D01*
X118091962Y-83874048D02*
X118058629Y-83840715D01*
X118058629Y-83840715D02*
X117991962Y-83807381D01*
X117991962Y-83807381D02*
X117891962Y-83807381D01*
X117891962Y-83807381D02*
X117825295Y-83840715D01*
X117825295Y-83840715D02*
X117791962Y-83907381D01*
X117791962Y-83907381D02*
X117791962Y-84274048D01*
X117158629Y-84240715D02*
X117225296Y-84274048D01*
X117225296Y-84274048D02*
X117358629Y-84274048D01*
X117358629Y-84274048D02*
X117425296Y-84240715D01*
X117425296Y-84240715D02*
X117458629Y-84207381D01*
X117458629Y-84207381D02*
X117491962Y-84140715D01*
X117491962Y-84140715D02*
X117491962Y-83940715D01*
X117491962Y-83940715D02*
X117458629Y-83874048D01*
X117458629Y-83874048D02*
X117425296Y-83840715D01*
X117425296Y-83840715D02*
X117358629Y-83807381D01*
X117358629Y-83807381D02*
X117225296Y-83807381D01*
X117225296Y-83807381D02*
X117158629Y-83840715D01*
X142116406Y-74359956D02*
X142516406Y-74359956D01*
X142316406Y-74359956D02*
X142316406Y-73659956D01*
X142316406Y-73659956D02*
X142383073Y-73759956D01*
X142383073Y-73759956D02*
X142449740Y-73826623D01*
X142449740Y-73826623D02*
X142516406Y-73859956D01*
X141516406Y-73659956D02*
X141649739Y-73659956D01*
X141649739Y-73659956D02*
X141716406Y-73693289D01*
X141716406Y-73693289D02*
X141749739Y-73726623D01*
X141749739Y-73726623D02*
X141816406Y-73826623D01*
X141816406Y-73826623D02*
X141849739Y-73959956D01*
X141849739Y-73959956D02*
X141849739Y-74226623D01*
X141849739Y-74226623D02*
X141816406Y-74293289D01*
X141816406Y-74293289D02*
X141783073Y-74326623D01*
X141783073Y-74326623D02*
X141716406Y-74359956D01*
X141716406Y-74359956D02*
X141583073Y-74359956D01*
X141583073Y-74359956D02*
X141516406Y-74326623D01*
X141516406Y-74326623D02*
X141483073Y-74293289D01*
X141483073Y-74293289D02*
X141449739Y-74226623D01*
X141449739Y-74226623D02*
X141449739Y-74059956D01*
X141449739Y-74059956D02*
X141483073Y-73993289D01*
X141483073Y-73993289D02*
X141516406Y-73959956D01*
X141516406Y-73959956D02*
X141583073Y-73926623D01*
X141583073Y-73926623D02*
X141716406Y-73926623D01*
X141716406Y-73926623D02*
X141783073Y-73959956D01*
X141783073Y-73959956D02*
X141816406Y-73993289D01*
X141816406Y-73993289D02*
X141849739Y-74059956D01*
X140816406Y-73659956D02*
X141149739Y-73659956D01*
X141149739Y-73659956D02*
X141183072Y-73993289D01*
X141183072Y-73993289D02*
X141149739Y-73959956D01*
X141149739Y-73959956D02*
X141083072Y-73926623D01*
X141083072Y-73926623D02*
X140916406Y-73926623D01*
X140916406Y-73926623D02*
X140849739Y-73959956D01*
X140849739Y-73959956D02*
X140816406Y-73993289D01*
X140816406Y-73993289D02*
X140783072Y-74059956D01*
X140783072Y-74059956D02*
X140783072Y-74226623D01*
X140783072Y-74226623D02*
X140816406Y-74293289D01*
X140816406Y-74293289D02*
X140849739Y-74326623D01*
X140849739Y-74326623D02*
X140916406Y-74359956D01*
X140916406Y-74359956D02*
X141083072Y-74359956D01*
X141083072Y-74359956D02*
X141149739Y-74326623D01*
X141149739Y-74326623D02*
X141183072Y-74293289D01*
X139983072Y-73626623D02*
X140583072Y-74526623D01*
X139383072Y-74359956D02*
X139783072Y-74359956D01*
X139583072Y-74359956D02*
X139583072Y-73659956D01*
X139583072Y-73659956D02*
X139649739Y-73759956D01*
X139649739Y-73759956D02*
X139716406Y-73826623D01*
X139716406Y-73826623D02*
X139783072Y-73859956D01*
X142116406Y-76859956D02*
X142516406Y-76859956D01*
X142316406Y-76859956D02*
X142316406Y-76159956D01*
X142316406Y-76159956D02*
X142383073Y-76259956D01*
X142383073Y-76259956D02*
X142449740Y-76326623D01*
X142449740Y-76326623D02*
X142516406Y-76359956D01*
X141516406Y-76159956D02*
X141649739Y-76159956D01*
X141649739Y-76159956D02*
X141716406Y-76193289D01*
X141716406Y-76193289D02*
X141749739Y-76226623D01*
X141749739Y-76226623D02*
X141816406Y-76326623D01*
X141816406Y-76326623D02*
X141849739Y-76459956D01*
X141849739Y-76459956D02*
X141849739Y-76726623D01*
X141849739Y-76726623D02*
X141816406Y-76793289D01*
X141816406Y-76793289D02*
X141783073Y-76826623D01*
X141783073Y-76826623D02*
X141716406Y-76859956D01*
X141716406Y-76859956D02*
X141583073Y-76859956D01*
X141583073Y-76859956D02*
X141516406Y-76826623D01*
X141516406Y-76826623D02*
X141483073Y-76793289D01*
X141483073Y-76793289D02*
X141449739Y-76726623D01*
X141449739Y-76726623D02*
X141449739Y-76559956D01*
X141449739Y-76559956D02*
X141483073Y-76493289D01*
X141483073Y-76493289D02*
X141516406Y-76459956D01*
X141516406Y-76459956D02*
X141583073Y-76426623D01*
X141583073Y-76426623D02*
X141716406Y-76426623D01*
X141716406Y-76426623D02*
X141783073Y-76459956D01*
X141783073Y-76459956D02*
X141816406Y-76493289D01*
X141816406Y-76493289D02*
X141849739Y-76559956D01*
X140816406Y-76159956D02*
X141149739Y-76159956D01*
X141149739Y-76159956D02*
X141183072Y-76493289D01*
X141183072Y-76493289D02*
X141149739Y-76459956D01*
X141149739Y-76459956D02*
X141083072Y-76426623D01*
X141083072Y-76426623D02*
X140916406Y-76426623D01*
X140916406Y-76426623D02*
X140849739Y-76459956D01*
X140849739Y-76459956D02*
X140816406Y-76493289D01*
X140816406Y-76493289D02*
X140783072Y-76559956D01*
X140783072Y-76559956D02*
X140783072Y-76726623D01*
X140783072Y-76726623D02*
X140816406Y-76793289D01*
X140816406Y-76793289D02*
X140849739Y-76826623D01*
X140849739Y-76826623D02*
X140916406Y-76859956D01*
X140916406Y-76859956D02*
X141083072Y-76859956D01*
X141083072Y-76859956D02*
X141149739Y-76826623D01*
X141149739Y-76826623D02*
X141183072Y-76793289D01*
X139983072Y-76126623D02*
X140583072Y-77026623D01*
X139716406Y-76859956D02*
X139583072Y-76859956D01*
X139583072Y-76859956D02*
X139516406Y-76826623D01*
X139516406Y-76826623D02*
X139483072Y-76793289D01*
X139483072Y-76793289D02*
X139416406Y-76693289D01*
X139416406Y-76693289D02*
X139383072Y-76559956D01*
X139383072Y-76559956D02*
X139383072Y-76293289D01*
X139383072Y-76293289D02*
X139416406Y-76226623D01*
X139416406Y-76226623D02*
X139449739Y-76193289D01*
X139449739Y-76193289D02*
X139516406Y-76159956D01*
X139516406Y-76159956D02*
X139649739Y-76159956D01*
X139649739Y-76159956D02*
X139716406Y-76193289D01*
X139716406Y-76193289D02*
X139749739Y-76226623D01*
X139749739Y-76226623D02*
X139783072Y-76293289D01*
X139783072Y-76293289D02*
X139783072Y-76459956D01*
X139783072Y-76459956D02*
X139749739Y-76526623D01*
X139749739Y-76526623D02*
X139716406Y-76559956D01*
X139716406Y-76559956D02*
X139649739Y-76593289D01*
X139649739Y-76593289D02*
X139516406Y-76593289D01*
X139516406Y-76593289D02*
X139449739Y-76559956D01*
X139449739Y-76559956D02*
X139416406Y-76526623D01*
X139416406Y-76526623D02*
X139383072Y-76459956D01*
X142149740Y-83659956D02*
X142483073Y-83659956D01*
X142483073Y-83659956D02*
X142516406Y-83993289D01*
X142516406Y-83993289D02*
X142483073Y-83959956D01*
X142483073Y-83959956D02*
X142416406Y-83926623D01*
X142416406Y-83926623D02*
X142249740Y-83926623D01*
X142249740Y-83926623D02*
X142183073Y-83959956D01*
X142183073Y-83959956D02*
X142149740Y-83993289D01*
X142149740Y-83993289D02*
X142116406Y-84059956D01*
X142116406Y-84059956D02*
X142116406Y-84226623D01*
X142116406Y-84226623D02*
X142149740Y-84293289D01*
X142149740Y-84293289D02*
X142183073Y-84326623D01*
X142183073Y-84326623D02*
X142249740Y-84359956D01*
X142249740Y-84359956D02*
X142416406Y-84359956D01*
X142416406Y-84359956D02*
X142483073Y-84326623D01*
X142483073Y-84326623D02*
X142516406Y-84293289D01*
X141783073Y-84359956D02*
X141649739Y-84359956D01*
X141649739Y-84359956D02*
X141583073Y-84326623D01*
X141583073Y-84326623D02*
X141549739Y-84293289D01*
X141549739Y-84293289D02*
X141483073Y-84193289D01*
X141483073Y-84193289D02*
X141449739Y-84059956D01*
X141449739Y-84059956D02*
X141449739Y-83793289D01*
X141449739Y-83793289D02*
X141483073Y-83726623D01*
X141483073Y-83726623D02*
X141516406Y-83693289D01*
X141516406Y-83693289D02*
X141583073Y-83659956D01*
X141583073Y-83659956D02*
X141716406Y-83659956D01*
X141716406Y-83659956D02*
X141783073Y-83693289D01*
X141783073Y-83693289D02*
X141816406Y-83726623D01*
X141816406Y-83726623D02*
X141849739Y-83793289D01*
X141849739Y-83793289D02*
X141849739Y-83959956D01*
X141849739Y-83959956D02*
X141816406Y-84026623D01*
X141816406Y-84026623D02*
X141783073Y-84059956D01*
X141783073Y-84059956D02*
X141716406Y-84093289D01*
X141716406Y-84093289D02*
X141583073Y-84093289D01*
X141583073Y-84093289D02*
X141516406Y-84059956D01*
X141516406Y-84059956D02*
X141483073Y-84026623D01*
X141483073Y-84026623D02*
X141449739Y-83959956D01*
X140816406Y-83659956D02*
X141149739Y-83659956D01*
X141149739Y-83659956D02*
X141183072Y-83993289D01*
X141183072Y-83993289D02*
X141149739Y-83959956D01*
X141149739Y-83959956D02*
X141083072Y-83926623D01*
X141083072Y-83926623D02*
X140916406Y-83926623D01*
X140916406Y-83926623D02*
X140849739Y-83959956D01*
X140849739Y-83959956D02*
X140816406Y-83993289D01*
X140816406Y-83993289D02*
X140783072Y-84059956D01*
X140783072Y-84059956D02*
X140783072Y-84226623D01*
X140783072Y-84226623D02*
X140816406Y-84293289D01*
X140816406Y-84293289D02*
X140849739Y-84326623D01*
X140849739Y-84326623D02*
X140916406Y-84359956D01*
X140916406Y-84359956D02*
X141083072Y-84359956D01*
X141083072Y-84359956D02*
X141149739Y-84326623D01*
X141149739Y-84326623D02*
X141183072Y-84293289D01*
X139983072Y-83626623D02*
X140583072Y-84526623D01*
X139383072Y-84359956D02*
X139783072Y-84359956D01*
X139583072Y-84359956D02*
X139583072Y-83659956D01*
X139583072Y-83659956D02*
X139649739Y-83759956D01*
X139649739Y-83759956D02*
X139716406Y-83826623D01*
X139716406Y-83826623D02*
X139783072Y-83859956D01*
X138716405Y-84359956D02*
X139116405Y-84359956D01*
X138916405Y-84359956D02*
X138916405Y-83659956D01*
X138916405Y-83659956D02*
X138983072Y-83759956D01*
X138983072Y-83759956D02*
X139049739Y-83826623D01*
X139049739Y-83826623D02*
X139116405Y-83859956D01*
X142149740Y-81159956D02*
X142483073Y-81159956D01*
X142483073Y-81159956D02*
X142516406Y-81493289D01*
X142516406Y-81493289D02*
X142483073Y-81459956D01*
X142483073Y-81459956D02*
X142416406Y-81426623D01*
X142416406Y-81426623D02*
X142249740Y-81426623D01*
X142249740Y-81426623D02*
X142183073Y-81459956D01*
X142183073Y-81459956D02*
X142149740Y-81493289D01*
X142149740Y-81493289D02*
X142116406Y-81559956D01*
X142116406Y-81559956D02*
X142116406Y-81726623D01*
X142116406Y-81726623D02*
X142149740Y-81793289D01*
X142149740Y-81793289D02*
X142183073Y-81826623D01*
X142183073Y-81826623D02*
X142249740Y-81859956D01*
X142249740Y-81859956D02*
X142416406Y-81859956D01*
X142416406Y-81859956D02*
X142483073Y-81826623D01*
X142483073Y-81826623D02*
X142516406Y-81793289D01*
X141783073Y-81859956D02*
X141649739Y-81859956D01*
X141649739Y-81859956D02*
X141583073Y-81826623D01*
X141583073Y-81826623D02*
X141549739Y-81793289D01*
X141549739Y-81793289D02*
X141483073Y-81693289D01*
X141483073Y-81693289D02*
X141449739Y-81559956D01*
X141449739Y-81559956D02*
X141449739Y-81293289D01*
X141449739Y-81293289D02*
X141483073Y-81226623D01*
X141483073Y-81226623D02*
X141516406Y-81193289D01*
X141516406Y-81193289D02*
X141583073Y-81159956D01*
X141583073Y-81159956D02*
X141716406Y-81159956D01*
X141716406Y-81159956D02*
X141783073Y-81193289D01*
X141783073Y-81193289D02*
X141816406Y-81226623D01*
X141816406Y-81226623D02*
X141849739Y-81293289D01*
X141849739Y-81293289D02*
X141849739Y-81459956D01*
X141849739Y-81459956D02*
X141816406Y-81526623D01*
X141816406Y-81526623D02*
X141783073Y-81559956D01*
X141783073Y-81559956D02*
X141716406Y-81593289D01*
X141716406Y-81593289D02*
X141583073Y-81593289D01*
X141583073Y-81593289D02*
X141516406Y-81559956D01*
X141516406Y-81559956D02*
X141483073Y-81526623D01*
X141483073Y-81526623D02*
X141449739Y-81459956D01*
X140816406Y-81159956D02*
X141149739Y-81159956D01*
X141149739Y-81159956D02*
X141183072Y-81493289D01*
X141183072Y-81493289D02*
X141149739Y-81459956D01*
X141149739Y-81459956D02*
X141083072Y-81426623D01*
X141083072Y-81426623D02*
X140916406Y-81426623D01*
X140916406Y-81426623D02*
X140849739Y-81459956D01*
X140849739Y-81459956D02*
X140816406Y-81493289D01*
X140816406Y-81493289D02*
X140783072Y-81559956D01*
X140783072Y-81559956D02*
X140783072Y-81726623D01*
X140783072Y-81726623D02*
X140816406Y-81793289D01*
X140816406Y-81793289D02*
X140849739Y-81826623D01*
X140849739Y-81826623D02*
X140916406Y-81859956D01*
X140916406Y-81859956D02*
X141083072Y-81859956D01*
X141083072Y-81859956D02*
X141149739Y-81826623D01*
X141149739Y-81826623D02*
X141183072Y-81793289D01*
X139983072Y-81126623D02*
X140583072Y-82026623D01*
X139383072Y-81859956D02*
X139783072Y-81859956D01*
X139583072Y-81859956D02*
X139583072Y-81159956D01*
X139583072Y-81159956D02*
X139649739Y-81259956D01*
X139649739Y-81259956D02*
X139716406Y-81326623D01*
X139716406Y-81326623D02*
X139783072Y-81359956D01*
X138783072Y-81393289D02*
X138783072Y-81859956D01*
X138949739Y-81126623D02*
X139116405Y-81626623D01*
X139116405Y-81626623D02*
X138683072Y-81626623D01*
X142116406Y-79359956D02*
X142516406Y-79359956D01*
X142316406Y-79359956D02*
X142316406Y-78659956D01*
X142316406Y-78659956D02*
X142383073Y-78759956D01*
X142383073Y-78759956D02*
X142449740Y-78826623D01*
X142449740Y-78826623D02*
X142516406Y-78859956D01*
X141516406Y-78659956D02*
X141649739Y-78659956D01*
X141649739Y-78659956D02*
X141716406Y-78693289D01*
X141716406Y-78693289D02*
X141749739Y-78726623D01*
X141749739Y-78726623D02*
X141816406Y-78826623D01*
X141816406Y-78826623D02*
X141849739Y-78959956D01*
X141849739Y-78959956D02*
X141849739Y-79226623D01*
X141849739Y-79226623D02*
X141816406Y-79293289D01*
X141816406Y-79293289D02*
X141783073Y-79326623D01*
X141783073Y-79326623D02*
X141716406Y-79359956D01*
X141716406Y-79359956D02*
X141583073Y-79359956D01*
X141583073Y-79359956D02*
X141516406Y-79326623D01*
X141516406Y-79326623D02*
X141483073Y-79293289D01*
X141483073Y-79293289D02*
X141449739Y-79226623D01*
X141449739Y-79226623D02*
X141449739Y-79059956D01*
X141449739Y-79059956D02*
X141483073Y-78993289D01*
X141483073Y-78993289D02*
X141516406Y-78959956D01*
X141516406Y-78959956D02*
X141583073Y-78926623D01*
X141583073Y-78926623D02*
X141716406Y-78926623D01*
X141716406Y-78926623D02*
X141783073Y-78959956D01*
X141783073Y-78959956D02*
X141816406Y-78993289D01*
X141816406Y-78993289D02*
X141849739Y-79059956D01*
X140816406Y-78659956D02*
X141149739Y-78659956D01*
X141149739Y-78659956D02*
X141183072Y-78993289D01*
X141183072Y-78993289D02*
X141149739Y-78959956D01*
X141149739Y-78959956D02*
X141083072Y-78926623D01*
X141083072Y-78926623D02*
X140916406Y-78926623D01*
X140916406Y-78926623D02*
X140849739Y-78959956D01*
X140849739Y-78959956D02*
X140816406Y-78993289D01*
X140816406Y-78993289D02*
X140783072Y-79059956D01*
X140783072Y-79059956D02*
X140783072Y-79226623D01*
X140783072Y-79226623D02*
X140816406Y-79293289D01*
X140816406Y-79293289D02*
X140849739Y-79326623D01*
X140849739Y-79326623D02*
X140916406Y-79359956D01*
X140916406Y-79359956D02*
X141083072Y-79359956D01*
X141083072Y-79359956D02*
X141149739Y-79326623D01*
X141149739Y-79326623D02*
X141183072Y-79293289D01*
X139983072Y-78626623D02*
X140583072Y-79526623D01*
X139383072Y-79359956D02*
X139783072Y-79359956D01*
X139583072Y-79359956D02*
X139583072Y-78659956D01*
X139583072Y-78659956D02*
X139649739Y-78759956D01*
X139649739Y-78759956D02*
X139716406Y-78826623D01*
X139716406Y-78826623D02*
X139783072Y-78859956D01*
X138749739Y-78659956D02*
X139083072Y-78659956D01*
X139083072Y-78659956D02*
X139116405Y-78993289D01*
X139116405Y-78993289D02*
X139083072Y-78959956D01*
X139083072Y-78959956D02*
X139016405Y-78926623D01*
X139016405Y-78926623D02*
X138849739Y-78926623D01*
X138849739Y-78926623D02*
X138783072Y-78959956D01*
X138783072Y-78959956D02*
X138749739Y-78993289D01*
X138749739Y-78993289D02*
X138716405Y-79059956D01*
X138716405Y-79059956D02*
X138716405Y-79226623D01*
X138716405Y-79226623D02*
X138749739Y-79293289D01*
X138749739Y-79293289D02*
X138783072Y-79326623D01*
X138783072Y-79326623D02*
X138849739Y-79359956D01*
X138849739Y-79359956D02*
X139016405Y-79359956D01*
X139016405Y-79359956D02*
X139083072Y-79326623D01*
X139083072Y-79326623D02*
X139116405Y-79293289D01*
X111932406Y-74319603D02*
X112332406Y-74319603D01*
X112132406Y-74319603D02*
X112132406Y-73619603D01*
X112132406Y-73619603D02*
X112199073Y-73719603D01*
X112199073Y-73719603D02*
X112265740Y-73786270D01*
X112265740Y-73786270D02*
X112332406Y-73819603D01*
X111332406Y-73619603D02*
X111465739Y-73619603D01*
X111465739Y-73619603D02*
X111532406Y-73652936D01*
X111532406Y-73652936D02*
X111565739Y-73686270D01*
X111565739Y-73686270D02*
X111632406Y-73786270D01*
X111632406Y-73786270D02*
X111665739Y-73919603D01*
X111665739Y-73919603D02*
X111665739Y-74186270D01*
X111665739Y-74186270D02*
X111632406Y-74252936D01*
X111632406Y-74252936D02*
X111599073Y-74286270D01*
X111599073Y-74286270D02*
X111532406Y-74319603D01*
X111532406Y-74319603D02*
X111399073Y-74319603D01*
X111399073Y-74319603D02*
X111332406Y-74286270D01*
X111332406Y-74286270D02*
X111299073Y-74252936D01*
X111299073Y-74252936D02*
X111265739Y-74186270D01*
X111265739Y-74186270D02*
X111265739Y-74019603D01*
X111265739Y-74019603D02*
X111299073Y-73952936D01*
X111299073Y-73952936D02*
X111332406Y-73919603D01*
X111332406Y-73919603D02*
X111399073Y-73886270D01*
X111399073Y-73886270D02*
X111532406Y-73886270D01*
X111532406Y-73886270D02*
X111599073Y-73919603D01*
X111599073Y-73919603D02*
X111632406Y-73952936D01*
X111632406Y-73952936D02*
X111665739Y-74019603D01*
X110632406Y-73619603D02*
X110965739Y-73619603D01*
X110965739Y-73619603D02*
X110999072Y-73952936D01*
X110999072Y-73952936D02*
X110965739Y-73919603D01*
X110965739Y-73919603D02*
X110899072Y-73886270D01*
X110899072Y-73886270D02*
X110732406Y-73886270D01*
X110732406Y-73886270D02*
X110665739Y-73919603D01*
X110665739Y-73919603D02*
X110632406Y-73952936D01*
X110632406Y-73952936D02*
X110599072Y-74019603D01*
X110599072Y-74019603D02*
X110599072Y-74186270D01*
X110599072Y-74186270D02*
X110632406Y-74252936D01*
X110632406Y-74252936D02*
X110665739Y-74286270D01*
X110665739Y-74286270D02*
X110732406Y-74319603D01*
X110732406Y-74319603D02*
X110899072Y-74319603D01*
X110899072Y-74319603D02*
X110965739Y-74286270D01*
X110965739Y-74286270D02*
X110999072Y-74252936D01*
X109799072Y-73586270D02*
X110399072Y-74486270D01*
X109199072Y-74319603D02*
X109599072Y-74319603D01*
X109399072Y-74319603D02*
X109399072Y-73619603D01*
X109399072Y-73619603D02*
X109465739Y-73719603D01*
X109465739Y-73719603D02*
X109532406Y-73786270D01*
X109532406Y-73786270D02*
X109599072Y-73819603D01*
X111932406Y-76819603D02*
X112332406Y-76819603D01*
X112132406Y-76819603D02*
X112132406Y-76119603D01*
X112132406Y-76119603D02*
X112199073Y-76219603D01*
X112199073Y-76219603D02*
X112265740Y-76286270D01*
X112265740Y-76286270D02*
X112332406Y-76319603D01*
X111332406Y-76119603D02*
X111465739Y-76119603D01*
X111465739Y-76119603D02*
X111532406Y-76152936D01*
X111532406Y-76152936D02*
X111565739Y-76186270D01*
X111565739Y-76186270D02*
X111632406Y-76286270D01*
X111632406Y-76286270D02*
X111665739Y-76419603D01*
X111665739Y-76419603D02*
X111665739Y-76686270D01*
X111665739Y-76686270D02*
X111632406Y-76752936D01*
X111632406Y-76752936D02*
X111599073Y-76786270D01*
X111599073Y-76786270D02*
X111532406Y-76819603D01*
X111532406Y-76819603D02*
X111399073Y-76819603D01*
X111399073Y-76819603D02*
X111332406Y-76786270D01*
X111332406Y-76786270D02*
X111299073Y-76752936D01*
X111299073Y-76752936D02*
X111265739Y-76686270D01*
X111265739Y-76686270D02*
X111265739Y-76519603D01*
X111265739Y-76519603D02*
X111299073Y-76452936D01*
X111299073Y-76452936D02*
X111332406Y-76419603D01*
X111332406Y-76419603D02*
X111399073Y-76386270D01*
X111399073Y-76386270D02*
X111532406Y-76386270D01*
X111532406Y-76386270D02*
X111599073Y-76419603D01*
X111599073Y-76419603D02*
X111632406Y-76452936D01*
X111632406Y-76452936D02*
X111665739Y-76519603D01*
X110632406Y-76119603D02*
X110965739Y-76119603D01*
X110965739Y-76119603D02*
X110999072Y-76452936D01*
X110999072Y-76452936D02*
X110965739Y-76419603D01*
X110965739Y-76419603D02*
X110899072Y-76386270D01*
X110899072Y-76386270D02*
X110732406Y-76386270D01*
X110732406Y-76386270D02*
X110665739Y-76419603D01*
X110665739Y-76419603D02*
X110632406Y-76452936D01*
X110632406Y-76452936D02*
X110599072Y-76519603D01*
X110599072Y-76519603D02*
X110599072Y-76686270D01*
X110599072Y-76686270D02*
X110632406Y-76752936D01*
X110632406Y-76752936D02*
X110665739Y-76786270D01*
X110665739Y-76786270D02*
X110732406Y-76819603D01*
X110732406Y-76819603D02*
X110899072Y-76819603D01*
X110899072Y-76819603D02*
X110965739Y-76786270D01*
X110965739Y-76786270D02*
X110999072Y-76752936D01*
X109799072Y-76086270D02*
X110399072Y-76986270D01*
X109532406Y-76819603D02*
X109399072Y-76819603D01*
X109399072Y-76819603D02*
X109332406Y-76786270D01*
X109332406Y-76786270D02*
X109299072Y-76752936D01*
X109299072Y-76752936D02*
X109232406Y-76652936D01*
X109232406Y-76652936D02*
X109199072Y-76519603D01*
X109199072Y-76519603D02*
X109199072Y-76252936D01*
X109199072Y-76252936D02*
X109232406Y-76186270D01*
X109232406Y-76186270D02*
X109265739Y-76152936D01*
X109265739Y-76152936D02*
X109332406Y-76119603D01*
X109332406Y-76119603D02*
X109465739Y-76119603D01*
X109465739Y-76119603D02*
X109532406Y-76152936D01*
X109532406Y-76152936D02*
X109565739Y-76186270D01*
X109565739Y-76186270D02*
X109599072Y-76252936D01*
X109599072Y-76252936D02*
X109599072Y-76419603D01*
X109599072Y-76419603D02*
X109565739Y-76486270D01*
X109565739Y-76486270D02*
X109532406Y-76519603D01*
X109532406Y-76519603D02*
X109465739Y-76552936D01*
X109465739Y-76552936D02*
X109332406Y-76552936D01*
X109332406Y-76552936D02*
X109265739Y-76519603D01*
X109265739Y-76519603D02*
X109232406Y-76486270D01*
X109232406Y-76486270D02*
X109199072Y-76419603D01*
X111965740Y-83619603D02*
X112299073Y-83619603D01*
X112299073Y-83619603D02*
X112332406Y-83952936D01*
X112332406Y-83952936D02*
X112299073Y-83919603D01*
X112299073Y-83919603D02*
X112232406Y-83886270D01*
X112232406Y-83886270D02*
X112065740Y-83886270D01*
X112065740Y-83886270D02*
X111999073Y-83919603D01*
X111999073Y-83919603D02*
X111965740Y-83952936D01*
X111965740Y-83952936D02*
X111932406Y-84019603D01*
X111932406Y-84019603D02*
X111932406Y-84186270D01*
X111932406Y-84186270D02*
X111965740Y-84252936D01*
X111965740Y-84252936D02*
X111999073Y-84286270D01*
X111999073Y-84286270D02*
X112065740Y-84319603D01*
X112065740Y-84319603D02*
X112232406Y-84319603D01*
X112232406Y-84319603D02*
X112299073Y-84286270D01*
X112299073Y-84286270D02*
X112332406Y-84252936D01*
X111599073Y-84319603D02*
X111465739Y-84319603D01*
X111465739Y-84319603D02*
X111399073Y-84286270D01*
X111399073Y-84286270D02*
X111365739Y-84252936D01*
X111365739Y-84252936D02*
X111299073Y-84152936D01*
X111299073Y-84152936D02*
X111265739Y-84019603D01*
X111265739Y-84019603D02*
X111265739Y-83752936D01*
X111265739Y-83752936D02*
X111299073Y-83686270D01*
X111299073Y-83686270D02*
X111332406Y-83652936D01*
X111332406Y-83652936D02*
X111399073Y-83619603D01*
X111399073Y-83619603D02*
X111532406Y-83619603D01*
X111532406Y-83619603D02*
X111599073Y-83652936D01*
X111599073Y-83652936D02*
X111632406Y-83686270D01*
X111632406Y-83686270D02*
X111665739Y-83752936D01*
X111665739Y-83752936D02*
X111665739Y-83919603D01*
X111665739Y-83919603D02*
X111632406Y-83986270D01*
X111632406Y-83986270D02*
X111599073Y-84019603D01*
X111599073Y-84019603D02*
X111532406Y-84052936D01*
X111532406Y-84052936D02*
X111399073Y-84052936D01*
X111399073Y-84052936D02*
X111332406Y-84019603D01*
X111332406Y-84019603D02*
X111299073Y-83986270D01*
X111299073Y-83986270D02*
X111265739Y-83919603D01*
X110632406Y-83619603D02*
X110965739Y-83619603D01*
X110965739Y-83619603D02*
X110999072Y-83952936D01*
X110999072Y-83952936D02*
X110965739Y-83919603D01*
X110965739Y-83919603D02*
X110899072Y-83886270D01*
X110899072Y-83886270D02*
X110732406Y-83886270D01*
X110732406Y-83886270D02*
X110665739Y-83919603D01*
X110665739Y-83919603D02*
X110632406Y-83952936D01*
X110632406Y-83952936D02*
X110599072Y-84019603D01*
X110599072Y-84019603D02*
X110599072Y-84186270D01*
X110599072Y-84186270D02*
X110632406Y-84252936D01*
X110632406Y-84252936D02*
X110665739Y-84286270D01*
X110665739Y-84286270D02*
X110732406Y-84319603D01*
X110732406Y-84319603D02*
X110899072Y-84319603D01*
X110899072Y-84319603D02*
X110965739Y-84286270D01*
X110965739Y-84286270D02*
X110999072Y-84252936D01*
X109799072Y-83586270D02*
X110399072Y-84486270D01*
X109199072Y-84319603D02*
X109599072Y-84319603D01*
X109399072Y-84319603D02*
X109399072Y-83619603D01*
X109399072Y-83619603D02*
X109465739Y-83719603D01*
X109465739Y-83719603D02*
X109532406Y-83786270D01*
X109532406Y-83786270D02*
X109599072Y-83819603D01*
X108532405Y-84319603D02*
X108932405Y-84319603D01*
X108732405Y-84319603D02*
X108732405Y-83619603D01*
X108732405Y-83619603D02*
X108799072Y-83719603D01*
X108799072Y-83719603D02*
X108865739Y-83786270D01*
X108865739Y-83786270D02*
X108932405Y-83819603D01*
X111965740Y-81119603D02*
X112299073Y-81119603D01*
X112299073Y-81119603D02*
X112332406Y-81452936D01*
X112332406Y-81452936D02*
X112299073Y-81419603D01*
X112299073Y-81419603D02*
X112232406Y-81386270D01*
X112232406Y-81386270D02*
X112065740Y-81386270D01*
X112065740Y-81386270D02*
X111999073Y-81419603D01*
X111999073Y-81419603D02*
X111965740Y-81452936D01*
X111965740Y-81452936D02*
X111932406Y-81519603D01*
X111932406Y-81519603D02*
X111932406Y-81686270D01*
X111932406Y-81686270D02*
X111965740Y-81752936D01*
X111965740Y-81752936D02*
X111999073Y-81786270D01*
X111999073Y-81786270D02*
X112065740Y-81819603D01*
X112065740Y-81819603D02*
X112232406Y-81819603D01*
X112232406Y-81819603D02*
X112299073Y-81786270D01*
X112299073Y-81786270D02*
X112332406Y-81752936D01*
X111599073Y-81819603D02*
X111465739Y-81819603D01*
X111465739Y-81819603D02*
X111399073Y-81786270D01*
X111399073Y-81786270D02*
X111365739Y-81752936D01*
X111365739Y-81752936D02*
X111299073Y-81652936D01*
X111299073Y-81652936D02*
X111265739Y-81519603D01*
X111265739Y-81519603D02*
X111265739Y-81252936D01*
X111265739Y-81252936D02*
X111299073Y-81186270D01*
X111299073Y-81186270D02*
X111332406Y-81152936D01*
X111332406Y-81152936D02*
X111399073Y-81119603D01*
X111399073Y-81119603D02*
X111532406Y-81119603D01*
X111532406Y-81119603D02*
X111599073Y-81152936D01*
X111599073Y-81152936D02*
X111632406Y-81186270D01*
X111632406Y-81186270D02*
X111665739Y-81252936D01*
X111665739Y-81252936D02*
X111665739Y-81419603D01*
X111665739Y-81419603D02*
X111632406Y-81486270D01*
X111632406Y-81486270D02*
X111599073Y-81519603D01*
X111599073Y-81519603D02*
X111532406Y-81552936D01*
X111532406Y-81552936D02*
X111399073Y-81552936D01*
X111399073Y-81552936D02*
X111332406Y-81519603D01*
X111332406Y-81519603D02*
X111299073Y-81486270D01*
X111299073Y-81486270D02*
X111265739Y-81419603D01*
X110632406Y-81119603D02*
X110965739Y-81119603D01*
X110965739Y-81119603D02*
X110999072Y-81452936D01*
X110999072Y-81452936D02*
X110965739Y-81419603D01*
X110965739Y-81419603D02*
X110899072Y-81386270D01*
X110899072Y-81386270D02*
X110732406Y-81386270D01*
X110732406Y-81386270D02*
X110665739Y-81419603D01*
X110665739Y-81419603D02*
X110632406Y-81452936D01*
X110632406Y-81452936D02*
X110599072Y-81519603D01*
X110599072Y-81519603D02*
X110599072Y-81686270D01*
X110599072Y-81686270D02*
X110632406Y-81752936D01*
X110632406Y-81752936D02*
X110665739Y-81786270D01*
X110665739Y-81786270D02*
X110732406Y-81819603D01*
X110732406Y-81819603D02*
X110899072Y-81819603D01*
X110899072Y-81819603D02*
X110965739Y-81786270D01*
X110965739Y-81786270D02*
X110999072Y-81752936D01*
X109799072Y-81086270D02*
X110399072Y-81986270D01*
X109199072Y-81819603D02*
X109599072Y-81819603D01*
X109399072Y-81819603D02*
X109399072Y-81119603D01*
X109399072Y-81119603D02*
X109465739Y-81219603D01*
X109465739Y-81219603D02*
X109532406Y-81286270D01*
X109532406Y-81286270D02*
X109599072Y-81319603D01*
X108599072Y-81352936D02*
X108599072Y-81819603D01*
X108765739Y-81086270D02*
X108932405Y-81586270D01*
X108932405Y-81586270D02*
X108499072Y-81586270D01*
X111932406Y-79319603D02*
X112332406Y-79319603D01*
X112132406Y-79319603D02*
X112132406Y-78619603D01*
X112132406Y-78619603D02*
X112199073Y-78719603D01*
X112199073Y-78719603D02*
X112265740Y-78786270D01*
X112265740Y-78786270D02*
X112332406Y-78819603D01*
X111332406Y-78619603D02*
X111465739Y-78619603D01*
X111465739Y-78619603D02*
X111532406Y-78652936D01*
X111532406Y-78652936D02*
X111565739Y-78686270D01*
X111565739Y-78686270D02*
X111632406Y-78786270D01*
X111632406Y-78786270D02*
X111665739Y-78919603D01*
X111665739Y-78919603D02*
X111665739Y-79186270D01*
X111665739Y-79186270D02*
X111632406Y-79252936D01*
X111632406Y-79252936D02*
X111599073Y-79286270D01*
X111599073Y-79286270D02*
X111532406Y-79319603D01*
X111532406Y-79319603D02*
X111399073Y-79319603D01*
X111399073Y-79319603D02*
X111332406Y-79286270D01*
X111332406Y-79286270D02*
X111299073Y-79252936D01*
X111299073Y-79252936D02*
X111265739Y-79186270D01*
X111265739Y-79186270D02*
X111265739Y-79019603D01*
X111265739Y-79019603D02*
X111299073Y-78952936D01*
X111299073Y-78952936D02*
X111332406Y-78919603D01*
X111332406Y-78919603D02*
X111399073Y-78886270D01*
X111399073Y-78886270D02*
X111532406Y-78886270D01*
X111532406Y-78886270D02*
X111599073Y-78919603D01*
X111599073Y-78919603D02*
X111632406Y-78952936D01*
X111632406Y-78952936D02*
X111665739Y-79019603D01*
X110632406Y-78619603D02*
X110965739Y-78619603D01*
X110965739Y-78619603D02*
X110999072Y-78952936D01*
X110999072Y-78952936D02*
X110965739Y-78919603D01*
X110965739Y-78919603D02*
X110899072Y-78886270D01*
X110899072Y-78886270D02*
X110732406Y-78886270D01*
X110732406Y-78886270D02*
X110665739Y-78919603D01*
X110665739Y-78919603D02*
X110632406Y-78952936D01*
X110632406Y-78952936D02*
X110599072Y-79019603D01*
X110599072Y-79019603D02*
X110599072Y-79186270D01*
X110599072Y-79186270D02*
X110632406Y-79252936D01*
X110632406Y-79252936D02*
X110665739Y-79286270D01*
X110665739Y-79286270D02*
X110732406Y-79319603D01*
X110732406Y-79319603D02*
X110899072Y-79319603D01*
X110899072Y-79319603D02*
X110965739Y-79286270D01*
X110965739Y-79286270D02*
X110999072Y-79252936D01*
X109799072Y-78586270D02*
X110399072Y-79486270D01*
X109199072Y-79319603D02*
X109599072Y-79319603D01*
X109399072Y-79319603D02*
X109399072Y-78619603D01*
X109399072Y-78619603D02*
X109465739Y-78719603D01*
X109465739Y-78719603D02*
X109532406Y-78786270D01*
X109532406Y-78786270D02*
X109599072Y-78819603D01*
X108565739Y-78619603D02*
X108899072Y-78619603D01*
X108899072Y-78619603D02*
X108932405Y-78952936D01*
X108932405Y-78952936D02*
X108899072Y-78919603D01*
X108899072Y-78919603D02*
X108832405Y-78886270D01*
X108832405Y-78886270D02*
X108665739Y-78886270D01*
X108665739Y-78886270D02*
X108599072Y-78919603D01*
X108599072Y-78919603D02*
X108565739Y-78952936D01*
X108565739Y-78952936D02*
X108532405Y-79019603D01*
X108532405Y-79019603D02*
X108532405Y-79186270D01*
X108532405Y-79186270D02*
X108565739Y-79252936D01*
X108565739Y-79252936D02*
X108599072Y-79286270D01*
X108599072Y-79286270D02*
X108665739Y-79319603D01*
X108665739Y-79319603D02*
X108832405Y-79319603D01*
X108832405Y-79319603D02*
X108899072Y-79286270D01*
X108899072Y-79286270D02*
X108932405Y-79252936D01*
X81821033Y-74059695D02*
X82221033Y-74059695D01*
X82021033Y-74059695D02*
X82021033Y-73359695D01*
X82021033Y-73359695D02*
X82087700Y-73459695D01*
X82087700Y-73459695D02*
X82154367Y-73526362D01*
X82154367Y-73526362D02*
X82221033Y-73559695D01*
X81221033Y-73359695D02*
X81354366Y-73359695D01*
X81354366Y-73359695D02*
X81421033Y-73393028D01*
X81421033Y-73393028D02*
X81454366Y-73426362D01*
X81454366Y-73426362D02*
X81521033Y-73526362D01*
X81521033Y-73526362D02*
X81554366Y-73659695D01*
X81554366Y-73659695D02*
X81554366Y-73926362D01*
X81554366Y-73926362D02*
X81521033Y-73993028D01*
X81521033Y-73993028D02*
X81487700Y-74026362D01*
X81487700Y-74026362D02*
X81421033Y-74059695D01*
X81421033Y-74059695D02*
X81287700Y-74059695D01*
X81287700Y-74059695D02*
X81221033Y-74026362D01*
X81221033Y-74026362D02*
X81187700Y-73993028D01*
X81187700Y-73993028D02*
X81154366Y-73926362D01*
X81154366Y-73926362D02*
X81154366Y-73759695D01*
X81154366Y-73759695D02*
X81187700Y-73693028D01*
X81187700Y-73693028D02*
X81221033Y-73659695D01*
X81221033Y-73659695D02*
X81287700Y-73626362D01*
X81287700Y-73626362D02*
X81421033Y-73626362D01*
X81421033Y-73626362D02*
X81487700Y-73659695D01*
X81487700Y-73659695D02*
X81521033Y-73693028D01*
X81521033Y-73693028D02*
X81554366Y-73759695D01*
X80521033Y-73359695D02*
X80854366Y-73359695D01*
X80854366Y-73359695D02*
X80887699Y-73693028D01*
X80887699Y-73693028D02*
X80854366Y-73659695D01*
X80854366Y-73659695D02*
X80787699Y-73626362D01*
X80787699Y-73626362D02*
X80621033Y-73626362D01*
X80621033Y-73626362D02*
X80554366Y-73659695D01*
X80554366Y-73659695D02*
X80521033Y-73693028D01*
X80521033Y-73693028D02*
X80487699Y-73759695D01*
X80487699Y-73759695D02*
X80487699Y-73926362D01*
X80487699Y-73926362D02*
X80521033Y-73993028D01*
X80521033Y-73993028D02*
X80554366Y-74026362D01*
X80554366Y-74026362D02*
X80621033Y-74059695D01*
X80621033Y-74059695D02*
X80787699Y-74059695D01*
X80787699Y-74059695D02*
X80854366Y-74026362D01*
X80854366Y-74026362D02*
X80887699Y-73993028D01*
X79687699Y-73326362D02*
X80287699Y-74226362D01*
X79087699Y-74059695D02*
X79487699Y-74059695D01*
X79287699Y-74059695D02*
X79287699Y-73359695D01*
X79287699Y-73359695D02*
X79354366Y-73459695D01*
X79354366Y-73459695D02*
X79421033Y-73526362D01*
X79421033Y-73526362D02*
X79487699Y-73559695D01*
X81821033Y-76559695D02*
X82221033Y-76559695D01*
X82021033Y-76559695D02*
X82021033Y-75859695D01*
X82021033Y-75859695D02*
X82087700Y-75959695D01*
X82087700Y-75959695D02*
X82154367Y-76026362D01*
X82154367Y-76026362D02*
X82221033Y-76059695D01*
X81221033Y-75859695D02*
X81354366Y-75859695D01*
X81354366Y-75859695D02*
X81421033Y-75893028D01*
X81421033Y-75893028D02*
X81454366Y-75926362D01*
X81454366Y-75926362D02*
X81521033Y-76026362D01*
X81521033Y-76026362D02*
X81554366Y-76159695D01*
X81554366Y-76159695D02*
X81554366Y-76426362D01*
X81554366Y-76426362D02*
X81521033Y-76493028D01*
X81521033Y-76493028D02*
X81487700Y-76526362D01*
X81487700Y-76526362D02*
X81421033Y-76559695D01*
X81421033Y-76559695D02*
X81287700Y-76559695D01*
X81287700Y-76559695D02*
X81221033Y-76526362D01*
X81221033Y-76526362D02*
X81187700Y-76493028D01*
X81187700Y-76493028D02*
X81154366Y-76426362D01*
X81154366Y-76426362D02*
X81154366Y-76259695D01*
X81154366Y-76259695D02*
X81187700Y-76193028D01*
X81187700Y-76193028D02*
X81221033Y-76159695D01*
X81221033Y-76159695D02*
X81287700Y-76126362D01*
X81287700Y-76126362D02*
X81421033Y-76126362D01*
X81421033Y-76126362D02*
X81487700Y-76159695D01*
X81487700Y-76159695D02*
X81521033Y-76193028D01*
X81521033Y-76193028D02*
X81554366Y-76259695D01*
X80521033Y-75859695D02*
X80854366Y-75859695D01*
X80854366Y-75859695D02*
X80887699Y-76193028D01*
X80887699Y-76193028D02*
X80854366Y-76159695D01*
X80854366Y-76159695D02*
X80787699Y-76126362D01*
X80787699Y-76126362D02*
X80621033Y-76126362D01*
X80621033Y-76126362D02*
X80554366Y-76159695D01*
X80554366Y-76159695D02*
X80521033Y-76193028D01*
X80521033Y-76193028D02*
X80487699Y-76259695D01*
X80487699Y-76259695D02*
X80487699Y-76426362D01*
X80487699Y-76426362D02*
X80521033Y-76493028D01*
X80521033Y-76493028D02*
X80554366Y-76526362D01*
X80554366Y-76526362D02*
X80621033Y-76559695D01*
X80621033Y-76559695D02*
X80787699Y-76559695D01*
X80787699Y-76559695D02*
X80854366Y-76526362D01*
X80854366Y-76526362D02*
X80887699Y-76493028D01*
X79687699Y-75826362D02*
X80287699Y-76726362D01*
X79421033Y-76559695D02*
X79287699Y-76559695D01*
X79287699Y-76559695D02*
X79221033Y-76526362D01*
X79221033Y-76526362D02*
X79187699Y-76493028D01*
X79187699Y-76493028D02*
X79121033Y-76393028D01*
X79121033Y-76393028D02*
X79087699Y-76259695D01*
X79087699Y-76259695D02*
X79087699Y-75993028D01*
X79087699Y-75993028D02*
X79121033Y-75926362D01*
X79121033Y-75926362D02*
X79154366Y-75893028D01*
X79154366Y-75893028D02*
X79221033Y-75859695D01*
X79221033Y-75859695D02*
X79354366Y-75859695D01*
X79354366Y-75859695D02*
X79421033Y-75893028D01*
X79421033Y-75893028D02*
X79454366Y-75926362D01*
X79454366Y-75926362D02*
X79487699Y-75993028D01*
X79487699Y-75993028D02*
X79487699Y-76159695D01*
X79487699Y-76159695D02*
X79454366Y-76226362D01*
X79454366Y-76226362D02*
X79421033Y-76259695D01*
X79421033Y-76259695D02*
X79354366Y-76293028D01*
X79354366Y-76293028D02*
X79221033Y-76293028D01*
X79221033Y-76293028D02*
X79154366Y-76259695D01*
X79154366Y-76259695D02*
X79121033Y-76226362D01*
X79121033Y-76226362D02*
X79087699Y-76159695D01*
X81854367Y-83359695D02*
X82187700Y-83359695D01*
X82187700Y-83359695D02*
X82221033Y-83693028D01*
X82221033Y-83693028D02*
X82187700Y-83659695D01*
X82187700Y-83659695D02*
X82121033Y-83626362D01*
X82121033Y-83626362D02*
X81954367Y-83626362D01*
X81954367Y-83626362D02*
X81887700Y-83659695D01*
X81887700Y-83659695D02*
X81854367Y-83693028D01*
X81854367Y-83693028D02*
X81821033Y-83759695D01*
X81821033Y-83759695D02*
X81821033Y-83926362D01*
X81821033Y-83926362D02*
X81854367Y-83993028D01*
X81854367Y-83993028D02*
X81887700Y-84026362D01*
X81887700Y-84026362D02*
X81954367Y-84059695D01*
X81954367Y-84059695D02*
X82121033Y-84059695D01*
X82121033Y-84059695D02*
X82187700Y-84026362D01*
X82187700Y-84026362D02*
X82221033Y-83993028D01*
X81487700Y-84059695D02*
X81354366Y-84059695D01*
X81354366Y-84059695D02*
X81287700Y-84026362D01*
X81287700Y-84026362D02*
X81254366Y-83993028D01*
X81254366Y-83993028D02*
X81187700Y-83893028D01*
X81187700Y-83893028D02*
X81154366Y-83759695D01*
X81154366Y-83759695D02*
X81154366Y-83493028D01*
X81154366Y-83493028D02*
X81187700Y-83426362D01*
X81187700Y-83426362D02*
X81221033Y-83393028D01*
X81221033Y-83393028D02*
X81287700Y-83359695D01*
X81287700Y-83359695D02*
X81421033Y-83359695D01*
X81421033Y-83359695D02*
X81487700Y-83393028D01*
X81487700Y-83393028D02*
X81521033Y-83426362D01*
X81521033Y-83426362D02*
X81554366Y-83493028D01*
X81554366Y-83493028D02*
X81554366Y-83659695D01*
X81554366Y-83659695D02*
X81521033Y-83726362D01*
X81521033Y-83726362D02*
X81487700Y-83759695D01*
X81487700Y-83759695D02*
X81421033Y-83793028D01*
X81421033Y-83793028D02*
X81287700Y-83793028D01*
X81287700Y-83793028D02*
X81221033Y-83759695D01*
X81221033Y-83759695D02*
X81187700Y-83726362D01*
X81187700Y-83726362D02*
X81154366Y-83659695D01*
X80521033Y-83359695D02*
X80854366Y-83359695D01*
X80854366Y-83359695D02*
X80887699Y-83693028D01*
X80887699Y-83693028D02*
X80854366Y-83659695D01*
X80854366Y-83659695D02*
X80787699Y-83626362D01*
X80787699Y-83626362D02*
X80621033Y-83626362D01*
X80621033Y-83626362D02*
X80554366Y-83659695D01*
X80554366Y-83659695D02*
X80521033Y-83693028D01*
X80521033Y-83693028D02*
X80487699Y-83759695D01*
X80487699Y-83759695D02*
X80487699Y-83926362D01*
X80487699Y-83926362D02*
X80521033Y-83993028D01*
X80521033Y-83993028D02*
X80554366Y-84026362D01*
X80554366Y-84026362D02*
X80621033Y-84059695D01*
X80621033Y-84059695D02*
X80787699Y-84059695D01*
X80787699Y-84059695D02*
X80854366Y-84026362D01*
X80854366Y-84026362D02*
X80887699Y-83993028D01*
X79687699Y-83326362D02*
X80287699Y-84226362D01*
X79087699Y-84059695D02*
X79487699Y-84059695D01*
X79287699Y-84059695D02*
X79287699Y-83359695D01*
X79287699Y-83359695D02*
X79354366Y-83459695D01*
X79354366Y-83459695D02*
X79421033Y-83526362D01*
X79421033Y-83526362D02*
X79487699Y-83559695D01*
X78421032Y-84059695D02*
X78821032Y-84059695D01*
X78621032Y-84059695D02*
X78621032Y-83359695D01*
X78621032Y-83359695D02*
X78687699Y-83459695D01*
X78687699Y-83459695D02*
X78754366Y-83526362D01*
X78754366Y-83526362D02*
X78821032Y-83559695D01*
X81854367Y-80859695D02*
X82187700Y-80859695D01*
X82187700Y-80859695D02*
X82221033Y-81193028D01*
X82221033Y-81193028D02*
X82187700Y-81159695D01*
X82187700Y-81159695D02*
X82121033Y-81126362D01*
X82121033Y-81126362D02*
X81954367Y-81126362D01*
X81954367Y-81126362D02*
X81887700Y-81159695D01*
X81887700Y-81159695D02*
X81854367Y-81193028D01*
X81854367Y-81193028D02*
X81821033Y-81259695D01*
X81821033Y-81259695D02*
X81821033Y-81426362D01*
X81821033Y-81426362D02*
X81854367Y-81493028D01*
X81854367Y-81493028D02*
X81887700Y-81526362D01*
X81887700Y-81526362D02*
X81954367Y-81559695D01*
X81954367Y-81559695D02*
X82121033Y-81559695D01*
X82121033Y-81559695D02*
X82187700Y-81526362D01*
X82187700Y-81526362D02*
X82221033Y-81493028D01*
X81487700Y-81559695D02*
X81354366Y-81559695D01*
X81354366Y-81559695D02*
X81287700Y-81526362D01*
X81287700Y-81526362D02*
X81254366Y-81493028D01*
X81254366Y-81493028D02*
X81187700Y-81393028D01*
X81187700Y-81393028D02*
X81154366Y-81259695D01*
X81154366Y-81259695D02*
X81154366Y-80993028D01*
X81154366Y-80993028D02*
X81187700Y-80926362D01*
X81187700Y-80926362D02*
X81221033Y-80893028D01*
X81221033Y-80893028D02*
X81287700Y-80859695D01*
X81287700Y-80859695D02*
X81421033Y-80859695D01*
X81421033Y-80859695D02*
X81487700Y-80893028D01*
X81487700Y-80893028D02*
X81521033Y-80926362D01*
X81521033Y-80926362D02*
X81554366Y-80993028D01*
X81554366Y-80993028D02*
X81554366Y-81159695D01*
X81554366Y-81159695D02*
X81521033Y-81226362D01*
X81521033Y-81226362D02*
X81487700Y-81259695D01*
X81487700Y-81259695D02*
X81421033Y-81293028D01*
X81421033Y-81293028D02*
X81287700Y-81293028D01*
X81287700Y-81293028D02*
X81221033Y-81259695D01*
X81221033Y-81259695D02*
X81187700Y-81226362D01*
X81187700Y-81226362D02*
X81154366Y-81159695D01*
X80521033Y-80859695D02*
X80854366Y-80859695D01*
X80854366Y-80859695D02*
X80887699Y-81193028D01*
X80887699Y-81193028D02*
X80854366Y-81159695D01*
X80854366Y-81159695D02*
X80787699Y-81126362D01*
X80787699Y-81126362D02*
X80621033Y-81126362D01*
X80621033Y-81126362D02*
X80554366Y-81159695D01*
X80554366Y-81159695D02*
X80521033Y-81193028D01*
X80521033Y-81193028D02*
X80487699Y-81259695D01*
X80487699Y-81259695D02*
X80487699Y-81426362D01*
X80487699Y-81426362D02*
X80521033Y-81493028D01*
X80521033Y-81493028D02*
X80554366Y-81526362D01*
X80554366Y-81526362D02*
X80621033Y-81559695D01*
X80621033Y-81559695D02*
X80787699Y-81559695D01*
X80787699Y-81559695D02*
X80854366Y-81526362D01*
X80854366Y-81526362D02*
X80887699Y-81493028D01*
X79687699Y-80826362D02*
X80287699Y-81726362D01*
X79087699Y-81559695D02*
X79487699Y-81559695D01*
X79287699Y-81559695D02*
X79287699Y-80859695D01*
X79287699Y-80859695D02*
X79354366Y-80959695D01*
X79354366Y-80959695D02*
X79421033Y-81026362D01*
X79421033Y-81026362D02*
X79487699Y-81059695D01*
X78487699Y-81093028D02*
X78487699Y-81559695D01*
X78654366Y-80826362D02*
X78821032Y-81326362D01*
X78821032Y-81326362D02*
X78387699Y-81326362D01*
X81821033Y-79059695D02*
X82221033Y-79059695D01*
X82021033Y-79059695D02*
X82021033Y-78359695D01*
X82021033Y-78359695D02*
X82087700Y-78459695D01*
X82087700Y-78459695D02*
X82154367Y-78526362D01*
X82154367Y-78526362D02*
X82221033Y-78559695D01*
X81221033Y-78359695D02*
X81354366Y-78359695D01*
X81354366Y-78359695D02*
X81421033Y-78393028D01*
X81421033Y-78393028D02*
X81454366Y-78426362D01*
X81454366Y-78426362D02*
X81521033Y-78526362D01*
X81521033Y-78526362D02*
X81554366Y-78659695D01*
X81554366Y-78659695D02*
X81554366Y-78926362D01*
X81554366Y-78926362D02*
X81521033Y-78993028D01*
X81521033Y-78993028D02*
X81487700Y-79026362D01*
X81487700Y-79026362D02*
X81421033Y-79059695D01*
X81421033Y-79059695D02*
X81287700Y-79059695D01*
X81287700Y-79059695D02*
X81221033Y-79026362D01*
X81221033Y-79026362D02*
X81187700Y-78993028D01*
X81187700Y-78993028D02*
X81154366Y-78926362D01*
X81154366Y-78926362D02*
X81154366Y-78759695D01*
X81154366Y-78759695D02*
X81187700Y-78693028D01*
X81187700Y-78693028D02*
X81221033Y-78659695D01*
X81221033Y-78659695D02*
X81287700Y-78626362D01*
X81287700Y-78626362D02*
X81421033Y-78626362D01*
X81421033Y-78626362D02*
X81487700Y-78659695D01*
X81487700Y-78659695D02*
X81521033Y-78693028D01*
X81521033Y-78693028D02*
X81554366Y-78759695D01*
X80521033Y-78359695D02*
X80854366Y-78359695D01*
X80854366Y-78359695D02*
X80887699Y-78693028D01*
X80887699Y-78693028D02*
X80854366Y-78659695D01*
X80854366Y-78659695D02*
X80787699Y-78626362D01*
X80787699Y-78626362D02*
X80621033Y-78626362D01*
X80621033Y-78626362D02*
X80554366Y-78659695D01*
X80554366Y-78659695D02*
X80521033Y-78693028D01*
X80521033Y-78693028D02*
X80487699Y-78759695D01*
X80487699Y-78759695D02*
X80487699Y-78926362D01*
X80487699Y-78926362D02*
X80521033Y-78993028D01*
X80521033Y-78993028D02*
X80554366Y-79026362D01*
X80554366Y-79026362D02*
X80621033Y-79059695D01*
X80621033Y-79059695D02*
X80787699Y-79059695D01*
X80787699Y-79059695D02*
X80854366Y-79026362D01*
X80854366Y-79026362D02*
X80887699Y-78993028D01*
X79687699Y-78326362D02*
X80287699Y-79226362D01*
X79087699Y-79059695D02*
X79487699Y-79059695D01*
X79287699Y-79059695D02*
X79287699Y-78359695D01*
X79287699Y-78359695D02*
X79354366Y-78459695D01*
X79354366Y-78459695D02*
X79421033Y-78526362D01*
X79421033Y-78526362D02*
X79487699Y-78559695D01*
X78454366Y-78359695D02*
X78787699Y-78359695D01*
X78787699Y-78359695D02*
X78821032Y-78693028D01*
X78821032Y-78693028D02*
X78787699Y-78659695D01*
X78787699Y-78659695D02*
X78721032Y-78626362D01*
X78721032Y-78626362D02*
X78554366Y-78626362D01*
X78554366Y-78626362D02*
X78487699Y-78659695D01*
X78487699Y-78659695D02*
X78454366Y-78693028D01*
X78454366Y-78693028D02*
X78421032Y-78759695D01*
X78421032Y-78759695D02*
X78421032Y-78926362D01*
X78421032Y-78926362D02*
X78454366Y-78993028D01*
X78454366Y-78993028D02*
X78487699Y-79026362D01*
X78487699Y-79026362D02*
X78554366Y-79059695D01*
X78554366Y-79059695D02*
X78721032Y-79059695D01*
X78721032Y-79059695D02*
X78787699Y-79026362D01*
X78787699Y-79026362D02*
X78821032Y-78993028D01*
X88052328Y-83668531D02*
X88052328Y-84135198D01*
X88052328Y-83735198D02*
X88018995Y-83701865D01*
X88018995Y-83701865D02*
X87952328Y-83668531D01*
X87952328Y-83668531D02*
X87852328Y-83668531D01*
X87852328Y-83668531D02*
X87785661Y-83701865D01*
X87785661Y-83701865D02*
X87752328Y-83768531D01*
X87752328Y-83768531D02*
X87752328Y-84135198D01*
X87118995Y-84101865D02*
X87185662Y-84135198D01*
X87185662Y-84135198D02*
X87318995Y-84135198D01*
X87318995Y-84135198D02*
X87385662Y-84101865D01*
X87385662Y-84101865D02*
X87418995Y-84068531D01*
X87418995Y-84068531D02*
X87452328Y-84001865D01*
X87452328Y-84001865D02*
X87452328Y-83801865D01*
X87452328Y-83801865D02*
X87418995Y-83735198D01*
X87418995Y-83735198D02*
X87385662Y-83701865D01*
X87385662Y-83701865D02*
X87318995Y-83668531D01*
X87318995Y-83668531D02*
X87185662Y-83668531D01*
X87185662Y-83668531D02*
X87118995Y-83701865D01*
X71570393Y-78718570D02*
X71570393Y-79185237D01*
X71570393Y-78785237D02*
X71537060Y-78751904D01*
X71537060Y-78751904D02*
X71470393Y-78718570D01*
X71470393Y-78718570D02*
X71370393Y-78718570D01*
X71370393Y-78718570D02*
X71303726Y-78751904D01*
X71303726Y-78751904D02*
X71270393Y-78818570D01*
X71270393Y-78818570D02*
X71270393Y-79185237D01*
X70637060Y-79151904D02*
X70703727Y-79185237D01*
X70703727Y-79185237D02*
X70837060Y-79185237D01*
X70837060Y-79185237D02*
X70903727Y-79151904D01*
X70903727Y-79151904D02*
X70937060Y-79118570D01*
X70937060Y-79118570D02*
X70970393Y-79051904D01*
X70970393Y-79051904D02*
X70970393Y-78851904D01*
X70970393Y-78851904D02*
X70937060Y-78785237D01*
X70937060Y-78785237D02*
X70903727Y-78751904D01*
X70903727Y-78751904D02*
X70837060Y-78718570D01*
X70837060Y-78718570D02*
X70703727Y-78718570D01*
X70703727Y-78718570D02*
X70637060Y-78751904D01*
X71606262Y-76153916D02*
X71606262Y-76620583D01*
X71606262Y-76220583D02*
X71572929Y-76187250D01*
X71572929Y-76187250D02*
X71506262Y-76153916D01*
X71506262Y-76153916D02*
X71406262Y-76153916D01*
X71406262Y-76153916D02*
X71339595Y-76187250D01*
X71339595Y-76187250D02*
X71306262Y-76253916D01*
X71306262Y-76253916D02*
X71306262Y-76620583D01*
X70672929Y-76587250D02*
X70739596Y-76620583D01*
X70739596Y-76620583D02*
X70872929Y-76620583D01*
X70872929Y-76620583D02*
X70939596Y-76587250D01*
X70939596Y-76587250D02*
X70972929Y-76553916D01*
X70972929Y-76553916D02*
X71006262Y-76487250D01*
X71006262Y-76487250D02*
X71006262Y-76287250D01*
X71006262Y-76287250D02*
X70972929Y-76220583D01*
X70972929Y-76220583D02*
X70939596Y-76187250D01*
X70939596Y-76187250D02*
X70872929Y-76153916D01*
X70872929Y-76153916D02*
X70739596Y-76153916D01*
X70739596Y-76153916D02*
X70672929Y-76187250D01*
X74106603Y-81103695D02*
X74439936Y-81103695D01*
X74439936Y-81103695D02*
X74473269Y-81437028D01*
X74473269Y-81437028D02*
X74439936Y-81403695D01*
X74439936Y-81403695D02*
X74373269Y-81370362D01*
X74373269Y-81370362D02*
X74206603Y-81370362D01*
X74206603Y-81370362D02*
X74139936Y-81403695D01*
X74139936Y-81403695D02*
X74106603Y-81437028D01*
X74106603Y-81437028D02*
X74073269Y-81503695D01*
X74073269Y-81503695D02*
X74073269Y-81670362D01*
X74073269Y-81670362D02*
X74106603Y-81737028D01*
X74106603Y-81737028D02*
X74139936Y-81770362D01*
X74139936Y-81770362D02*
X74206603Y-81803695D01*
X74206603Y-81803695D02*
X74373269Y-81803695D01*
X74373269Y-81803695D02*
X74439936Y-81770362D01*
X74439936Y-81770362D02*
X74473269Y-81737028D01*
X73739936Y-81803695D02*
X73606602Y-81803695D01*
X73606602Y-81803695D02*
X73539936Y-81770362D01*
X73539936Y-81770362D02*
X73506602Y-81737028D01*
X73506602Y-81737028D02*
X73439936Y-81637028D01*
X73439936Y-81637028D02*
X73406602Y-81503695D01*
X73406602Y-81503695D02*
X73406602Y-81237028D01*
X73406602Y-81237028D02*
X73439936Y-81170362D01*
X73439936Y-81170362D02*
X73473269Y-81137028D01*
X73473269Y-81137028D02*
X73539936Y-81103695D01*
X73539936Y-81103695D02*
X73673269Y-81103695D01*
X73673269Y-81103695D02*
X73739936Y-81137028D01*
X73739936Y-81137028D02*
X73773269Y-81170362D01*
X73773269Y-81170362D02*
X73806602Y-81237028D01*
X73806602Y-81237028D02*
X73806602Y-81403695D01*
X73806602Y-81403695D02*
X73773269Y-81470362D01*
X73773269Y-81470362D02*
X73739936Y-81503695D01*
X73739936Y-81503695D02*
X73673269Y-81537028D01*
X73673269Y-81537028D02*
X73539936Y-81537028D01*
X73539936Y-81537028D02*
X73473269Y-81503695D01*
X73473269Y-81503695D02*
X73439936Y-81470362D01*
X73439936Y-81470362D02*
X73406602Y-81403695D01*
X72773269Y-81103695D02*
X73106602Y-81103695D01*
X73106602Y-81103695D02*
X73139935Y-81437028D01*
X73139935Y-81437028D02*
X73106602Y-81403695D01*
X73106602Y-81403695D02*
X73039935Y-81370362D01*
X73039935Y-81370362D02*
X72873269Y-81370362D01*
X72873269Y-81370362D02*
X72806602Y-81403695D01*
X72806602Y-81403695D02*
X72773269Y-81437028D01*
X72773269Y-81437028D02*
X72739935Y-81503695D01*
X72739935Y-81503695D02*
X72739935Y-81670362D01*
X72739935Y-81670362D02*
X72773269Y-81737028D01*
X72773269Y-81737028D02*
X72806602Y-81770362D01*
X72806602Y-81770362D02*
X72873269Y-81803695D01*
X72873269Y-81803695D02*
X73039935Y-81803695D01*
X73039935Y-81803695D02*
X73106602Y-81770362D01*
X73106602Y-81770362D02*
X73139935Y-81737028D01*
X71939935Y-81070362D02*
X72539935Y-81970362D01*
X71339935Y-81803695D02*
X71739935Y-81803695D01*
X71539935Y-81803695D02*
X71539935Y-81103695D01*
X71539935Y-81103695D02*
X71606602Y-81203695D01*
X71606602Y-81203695D02*
X71673269Y-81270362D01*
X71673269Y-81270362D02*
X71739935Y-81303695D01*
X71073268Y-81170362D02*
X71039935Y-81137028D01*
X71039935Y-81137028D02*
X70973268Y-81103695D01*
X70973268Y-81103695D02*
X70806602Y-81103695D01*
X70806602Y-81103695D02*
X70739935Y-81137028D01*
X70739935Y-81137028D02*
X70706602Y-81170362D01*
X70706602Y-81170362D02*
X70673268Y-81237028D01*
X70673268Y-81237028D02*
X70673268Y-81303695D01*
X70673268Y-81303695D02*
X70706602Y-81403695D01*
X70706602Y-81403695D02*
X71106602Y-81803695D01*
X71106602Y-81803695D02*
X70673268Y-81803695D01*
X73409687Y-74163538D02*
X73809687Y-74163538D01*
X73609687Y-74163538D02*
X73609687Y-73463538D01*
X73609687Y-73463538D02*
X73676354Y-73563538D01*
X73676354Y-73563538D02*
X73743021Y-73630205D01*
X73743021Y-73630205D02*
X73809687Y-73663538D01*
X72809687Y-73463538D02*
X72943020Y-73463538D01*
X72943020Y-73463538D02*
X73009687Y-73496871D01*
X73009687Y-73496871D02*
X73043020Y-73530205D01*
X73043020Y-73530205D02*
X73109687Y-73630205D01*
X73109687Y-73630205D02*
X73143020Y-73763538D01*
X73143020Y-73763538D02*
X73143020Y-74030205D01*
X73143020Y-74030205D02*
X73109687Y-74096871D01*
X73109687Y-74096871D02*
X73076354Y-74130205D01*
X73076354Y-74130205D02*
X73009687Y-74163538D01*
X73009687Y-74163538D02*
X72876354Y-74163538D01*
X72876354Y-74163538D02*
X72809687Y-74130205D01*
X72809687Y-74130205D02*
X72776354Y-74096871D01*
X72776354Y-74096871D02*
X72743020Y-74030205D01*
X72743020Y-74030205D02*
X72743020Y-73863538D01*
X72743020Y-73863538D02*
X72776354Y-73796871D01*
X72776354Y-73796871D02*
X72809687Y-73763538D01*
X72809687Y-73763538D02*
X72876354Y-73730205D01*
X72876354Y-73730205D02*
X73009687Y-73730205D01*
X73009687Y-73730205D02*
X73076354Y-73763538D01*
X73076354Y-73763538D02*
X73109687Y-73796871D01*
X73109687Y-73796871D02*
X73143020Y-73863538D01*
X72109687Y-73463538D02*
X72443020Y-73463538D01*
X72443020Y-73463538D02*
X72476353Y-73796871D01*
X72476353Y-73796871D02*
X72443020Y-73763538D01*
X72443020Y-73763538D02*
X72376353Y-73730205D01*
X72376353Y-73730205D02*
X72209687Y-73730205D01*
X72209687Y-73730205D02*
X72143020Y-73763538D01*
X72143020Y-73763538D02*
X72109687Y-73796871D01*
X72109687Y-73796871D02*
X72076353Y-73863538D01*
X72076353Y-73863538D02*
X72076353Y-74030205D01*
X72076353Y-74030205D02*
X72109687Y-74096871D01*
X72109687Y-74096871D02*
X72143020Y-74130205D01*
X72143020Y-74130205D02*
X72209687Y-74163538D01*
X72209687Y-74163538D02*
X72376353Y-74163538D01*
X72376353Y-74163538D02*
X72443020Y-74130205D01*
X72443020Y-74130205D02*
X72476353Y-74096871D01*
X71276353Y-73430205D02*
X71876353Y-74330205D01*
X71076353Y-73530205D02*
X71043020Y-73496871D01*
X71043020Y-73496871D02*
X70976353Y-73463538D01*
X70976353Y-73463538D02*
X70809687Y-73463538D01*
X70809687Y-73463538D02*
X70743020Y-73496871D01*
X70743020Y-73496871D02*
X70709687Y-73530205D01*
X70709687Y-73530205D02*
X70676353Y-73596871D01*
X70676353Y-73596871D02*
X70676353Y-73663538D01*
X70676353Y-73663538D02*
X70709687Y-73763538D01*
X70709687Y-73763538D02*
X71109687Y-74163538D01*
X71109687Y-74163538D02*
X70676353Y-74163538D01*
X90480929Y-80942283D02*
X90814262Y-80942283D01*
X90814262Y-80942283D02*
X90847595Y-81275616D01*
X90847595Y-81275616D02*
X90814262Y-81242283D01*
X90814262Y-81242283D02*
X90747595Y-81208950D01*
X90747595Y-81208950D02*
X90580929Y-81208950D01*
X90580929Y-81208950D02*
X90514262Y-81242283D01*
X90514262Y-81242283D02*
X90480929Y-81275616D01*
X90480929Y-81275616D02*
X90447595Y-81342283D01*
X90447595Y-81342283D02*
X90447595Y-81508950D01*
X90447595Y-81508950D02*
X90480929Y-81575616D01*
X90480929Y-81575616D02*
X90514262Y-81608950D01*
X90514262Y-81608950D02*
X90580929Y-81642283D01*
X90580929Y-81642283D02*
X90747595Y-81642283D01*
X90747595Y-81642283D02*
X90814262Y-81608950D01*
X90814262Y-81608950D02*
X90847595Y-81575616D01*
X90114262Y-81642283D02*
X89980928Y-81642283D01*
X89980928Y-81642283D02*
X89914262Y-81608950D01*
X89914262Y-81608950D02*
X89880928Y-81575616D01*
X89880928Y-81575616D02*
X89814262Y-81475616D01*
X89814262Y-81475616D02*
X89780928Y-81342283D01*
X89780928Y-81342283D02*
X89780928Y-81075616D01*
X89780928Y-81075616D02*
X89814262Y-81008950D01*
X89814262Y-81008950D02*
X89847595Y-80975616D01*
X89847595Y-80975616D02*
X89914262Y-80942283D01*
X89914262Y-80942283D02*
X90047595Y-80942283D01*
X90047595Y-80942283D02*
X90114262Y-80975616D01*
X90114262Y-80975616D02*
X90147595Y-81008950D01*
X90147595Y-81008950D02*
X90180928Y-81075616D01*
X90180928Y-81075616D02*
X90180928Y-81242283D01*
X90180928Y-81242283D02*
X90147595Y-81308950D01*
X90147595Y-81308950D02*
X90114262Y-81342283D01*
X90114262Y-81342283D02*
X90047595Y-81375616D01*
X90047595Y-81375616D02*
X89914262Y-81375616D01*
X89914262Y-81375616D02*
X89847595Y-81342283D01*
X89847595Y-81342283D02*
X89814262Y-81308950D01*
X89814262Y-81308950D02*
X89780928Y-81242283D01*
X89147595Y-80942283D02*
X89480928Y-80942283D01*
X89480928Y-80942283D02*
X89514261Y-81275616D01*
X89514261Y-81275616D02*
X89480928Y-81242283D01*
X89480928Y-81242283D02*
X89414261Y-81208950D01*
X89414261Y-81208950D02*
X89247595Y-81208950D01*
X89247595Y-81208950D02*
X89180928Y-81242283D01*
X89180928Y-81242283D02*
X89147595Y-81275616D01*
X89147595Y-81275616D02*
X89114261Y-81342283D01*
X89114261Y-81342283D02*
X89114261Y-81508950D01*
X89114261Y-81508950D02*
X89147595Y-81575616D01*
X89147595Y-81575616D02*
X89180928Y-81608950D01*
X89180928Y-81608950D02*
X89247595Y-81642283D01*
X89247595Y-81642283D02*
X89414261Y-81642283D01*
X89414261Y-81642283D02*
X89480928Y-81608950D01*
X89480928Y-81608950D02*
X89514261Y-81575616D01*
X88314261Y-80908950D02*
X88914261Y-81808950D01*
X87714261Y-81642283D02*
X88114261Y-81642283D01*
X87914261Y-81642283D02*
X87914261Y-80942283D01*
X87914261Y-80942283D02*
X87980928Y-81042283D01*
X87980928Y-81042283D02*
X88047595Y-81108950D01*
X88047595Y-81108950D02*
X88114261Y-81142283D01*
X87447594Y-81008950D02*
X87414261Y-80975616D01*
X87414261Y-80975616D02*
X87347594Y-80942283D01*
X87347594Y-80942283D02*
X87180928Y-80942283D01*
X87180928Y-80942283D02*
X87114261Y-80975616D01*
X87114261Y-80975616D02*
X87080928Y-81008950D01*
X87080928Y-81008950D02*
X87047594Y-81075616D01*
X87047594Y-81075616D02*
X87047594Y-81142283D01*
X87047594Y-81142283D02*
X87080928Y-81242283D01*
X87080928Y-81242283D02*
X87480928Y-81642283D01*
X87480928Y-81642283D02*
X87047594Y-81642283D01*
X89853217Y-78521106D02*
X90186550Y-78521106D01*
X90186550Y-78521106D02*
X90219883Y-78854439D01*
X90219883Y-78854439D02*
X90186550Y-78821106D01*
X90186550Y-78821106D02*
X90119883Y-78787773D01*
X90119883Y-78787773D02*
X89953217Y-78787773D01*
X89953217Y-78787773D02*
X89886550Y-78821106D01*
X89886550Y-78821106D02*
X89853217Y-78854439D01*
X89853217Y-78854439D02*
X89819883Y-78921106D01*
X89819883Y-78921106D02*
X89819883Y-79087773D01*
X89819883Y-79087773D02*
X89853217Y-79154439D01*
X89853217Y-79154439D02*
X89886550Y-79187773D01*
X89886550Y-79187773D02*
X89953217Y-79221106D01*
X89953217Y-79221106D02*
X90119883Y-79221106D01*
X90119883Y-79221106D02*
X90186550Y-79187773D01*
X90186550Y-79187773D02*
X90219883Y-79154439D01*
X89486550Y-79221106D02*
X89353216Y-79221106D01*
X89353216Y-79221106D02*
X89286550Y-79187773D01*
X89286550Y-79187773D02*
X89253216Y-79154439D01*
X89253216Y-79154439D02*
X89186550Y-79054439D01*
X89186550Y-79054439D02*
X89153216Y-78921106D01*
X89153216Y-78921106D02*
X89153216Y-78654439D01*
X89153216Y-78654439D02*
X89186550Y-78587773D01*
X89186550Y-78587773D02*
X89219883Y-78554439D01*
X89219883Y-78554439D02*
X89286550Y-78521106D01*
X89286550Y-78521106D02*
X89419883Y-78521106D01*
X89419883Y-78521106D02*
X89486550Y-78554439D01*
X89486550Y-78554439D02*
X89519883Y-78587773D01*
X89519883Y-78587773D02*
X89553216Y-78654439D01*
X89553216Y-78654439D02*
X89553216Y-78821106D01*
X89553216Y-78821106D02*
X89519883Y-78887773D01*
X89519883Y-78887773D02*
X89486550Y-78921106D01*
X89486550Y-78921106D02*
X89419883Y-78954439D01*
X89419883Y-78954439D02*
X89286550Y-78954439D01*
X89286550Y-78954439D02*
X89219883Y-78921106D01*
X89219883Y-78921106D02*
X89186550Y-78887773D01*
X89186550Y-78887773D02*
X89153216Y-78821106D01*
X88519883Y-78521106D02*
X88853216Y-78521106D01*
X88853216Y-78521106D02*
X88886549Y-78854439D01*
X88886549Y-78854439D02*
X88853216Y-78821106D01*
X88853216Y-78821106D02*
X88786549Y-78787773D01*
X88786549Y-78787773D02*
X88619883Y-78787773D01*
X88619883Y-78787773D02*
X88553216Y-78821106D01*
X88553216Y-78821106D02*
X88519883Y-78854439D01*
X88519883Y-78854439D02*
X88486549Y-78921106D01*
X88486549Y-78921106D02*
X88486549Y-79087773D01*
X88486549Y-79087773D02*
X88519883Y-79154439D01*
X88519883Y-79154439D02*
X88553216Y-79187773D01*
X88553216Y-79187773D02*
X88619883Y-79221106D01*
X88619883Y-79221106D02*
X88786549Y-79221106D01*
X88786549Y-79221106D02*
X88853216Y-79187773D01*
X88853216Y-79187773D02*
X88886549Y-79154439D01*
X87686549Y-78487773D02*
X88286549Y-79387773D01*
X87419883Y-79221106D02*
X87286549Y-79221106D01*
X87286549Y-79221106D02*
X87219883Y-79187773D01*
X87219883Y-79187773D02*
X87186549Y-79154439D01*
X87186549Y-79154439D02*
X87119883Y-79054439D01*
X87119883Y-79054439D02*
X87086549Y-78921106D01*
X87086549Y-78921106D02*
X87086549Y-78654439D01*
X87086549Y-78654439D02*
X87119883Y-78587773D01*
X87119883Y-78587773D02*
X87153216Y-78554439D01*
X87153216Y-78554439D02*
X87219883Y-78521106D01*
X87219883Y-78521106D02*
X87353216Y-78521106D01*
X87353216Y-78521106D02*
X87419883Y-78554439D01*
X87419883Y-78554439D02*
X87453216Y-78587773D01*
X87453216Y-78587773D02*
X87486549Y-78654439D01*
X87486549Y-78654439D02*
X87486549Y-78821106D01*
X87486549Y-78821106D02*
X87453216Y-78887773D01*
X87453216Y-78887773D02*
X87419883Y-78921106D01*
X87419883Y-78921106D02*
X87353216Y-78954439D01*
X87353216Y-78954439D02*
X87219883Y-78954439D01*
X87219883Y-78954439D02*
X87153216Y-78921106D01*
X87153216Y-78921106D02*
X87119883Y-78887773D01*
X87119883Y-78887773D02*
X87086549Y-78821106D01*
X90501399Y-76656453D02*
X90901399Y-76656453D01*
X90701399Y-76656453D02*
X90701399Y-75956453D01*
X90701399Y-75956453D02*
X90768066Y-76056453D01*
X90768066Y-76056453D02*
X90834733Y-76123120D01*
X90834733Y-76123120D02*
X90901399Y-76156453D01*
X89901399Y-75956453D02*
X90034732Y-75956453D01*
X90034732Y-75956453D02*
X90101399Y-75989786D01*
X90101399Y-75989786D02*
X90134732Y-76023120D01*
X90134732Y-76023120D02*
X90201399Y-76123120D01*
X90201399Y-76123120D02*
X90234732Y-76256453D01*
X90234732Y-76256453D02*
X90234732Y-76523120D01*
X90234732Y-76523120D02*
X90201399Y-76589786D01*
X90201399Y-76589786D02*
X90168066Y-76623120D01*
X90168066Y-76623120D02*
X90101399Y-76656453D01*
X90101399Y-76656453D02*
X89968066Y-76656453D01*
X89968066Y-76656453D02*
X89901399Y-76623120D01*
X89901399Y-76623120D02*
X89868066Y-76589786D01*
X89868066Y-76589786D02*
X89834732Y-76523120D01*
X89834732Y-76523120D02*
X89834732Y-76356453D01*
X89834732Y-76356453D02*
X89868066Y-76289786D01*
X89868066Y-76289786D02*
X89901399Y-76256453D01*
X89901399Y-76256453D02*
X89968066Y-76223120D01*
X89968066Y-76223120D02*
X90101399Y-76223120D01*
X90101399Y-76223120D02*
X90168066Y-76256453D01*
X90168066Y-76256453D02*
X90201399Y-76289786D01*
X90201399Y-76289786D02*
X90234732Y-76356453D01*
X89201399Y-75956453D02*
X89534732Y-75956453D01*
X89534732Y-75956453D02*
X89568065Y-76289786D01*
X89568065Y-76289786D02*
X89534732Y-76256453D01*
X89534732Y-76256453D02*
X89468065Y-76223120D01*
X89468065Y-76223120D02*
X89301399Y-76223120D01*
X89301399Y-76223120D02*
X89234732Y-76256453D01*
X89234732Y-76256453D02*
X89201399Y-76289786D01*
X89201399Y-76289786D02*
X89168065Y-76356453D01*
X89168065Y-76356453D02*
X89168065Y-76523120D01*
X89168065Y-76523120D02*
X89201399Y-76589786D01*
X89201399Y-76589786D02*
X89234732Y-76623120D01*
X89234732Y-76623120D02*
X89301399Y-76656453D01*
X89301399Y-76656453D02*
X89468065Y-76656453D01*
X89468065Y-76656453D02*
X89534732Y-76623120D01*
X89534732Y-76623120D02*
X89568065Y-76589786D01*
X88368065Y-75923120D02*
X88968065Y-76823120D01*
X87768065Y-76656453D02*
X88168065Y-76656453D01*
X87968065Y-76656453D02*
X87968065Y-75956453D01*
X87968065Y-75956453D02*
X88034732Y-76056453D01*
X88034732Y-76056453D02*
X88101399Y-76123120D01*
X88101399Y-76123120D02*
X88168065Y-76156453D01*
X87334732Y-75956453D02*
X87268065Y-75956453D01*
X87268065Y-75956453D02*
X87201398Y-75989786D01*
X87201398Y-75989786D02*
X87168065Y-76023120D01*
X87168065Y-76023120D02*
X87134732Y-76089786D01*
X87134732Y-76089786D02*
X87101398Y-76223120D01*
X87101398Y-76223120D02*
X87101398Y-76389786D01*
X87101398Y-76389786D02*
X87134732Y-76523120D01*
X87134732Y-76523120D02*
X87168065Y-76589786D01*
X87168065Y-76589786D02*
X87201398Y-76623120D01*
X87201398Y-76623120D02*
X87268065Y-76656453D01*
X87268065Y-76656453D02*
X87334732Y-76656453D01*
X87334732Y-76656453D02*
X87401398Y-76623120D01*
X87401398Y-76623120D02*
X87434732Y-76589786D01*
X87434732Y-76589786D02*
X87468065Y-76523120D01*
X87468065Y-76523120D02*
X87501398Y-76389786D01*
X87501398Y-76389786D02*
X87501398Y-76223120D01*
X87501398Y-76223120D02*
X87468065Y-76089786D01*
X87468065Y-76089786D02*
X87434732Y-76023120D01*
X87434732Y-76023120D02*
X87401398Y-75989786D01*
X87401398Y-75989786D02*
X87334732Y-75956453D01*
X89891622Y-74127668D02*
X90291622Y-74127668D01*
X90091622Y-74127668D02*
X90091622Y-73427668D01*
X90091622Y-73427668D02*
X90158289Y-73527668D01*
X90158289Y-73527668D02*
X90224956Y-73594335D01*
X90224956Y-73594335D02*
X90291622Y-73627668D01*
X89291622Y-73427668D02*
X89424955Y-73427668D01*
X89424955Y-73427668D02*
X89491622Y-73461001D01*
X89491622Y-73461001D02*
X89524955Y-73494335D01*
X89524955Y-73494335D02*
X89591622Y-73594335D01*
X89591622Y-73594335D02*
X89624955Y-73727668D01*
X89624955Y-73727668D02*
X89624955Y-73994335D01*
X89624955Y-73994335D02*
X89591622Y-74061001D01*
X89591622Y-74061001D02*
X89558289Y-74094335D01*
X89558289Y-74094335D02*
X89491622Y-74127668D01*
X89491622Y-74127668D02*
X89358289Y-74127668D01*
X89358289Y-74127668D02*
X89291622Y-74094335D01*
X89291622Y-74094335D02*
X89258289Y-74061001D01*
X89258289Y-74061001D02*
X89224955Y-73994335D01*
X89224955Y-73994335D02*
X89224955Y-73827668D01*
X89224955Y-73827668D02*
X89258289Y-73761001D01*
X89258289Y-73761001D02*
X89291622Y-73727668D01*
X89291622Y-73727668D02*
X89358289Y-73694335D01*
X89358289Y-73694335D02*
X89491622Y-73694335D01*
X89491622Y-73694335D02*
X89558289Y-73727668D01*
X89558289Y-73727668D02*
X89591622Y-73761001D01*
X89591622Y-73761001D02*
X89624955Y-73827668D01*
X88591622Y-73427668D02*
X88924955Y-73427668D01*
X88924955Y-73427668D02*
X88958288Y-73761001D01*
X88958288Y-73761001D02*
X88924955Y-73727668D01*
X88924955Y-73727668D02*
X88858288Y-73694335D01*
X88858288Y-73694335D02*
X88691622Y-73694335D01*
X88691622Y-73694335D02*
X88624955Y-73727668D01*
X88624955Y-73727668D02*
X88591622Y-73761001D01*
X88591622Y-73761001D02*
X88558288Y-73827668D01*
X88558288Y-73827668D02*
X88558288Y-73994335D01*
X88558288Y-73994335D02*
X88591622Y-74061001D01*
X88591622Y-74061001D02*
X88624955Y-74094335D01*
X88624955Y-74094335D02*
X88691622Y-74127668D01*
X88691622Y-74127668D02*
X88858288Y-74127668D01*
X88858288Y-74127668D02*
X88924955Y-74094335D01*
X88924955Y-74094335D02*
X88958288Y-74061001D01*
X87758288Y-73394335D02*
X88358288Y-74294335D01*
X87558288Y-73494335D02*
X87524955Y-73461001D01*
X87524955Y-73461001D02*
X87458288Y-73427668D01*
X87458288Y-73427668D02*
X87291622Y-73427668D01*
X87291622Y-73427668D02*
X87224955Y-73461001D01*
X87224955Y-73461001D02*
X87191622Y-73494335D01*
X87191622Y-73494335D02*
X87158288Y-73561001D01*
X87158288Y-73561001D02*
X87158288Y-73627668D01*
X87158288Y-73627668D02*
X87191622Y-73727668D01*
X87191622Y-73727668D02*
X87591622Y-74127668D01*
X87591622Y-74127668D02*
X87158288Y-74127668D01*
X71570393Y-83829943D02*
X71570393Y-84296610D01*
X71570393Y-83896610D02*
X71537060Y-83863277D01*
X71537060Y-83863277D02*
X71470393Y-83829943D01*
X71470393Y-83829943D02*
X71370393Y-83829943D01*
X71370393Y-83829943D02*
X71303726Y-83863277D01*
X71303726Y-83863277D02*
X71270393Y-83929943D01*
X71270393Y-83929943D02*
X71270393Y-84296610D01*
X70637060Y-84263277D02*
X70703727Y-84296610D01*
X70703727Y-84296610D02*
X70837060Y-84296610D01*
X70837060Y-84296610D02*
X70903727Y-84263277D01*
X70903727Y-84263277D02*
X70937060Y-84229943D01*
X70937060Y-84229943D02*
X70970393Y-84163277D01*
X70970393Y-84163277D02*
X70970393Y-83963277D01*
X70970393Y-83963277D02*
X70937060Y-83896610D01*
X70937060Y-83896610D02*
X70903727Y-83863277D01*
X70903727Y-83863277D02*
X70837060Y-83829943D01*
X70837060Y-83829943D02*
X70703727Y-83829943D01*
X70703727Y-83829943D02*
X70637060Y-83863277D01*
X64934211Y-83709133D02*
X65267544Y-83709133D01*
X65267544Y-83709133D02*
X65300877Y-84042466D01*
X65300877Y-84042466D02*
X65267544Y-84009133D01*
X65267544Y-84009133D02*
X65200877Y-83975800D01*
X65200877Y-83975800D02*
X65034211Y-83975800D01*
X65034211Y-83975800D02*
X64967544Y-84009133D01*
X64967544Y-84009133D02*
X64934211Y-84042466D01*
X64934211Y-84042466D02*
X64900877Y-84109133D01*
X64900877Y-84109133D02*
X64900877Y-84275800D01*
X64900877Y-84275800D02*
X64934211Y-84342466D01*
X64934211Y-84342466D02*
X64967544Y-84375800D01*
X64967544Y-84375800D02*
X65034211Y-84409133D01*
X65034211Y-84409133D02*
X65200877Y-84409133D01*
X65200877Y-84409133D02*
X65267544Y-84375800D01*
X65267544Y-84375800D02*
X65300877Y-84342466D01*
X64567544Y-84409133D02*
X64434210Y-84409133D01*
X64434210Y-84409133D02*
X64367544Y-84375800D01*
X64367544Y-84375800D02*
X64334210Y-84342466D01*
X64334210Y-84342466D02*
X64267544Y-84242466D01*
X64267544Y-84242466D02*
X64234210Y-84109133D01*
X64234210Y-84109133D02*
X64234210Y-83842466D01*
X64234210Y-83842466D02*
X64267544Y-83775800D01*
X64267544Y-83775800D02*
X64300877Y-83742466D01*
X64300877Y-83742466D02*
X64367544Y-83709133D01*
X64367544Y-83709133D02*
X64500877Y-83709133D01*
X64500877Y-83709133D02*
X64567544Y-83742466D01*
X64567544Y-83742466D02*
X64600877Y-83775800D01*
X64600877Y-83775800D02*
X64634210Y-83842466D01*
X64634210Y-83842466D02*
X64634210Y-84009133D01*
X64634210Y-84009133D02*
X64600877Y-84075800D01*
X64600877Y-84075800D02*
X64567544Y-84109133D01*
X64567544Y-84109133D02*
X64500877Y-84142466D01*
X64500877Y-84142466D02*
X64367544Y-84142466D01*
X64367544Y-84142466D02*
X64300877Y-84109133D01*
X64300877Y-84109133D02*
X64267544Y-84075800D01*
X64267544Y-84075800D02*
X64234210Y-84009133D01*
X63600877Y-83709133D02*
X63934210Y-83709133D01*
X63934210Y-83709133D02*
X63967543Y-84042466D01*
X63967543Y-84042466D02*
X63934210Y-84009133D01*
X63934210Y-84009133D02*
X63867543Y-83975800D01*
X63867543Y-83975800D02*
X63700877Y-83975800D01*
X63700877Y-83975800D02*
X63634210Y-84009133D01*
X63634210Y-84009133D02*
X63600877Y-84042466D01*
X63600877Y-84042466D02*
X63567543Y-84109133D01*
X63567543Y-84109133D02*
X63567543Y-84275800D01*
X63567543Y-84275800D02*
X63600877Y-84342466D01*
X63600877Y-84342466D02*
X63634210Y-84375800D01*
X63634210Y-84375800D02*
X63700877Y-84409133D01*
X63700877Y-84409133D02*
X63867543Y-84409133D01*
X63867543Y-84409133D02*
X63934210Y-84375800D01*
X63934210Y-84375800D02*
X63967543Y-84342466D01*
X62767543Y-83675800D02*
X63367543Y-84575800D01*
X62167543Y-84409133D02*
X62567543Y-84409133D01*
X62367543Y-84409133D02*
X62367543Y-83709133D01*
X62367543Y-83709133D02*
X62434210Y-83809133D01*
X62434210Y-83809133D02*
X62500877Y-83875800D01*
X62500877Y-83875800D02*
X62567543Y-83909133D01*
X61500876Y-84409133D02*
X61900876Y-84409133D01*
X61700876Y-84409133D02*
X61700876Y-83709133D01*
X61700876Y-83709133D02*
X61767543Y-83809133D01*
X61767543Y-83809133D02*
X61834210Y-83875800D01*
X61834210Y-83875800D02*
X61900876Y-83909133D01*
X64934211Y-81209133D02*
X65267544Y-81209133D01*
X65267544Y-81209133D02*
X65300877Y-81542466D01*
X65300877Y-81542466D02*
X65267544Y-81509133D01*
X65267544Y-81509133D02*
X65200877Y-81475800D01*
X65200877Y-81475800D02*
X65034211Y-81475800D01*
X65034211Y-81475800D02*
X64967544Y-81509133D01*
X64967544Y-81509133D02*
X64934211Y-81542466D01*
X64934211Y-81542466D02*
X64900877Y-81609133D01*
X64900877Y-81609133D02*
X64900877Y-81775800D01*
X64900877Y-81775800D02*
X64934211Y-81842466D01*
X64934211Y-81842466D02*
X64967544Y-81875800D01*
X64967544Y-81875800D02*
X65034211Y-81909133D01*
X65034211Y-81909133D02*
X65200877Y-81909133D01*
X65200877Y-81909133D02*
X65267544Y-81875800D01*
X65267544Y-81875800D02*
X65300877Y-81842466D01*
X64567544Y-81909133D02*
X64434210Y-81909133D01*
X64434210Y-81909133D02*
X64367544Y-81875800D01*
X64367544Y-81875800D02*
X64334210Y-81842466D01*
X64334210Y-81842466D02*
X64267544Y-81742466D01*
X64267544Y-81742466D02*
X64234210Y-81609133D01*
X64234210Y-81609133D02*
X64234210Y-81342466D01*
X64234210Y-81342466D02*
X64267544Y-81275800D01*
X64267544Y-81275800D02*
X64300877Y-81242466D01*
X64300877Y-81242466D02*
X64367544Y-81209133D01*
X64367544Y-81209133D02*
X64500877Y-81209133D01*
X64500877Y-81209133D02*
X64567544Y-81242466D01*
X64567544Y-81242466D02*
X64600877Y-81275800D01*
X64600877Y-81275800D02*
X64634210Y-81342466D01*
X64634210Y-81342466D02*
X64634210Y-81509133D01*
X64634210Y-81509133D02*
X64600877Y-81575800D01*
X64600877Y-81575800D02*
X64567544Y-81609133D01*
X64567544Y-81609133D02*
X64500877Y-81642466D01*
X64500877Y-81642466D02*
X64367544Y-81642466D01*
X64367544Y-81642466D02*
X64300877Y-81609133D01*
X64300877Y-81609133D02*
X64267544Y-81575800D01*
X64267544Y-81575800D02*
X64234210Y-81509133D01*
X63600877Y-81209133D02*
X63934210Y-81209133D01*
X63934210Y-81209133D02*
X63967543Y-81542466D01*
X63967543Y-81542466D02*
X63934210Y-81509133D01*
X63934210Y-81509133D02*
X63867543Y-81475800D01*
X63867543Y-81475800D02*
X63700877Y-81475800D01*
X63700877Y-81475800D02*
X63634210Y-81509133D01*
X63634210Y-81509133D02*
X63600877Y-81542466D01*
X63600877Y-81542466D02*
X63567543Y-81609133D01*
X63567543Y-81609133D02*
X63567543Y-81775800D01*
X63567543Y-81775800D02*
X63600877Y-81842466D01*
X63600877Y-81842466D02*
X63634210Y-81875800D01*
X63634210Y-81875800D02*
X63700877Y-81909133D01*
X63700877Y-81909133D02*
X63867543Y-81909133D01*
X63867543Y-81909133D02*
X63934210Y-81875800D01*
X63934210Y-81875800D02*
X63967543Y-81842466D01*
X62767543Y-81175800D02*
X63367543Y-82075800D01*
X62167543Y-81909133D02*
X62567543Y-81909133D01*
X62367543Y-81909133D02*
X62367543Y-81209133D01*
X62367543Y-81209133D02*
X62434210Y-81309133D01*
X62434210Y-81309133D02*
X62500877Y-81375800D01*
X62500877Y-81375800D02*
X62567543Y-81409133D01*
X61567543Y-81442466D02*
X61567543Y-81909133D01*
X61734210Y-81175800D02*
X61900876Y-81675800D01*
X61900876Y-81675800D02*
X61467543Y-81675800D01*
X64900877Y-79409133D02*
X65300877Y-79409133D01*
X65100877Y-79409133D02*
X65100877Y-78709133D01*
X65100877Y-78709133D02*
X65167544Y-78809133D01*
X65167544Y-78809133D02*
X65234211Y-78875800D01*
X65234211Y-78875800D02*
X65300877Y-78909133D01*
X64300877Y-78709133D02*
X64434210Y-78709133D01*
X64434210Y-78709133D02*
X64500877Y-78742466D01*
X64500877Y-78742466D02*
X64534210Y-78775800D01*
X64534210Y-78775800D02*
X64600877Y-78875800D01*
X64600877Y-78875800D02*
X64634210Y-79009133D01*
X64634210Y-79009133D02*
X64634210Y-79275800D01*
X64634210Y-79275800D02*
X64600877Y-79342466D01*
X64600877Y-79342466D02*
X64567544Y-79375800D01*
X64567544Y-79375800D02*
X64500877Y-79409133D01*
X64500877Y-79409133D02*
X64367544Y-79409133D01*
X64367544Y-79409133D02*
X64300877Y-79375800D01*
X64300877Y-79375800D02*
X64267544Y-79342466D01*
X64267544Y-79342466D02*
X64234210Y-79275800D01*
X64234210Y-79275800D02*
X64234210Y-79109133D01*
X64234210Y-79109133D02*
X64267544Y-79042466D01*
X64267544Y-79042466D02*
X64300877Y-79009133D01*
X64300877Y-79009133D02*
X64367544Y-78975800D01*
X64367544Y-78975800D02*
X64500877Y-78975800D01*
X64500877Y-78975800D02*
X64567544Y-79009133D01*
X64567544Y-79009133D02*
X64600877Y-79042466D01*
X64600877Y-79042466D02*
X64634210Y-79109133D01*
X63600877Y-78709133D02*
X63934210Y-78709133D01*
X63934210Y-78709133D02*
X63967543Y-79042466D01*
X63967543Y-79042466D02*
X63934210Y-79009133D01*
X63934210Y-79009133D02*
X63867543Y-78975800D01*
X63867543Y-78975800D02*
X63700877Y-78975800D01*
X63700877Y-78975800D02*
X63634210Y-79009133D01*
X63634210Y-79009133D02*
X63600877Y-79042466D01*
X63600877Y-79042466D02*
X63567543Y-79109133D01*
X63567543Y-79109133D02*
X63567543Y-79275800D01*
X63567543Y-79275800D02*
X63600877Y-79342466D01*
X63600877Y-79342466D02*
X63634210Y-79375800D01*
X63634210Y-79375800D02*
X63700877Y-79409133D01*
X63700877Y-79409133D02*
X63867543Y-79409133D01*
X63867543Y-79409133D02*
X63934210Y-79375800D01*
X63934210Y-79375800D02*
X63967543Y-79342466D01*
X62767543Y-78675800D02*
X63367543Y-79575800D01*
X62167543Y-79409133D02*
X62567543Y-79409133D01*
X62367543Y-79409133D02*
X62367543Y-78709133D01*
X62367543Y-78709133D02*
X62434210Y-78809133D01*
X62434210Y-78809133D02*
X62500877Y-78875800D01*
X62500877Y-78875800D02*
X62567543Y-78909133D01*
X61534210Y-78709133D02*
X61867543Y-78709133D01*
X61867543Y-78709133D02*
X61900876Y-79042466D01*
X61900876Y-79042466D02*
X61867543Y-79009133D01*
X61867543Y-79009133D02*
X61800876Y-78975800D01*
X61800876Y-78975800D02*
X61634210Y-78975800D01*
X61634210Y-78975800D02*
X61567543Y-79009133D01*
X61567543Y-79009133D02*
X61534210Y-79042466D01*
X61534210Y-79042466D02*
X61500876Y-79109133D01*
X61500876Y-79109133D02*
X61500876Y-79275800D01*
X61500876Y-79275800D02*
X61534210Y-79342466D01*
X61534210Y-79342466D02*
X61567543Y-79375800D01*
X61567543Y-79375800D02*
X61634210Y-79409133D01*
X61634210Y-79409133D02*
X61800876Y-79409133D01*
X61800876Y-79409133D02*
X61867543Y-79375800D01*
X61867543Y-79375800D02*
X61900876Y-79342466D01*
X64900877Y-76909133D02*
X65300877Y-76909133D01*
X65100877Y-76909133D02*
X65100877Y-76209133D01*
X65100877Y-76209133D02*
X65167544Y-76309133D01*
X65167544Y-76309133D02*
X65234211Y-76375800D01*
X65234211Y-76375800D02*
X65300877Y-76409133D01*
X64300877Y-76209133D02*
X64434210Y-76209133D01*
X64434210Y-76209133D02*
X64500877Y-76242466D01*
X64500877Y-76242466D02*
X64534210Y-76275800D01*
X64534210Y-76275800D02*
X64600877Y-76375800D01*
X64600877Y-76375800D02*
X64634210Y-76509133D01*
X64634210Y-76509133D02*
X64634210Y-76775800D01*
X64634210Y-76775800D02*
X64600877Y-76842466D01*
X64600877Y-76842466D02*
X64567544Y-76875800D01*
X64567544Y-76875800D02*
X64500877Y-76909133D01*
X64500877Y-76909133D02*
X64367544Y-76909133D01*
X64367544Y-76909133D02*
X64300877Y-76875800D01*
X64300877Y-76875800D02*
X64267544Y-76842466D01*
X64267544Y-76842466D02*
X64234210Y-76775800D01*
X64234210Y-76775800D02*
X64234210Y-76609133D01*
X64234210Y-76609133D02*
X64267544Y-76542466D01*
X64267544Y-76542466D02*
X64300877Y-76509133D01*
X64300877Y-76509133D02*
X64367544Y-76475800D01*
X64367544Y-76475800D02*
X64500877Y-76475800D01*
X64500877Y-76475800D02*
X64567544Y-76509133D01*
X64567544Y-76509133D02*
X64600877Y-76542466D01*
X64600877Y-76542466D02*
X64634210Y-76609133D01*
X63600877Y-76209133D02*
X63934210Y-76209133D01*
X63934210Y-76209133D02*
X63967543Y-76542466D01*
X63967543Y-76542466D02*
X63934210Y-76509133D01*
X63934210Y-76509133D02*
X63867543Y-76475800D01*
X63867543Y-76475800D02*
X63700877Y-76475800D01*
X63700877Y-76475800D02*
X63634210Y-76509133D01*
X63634210Y-76509133D02*
X63600877Y-76542466D01*
X63600877Y-76542466D02*
X63567543Y-76609133D01*
X63567543Y-76609133D02*
X63567543Y-76775800D01*
X63567543Y-76775800D02*
X63600877Y-76842466D01*
X63600877Y-76842466D02*
X63634210Y-76875800D01*
X63634210Y-76875800D02*
X63700877Y-76909133D01*
X63700877Y-76909133D02*
X63867543Y-76909133D01*
X63867543Y-76909133D02*
X63934210Y-76875800D01*
X63934210Y-76875800D02*
X63967543Y-76842466D01*
X62767543Y-76175800D02*
X63367543Y-77075800D01*
X62500877Y-76909133D02*
X62367543Y-76909133D01*
X62367543Y-76909133D02*
X62300877Y-76875800D01*
X62300877Y-76875800D02*
X62267543Y-76842466D01*
X62267543Y-76842466D02*
X62200877Y-76742466D01*
X62200877Y-76742466D02*
X62167543Y-76609133D01*
X62167543Y-76609133D02*
X62167543Y-76342466D01*
X62167543Y-76342466D02*
X62200877Y-76275800D01*
X62200877Y-76275800D02*
X62234210Y-76242466D01*
X62234210Y-76242466D02*
X62300877Y-76209133D01*
X62300877Y-76209133D02*
X62434210Y-76209133D01*
X62434210Y-76209133D02*
X62500877Y-76242466D01*
X62500877Y-76242466D02*
X62534210Y-76275800D01*
X62534210Y-76275800D02*
X62567543Y-76342466D01*
X62567543Y-76342466D02*
X62567543Y-76509133D01*
X62567543Y-76509133D02*
X62534210Y-76575800D01*
X62534210Y-76575800D02*
X62500877Y-76609133D01*
X62500877Y-76609133D02*
X62434210Y-76642466D01*
X62434210Y-76642466D02*
X62300877Y-76642466D01*
X62300877Y-76642466D02*
X62234210Y-76609133D01*
X62234210Y-76609133D02*
X62200877Y-76575800D01*
X62200877Y-76575800D02*
X62167543Y-76509133D01*
X64900877Y-74409133D02*
X65300877Y-74409133D01*
X65100877Y-74409133D02*
X65100877Y-73709133D01*
X65100877Y-73709133D02*
X65167544Y-73809133D01*
X65167544Y-73809133D02*
X65234211Y-73875800D01*
X65234211Y-73875800D02*
X65300877Y-73909133D01*
X64300877Y-73709133D02*
X64434210Y-73709133D01*
X64434210Y-73709133D02*
X64500877Y-73742466D01*
X64500877Y-73742466D02*
X64534210Y-73775800D01*
X64534210Y-73775800D02*
X64600877Y-73875800D01*
X64600877Y-73875800D02*
X64634210Y-74009133D01*
X64634210Y-74009133D02*
X64634210Y-74275800D01*
X64634210Y-74275800D02*
X64600877Y-74342466D01*
X64600877Y-74342466D02*
X64567544Y-74375800D01*
X64567544Y-74375800D02*
X64500877Y-74409133D01*
X64500877Y-74409133D02*
X64367544Y-74409133D01*
X64367544Y-74409133D02*
X64300877Y-74375800D01*
X64300877Y-74375800D02*
X64267544Y-74342466D01*
X64267544Y-74342466D02*
X64234210Y-74275800D01*
X64234210Y-74275800D02*
X64234210Y-74109133D01*
X64234210Y-74109133D02*
X64267544Y-74042466D01*
X64267544Y-74042466D02*
X64300877Y-74009133D01*
X64300877Y-74009133D02*
X64367544Y-73975800D01*
X64367544Y-73975800D02*
X64500877Y-73975800D01*
X64500877Y-73975800D02*
X64567544Y-74009133D01*
X64567544Y-74009133D02*
X64600877Y-74042466D01*
X64600877Y-74042466D02*
X64634210Y-74109133D01*
X63600877Y-73709133D02*
X63934210Y-73709133D01*
X63934210Y-73709133D02*
X63967543Y-74042466D01*
X63967543Y-74042466D02*
X63934210Y-74009133D01*
X63934210Y-74009133D02*
X63867543Y-73975800D01*
X63867543Y-73975800D02*
X63700877Y-73975800D01*
X63700877Y-73975800D02*
X63634210Y-74009133D01*
X63634210Y-74009133D02*
X63600877Y-74042466D01*
X63600877Y-74042466D02*
X63567543Y-74109133D01*
X63567543Y-74109133D02*
X63567543Y-74275800D01*
X63567543Y-74275800D02*
X63600877Y-74342466D01*
X63600877Y-74342466D02*
X63634210Y-74375800D01*
X63634210Y-74375800D02*
X63700877Y-74409133D01*
X63700877Y-74409133D02*
X63867543Y-74409133D01*
X63867543Y-74409133D02*
X63934210Y-74375800D01*
X63934210Y-74375800D02*
X63967543Y-74342466D01*
X62767543Y-73675800D02*
X63367543Y-74575800D01*
X62167543Y-74409133D02*
X62567543Y-74409133D01*
X62367543Y-74409133D02*
X62367543Y-73709133D01*
X62367543Y-73709133D02*
X62434210Y-73809133D01*
X62434210Y-73809133D02*
X62500877Y-73875800D01*
X62500877Y-73875800D02*
X62567543Y-73909133D01*
M02*
