%TF.GenerationSoftware,KiCad,Pcbnew,9.0.3*%
%TF.CreationDate,2025-07-28T16:49:36+02:00*%
%TF.ProjectId,bus board,62757320-626f-4617-9264-2e6b69636164,rev?*%
%TF.SameCoordinates,Original*%
%TF.FileFunction,Soldermask,Top*%
%TF.FilePolarity,Negative*%
%FSLAX46Y46*%
G04 Gerber Fmt 4.6, Leading zero omitted, Abs format (unit mm)*
G04 Created by KiCad (PCBNEW 9.0.3) date 2025-07-28 16:49:36*
%MOMM*%
%LPD*%
G01*
G04 APERTURE LIST*
G04 Aperture macros list*
%AMRoundRect*
0 Rectangle with rounded corners*
0 $1 Rounding radius*
0 $2 $3 $4 $5 $6 $7 $8 $9 X,Y pos of 4 corners*
0 Add a 4 corners polygon primitive as box body*
4,1,4,$2,$3,$4,$5,$6,$7,$8,$9,$2,$3,0*
0 Add four circle primitives for the rounded corners*
1,1,$1+$1,$2,$3*
1,1,$1+$1,$4,$5*
1,1,$1+$1,$6,$7*
1,1,$1+$1,$8,$9*
0 Add four rect primitives between the rounded corners*
20,1,$1+$1,$2,$3,$4,$5,0*
20,1,$1+$1,$4,$5,$6,$7,0*
20,1,$1+$1,$6,$7,$8,$9,0*
20,1,$1+$1,$8,$9,$2,$3,0*%
G04 Aperture macros list end*
%ADD10C,2.200000*%
%ADD11R,1.700000X1.700000*%
%ADD12C,1.700000*%
%ADD13RoundRect,0.250000X-0.600000X-0.600000X0.600000X-0.600000X0.600000X0.600000X-0.600000X0.600000X0*%
G04 APERTURE END LIST*
D10*
%TO.C,REF\u002A\u002A*%
X160000000Y-63500000D03*
%TD*%
%TO.C,REF\u002A\u002A*%
X160000000Y-99500000D03*
%TD*%
%TO.C,REF\u002A\u002A*%
X60500000Y-100500000D03*
%TD*%
%TO.C,REF\u002A\u002A*%
X60500000Y-64000000D03*
%TD*%
D11*
%TO.C,J18*%
X155000000Y-95725000D03*
D12*
X155000000Y-98265000D03*
%TD*%
D11*
%TO.C,J16*%
X145000000Y-95500000D03*
D12*
X145000000Y-98040000D03*
%TD*%
D11*
%TO.C,J14*%
X135000000Y-95500000D03*
D12*
X135000000Y-98040000D03*
%TD*%
D11*
%TO.C,J12*%
X125000000Y-95500000D03*
D12*
X125000000Y-98040000D03*
%TD*%
D11*
%TO.C,J11*%
X114500000Y-95500000D03*
D12*
X114500000Y-98040000D03*
%TD*%
D11*
%TO.C,J9*%
X104500000Y-95725000D03*
D12*
X104500000Y-98265000D03*
%TD*%
D11*
%TO.C,J7*%
X94500000Y-96000000D03*
D12*
X94500000Y-98540000D03*
%TD*%
D11*
%TO.C,J5*%
X84370000Y-95725000D03*
D12*
X84370000Y-98265000D03*
%TD*%
D11*
%TO.C,J2*%
X69000000Y-95500000D03*
D12*
X69000000Y-98040000D03*
%TD*%
%TO.C,J17*%
X156000000Y-84040000D03*
X153460000Y-84040000D03*
X156000000Y-81500000D03*
X153460000Y-81500000D03*
X156000000Y-78960000D03*
X153460000Y-78960000D03*
X156000000Y-76420000D03*
X153460000Y-76420000D03*
X156000000Y-73880000D03*
D11*
X153460000Y-73880000D03*
%TD*%
%TO.C,J13*%
X133500000Y-73920000D03*
D12*
X136040000Y-73920000D03*
X133500000Y-76460000D03*
X136040000Y-76460000D03*
X133500000Y-79000000D03*
X136040000Y-79000000D03*
X133500000Y-81540000D03*
X136040000Y-81540000D03*
X133500000Y-84080000D03*
X136040000Y-84080000D03*
%TD*%
D11*
%TO.C,J10*%
X123500000Y-73880000D03*
D12*
X126040000Y-73880000D03*
X123500000Y-76420000D03*
X126040000Y-76420000D03*
X123500000Y-78960000D03*
X126040000Y-78960000D03*
X123500000Y-81500000D03*
X126040000Y-81500000D03*
X123500000Y-84040000D03*
X126040000Y-84040000D03*
%TD*%
D11*
%TO.C,J4*%
X93225000Y-73760000D03*
D12*
X95765000Y-73760000D03*
X93225000Y-76300000D03*
X95765000Y-76300000D03*
X93225000Y-78840000D03*
X95765000Y-78840000D03*
X93225000Y-81380000D03*
X95765000Y-81380000D03*
X93225000Y-83920000D03*
X95765000Y-83920000D03*
%TD*%
D11*
%TO.C,J8*%
X113460000Y-73840000D03*
D12*
X116000000Y-73840000D03*
X113460000Y-76380000D03*
X116000000Y-76380000D03*
X113460000Y-78920000D03*
X116000000Y-78920000D03*
X113460000Y-81460000D03*
X116000000Y-81460000D03*
X113460000Y-84000000D03*
X116000000Y-84000000D03*
%TD*%
D13*
%TO.C,J1*%
X66960000Y-73840000D03*
D12*
X69500000Y-73840000D03*
X66960000Y-76380000D03*
X69500000Y-76380000D03*
X66960000Y-78920000D03*
X69500000Y-78920000D03*
X66960000Y-81460000D03*
X69500000Y-81460000D03*
X66960000Y-84000000D03*
X69500000Y-84000000D03*
%TD*%
%TO.C,J3*%
X86040000Y-83920000D03*
X83500000Y-83920000D03*
X86040000Y-81380000D03*
X83500000Y-81380000D03*
X86040000Y-78840000D03*
X83500000Y-78840000D03*
X86040000Y-76300000D03*
X83500000Y-76300000D03*
X86040000Y-73760000D03*
D11*
X83500000Y-73760000D03*
%TD*%
%TO.C,J6*%
X103460000Y-73840000D03*
D12*
X106000000Y-73840000D03*
X103460000Y-76380000D03*
X106000000Y-76380000D03*
X103460000Y-78920000D03*
X106000000Y-78920000D03*
X103460000Y-81460000D03*
X106000000Y-81460000D03*
X103460000Y-84000000D03*
X106000000Y-84000000D03*
%TD*%
%TO.C,J15*%
X146265000Y-84080000D03*
X143725000Y-84080000D03*
X146265000Y-81540000D03*
X143725000Y-81540000D03*
X146265000Y-79000000D03*
X143725000Y-79000000D03*
X146265000Y-76460000D03*
X143725000Y-76460000D03*
X146265000Y-73920000D03*
D11*
X143725000Y-73920000D03*
%TD*%
M02*
