M48
; DRILL file {KiCad 9.0.3} date 2025-07-28T16:49:34+0200
; FORMAT={-:-/ absolute / metric / decimal}
; #@! TF.CreationDate,2025-07-28T16:49:34+02:00
; #@! TF.GenerationSoftware,Kicad,Pcbnew,9.0.3
; #@! TF.FileFunction,Plated,1,2,PTH
FMAT,2
METRIC
; #@! TA.AperFunction,Plated,PTH,ComponentDrill
T1C1.000
%
G90
G05
T1
X66.96Y-73.84
X66.96Y-76.38
X66.96Y-78.92
X66.96Y-81.46
X66.96Y-84.0
X69.0Y-95.5
X69.0Y-98.04
X69.5Y-73.84
X69.5Y-76.38
X69.5Y-78.92
X69.5Y-81.46
X69.5Y-84.0
X83.5Y-73.76
X83.5Y-76.3
X83.5Y-78.84
X83.5Y-81.38
X83.5Y-83.92
X84.37Y-95.725
X84.37Y-98.265
X86.04Y-73.76
X86.04Y-76.3
X86.04Y-78.84
X86.04Y-81.38
X86.04Y-83.92
X93.225Y-73.76
X93.225Y-76.3
X93.225Y-78.84
X93.225Y-81.38
X93.225Y-83.92
X94.5Y-96.0
X94.5Y-98.54
X95.765Y-73.76
X95.765Y-76.3
X95.765Y-78.84
X95.765Y-81.38
X95.765Y-83.92
X103.46Y-73.84
X103.46Y-76.38
X103.46Y-78.92
X103.46Y-81.46
X103.46Y-84.0
X104.5Y-95.725
X104.5Y-98.265
X106.0Y-73.84
X106.0Y-76.38
X106.0Y-78.92
X106.0Y-81.46
X106.0Y-84.0
X113.46Y-73.84
X113.46Y-76.38
X113.46Y-78.92
X113.46Y-81.46
X113.46Y-84.0
X114.5Y-95.5
X114.5Y-98.04
X116.0Y-73.84
X116.0Y-76.38
X116.0Y-78.92
X116.0Y-81.46
X116.0Y-84.0
X123.5Y-73.88
X123.5Y-76.42
X123.5Y-78.96
X123.5Y-81.5
X123.5Y-84.04
X125.0Y-95.5
X125.0Y-98.04
X126.04Y-73.88
X126.04Y-76.42
X126.04Y-78.96
X126.04Y-81.5
X126.04Y-84.04
X133.5Y-73.92
X133.5Y-76.46
X133.5Y-79.0
X133.5Y-81.54
X133.5Y-84.08
X135.0Y-95.5
X135.0Y-98.04
X136.04Y-73.92
X136.04Y-76.46
X136.04Y-79.0
X136.04Y-81.54
X136.04Y-84.08
X143.725Y-73.92
X143.725Y-76.46
X143.725Y-79.0
X143.725Y-81.54
X143.725Y-84.08
X145.0Y-95.5
X145.0Y-98.04
X146.265Y-73.92
X146.265Y-76.46
X146.265Y-79.0
X146.265Y-81.54
X146.265Y-84.08
X153.46Y-73.88
X153.46Y-76.42
X153.46Y-78.96
X153.46Y-81.5
X153.46Y-84.04
X155.0Y-95.725
X155.0Y-98.265
X156.0Y-73.88
X156.0Y-76.42
X156.0Y-78.96
X156.0Y-81.5
X156.0Y-84.04
M30
