M48
; DRILL file {KiCad 9.0.3} date 2025-10-12T21:41:31+0200
; FORMAT={-:-/ absolute / metric / decimal}
; #@! TF.CreationDate,2025-10-12T21:41:31+02:00
; #@! TF.GenerationSoftware,Kicad,Pcbnew,9.0.3
; #@! TF.FileFunction,Plated,1,2,PTH
FMAT,2
METRIC
; #@! TA.AperFunction,Plated,PTH,ViaDrill
T1C0.300
; #@! TA.AperFunction,Plated,PTH,ComponentDrill
T2C0.750
; #@! TA.AperFunction,Plated,PTH,ComponentDrill
T3C0.800
; #@! TA.AperFunction,Plated,PTH,ComponentDrill
T4C0.850
; #@! TA.AperFunction,Plated,PTH,ComponentDrill
T5C1.000
%
G90
G05
T1
X85.5Y-94.0
X86.5Y-90.0
X93.0Y-93.5
X95.0Y-95.5
X98.5Y-94.5
X104.5Y-94.5
X104.859Y-91.656
X105.0Y-88.0
X106.534Y-88.4
X110.0Y-89.5
X111.5Y-92.0
X113.425Y-88.925
X114.0Y-92.15
X114.908Y-92.5
X115.949Y-92.55
X116.0Y-90.5
X117.693Y-91.028
X124.643Y-89.559
X124.69Y-91.659
X125.5Y-81.5
X126.359Y-80.859
X129.648Y-82.394
X130.917Y-82.01
X134.141Y-81.35
X136.5Y-80.95
X139.699Y-80.3
X140.5Y-92.5
X143.0Y-92.15
X143.444Y-90.852
X143.47Y-87.391
X144.5Y-87.85
X144.5Y-92.0
X147.5Y-83.35
X150.5Y-80.3
X152.0Y-96.5
X156.0Y-88.65
X157.5Y-88.0
X157.5Y-89.85
X158.771Y-92.5
X160.5Y-89.0
X160.5Y-90.5
X162.0Y-91.5
X164.0Y-92.15
X164.0Y-94.5
X172.5Y-96.5
X177.0Y-96.5
X192.0Y-87.5
X198.0Y-87.5
X208.0Y-89.0
X208.0Y-95.0
X208.5Y-88.0
T2
X56.0Y-96.64
X57.27Y-96.64
X58.54Y-96.64
X81.96Y-97.5
X83.23Y-97.5
X84.5Y-97.5
X121.96Y-97.5
X123.23Y-97.5
X124.5Y-97.5
X166.46Y-97.5
X167.73Y-97.5
X169.0Y-97.5
X172.23Y-87.0
X173.5Y-87.0
X174.77Y-87.0
T3
X52.0Y-81.955
X52.0Y-84.495
X52.5Y-95.96
X52.5Y-98.5
X56.042Y-81.5
X56.042Y-84.04
X62.0Y-95.955
X62.0Y-98.495
X67.123Y-81.853
X67.123Y-84.393
X78.0Y-81.96
X78.0Y-84.5
X78.369Y-96.67
X78.369Y-99.21
X87.505Y-97.5
X89.0Y-82.005
X89.0Y-84.545
X90.045Y-97.5
X106.96Y-86.19
X106.96Y-93.81
X109.5Y-86.19
X109.5Y-93.81
X110.455Y-97.5
X112.04Y-86.19
X112.04Y-93.81
X112.995Y-97.5
X114.58Y-86.19
X114.58Y-93.81
X116.455Y-97.5
X117.12Y-86.19
X117.12Y-93.81
X118.995Y-97.5
X119.66Y-86.19
X119.66Y-93.81
X122.2Y-86.19
X122.2Y-93.81
X124.74Y-86.19
X124.74Y-93.81
X128.508Y-86.201
X128.508Y-93.821
X130.814Y-96.96
X130.814Y-99.5
X131.048Y-86.201
X131.048Y-93.821
X133.588Y-86.201
X133.588Y-93.821
X134.0Y-96.96
X134.0Y-99.5
X136.128Y-86.201
X136.128Y-93.821
X138.668Y-86.201
X138.668Y-93.821
X139.0Y-96.955
X139.0Y-99.495
X142.367Y-86.257
X142.367Y-93.877
X144.907Y-86.257
X144.907Y-93.877
X147.447Y-86.257
X147.447Y-93.877
X149.987Y-86.257
X149.987Y-93.877
X152.527Y-86.257
X152.527Y-93.877
X155.067Y-86.257
X155.067Y-93.877
X157.607Y-86.257
X157.607Y-93.877
X160.147Y-86.257
X160.147Y-93.877
X166.46Y-93.5
X166.955Y-86.0
X169.0Y-93.5
X169.495Y-86.0
X172.005Y-98.5
X172.455Y-91.0
X174.545Y-98.5
X174.995Y-91.0
X178.59Y-86.575
X178.59Y-94.195
X181.0Y-96.955
X181.0Y-99.495
X181.13Y-86.575
X181.13Y-94.195
X183.67Y-86.575
X183.67Y-94.195
X184.0Y-96.955
X184.0Y-99.495
X186.21Y-86.575
X186.21Y-94.195
X188.75Y-86.575
X188.75Y-94.195
X189.5Y-97.0
X189.5Y-99.54
X194.5Y-82.96
X194.5Y-85.5
X194.5Y-91.5
X194.5Y-94.04
X197.5Y-82.96
X197.5Y-85.5
X197.5Y-91.46
X197.5Y-94.0
X200.5Y-82.96
X200.5Y-85.5
X200.5Y-91.5
X200.5Y-94.04
X203.5Y-82.96
X203.5Y-85.5
X203.5Y-91.46
X203.5Y-94.0
X206.5Y-82.96
X206.5Y-85.5
X206.5Y-91.46
X206.5Y-94.0
T4
X51.5Y-87.75
X51.5Y-92.25
X56.161Y-87.848
X56.161Y-92.048
X67.145Y-87.897
X67.145Y-92.097
X78.081Y-87.945
X78.081Y-92.145
X89.162Y-87.945
X89.162Y-92.145
X98.1Y-98.5
X102.3Y-98.5
X106.5Y-98.5
X148.1Y-98.5
X152.3Y-98.5
X156.5Y-98.5
X198.0Y-98.5
X202.2Y-98.5
X206.4Y-98.5
T5
X92.94Y-88.79
X92.94Y-91.33
X95.48Y-88.79
X95.48Y-91.33
X98.02Y-88.79
X98.02Y-91.33
X100.56Y-88.79
X100.56Y-91.33
X103.1Y-88.79
X103.1Y-91.33
M30
