%TF.GenerationSoftware,KiCad,Pcbnew,9.0.3*%
%TF.CreationDate,2025-10-12T21:41:27+02:00*%
%TF.ProjectId,kosmo song manager 595 channel board,6b6f736d-6f20-4736-9f6e-67206d616e61,rev?*%
%TF.SameCoordinates,Original*%
%TF.FileFunction,Copper,L2,Bot*%
%TF.FilePolarity,Positive*%
%FSLAX46Y46*%
G04 Gerber Fmt 4.6, Leading zero omitted, Abs format (unit mm)*
G04 Created by KiCad (PCBNEW 9.0.3) date 2025-10-12 21:41:27*
%MOMM*%
%LPD*%
G01*
G04 APERTURE LIST*
G04 Aperture macros list*
%AMRoundRect*
0 Rectangle with rounded corners*
0 $1 Rounding radius*
0 $2 $3 $4 $5 $6 $7 $8 $9 X,Y pos of 4 corners*
0 Add a 4 corners polygon primitive as box body*
4,1,4,$2,$3,$4,$5,$6,$7,$8,$9,$2,$3,0*
0 Add four circle primitives for the rounded corners*
1,1,$1+$1,$2,$3*
1,1,$1+$1,$4,$5*
1,1,$1+$1,$6,$7*
1,1,$1+$1,$8,$9*
0 Add four rect primitives between the rounded corners*
20,1,$1+$1,$2,$3,$4,$5,0*
20,1,$1+$1,$4,$5,$6,$7,0*
20,1,$1+$1,$6,$7,$8,$9,0*
20,1,$1+$1,$8,$9,$2,$3,0*%
G04 Aperture macros list end*
%TA.AperFunction,ComponentPad*%
%ADD10C,1.600000*%
%TD*%
%TA.AperFunction,ComponentPad*%
%ADD11RoundRect,0.250000X-0.550000X0.550000X-0.550000X-0.550000X0.550000X-0.550000X0.550000X0.550000X0*%
%TD*%
%TA.AperFunction,ComponentPad*%
%ADD12RoundRect,0.250000X-0.675000X-0.675000X0.675000X-0.675000X0.675000X0.675000X-0.675000X0.675000X0*%
%TD*%
%TA.AperFunction,ComponentPad*%
%ADD13C,1.850000*%
%TD*%
%TA.AperFunction,ComponentPad*%
%ADD14RoundRect,0.250000X0.675000X-0.675000X0.675000X0.675000X-0.675000X0.675000X-0.675000X-0.675000X0*%
%TD*%
%TA.AperFunction,ComponentPad*%
%ADD15RoundRect,0.250000X0.750000X-0.750000X0.750000X0.750000X-0.750000X0.750000X-0.750000X-0.750000X0*%
%TD*%
%TA.AperFunction,ComponentPad*%
%ADD16C,2.000000*%
%TD*%
%TA.AperFunction,ComponentPad*%
%ADD17R,1.050000X1.500000*%
%TD*%
%TA.AperFunction,ComponentPad*%
%ADD18O,1.050000X1.500000*%
%TD*%
%TA.AperFunction,ComponentPad*%
%ADD19R,1.700000X1.700000*%
%TD*%
%TA.AperFunction,ComponentPad*%
%ADD20C,1.700000*%
%TD*%
%TA.AperFunction,ViaPad*%
%ADD21C,0.600000*%
%TD*%
%TA.AperFunction,Conductor*%
%ADD22C,0.200000*%
%TD*%
G04 APERTURE END LIST*
D10*
%TO.P,R20,1*%
%TO.N,Net-(U1-F)*%
X139000000Y-96955000D03*
%TO.P,R20,2*%
%TO.N,/SEG_F*%
X139000000Y-99495000D03*
%TD*%
D11*
%TO.P,U1,1,E*%
%TO.N,Net-(U1-E)*%
X138667651Y-86200645D03*
D10*
%TO.P,U1,2,D*%
%TO.N,Net-(U1-D)*%
X136127651Y-86200645D03*
%TO.P,U1,3,C*%
%TO.N,Net-(U1-C)*%
X133587651Y-86200645D03*
%TO.P,U1,4,G*%
%TO.N,Net-(U1-G)*%
X131047651Y-86200645D03*
%TO.P,U1,5,dp*%
%TO.N,Net-(U1-dp)*%
X128507651Y-86200645D03*
%TO.P,U1,6,en2*%
%TO.N,/DIG_2*%
X128507651Y-93820645D03*
%TO.P,U1,7,A*%
%TO.N,Net-(U1-A)*%
X131047651Y-93820645D03*
%TO.P,U1,8,B*%
%TO.N,Net-(U1-B)*%
X133587651Y-93820645D03*
%TO.P,U1,9,en1*%
%TO.N,/DIG_1*%
X136127651Y-93820645D03*
%TO.P,U1,10,F*%
%TO.N,Net-(U1-F)*%
X138667651Y-93820645D03*
%TD*%
D12*
%TO.P,RV2,1,1*%
%TO.N,VCC*%
X148100000Y-98500000D03*
D13*
%TO.P,RV2,2,2*%
%TO.N,Net-(J2-Pin_5)*%
X152300000Y-98500000D03*
%TO.P,RV2,3,3*%
%TO.N,GND*%
X156500000Y-98500000D03*
%TD*%
D14*
%TO.P,D2,1,K*%
%TO.N,/DIG_0*%
X67145217Y-92096695D03*
D13*
%TO.P,D2,2,A*%
%TO.N,Net-(D2-A)*%
X67145217Y-87896695D03*
%TD*%
D12*
%TO.P,RV3,1,1*%
%TO.N,VCC*%
X198000000Y-98500000D03*
D13*
%TO.P,RV3,2,2*%
%TO.N,Net-(J2-Pin_7)*%
X202200000Y-98500000D03*
%TO.P,RV3,3,3*%
%TO.N,GND*%
X206400000Y-98500000D03*
%TD*%
D14*
%TO.P,D1,1,K*%
%TO.N,/DIG_0*%
X56160962Y-92048092D03*
D13*
%TO.P,D1,2,A*%
%TO.N,Net-(D1-A)*%
X56160962Y-87848092D03*
%TD*%
D11*
%TO.P,U2,1,E*%
%TO.N,Net-(U2-E)*%
X188749564Y-86575497D03*
D10*
%TO.P,U2,2,D*%
%TO.N,Net-(U2-D)*%
X186209564Y-86575497D03*
%TO.P,U2,3,C*%
%TO.N,Net-(U2-C)*%
X183669564Y-86575497D03*
%TO.P,U2,4,G*%
%TO.N,Net-(U2-G)*%
X181129564Y-86575497D03*
%TO.P,U2,5,dp*%
%TO.N,Net-(U2-dp)*%
X178589564Y-86575497D03*
%TO.P,U2,6,en2*%
%TO.N,/DIG_4*%
X178589564Y-94195497D03*
%TO.P,U2,7,A*%
%TO.N,Net-(U2-A)*%
X181129564Y-94195497D03*
%TO.P,U2,8,B*%
%TO.N,Net-(U2-B)*%
X183669564Y-94195497D03*
%TO.P,U2,9,en1*%
%TO.N,/DIG_3*%
X186209564Y-94195497D03*
%TO.P,U2,10,F*%
%TO.N,Net-(U2-F)*%
X188749564Y-94195497D03*
%TD*%
D14*
%TO.P,D4,1,K*%
%TO.N,/DIG_0*%
X89162331Y-92145298D03*
D13*
%TO.P,D4,2,A*%
%TO.N,Net-(D4-A)*%
X89162331Y-87945298D03*
%TD*%
D12*
%TO.P,RV1,1,1*%
%TO.N,VCC*%
X98100000Y-98500000D03*
D13*
%TO.P,RV1,2,2*%
%TO.N,Net-(J2-Pin_3)*%
X102300000Y-98500000D03*
%TO.P,RV1,3,3*%
%TO.N,GND*%
X106500000Y-98500000D03*
%TD*%
D15*
%TO.P,SW1,1,A*%
%TO.N,VCC*%
X51500000Y-92250000D03*
D16*
%TO.P,SW1,2,B*%
%TO.N,Net-(J2-Pin_9)*%
X51500000Y-87750000D03*
%TD*%
D14*
%TO.P,D3,1,K*%
%TO.N,/DIG_0*%
X78080870Y-92145298D03*
D13*
%TO.P,D3,2,A*%
%TO.N,Net-(D3-A)*%
X78080870Y-87945298D03*
%TD*%
D10*
%TO.P,R19,1*%
%TO.N,VCC*%
X174545000Y-98500000D03*
%TO.P,R19,2*%
%TO.N,/DIG_4*%
X172005000Y-98500000D03*
%TD*%
D17*
%TO.P,Q5,1,E*%
%TO.N,GND*%
X166460000Y-97500000D03*
D18*
%TO.P,Q5,2,B*%
%TO.N,Net-(Q5-B)*%
X167730000Y-97500000D03*
%TO.P,Q5,3,C*%
%TO.N,/DIG_4*%
X169000000Y-97500000D03*
%TD*%
D17*
%TO.P,Q3,1,E*%
%TO.N,GND*%
X81960000Y-97500000D03*
D18*
%TO.P,Q3,2,B*%
%TO.N,Net-(Q3-B)*%
X83230000Y-97500000D03*
%TO.P,Q3,3,C*%
%TO.N,/DIG_2*%
X84500000Y-97500000D03*
%TD*%
D10*
%TO.P,R21,1*%
%TO.N,Net-(U1-B)*%
X134000000Y-96960000D03*
%TO.P,R21,2*%
%TO.N,/SEG_B*%
X134000000Y-99500000D03*
%TD*%
D17*
%TO.P,Q2,1,E*%
%TO.N,GND*%
X121960000Y-97500000D03*
D18*
%TO.P,Q2,2,B*%
%TO.N,Net-(Q2-B)*%
X123230000Y-97500000D03*
%TO.P,Q2,3,C*%
%TO.N,/DIG_1*%
X124500000Y-97500000D03*
%TD*%
D10*
%TO.P,R10,1*%
%TO.N,VCC*%
X52500000Y-95960000D03*
%TO.P,R10,2*%
%TO.N,/DIG_0*%
X52500000Y-98500000D03*
%TD*%
%TO.P,R39,1*%
%TO.N,Net-(D1-A)*%
X56041943Y-84040000D03*
%TO.P,R39,2*%
%TO.N,/SEG_A*%
X56041943Y-81500000D03*
%TD*%
D19*
%TO.P,J2,1,Pin_1*%
%TO.N,GND*%
X103099752Y-91330435D03*
D20*
%TO.P,J2,2,Pin_2*%
%TO.N,Net-(J2-Pin_2)*%
X103099752Y-88790435D03*
%TO.P,J2,3,Pin_3*%
%TO.N,Net-(J2-Pin_3)*%
X100559752Y-91330435D03*
%TO.P,J2,4,Pin_4*%
%TO.N,Net-(J2-Pin_4)*%
X100559752Y-88790435D03*
%TO.P,J2,5,Pin_5*%
%TO.N,Net-(J2-Pin_5)*%
X98019752Y-91330435D03*
%TO.P,J2,6,Pin_6*%
%TO.N,Net-(J2-Pin_6)*%
X98019752Y-88790435D03*
%TO.P,J2,7,Pin_7*%
%TO.N,Net-(J2-Pin_7)*%
X95479752Y-91330435D03*
%TO.P,J2,8,Pin_8*%
%TO.N,Net-(J2-Pin_8)*%
X95479752Y-88790435D03*
%TO.P,J2,9,Pin_9*%
%TO.N,Net-(J2-Pin_9)*%
X92939752Y-91330435D03*
%TO.P,J2,10,Pin_10*%
%TO.N,VCC*%
X92939752Y-88790435D03*
%TD*%
D11*
%TO.P,U4,1,QB*%
%TO.N,Net-(U4-QB)*%
X106960000Y-86190000D03*
D10*
%TO.P,U4,2,QC*%
%TO.N,Net-(U4-QC)*%
X109500000Y-86190000D03*
%TO.P,U4,3,QD*%
%TO.N,Net-(U4-QD)*%
X112040000Y-86190000D03*
%TO.P,U4,4,QE*%
%TO.N,Net-(U4-QE)*%
X114580000Y-86190000D03*
%TO.P,U4,5,QF*%
%TO.N,unconnected-(U4-QF-Pad5)*%
X117120000Y-86190000D03*
%TO.P,U4,6,QG*%
%TO.N,unconnected-(U4-QG-Pad6)*%
X119660000Y-86190000D03*
%TO.P,U4,7,QH*%
%TO.N,unconnected-(U4-QH-Pad7)*%
X122200000Y-86190000D03*
%TO.P,U4,8,GND*%
%TO.N,GND*%
X124740000Y-86190000D03*
%TO.P,U4,9,QH'*%
%TO.N,Net-(J2-Pin_2)*%
X124740000Y-93810000D03*
%TO.P,U4,10,~{SRCLR}*%
%TO.N,VCC*%
X122200000Y-93810000D03*
%TO.P,U4,11,SRCLK*%
%TO.N,Net-(J2-Pin_4)*%
X119660000Y-93810000D03*
%TO.P,U4,12,RCLK*%
%TO.N,Net-(J2-Pin_6)*%
X117120000Y-93810000D03*
%TO.P,U4,13,~{OE}*%
%TO.N,GND*%
X114580000Y-93810000D03*
%TO.P,U4,14,SER*%
%TO.N,Net-(U3-QH')*%
X112040000Y-93810000D03*
%TO.P,U4,15,QA*%
%TO.N,Net-(U4-QA)*%
X109500000Y-93810000D03*
%TO.P,U4,16,VCC*%
%TO.N,VCC*%
X106960000Y-93810000D03*
%TD*%
%TO.P,R14,1*%
%TO.N,Net-(U4-QC)*%
X90045000Y-97500000D03*
%TO.P,R14,2*%
%TO.N,Net-(Q3-B)*%
X87505000Y-97500000D03*
%TD*%
%TO.P,R25,1*%
%TO.N,/SEG_C*%
X200500000Y-85500000D03*
%TO.P,R25,2*%
%TO.N,Net-(U1-C)*%
X200500000Y-82960000D03*
%TD*%
%TO.P,R23,1*%
%TO.N,/SEG_E*%
X206500000Y-85500000D03*
%TO.P,R23,2*%
%TO.N,Net-(U1-E)*%
X206500000Y-82960000D03*
%TD*%
%TO.P,R36,1*%
%TO.N,Net-(D4-A)*%
X89000000Y-84545000D03*
%TO.P,R36,2*%
%TO.N,/SEG_D*%
X89000000Y-82005000D03*
%TD*%
%TO.P,R27,1*%
%TO.N,/SEG_DP*%
X194500000Y-85500000D03*
%TO.P,R27,2*%
%TO.N,Net-(U1-dp)*%
X194500000Y-82960000D03*
%TD*%
%TO.P,R38,1*%
%TO.N,Net-(D2-A)*%
X67123404Y-84393008D03*
%TO.P,R38,2*%
%TO.N,/SEG_B*%
X67123404Y-81853008D03*
%TD*%
%TO.P,R28,1*%
%TO.N,/SEG_E*%
X206500000Y-91460000D03*
%TO.P,R28,2*%
%TO.N,Net-(U2-E)*%
X206500000Y-94000000D03*
%TD*%
%TO.P,R24,1*%
%TO.N,/SEG_D*%
X203500000Y-85500000D03*
%TO.P,R24,2*%
%TO.N,Net-(U1-D)*%
X203500000Y-82960000D03*
%TD*%
%TO.P,R30,1*%
%TO.N,/SEG_C*%
X200500000Y-91500000D03*
%TO.P,R30,2*%
%TO.N,Net-(U2-C)*%
X200500000Y-94040000D03*
%TD*%
D17*
%TO.P,Q4,1,E*%
%TO.N,GND*%
X174770000Y-87000000D03*
D18*
%TO.P,Q4,2,B*%
%TO.N,Net-(Q4-B)*%
X173500000Y-87000000D03*
%TO.P,Q4,3,C*%
%TO.N,/DIG_3*%
X172230000Y-87000000D03*
%TD*%
D10*
%TO.P,R32,1*%
%TO.N,/SEG_DP*%
X194500000Y-91500000D03*
%TO.P,R32,2*%
%TO.N,Net-(U2-dp)*%
X194500000Y-94040000D03*
%TD*%
%TO.P,R5,1*%
%TO.N,Net-(J2-Pin_9)*%
X52000000Y-81955000D03*
%TO.P,R5,2*%
%TO.N,GND*%
X52000000Y-84495000D03*
%TD*%
%TO.P,R35,1*%
%TO.N,Net-(U2-A)*%
X181000000Y-96955000D03*
%TO.P,R35,2*%
%TO.N,/SEG_A*%
X181000000Y-99495000D03*
%TD*%
%TO.P,R18,1*%
%TO.N,Net-(U4-QE)*%
X166460000Y-93500000D03*
%TO.P,R18,2*%
%TO.N,Net-(Q5-B)*%
X169000000Y-93500000D03*
%TD*%
%TO.P,R17,1*%
%TO.N,VCC*%
X172455000Y-91000000D03*
%TO.P,R17,2*%
%TO.N,/DIG_3*%
X174995000Y-91000000D03*
%TD*%
D17*
%TO.P,Q1,1,E*%
%TO.N,GND*%
X56000000Y-96640000D03*
D18*
%TO.P,Q1,2,B*%
%TO.N,Net-(Q1-B)*%
X57270000Y-96640000D03*
%TO.P,Q1,3,C*%
%TO.N,/DIG_0*%
X58540000Y-96640000D03*
%TD*%
D10*
%TO.P,R37,1*%
%TO.N,Net-(D3-A)*%
X78000000Y-84500000D03*
%TO.P,R37,2*%
%TO.N,/SEG_C*%
X78000000Y-81960000D03*
%TD*%
%TO.P,R11,1*%
%TO.N,Net-(U4-QA)*%
X62000000Y-95955000D03*
%TO.P,R11,2*%
%TO.N,Net-(Q1-B)*%
X62000000Y-98495000D03*
%TD*%
D11*
%TO.P,U3,1,QB*%
%TO.N,/SEG_B*%
X142367393Y-86256529D03*
D10*
%TO.P,U3,2,QC*%
%TO.N,/SEG_C*%
X144907393Y-86256529D03*
%TO.P,U3,3,QD*%
%TO.N,/SEG_D*%
X147447393Y-86256529D03*
%TO.P,U3,4,QE*%
%TO.N,/SEG_E*%
X149987393Y-86256529D03*
%TO.P,U3,5,QF*%
%TO.N,/SEG_F*%
X152527393Y-86256529D03*
%TO.P,U3,6,QG*%
%TO.N,/SEG_G*%
X155067393Y-86256529D03*
%TO.P,U3,7,QH*%
%TO.N,/SEG_DP*%
X157607393Y-86256529D03*
%TO.P,U3,8,GND*%
%TO.N,GND*%
X160147393Y-86256529D03*
%TO.P,U3,9,QH'*%
%TO.N,Net-(U3-QH')*%
X160147393Y-93876529D03*
%TO.P,U3,10,~{SRCLR}*%
%TO.N,VCC*%
X157607393Y-93876529D03*
%TO.P,U3,11,SRCLK*%
%TO.N,Net-(J2-Pin_4)*%
X155067393Y-93876529D03*
%TO.P,U3,12,RCLK*%
%TO.N,Net-(J2-Pin_6)*%
X152527393Y-93876529D03*
%TO.P,U3,13,~{OE}*%
%TO.N,GND*%
X149987393Y-93876529D03*
%TO.P,U3,14,SER*%
%TO.N,Net-(J2-Pin_8)*%
X147447393Y-93876529D03*
%TO.P,U3,15,QA*%
%TO.N,/SEG_A*%
X144907393Y-93876529D03*
%TO.P,U3,16,VCC*%
%TO.N,VCC*%
X142367393Y-93876529D03*
%TD*%
%TO.P,R26,1*%
%TO.N,/SEG_G*%
X197500000Y-85500000D03*
%TO.P,R26,2*%
%TO.N,Net-(U1-G)*%
X197500000Y-82960000D03*
%TD*%
%TO.P,R16,1*%
%TO.N,Net-(U4-QD)*%
X166955000Y-86000000D03*
%TO.P,R16,2*%
%TO.N,Net-(Q4-B)*%
X169495000Y-86000000D03*
%TD*%
%TO.P,R29,1*%
%TO.N,/SEG_D*%
X203500000Y-91460000D03*
%TO.P,R29,2*%
%TO.N,Net-(U2-D)*%
X203500000Y-94000000D03*
%TD*%
%TO.P,R34,1*%
%TO.N,Net-(U2-B)*%
X184000000Y-96955000D03*
%TO.P,R34,2*%
%TO.N,/SEG_B*%
X184000000Y-99495000D03*
%TD*%
%TO.P,R33,1*%
%TO.N,Net-(U2-F)*%
X189500000Y-97000000D03*
%TO.P,R33,2*%
%TO.N,/SEG_F*%
X189500000Y-99540000D03*
%TD*%
%TO.P,R31,1*%
%TO.N,/SEG_G*%
X197500000Y-91460000D03*
%TO.P,R31,2*%
%TO.N,Net-(U2-G)*%
X197500000Y-94000000D03*
%TD*%
%TO.P,R12,1*%
%TO.N,Net-(U4-QB)*%
X110455000Y-97500000D03*
%TO.P,R12,2*%
%TO.N,Net-(Q2-B)*%
X112995000Y-97500000D03*
%TD*%
%TO.P,R13,1*%
%TO.N,VCC*%
X116455000Y-97500000D03*
%TO.P,R13,2*%
%TO.N,/DIG_1*%
X118995000Y-97500000D03*
%TD*%
%TO.P,R22,1*%
%TO.N,Net-(U1-A)*%
X130814416Y-96960000D03*
%TO.P,R22,2*%
%TO.N,/SEG_A*%
X130814416Y-99500000D03*
%TD*%
%TO.P,R15,1*%
%TO.N,VCC*%
X78369360Y-96670213D03*
%TO.P,R15,2*%
%TO.N,/DIG_2*%
X78369360Y-99210213D03*
%TD*%
D21*
%TO.N,VCC*%
X93000000Y-93500000D03*
X85500000Y-94000000D03*
%TO.N,Net-(J2-Pin_8)*%
X106533875Y-88400000D03*
%TO.N,Net-(J2-Pin_7)*%
X160500000Y-90500000D03*
X162000000Y-91500000D03*
X104858613Y-91656462D03*
X111500000Y-92000000D03*
X144500000Y-92000000D03*
%TO.N,GND*%
X160500000Y-89000000D03*
X164000000Y-92150000D03*
X124643341Y-89559000D03*
X164000000Y-94500000D03*
X152000000Y-96500000D03*
%TO.N,VCC*%
X143000000Y-92150000D03*
X95000000Y-95500000D03*
X172500000Y-96500000D03*
X124689532Y-91659000D03*
%TO.N,Net-(J2-Pin_9)*%
X86500000Y-90000000D03*
%TO.N,Net-(J2-Pin_4)*%
X113425000Y-88925000D03*
X115948751Y-92550000D03*
X105000000Y-88000000D03*
%TO.N,Net-(J2-Pin_2)*%
X114000000Y-92150000D03*
%TO.N,Net-(J2-Pin_6)*%
X110000000Y-89500000D03*
X114907983Y-92500446D03*
%TO.N,Net-(J2-Pin_5)*%
X117693309Y-91027955D03*
X98500000Y-94500000D03*
X116000000Y-90500000D03*
X140500000Y-92500000D03*
X104500000Y-94500000D03*
%TO.N,Net-(U4-QD)*%
X144500000Y-87850000D03*
X157500000Y-88000000D03*
%TO.N,Net-(U4-QE)*%
X156000000Y-88650000D03*
X143470366Y-87391208D03*
%TO.N,/SEG_F*%
X158771328Y-92500464D03*
%TO.N,/SEG_B*%
X126359000Y-80859000D03*
%TO.N,/SEG_A*%
X177000000Y-96500000D03*
X125500000Y-81500000D03*
%TO.N,/SEG_E*%
X150500000Y-80300000D03*
%TO.N,Net-(U1-E)*%
X139699002Y-80300000D03*
%TO.N,Net-(U1-D)*%
X136500000Y-80950000D03*
%TO.N,/SEG_D*%
X147500000Y-83350000D03*
%TO.N,Net-(U1-C)*%
X134141000Y-81350000D03*
%TO.N,/SEG_C*%
X192000000Y-87500000D03*
X198000000Y-87500000D03*
%TO.N,Net-(U1-G)*%
X130917112Y-82009642D03*
%TO.N,Net-(U1-dp)*%
X129648251Y-82394000D03*
%TO.N,Net-(U2-D)*%
X208500000Y-88000000D03*
%TO.N,Net-(U2-C)*%
X208000000Y-95000000D03*
X208000000Y-89000000D03*
%TO.N,Net-(U3-QH')*%
X157500000Y-89850000D03*
X143443539Y-90852456D03*
%TD*%
D22*
%TO.N,/SEG_B*%
X126400000Y-94400000D02*
X127022673Y-95022673D01*
X126359000Y-81793314D02*
X126400000Y-81834315D01*
X126359000Y-80859000D02*
X126359000Y-81793314D01*
X126400000Y-81834315D02*
X126400000Y-94400000D01*
X127022673Y-95022673D02*
X139022673Y-95022673D01*
X135522673Y-98522673D02*
X139022673Y-95022673D01*
%TO.N,/SEG_A*%
X126000000Y-96500000D02*
X126000000Y-82000000D01*
X126000000Y-82000000D02*
X125500000Y-81500000D01*
X129040000Y-99540000D02*
X126000000Y-96500000D01*
X131000000Y-99540000D02*
X129040000Y-99540000D01*
%TO.N,Net-(J2-Pin_5)*%
X143740907Y-97274000D02*
X140500000Y-94033093D01*
X152300000Y-98500000D02*
X151074000Y-97274000D01*
X151074000Y-97274000D02*
X143740907Y-97274000D01*
X140500000Y-94033093D02*
X140500000Y-92500000D01*
%TO.N,GND*%
X189701000Y-91701000D02*
X189500000Y-91701000D01*
X199001000Y-95502000D02*
X199001000Y-95501000D01*
X193500000Y-95500000D02*
X189701000Y-91701000D01*
X203402000Y-95502000D02*
X199001000Y-95502000D01*
X199001000Y-95501000D02*
X199000000Y-95500000D01*
X206400000Y-98500000D02*
X203402000Y-95502000D01*
X189500000Y-91701000D02*
X179246000Y-91701000D01*
X199000000Y-95500000D02*
X193500000Y-95500000D01*
X179246000Y-91701000D02*
X174770000Y-87225000D01*
%TO.N,VCC*%
X173556000Y-92101000D02*
X172455000Y-91000000D01*
X189101000Y-92101000D02*
X173556000Y-92101000D01*
X198000000Y-98500000D02*
X195500000Y-98500000D01*
X195500000Y-98500000D02*
X189101000Y-92101000D01*
%TO.N,Net-(U2-E)*%
X209150000Y-91350000D02*
X209150000Y-88269239D01*
X206500000Y-94000000D02*
X209150000Y-91350000D01*
X207000000Y-94500000D02*
X206500000Y-94000000D01*
X209150000Y-87730761D02*
X209150000Y-88269239D01*
X209000000Y-87580761D02*
X209150000Y-87730761D01*
X209000000Y-87000000D02*
X209000000Y-87580761D01*
X198419239Y-87000000D02*
X209000000Y-87000000D01*
X198269239Y-86850000D02*
X198419239Y-87000000D01*
X192419239Y-87000000D02*
X197580761Y-87000000D01*
X197730761Y-86850000D02*
X198269239Y-86850000D01*
X197580761Y-87000000D02*
X197730761Y-86850000D01*
X191730761Y-86850000D02*
X192269239Y-86850000D01*
X192269239Y-86850000D02*
X192419239Y-87000000D01*
X191580761Y-87000000D02*
X191730761Y-86850000D01*
X189174067Y-87000000D02*
X191580761Y-87000000D01*
X188749564Y-86575497D02*
X189174067Y-87000000D01*
%TO.N,VCC*%
X92500000Y-94000000D02*
X93000000Y-93500000D01*
X85500000Y-94000000D02*
X92500000Y-94000000D01*
%TO.N,Net-(U4-QA)*%
X107160000Y-96150000D02*
X109500000Y-93810000D01*
X94730761Y-96150000D02*
X107160000Y-96150000D01*
X93580761Y-95000000D02*
X94730761Y-96150000D01*
%TO.N,GND*%
X103099752Y-92834563D02*
X103099752Y-91330435D01*
X102524315Y-93410000D02*
X103099752Y-92834563D01*
X96524315Y-93410000D02*
X102524315Y-93410000D01*
%TO.N,Net-(U4-QA)*%
X62000000Y-95955000D02*
X62905000Y-95050000D01*
%TO.N,GND*%
X95434314Y-94500000D02*
X96524315Y-93410000D01*
%TO.N,Net-(U4-QA)*%
X62905000Y-95050000D02*
X85934925Y-95050000D01*
%TO.N,GND*%
X85919239Y-94500000D02*
X95434314Y-94500000D01*
X85769239Y-94650000D02*
X85919239Y-94500000D01*
%TO.N,Net-(U4-QA)*%
X85934925Y-95050000D02*
X85984924Y-95000000D01*
%TO.N,GND*%
X85230761Y-94650000D02*
X85769239Y-94650000D01*
X56000000Y-96415000D02*
X57915000Y-94500000D01*
X56000000Y-96640000D02*
X56000000Y-96415000D01*
%TO.N,Net-(U4-QA)*%
X85984924Y-95000000D02*
X93580761Y-95000000D01*
%TO.N,GND*%
X57915000Y-94500000D02*
X85080761Y-94500000D01*
X85080761Y-94500000D02*
X85230761Y-94650000D01*
%TO.N,Net-(Q3-B)*%
X83230000Y-97730000D02*
X83230000Y-97500000D01*
X87500000Y-97500000D02*
X85500000Y-99500000D01*
X85500000Y-99500000D02*
X85000000Y-99500000D01*
X87505000Y-97500000D02*
X87500000Y-97500000D01*
X85000000Y-99500000D02*
X83230000Y-97730000D01*
%TO.N,VCC*%
X77170213Y-96670213D02*
X76899000Y-96399000D01*
X78369360Y-96670213D02*
X77170213Y-96670213D01*
X76899000Y-96399000D02*
X65101000Y-96399000D01*
%TO.N,GND*%
X104550000Y-96550000D02*
X106500000Y-98500000D01*
X93515076Y-95500000D02*
X94565076Y-96550000D01*
X83735000Y-95500000D02*
X93515076Y-95500000D01*
X81960000Y-97500000D02*
X81960000Y-97275000D01*
X81960000Y-97275000D02*
X83735000Y-95500000D01*
X94565076Y-96550000D02*
X104550000Y-96550000D01*
%TO.N,/DIG_0*%
X56905000Y-98500000D02*
X58540000Y-96865000D01*
X52500000Y-98500000D02*
X56905000Y-98500000D01*
X58540000Y-96865000D02*
X58540000Y-96640000D01*
%TO.N,Net-(J2-Pin_8)*%
X99181187Y-85089000D02*
X103972840Y-85089000D01*
X95479752Y-88790435D02*
X99181187Y-85089000D01*
X103972840Y-85089000D02*
X105600000Y-86716160D01*
X105483875Y-87350000D02*
X106533875Y-88400000D01*
X105600000Y-86716160D02*
X105600000Y-86834315D01*
X105600000Y-86834315D02*
X105483875Y-86950440D01*
X105483875Y-86950440D02*
X105483875Y-87350000D01*
%TO.N,Net-(J2-Pin_7)*%
X195837117Y-99726000D02*
X188612117Y-92501000D01*
X169558050Y-92501000D02*
X168557050Y-91500000D01*
X200974000Y-99726000D02*
X195837117Y-99726000D01*
X105202151Y-92000000D02*
X104858613Y-91656462D01*
X188612117Y-92501000D02*
X169558050Y-92501000D01*
X168557050Y-91500000D02*
X162000000Y-91500000D01*
X202200000Y-98500000D02*
X200974000Y-99726000D01*
X146000000Y-90500000D02*
X144500000Y-92000000D01*
X111500000Y-92000000D02*
X105202151Y-92000000D01*
X160500000Y-90500000D02*
X146000000Y-90500000D01*
%TO.N,GND*%
X154500000Y-96500000D02*
X152000000Y-96500000D01*
X157500000Y-97500000D02*
X166460000Y-97500000D01*
X116172950Y-93200000D02*
X117694995Y-91677955D01*
X104589374Y-91006462D02*
X104265401Y-91330435D01*
X156500000Y-98500000D02*
X154500000Y-96500000D01*
X54934962Y-87429962D02*
X52000000Y-84495000D01*
X124740000Y-86190000D02*
X124740000Y-89462341D01*
X105127852Y-91006462D02*
X104589374Y-91006462D01*
X111080761Y-91500000D02*
X105621390Y-91500000D01*
X164000000Y-92150000D02*
X164000000Y-94500000D01*
X160500000Y-89000000D02*
X172995000Y-89000000D01*
X111230761Y-91350000D02*
X111080761Y-91500000D01*
X121960000Y-97500000D02*
X119371000Y-94911000D01*
X115190000Y-93200000D02*
X116172950Y-93200000D01*
X124740000Y-89462341D02*
X124643341Y-89559000D01*
X112120000Y-91350000D02*
X111230761Y-91350000D01*
X104265401Y-91330435D02*
X103099752Y-91330435D01*
X119371000Y-94911000D02*
X115681000Y-94911000D01*
X174770000Y-87225000D02*
X174770000Y-87000000D01*
X114580000Y-93810000D02*
X115190000Y-93200000D01*
X115681000Y-94911000D02*
X114580000Y-93810000D01*
X122524386Y-91677955D02*
X124643341Y-89559000D01*
X160147393Y-88647393D02*
X160147393Y-86256529D01*
X172995000Y-89000000D02*
X174770000Y-87225000D01*
X114580000Y-93810000D02*
X112120000Y-91350000D01*
X105621390Y-91500000D02*
X105127852Y-91006462D01*
X160500000Y-89000000D02*
X160147393Y-88647393D01*
X117694995Y-91677955D02*
X122524386Y-91677955D01*
X56000000Y-96640000D02*
X54934962Y-95574962D01*
X156500000Y-98500000D02*
X157500000Y-97500000D01*
X54934962Y-95574962D02*
X54934962Y-87429962D01*
%TO.N,VCC*%
X122200000Y-93810000D02*
X124351000Y-91659000D01*
X160080761Y-91000000D02*
X160230761Y-91150000D01*
X104270761Y-93810000D02*
X96690000Y-93810000D01*
X157607393Y-92745159D02*
X159352552Y-91000000D01*
X143000000Y-93243922D02*
X143000000Y-92150000D01*
X174545000Y-98500000D02*
X172545000Y-96500000D01*
X106160001Y-93010001D02*
X105070760Y-93010001D01*
X171655001Y-90200001D02*
X172455000Y-91000000D01*
X62601000Y-99899000D02*
X50899000Y-99899000D01*
X124351000Y-91659000D02*
X124689532Y-91659000D01*
X50601000Y-97859000D02*
X52500000Y-95960000D01*
X161580761Y-91000000D02*
X162380760Y-90200001D01*
X96690000Y-93810000D02*
X95000000Y-95500000D01*
X160230761Y-91150000D02*
X160769239Y-91150000D01*
X142367393Y-93876529D02*
X143000000Y-93243922D01*
X160919239Y-91000000D02*
X161580761Y-91000000D01*
X172545000Y-96500000D02*
X172500000Y-96500000D01*
X105070760Y-93010001D02*
X104270761Y-93810000D01*
X159352552Y-91000000D02*
X160080761Y-91000000D01*
X160769239Y-91150000D02*
X160919239Y-91000000D01*
X65101000Y-96399000D02*
X65000000Y-96500000D01*
X65000000Y-96500000D02*
X65000000Y-97500000D01*
X65000000Y-97500000D02*
X62601000Y-99899000D01*
X157607393Y-93876529D02*
X157607393Y-92745159D01*
X50899000Y-99899000D02*
X50601000Y-99601000D01*
X50601000Y-99601000D02*
X50601000Y-97859000D01*
X162380760Y-90200001D02*
X171655001Y-90200001D01*
X106960000Y-93810000D02*
X106160001Y-93010001D01*
%TO.N,Net-(J2-Pin_9)*%
X91609317Y-90000000D02*
X92939752Y-91330435D01*
X86500000Y-90000000D02*
X91609317Y-90000000D01*
%TO.N,Net-(J2-Pin_4)*%
X112500000Y-88000000D02*
X115948751Y-91448751D01*
X107165685Y-89050000D02*
X108215685Y-88000000D01*
X105000000Y-88000000D02*
X106050000Y-89050000D01*
X108215685Y-88000000D02*
X112500000Y-88000000D01*
X106050000Y-89050000D02*
X107165685Y-89050000D01*
X115948751Y-91448751D02*
X115948751Y-92550000D01*
X105000000Y-88000000D02*
X105250000Y-88250000D01*
%TO.N,Net-(J2-Pin_2)*%
X103099752Y-88790435D02*
X104915779Y-90606462D01*
X105293538Y-90606462D02*
X105587076Y-90900000D01*
X112900000Y-90900000D02*
X114000000Y-92000000D01*
X105587076Y-90900000D02*
X112900000Y-90900000D01*
X114000000Y-92000000D02*
X114000000Y-92150000D01*
X104915779Y-90606462D02*
X105293538Y-90606462D01*
%TO.N,Net-(J2-Pin_6)*%
X104008065Y-87639435D02*
X104200000Y-87831370D01*
X99170752Y-87639435D02*
X104008065Y-87639435D01*
X104200000Y-87831370D02*
X104200000Y-88331371D01*
X107550000Y-89500000D02*
X107500000Y-89450000D01*
X104200000Y-88331371D02*
X105318629Y-89450000D01*
X105318629Y-89450000D02*
X107500000Y-89450000D01*
X98019752Y-88790435D02*
X99170752Y-87639435D01*
X110000000Y-89500000D02*
X107550000Y-89500000D01*
X114907983Y-91407983D02*
X114907983Y-92500446D01*
X107530761Y-89450000D02*
X108580761Y-90500000D01*
X107500000Y-89450000D02*
X107530761Y-89450000D01*
X108580761Y-90500000D02*
X114000000Y-90500000D01*
X114000000Y-90500000D02*
X114907983Y-91407983D01*
%TO.N,Net-(J2-Pin_5)*%
X104500000Y-94500000D02*
X98500000Y-94500000D01*
X116527955Y-91027955D02*
X117693309Y-91027955D01*
X116000000Y-90500000D02*
X116527955Y-91027955D01*
%TO.N,Net-(U4-QD)*%
X144650000Y-88000000D02*
X144500000Y-87850000D01*
X157500000Y-88000000D02*
X144650000Y-88000000D01*
%TO.N,Net-(U4-QE)*%
X143940380Y-88500000D02*
X143470366Y-88029986D01*
X144919239Y-88500000D02*
X144769239Y-88650000D01*
X144080761Y-88500000D02*
X143940380Y-88500000D01*
X144769239Y-88650000D02*
X144230761Y-88650000D01*
X143470366Y-88029986D02*
X143470366Y-87391208D01*
X156000000Y-88650000D02*
X155850000Y-88500000D01*
X155850000Y-88500000D02*
X144919239Y-88500000D01*
X144230761Y-88650000D02*
X144080761Y-88500000D01*
%TO.N,/SEG_F*%
X159942482Y-92114568D02*
X159157224Y-92114568D01*
X189500000Y-99540000D02*
X185256497Y-95296497D01*
X185256497Y-95296497D02*
X163124411Y-95296497D01*
X163124411Y-95296497D02*
X159942482Y-92114568D01*
X159157224Y-92114568D02*
X158771328Y-92500464D01*
%TO.N,/SEG_B*%
X176944000Y-98056000D02*
X175101000Y-99899000D01*
X184000000Y-99495000D02*
X182561000Y-98056000D01*
X139850000Y-92769239D02*
X139850000Y-92230761D01*
X134550346Y-99495000D02*
X135522673Y-98522673D01*
X135651346Y-98394000D02*
X135522673Y-98522673D01*
X182561000Y-98056000D02*
X176944000Y-98056000D01*
X139456050Y-98394000D02*
X135651346Y-98394000D01*
X139850000Y-92230761D02*
X142367393Y-89713368D01*
X139022673Y-95022673D02*
X140100000Y-93945346D01*
X140100000Y-93019239D02*
X139850000Y-92769239D01*
X140100000Y-93945346D02*
X140100000Y-93019239D01*
X142367393Y-89713368D02*
X142367393Y-86256529D01*
X134000000Y-99495000D02*
X134550346Y-99495000D01*
X175101000Y-99899000D02*
X140961050Y-99899000D01*
X140961050Y-99899000D02*
X139456050Y-98394000D01*
%TO.N,/SEG_A*%
X176196497Y-95696497D02*
X177000000Y-96500000D01*
X146727361Y-95696497D02*
X176196497Y-95696497D01*
X144907393Y-93876529D02*
X146727361Y-95696497D01*
%TO.N,/SEG_E*%
X149987393Y-80613607D02*
X150500000Y-80101000D01*
X149987393Y-86012607D02*
X149987393Y-86256529D01*
X149987393Y-86256529D02*
X149987393Y-80613607D01*
X149987393Y-86012607D02*
X150000000Y-86000000D01*
X150500000Y-80101000D02*
X150500000Y-80300000D01*
%TO.N,Net-(U1-E)*%
X206500000Y-82960000D02*
X206500000Y-83000000D01*
X138667651Y-86200645D02*
X138667651Y-81331351D01*
X138667651Y-81331351D02*
X139699002Y-80300000D01*
%TO.N,Net-(U1-D)*%
X136127651Y-81322349D02*
X136500000Y-80950000D01*
X136127651Y-86200645D02*
X136127651Y-81322349D01*
%TO.N,/SEG_D*%
X147447393Y-86256529D02*
X147447393Y-83407393D01*
%TO.N,Net-(U1-C)*%
X133587651Y-86200645D02*
X133587651Y-81903349D01*
X133587651Y-81903349D02*
X134141000Y-81350000D01*
%TO.N,/SEG_C*%
X198000000Y-87500000D02*
X192000000Y-87500000D01*
%TO.N,Net-(U1-G)*%
X131047651Y-86200645D02*
X131047651Y-82140181D01*
X131047651Y-82140181D02*
X130917112Y-82009642D01*
%TO.N,/SEG_G*%
X157262922Y-84061000D02*
X155067393Y-86256529D01*
X196061000Y-84061000D02*
X157262922Y-84061000D01*
X197500000Y-85500000D02*
X196061000Y-84061000D01*
%TO.N,/SEG_DP*%
X159163921Y-84700001D02*
X157607393Y-86256529D01*
X194500000Y-85500000D02*
X193700001Y-84700001D01*
X193700001Y-84700001D02*
X159163921Y-84700001D01*
%TO.N,Net-(U1-dp)*%
X128507651Y-83534600D02*
X129648251Y-82394000D01*
X128507651Y-86200645D02*
X128507651Y-83534600D01*
%TO.N,Net-(U2-D)*%
X186209564Y-86575497D02*
X187784067Y-88150000D01*
X187784067Y-88150000D02*
X198269239Y-88150000D01*
X198269239Y-88150000D02*
X198419239Y-88000000D01*
X198419239Y-88000000D02*
X208500000Y-88000000D01*
%TO.N,Net-(U2-C)*%
X208000000Y-95000000D02*
X207899000Y-95101000D01*
X186094067Y-89000000D02*
X208000000Y-89000000D01*
X207899000Y-95101000D02*
X201561000Y-95101000D01*
X201561000Y-95101000D02*
X200500000Y-94040000D01*
X183669564Y-86575497D02*
X186094067Y-89000000D01*
%TO.N,Net-(U3-QH')*%
X144295995Y-90000000D02*
X143443539Y-90852456D01*
X157350000Y-90000000D02*
X144295995Y-90000000D01*
X157500000Y-89850000D02*
X157350000Y-90000000D01*
%TD*%
M02*
