%TF.GenerationSoftware,KiCad,Pcbnew,9.0.3*%
%TF.CreationDate,2025-10-12T21:41:27+02:00*%
%TF.ProjectId,kosmo song manager 595 channel board,6b6f736d-6f20-4736-9f6e-67206d616e61,rev?*%
%TF.SameCoordinates,Original*%
%TF.FileFunction,Legend,Bot*%
%TF.FilePolarity,Positive*%
%FSLAX46Y46*%
G04 Gerber Fmt 4.6, Leading zero omitted, Abs format (unit mm)*
G04 Created by KiCad (PCBNEW 9.0.3) date 2025-10-12 21:41:27*
%MOMM*%
%LPD*%
G01*
G04 APERTURE LIST*
%ADD10C,0.150000*%
%ADD11C,0.250000*%
%ADD12C,0.120000*%
G04 APERTURE END LIST*
D10*
G36*
X97428316Y-81979077D02*
G01*
X97458723Y-82009484D01*
X97497216Y-82086471D01*
X97540600Y-82260005D01*
X97540600Y-82479632D01*
X97497216Y-82653166D01*
X97458722Y-82730153D01*
X97428315Y-82760561D01*
X97359800Y-82794819D01*
X97299972Y-82794819D01*
X97231456Y-82760561D01*
X97201049Y-82730153D01*
X97162555Y-82653166D01*
X97119172Y-82479632D01*
X97119172Y-82260005D01*
X97162555Y-82086471D01*
X97201049Y-82009484D01*
X97231456Y-81979077D01*
X97299972Y-81944819D01*
X97359800Y-81944819D01*
X97428316Y-81979077D01*
G37*
G36*
X104207267Y-82794819D02*
G01*
X104056342Y-82794819D01*
X103941829Y-82756648D01*
X103867716Y-82682534D01*
X103829222Y-82605547D01*
X103785839Y-82432013D01*
X103785839Y-82307624D01*
X103829222Y-82134090D01*
X103867716Y-82057103D01*
X103941829Y-81982990D01*
X104056342Y-81944819D01*
X104207267Y-81944819D01*
X104207267Y-82794819D01*
G37*
G36*
X107047364Y-81979077D02*
G01*
X107119306Y-82051019D01*
X107159648Y-82212386D01*
X107159648Y-82527251D01*
X107119306Y-82688617D01*
X107047363Y-82760561D01*
X106978848Y-82794819D01*
X106823782Y-82794819D01*
X106755266Y-82760561D01*
X106683323Y-82688617D01*
X106642982Y-82527251D01*
X106642982Y-82212386D01*
X106683323Y-82051019D01*
X106755266Y-81979077D01*
X106823782Y-81944819D01*
X106978848Y-81944819D01*
X107047364Y-81979077D01*
G37*
G36*
X108112029Y-82794819D02*
G01*
X107823782Y-82794819D01*
X107755266Y-82760561D01*
X107724859Y-82730153D01*
X107690601Y-82661637D01*
X107690601Y-82554190D01*
X107724859Y-82485674D01*
X107751353Y-82459180D01*
X107865866Y-82421009D01*
X108112029Y-82421009D01*
X108112029Y-82794819D01*
G37*
G36*
X108112029Y-82271009D02*
G01*
X107871401Y-82271009D01*
X107802885Y-82236751D01*
X107772478Y-82206344D01*
X107738220Y-82137828D01*
X107738220Y-82078000D01*
X107772478Y-82009484D01*
X107802885Y-81979077D01*
X107871401Y-81944819D01*
X108112029Y-81944819D01*
X108112029Y-82271009D01*
G37*
G36*
X102445362Y-82318628D02*
G01*
X102157115Y-82318628D01*
X102088599Y-82284370D01*
X102058192Y-82253963D01*
X102023934Y-82185447D01*
X102023934Y-82078000D01*
X102058192Y-82009484D01*
X102088599Y-81979077D01*
X102157115Y-81944819D01*
X102445362Y-81944819D01*
X102445362Y-82318628D01*
G37*
G36*
X105207267Y-82318628D02*
G01*
X104919020Y-82318628D01*
X104850504Y-82284370D01*
X104820097Y-82253963D01*
X104785839Y-82185447D01*
X104785839Y-82078000D01*
X104820097Y-82009484D01*
X104850504Y-81979077D01*
X104919020Y-81944819D01*
X105207267Y-81944819D01*
X105207267Y-82318628D01*
G37*
G36*
X106082972Y-82509104D02*
G01*
X105814896Y-82509104D01*
X105948934Y-82106989D01*
X106082972Y-82509104D01*
G37*
G36*
X113559163Y-82509104D02*
G01*
X113291087Y-82509104D01*
X113425125Y-82106989D01*
X113559163Y-82509104D01*
G37*
G36*
X115896950Y-83055930D02*
G01*
X96858061Y-83055930D01*
X96858061Y-82250771D01*
X96969172Y-82250771D01*
X96969172Y-82488866D01*
X96969423Y-82491419D01*
X96969261Y-82492512D01*
X96970070Y-82497985D01*
X96970613Y-82503498D01*
X96971035Y-82504519D01*
X96971411Y-82507056D01*
X97019030Y-82697532D01*
X97019415Y-82698611D01*
X97019454Y-82699151D01*
X97021781Y-82705232D01*
X97023977Y-82711378D01*
X97024299Y-82711813D01*
X97024709Y-82712883D01*
X97072328Y-82808121D01*
X97076291Y-82814417D01*
X97077049Y-82816247D01*
X97078738Y-82818305D01*
X97080160Y-82820564D01*
X97081658Y-82821863D01*
X97086376Y-82827612D01*
X97133995Y-82875232D01*
X97139744Y-82879950D01*
X97141045Y-82881450D01*
X97143304Y-82882872D01*
X97145361Y-82884560D01*
X97147188Y-82885317D01*
X97153488Y-82889282D01*
X97248726Y-82936901D01*
X97262457Y-82942156D01*
X97265146Y-82942347D01*
X97267635Y-82943378D01*
X97282267Y-82944819D01*
X97377505Y-82944819D01*
X97392137Y-82943378D01*
X97394626Y-82942346D01*
X97397314Y-82942156D01*
X97411046Y-82936901D01*
X97506284Y-82889282D01*
X97512583Y-82885317D01*
X97514411Y-82884560D01*
X97516467Y-82882872D01*
X97518727Y-82881450D01*
X97520027Y-82879950D01*
X97525777Y-82875232D01*
X97573395Y-82827613D01*
X97578113Y-82821863D01*
X97579612Y-82820564D01*
X97581033Y-82818305D01*
X97582723Y-82816247D01*
X97583480Y-82814417D01*
X97587444Y-82808121D01*
X97587720Y-82807569D01*
X97922993Y-82807569D01*
X97922993Y-82836832D01*
X97928030Y-82848991D01*
X97934192Y-82863868D01*
X97943519Y-82875233D01*
X97991138Y-82922852D01*
X98002503Y-82932179D01*
X98029539Y-82943378D01*
X98029540Y-82943378D01*
X98058802Y-82943378D01*
X98058803Y-82943378D01*
X98085839Y-82932179D01*
X98097204Y-82922852D01*
X98144823Y-82875233D01*
X98154150Y-82863868D01*
X98165349Y-82836832D01*
X98165349Y-82807569D01*
X98164145Y-82804662D01*
X98154151Y-82780533D01*
X98144823Y-82769167D01*
X98097205Y-82721548D01*
X98085839Y-82712220D01*
X98085838Y-82712219D01*
X98067542Y-82704641D01*
X98058803Y-82701021D01*
X98058802Y-82701021D01*
X98029539Y-82701021D01*
X98020800Y-82704641D01*
X98002504Y-82712219D01*
X98002503Y-82712220D01*
X97991137Y-82721548D01*
X97943518Y-82769168D01*
X97934191Y-82780533D01*
X97922993Y-82807569D01*
X97587720Y-82807569D01*
X97635063Y-82712883D01*
X97635472Y-82711813D01*
X97635795Y-82711378D01*
X97637987Y-82705241D01*
X97640318Y-82699152D01*
X97640356Y-82698611D01*
X97640742Y-82697532D01*
X97688361Y-82507056D01*
X97688736Y-82504519D01*
X97689159Y-82503498D01*
X97689701Y-82497985D01*
X97690511Y-82492512D01*
X97690348Y-82491419D01*
X97690600Y-82488866D01*
X97690600Y-82441247D01*
X98397743Y-82441247D01*
X98397743Y-82679342D01*
X98399184Y-82693974D01*
X98400215Y-82696463D01*
X98400406Y-82699151D01*
X98405661Y-82712883D01*
X98453280Y-82808121D01*
X98457243Y-82814417D01*
X98458001Y-82816247D01*
X98459690Y-82818305D01*
X98461112Y-82820564D01*
X98462610Y-82821863D01*
X98467328Y-82827612D01*
X98514947Y-82875232D01*
X98520696Y-82879950D01*
X98521997Y-82881450D01*
X98524256Y-82882872D01*
X98526313Y-82884560D01*
X98528140Y-82885317D01*
X98534440Y-82889282D01*
X98629678Y-82936901D01*
X98643409Y-82942156D01*
X98646098Y-82942347D01*
X98648587Y-82943378D01*
X98663219Y-82944819D01*
X98948933Y-82944819D01*
X98963565Y-82943378D01*
X98966054Y-82942346D01*
X98968742Y-82942156D01*
X98982474Y-82936901D01*
X99077712Y-82889282D01*
X99084011Y-82885317D01*
X99085839Y-82884560D01*
X99087895Y-82882872D01*
X99090155Y-82881450D01*
X99091455Y-82879950D01*
X99097205Y-82875232D01*
X99144823Y-82827613D01*
X99154151Y-82816247D01*
X99165349Y-82789211D01*
X99165349Y-82759948D01*
X99154150Y-82732912D01*
X99133457Y-82712219D01*
X99106421Y-82701021D01*
X99077158Y-82701021D01*
X99050122Y-82712220D01*
X99038756Y-82721548D01*
X98999743Y-82760561D01*
X98931228Y-82794819D01*
X98680924Y-82794819D01*
X98612408Y-82760561D01*
X98582001Y-82730153D01*
X98547743Y-82661637D01*
X98547743Y-82458952D01*
X98582001Y-82390436D01*
X98612408Y-82360029D01*
X98680924Y-82325771D01*
X98806076Y-82325771D01*
X98813814Y-82325008D01*
X98815782Y-82325140D01*
X98817137Y-82324681D01*
X98820708Y-82324330D01*
X98831965Y-82319666D01*
X98843503Y-82315765D01*
X98845407Y-82314099D01*
X98847744Y-82313131D01*
X98856354Y-82304520D01*
X98865527Y-82296495D01*
X98866649Y-82294225D01*
X98868436Y-82292439D01*
X98873096Y-82281188D01*
X98878499Y-82270263D01*
X98878667Y-82267739D01*
X98879635Y-82265403D01*
X98879635Y-82253218D01*
X98880445Y-82241065D01*
X98879635Y-82238669D01*
X98879635Y-82236139D01*
X98874971Y-82224881D01*
X98871070Y-82213344D01*
X98868984Y-82210426D01*
X98868436Y-82209103D01*
X98867040Y-82207707D01*
X98862519Y-82201383D01*
X98638025Y-81944819D01*
X99091790Y-81944819D01*
X99106422Y-81943378D01*
X99133458Y-81932179D01*
X99154150Y-81911487D01*
X99165349Y-81884451D01*
X99165349Y-81879199D01*
X100017380Y-81879199D01*
X100020640Y-81893536D01*
X100353973Y-82893536D01*
X100359967Y-82906961D01*
X100363477Y-82911008D01*
X100365874Y-82915802D01*
X100372982Y-82921967D01*
X100379141Y-82929068D01*
X100383930Y-82931462D01*
X100387981Y-82934976D01*
X100396906Y-82937950D01*
X100405314Y-82942155D01*
X100410658Y-82942534D01*
X100415744Y-82944230D01*
X100425124Y-82943563D01*
X100434504Y-82944230D01*
X100439589Y-82942534D01*
X100444934Y-82942155D01*
X100453344Y-82937949D01*
X100462266Y-82934976D01*
X100466313Y-82931465D01*
X100471107Y-82929069D01*
X100477270Y-82921963D01*
X100484374Y-82915802D01*
X100486769Y-82911010D01*
X100490281Y-82906962D01*
X100496275Y-82893536D01*
X100829608Y-81893536D01*
X100832868Y-81879200D01*
X100831161Y-81855187D01*
X100970613Y-81855187D01*
X100970613Y-81884451D01*
X100981812Y-81911487D01*
X101002504Y-81932179D01*
X101029540Y-81943378D01*
X101044172Y-81944819D01*
X101445362Y-81944819D01*
X101445362Y-82271009D01*
X101187029Y-82271009D01*
X101172397Y-82272450D01*
X101145361Y-82283649D01*
X101124669Y-82304341D01*
X101113470Y-82331377D01*
X101113470Y-82360641D01*
X101124669Y-82387677D01*
X101145361Y-82408369D01*
X101172397Y-82419568D01*
X101187029Y-82421009D01*
X101445362Y-82421009D01*
X101445362Y-82794819D01*
X101044172Y-82794819D01*
X101029540Y-82796260D01*
X101002504Y-82807459D01*
X100981812Y-82828151D01*
X100970613Y-82855187D01*
X100970613Y-82884451D01*
X100981812Y-82911487D01*
X101002504Y-82932179D01*
X101029540Y-82943378D01*
X101044172Y-82944819D01*
X101520362Y-82944819D01*
X101534994Y-82943378D01*
X101562030Y-82932179D01*
X101582722Y-82911487D01*
X101593921Y-82884451D01*
X101593921Y-82884450D01*
X101595362Y-82869819D01*
X101595362Y-82060295D01*
X101873934Y-82060295D01*
X101873934Y-82203152D01*
X101875375Y-82217784D01*
X101876406Y-82220273D01*
X101876597Y-82222961D01*
X101881852Y-82236693D01*
X101929471Y-82331931D01*
X101933435Y-82338230D01*
X101934193Y-82340058D01*
X101935881Y-82342114D01*
X101937303Y-82344374D01*
X101938801Y-82345673D01*
X101943520Y-82351423D01*
X101991139Y-82399042D01*
X101996888Y-82403760D01*
X101998188Y-82405259D01*
X102000447Y-82406680D01*
X102002504Y-82408369D01*
X102004331Y-82409126D01*
X102010631Y-82413091D01*
X102105869Y-82460710D01*
X102119600Y-82465965D01*
X102122289Y-82466156D01*
X102124778Y-82467187D01*
X102138295Y-82468518D01*
X101887492Y-82826809D01*
X101880281Y-82839623D01*
X101873952Y-82868194D01*
X101879037Y-82897011D01*
X101894764Y-82921690D01*
X101918738Y-82938472D01*
X101947309Y-82944801D01*
X101976126Y-82939716D01*
X102000805Y-82923989D01*
X102010376Y-82912829D01*
X102321316Y-82468628D01*
X102445362Y-82468628D01*
X102445362Y-82869819D01*
X102446803Y-82884451D01*
X102458002Y-82911487D01*
X102478694Y-82932179D01*
X102505730Y-82943378D01*
X102534994Y-82943378D01*
X102562030Y-82932179D01*
X102582722Y-82911487D01*
X102593921Y-82884451D01*
X102595362Y-82869819D01*
X102595362Y-82298390D01*
X103635839Y-82298390D01*
X103635839Y-82441247D01*
X103636090Y-82443800D01*
X103635928Y-82444893D01*
X103636737Y-82450366D01*
X103637280Y-82455879D01*
X103637702Y-82456900D01*
X103638078Y-82459437D01*
X103685697Y-82649913D01*
X103686082Y-82650992D01*
X103686121Y-82651532D01*
X103688448Y-82657613D01*
X103690644Y-82663759D01*
X103690966Y-82664194D01*
X103691376Y-82665264D01*
X103738995Y-82760502D01*
X103742958Y-82766798D01*
X103743716Y-82768628D01*
X103745405Y-82770686D01*
X103746827Y-82772945D01*
X103748325Y-82774244D01*
X103753044Y-82779994D01*
X103848282Y-82875233D01*
X103859647Y-82884561D01*
X103862137Y-82885592D01*
X103864172Y-82887357D01*
X103877598Y-82893351D01*
X104020454Y-82940970D01*
X104027709Y-82942619D01*
X104029540Y-82943378D01*
X104032193Y-82943639D01*
X104034791Y-82944230D01*
X104036765Y-82944089D01*
X104044172Y-82944819D01*
X104282267Y-82944819D01*
X104296899Y-82943378D01*
X104323935Y-82932179D01*
X104344627Y-82911487D01*
X104355826Y-82884451D01*
X104355826Y-82884450D01*
X104357267Y-82869819D01*
X104357267Y-82060295D01*
X104635839Y-82060295D01*
X104635839Y-82203152D01*
X104637280Y-82217784D01*
X104638311Y-82220273D01*
X104638502Y-82222961D01*
X104643757Y-82236693D01*
X104691376Y-82331931D01*
X104695340Y-82338230D01*
X104696098Y-82340058D01*
X104697786Y-82342114D01*
X104699208Y-82344374D01*
X104700706Y-82345673D01*
X104705425Y-82351423D01*
X104753044Y-82399042D01*
X104758793Y-82403760D01*
X104760093Y-82405259D01*
X104762352Y-82406680D01*
X104764409Y-82408369D01*
X104766236Y-82409126D01*
X104772536Y-82413091D01*
X104867774Y-82460710D01*
X104881505Y-82465965D01*
X104884194Y-82466156D01*
X104886683Y-82467187D01*
X104900200Y-82468518D01*
X104649397Y-82826809D01*
X104642186Y-82839623D01*
X104635857Y-82868194D01*
X104640942Y-82897011D01*
X104656669Y-82921690D01*
X104680643Y-82938472D01*
X104709214Y-82944801D01*
X104738031Y-82939716D01*
X104762710Y-82923989D01*
X104772281Y-82912829D01*
X105083221Y-82468628D01*
X105207267Y-82468628D01*
X105207267Y-82869819D01*
X105208708Y-82884451D01*
X105219907Y-82911487D01*
X105240599Y-82932179D01*
X105267635Y-82943378D01*
X105296899Y-82943378D01*
X105323935Y-82932179D01*
X105344627Y-82911487D01*
X105355826Y-82884451D01*
X105357267Y-82869819D01*
X105357267Y-82860439D01*
X105541190Y-82860439D01*
X105543265Y-82889629D01*
X105556351Y-82915802D01*
X105578458Y-82934976D01*
X105606221Y-82944230D01*
X105635411Y-82942155D01*
X105661584Y-82929069D01*
X105680758Y-82906962D01*
X105686752Y-82893536D01*
X105764896Y-82659104D01*
X106132972Y-82659104D01*
X106211116Y-82893536D01*
X106217110Y-82906961D01*
X106236284Y-82929068D01*
X106262457Y-82942155D01*
X106291647Y-82944230D01*
X106319409Y-82934976D01*
X106341517Y-82915802D01*
X106354603Y-82889628D01*
X106356678Y-82860438D01*
X106353418Y-82846102D01*
X106139102Y-82203152D01*
X106492982Y-82203152D01*
X106492982Y-82536485D01*
X106493233Y-82539038D01*
X106493071Y-82540131D01*
X106493880Y-82545604D01*
X106494423Y-82551117D01*
X106494845Y-82552138D01*
X106495221Y-82554675D01*
X106542840Y-82745151D01*
X106547787Y-82758997D01*
X106551106Y-82763476D01*
X106553240Y-82768628D01*
X106562568Y-82779994D01*
X106657806Y-82875233D01*
X106663556Y-82879953D01*
X106664855Y-82881450D01*
X106667109Y-82882869D01*
X106669171Y-82884561D01*
X106671003Y-82885319D01*
X106677298Y-82889282D01*
X106772536Y-82936901D01*
X106786267Y-82942156D01*
X106788956Y-82942347D01*
X106791445Y-82943378D01*
X106806077Y-82944819D01*
X106996553Y-82944819D01*
X107011185Y-82943378D01*
X107013674Y-82942346D01*
X107016362Y-82942156D01*
X107030094Y-82936901D01*
X107125332Y-82889282D01*
X107131631Y-82885317D01*
X107133459Y-82884560D01*
X107135515Y-82882871D01*
X107137775Y-82881450D01*
X107139074Y-82879951D01*
X107144824Y-82875233D01*
X107240063Y-82779993D01*
X107249390Y-82768628D01*
X107251523Y-82763476D01*
X107254843Y-82758997D01*
X107259790Y-82745151D01*
X107307409Y-82554675D01*
X107307784Y-82552138D01*
X107308207Y-82551117D01*
X107308749Y-82545604D01*
X107309559Y-82540131D01*
X107309396Y-82539038D01*
X107309648Y-82536485D01*
X107540601Y-82536485D01*
X107540601Y-82679342D01*
X107542042Y-82693974D01*
X107543073Y-82696463D01*
X107543264Y-82699151D01*
X107548519Y-82712883D01*
X107596138Y-82808121D01*
X107600101Y-82814417D01*
X107600859Y-82816247D01*
X107602548Y-82818305D01*
X107603970Y-82820564D01*
X107605468Y-82821863D01*
X107610186Y-82827612D01*
X107657805Y-82875232D01*
X107663554Y-82879950D01*
X107664855Y-82881450D01*
X107667114Y-82882872D01*
X107669171Y-82884560D01*
X107670998Y-82885317D01*
X107677298Y-82889282D01*
X107772536Y-82936901D01*
X107786267Y-82942156D01*
X107788956Y-82942347D01*
X107791445Y-82943378D01*
X107806077Y-82944819D01*
X108187029Y-82944819D01*
X108201661Y-82943378D01*
X108228697Y-82932179D01*
X108249389Y-82911487D01*
X108260588Y-82884451D01*
X108260588Y-82884450D01*
X108262029Y-82869819D01*
X108262029Y-82855187D01*
X109208709Y-82855187D01*
X109208709Y-82884451D01*
X109219908Y-82911487D01*
X109240600Y-82932179D01*
X109267636Y-82943378D01*
X109282268Y-82944819D01*
X109758458Y-82944819D01*
X109773090Y-82943378D01*
X109800126Y-82932179D01*
X109820818Y-82911487D01*
X109832017Y-82884451D01*
X109832017Y-82884450D01*
X109833458Y-82869819D01*
X109833458Y-81869819D01*
X109832017Y-81855187D01*
X110113471Y-81855187D01*
X110113471Y-81884451D01*
X110124670Y-81911487D01*
X110145362Y-81932179D01*
X110172398Y-81943378D01*
X110187030Y-81944819D01*
X110588220Y-81944819D01*
X110588220Y-82271009D01*
X110329887Y-82271009D01*
X110315255Y-82272450D01*
X110288219Y-82283649D01*
X110267527Y-82304341D01*
X110256328Y-82331377D01*
X110256328Y-82360641D01*
X110267527Y-82387677D01*
X110288219Y-82408369D01*
X110315255Y-82419568D01*
X110329887Y-82421009D01*
X110588220Y-82421009D01*
X110588220Y-82794819D01*
X110187030Y-82794819D01*
X110172398Y-82796260D01*
X110145362Y-82807459D01*
X110124670Y-82828151D01*
X110113471Y-82855187D01*
X110113471Y-82884451D01*
X110124670Y-82911487D01*
X110145362Y-82932179D01*
X110172398Y-82943378D01*
X110187030Y-82944819D01*
X110663220Y-82944819D01*
X110677852Y-82943378D01*
X110704888Y-82932179D01*
X110725580Y-82911487D01*
X110736779Y-82884451D01*
X110736779Y-82884450D01*
X110738220Y-82869819D01*
X110738220Y-81869819D01*
X111064411Y-81869819D01*
X111064411Y-82869819D01*
X111064781Y-82873582D01*
X111064594Y-82875058D01*
X111065115Y-82876968D01*
X111065852Y-82884451D01*
X111069669Y-82893666D01*
X111072294Y-82903290D01*
X111075221Y-82907070D01*
X111077051Y-82911487D01*
X111084101Y-82918537D01*
X111090211Y-82926427D01*
X111094364Y-82928800D01*
X111097743Y-82932179D01*
X111106955Y-82935995D01*
X111115620Y-82940946D01*
X111120363Y-82941548D01*
X111124779Y-82943378D01*
X111134753Y-82943378D01*
X111144650Y-82944636D01*
X111149262Y-82943378D01*
X111154043Y-82943378D01*
X111163258Y-82939560D01*
X111172882Y-82936936D01*
X111176662Y-82934008D01*
X111181079Y-82932179D01*
X111188129Y-82925128D01*
X111196019Y-82919019D01*
X111200371Y-82912886D01*
X111201771Y-82911487D01*
X111202340Y-82910112D01*
X111204529Y-82907029D01*
X111635839Y-82152235D01*
X111635839Y-82869819D01*
X111637280Y-82884451D01*
X111648479Y-82911487D01*
X111669171Y-82932179D01*
X111696207Y-82943378D01*
X111725471Y-82943378D01*
X111752507Y-82932179D01*
X111773199Y-82911487D01*
X111784398Y-82884451D01*
X111785839Y-82869819D01*
X111785839Y-81869819D01*
X112112030Y-81869819D01*
X112112030Y-82869819D01*
X112112400Y-82873582D01*
X112112213Y-82875058D01*
X112112734Y-82876968D01*
X112113471Y-82884451D01*
X112117288Y-82893666D01*
X112119913Y-82903290D01*
X112122840Y-82907070D01*
X112124670Y-82911487D01*
X112131720Y-82918537D01*
X112137830Y-82926427D01*
X112141983Y-82928800D01*
X112145362Y-82932179D01*
X112154574Y-82935995D01*
X112163239Y-82940946D01*
X112167982Y-82941548D01*
X112172398Y-82943378D01*
X112182372Y-82943378D01*
X112192269Y-82944636D01*
X112196881Y-82943378D01*
X112201662Y-82943378D01*
X112210877Y-82939560D01*
X112220501Y-82936936D01*
X112224281Y-82934008D01*
X112228698Y-82932179D01*
X112235748Y-82925128D01*
X112243638Y-82919019D01*
X112247990Y-82912886D01*
X112249390Y-82911487D01*
X112249959Y-82910112D01*
X112252148Y-82907029D01*
X112683458Y-82152235D01*
X112683458Y-82869819D01*
X112684899Y-82884451D01*
X112696098Y-82911487D01*
X112716790Y-82932179D01*
X112743826Y-82943378D01*
X112773090Y-82943378D01*
X112800126Y-82932179D01*
X112820818Y-82911487D01*
X112832017Y-82884451D01*
X112833458Y-82869819D01*
X112833458Y-82860439D01*
X113017381Y-82860439D01*
X113019456Y-82889629D01*
X113032542Y-82915802D01*
X113054649Y-82934976D01*
X113082412Y-82944230D01*
X113111602Y-82942155D01*
X113137775Y-82929069D01*
X113156949Y-82906962D01*
X113162943Y-82893536D01*
X113241087Y-82659104D01*
X113609163Y-82659104D01*
X113687307Y-82893536D01*
X113693301Y-82906961D01*
X113712475Y-82929068D01*
X113738648Y-82942155D01*
X113767838Y-82944230D01*
X113795600Y-82934976D01*
X113817708Y-82915802D01*
X113830794Y-82889628D01*
X113832869Y-82860438D01*
X113829609Y-82846102D01*
X113504182Y-81869819D01*
X114016792Y-81869819D01*
X114016792Y-82869819D01*
X114018233Y-82884451D01*
X114029432Y-82911487D01*
X114050124Y-82932179D01*
X114077160Y-82943378D01*
X114106424Y-82943378D01*
X114133460Y-82932179D01*
X114154152Y-82911487D01*
X114165351Y-82884451D01*
X114166792Y-82869819D01*
X114166792Y-82421009D01*
X114588220Y-82421009D01*
X114588220Y-82869819D01*
X114589661Y-82884451D01*
X114600860Y-82911487D01*
X114621552Y-82932179D01*
X114648588Y-82943378D01*
X114677852Y-82943378D01*
X114704888Y-82932179D01*
X114725580Y-82911487D01*
X114736779Y-82884451D01*
X114738220Y-82869819D01*
X114738220Y-81950426D01*
X115018233Y-81950426D01*
X115018233Y-81979688D01*
X115029432Y-82006725D01*
X115050124Y-82027417D01*
X115077161Y-82038616D01*
X115106423Y-82038616D01*
X115133460Y-82027417D01*
X115144825Y-82018090D01*
X115179925Y-81982990D01*
X115294438Y-81944819D01*
X115365336Y-81944819D01*
X115479849Y-81982990D01*
X115553962Y-82057103D01*
X115592455Y-82134090D01*
X115635839Y-82307624D01*
X115635839Y-82432013D01*
X115592455Y-82605547D01*
X115553961Y-82682534D01*
X115479849Y-82756647D01*
X115365336Y-82794819D01*
X115294438Y-82794819D01*
X115179925Y-82756648D01*
X115144826Y-82721548D01*
X115133460Y-82712220D01*
X115106424Y-82701021D01*
X115077161Y-82701021D01*
X115050125Y-82712219D01*
X115029432Y-82732912D01*
X115018233Y-82759948D01*
X115018233Y-82789211D01*
X115029431Y-82816247D01*
X115038758Y-82827612D01*
X115086377Y-82875232D01*
X115097743Y-82884560D01*
X115100231Y-82885590D01*
X115102268Y-82887357D01*
X115115694Y-82893351D01*
X115258550Y-82940970D01*
X115265805Y-82942619D01*
X115267636Y-82943378D01*
X115270289Y-82943639D01*
X115272887Y-82944230D01*
X115274861Y-82944089D01*
X115282268Y-82944819D01*
X115377506Y-82944819D01*
X115384911Y-82944089D01*
X115386886Y-82944230D01*
X115389483Y-82943639D01*
X115392138Y-82943378D01*
X115393969Y-82942619D01*
X115401223Y-82940970D01*
X115544080Y-82893351D01*
X115557505Y-82887357D01*
X115559540Y-82885591D01*
X115562031Y-82884560D01*
X115573396Y-82875233D01*
X115668635Y-82779993D01*
X115673352Y-82774244D01*
X115674851Y-82772945D01*
X115676272Y-82770686D01*
X115677962Y-82768628D01*
X115678719Y-82766798D01*
X115682683Y-82760502D01*
X115730302Y-82665264D01*
X115730711Y-82664194D01*
X115731034Y-82663759D01*
X115733226Y-82657622D01*
X115735557Y-82651533D01*
X115735595Y-82650992D01*
X115735981Y-82649913D01*
X115783600Y-82459437D01*
X115783975Y-82456900D01*
X115784398Y-82455879D01*
X115784940Y-82450366D01*
X115785750Y-82444893D01*
X115785587Y-82443800D01*
X115785839Y-82441247D01*
X115785839Y-82298390D01*
X115785587Y-82295836D01*
X115785750Y-82294744D01*
X115784940Y-82289270D01*
X115784398Y-82283758D01*
X115783975Y-82282736D01*
X115783600Y-82280200D01*
X115735981Y-82089724D01*
X115735595Y-82088644D01*
X115735557Y-82088104D01*
X115733226Y-82082014D01*
X115731034Y-82075878D01*
X115730711Y-82075442D01*
X115730302Y-82074373D01*
X115682683Y-81979135D01*
X115678720Y-81972840D01*
X115677962Y-81971008D01*
X115676270Y-81968946D01*
X115674851Y-81966692D01*
X115673354Y-81965393D01*
X115668634Y-81959643D01*
X115573396Y-81864405D01*
X115562031Y-81855078D01*
X115559540Y-81854046D01*
X115557505Y-81852281D01*
X115544080Y-81846287D01*
X115401223Y-81798668D01*
X115393969Y-81797018D01*
X115392138Y-81796260D01*
X115389483Y-81795998D01*
X115386886Y-81795408D01*
X115384911Y-81795548D01*
X115377506Y-81794819D01*
X115282268Y-81794819D01*
X115274861Y-81795548D01*
X115272887Y-81795408D01*
X115270289Y-81795998D01*
X115267636Y-81796260D01*
X115265805Y-81797018D01*
X115258550Y-81798668D01*
X115115694Y-81846287D01*
X115102268Y-81852281D01*
X115100231Y-81854047D01*
X115097743Y-81855078D01*
X115086378Y-81864405D01*
X115038759Y-81912024D01*
X115029432Y-81923389D01*
X115018233Y-81950426D01*
X114738220Y-81950426D01*
X114738220Y-81869819D01*
X114736779Y-81855187D01*
X114725580Y-81828151D01*
X114704888Y-81807459D01*
X114677852Y-81796260D01*
X114648588Y-81796260D01*
X114621552Y-81807459D01*
X114600860Y-81828151D01*
X114589661Y-81855187D01*
X114588220Y-81869819D01*
X114588220Y-82271009D01*
X114166792Y-82271009D01*
X114166792Y-81869819D01*
X114165351Y-81855187D01*
X114154152Y-81828151D01*
X114133460Y-81807459D01*
X114106424Y-81796260D01*
X114077160Y-81796260D01*
X114050124Y-81807459D01*
X114029432Y-81828151D01*
X114018233Y-81855187D01*
X114016792Y-81869819D01*
X113504182Y-81869819D01*
X113496276Y-81846102D01*
X113490282Y-81832676D01*
X113486770Y-81828627D01*
X113484375Y-81823836D01*
X113477271Y-81817674D01*
X113471108Y-81810569D01*
X113466314Y-81808172D01*
X113462267Y-81804662D01*
X113453345Y-81801688D01*
X113444935Y-81797483D01*
X113439590Y-81797103D01*
X113434505Y-81795408D01*
X113425125Y-81796074D01*
X113415745Y-81795408D01*
X113410659Y-81797103D01*
X113405315Y-81797483D01*
X113396907Y-81801687D01*
X113387982Y-81804662D01*
X113383931Y-81808175D01*
X113379142Y-81810570D01*
X113372983Y-81817670D01*
X113365875Y-81823836D01*
X113363478Y-81828629D01*
X113359968Y-81832677D01*
X113353974Y-81846102D01*
X113020641Y-82846102D01*
X113017381Y-82860439D01*
X112833458Y-82860439D01*
X112833458Y-81869819D01*
X112833087Y-81866055D01*
X112833275Y-81864580D01*
X112832753Y-81862669D01*
X112832017Y-81855187D01*
X112828199Y-81845971D01*
X112825575Y-81836348D01*
X112822647Y-81832567D01*
X112820818Y-81828151D01*
X112813767Y-81821100D01*
X112807658Y-81813211D01*
X112803504Y-81810837D01*
X112800126Y-81807459D01*
X112790913Y-81803642D01*
X112782249Y-81798692D01*
X112777505Y-81798089D01*
X112773090Y-81796260D01*
X112763116Y-81796260D01*
X112753219Y-81795002D01*
X112748607Y-81796260D01*
X112743826Y-81796260D01*
X112734609Y-81800077D01*
X112724988Y-81802702D01*
X112721208Y-81805628D01*
X112716790Y-81807459D01*
X112709738Y-81814510D01*
X112701850Y-81820619D01*
X112697495Y-81826753D01*
X112696098Y-81828151D01*
X112695529Y-81829523D01*
X112693340Y-81832608D01*
X112262030Y-82587402D01*
X112262030Y-81869819D01*
X112260589Y-81855187D01*
X112249390Y-81828151D01*
X112228698Y-81807459D01*
X112201662Y-81796260D01*
X112172398Y-81796260D01*
X112145362Y-81807459D01*
X112124670Y-81828151D01*
X112113471Y-81855187D01*
X112112030Y-81869819D01*
X111785839Y-81869819D01*
X111785468Y-81866055D01*
X111785656Y-81864580D01*
X111785134Y-81862669D01*
X111784398Y-81855187D01*
X111780580Y-81845971D01*
X111777956Y-81836348D01*
X111775028Y-81832567D01*
X111773199Y-81828151D01*
X111766148Y-81821100D01*
X111760039Y-81813211D01*
X111755885Y-81810837D01*
X111752507Y-81807459D01*
X111743294Y-81803642D01*
X111734630Y-81798692D01*
X111729886Y-81798089D01*
X111725471Y-81796260D01*
X111715497Y-81796260D01*
X111705600Y-81795002D01*
X111700988Y-81796260D01*
X111696207Y-81796260D01*
X111686990Y-81800077D01*
X111677369Y-81802702D01*
X111673589Y-81805628D01*
X111669171Y-81807459D01*
X111662119Y-81814510D01*
X111654231Y-81820619D01*
X111649876Y-81826753D01*
X111648479Y-81828151D01*
X111647910Y-81829523D01*
X111645721Y-81832608D01*
X111214411Y-82587402D01*
X111214411Y-81869819D01*
X111212970Y-81855187D01*
X111201771Y-81828151D01*
X111181079Y-81807459D01*
X111154043Y-81796260D01*
X111124779Y-81796260D01*
X111097743Y-81807459D01*
X111077051Y-81828151D01*
X111065852Y-81855187D01*
X111064411Y-81869819D01*
X110738220Y-81869819D01*
X110736779Y-81855187D01*
X110725580Y-81828151D01*
X110704888Y-81807459D01*
X110677852Y-81796260D01*
X110663220Y-81794819D01*
X110187030Y-81794819D01*
X110172398Y-81796260D01*
X110145362Y-81807459D01*
X110124670Y-81828151D01*
X110113471Y-81855187D01*
X109832017Y-81855187D01*
X109820818Y-81828151D01*
X109800126Y-81807459D01*
X109773090Y-81796260D01*
X109743826Y-81796260D01*
X109716790Y-81807459D01*
X109696098Y-81828151D01*
X109684899Y-81855187D01*
X109683458Y-81869819D01*
X109683458Y-82794819D01*
X109282268Y-82794819D01*
X109267636Y-82796260D01*
X109240600Y-82807459D01*
X109219908Y-82828151D01*
X109208709Y-82855187D01*
X108262029Y-82855187D01*
X108262029Y-81869819D01*
X108260588Y-81855187D01*
X108249389Y-81828151D01*
X108228697Y-81807459D01*
X108201661Y-81796260D01*
X108187029Y-81794819D01*
X107853696Y-81794819D01*
X107839064Y-81796260D01*
X107836575Y-81797290D01*
X107833886Y-81797482D01*
X107820155Y-81802737D01*
X107724917Y-81850356D01*
X107718617Y-81854320D01*
X107716790Y-81855078D01*
X107714733Y-81856766D01*
X107712474Y-81858188D01*
X107711174Y-81859686D01*
X107705425Y-81864405D01*
X107657806Y-81912024D01*
X107653087Y-81917773D01*
X107651589Y-81919073D01*
X107650167Y-81921332D01*
X107648479Y-81923389D01*
X107647721Y-81925216D01*
X107643757Y-81931516D01*
X107596138Y-82026754D01*
X107590883Y-82040486D01*
X107590692Y-82043173D01*
X107589661Y-82045663D01*
X107588220Y-82060295D01*
X107588220Y-82155533D01*
X107589661Y-82170165D01*
X107590692Y-82172654D01*
X107590883Y-82175342D01*
X107596138Y-82189074D01*
X107643757Y-82284312D01*
X107647721Y-82290611D01*
X107648479Y-82292439D01*
X107650167Y-82294495D01*
X107651589Y-82296755D01*
X107653087Y-82298054D01*
X107657806Y-82303804D01*
X107679763Y-82325761D01*
X107673696Y-82328471D01*
X107671659Y-82330237D01*
X107669171Y-82331268D01*
X107657806Y-82340595D01*
X107610187Y-82388214D01*
X107605468Y-82393963D01*
X107603970Y-82395263D01*
X107602548Y-82397522D01*
X107600860Y-82399579D01*
X107600102Y-82401406D01*
X107596138Y-82407706D01*
X107548519Y-82502944D01*
X107543264Y-82516676D01*
X107543073Y-82519363D01*
X107542042Y-82521853D01*
X107540601Y-82536485D01*
X107309648Y-82536485D01*
X107309648Y-82203152D01*
X107309396Y-82200598D01*
X107309559Y-82199506D01*
X107308749Y-82194032D01*
X107308207Y-82188520D01*
X107307784Y-82187498D01*
X107307409Y-82184962D01*
X107259790Y-81994486D01*
X107254843Y-81980640D01*
X107251524Y-81976161D01*
X107249390Y-81971008D01*
X107240062Y-81959643D01*
X107144824Y-81864405D01*
X107139074Y-81859686D01*
X107137775Y-81858188D01*
X107135515Y-81856766D01*
X107133459Y-81855078D01*
X107131631Y-81854320D01*
X107125332Y-81850356D01*
X107030094Y-81802737D01*
X107016362Y-81797482D01*
X107013674Y-81797291D01*
X107011185Y-81796260D01*
X106996553Y-81794819D01*
X106806077Y-81794819D01*
X106791445Y-81796260D01*
X106788956Y-81797290D01*
X106786267Y-81797482D01*
X106772536Y-81802737D01*
X106677298Y-81850356D01*
X106671003Y-81854318D01*
X106669171Y-81855077D01*
X106667109Y-81856768D01*
X106664855Y-81858188D01*
X106663556Y-81859684D01*
X106657806Y-81864405D01*
X106562568Y-81959643D01*
X106553241Y-81971008D01*
X106551107Y-81976158D01*
X106547787Y-81980640D01*
X106542840Y-81994486D01*
X106495221Y-82184962D01*
X106494845Y-82187498D01*
X106494423Y-82188520D01*
X106493880Y-82194032D01*
X106493071Y-82199506D01*
X106493233Y-82200598D01*
X106492982Y-82203152D01*
X106139102Y-82203152D01*
X106020085Y-81846102D01*
X106014091Y-81832676D01*
X106010579Y-81828627D01*
X106008184Y-81823836D01*
X106001080Y-81817674D01*
X105994917Y-81810569D01*
X105990123Y-81808172D01*
X105986076Y-81804662D01*
X105977154Y-81801688D01*
X105968744Y-81797483D01*
X105963399Y-81797103D01*
X105958314Y-81795408D01*
X105948934Y-81796074D01*
X105939554Y-81795408D01*
X105934468Y-81797103D01*
X105929124Y-81797483D01*
X105920716Y-81801687D01*
X105911791Y-81804662D01*
X105907740Y-81808175D01*
X105902951Y-81810570D01*
X105896792Y-81817670D01*
X105889684Y-81823836D01*
X105887287Y-81828629D01*
X105883777Y-81832677D01*
X105877783Y-81846102D01*
X105544450Y-82846102D01*
X105541190Y-82860439D01*
X105357267Y-82860439D01*
X105357267Y-81869819D01*
X105355826Y-81855187D01*
X105344627Y-81828151D01*
X105323935Y-81807459D01*
X105296899Y-81796260D01*
X105282267Y-81794819D01*
X104901315Y-81794819D01*
X104886683Y-81796260D01*
X104884194Y-81797290D01*
X104881505Y-81797482D01*
X104867774Y-81802737D01*
X104772536Y-81850356D01*
X104766236Y-81854320D01*
X104764409Y-81855078D01*
X104762352Y-81856766D01*
X104760093Y-81858188D01*
X104758793Y-81859686D01*
X104753044Y-81864405D01*
X104705425Y-81912024D01*
X104700706Y-81917773D01*
X104699208Y-81919073D01*
X104697786Y-81921332D01*
X104696098Y-81923389D01*
X104695340Y-81925216D01*
X104691376Y-81931516D01*
X104643757Y-82026754D01*
X104638502Y-82040486D01*
X104638311Y-82043173D01*
X104637280Y-82045663D01*
X104635839Y-82060295D01*
X104357267Y-82060295D01*
X104357267Y-81869819D01*
X104355826Y-81855187D01*
X104344627Y-81828151D01*
X104323935Y-81807459D01*
X104296899Y-81796260D01*
X104282267Y-81794819D01*
X104044172Y-81794819D01*
X104036765Y-81795548D01*
X104034791Y-81795408D01*
X104032193Y-81795998D01*
X104029540Y-81796260D01*
X104027709Y-81797018D01*
X104020454Y-81798668D01*
X103877598Y-81846287D01*
X103864172Y-81852281D01*
X103862137Y-81854045D01*
X103859647Y-81855077D01*
X103848282Y-81864405D01*
X103753044Y-81959643D01*
X103748325Y-81965392D01*
X103746827Y-81966692D01*
X103745405Y-81968951D01*
X103743717Y-81971008D01*
X103742959Y-81972835D01*
X103738995Y-81979135D01*
X103691376Y-82074373D01*
X103690966Y-82075442D01*
X103690644Y-82075878D01*
X103688448Y-82082023D01*
X103686121Y-82088105D01*
X103686082Y-82088644D01*
X103685697Y-82089724D01*
X103638078Y-82280200D01*
X103637702Y-82282736D01*
X103637280Y-82283758D01*
X103636737Y-82289270D01*
X103635928Y-82294744D01*
X103636090Y-82295836D01*
X103635839Y-82298390D01*
X102595362Y-82298390D01*
X102595362Y-81869819D01*
X102593921Y-81855187D01*
X102582722Y-81828151D01*
X102562030Y-81807459D01*
X102534994Y-81796260D01*
X102520362Y-81794819D01*
X102139410Y-81794819D01*
X102124778Y-81796260D01*
X102122289Y-81797290D01*
X102119600Y-81797482D01*
X102105869Y-81802737D01*
X102010631Y-81850356D01*
X102004331Y-81854320D01*
X102002504Y-81855078D01*
X102000447Y-81856766D01*
X101998188Y-81858188D01*
X101996888Y-81859686D01*
X101991139Y-81864405D01*
X101943520Y-81912024D01*
X101938801Y-81917773D01*
X101937303Y-81919073D01*
X101935881Y-81921332D01*
X101934193Y-81923389D01*
X101933435Y-81925216D01*
X101929471Y-81931516D01*
X101881852Y-82026754D01*
X101876597Y-82040486D01*
X101876406Y-82043173D01*
X101875375Y-82045663D01*
X101873934Y-82060295D01*
X101595362Y-82060295D01*
X101595362Y-81869819D01*
X101593921Y-81855187D01*
X101582722Y-81828151D01*
X101562030Y-81807459D01*
X101534994Y-81796260D01*
X101520362Y-81794819D01*
X101044172Y-81794819D01*
X101029540Y-81796260D01*
X101002504Y-81807459D01*
X100981812Y-81828151D01*
X100970613Y-81855187D01*
X100831161Y-81855187D01*
X100830793Y-81850010D01*
X100817707Y-81823836D01*
X100795599Y-81804662D01*
X100767837Y-81795408D01*
X100738647Y-81797483D01*
X100712474Y-81810570D01*
X100693300Y-81832677D01*
X100687306Y-81846102D01*
X100425124Y-82632648D01*
X100162942Y-81846102D01*
X100156948Y-81832676D01*
X100137774Y-81810569D01*
X100111601Y-81797483D01*
X100082411Y-81795408D01*
X100054648Y-81804662D01*
X100032541Y-81823836D01*
X100019455Y-81850009D01*
X100017380Y-81879199D01*
X99165349Y-81879199D01*
X99165349Y-81855187D01*
X99154150Y-81828151D01*
X99133458Y-81807459D01*
X99106422Y-81796260D01*
X99091790Y-81794819D01*
X98472743Y-81794819D01*
X98465004Y-81795581D01*
X98463037Y-81795450D01*
X98461681Y-81795908D01*
X98458111Y-81796260D01*
X98446853Y-81800923D01*
X98435316Y-81804825D01*
X98433411Y-81806490D01*
X98431075Y-81807459D01*
X98422464Y-81816069D01*
X98413292Y-81824095D01*
X98412169Y-81826364D01*
X98410383Y-81828151D01*
X98405722Y-81839401D01*
X98400320Y-81850327D01*
X98400151Y-81852850D01*
X98399184Y-81855187D01*
X98399184Y-81867371D01*
X98398374Y-81879525D01*
X98399184Y-81881920D01*
X98399184Y-81884451D01*
X98403847Y-81895708D01*
X98407749Y-81907246D01*
X98409834Y-81910163D01*
X98410383Y-81911487D01*
X98411778Y-81912882D01*
X98416300Y-81919207D01*
X98643195Y-82178515D01*
X98629678Y-82183689D01*
X98534440Y-82231308D01*
X98528140Y-82235272D01*
X98526313Y-82236030D01*
X98524256Y-82237718D01*
X98521997Y-82239140D01*
X98520697Y-82240638D01*
X98514948Y-82245357D01*
X98467329Y-82292976D01*
X98462610Y-82298725D01*
X98461112Y-82300025D01*
X98459690Y-82302284D01*
X98458002Y-82304341D01*
X98457244Y-82306168D01*
X98453280Y-82312468D01*
X98405661Y-82407706D01*
X98400406Y-82421438D01*
X98400215Y-82424125D01*
X98399184Y-82426615D01*
X98397743Y-82441247D01*
X97690600Y-82441247D01*
X97690600Y-82250771D01*
X97690348Y-82248217D01*
X97690511Y-82247125D01*
X97689701Y-82241651D01*
X97689159Y-82236139D01*
X97688736Y-82235117D01*
X97688361Y-82232581D01*
X97640742Y-82042105D01*
X97640356Y-82041025D01*
X97640318Y-82040485D01*
X97637987Y-82034395D01*
X97635795Y-82028259D01*
X97635472Y-82027823D01*
X97635063Y-82026754D01*
X97587444Y-81931516D01*
X97583479Y-81925216D01*
X97582722Y-81923389D01*
X97581033Y-81921332D01*
X97579612Y-81919073D01*
X97578113Y-81917773D01*
X97573395Y-81912024D01*
X97525776Y-81864405D01*
X97520026Y-81859686D01*
X97518727Y-81858188D01*
X97516467Y-81856766D01*
X97514411Y-81855078D01*
X97512583Y-81854320D01*
X97506284Y-81850356D01*
X97411046Y-81802737D01*
X97397314Y-81797482D01*
X97394626Y-81797291D01*
X97392137Y-81796260D01*
X97377505Y-81794819D01*
X97282267Y-81794819D01*
X97267635Y-81796260D01*
X97265146Y-81797290D01*
X97262457Y-81797482D01*
X97248726Y-81802737D01*
X97153488Y-81850356D01*
X97147188Y-81854320D01*
X97145361Y-81855078D01*
X97143304Y-81856766D01*
X97141045Y-81858188D01*
X97139745Y-81859686D01*
X97133996Y-81864405D01*
X97086377Y-81912024D01*
X97081658Y-81917773D01*
X97080160Y-81919073D01*
X97078738Y-81921332D01*
X97077050Y-81923389D01*
X97076292Y-81925216D01*
X97072328Y-81931516D01*
X97024709Y-82026754D01*
X97024299Y-82027823D01*
X97023977Y-82028259D01*
X97021781Y-82034404D01*
X97019454Y-82040486D01*
X97019415Y-82041025D01*
X97019030Y-82042105D01*
X96971411Y-82232581D01*
X96971035Y-82235117D01*
X96970613Y-82236139D01*
X96970070Y-82241651D01*
X96969261Y-82247125D01*
X96969423Y-82248217D01*
X96969172Y-82250771D01*
X96858061Y-82250771D01*
X96858061Y-81683708D01*
X115896950Y-81683708D01*
X115896950Y-83055930D01*
G37*
X115663220Y-81369819D02*
X115663220Y-80369819D01*
X115091792Y-81369819D02*
X115520363Y-80798390D01*
X115091792Y-80369819D02*
X115663220Y-80941247D01*
X114472744Y-80369819D02*
X114282268Y-80369819D01*
X114282268Y-80369819D02*
X114187030Y-80417438D01*
X114187030Y-80417438D02*
X114091792Y-80512676D01*
X114091792Y-80512676D02*
X114044173Y-80703152D01*
X114044173Y-80703152D02*
X114044173Y-81036485D01*
X114044173Y-81036485D02*
X114091792Y-81226961D01*
X114091792Y-81226961D02*
X114187030Y-81322200D01*
X114187030Y-81322200D02*
X114282268Y-81369819D01*
X114282268Y-81369819D02*
X114472744Y-81369819D01*
X114472744Y-81369819D02*
X114567982Y-81322200D01*
X114567982Y-81322200D02*
X114663220Y-81226961D01*
X114663220Y-81226961D02*
X114710839Y-81036485D01*
X114710839Y-81036485D02*
X114710839Y-80703152D01*
X114710839Y-80703152D02*
X114663220Y-80512676D01*
X114663220Y-80512676D02*
X114567982Y-80417438D01*
X114567982Y-80417438D02*
X114472744Y-80369819D01*
X113663220Y-81322200D02*
X113520363Y-81369819D01*
X113520363Y-81369819D02*
X113282268Y-81369819D01*
X113282268Y-81369819D02*
X113187030Y-81322200D01*
X113187030Y-81322200D02*
X113139411Y-81274580D01*
X113139411Y-81274580D02*
X113091792Y-81179342D01*
X113091792Y-81179342D02*
X113091792Y-81084104D01*
X113091792Y-81084104D02*
X113139411Y-80988866D01*
X113139411Y-80988866D02*
X113187030Y-80941247D01*
X113187030Y-80941247D02*
X113282268Y-80893628D01*
X113282268Y-80893628D02*
X113472744Y-80846009D01*
X113472744Y-80846009D02*
X113567982Y-80798390D01*
X113567982Y-80798390D02*
X113615601Y-80750771D01*
X113615601Y-80750771D02*
X113663220Y-80655533D01*
X113663220Y-80655533D02*
X113663220Y-80560295D01*
X113663220Y-80560295D02*
X113615601Y-80465057D01*
X113615601Y-80465057D02*
X113567982Y-80417438D01*
X113567982Y-80417438D02*
X113472744Y-80369819D01*
X113472744Y-80369819D02*
X113234649Y-80369819D01*
X113234649Y-80369819D02*
X113091792Y-80417438D01*
X112663220Y-81369819D02*
X112663220Y-80369819D01*
X112663220Y-80369819D02*
X112329887Y-81084104D01*
X112329887Y-81084104D02*
X111996554Y-80369819D01*
X111996554Y-80369819D02*
X111996554Y-81369819D01*
X111329887Y-80369819D02*
X111139411Y-80369819D01*
X111139411Y-80369819D02*
X111044173Y-80417438D01*
X111044173Y-80417438D02*
X110948935Y-80512676D01*
X110948935Y-80512676D02*
X110901316Y-80703152D01*
X110901316Y-80703152D02*
X110901316Y-81036485D01*
X110901316Y-81036485D02*
X110948935Y-81226961D01*
X110948935Y-81226961D02*
X111044173Y-81322200D01*
X111044173Y-81322200D02*
X111139411Y-81369819D01*
X111139411Y-81369819D02*
X111329887Y-81369819D01*
X111329887Y-81369819D02*
X111425125Y-81322200D01*
X111425125Y-81322200D02*
X111520363Y-81226961D01*
X111520363Y-81226961D02*
X111567982Y-81036485D01*
X111567982Y-81036485D02*
X111567982Y-80703152D01*
X111567982Y-80703152D02*
X111520363Y-80512676D01*
X111520363Y-80512676D02*
X111425125Y-80417438D01*
X111425125Y-80417438D02*
X111329887Y-80369819D01*
X109758458Y-81322200D02*
X109615601Y-81369819D01*
X109615601Y-81369819D02*
X109377506Y-81369819D01*
X109377506Y-81369819D02*
X109282268Y-81322200D01*
X109282268Y-81322200D02*
X109234649Y-81274580D01*
X109234649Y-81274580D02*
X109187030Y-81179342D01*
X109187030Y-81179342D02*
X109187030Y-81084104D01*
X109187030Y-81084104D02*
X109234649Y-80988866D01*
X109234649Y-80988866D02*
X109282268Y-80941247D01*
X109282268Y-80941247D02*
X109377506Y-80893628D01*
X109377506Y-80893628D02*
X109567982Y-80846009D01*
X109567982Y-80846009D02*
X109663220Y-80798390D01*
X109663220Y-80798390D02*
X109710839Y-80750771D01*
X109710839Y-80750771D02*
X109758458Y-80655533D01*
X109758458Y-80655533D02*
X109758458Y-80560295D01*
X109758458Y-80560295D02*
X109710839Y-80465057D01*
X109710839Y-80465057D02*
X109663220Y-80417438D01*
X109663220Y-80417438D02*
X109567982Y-80369819D01*
X109567982Y-80369819D02*
X109329887Y-80369819D01*
X109329887Y-80369819D02*
X109187030Y-80417438D01*
X108567982Y-80369819D02*
X108377506Y-80369819D01*
X108377506Y-80369819D02*
X108282268Y-80417438D01*
X108282268Y-80417438D02*
X108187030Y-80512676D01*
X108187030Y-80512676D02*
X108139411Y-80703152D01*
X108139411Y-80703152D02*
X108139411Y-81036485D01*
X108139411Y-81036485D02*
X108187030Y-81226961D01*
X108187030Y-81226961D02*
X108282268Y-81322200D01*
X108282268Y-81322200D02*
X108377506Y-81369819D01*
X108377506Y-81369819D02*
X108567982Y-81369819D01*
X108567982Y-81369819D02*
X108663220Y-81322200D01*
X108663220Y-81322200D02*
X108758458Y-81226961D01*
X108758458Y-81226961D02*
X108806077Y-81036485D01*
X108806077Y-81036485D02*
X108806077Y-80703152D01*
X108806077Y-80703152D02*
X108758458Y-80512676D01*
X108758458Y-80512676D02*
X108663220Y-80417438D01*
X108663220Y-80417438D02*
X108567982Y-80369819D01*
X107710839Y-81369819D02*
X107710839Y-80369819D01*
X107710839Y-80369819D02*
X107139411Y-81369819D01*
X107139411Y-81369819D02*
X107139411Y-80369819D01*
X106139411Y-80417438D02*
X106234649Y-80369819D01*
X106234649Y-80369819D02*
X106377506Y-80369819D01*
X106377506Y-80369819D02*
X106520363Y-80417438D01*
X106520363Y-80417438D02*
X106615601Y-80512676D01*
X106615601Y-80512676D02*
X106663220Y-80607914D01*
X106663220Y-80607914D02*
X106710839Y-80798390D01*
X106710839Y-80798390D02*
X106710839Y-80941247D01*
X106710839Y-80941247D02*
X106663220Y-81131723D01*
X106663220Y-81131723D02*
X106615601Y-81226961D01*
X106615601Y-81226961D02*
X106520363Y-81322200D01*
X106520363Y-81322200D02*
X106377506Y-81369819D01*
X106377506Y-81369819D02*
X106282268Y-81369819D01*
X106282268Y-81369819D02*
X106139411Y-81322200D01*
X106139411Y-81322200D02*
X106091792Y-81274580D01*
X106091792Y-81274580D02*
X106091792Y-80941247D01*
X106091792Y-80941247D02*
X106282268Y-80941247D01*
X104901315Y-81369819D02*
X104901315Y-80369819D01*
X104901315Y-80369819D02*
X104567982Y-81084104D01*
X104567982Y-81084104D02*
X104234649Y-80369819D01*
X104234649Y-80369819D02*
X104234649Y-81369819D01*
X103806077Y-81084104D02*
X103329887Y-81084104D01*
X103901315Y-81369819D02*
X103567982Y-80369819D01*
X103567982Y-80369819D02*
X103234649Y-81369819D01*
X102901315Y-81369819D02*
X102901315Y-80369819D01*
X102901315Y-80369819D02*
X102329887Y-81369819D01*
X102329887Y-81369819D02*
X102329887Y-80369819D01*
X101901315Y-81084104D02*
X101425125Y-81084104D01*
X101996553Y-81369819D02*
X101663220Y-80369819D01*
X101663220Y-80369819D02*
X101329887Y-81369819D01*
X100472744Y-80417438D02*
X100567982Y-80369819D01*
X100567982Y-80369819D02*
X100710839Y-80369819D01*
X100710839Y-80369819D02*
X100853696Y-80417438D01*
X100853696Y-80417438D02*
X100948934Y-80512676D01*
X100948934Y-80512676D02*
X100996553Y-80607914D01*
X100996553Y-80607914D02*
X101044172Y-80798390D01*
X101044172Y-80798390D02*
X101044172Y-80941247D01*
X101044172Y-80941247D02*
X100996553Y-81131723D01*
X100996553Y-81131723D02*
X100948934Y-81226961D01*
X100948934Y-81226961D02*
X100853696Y-81322200D01*
X100853696Y-81322200D02*
X100710839Y-81369819D01*
X100710839Y-81369819D02*
X100615601Y-81369819D01*
X100615601Y-81369819D02*
X100472744Y-81322200D01*
X100472744Y-81322200D02*
X100425125Y-81274580D01*
X100425125Y-81274580D02*
X100425125Y-80941247D01*
X100425125Y-80941247D02*
X100615601Y-80941247D01*
X99996553Y-80846009D02*
X99663220Y-80846009D01*
X99520363Y-81369819D02*
X99996553Y-81369819D01*
X99996553Y-81369819D02*
X99996553Y-80369819D01*
X99996553Y-80369819D02*
X99520363Y-80369819D01*
X98520363Y-81369819D02*
X98853696Y-80893628D01*
X99091791Y-81369819D02*
X99091791Y-80369819D01*
X99091791Y-80369819D02*
X98710839Y-80369819D01*
X98710839Y-80369819D02*
X98615601Y-80417438D01*
X98615601Y-80417438D02*
X98567982Y-80465057D01*
X98567982Y-80465057D02*
X98520363Y-80560295D01*
X98520363Y-80560295D02*
X98520363Y-80703152D01*
X98520363Y-80703152D02*
X98567982Y-80798390D01*
X98567982Y-80798390D02*
X98615601Y-80846009D01*
X98615601Y-80846009D02*
X98710839Y-80893628D01*
X98710839Y-80893628D02*
X99091791Y-80893628D01*
D11*
X175097431Y-83864619D02*
X175097431Y-82864619D01*
X175097431Y-82864619D02*
X174859336Y-82864619D01*
X174859336Y-82864619D02*
X174716479Y-82912238D01*
X174716479Y-82912238D02*
X174621241Y-83007476D01*
X174621241Y-83007476D02*
X174573622Y-83102714D01*
X174573622Y-83102714D02*
X174526003Y-83293190D01*
X174526003Y-83293190D02*
X174526003Y-83436047D01*
X174526003Y-83436047D02*
X174573622Y-83626523D01*
X174573622Y-83626523D02*
X174621241Y-83721761D01*
X174621241Y-83721761D02*
X174716479Y-83817000D01*
X174716479Y-83817000D02*
X174859336Y-83864619D01*
X174859336Y-83864619D02*
X175097431Y-83864619D01*
X174097431Y-83864619D02*
X174097431Y-82864619D01*
X173097432Y-82912238D02*
X173192670Y-82864619D01*
X173192670Y-82864619D02*
X173335527Y-82864619D01*
X173335527Y-82864619D02*
X173478384Y-82912238D01*
X173478384Y-82912238D02*
X173573622Y-83007476D01*
X173573622Y-83007476D02*
X173621241Y-83102714D01*
X173621241Y-83102714D02*
X173668860Y-83293190D01*
X173668860Y-83293190D02*
X173668860Y-83436047D01*
X173668860Y-83436047D02*
X173621241Y-83626523D01*
X173621241Y-83626523D02*
X173573622Y-83721761D01*
X173573622Y-83721761D02*
X173478384Y-83817000D01*
X173478384Y-83817000D02*
X173335527Y-83864619D01*
X173335527Y-83864619D02*
X173240289Y-83864619D01*
X173240289Y-83864619D02*
X173097432Y-83817000D01*
X173097432Y-83817000D02*
X173049813Y-83769380D01*
X173049813Y-83769380D02*
X173049813Y-83436047D01*
X173049813Y-83436047D02*
X173240289Y-83436047D01*
X172859337Y-83959857D02*
X172097432Y-83959857D01*
X171954574Y-82864619D02*
X171335527Y-82864619D01*
X171335527Y-82864619D02*
X171668860Y-83245571D01*
X171668860Y-83245571D02*
X171526003Y-83245571D01*
X171526003Y-83245571D02*
X171430765Y-83293190D01*
X171430765Y-83293190D02*
X171383146Y-83340809D01*
X171383146Y-83340809D02*
X171335527Y-83436047D01*
X171335527Y-83436047D02*
X171335527Y-83674142D01*
X171335527Y-83674142D02*
X171383146Y-83769380D01*
X171383146Y-83769380D02*
X171430765Y-83817000D01*
X171430765Y-83817000D02*
X171526003Y-83864619D01*
X171526003Y-83864619D02*
X171811717Y-83864619D01*
X171811717Y-83864619D02*
X171906955Y-83817000D01*
X171906955Y-83817000D02*
X171954574Y-83769380D01*
X164597431Y-99364619D02*
X164597431Y-98364619D01*
X164597431Y-98364619D02*
X164359336Y-98364619D01*
X164359336Y-98364619D02*
X164216479Y-98412238D01*
X164216479Y-98412238D02*
X164121241Y-98507476D01*
X164121241Y-98507476D02*
X164073622Y-98602714D01*
X164073622Y-98602714D02*
X164026003Y-98793190D01*
X164026003Y-98793190D02*
X164026003Y-98936047D01*
X164026003Y-98936047D02*
X164073622Y-99126523D01*
X164073622Y-99126523D02*
X164121241Y-99221761D01*
X164121241Y-99221761D02*
X164216479Y-99317000D01*
X164216479Y-99317000D02*
X164359336Y-99364619D01*
X164359336Y-99364619D02*
X164597431Y-99364619D01*
X163597431Y-99364619D02*
X163597431Y-98364619D01*
X162597432Y-98412238D02*
X162692670Y-98364619D01*
X162692670Y-98364619D02*
X162835527Y-98364619D01*
X162835527Y-98364619D02*
X162978384Y-98412238D01*
X162978384Y-98412238D02*
X163073622Y-98507476D01*
X163073622Y-98507476D02*
X163121241Y-98602714D01*
X163121241Y-98602714D02*
X163168860Y-98793190D01*
X163168860Y-98793190D02*
X163168860Y-98936047D01*
X163168860Y-98936047D02*
X163121241Y-99126523D01*
X163121241Y-99126523D02*
X163073622Y-99221761D01*
X163073622Y-99221761D02*
X162978384Y-99317000D01*
X162978384Y-99317000D02*
X162835527Y-99364619D01*
X162835527Y-99364619D02*
X162740289Y-99364619D01*
X162740289Y-99364619D02*
X162597432Y-99317000D01*
X162597432Y-99317000D02*
X162549813Y-99269380D01*
X162549813Y-99269380D02*
X162549813Y-98936047D01*
X162549813Y-98936047D02*
X162740289Y-98936047D01*
X162359337Y-99459857D02*
X161597432Y-99459857D01*
X160930765Y-98697952D02*
X160930765Y-99364619D01*
X161168860Y-98317000D02*
X161406955Y-99031285D01*
X161406955Y-99031285D02*
X160787908Y-99031285D01*
X127097431Y-99864619D02*
X127097431Y-98864619D01*
X127097431Y-98864619D02*
X126859336Y-98864619D01*
X126859336Y-98864619D02*
X126716479Y-98912238D01*
X126716479Y-98912238D02*
X126621241Y-99007476D01*
X126621241Y-99007476D02*
X126573622Y-99102714D01*
X126573622Y-99102714D02*
X126526003Y-99293190D01*
X126526003Y-99293190D02*
X126526003Y-99436047D01*
X126526003Y-99436047D02*
X126573622Y-99626523D01*
X126573622Y-99626523D02*
X126621241Y-99721761D01*
X126621241Y-99721761D02*
X126716479Y-99817000D01*
X126716479Y-99817000D02*
X126859336Y-99864619D01*
X126859336Y-99864619D02*
X127097431Y-99864619D01*
X126097431Y-99864619D02*
X126097431Y-98864619D01*
X125097432Y-98912238D02*
X125192670Y-98864619D01*
X125192670Y-98864619D02*
X125335527Y-98864619D01*
X125335527Y-98864619D02*
X125478384Y-98912238D01*
X125478384Y-98912238D02*
X125573622Y-99007476D01*
X125573622Y-99007476D02*
X125621241Y-99102714D01*
X125621241Y-99102714D02*
X125668860Y-99293190D01*
X125668860Y-99293190D02*
X125668860Y-99436047D01*
X125668860Y-99436047D02*
X125621241Y-99626523D01*
X125621241Y-99626523D02*
X125573622Y-99721761D01*
X125573622Y-99721761D02*
X125478384Y-99817000D01*
X125478384Y-99817000D02*
X125335527Y-99864619D01*
X125335527Y-99864619D02*
X125240289Y-99864619D01*
X125240289Y-99864619D02*
X125097432Y-99817000D01*
X125097432Y-99817000D02*
X125049813Y-99769380D01*
X125049813Y-99769380D02*
X125049813Y-99436047D01*
X125049813Y-99436047D02*
X125240289Y-99436047D01*
X124859337Y-99959857D02*
X124097432Y-99959857D01*
X123335527Y-99864619D02*
X123906955Y-99864619D01*
X123621241Y-99864619D02*
X123621241Y-98864619D01*
X123621241Y-98864619D02*
X123716479Y-99007476D01*
X123716479Y-99007476D02*
X123811717Y-99102714D01*
X123811717Y-99102714D02*
X123906955Y-99150333D01*
X85097431Y-93364619D02*
X85097431Y-92364619D01*
X85097431Y-92364619D02*
X84859336Y-92364619D01*
X84859336Y-92364619D02*
X84716479Y-92412238D01*
X84716479Y-92412238D02*
X84621241Y-92507476D01*
X84621241Y-92507476D02*
X84573622Y-92602714D01*
X84573622Y-92602714D02*
X84526003Y-92793190D01*
X84526003Y-92793190D02*
X84526003Y-92936047D01*
X84526003Y-92936047D02*
X84573622Y-93126523D01*
X84573622Y-93126523D02*
X84621241Y-93221761D01*
X84621241Y-93221761D02*
X84716479Y-93317000D01*
X84716479Y-93317000D02*
X84859336Y-93364619D01*
X84859336Y-93364619D02*
X85097431Y-93364619D01*
X84097431Y-93364619D02*
X84097431Y-92364619D01*
X83097432Y-92412238D02*
X83192670Y-92364619D01*
X83192670Y-92364619D02*
X83335527Y-92364619D01*
X83335527Y-92364619D02*
X83478384Y-92412238D01*
X83478384Y-92412238D02*
X83573622Y-92507476D01*
X83573622Y-92507476D02*
X83621241Y-92602714D01*
X83621241Y-92602714D02*
X83668860Y-92793190D01*
X83668860Y-92793190D02*
X83668860Y-92936047D01*
X83668860Y-92936047D02*
X83621241Y-93126523D01*
X83621241Y-93126523D02*
X83573622Y-93221761D01*
X83573622Y-93221761D02*
X83478384Y-93317000D01*
X83478384Y-93317000D02*
X83335527Y-93364619D01*
X83335527Y-93364619D02*
X83240289Y-93364619D01*
X83240289Y-93364619D02*
X83097432Y-93317000D01*
X83097432Y-93317000D02*
X83049813Y-93269380D01*
X83049813Y-93269380D02*
X83049813Y-92936047D01*
X83049813Y-92936047D02*
X83240289Y-92936047D01*
X82859337Y-93459857D02*
X82097432Y-93459857D01*
X81906955Y-92459857D02*
X81859336Y-92412238D01*
X81859336Y-92412238D02*
X81764098Y-92364619D01*
X81764098Y-92364619D02*
X81526003Y-92364619D01*
X81526003Y-92364619D02*
X81430765Y-92412238D01*
X81430765Y-92412238D02*
X81383146Y-92459857D01*
X81383146Y-92459857D02*
X81335527Y-92555095D01*
X81335527Y-92555095D02*
X81335527Y-92650333D01*
X81335527Y-92650333D02*
X81383146Y-92793190D01*
X81383146Y-92793190D02*
X81954574Y-93364619D01*
X81954574Y-93364619D02*
X81335527Y-93364619D01*
X62097431Y-93864619D02*
X62097431Y-92864619D01*
X62097431Y-92864619D02*
X61859336Y-92864619D01*
X61859336Y-92864619D02*
X61716479Y-92912238D01*
X61716479Y-92912238D02*
X61621241Y-93007476D01*
X61621241Y-93007476D02*
X61573622Y-93102714D01*
X61573622Y-93102714D02*
X61526003Y-93293190D01*
X61526003Y-93293190D02*
X61526003Y-93436047D01*
X61526003Y-93436047D02*
X61573622Y-93626523D01*
X61573622Y-93626523D02*
X61621241Y-93721761D01*
X61621241Y-93721761D02*
X61716479Y-93817000D01*
X61716479Y-93817000D02*
X61859336Y-93864619D01*
X61859336Y-93864619D02*
X62097431Y-93864619D01*
X61097431Y-93864619D02*
X61097431Y-92864619D01*
X60097432Y-92912238D02*
X60192670Y-92864619D01*
X60192670Y-92864619D02*
X60335527Y-92864619D01*
X60335527Y-92864619D02*
X60478384Y-92912238D01*
X60478384Y-92912238D02*
X60573622Y-93007476D01*
X60573622Y-93007476D02*
X60621241Y-93102714D01*
X60621241Y-93102714D02*
X60668860Y-93293190D01*
X60668860Y-93293190D02*
X60668860Y-93436047D01*
X60668860Y-93436047D02*
X60621241Y-93626523D01*
X60621241Y-93626523D02*
X60573622Y-93721761D01*
X60573622Y-93721761D02*
X60478384Y-93817000D01*
X60478384Y-93817000D02*
X60335527Y-93864619D01*
X60335527Y-93864619D02*
X60240289Y-93864619D01*
X60240289Y-93864619D02*
X60097432Y-93817000D01*
X60097432Y-93817000D02*
X60049813Y-93769380D01*
X60049813Y-93769380D02*
X60049813Y-93436047D01*
X60049813Y-93436047D02*
X60240289Y-93436047D01*
X59859337Y-93959857D02*
X59097432Y-93959857D01*
X58668860Y-92864619D02*
X58573622Y-92864619D01*
X58573622Y-92864619D02*
X58478384Y-92912238D01*
X58478384Y-92912238D02*
X58430765Y-92959857D01*
X58430765Y-92959857D02*
X58383146Y-93055095D01*
X58383146Y-93055095D02*
X58335527Y-93245571D01*
X58335527Y-93245571D02*
X58335527Y-93483666D01*
X58335527Y-93483666D02*
X58383146Y-93674142D01*
X58383146Y-93674142D02*
X58430765Y-93769380D01*
X58430765Y-93769380D02*
X58478384Y-93817000D01*
X58478384Y-93817000D02*
X58573622Y-93864619D01*
X58573622Y-93864619D02*
X58668860Y-93864619D01*
X58668860Y-93864619D02*
X58764098Y-93817000D01*
X58764098Y-93817000D02*
X58811717Y-93769380D01*
X58811717Y-93769380D02*
X58859336Y-93674142D01*
X58859336Y-93674142D02*
X58906955Y-93483666D01*
X58906955Y-93483666D02*
X58906955Y-93245571D01*
X58906955Y-93245571D02*
X58859336Y-93055095D01*
X58859336Y-93055095D02*
X58811717Y-92959857D01*
X58811717Y-92959857D02*
X58764098Y-92912238D01*
X58764098Y-92912238D02*
X58668860Y-92864619D01*
X198740288Y-95864619D02*
X198406955Y-96864619D01*
X198406955Y-96864619D02*
X198073622Y-95864619D01*
X197168860Y-96769380D02*
X197216479Y-96817000D01*
X197216479Y-96817000D02*
X197359336Y-96864619D01*
X197359336Y-96864619D02*
X197454574Y-96864619D01*
X197454574Y-96864619D02*
X197597431Y-96817000D01*
X197597431Y-96817000D02*
X197692669Y-96721761D01*
X197692669Y-96721761D02*
X197740288Y-96626523D01*
X197740288Y-96626523D02*
X197787907Y-96436047D01*
X197787907Y-96436047D02*
X197787907Y-96293190D01*
X197787907Y-96293190D02*
X197740288Y-96102714D01*
X197740288Y-96102714D02*
X197692669Y-96007476D01*
X197692669Y-96007476D02*
X197597431Y-95912238D01*
X197597431Y-95912238D02*
X197454574Y-95864619D01*
X197454574Y-95864619D02*
X197359336Y-95864619D01*
X197359336Y-95864619D02*
X197216479Y-95912238D01*
X197216479Y-95912238D02*
X197168860Y-95959857D01*
X196168860Y-96769380D02*
X196216479Y-96817000D01*
X196216479Y-96817000D02*
X196359336Y-96864619D01*
X196359336Y-96864619D02*
X196454574Y-96864619D01*
X196454574Y-96864619D02*
X196597431Y-96817000D01*
X196597431Y-96817000D02*
X196692669Y-96721761D01*
X196692669Y-96721761D02*
X196740288Y-96626523D01*
X196740288Y-96626523D02*
X196787907Y-96436047D01*
X196787907Y-96436047D02*
X196787907Y-96293190D01*
X196787907Y-96293190D02*
X196740288Y-96102714D01*
X196740288Y-96102714D02*
X196692669Y-96007476D01*
X196692669Y-96007476D02*
X196597431Y-95912238D01*
X196597431Y-95912238D02*
X196454574Y-95864619D01*
X196454574Y-95864619D02*
X196359336Y-95864619D01*
X196359336Y-95864619D02*
X196216479Y-95912238D01*
X196216479Y-95912238D02*
X196168860Y-95959857D01*
X146240288Y-98364619D02*
X145906955Y-99364619D01*
X145906955Y-99364619D02*
X145573622Y-98364619D01*
X144668860Y-99269380D02*
X144716479Y-99317000D01*
X144716479Y-99317000D02*
X144859336Y-99364619D01*
X144859336Y-99364619D02*
X144954574Y-99364619D01*
X144954574Y-99364619D02*
X145097431Y-99317000D01*
X145097431Y-99317000D02*
X145192669Y-99221761D01*
X145192669Y-99221761D02*
X145240288Y-99126523D01*
X145240288Y-99126523D02*
X145287907Y-98936047D01*
X145287907Y-98936047D02*
X145287907Y-98793190D01*
X145287907Y-98793190D02*
X145240288Y-98602714D01*
X145240288Y-98602714D02*
X145192669Y-98507476D01*
X145192669Y-98507476D02*
X145097431Y-98412238D01*
X145097431Y-98412238D02*
X144954574Y-98364619D01*
X144954574Y-98364619D02*
X144859336Y-98364619D01*
X144859336Y-98364619D02*
X144716479Y-98412238D01*
X144716479Y-98412238D02*
X144668860Y-98459857D01*
X143668860Y-99269380D02*
X143716479Y-99317000D01*
X143716479Y-99317000D02*
X143859336Y-99364619D01*
X143859336Y-99364619D02*
X143954574Y-99364619D01*
X143954574Y-99364619D02*
X144097431Y-99317000D01*
X144097431Y-99317000D02*
X144192669Y-99221761D01*
X144192669Y-99221761D02*
X144240288Y-99126523D01*
X144240288Y-99126523D02*
X144287907Y-98936047D01*
X144287907Y-98936047D02*
X144287907Y-98793190D01*
X144287907Y-98793190D02*
X144240288Y-98602714D01*
X144240288Y-98602714D02*
X144192669Y-98507476D01*
X144192669Y-98507476D02*
X144097431Y-98412238D01*
X144097431Y-98412238D02*
X143954574Y-98364619D01*
X143954574Y-98364619D02*
X143859336Y-98364619D01*
X143859336Y-98364619D02*
X143716479Y-98412238D01*
X143716479Y-98412238D02*
X143668860Y-98459857D01*
X96240288Y-98364619D02*
X95906955Y-99364619D01*
X95906955Y-99364619D02*
X95573622Y-98364619D01*
X94668860Y-99269380D02*
X94716479Y-99317000D01*
X94716479Y-99317000D02*
X94859336Y-99364619D01*
X94859336Y-99364619D02*
X94954574Y-99364619D01*
X94954574Y-99364619D02*
X95097431Y-99317000D01*
X95097431Y-99317000D02*
X95192669Y-99221761D01*
X95192669Y-99221761D02*
X95240288Y-99126523D01*
X95240288Y-99126523D02*
X95287907Y-98936047D01*
X95287907Y-98936047D02*
X95287907Y-98793190D01*
X95287907Y-98793190D02*
X95240288Y-98602714D01*
X95240288Y-98602714D02*
X95192669Y-98507476D01*
X95192669Y-98507476D02*
X95097431Y-98412238D01*
X95097431Y-98412238D02*
X94954574Y-98364619D01*
X94954574Y-98364619D02*
X94859336Y-98364619D01*
X94859336Y-98364619D02*
X94716479Y-98412238D01*
X94716479Y-98412238D02*
X94668860Y-98459857D01*
X93668860Y-99269380D02*
X93716479Y-99317000D01*
X93716479Y-99317000D02*
X93859336Y-99364619D01*
X93859336Y-99364619D02*
X93954574Y-99364619D01*
X93954574Y-99364619D02*
X94097431Y-99317000D01*
X94097431Y-99317000D02*
X94192669Y-99221761D01*
X94192669Y-99221761D02*
X94240288Y-99126523D01*
X94240288Y-99126523D02*
X94287907Y-98936047D01*
X94287907Y-98936047D02*
X94287907Y-98793190D01*
X94287907Y-98793190D02*
X94240288Y-98602714D01*
X94240288Y-98602714D02*
X94192669Y-98507476D01*
X94192669Y-98507476D02*
X94097431Y-98412238D01*
X94097431Y-98412238D02*
X93954574Y-98364619D01*
X93954574Y-98364619D02*
X93859336Y-98364619D01*
X93859336Y-98364619D02*
X93716479Y-98412238D01*
X93716479Y-98412238D02*
X93668860Y-98459857D01*
D10*
X140454819Y-96214286D02*
X140454819Y-96833333D01*
X140454819Y-96833333D02*
X140835771Y-96500000D01*
X140835771Y-96500000D02*
X140835771Y-96642857D01*
X140835771Y-96642857D02*
X140883390Y-96738095D01*
X140883390Y-96738095D02*
X140931009Y-96785714D01*
X140931009Y-96785714D02*
X141026247Y-96833333D01*
X141026247Y-96833333D02*
X141264342Y-96833333D01*
X141264342Y-96833333D02*
X141359580Y-96785714D01*
X141359580Y-96785714D02*
X141407200Y-96738095D01*
X141407200Y-96738095D02*
X141454819Y-96642857D01*
X141454819Y-96642857D02*
X141454819Y-96357143D01*
X141454819Y-96357143D02*
X141407200Y-96261905D01*
X141407200Y-96261905D02*
X141359580Y-96214286D01*
X140454819Y-97166667D02*
X140454819Y-97785714D01*
X140454819Y-97785714D02*
X140835771Y-97452381D01*
X140835771Y-97452381D02*
X140835771Y-97595238D01*
X140835771Y-97595238D02*
X140883390Y-97690476D01*
X140883390Y-97690476D02*
X140931009Y-97738095D01*
X140931009Y-97738095D02*
X141026247Y-97785714D01*
X141026247Y-97785714D02*
X141264342Y-97785714D01*
X141264342Y-97785714D02*
X141359580Y-97738095D01*
X141359580Y-97738095D02*
X141407200Y-97690476D01*
X141407200Y-97690476D02*
X141454819Y-97595238D01*
X141454819Y-97595238D02*
X141454819Y-97309524D01*
X141454819Y-97309524D02*
X141407200Y-97214286D01*
X141407200Y-97214286D02*
X141359580Y-97166667D01*
X140454819Y-98404762D02*
X140454819Y-98500000D01*
X140454819Y-98500000D02*
X140502438Y-98595238D01*
X140502438Y-98595238D02*
X140550057Y-98642857D01*
X140550057Y-98642857D02*
X140645295Y-98690476D01*
X140645295Y-98690476D02*
X140835771Y-98738095D01*
X140835771Y-98738095D02*
X141073866Y-98738095D01*
X141073866Y-98738095D02*
X141264342Y-98690476D01*
X141264342Y-98690476D02*
X141359580Y-98642857D01*
X141359580Y-98642857D02*
X141407200Y-98595238D01*
X141407200Y-98595238D02*
X141454819Y-98500000D01*
X141454819Y-98500000D02*
X141454819Y-98404762D01*
X141454819Y-98404762D02*
X141407200Y-98309524D01*
X141407200Y-98309524D02*
X141359580Y-98261905D01*
X141359580Y-98261905D02*
X141264342Y-98214286D01*
X141264342Y-98214286D02*
X141073866Y-98166667D01*
X141073866Y-98166667D02*
X140835771Y-98166667D01*
X140835771Y-98166667D02*
X140645295Y-98214286D01*
X140645295Y-98214286D02*
X140550057Y-98261905D01*
X140550057Y-98261905D02*
X140502438Y-98309524D01*
X140502438Y-98309524D02*
X140454819Y-98404762D01*
X175190476Y-96954819D02*
X175761904Y-96954819D01*
X175476190Y-96954819D02*
X175476190Y-95954819D01*
X175476190Y-95954819D02*
X175571428Y-96097676D01*
X175571428Y-96097676D02*
X175666666Y-96192914D01*
X175666666Y-96192914D02*
X175761904Y-96240533D01*
X174571428Y-95954819D02*
X174476190Y-95954819D01*
X174476190Y-95954819D02*
X174380952Y-96002438D01*
X174380952Y-96002438D02*
X174333333Y-96050057D01*
X174333333Y-96050057D02*
X174285714Y-96145295D01*
X174285714Y-96145295D02*
X174238095Y-96335771D01*
X174238095Y-96335771D02*
X174238095Y-96573866D01*
X174238095Y-96573866D02*
X174285714Y-96764342D01*
X174285714Y-96764342D02*
X174333333Y-96859580D01*
X174333333Y-96859580D02*
X174380952Y-96907200D01*
X174380952Y-96907200D02*
X174476190Y-96954819D01*
X174476190Y-96954819D02*
X174571428Y-96954819D01*
X174571428Y-96954819D02*
X174666666Y-96907200D01*
X174666666Y-96907200D02*
X174714285Y-96859580D01*
X174714285Y-96859580D02*
X174761904Y-96764342D01*
X174761904Y-96764342D02*
X174809523Y-96573866D01*
X174809523Y-96573866D02*
X174809523Y-96335771D01*
X174809523Y-96335771D02*
X174761904Y-96145295D01*
X174761904Y-96145295D02*
X174714285Y-96050057D01*
X174714285Y-96050057D02*
X174666666Y-96002438D01*
X174666666Y-96002438D02*
X174571428Y-95954819D01*
X173809523Y-96954819D02*
X173809523Y-95954819D01*
X173238095Y-96954819D02*
X173666666Y-96383390D01*
X173238095Y-95954819D02*
X173809523Y-96526247D01*
X135454819Y-96214286D02*
X135454819Y-96833333D01*
X135454819Y-96833333D02*
X135835771Y-96500000D01*
X135835771Y-96500000D02*
X135835771Y-96642857D01*
X135835771Y-96642857D02*
X135883390Y-96738095D01*
X135883390Y-96738095D02*
X135931009Y-96785714D01*
X135931009Y-96785714D02*
X136026247Y-96833333D01*
X136026247Y-96833333D02*
X136264342Y-96833333D01*
X136264342Y-96833333D02*
X136359580Y-96785714D01*
X136359580Y-96785714D02*
X136407200Y-96738095D01*
X136407200Y-96738095D02*
X136454819Y-96642857D01*
X136454819Y-96642857D02*
X136454819Y-96357143D01*
X136454819Y-96357143D02*
X136407200Y-96261905D01*
X136407200Y-96261905D02*
X136359580Y-96214286D01*
X135454819Y-97166667D02*
X135454819Y-97785714D01*
X135454819Y-97785714D02*
X135835771Y-97452381D01*
X135835771Y-97452381D02*
X135835771Y-97595238D01*
X135835771Y-97595238D02*
X135883390Y-97690476D01*
X135883390Y-97690476D02*
X135931009Y-97738095D01*
X135931009Y-97738095D02*
X136026247Y-97785714D01*
X136026247Y-97785714D02*
X136264342Y-97785714D01*
X136264342Y-97785714D02*
X136359580Y-97738095D01*
X136359580Y-97738095D02*
X136407200Y-97690476D01*
X136407200Y-97690476D02*
X136454819Y-97595238D01*
X136454819Y-97595238D02*
X136454819Y-97309524D01*
X136454819Y-97309524D02*
X136407200Y-97214286D01*
X136407200Y-97214286D02*
X136359580Y-97166667D01*
X135454819Y-98404762D02*
X135454819Y-98500000D01*
X135454819Y-98500000D02*
X135502438Y-98595238D01*
X135502438Y-98595238D02*
X135550057Y-98642857D01*
X135550057Y-98642857D02*
X135645295Y-98690476D01*
X135645295Y-98690476D02*
X135835771Y-98738095D01*
X135835771Y-98738095D02*
X136073866Y-98738095D01*
X136073866Y-98738095D02*
X136264342Y-98690476D01*
X136264342Y-98690476D02*
X136359580Y-98642857D01*
X136359580Y-98642857D02*
X136407200Y-98595238D01*
X136407200Y-98595238D02*
X136454819Y-98500000D01*
X136454819Y-98500000D02*
X136454819Y-98404762D01*
X136454819Y-98404762D02*
X136407200Y-98309524D01*
X136407200Y-98309524D02*
X136359580Y-98261905D01*
X136359580Y-98261905D02*
X136264342Y-98214286D01*
X136264342Y-98214286D02*
X136073866Y-98166667D01*
X136073866Y-98166667D02*
X135835771Y-98166667D01*
X135835771Y-98166667D02*
X135645295Y-98214286D01*
X135645295Y-98214286D02*
X135550057Y-98261905D01*
X135550057Y-98261905D02*
X135502438Y-98309524D01*
X135502438Y-98309524D02*
X135454819Y-98404762D01*
X54454819Y-96539523D02*
X54454819Y-95968095D01*
X54454819Y-96253809D02*
X53454819Y-96253809D01*
X53454819Y-96253809D02*
X53597676Y-96158571D01*
X53597676Y-96158571D02*
X53692914Y-96063333D01*
X53692914Y-96063333D02*
X53740533Y-95968095D01*
X53454819Y-97158571D02*
X53454819Y-97253809D01*
X53454819Y-97253809D02*
X53502438Y-97349047D01*
X53502438Y-97349047D02*
X53550057Y-97396666D01*
X53550057Y-97396666D02*
X53645295Y-97444285D01*
X53645295Y-97444285D02*
X53835771Y-97491904D01*
X53835771Y-97491904D02*
X54073866Y-97491904D01*
X54073866Y-97491904D02*
X54264342Y-97444285D01*
X54264342Y-97444285D02*
X54359580Y-97396666D01*
X54359580Y-97396666D02*
X54407200Y-97349047D01*
X54407200Y-97349047D02*
X54454819Y-97253809D01*
X54454819Y-97253809D02*
X54454819Y-97158571D01*
X54454819Y-97158571D02*
X54407200Y-97063333D01*
X54407200Y-97063333D02*
X54359580Y-97015714D01*
X54359580Y-97015714D02*
X54264342Y-96968095D01*
X54264342Y-96968095D02*
X54073866Y-96920476D01*
X54073866Y-96920476D02*
X53835771Y-96920476D01*
X53835771Y-96920476D02*
X53645295Y-96968095D01*
X53645295Y-96968095D02*
X53550057Y-97015714D01*
X53550057Y-97015714D02*
X53502438Y-97063333D01*
X53502438Y-97063333D02*
X53454819Y-97158571D01*
X54454819Y-97920476D02*
X53454819Y-97920476D01*
X54454819Y-98491904D02*
X53883390Y-98063333D01*
X53454819Y-98491904D02*
X54026247Y-97920476D01*
X57454819Y-81714286D02*
X57454819Y-82333333D01*
X57454819Y-82333333D02*
X57835771Y-82000000D01*
X57835771Y-82000000D02*
X57835771Y-82142857D01*
X57835771Y-82142857D02*
X57883390Y-82238095D01*
X57883390Y-82238095D02*
X57931009Y-82285714D01*
X57931009Y-82285714D02*
X58026247Y-82333333D01*
X58026247Y-82333333D02*
X58264342Y-82333333D01*
X58264342Y-82333333D02*
X58359580Y-82285714D01*
X58359580Y-82285714D02*
X58407200Y-82238095D01*
X58407200Y-82238095D02*
X58454819Y-82142857D01*
X58454819Y-82142857D02*
X58454819Y-81857143D01*
X58454819Y-81857143D02*
X58407200Y-81761905D01*
X58407200Y-81761905D02*
X58359580Y-81714286D01*
X57454819Y-82666667D02*
X57454819Y-83285714D01*
X57454819Y-83285714D02*
X57835771Y-82952381D01*
X57835771Y-82952381D02*
X57835771Y-83095238D01*
X57835771Y-83095238D02*
X57883390Y-83190476D01*
X57883390Y-83190476D02*
X57931009Y-83238095D01*
X57931009Y-83238095D02*
X58026247Y-83285714D01*
X58026247Y-83285714D02*
X58264342Y-83285714D01*
X58264342Y-83285714D02*
X58359580Y-83238095D01*
X58359580Y-83238095D02*
X58407200Y-83190476D01*
X58407200Y-83190476D02*
X58454819Y-83095238D01*
X58454819Y-83095238D02*
X58454819Y-82809524D01*
X58454819Y-82809524D02*
X58407200Y-82714286D01*
X58407200Y-82714286D02*
X58359580Y-82666667D01*
X57454819Y-83904762D02*
X57454819Y-84000000D01*
X57454819Y-84000000D02*
X57502438Y-84095238D01*
X57502438Y-84095238D02*
X57550057Y-84142857D01*
X57550057Y-84142857D02*
X57645295Y-84190476D01*
X57645295Y-84190476D02*
X57835771Y-84238095D01*
X57835771Y-84238095D02*
X58073866Y-84238095D01*
X58073866Y-84238095D02*
X58264342Y-84190476D01*
X58264342Y-84190476D02*
X58359580Y-84142857D01*
X58359580Y-84142857D02*
X58407200Y-84095238D01*
X58407200Y-84095238D02*
X58454819Y-84000000D01*
X58454819Y-84000000D02*
X58454819Y-83904762D01*
X58454819Y-83904762D02*
X58407200Y-83809524D01*
X58407200Y-83809524D02*
X58359580Y-83761905D01*
X58359580Y-83761905D02*
X58264342Y-83714286D01*
X58264342Y-83714286D02*
X58073866Y-83666667D01*
X58073866Y-83666667D02*
X57835771Y-83666667D01*
X57835771Y-83666667D02*
X57645295Y-83714286D01*
X57645295Y-83714286D02*
X57550057Y-83761905D01*
X57550057Y-83761905D02*
X57502438Y-83809524D01*
X57502438Y-83809524D02*
X57454819Y-83904762D01*
X88989285Y-100324819D02*
X89560713Y-100324819D01*
X89274999Y-100324819D02*
X89274999Y-99324819D01*
X89274999Y-99324819D02*
X89370237Y-99467676D01*
X89370237Y-99467676D02*
X89465475Y-99562914D01*
X89465475Y-99562914D02*
X89560713Y-99610533D01*
X88560713Y-100324819D02*
X88560713Y-99324819D01*
X87989285Y-100324819D02*
X88417856Y-99753390D01*
X87989285Y-99324819D02*
X88560713Y-99896247D01*
X201785713Y-80954819D02*
X201166666Y-80954819D01*
X201166666Y-80954819D02*
X201499999Y-81335771D01*
X201499999Y-81335771D02*
X201357142Y-81335771D01*
X201357142Y-81335771D02*
X201261904Y-81383390D01*
X201261904Y-81383390D02*
X201214285Y-81431009D01*
X201214285Y-81431009D02*
X201166666Y-81526247D01*
X201166666Y-81526247D02*
X201166666Y-81764342D01*
X201166666Y-81764342D02*
X201214285Y-81859580D01*
X201214285Y-81859580D02*
X201261904Y-81907200D01*
X201261904Y-81907200D02*
X201357142Y-81954819D01*
X201357142Y-81954819D02*
X201642856Y-81954819D01*
X201642856Y-81954819D02*
X201738094Y-81907200D01*
X201738094Y-81907200D02*
X201785713Y-81859580D01*
X200833332Y-80954819D02*
X200214285Y-80954819D01*
X200214285Y-80954819D02*
X200547618Y-81335771D01*
X200547618Y-81335771D02*
X200404761Y-81335771D01*
X200404761Y-81335771D02*
X200309523Y-81383390D01*
X200309523Y-81383390D02*
X200261904Y-81431009D01*
X200261904Y-81431009D02*
X200214285Y-81526247D01*
X200214285Y-81526247D02*
X200214285Y-81764342D01*
X200214285Y-81764342D02*
X200261904Y-81859580D01*
X200261904Y-81859580D02*
X200309523Y-81907200D01*
X200309523Y-81907200D02*
X200404761Y-81954819D01*
X200404761Y-81954819D02*
X200690475Y-81954819D01*
X200690475Y-81954819D02*
X200785713Y-81907200D01*
X200785713Y-81907200D02*
X200833332Y-81859580D01*
X199595237Y-80954819D02*
X199499999Y-80954819D01*
X199499999Y-80954819D02*
X199404761Y-81002438D01*
X199404761Y-81002438D02*
X199357142Y-81050057D01*
X199357142Y-81050057D02*
X199309523Y-81145295D01*
X199309523Y-81145295D02*
X199261904Y-81335771D01*
X199261904Y-81335771D02*
X199261904Y-81573866D01*
X199261904Y-81573866D02*
X199309523Y-81764342D01*
X199309523Y-81764342D02*
X199357142Y-81859580D01*
X199357142Y-81859580D02*
X199404761Y-81907200D01*
X199404761Y-81907200D02*
X199499999Y-81954819D01*
X199499999Y-81954819D02*
X199595237Y-81954819D01*
X199595237Y-81954819D02*
X199690475Y-81907200D01*
X199690475Y-81907200D02*
X199738094Y-81859580D01*
X199738094Y-81859580D02*
X199785713Y-81764342D01*
X199785713Y-81764342D02*
X199833332Y-81573866D01*
X199833332Y-81573866D02*
X199833332Y-81335771D01*
X199833332Y-81335771D02*
X199785713Y-81145295D01*
X199785713Y-81145295D02*
X199738094Y-81050057D01*
X199738094Y-81050057D02*
X199690475Y-81002438D01*
X199690475Y-81002438D02*
X199595237Y-80954819D01*
X207785713Y-80954819D02*
X207166666Y-80954819D01*
X207166666Y-80954819D02*
X207499999Y-81335771D01*
X207499999Y-81335771D02*
X207357142Y-81335771D01*
X207357142Y-81335771D02*
X207261904Y-81383390D01*
X207261904Y-81383390D02*
X207214285Y-81431009D01*
X207214285Y-81431009D02*
X207166666Y-81526247D01*
X207166666Y-81526247D02*
X207166666Y-81764342D01*
X207166666Y-81764342D02*
X207214285Y-81859580D01*
X207214285Y-81859580D02*
X207261904Y-81907200D01*
X207261904Y-81907200D02*
X207357142Y-81954819D01*
X207357142Y-81954819D02*
X207642856Y-81954819D01*
X207642856Y-81954819D02*
X207738094Y-81907200D01*
X207738094Y-81907200D02*
X207785713Y-81859580D01*
X206833332Y-80954819D02*
X206214285Y-80954819D01*
X206214285Y-80954819D02*
X206547618Y-81335771D01*
X206547618Y-81335771D02*
X206404761Y-81335771D01*
X206404761Y-81335771D02*
X206309523Y-81383390D01*
X206309523Y-81383390D02*
X206261904Y-81431009D01*
X206261904Y-81431009D02*
X206214285Y-81526247D01*
X206214285Y-81526247D02*
X206214285Y-81764342D01*
X206214285Y-81764342D02*
X206261904Y-81859580D01*
X206261904Y-81859580D02*
X206309523Y-81907200D01*
X206309523Y-81907200D02*
X206404761Y-81954819D01*
X206404761Y-81954819D02*
X206690475Y-81954819D01*
X206690475Y-81954819D02*
X206785713Y-81907200D01*
X206785713Y-81907200D02*
X206833332Y-81859580D01*
X205595237Y-80954819D02*
X205499999Y-80954819D01*
X205499999Y-80954819D02*
X205404761Y-81002438D01*
X205404761Y-81002438D02*
X205357142Y-81050057D01*
X205357142Y-81050057D02*
X205309523Y-81145295D01*
X205309523Y-81145295D02*
X205261904Y-81335771D01*
X205261904Y-81335771D02*
X205261904Y-81573866D01*
X205261904Y-81573866D02*
X205309523Y-81764342D01*
X205309523Y-81764342D02*
X205357142Y-81859580D01*
X205357142Y-81859580D02*
X205404761Y-81907200D01*
X205404761Y-81907200D02*
X205499999Y-81954819D01*
X205499999Y-81954819D02*
X205595237Y-81954819D01*
X205595237Y-81954819D02*
X205690475Y-81907200D01*
X205690475Y-81907200D02*
X205738094Y-81859580D01*
X205738094Y-81859580D02*
X205785713Y-81764342D01*
X205785713Y-81764342D02*
X205833332Y-81573866D01*
X205833332Y-81573866D02*
X205833332Y-81335771D01*
X205833332Y-81335771D02*
X205785713Y-81145295D01*
X205785713Y-81145295D02*
X205738094Y-81050057D01*
X205738094Y-81050057D02*
X205690475Y-81002438D01*
X205690475Y-81002438D02*
X205595237Y-80954819D01*
X86084819Y-81989286D02*
X86084819Y-82608333D01*
X86084819Y-82608333D02*
X86465771Y-82275000D01*
X86465771Y-82275000D02*
X86465771Y-82417857D01*
X86465771Y-82417857D02*
X86513390Y-82513095D01*
X86513390Y-82513095D02*
X86561009Y-82560714D01*
X86561009Y-82560714D02*
X86656247Y-82608333D01*
X86656247Y-82608333D02*
X86894342Y-82608333D01*
X86894342Y-82608333D02*
X86989580Y-82560714D01*
X86989580Y-82560714D02*
X87037200Y-82513095D01*
X87037200Y-82513095D02*
X87084819Y-82417857D01*
X87084819Y-82417857D02*
X87084819Y-82132143D01*
X87084819Y-82132143D02*
X87037200Y-82036905D01*
X87037200Y-82036905D02*
X86989580Y-81989286D01*
X86084819Y-82941667D02*
X86084819Y-83560714D01*
X86084819Y-83560714D02*
X86465771Y-83227381D01*
X86465771Y-83227381D02*
X86465771Y-83370238D01*
X86465771Y-83370238D02*
X86513390Y-83465476D01*
X86513390Y-83465476D02*
X86561009Y-83513095D01*
X86561009Y-83513095D02*
X86656247Y-83560714D01*
X86656247Y-83560714D02*
X86894342Y-83560714D01*
X86894342Y-83560714D02*
X86989580Y-83513095D01*
X86989580Y-83513095D02*
X87037200Y-83465476D01*
X87037200Y-83465476D02*
X87084819Y-83370238D01*
X87084819Y-83370238D02*
X87084819Y-83084524D01*
X87084819Y-83084524D02*
X87037200Y-82989286D01*
X87037200Y-82989286D02*
X86989580Y-82941667D01*
X86084819Y-84179762D02*
X86084819Y-84275000D01*
X86084819Y-84275000D02*
X86132438Y-84370238D01*
X86132438Y-84370238D02*
X86180057Y-84417857D01*
X86180057Y-84417857D02*
X86275295Y-84465476D01*
X86275295Y-84465476D02*
X86465771Y-84513095D01*
X86465771Y-84513095D02*
X86703866Y-84513095D01*
X86703866Y-84513095D02*
X86894342Y-84465476D01*
X86894342Y-84465476D02*
X86989580Y-84417857D01*
X86989580Y-84417857D02*
X87037200Y-84370238D01*
X87037200Y-84370238D02*
X87084819Y-84275000D01*
X87084819Y-84275000D02*
X87084819Y-84179762D01*
X87084819Y-84179762D02*
X87037200Y-84084524D01*
X87037200Y-84084524D02*
X86989580Y-84036905D01*
X86989580Y-84036905D02*
X86894342Y-83989286D01*
X86894342Y-83989286D02*
X86703866Y-83941667D01*
X86703866Y-83941667D02*
X86465771Y-83941667D01*
X86465771Y-83941667D02*
X86275295Y-83989286D01*
X86275295Y-83989286D02*
X86180057Y-84036905D01*
X86180057Y-84036905D02*
X86132438Y-84084524D01*
X86132438Y-84084524D02*
X86084819Y-84179762D01*
X195785713Y-80954819D02*
X195166666Y-80954819D01*
X195166666Y-80954819D02*
X195499999Y-81335771D01*
X195499999Y-81335771D02*
X195357142Y-81335771D01*
X195357142Y-81335771D02*
X195261904Y-81383390D01*
X195261904Y-81383390D02*
X195214285Y-81431009D01*
X195214285Y-81431009D02*
X195166666Y-81526247D01*
X195166666Y-81526247D02*
X195166666Y-81764342D01*
X195166666Y-81764342D02*
X195214285Y-81859580D01*
X195214285Y-81859580D02*
X195261904Y-81907200D01*
X195261904Y-81907200D02*
X195357142Y-81954819D01*
X195357142Y-81954819D02*
X195642856Y-81954819D01*
X195642856Y-81954819D02*
X195738094Y-81907200D01*
X195738094Y-81907200D02*
X195785713Y-81859580D01*
X194833332Y-80954819D02*
X194214285Y-80954819D01*
X194214285Y-80954819D02*
X194547618Y-81335771D01*
X194547618Y-81335771D02*
X194404761Y-81335771D01*
X194404761Y-81335771D02*
X194309523Y-81383390D01*
X194309523Y-81383390D02*
X194261904Y-81431009D01*
X194261904Y-81431009D02*
X194214285Y-81526247D01*
X194214285Y-81526247D02*
X194214285Y-81764342D01*
X194214285Y-81764342D02*
X194261904Y-81859580D01*
X194261904Y-81859580D02*
X194309523Y-81907200D01*
X194309523Y-81907200D02*
X194404761Y-81954819D01*
X194404761Y-81954819D02*
X194690475Y-81954819D01*
X194690475Y-81954819D02*
X194785713Y-81907200D01*
X194785713Y-81907200D02*
X194833332Y-81859580D01*
X193595237Y-80954819D02*
X193499999Y-80954819D01*
X193499999Y-80954819D02*
X193404761Y-81002438D01*
X193404761Y-81002438D02*
X193357142Y-81050057D01*
X193357142Y-81050057D02*
X193309523Y-81145295D01*
X193309523Y-81145295D02*
X193261904Y-81335771D01*
X193261904Y-81335771D02*
X193261904Y-81573866D01*
X193261904Y-81573866D02*
X193309523Y-81764342D01*
X193309523Y-81764342D02*
X193357142Y-81859580D01*
X193357142Y-81859580D02*
X193404761Y-81907200D01*
X193404761Y-81907200D02*
X193499999Y-81954819D01*
X193499999Y-81954819D02*
X193595237Y-81954819D01*
X193595237Y-81954819D02*
X193690475Y-81907200D01*
X193690475Y-81907200D02*
X193738094Y-81859580D01*
X193738094Y-81859580D02*
X193785713Y-81764342D01*
X193785713Y-81764342D02*
X193833332Y-81573866D01*
X193833332Y-81573866D02*
X193833332Y-81335771D01*
X193833332Y-81335771D02*
X193785713Y-81145295D01*
X193785713Y-81145295D02*
X193738094Y-81050057D01*
X193738094Y-81050057D02*
X193690475Y-81002438D01*
X193690475Y-81002438D02*
X193595237Y-80954819D01*
X64208223Y-81837294D02*
X64208223Y-82456341D01*
X64208223Y-82456341D02*
X64589175Y-82123008D01*
X64589175Y-82123008D02*
X64589175Y-82265865D01*
X64589175Y-82265865D02*
X64636794Y-82361103D01*
X64636794Y-82361103D02*
X64684413Y-82408722D01*
X64684413Y-82408722D02*
X64779651Y-82456341D01*
X64779651Y-82456341D02*
X65017746Y-82456341D01*
X65017746Y-82456341D02*
X65112984Y-82408722D01*
X65112984Y-82408722D02*
X65160604Y-82361103D01*
X65160604Y-82361103D02*
X65208223Y-82265865D01*
X65208223Y-82265865D02*
X65208223Y-81980151D01*
X65208223Y-81980151D02*
X65160604Y-81884913D01*
X65160604Y-81884913D02*
X65112984Y-81837294D01*
X64208223Y-82789675D02*
X64208223Y-83408722D01*
X64208223Y-83408722D02*
X64589175Y-83075389D01*
X64589175Y-83075389D02*
X64589175Y-83218246D01*
X64589175Y-83218246D02*
X64636794Y-83313484D01*
X64636794Y-83313484D02*
X64684413Y-83361103D01*
X64684413Y-83361103D02*
X64779651Y-83408722D01*
X64779651Y-83408722D02*
X65017746Y-83408722D01*
X65017746Y-83408722D02*
X65112984Y-83361103D01*
X65112984Y-83361103D02*
X65160604Y-83313484D01*
X65160604Y-83313484D02*
X65208223Y-83218246D01*
X65208223Y-83218246D02*
X65208223Y-82932532D01*
X65208223Y-82932532D02*
X65160604Y-82837294D01*
X65160604Y-82837294D02*
X65112984Y-82789675D01*
X64208223Y-84027770D02*
X64208223Y-84123008D01*
X64208223Y-84123008D02*
X64255842Y-84218246D01*
X64255842Y-84218246D02*
X64303461Y-84265865D01*
X64303461Y-84265865D02*
X64398699Y-84313484D01*
X64398699Y-84313484D02*
X64589175Y-84361103D01*
X64589175Y-84361103D02*
X64827270Y-84361103D01*
X64827270Y-84361103D02*
X65017746Y-84313484D01*
X65017746Y-84313484D02*
X65112984Y-84265865D01*
X65112984Y-84265865D02*
X65160604Y-84218246D01*
X65160604Y-84218246D02*
X65208223Y-84123008D01*
X65208223Y-84123008D02*
X65208223Y-84027770D01*
X65208223Y-84027770D02*
X65160604Y-83932532D01*
X65160604Y-83932532D02*
X65112984Y-83884913D01*
X65112984Y-83884913D02*
X65017746Y-83837294D01*
X65017746Y-83837294D02*
X64827270Y-83789675D01*
X64827270Y-83789675D02*
X64589175Y-83789675D01*
X64589175Y-83789675D02*
X64398699Y-83837294D01*
X64398699Y-83837294D02*
X64303461Y-83884913D01*
X64303461Y-83884913D02*
X64255842Y-83932532D01*
X64255842Y-83932532D02*
X64208223Y-84027770D01*
X207785713Y-88954819D02*
X207166666Y-88954819D01*
X207166666Y-88954819D02*
X207499999Y-89335771D01*
X207499999Y-89335771D02*
X207357142Y-89335771D01*
X207357142Y-89335771D02*
X207261904Y-89383390D01*
X207261904Y-89383390D02*
X207214285Y-89431009D01*
X207214285Y-89431009D02*
X207166666Y-89526247D01*
X207166666Y-89526247D02*
X207166666Y-89764342D01*
X207166666Y-89764342D02*
X207214285Y-89859580D01*
X207214285Y-89859580D02*
X207261904Y-89907200D01*
X207261904Y-89907200D02*
X207357142Y-89954819D01*
X207357142Y-89954819D02*
X207642856Y-89954819D01*
X207642856Y-89954819D02*
X207738094Y-89907200D01*
X207738094Y-89907200D02*
X207785713Y-89859580D01*
X206833332Y-88954819D02*
X206214285Y-88954819D01*
X206214285Y-88954819D02*
X206547618Y-89335771D01*
X206547618Y-89335771D02*
X206404761Y-89335771D01*
X206404761Y-89335771D02*
X206309523Y-89383390D01*
X206309523Y-89383390D02*
X206261904Y-89431009D01*
X206261904Y-89431009D02*
X206214285Y-89526247D01*
X206214285Y-89526247D02*
X206214285Y-89764342D01*
X206214285Y-89764342D02*
X206261904Y-89859580D01*
X206261904Y-89859580D02*
X206309523Y-89907200D01*
X206309523Y-89907200D02*
X206404761Y-89954819D01*
X206404761Y-89954819D02*
X206690475Y-89954819D01*
X206690475Y-89954819D02*
X206785713Y-89907200D01*
X206785713Y-89907200D02*
X206833332Y-89859580D01*
X205595237Y-88954819D02*
X205499999Y-88954819D01*
X205499999Y-88954819D02*
X205404761Y-89002438D01*
X205404761Y-89002438D02*
X205357142Y-89050057D01*
X205357142Y-89050057D02*
X205309523Y-89145295D01*
X205309523Y-89145295D02*
X205261904Y-89335771D01*
X205261904Y-89335771D02*
X205261904Y-89573866D01*
X205261904Y-89573866D02*
X205309523Y-89764342D01*
X205309523Y-89764342D02*
X205357142Y-89859580D01*
X205357142Y-89859580D02*
X205404761Y-89907200D01*
X205404761Y-89907200D02*
X205499999Y-89954819D01*
X205499999Y-89954819D02*
X205595237Y-89954819D01*
X205595237Y-89954819D02*
X205690475Y-89907200D01*
X205690475Y-89907200D02*
X205738094Y-89859580D01*
X205738094Y-89859580D02*
X205785713Y-89764342D01*
X205785713Y-89764342D02*
X205833332Y-89573866D01*
X205833332Y-89573866D02*
X205833332Y-89335771D01*
X205833332Y-89335771D02*
X205785713Y-89145295D01*
X205785713Y-89145295D02*
X205738094Y-89050057D01*
X205738094Y-89050057D02*
X205690475Y-89002438D01*
X205690475Y-89002438D02*
X205595237Y-88954819D01*
X204785713Y-80954819D02*
X204166666Y-80954819D01*
X204166666Y-80954819D02*
X204499999Y-81335771D01*
X204499999Y-81335771D02*
X204357142Y-81335771D01*
X204357142Y-81335771D02*
X204261904Y-81383390D01*
X204261904Y-81383390D02*
X204214285Y-81431009D01*
X204214285Y-81431009D02*
X204166666Y-81526247D01*
X204166666Y-81526247D02*
X204166666Y-81764342D01*
X204166666Y-81764342D02*
X204214285Y-81859580D01*
X204214285Y-81859580D02*
X204261904Y-81907200D01*
X204261904Y-81907200D02*
X204357142Y-81954819D01*
X204357142Y-81954819D02*
X204642856Y-81954819D01*
X204642856Y-81954819D02*
X204738094Y-81907200D01*
X204738094Y-81907200D02*
X204785713Y-81859580D01*
X203833332Y-80954819D02*
X203214285Y-80954819D01*
X203214285Y-80954819D02*
X203547618Y-81335771D01*
X203547618Y-81335771D02*
X203404761Y-81335771D01*
X203404761Y-81335771D02*
X203309523Y-81383390D01*
X203309523Y-81383390D02*
X203261904Y-81431009D01*
X203261904Y-81431009D02*
X203214285Y-81526247D01*
X203214285Y-81526247D02*
X203214285Y-81764342D01*
X203214285Y-81764342D02*
X203261904Y-81859580D01*
X203261904Y-81859580D02*
X203309523Y-81907200D01*
X203309523Y-81907200D02*
X203404761Y-81954819D01*
X203404761Y-81954819D02*
X203690475Y-81954819D01*
X203690475Y-81954819D02*
X203785713Y-81907200D01*
X203785713Y-81907200D02*
X203833332Y-81859580D01*
X202595237Y-80954819D02*
X202499999Y-80954819D01*
X202499999Y-80954819D02*
X202404761Y-81002438D01*
X202404761Y-81002438D02*
X202357142Y-81050057D01*
X202357142Y-81050057D02*
X202309523Y-81145295D01*
X202309523Y-81145295D02*
X202261904Y-81335771D01*
X202261904Y-81335771D02*
X202261904Y-81573866D01*
X202261904Y-81573866D02*
X202309523Y-81764342D01*
X202309523Y-81764342D02*
X202357142Y-81859580D01*
X202357142Y-81859580D02*
X202404761Y-81907200D01*
X202404761Y-81907200D02*
X202499999Y-81954819D01*
X202499999Y-81954819D02*
X202595237Y-81954819D01*
X202595237Y-81954819D02*
X202690475Y-81907200D01*
X202690475Y-81907200D02*
X202738094Y-81859580D01*
X202738094Y-81859580D02*
X202785713Y-81764342D01*
X202785713Y-81764342D02*
X202833332Y-81573866D01*
X202833332Y-81573866D02*
X202833332Y-81335771D01*
X202833332Y-81335771D02*
X202785713Y-81145295D01*
X202785713Y-81145295D02*
X202738094Y-81050057D01*
X202738094Y-81050057D02*
X202690475Y-81002438D01*
X202690475Y-81002438D02*
X202595237Y-80954819D01*
X201785713Y-88954819D02*
X201166666Y-88954819D01*
X201166666Y-88954819D02*
X201499999Y-89335771D01*
X201499999Y-89335771D02*
X201357142Y-89335771D01*
X201357142Y-89335771D02*
X201261904Y-89383390D01*
X201261904Y-89383390D02*
X201214285Y-89431009D01*
X201214285Y-89431009D02*
X201166666Y-89526247D01*
X201166666Y-89526247D02*
X201166666Y-89764342D01*
X201166666Y-89764342D02*
X201214285Y-89859580D01*
X201214285Y-89859580D02*
X201261904Y-89907200D01*
X201261904Y-89907200D02*
X201357142Y-89954819D01*
X201357142Y-89954819D02*
X201642856Y-89954819D01*
X201642856Y-89954819D02*
X201738094Y-89907200D01*
X201738094Y-89907200D02*
X201785713Y-89859580D01*
X200833332Y-88954819D02*
X200214285Y-88954819D01*
X200214285Y-88954819D02*
X200547618Y-89335771D01*
X200547618Y-89335771D02*
X200404761Y-89335771D01*
X200404761Y-89335771D02*
X200309523Y-89383390D01*
X200309523Y-89383390D02*
X200261904Y-89431009D01*
X200261904Y-89431009D02*
X200214285Y-89526247D01*
X200214285Y-89526247D02*
X200214285Y-89764342D01*
X200214285Y-89764342D02*
X200261904Y-89859580D01*
X200261904Y-89859580D02*
X200309523Y-89907200D01*
X200309523Y-89907200D02*
X200404761Y-89954819D01*
X200404761Y-89954819D02*
X200690475Y-89954819D01*
X200690475Y-89954819D02*
X200785713Y-89907200D01*
X200785713Y-89907200D02*
X200833332Y-89859580D01*
X199595237Y-88954819D02*
X199499999Y-88954819D01*
X199499999Y-88954819D02*
X199404761Y-89002438D01*
X199404761Y-89002438D02*
X199357142Y-89050057D01*
X199357142Y-89050057D02*
X199309523Y-89145295D01*
X199309523Y-89145295D02*
X199261904Y-89335771D01*
X199261904Y-89335771D02*
X199261904Y-89573866D01*
X199261904Y-89573866D02*
X199309523Y-89764342D01*
X199309523Y-89764342D02*
X199357142Y-89859580D01*
X199357142Y-89859580D02*
X199404761Y-89907200D01*
X199404761Y-89907200D02*
X199499999Y-89954819D01*
X199499999Y-89954819D02*
X199595237Y-89954819D01*
X199595237Y-89954819D02*
X199690475Y-89907200D01*
X199690475Y-89907200D02*
X199738094Y-89859580D01*
X199738094Y-89859580D02*
X199785713Y-89764342D01*
X199785713Y-89764342D02*
X199833332Y-89573866D01*
X199833332Y-89573866D02*
X199833332Y-89335771D01*
X199833332Y-89335771D02*
X199785713Y-89145295D01*
X199785713Y-89145295D02*
X199738094Y-89050057D01*
X199738094Y-89050057D02*
X199690475Y-89002438D01*
X199690475Y-89002438D02*
X199595237Y-88954819D01*
X195785713Y-88954819D02*
X195166666Y-88954819D01*
X195166666Y-88954819D02*
X195499999Y-89335771D01*
X195499999Y-89335771D02*
X195357142Y-89335771D01*
X195357142Y-89335771D02*
X195261904Y-89383390D01*
X195261904Y-89383390D02*
X195214285Y-89431009D01*
X195214285Y-89431009D02*
X195166666Y-89526247D01*
X195166666Y-89526247D02*
X195166666Y-89764342D01*
X195166666Y-89764342D02*
X195214285Y-89859580D01*
X195214285Y-89859580D02*
X195261904Y-89907200D01*
X195261904Y-89907200D02*
X195357142Y-89954819D01*
X195357142Y-89954819D02*
X195642856Y-89954819D01*
X195642856Y-89954819D02*
X195738094Y-89907200D01*
X195738094Y-89907200D02*
X195785713Y-89859580D01*
X194833332Y-88954819D02*
X194214285Y-88954819D01*
X194214285Y-88954819D02*
X194547618Y-89335771D01*
X194547618Y-89335771D02*
X194404761Y-89335771D01*
X194404761Y-89335771D02*
X194309523Y-89383390D01*
X194309523Y-89383390D02*
X194261904Y-89431009D01*
X194261904Y-89431009D02*
X194214285Y-89526247D01*
X194214285Y-89526247D02*
X194214285Y-89764342D01*
X194214285Y-89764342D02*
X194261904Y-89859580D01*
X194261904Y-89859580D02*
X194309523Y-89907200D01*
X194309523Y-89907200D02*
X194404761Y-89954819D01*
X194404761Y-89954819D02*
X194690475Y-89954819D01*
X194690475Y-89954819D02*
X194785713Y-89907200D01*
X194785713Y-89907200D02*
X194833332Y-89859580D01*
X193595237Y-88954819D02*
X193499999Y-88954819D01*
X193499999Y-88954819D02*
X193404761Y-89002438D01*
X193404761Y-89002438D02*
X193357142Y-89050057D01*
X193357142Y-89050057D02*
X193309523Y-89145295D01*
X193309523Y-89145295D02*
X193261904Y-89335771D01*
X193261904Y-89335771D02*
X193261904Y-89573866D01*
X193261904Y-89573866D02*
X193309523Y-89764342D01*
X193309523Y-89764342D02*
X193357142Y-89859580D01*
X193357142Y-89859580D02*
X193404761Y-89907200D01*
X193404761Y-89907200D02*
X193499999Y-89954819D01*
X193499999Y-89954819D02*
X193595237Y-89954819D01*
X193595237Y-89954819D02*
X193690475Y-89907200D01*
X193690475Y-89907200D02*
X193738094Y-89859580D01*
X193738094Y-89859580D02*
X193785713Y-89764342D01*
X193785713Y-89764342D02*
X193833332Y-89573866D01*
X193833332Y-89573866D02*
X193833332Y-89335771D01*
X193833332Y-89335771D02*
X193785713Y-89145295D01*
X193785713Y-89145295D02*
X193738094Y-89050057D01*
X193738094Y-89050057D02*
X193690475Y-89002438D01*
X193690475Y-89002438D02*
X193595237Y-88954819D01*
X53954819Y-82304523D02*
X53954819Y-81733095D01*
X53954819Y-82018809D02*
X52954819Y-82018809D01*
X52954819Y-82018809D02*
X53097676Y-81923571D01*
X53097676Y-81923571D02*
X53192914Y-81828333D01*
X53192914Y-81828333D02*
X53240533Y-81733095D01*
X52954819Y-82923571D02*
X52954819Y-83018809D01*
X52954819Y-83018809D02*
X53002438Y-83114047D01*
X53002438Y-83114047D02*
X53050057Y-83161666D01*
X53050057Y-83161666D02*
X53145295Y-83209285D01*
X53145295Y-83209285D02*
X53335771Y-83256904D01*
X53335771Y-83256904D02*
X53573866Y-83256904D01*
X53573866Y-83256904D02*
X53764342Y-83209285D01*
X53764342Y-83209285D02*
X53859580Y-83161666D01*
X53859580Y-83161666D02*
X53907200Y-83114047D01*
X53907200Y-83114047D02*
X53954819Y-83018809D01*
X53954819Y-83018809D02*
X53954819Y-82923571D01*
X53954819Y-82923571D02*
X53907200Y-82828333D01*
X53907200Y-82828333D02*
X53859580Y-82780714D01*
X53859580Y-82780714D02*
X53764342Y-82733095D01*
X53764342Y-82733095D02*
X53573866Y-82685476D01*
X53573866Y-82685476D02*
X53335771Y-82685476D01*
X53335771Y-82685476D02*
X53145295Y-82733095D01*
X53145295Y-82733095D02*
X53050057Y-82780714D01*
X53050057Y-82780714D02*
X53002438Y-82828333D01*
X53002438Y-82828333D02*
X52954819Y-82923571D01*
X53954819Y-83685476D02*
X52954819Y-83685476D01*
X53954819Y-84256904D02*
X53383390Y-83828333D01*
X52954819Y-84256904D02*
X53526247Y-83685476D01*
X178454819Y-96714286D02*
X178454819Y-97333333D01*
X178454819Y-97333333D02*
X178835771Y-97000000D01*
X178835771Y-97000000D02*
X178835771Y-97142857D01*
X178835771Y-97142857D02*
X178883390Y-97238095D01*
X178883390Y-97238095D02*
X178931009Y-97285714D01*
X178931009Y-97285714D02*
X179026247Y-97333333D01*
X179026247Y-97333333D02*
X179264342Y-97333333D01*
X179264342Y-97333333D02*
X179359580Y-97285714D01*
X179359580Y-97285714D02*
X179407200Y-97238095D01*
X179407200Y-97238095D02*
X179454819Y-97142857D01*
X179454819Y-97142857D02*
X179454819Y-96857143D01*
X179454819Y-96857143D02*
X179407200Y-96761905D01*
X179407200Y-96761905D02*
X179359580Y-96714286D01*
X178454819Y-97666667D02*
X178454819Y-98285714D01*
X178454819Y-98285714D02*
X178835771Y-97952381D01*
X178835771Y-97952381D02*
X178835771Y-98095238D01*
X178835771Y-98095238D02*
X178883390Y-98190476D01*
X178883390Y-98190476D02*
X178931009Y-98238095D01*
X178931009Y-98238095D02*
X179026247Y-98285714D01*
X179026247Y-98285714D02*
X179264342Y-98285714D01*
X179264342Y-98285714D02*
X179359580Y-98238095D01*
X179359580Y-98238095D02*
X179407200Y-98190476D01*
X179407200Y-98190476D02*
X179454819Y-98095238D01*
X179454819Y-98095238D02*
X179454819Y-97809524D01*
X179454819Y-97809524D02*
X179407200Y-97714286D01*
X179407200Y-97714286D02*
X179359580Y-97666667D01*
X178454819Y-98904762D02*
X178454819Y-99000000D01*
X178454819Y-99000000D02*
X178502438Y-99095238D01*
X178502438Y-99095238D02*
X178550057Y-99142857D01*
X178550057Y-99142857D02*
X178645295Y-99190476D01*
X178645295Y-99190476D02*
X178835771Y-99238095D01*
X178835771Y-99238095D02*
X179073866Y-99238095D01*
X179073866Y-99238095D02*
X179264342Y-99190476D01*
X179264342Y-99190476D02*
X179359580Y-99142857D01*
X179359580Y-99142857D02*
X179407200Y-99095238D01*
X179407200Y-99095238D02*
X179454819Y-99000000D01*
X179454819Y-99000000D02*
X179454819Y-98904762D01*
X179454819Y-98904762D02*
X179407200Y-98809524D01*
X179407200Y-98809524D02*
X179359580Y-98761905D01*
X179359580Y-98761905D02*
X179264342Y-98714286D01*
X179264342Y-98714286D02*
X179073866Y-98666667D01*
X179073866Y-98666667D02*
X178835771Y-98666667D01*
X178835771Y-98666667D02*
X178645295Y-98714286D01*
X178645295Y-98714286D02*
X178550057Y-98761905D01*
X178550057Y-98761905D02*
X178502438Y-98809524D01*
X178502438Y-98809524D02*
X178454819Y-98904762D01*
X167944285Y-91584819D02*
X168515713Y-91584819D01*
X168229999Y-91584819D02*
X168229999Y-90584819D01*
X168229999Y-90584819D02*
X168325237Y-90727676D01*
X168325237Y-90727676D02*
X168420475Y-90822914D01*
X168420475Y-90822914D02*
X168515713Y-90870533D01*
X167515713Y-91584819D02*
X167515713Y-90584819D01*
X166944285Y-91584819D02*
X167372856Y-91013390D01*
X166944285Y-90584819D02*
X167515713Y-91156247D01*
X174690476Y-93454819D02*
X175261904Y-93454819D01*
X174976190Y-93454819D02*
X174976190Y-92454819D01*
X174976190Y-92454819D02*
X175071428Y-92597676D01*
X175071428Y-92597676D02*
X175166666Y-92692914D01*
X175166666Y-92692914D02*
X175261904Y-92740533D01*
X174071428Y-92454819D02*
X173976190Y-92454819D01*
X173976190Y-92454819D02*
X173880952Y-92502438D01*
X173880952Y-92502438D02*
X173833333Y-92550057D01*
X173833333Y-92550057D02*
X173785714Y-92645295D01*
X173785714Y-92645295D02*
X173738095Y-92835771D01*
X173738095Y-92835771D02*
X173738095Y-93073866D01*
X173738095Y-93073866D02*
X173785714Y-93264342D01*
X173785714Y-93264342D02*
X173833333Y-93359580D01*
X173833333Y-93359580D02*
X173880952Y-93407200D01*
X173880952Y-93407200D02*
X173976190Y-93454819D01*
X173976190Y-93454819D02*
X174071428Y-93454819D01*
X174071428Y-93454819D02*
X174166666Y-93407200D01*
X174166666Y-93407200D02*
X174214285Y-93359580D01*
X174214285Y-93359580D02*
X174261904Y-93264342D01*
X174261904Y-93264342D02*
X174309523Y-93073866D01*
X174309523Y-93073866D02*
X174309523Y-92835771D01*
X174309523Y-92835771D02*
X174261904Y-92645295D01*
X174261904Y-92645295D02*
X174214285Y-92550057D01*
X174214285Y-92550057D02*
X174166666Y-92502438D01*
X174166666Y-92502438D02*
X174071428Y-92454819D01*
X173309523Y-93454819D02*
X173309523Y-92454819D01*
X172738095Y-93454819D02*
X173166666Y-92883390D01*
X172738095Y-92454819D02*
X173309523Y-93026247D01*
X75084819Y-81944286D02*
X75084819Y-82563333D01*
X75084819Y-82563333D02*
X75465771Y-82230000D01*
X75465771Y-82230000D02*
X75465771Y-82372857D01*
X75465771Y-82372857D02*
X75513390Y-82468095D01*
X75513390Y-82468095D02*
X75561009Y-82515714D01*
X75561009Y-82515714D02*
X75656247Y-82563333D01*
X75656247Y-82563333D02*
X75894342Y-82563333D01*
X75894342Y-82563333D02*
X75989580Y-82515714D01*
X75989580Y-82515714D02*
X76037200Y-82468095D01*
X76037200Y-82468095D02*
X76084819Y-82372857D01*
X76084819Y-82372857D02*
X76084819Y-82087143D01*
X76084819Y-82087143D02*
X76037200Y-81991905D01*
X76037200Y-81991905D02*
X75989580Y-81944286D01*
X75084819Y-82896667D02*
X75084819Y-83515714D01*
X75084819Y-83515714D02*
X75465771Y-83182381D01*
X75465771Y-83182381D02*
X75465771Y-83325238D01*
X75465771Y-83325238D02*
X75513390Y-83420476D01*
X75513390Y-83420476D02*
X75561009Y-83468095D01*
X75561009Y-83468095D02*
X75656247Y-83515714D01*
X75656247Y-83515714D02*
X75894342Y-83515714D01*
X75894342Y-83515714D02*
X75989580Y-83468095D01*
X75989580Y-83468095D02*
X76037200Y-83420476D01*
X76037200Y-83420476D02*
X76084819Y-83325238D01*
X76084819Y-83325238D02*
X76084819Y-83039524D01*
X76084819Y-83039524D02*
X76037200Y-82944286D01*
X76037200Y-82944286D02*
X75989580Y-82896667D01*
X75084819Y-84134762D02*
X75084819Y-84230000D01*
X75084819Y-84230000D02*
X75132438Y-84325238D01*
X75132438Y-84325238D02*
X75180057Y-84372857D01*
X75180057Y-84372857D02*
X75275295Y-84420476D01*
X75275295Y-84420476D02*
X75465771Y-84468095D01*
X75465771Y-84468095D02*
X75703866Y-84468095D01*
X75703866Y-84468095D02*
X75894342Y-84420476D01*
X75894342Y-84420476D02*
X75989580Y-84372857D01*
X75989580Y-84372857D02*
X76037200Y-84325238D01*
X76037200Y-84325238D02*
X76084819Y-84230000D01*
X76084819Y-84230000D02*
X76084819Y-84134762D01*
X76084819Y-84134762D02*
X76037200Y-84039524D01*
X76037200Y-84039524D02*
X75989580Y-83991905D01*
X75989580Y-83991905D02*
X75894342Y-83944286D01*
X75894342Y-83944286D02*
X75703866Y-83896667D01*
X75703866Y-83896667D02*
X75465771Y-83896667D01*
X75465771Y-83896667D02*
X75275295Y-83944286D01*
X75275295Y-83944286D02*
X75180057Y-83991905D01*
X75180057Y-83991905D02*
X75132438Y-84039524D01*
X75132438Y-84039524D02*
X75084819Y-84134762D01*
X64454819Y-97010714D02*
X64454819Y-96439286D01*
X64454819Y-96725000D02*
X63454819Y-96725000D01*
X63454819Y-96725000D02*
X63597676Y-96629762D01*
X63597676Y-96629762D02*
X63692914Y-96534524D01*
X63692914Y-96534524D02*
X63740533Y-96439286D01*
X64454819Y-97439286D02*
X63454819Y-97439286D01*
X64454819Y-98010714D02*
X63883390Y-97582143D01*
X63454819Y-98010714D02*
X64026247Y-97439286D01*
X198785713Y-80954819D02*
X198166666Y-80954819D01*
X198166666Y-80954819D02*
X198499999Y-81335771D01*
X198499999Y-81335771D02*
X198357142Y-81335771D01*
X198357142Y-81335771D02*
X198261904Y-81383390D01*
X198261904Y-81383390D02*
X198214285Y-81431009D01*
X198214285Y-81431009D02*
X198166666Y-81526247D01*
X198166666Y-81526247D02*
X198166666Y-81764342D01*
X198166666Y-81764342D02*
X198214285Y-81859580D01*
X198214285Y-81859580D02*
X198261904Y-81907200D01*
X198261904Y-81907200D02*
X198357142Y-81954819D01*
X198357142Y-81954819D02*
X198642856Y-81954819D01*
X198642856Y-81954819D02*
X198738094Y-81907200D01*
X198738094Y-81907200D02*
X198785713Y-81859580D01*
X197833332Y-80954819D02*
X197214285Y-80954819D01*
X197214285Y-80954819D02*
X197547618Y-81335771D01*
X197547618Y-81335771D02*
X197404761Y-81335771D01*
X197404761Y-81335771D02*
X197309523Y-81383390D01*
X197309523Y-81383390D02*
X197261904Y-81431009D01*
X197261904Y-81431009D02*
X197214285Y-81526247D01*
X197214285Y-81526247D02*
X197214285Y-81764342D01*
X197214285Y-81764342D02*
X197261904Y-81859580D01*
X197261904Y-81859580D02*
X197309523Y-81907200D01*
X197309523Y-81907200D02*
X197404761Y-81954819D01*
X197404761Y-81954819D02*
X197690475Y-81954819D01*
X197690475Y-81954819D02*
X197785713Y-81907200D01*
X197785713Y-81907200D02*
X197833332Y-81859580D01*
X196595237Y-80954819D02*
X196499999Y-80954819D01*
X196499999Y-80954819D02*
X196404761Y-81002438D01*
X196404761Y-81002438D02*
X196357142Y-81050057D01*
X196357142Y-81050057D02*
X196309523Y-81145295D01*
X196309523Y-81145295D02*
X196261904Y-81335771D01*
X196261904Y-81335771D02*
X196261904Y-81573866D01*
X196261904Y-81573866D02*
X196309523Y-81764342D01*
X196309523Y-81764342D02*
X196357142Y-81859580D01*
X196357142Y-81859580D02*
X196404761Y-81907200D01*
X196404761Y-81907200D02*
X196499999Y-81954819D01*
X196499999Y-81954819D02*
X196595237Y-81954819D01*
X196595237Y-81954819D02*
X196690475Y-81907200D01*
X196690475Y-81907200D02*
X196738094Y-81859580D01*
X196738094Y-81859580D02*
X196785713Y-81764342D01*
X196785713Y-81764342D02*
X196833332Y-81573866D01*
X196833332Y-81573866D02*
X196833332Y-81335771D01*
X196833332Y-81335771D02*
X196785713Y-81145295D01*
X196785713Y-81145295D02*
X196738094Y-81050057D01*
X196738094Y-81050057D02*
X196690475Y-81002438D01*
X196690475Y-81002438D02*
X196595237Y-80954819D01*
X168214285Y-88454819D02*
X168785713Y-88454819D01*
X168499999Y-88454819D02*
X168499999Y-87454819D01*
X168499999Y-87454819D02*
X168595237Y-87597676D01*
X168595237Y-87597676D02*
X168690475Y-87692914D01*
X168690475Y-87692914D02*
X168785713Y-87740533D01*
X167785713Y-88454819D02*
X167785713Y-87454819D01*
X167214285Y-88454819D02*
X167642856Y-87883390D01*
X167214285Y-87454819D02*
X167785713Y-88026247D01*
X204785713Y-88954819D02*
X204166666Y-88954819D01*
X204166666Y-88954819D02*
X204499999Y-89335771D01*
X204499999Y-89335771D02*
X204357142Y-89335771D01*
X204357142Y-89335771D02*
X204261904Y-89383390D01*
X204261904Y-89383390D02*
X204214285Y-89431009D01*
X204214285Y-89431009D02*
X204166666Y-89526247D01*
X204166666Y-89526247D02*
X204166666Y-89764342D01*
X204166666Y-89764342D02*
X204214285Y-89859580D01*
X204214285Y-89859580D02*
X204261904Y-89907200D01*
X204261904Y-89907200D02*
X204357142Y-89954819D01*
X204357142Y-89954819D02*
X204642856Y-89954819D01*
X204642856Y-89954819D02*
X204738094Y-89907200D01*
X204738094Y-89907200D02*
X204785713Y-89859580D01*
X203833332Y-88954819D02*
X203214285Y-88954819D01*
X203214285Y-88954819D02*
X203547618Y-89335771D01*
X203547618Y-89335771D02*
X203404761Y-89335771D01*
X203404761Y-89335771D02*
X203309523Y-89383390D01*
X203309523Y-89383390D02*
X203261904Y-89431009D01*
X203261904Y-89431009D02*
X203214285Y-89526247D01*
X203214285Y-89526247D02*
X203214285Y-89764342D01*
X203214285Y-89764342D02*
X203261904Y-89859580D01*
X203261904Y-89859580D02*
X203309523Y-89907200D01*
X203309523Y-89907200D02*
X203404761Y-89954819D01*
X203404761Y-89954819D02*
X203690475Y-89954819D01*
X203690475Y-89954819D02*
X203785713Y-89907200D01*
X203785713Y-89907200D02*
X203833332Y-89859580D01*
X202595237Y-88954819D02*
X202499999Y-88954819D01*
X202499999Y-88954819D02*
X202404761Y-89002438D01*
X202404761Y-89002438D02*
X202357142Y-89050057D01*
X202357142Y-89050057D02*
X202309523Y-89145295D01*
X202309523Y-89145295D02*
X202261904Y-89335771D01*
X202261904Y-89335771D02*
X202261904Y-89573866D01*
X202261904Y-89573866D02*
X202309523Y-89764342D01*
X202309523Y-89764342D02*
X202357142Y-89859580D01*
X202357142Y-89859580D02*
X202404761Y-89907200D01*
X202404761Y-89907200D02*
X202499999Y-89954819D01*
X202499999Y-89954819D02*
X202595237Y-89954819D01*
X202595237Y-89954819D02*
X202690475Y-89907200D01*
X202690475Y-89907200D02*
X202738094Y-89859580D01*
X202738094Y-89859580D02*
X202785713Y-89764342D01*
X202785713Y-89764342D02*
X202833332Y-89573866D01*
X202833332Y-89573866D02*
X202833332Y-89335771D01*
X202833332Y-89335771D02*
X202785713Y-89145295D01*
X202785713Y-89145295D02*
X202738094Y-89050057D01*
X202738094Y-89050057D02*
X202690475Y-89002438D01*
X202690475Y-89002438D02*
X202595237Y-88954819D01*
X185454819Y-96939286D02*
X185454819Y-97558333D01*
X185454819Y-97558333D02*
X185835771Y-97225000D01*
X185835771Y-97225000D02*
X185835771Y-97367857D01*
X185835771Y-97367857D02*
X185883390Y-97463095D01*
X185883390Y-97463095D02*
X185931009Y-97510714D01*
X185931009Y-97510714D02*
X186026247Y-97558333D01*
X186026247Y-97558333D02*
X186264342Y-97558333D01*
X186264342Y-97558333D02*
X186359580Y-97510714D01*
X186359580Y-97510714D02*
X186407200Y-97463095D01*
X186407200Y-97463095D02*
X186454819Y-97367857D01*
X186454819Y-97367857D02*
X186454819Y-97082143D01*
X186454819Y-97082143D02*
X186407200Y-96986905D01*
X186407200Y-96986905D02*
X186359580Y-96939286D01*
X185454819Y-97891667D02*
X185454819Y-98510714D01*
X185454819Y-98510714D02*
X185835771Y-98177381D01*
X185835771Y-98177381D02*
X185835771Y-98320238D01*
X185835771Y-98320238D02*
X185883390Y-98415476D01*
X185883390Y-98415476D02*
X185931009Y-98463095D01*
X185931009Y-98463095D02*
X186026247Y-98510714D01*
X186026247Y-98510714D02*
X186264342Y-98510714D01*
X186264342Y-98510714D02*
X186359580Y-98463095D01*
X186359580Y-98463095D02*
X186407200Y-98415476D01*
X186407200Y-98415476D02*
X186454819Y-98320238D01*
X186454819Y-98320238D02*
X186454819Y-98034524D01*
X186454819Y-98034524D02*
X186407200Y-97939286D01*
X186407200Y-97939286D02*
X186359580Y-97891667D01*
X185454819Y-99129762D02*
X185454819Y-99225000D01*
X185454819Y-99225000D02*
X185502438Y-99320238D01*
X185502438Y-99320238D02*
X185550057Y-99367857D01*
X185550057Y-99367857D02*
X185645295Y-99415476D01*
X185645295Y-99415476D02*
X185835771Y-99463095D01*
X185835771Y-99463095D02*
X186073866Y-99463095D01*
X186073866Y-99463095D02*
X186264342Y-99415476D01*
X186264342Y-99415476D02*
X186359580Y-99367857D01*
X186359580Y-99367857D02*
X186407200Y-99320238D01*
X186407200Y-99320238D02*
X186454819Y-99225000D01*
X186454819Y-99225000D02*
X186454819Y-99129762D01*
X186454819Y-99129762D02*
X186407200Y-99034524D01*
X186407200Y-99034524D02*
X186359580Y-98986905D01*
X186359580Y-98986905D02*
X186264342Y-98939286D01*
X186264342Y-98939286D02*
X186073866Y-98891667D01*
X186073866Y-98891667D02*
X185835771Y-98891667D01*
X185835771Y-98891667D02*
X185645295Y-98939286D01*
X185645295Y-98939286D02*
X185550057Y-98986905D01*
X185550057Y-98986905D02*
X185502438Y-99034524D01*
X185502438Y-99034524D02*
X185454819Y-99129762D01*
X190954819Y-96984286D02*
X190954819Y-97603333D01*
X190954819Y-97603333D02*
X191335771Y-97270000D01*
X191335771Y-97270000D02*
X191335771Y-97412857D01*
X191335771Y-97412857D02*
X191383390Y-97508095D01*
X191383390Y-97508095D02*
X191431009Y-97555714D01*
X191431009Y-97555714D02*
X191526247Y-97603333D01*
X191526247Y-97603333D02*
X191764342Y-97603333D01*
X191764342Y-97603333D02*
X191859580Y-97555714D01*
X191859580Y-97555714D02*
X191907200Y-97508095D01*
X191907200Y-97508095D02*
X191954819Y-97412857D01*
X191954819Y-97412857D02*
X191954819Y-97127143D01*
X191954819Y-97127143D02*
X191907200Y-97031905D01*
X191907200Y-97031905D02*
X191859580Y-96984286D01*
X190954819Y-97936667D02*
X190954819Y-98555714D01*
X190954819Y-98555714D02*
X191335771Y-98222381D01*
X191335771Y-98222381D02*
X191335771Y-98365238D01*
X191335771Y-98365238D02*
X191383390Y-98460476D01*
X191383390Y-98460476D02*
X191431009Y-98508095D01*
X191431009Y-98508095D02*
X191526247Y-98555714D01*
X191526247Y-98555714D02*
X191764342Y-98555714D01*
X191764342Y-98555714D02*
X191859580Y-98508095D01*
X191859580Y-98508095D02*
X191907200Y-98460476D01*
X191907200Y-98460476D02*
X191954819Y-98365238D01*
X191954819Y-98365238D02*
X191954819Y-98079524D01*
X191954819Y-98079524D02*
X191907200Y-97984286D01*
X191907200Y-97984286D02*
X191859580Y-97936667D01*
X190954819Y-99174762D02*
X190954819Y-99270000D01*
X190954819Y-99270000D02*
X191002438Y-99365238D01*
X191002438Y-99365238D02*
X191050057Y-99412857D01*
X191050057Y-99412857D02*
X191145295Y-99460476D01*
X191145295Y-99460476D02*
X191335771Y-99508095D01*
X191335771Y-99508095D02*
X191573866Y-99508095D01*
X191573866Y-99508095D02*
X191764342Y-99460476D01*
X191764342Y-99460476D02*
X191859580Y-99412857D01*
X191859580Y-99412857D02*
X191907200Y-99365238D01*
X191907200Y-99365238D02*
X191954819Y-99270000D01*
X191954819Y-99270000D02*
X191954819Y-99174762D01*
X191954819Y-99174762D02*
X191907200Y-99079524D01*
X191907200Y-99079524D02*
X191859580Y-99031905D01*
X191859580Y-99031905D02*
X191764342Y-98984286D01*
X191764342Y-98984286D02*
X191573866Y-98936667D01*
X191573866Y-98936667D02*
X191335771Y-98936667D01*
X191335771Y-98936667D02*
X191145295Y-98984286D01*
X191145295Y-98984286D02*
X191050057Y-99031905D01*
X191050057Y-99031905D02*
X191002438Y-99079524D01*
X191002438Y-99079524D02*
X190954819Y-99174762D01*
X198785713Y-88954819D02*
X198166666Y-88954819D01*
X198166666Y-88954819D02*
X198499999Y-89335771D01*
X198499999Y-89335771D02*
X198357142Y-89335771D01*
X198357142Y-89335771D02*
X198261904Y-89383390D01*
X198261904Y-89383390D02*
X198214285Y-89431009D01*
X198214285Y-89431009D02*
X198166666Y-89526247D01*
X198166666Y-89526247D02*
X198166666Y-89764342D01*
X198166666Y-89764342D02*
X198214285Y-89859580D01*
X198214285Y-89859580D02*
X198261904Y-89907200D01*
X198261904Y-89907200D02*
X198357142Y-89954819D01*
X198357142Y-89954819D02*
X198642856Y-89954819D01*
X198642856Y-89954819D02*
X198738094Y-89907200D01*
X198738094Y-89907200D02*
X198785713Y-89859580D01*
X197833332Y-88954819D02*
X197214285Y-88954819D01*
X197214285Y-88954819D02*
X197547618Y-89335771D01*
X197547618Y-89335771D02*
X197404761Y-89335771D01*
X197404761Y-89335771D02*
X197309523Y-89383390D01*
X197309523Y-89383390D02*
X197261904Y-89431009D01*
X197261904Y-89431009D02*
X197214285Y-89526247D01*
X197214285Y-89526247D02*
X197214285Y-89764342D01*
X197214285Y-89764342D02*
X197261904Y-89859580D01*
X197261904Y-89859580D02*
X197309523Y-89907200D01*
X197309523Y-89907200D02*
X197404761Y-89954819D01*
X197404761Y-89954819D02*
X197690475Y-89954819D01*
X197690475Y-89954819D02*
X197785713Y-89907200D01*
X197785713Y-89907200D02*
X197833332Y-89859580D01*
X196595237Y-88954819D02*
X196499999Y-88954819D01*
X196499999Y-88954819D02*
X196404761Y-89002438D01*
X196404761Y-89002438D02*
X196357142Y-89050057D01*
X196357142Y-89050057D02*
X196309523Y-89145295D01*
X196309523Y-89145295D02*
X196261904Y-89335771D01*
X196261904Y-89335771D02*
X196261904Y-89573866D01*
X196261904Y-89573866D02*
X196309523Y-89764342D01*
X196309523Y-89764342D02*
X196357142Y-89859580D01*
X196357142Y-89859580D02*
X196404761Y-89907200D01*
X196404761Y-89907200D02*
X196499999Y-89954819D01*
X196499999Y-89954819D02*
X196595237Y-89954819D01*
X196595237Y-89954819D02*
X196690475Y-89907200D01*
X196690475Y-89907200D02*
X196738094Y-89859580D01*
X196738094Y-89859580D02*
X196785713Y-89764342D01*
X196785713Y-89764342D02*
X196833332Y-89573866D01*
X196833332Y-89573866D02*
X196833332Y-89335771D01*
X196833332Y-89335771D02*
X196785713Y-89145295D01*
X196785713Y-89145295D02*
X196738094Y-89050057D01*
X196738094Y-89050057D02*
X196690475Y-89002438D01*
X196690475Y-89002438D02*
X196595237Y-88954819D01*
X112214285Y-99454819D02*
X112785713Y-99454819D01*
X112499999Y-99454819D02*
X112499999Y-98454819D01*
X112499999Y-98454819D02*
X112595237Y-98597676D01*
X112595237Y-98597676D02*
X112690475Y-98692914D01*
X112690475Y-98692914D02*
X112785713Y-98740533D01*
X111785713Y-99454819D02*
X111785713Y-98454819D01*
X111214285Y-99454819D02*
X111642856Y-98883390D01*
X111214285Y-98454819D02*
X111785713Y-99026247D01*
X118415476Y-99454819D02*
X118986904Y-99454819D01*
X118701190Y-99454819D02*
X118701190Y-98454819D01*
X118701190Y-98454819D02*
X118796428Y-98597676D01*
X118796428Y-98597676D02*
X118891666Y-98692914D01*
X118891666Y-98692914D02*
X118986904Y-98740533D01*
X117796428Y-98454819D02*
X117701190Y-98454819D01*
X117701190Y-98454819D02*
X117605952Y-98502438D01*
X117605952Y-98502438D02*
X117558333Y-98550057D01*
X117558333Y-98550057D02*
X117510714Y-98645295D01*
X117510714Y-98645295D02*
X117463095Y-98835771D01*
X117463095Y-98835771D02*
X117463095Y-99073866D01*
X117463095Y-99073866D02*
X117510714Y-99264342D01*
X117510714Y-99264342D02*
X117558333Y-99359580D01*
X117558333Y-99359580D02*
X117605952Y-99407200D01*
X117605952Y-99407200D02*
X117701190Y-99454819D01*
X117701190Y-99454819D02*
X117796428Y-99454819D01*
X117796428Y-99454819D02*
X117891666Y-99407200D01*
X117891666Y-99407200D02*
X117939285Y-99359580D01*
X117939285Y-99359580D02*
X117986904Y-99264342D01*
X117986904Y-99264342D02*
X118034523Y-99073866D01*
X118034523Y-99073866D02*
X118034523Y-98835771D01*
X118034523Y-98835771D02*
X117986904Y-98645295D01*
X117986904Y-98645295D02*
X117939285Y-98550057D01*
X117939285Y-98550057D02*
X117891666Y-98502438D01*
X117891666Y-98502438D02*
X117796428Y-98454819D01*
X117034523Y-99454819D02*
X117034523Y-98454819D01*
X116463095Y-99454819D02*
X116891666Y-98883390D01*
X116463095Y-98454819D02*
X117034523Y-99026247D01*
X128454819Y-96214286D02*
X128454819Y-96833333D01*
X128454819Y-96833333D02*
X128835771Y-96500000D01*
X128835771Y-96500000D02*
X128835771Y-96642857D01*
X128835771Y-96642857D02*
X128883390Y-96738095D01*
X128883390Y-96738095D02*
X128931009Y-96785714D01*
X128931009Y-96785714D02*
X129026247Y-96833333D01*
X129026247Y-96833333D02*
X129264342Y-96833333D01*
X129264342Y-96833333D02*
X129359580Y-96785714D01*
X129359580Y-96785714D02*
X129407200Y-96738095D01*
X129407200Y-96738095D02*
X129454819Y-96642857D01*
X129454819Y-96642857D02*
X129454819Y-96357143D01*
X129454819Y-96357143D02*
X129407200Y-96261905D01*
X129407200Y-96261905D02*
X129359580Y-96214286D01*
X128454819Y-97166667D02*
X128454819Y-97785714D01*
X128454819Y-97785714D02*
X128835771Y-97452381D01*
X128835771Y-97452381D02*
X128835771Y-97595238D01*
X128835771Y-97595238D02*
X128883390Y-97690476D01*
X128883390Y-97690476D02*
X128931009Y-97738095D01*
X128931009Y-97738095D02*
X129026247Y-97785714D01*
X129026247Y-97785714D02*
X129264342Y-97785714D01*
X129264342Y-97785714D02*
X129359580Y-97738095D01*
X129359580Y-97738095D02*
X129407200Y-97690476D01*
X129407200Y-97690476D02*
X129454819Y-97595238D01*
X129454819Y-97595238D02*
X129454819Y-97309524D01*
X129454819Y-97309524D02*
X129407200Y-97214286D01*
X129407200Y-97214286D02*
X129359580Y-97166667D01*
X128454819Y-98404762D02*
X128454819Y-98500000D01*
X128454819Y-98500000D02*
X128502438Y-98595238D01*
X128502438Y-98595238D02*
X128550057Y-98642857D01*
X128550057Y-98642857D02*
X128645295Y-98690476D01*
X128645295Y-98690476D02*
X128835771Y-98738095D01*
X128835771Y-98738095D02*
X129073866Y-98738095D01*
X129073866Y-98738095D02*
X129264342Y-98690476D01*
X129264342Y-98690476D02*
X129359580Y-98642857D01*
X129359580Y-98642857D02*
X129407200Y-98595238D01*
X129407200Y-98595238D02*
X129454819Y-98500000D01*
X129454819Y-98500000D02*
X129454819Y-98404762D01*
X129454819Y-98404762D02*
X129407200Y-98309524D01*
X129407200Y-98309524D02*
X129359580Y-98261905D01*
X129359580Y-98261905D02*
X129264342Y-98214286D01*
X129264342Y-98214286D02*
X129073866Y-98166667D01*
X129073866Y-98166667D02*
X128835771Y-98166667D01*
X128835771Y-98166667D02*
X128645295Y-98214286D01*
X128645295Y-98214286D02*
X128550057Y-98261905D01*
X128550057Y-98261905D02*
X128502438Y-98309524D01*
X128502438Y-98309524D02*
X128454819Y-98404762D01*
X76454819Y-97309523D02*
X76454819Y-96738095D01*
X76454819Y-97023809D02*
X75454819Y-97023809D01*
X75454819Y-97023809D02*
X75597676Y-96928571D01*
X75597676Y-96928571D02*
X75692914Y-96833333D01*
X75692914Y-96833333D02*
X75740533Y-96738095D01*
X75454819Y-97928571D02*
X75454819Y-98023809D01*
X75454819Y-98023809D02*
X75502438Y-98119047D01*
X75502438Y-98119047D02*
X75550057Y-98166666D01*
X75550057Y-98166666D02*
X75645295Y-98214285D01*
X75645295Y-98214285D02*
X75835771Y-98261904D01*
X75835771Y-98261904D02*
X76073866Y-98261904D01*
X76073866Y-98261904D02*
X76264342Y-98214285D01*
X76264342Y-98214285D02*
X76359580Y-98166666D01*
X76359580Y-98166666D02*
X76407200Y-98119047D01*
X76407200Y-98119047D02*
X76454819Y-98023809D01*
X76454819Y-98023809D02*
X76454819Y-97928571D01*
X76454819Y-97928571D02*
X76407200Y-97833333D01*
X76407200Y-97833333D02*
X76359580Y-97785714D01*
X76359580Y-97785714D02*
X76264342Y-97738095D01*
X76264342Y-97738095D02*
X76073866Y-97690476D01*
X76073866Y-97690476D02*
X75835771Y-97690476D01*
X75835771Y-97690476D02*
X75645295Y-97738095D01*
X75645295Y-97738095D02*
X75550057Y-97785714D01*
X75550057Y-97785714D02*
X75502438Y-97833333D01*
X75502438Y-97833333D02*
X75454819Y-97928571D01*
X76454819Y-98690476D02*
X75454819Y-98690476D01*
X76454819Y-99261904D02*
X75883390Y-98833333D01*
X75454819Y-99261904D02*
X76026247Y-98690476D01*
D12*
%TO.C,R20*%
X139000000Y-98325000D02*
X139000000Y-98395000D01*
X140370000Y-96955000D02*
G75*
G02*
X137630000Y-96955000I-1370000J0D01*
G01*
X137630000Y-96955000D02*
G75*
G02*
X140370000Y-96955000I1370000J0D01*
G01*
%TO.C,R19*%
X173175000Y-98500000D02*
X173105000Y-98500000D01*
X175915000Y-98500000D02*
G75*
G02*
X173175000Y-98500000I-1370000J0D01*
G01*
X173175000Y-98500000D02*
G75*
G02*
X175915000Y-98500000I1370000J0D01*
G01*
%TO.C,Q5*%
X165930000Y-95650000D02*
X169530000Y-95650000D01*
X167730000Y-100100000D02*
G75*
G02*
X165891522Y-95661522I0J2600000D01*
G01*
X169568478Y-95661522D02*
G75*
G02*
X167730000Y-100100001I-1838478J-1838478D01*
G01*
%TO.C,Q3*%
X81430000Y-95650000D02*
X85030000Y-95650000D01*
X83230000Y-100100000D02*
G75*
G02*
X81391522Y-95661522I0J2600000D01*
G01*
X85068478Y-95661522D02*
G75*
G02*
X83230000Y-100100001I-1838478J-1838478D01*
G01*
%TO.C,R21*%
X134000000Y-98330000D02*
X134000000Y-98400000D01*
X135370000Y-96960000D02*
G75*
G02*
X132630000Y-96960000I-1370000J0D01*
G01*
X132630000Y-96960000D02*
G75*
G02*
X135370000Y-96960000I1370000J0D01*
G01*
%TO.C,Q2*%
X121430000Y-95650000D02*
X125030000Y-95650000D01*
X123230000Y-100100000D02*
G75*
G02*
X121391522Y-95661522I0J2600000D01*
G01*
X125068478Y-95661522D02*
G75*
G02*
X123230000Y-100100001I-1838478J-1838478D01*
G01*
%TO.C,R10*%
X52500000Y-97330000D02*
X52500000Y-97400000D01*
X53870000Y-95960000D02*
G75*
G02*
X51130000Y-95960000I-1370000J0D01*
G01*
X51130000Y-95960000D02*
G75*
G02*
X53870000Y-95960000I1370000J0D01*
G01*
%TO.C,R39*%
X56041943Y-82670000D02*
X56041943Y-82600000D01*
X57411943Y-84040000D02*
G75*
G02*
X54671943Y-84040000I-1370000J0D01*
G01*
X54671943Y-84040000D02*
G75*
G02*
X57411943Y-84040000I1370000J0D01*
G01*
%TO.C,J2*%
X91559752Y-92710435D02*
X91559752Y-87410435D01*
X101829752Y-90060435D02*
X104479752Y-90060435D01*
X101829752Y-92710435D02*
X91559752Y-92710435D01*
X101829752Y-92710435D02*
X101829752Y-90060435D01*
X103099752Y-92710435D02*
X104479752Y-92710435D01*
X104479752Y-87410435D02*
X91559752Y-87410435D01*
X104479752Y-90060435D02*
X104479752Y-87410435D01*
X104479752Y-92710435D02*
X104479752Y-91330435D01*
%TO.C,U4*%
X105630000Y-87350000D02*
X126070000Y-87350000D01*
X105630000Y-89000000D02*
X105630000Y-87350000D01*
X105630000Y-92650000D02*
X105630000Y-91000000D01*
X126070000Y-87350000D02*
X126070000Y-92650000D01*
X126070000Y-92650000D02*
X105630000Y-92650000D01*
X105570000Y-84860000D02*
X126130000Y-84860000D01*
X126130000Y-95140000D01*
X105570000Y-95140000D01*
X105570000Y-84860000D01*
X105630000Y-89000000D02*
G75*
G02*
X105630000Y-91000000I0J-1000000D01*
G01*
%TO.C,R14*%
X88675000Y-97500000D02*
X88605000Y-97500000D01*
X91415000Y-97500000D02*
G75*
G02*
X88675000Y-97500000I-1370000J0D01*
G01*
X88675000Y-97500000D02*
G75*
G02*
X91415000Y-97500000I1370000J0D01*
G01*
%TO.C,R25*%
X200500000Y-84130000D02*
X200500000Y-84060000D01*
X201870000Y-85500000D02*
G75*
G02*
X199130000Y-85500000I-1370000J0D01*
G01*
X199130000Y-85500000D02*
G75*
G02*
X201870000Y-85500000I1370000J0D01*
G01*
%TO.C,R23*%
X206500000Y-84130000D02*
X206500000Y-84060000D01*
X207870000Y-85500000D02*
G75*
G02*
X205130000Y-85500000I-1370000J0D01*
G01*
X205130000Y-85500000D02*
G75*
G02*
X207870000Y-85500000I1370000J0D01*
G01*
%TO.C,R36*%
X89000000Y-83175000D02*
X89000000Y-83105000D01*
X90370000Y-84545000D02*
G75*
G02*
X87630000Y-84545000I-1370000J0D01*
G01*
X87630000Y-84545000D02*
G75*
G02*
X90370000Y-84545000I1370000J0D01*
G01*
%TO.C,R27*%
X194500000Y-84130000D02*
X194500000Y-84060000D01*
X195870000Y-85500000D02*
G75*
G02*
X193130000Y-85500000I-1370000J0D01*
G01*
X193130000Y-85500000D02*
G75*
G02*
X195870000Y-85500000I1370000J0D01*
G01*
%TO.C,R38*%
X67123404Y-83023008D02*
X67123404Y-82953008D01*
X68493404Y-84393008D02*
G75*
G02*
X65753404Y-84393008I-1370000J0D01*
G01*
X65753404Y-84393008D02*
G75*
G02*
X68493404Y-84393008I1370000J0D01*
G01*
%TO.C,R28*%
X206500000Y-92830000D02*
X206500000Y-92900000D01*
X207870000Y-91460000D02*
G75*
G02*
X205130000Y-91460000I-1370000J0D01*
G01*
X205130000Y-91460000D02*
G75*
G02*
X207870000Y-91460000I1370000J0D01*
G01*
%TO.C,R24*%
X203500000Y-84130000D02*
X203500000Y-84060000D01*
X204870000Y-85500000D02*
G75*
G02*
X202130000Y-85500000I-1370000J0D01*
G01*
X202130000Y-85500000D02*
G75*
G02*
X204870000Y-85500000I1370000J0D01*
G01*
%TO.C,R30*%
X200500000Y-92870000D02*
X200500000Y-92940000D01*
X201870000Y-91500000D02*
G75*
G02*
X199130000Y-91500000I-1370000J0D01*
G01*
X199130000Y-91500000D02*
G75*
G02*
X201870000Y-91500000I1370000J0D01*
G01*
%TO.C,Q4*%
X175300000Y-88850000D02*
X171700000Y-88850000D01*
X171661522Y-88838478D02*
G75*
G02*
X173500000Y-84399999I1838478J1838478D01*
G01*
X173500000Y-84400000D02*
G75*
G02*
X175338478Y-88838478I0J-2600000D01*
G01*
%TO.C,R32*%
X194500000Y-92870000D02*
X194500000Y-92940000D01*
X195870000Y-91500000D02*
G75*
G02*
X193130000Y-91500000I-1370000J0D01*
G01*
X193130000Y-91500000D02*
G75*
G02*
X195870000Y-91500000I1370000J0D01*
G01*
%TO.C,R5*%
X52000000Y-83325000D02*
X52000000Y-83395000D01*
X53370000Y-81955000D02*
G75*
G02*
X50630000Y-81955000I-1370000J0D01*
G01*
X50630000Y-81955000D02*
G75*
G02*
X53370000Y-81955000I1370000J0D01*
G01*
%TO.C,R35*%
X181000000Y-98325000D02*
X181000000Y-98395000D01*
X182370000Y-96955000D02*
G75*
G02*
X179630000Y-96955000I-1370000J0D01*
G01*
X179630000Y-96955000D02*
G75*
G02*
X182370000Y-96955000I1370000J0D01*
G01*
%TO.C,R18*%
X167830000Y-93500000D02*
X167900000Y-93500000D01*
X167830000Y-93500000D02*
G75*
G02*
X165090000Y-93500000I-1370000J0D01*
G01*
X165090000Y-93500000D02*
G75*
G02*
X167830000Y-93500000I1370000J0D01*
G01*
%TO.C,R17*%
X173825000Y-91000000D02*
X173895000Y-91000000D01*
X173825000Y-91000000D02*
G75*
G02*
X171085000Y-91000000I-1370000J0D01*
G01*
X171085000Y-91000000D02*
G75*
G02*
X173825000Y-91000000I1370000J0D01*
G01*
%TO.C,Q1*%
X55470000Y-94790000D02*
X59070000Y-94790000D01*
X57270000Y-99240000D02*
G75*
G02*
X55431522Y-94801522I0J2600000D01*
G01*
X59108478Y-94801522D02*
G75*
G02*
X57270000Y-99240001I-1838478J-1838478D01*
G01*
%TO.C,R37*%
X78000000Y-83130000D02*
X78000000Y-83060000D01*
X79370000Y-84500000D02*
G75*
G02*
X76630000Y-84500000I-1370000J0D01*
G01*
X76630000Y-84500000D02*
G75*
G02*
X79370000Y-84500000I1370000J0D01*
G01*
%TO.C,R11*%
X62000000Y-97325000D02*
X62000000Y-97395000D01*
X63370000Y-95955000D02*
G75*
G02*
X60630000Y-95955000I-1370000J0D01*
G01*
X60630000Y-95955000D02*
G75*
G02*
X63370000Y-95955000I1370000J0D01*
G01*
%TO.C,U3*%
X141037393Y-87416529D02*
X161477393Y-87416529D01*
X141037393Y-89066529D02*
X141037393Y-87416529D01*
X141037393Y-92716529D02*
X141037393Y-91066529D01*
X161477393Y-87416529D02*
X161477393Y-92716529D01*
X161477393Y-92716529D02*
X141037393Y-92716529D01*
X140977393Y-84926529D02*
X161537393Y-84926529D01*
X161537393Y-95206529D01*
X140977393Y-95206529D01*
X140977393Y-84926529D01*
X141037393Y-89066529D02*
G75*
G02*
X141037393Y-91066529I0J-1000000D01*
G01*
%TO.C,R26*%
X197500000Y-84130000D02*
X197500000Y-84060000D01*
X198870000Y-85500000D02*
G75*
G02*
X196130000Y-85500000I-1370000J0D01*
G01*
X196130000Y-85500000D02*
G75*
G02*
X198870000Y-85500000I1370000J0D01*
G01*
%TO.C,R16*%
X168325000Y-86000000D02*
X168395000Y-86000000D01*
X168325000Y-86000000D02*
G75*
G02*
X165585000Y-86000000I-1370000J0D01*
G01*
X165585000Y-86000000D02*
G75*
G02*
X168325000Y-86000000I1370000J0D01*
G01*
%TO.C,R29*%
X203500000Y-92830000D02*
X203500000Y-92900000D01*
X204870000Y-91460000D02*
G75*
G02*
X202130000Y-91460000I-1370000J0D01*
G01*
X202130000Y-91460000D02*
G75*
G02*
X204870000Y-91460000I1370000J0D01*
G01*
%TO.C,R34*%
X184000000Y-98325000D02*
X184000000Y-98395000D01*
X185370000Y-96955000D02*
G75*
G02*
X182630000Y-96955000I-1370000J0D01*
G01*
X182630000Y-96955000D02*
G75*
G02*
X185370000Y-96955000I1370000J0D01*
G01*
%TO.C,R33*%
X189500000Y-98370000D02*
X189500000Y-98440000D01*
X190870000Y-97000000D02*
G75*
G02*
X188130000Y-97000000I-1370000J0D01*
G01*
X188130000Y-97000000D02*
G75*
G02*
X190870000Y-97000000I1370000J0D01*
G01*
%TO.C,R31*%
X197500000Y-92830000D02*
X197500000Y-92900000D01*
X198870000Y-91460000D02*
G75*
G02*
X196130000Y-91460000I-1370000J0D01*
G01*
X196130000Y-91460000D02*
G75*
G02*
X198870000Y-91460000I1370000J0D01*
G01*
%TO.C,R12*%
X111825000Y-97500000D02*
X111895000Y-97500000D01*
X111825000Y-97500000D02*
G75*
G02*
X109085000Y-97500000I-1370000J0D01*
G01*
X109085000Y-97500000D02*
G75*
G02*
X111825000Y-97500000I1370000J0D01*
G01*
%TO.C,R13*%
X117825000Y-97500000D02*
X117895000Y-97500000D01*
X117825000Y-97500000D02*
G75*
G02*
X115085000Y-97500000I-1370000J0D01*
G01*
X115085000Y-97500000D02*
G75*
G02*
X117825000Y-97500000I1370000J0D01*
G01*
%TO.C,R22*%
X130814416Y-98330000D02*
X130814416Y-98400000D01*
X132184416Y-96960000D02*
G75*
G02*
X129444416Y-96960000I-1370000J0D01*
G01*
X129444416Y-96960000D02*
G75*
G02*
X132184416Y-96960000I1370000J0D01*
G01*
%TO.C,R15*%
X78369360Y-98040213D02*
X78369360Y-98110213D01*
X79739360Y-96670213D02*
G75*
G02*
X76999360Y-96670213I-1370000J0D01*
G01*
X76999360Y-96670213D02*
G75*
G02*
X79739360Y-96670213I1370000J0D01*
G01*
%TD*%
M02*
